<!-- by TradingView --><svg width="56" height="56" fill="none" xmlns="http://www.w3.org/2000/svg"><path fill="#F0F3FA" d="M0 0h56v56H0z"/><circle cx="28" cy="28" r="28" fill="#F6F8FD"/><path d="M19.883 27C17.228 27 15 29.233 15 31.963v3.014C15 37.709 17.228 40 19.883 40h2.17C24.706 40 27 37.708 27 34.977v-3.014C27 29.233 24.707 27 22.052 27h-2.17zM17 35.06v-3.015C17 30.437 18.357 29 19.883 29h2.17C23.577 29 25 30.437 25 32.045v3.015c0 1.608-1.422 2.94-2.948 2.94h-2.17C18.358 38 17 36.668 17 35.06zM18.574 12c-2.491 0-4.578 2.17-4.578 4.742v3.467c0 2.655 2.087 4.791 4.578 4.791h1.862C23.01 25 25 22.782 25 20.209v-3.466C25.082 14.168 23.003 12 20.512 12h-1.938zM16 20.209v-3.466C16 15.299 17.205 14 18.574 14h1.862C21.806 14 23 15.292 23 16.742v3.467C23 21.653 21.805 23 20.436 23h-1.862C17.212 23 16 21.653 16 20.209z" fill="#005DAA"/><path d="M34.572 27C31.356 27 29 29.782 29 33.162v4.797C29 41.333 31.356 44 34.572 44h2.73C40.52 44 43 41.34 43 37.96v-4.798C43 29.788 40.52 27 37.303 27h-2.73zM31 37.953v-4.798C31 30.986 32.567 29 34.572 29h2.73C39.316 29 41 30.904 41 33.155v4.798C41 40.122 39.308 42 37.303 42h-2.73C32.484 42.007 31 40.122 31 37.953zM31.216 13C28.642 13 27 14.977 27 17.632v3.299C27 23.586 28.822 26 31.395 26h2.087C36.055 26 38 23.586 38 20.93v-3.298C38 14.977 35.876 13 33.303 13h-2.087zM29 20.924v-3.292c0-1.444.847-2.632 2.298-2.632h2.087C34.754 15 36 16.181 36 17.632v3.299C36 22.375 35.015 24 33.564 24h-2.087C30.033 23.918 29 22.375 29 20.924z" fill="#A30046"/></svg>