<!-- by TradingView --><svg width="56" height="56" fill="none" xmlns="http://www.w3.org/2000/svg"><path fill="url(#paint0_linear)" d="M0 0h56v56H0z"/><circle cx="28" cy="28" r="28" fill="url(#paint1_linear)"/><ellipse cx="28" cy="28" rx="20" ry="12" fill="#6DACDB"/><path d="M15.876 28.159H48" stroke="#fff" stroke-width=".303"/><path fill-rule="evenodd" clip-rule="evenodd" d="M19.714 22.404l.052-.143.052-.142h.002l.006.003.025.008a14.154 14.154 0 00.494.16c.345.105.85.248 1.485.395a28.31 28.31 0 005.177.699c4.21.173 9.628-.554 14.509-4.228l.277.153c-4.954 3.729-10.545 4.553-14.799 4.378a28.609 28.609 0 01-5.232-.707 23.153 23.153 0 01-1.505-.4 14.267 14.267 0 01-.507-.163l-.027-.01-.007-.003h-.002z" fill="#fff"/><path d="M31.5 16.5s11.099 2.396 11.502 11.712c0 0-.236 8.65-11.502 11.288" stroke="#fff" stroke-width=".303"/><path d="M31.5 17.5s4.912 3.054 4.912 10.712c0 0 .262 6.779-4.434 10.3L31.5 39" stroke="#fff" stroke-width=".303"/><path d="M19.928 34.199l-.062-.139c-.062-.138-.061-.139-.061-.139l.004-.002.013-.005.05-.022a15.841 15.841 0 01.935-.35c.64-.216 1.561-.49 2.687-.717 2.248-.455 5.32-.73 8.61-.001h.004l.041.005a12.247 12.247 0 01.747.12 19.06 19.06 0 012.118.544 23.392 23.392 0 016.57 3.309l-.29.164a23.079 23.079 0 00-6.371-3.184 18.75 18.75 0 00-2.085-.535 12.049 12.049 0 00-.725-.117l-.037-.004-.01-.001h-.002l-.01-.002-.008-.002c-3.238-.718-6.269-.449-8.492.001-1.111.225-2.02.495-2.65.708a15.59 15.59 0 00-.914.342l-.047.02-.012.005-.003.002z" fill="#fff"/><path d="M27.988 20.088v19.154m-7.033-17.655s-3.487 5.332 0 13.144" stroke="#fff" stroke-width=".303"/><path d="M8.097 28.937s.242 4.605 6.227 7.917c0 0 6.41 4.357 17.676 2.908V32h3v-4H21v4h3v3.2c-8.122-2.097-7.68-7.686-7.68-7.686 1.148-6.728 10.882-7.116 10.882-7.116s2.616-.142 4.798.428v-4.57c-1.666-.256-9.572-1.162-17.716 3.158 0 0-7.195 3.855-6.187 9.523z" fill="#fff"/><defs><linearGradient id="paint0_linear" x1="10.418" y1="9.712" x2="68.147" y2="76.017" gradientUnits="userSpaceOnUse"><stop stop-color="#1A1E21"/><stop offset="1" stop-color="#06060A"/></linearGradient><linearGradient id="paint1_linear" x1="10.418" y1="9.712" x2="68.147" y2="76.017" gradientUnits="userSpaceOnUse"><stop stop-color="#1A1E21"/><stop offset="1" stop-color="#06060A"/></linearGradient></defs></svg>