<!-- by TradingView --><svg width="56" height="56" fill="none" xmlns="http://www.w3.org/2000/svg"><path fill="url(#paint0_linear)" d="M0 0h56v56H0z"/><circle cx="28" cy="28" r="28" fill="url(#paint1_linear)"/><path d="M15.142 34.6c-3.708-1.127-6.404-4.55-6.404-8.6 0-4.094 2.753-7.545 6.518-8.643.386-.114.286-.357-.185-.357C10.065 17 6 21.037 6 26s4.065 9 9.07 9c.472 0 .5-.271.072-.4z" fill="#09C"/><path d="M10.464 28.097a6.25 6.25 0 01-.043-.728 7.14 7.14 0 017.146-7.145c3.737 0 4.85 1.668 4.992 1.554.157-.114-1.355-3.423-5.734-3.423a7.14 7.14 0 00-6.66 9.727c.128.343.328.343.3.015z" fill="#09C"/><path d="M13.46 22.948c1.853-.813 4.193-.842 6.489-.029 1.54.542 2.439 1.313 2.51 1.27.129-.057-.898-1.67-2.738-2.368a6.533 6.533 0 00-6.361.97c-.2.157-.129.257.1.157z" fill="#09C"/><path d="M19.006 31l.108 1H21l-.638-7h-2.808L14 32h1.926l.597-1h2.483zm-.095-1.562h-1.723l1.479-3.027h.013l.23 3.027zM23.617 29h.286l1.44-2h1.753l-1.957 2.452L26.28 32h-1.862l-.747-2H23.4l-.42 2h-1.59l1.466-7h1.59l-.829 4zm5.99 3h1.638l.658-3.115c.364-1.68-.294-1.885-1.974-1.885-1.176 0-2.31-.014-2.632 1.502h1.638c.098-.437.378-.502.784-.502.714 0 .686.256.588.707l-.168.78h-.07c-.056-.561-.784-.487-1.247-.487-1.19 0-1.89.309-2.142 1.483-.265 1.243.337 1.517 1.485 1.517.574 0 1.344-.11 1.61-.779h.056l-.224.779zm-.463-2c.533 0 .883-.011.798.399-.111.505-.335.601-1.022.601-.252 0-.713 0-.602-.533.099-.45.42-.467.826-.467zm5.285-3l-.206.746h.069c.314-.58.956-.746 1.503-.746.684 0 1.367.124 1.271.967h.069c.232-.705.943-.967 1.558-.967 1.134 0 1.613.47 1.366 1.616L39.35 32h-1.6l.602-2.86c.082-.51.164-.897-.451-.897-.63 0-.834.414-.944.953L36.37 32h-1.6l.63-2.998c.082-.455.11-.76-.451-.76-.656 0-.861.36-.984.954L33.376 32h-1.6l1.095-5h1.558zm8.334 5h1.522l.625-3.115c.338-1.68-.274-1.885-1.834-1.885-1.093 0-2.147-.014-2.446 1.502h1.522c.09-.437.321-.502.698-.502.664 0 .668.256.577.707l-.156.78h-.065c-.052-.56-.729-.487-1.158-.487-1.106 0-1.756.309-1.99 1.483-.247 1.243.312 1.517 1.378 1.517.534 0 1.25-.11 1.496-.779h.053l-.222.779zm-.416-2c.494 0 .82-.011.742.399-.104.505-.312.601-.95.601-.234 0-.663 0-.56-.533.092-.45.391-.467.768-.467zM48 25.895a.879.879 0 01-.87.872.87.87 0 01-.87-.872.87.87 0 01.87-.872c.488 0 .87.383.87.872zM46.7 32h-1.6l1.025-5h1.613l-1.039 5z" fill="#F93"/><defs><linearGradient id="paint0_linear" x1="10.418" y1="9.712" x2="68.147" y2="76.017" gradientUnits="userSpaceOnUse"><stop stop-color="#1A1E21"/><stop offset="1" stop-color="#06060A"/></linearGradient><linearGradient id="paint1_linear" x1="10.418" y1="9.712" x2="68.147" y2="76.017" gradientUnits="userSpaceOnUse"><stop stop-color="#1A1E21"/><stop offset="1" stop-color="#06060A"/></linearGradient></defs></svg>