<!-- by TradingView --><svg width="56" height="56" fill="none" xmlns="http://www.w3.org/2000/svg"><path fill="#0076B8" d="M0 0h56v56H0z"/><circle cx="28" cy="28" r="28" fill="#0076B8"/><path fill-rule="evenodd" clip-rule="evenodd" d="M10 27.756C10 20.168 18.072 14 28 14s18 6.168 18 13.756C46 35.346 37.928 42 28 42s-18-6.655-18-14.244zm2.421 0c0 7.061 6.983 13.27 15.579 13.27s15.619-6.209 15.578-13.27c0-2.714-1.031-5.236-2.79-7.313l-.12.08c-.572.381-1.228.818-1.448 1.187l.242.325c.035.07.071.14.11.212.137.262.288.55.415.965.322 1.055.524 2.313.524 3.611 0 .142-.01.284-.02.426-.01.142-.02.284-.02.426l-.04.163-.283.73c-.404 1.015-1.09 2.881-1.292 3.652l-.08.163c-.928 1.055-2.099 2.637-2.623 3.936-.122.243-.283.365-.485.406-.323.04-.645-.122-1.05-.487-.16-.163-.282-.366-.403-.609a.76.76 0 01-.12.162c-.364.568-1.01 1.34-2.22 1.948-.566.284-1.978.771-3.552.893-1.05.122-1.655.04-2.14-.04-.443-.082-.927-.285-1.089-.893-1.13.527-2.34-.244-2.018-1.218-.565.244-2.18-.365-1.25-1.948-.018-.017-.069-.082-.13-.159a4.766 4.766 0 00-.234-.287 3.203 3.203 0 01-1.17 1.46c-.243.123-.606.123-.808 0a1.422 1.422 0 01-.363-.608.21.21 0 01-.04-.06c-.01-.021-.02-.041-.04-.062-1.05-2.15-1.938-3.287-2.463-3.855-.08-.04-.12-.162-.16-.405a56.735 56.735 0 00-.526-2.882l-.04-.121-.363-1.867v-.122c.038-.77.403-1.722.785-2.718l.062-.163s.444-1.217.485-1.299c-.068-.05-.29-.243-.53-.45-.332-.288-.698-.605-.722-.605 0 0-.084-.063-.16-.114-1.879 2.12-2.988 4.727-2.988 7.54zm3.838-8.416c1.497-1.414 3.363-2.556 5.474-3.323l.092.093.727.65.403.405c.323.284.363.447.363.487 0 .027-.036.054-.071.081a.477.477 0 00-.05.04c-.04.041-.12.041-.12.041l-.041.285h.161c.969-.041 1.857.649 2.462 1.176 1.01.974 1.776 2.557 1.937 4.018l.808 4.139.282.65.04.12.122.285c.12.284.282.528.282.528l.404.324.565.568.161.203.283.284c.04 0 .847.122.847.122 1.413.243 1.332 1.014 1.332 1.014s.847-1.298-1.17-1.745l-.646-.121-.242-.325-.081-.081-.605-.609-.283-.243-.242-.69-.363-.852a9.932 9.932 0 01-.242-1.258c0-.04-.081-.406-.081-.406l-.242-1.745c0-.04.04-.325.04-.325.121-.649.363-1.38.726-2.15.444-.934 1.332-1.542 1.373-1.542.686-.406 1.654-.65 2.18-.771.2 0 .282-.122.322-.244l.04-.081h-.08c-.283-.04-.646-.162-.646-.203v-.04c0-.041.04-.122.12-.244l.445-.406.242-.243s.89-.86 1.157-1.123c2.183.82 4.097 2.043 5.602 3.553-.154.108-.423.289-.423.289-.524.365-1.09.527-1.412.365-.04 0-.484-.284-.484-.284a.405.405 0 01-.122-.04l-.161-.041-.162.04-.08.04.161.163c.292.33.452.626.658 1.01l.069.126.12.244.122.325c.282.69.524 1.42.686 2.11a16.24 16.24 0 01.484 3.246v.122l-.403 1.177c-.444 1.217-.969 2.759-1.09 3.408l-.04.081c-1.17 1.218-1.978 2.638-2.341 3.53-.04.123-.08.123-.121.123-.024 0-.092-.044-.16-.088-.045-.03-.09-.059-.123-.075-.282-.284-.484-.811-.444-1.38.04-.73.323-1.339.848-1.744.06-.061.053-.122.045-.183a.5.5 0 01-.005-.06c-.161-.813.08-2.07.565-2.395l.121-.081-.12-.081c-1.413-1.096-2.14-3.166-2.18-4.708v-.203l-.202.082c-.04.04-.121.162-.121.162-.04.284-.08.609-.08.893 0 .64.11 1.225.172 1.544l.03.16a5.328 5.328 0 001.21 2.313l.04.04c-.282.325-.363 1.137-.363 1.786 0 .203 0 .365.04.487-.686.568-.847 1.299-.888 1.826l.04.568-.322.406-.08.081c-.647.893-1.09 1.502-2.14 2.03-1.17.608-3.39 1.014-4.843.892-.5-.039-.487-.483-.484-.56v-.008c0-.06.021-.097.049-.145l.032-.058s.12-.122.12-.162c1.373.162 2.664 0 3.23-.284.04-.041.201-.284.201-.284l.08-.122-.12.04c-1.17.285-3.471-.08-4.722-.608-1.339-.554-1.756-1.109-2.824-2.53l-.082-.108-.323-.406c0-.406-.121-.852-.323-1.177-.17-.272-.367-.459-.474-.56a2.294 2.294 0 01-.05-.048c.08-.244.12-.609.12-.974 0-.487-.08-1.015-.282-1.258.848-.65 1.251-1.34 1.251-2.07 0-.365-.202-.933-.202-.933l-.322-.162.04.203c.117 1.26-1.019 2.099-1.787 2.667l-.07.051-.242.163.162.08c.645.407.645 1.705.484 2.436v.04l.04.081h.04l.283.244c.646.852.565 2.15-.12 2.922-.122.162-.203.162-.243.162-.121-.04-.202-.244-.202-.325l-.202-.406-.134-.272c-.506-1.023-.96-1.94-1.924-3.096l-.04-.121a36.51 36.51 0 00-.727-4.099l-.12-.65v-.162c.079-1.236.47-2.238.905-3.35l.022-.058.283-.73.242-.569.04-.08c.283-.366.646-.731 1.05-1.097l.202-.162-.242-.122s-.485.04-1.01.284l-.08.041c-.363.162-.767.284-1.09.162 0 0-.466-.268-.723-.422zm17.222-3.587a18.485 18.485 0 00-5.481-.82c-1.862 0-3.648.27-5.304.766.62.51 1.523 1.348 2.08 1.865.148.137.271.252.359.332.807.324 1.412.811 1.937 1.42.484.568.807 1.217 1.09 2.029.08-.244.242-.65.242-.65.363-.852 1.291-1.744 2.22-2.11.363-.121 1.17-1.014 1.816-1.744 0 0 .812-.851 1.041-1.088zm-8.589 18.253l-.322-.325-2.059-2.719h.323c.404-.121.969-.365 1.17-.527l.243-.244c.04.406-.202.812-.242.812l.282.446.202.325.484.73.162.244.443.65.525.202s.807.446.848.446l.242.163.605.405h.04s.646-.08 1.09-.04c1.372.081 1.776.527 1.816.893.081.405-.403.77-.403.77s.161-.446-.323-.69c-.444-.202-1.09-.202-1.614-.202l-.929.04h-.12l-.727-.405-.444-.244-.08-.04-.606-.325-.606-.365zm2.018-1.258l-.08-.122-.162-.284-1.776-2.435.122-.08c.242-.163.605-.447.726-.61.121-.162.202-.324.202-.324s.12.487-.04.811c.04.081.524.771.524.771l.08.122c.095.142.202.291.311.443.171.239.35.486.497.734 0 0 .161.284.161.325l.727.243.888.446.161.082.525.324c1.977 0 2.502.568 2.542 1.177.04.65-.605 1.055-.686 1.096 0 0 .404-.447.081-.893-.202-.325-.646-.528-1.21-.568-.242-.022-.555-.008-.797.002-.203.01-.356.016-.374-.002l-.646-.406c-.242-.162-.767-.406-1.17-.568 0 0-.565-.244-.606-.284zm.646-5.275s.202.365.08.77l1.373 2.192.525.243.161.081.646.406.484.325.928.122c.727.08.969.324 1.17.608.526.771-.241 1.502-.241 1.502s.322-.609-.242-1.015a1.869 1.869 0 00-1.01-.365l-.887-.04h-.04l-.606-.406-.646-.406-.202-.122s-.565-.324-.605-.365l-.282-.365-.081-.122-1.453-2.07.12-.04c.364-.244.606-.487.687-.69l.121-.244zm-2.18 9.373c-1.29.65-1.977.082-1.694-.608.403.284 1.09.487 1.695.608zm-2.219-.974c-.888.244-1.21-.365-1.009-.892.202.203.807.77 1.009.892z" fill="#fff"/></svg>