<!-- by TradingView --><svg width="56" height="56" fill="none" xmlns="http://www.w3.org/2000/svg"><path fill="url(#paint0_linear)" d="M0 0h56v56H0z"/><path d="M39.71 32.505c-.858-1.075-1.518-1.841-1.518-3.908v-6.86c0-2.894-.198-5.603-2.34-7.586C34.135 12.578 31.31 12 29.08 12c-4.716 0-8.93 1.906-9.958 7.032-.087.581.341.827.686.91l4.47.41c.428 0 .686-.413.773-.827.341-1.737 1.891-3.198 3.606-3.198.944 0 2.805.946 2.805 2.93v2.48c-2.747 0-5.812.185-8.213 1.176-2.83 1.16-5.249 3.382-5.249 6.938 0 4.547 3.52 7.032 7.292 7.032 3.174 0 4.903-.822 7.388-3.221.773 1.16 1.251 1.98 2.708 3.22.345.169.773.169 1.028-.08.857-.746 2.352-2.313 3.293-3.056.429-.333.345-.827 0-1.24zm-8.248-6.44c0 1.653-.326 5.778-4.526 5.778-2.159 0-2.205-2.533-2.205-2.533 0-3.246 3.472-4.328 6.73-4.328v1.082z" fill="#fff"/><path d="M41.193 40.139C37.643 42.534 32.325 44 28.017 44c-6.166 0-11.655-2.238-15.878-5.714-.336-.31 0-.618.34-.464 4.56 2.395 9.712 3.783 15.452 3.783 3.886 0 8.785-.773 12.754-2.317.59-.154 1.098.464.508.85zm1.267-1.623c-.423-.54-2.956-.23-4.055-.154-.34 0-.422-.233-.086-.462 1.943-1.315 5.236-.93 5.575-.465.337.465-.085 3.476-1.942 4.867-.255.232-.591.075-.423-.154.422-.93 1.353-3.09.93-3.633z" fill="#FFB300"/><defs><linearGradient id="paint0_linear" x1="10.418" y1="9.712" x2="68.147" y2="76.017" gradientUnits="userSpaceOnUse"><stop stop-color="#1A1E21"/><stop offset="1" stop-color="#06060A"/></linearGradient></defs></svg>