<!-- by TradingView --><svg width="56" height="56" fill="none" xmlns="http://www.w3.org/2000/svg"><path fill="url(#paint0_linear)" d="M0 0h56v56H0z"/><path d="M33.591 22.011h-.35a.627.627 0 01-.173.42.55.55 0 01-.4.17c-.404 0-1.284-.59-2.259-.59-1.467 0-2.948.97-2.948 2.954 0 1.722 1.048 2.483 2.543 3.404 2.396 1.492 2.654 2.085 2.654 3.08 0 .267-.053.53-.154.773-.1.244-.247.463-.43.644a1.8 1.8 0 01-.634.407 1.713 1.713 0 01-.734.104c-2.2 0-3.025-2.26-3.336-3.076H27l.485 3.684h.35a.575.575 0 01.136-.404.48.48 0 01.37-.17c.486 0 1.286.589 2.526.589 2.33 0 3.433-1.667 3.433-3.144 0-3.565-5.438-3.915-5.438-6.518 0-1.081.831-1.618 1.648-1.618 1.708 0 2.75 1.562 3.029 2.983h.408L33.597 22M45 22.004h-3.543v.341c.5 0 1.114.04 1.114.598a1.358 1.358 0 01-.226.668l-2.31 4.084-2.398-4.018a1.82 1.82 0 01-.275-.776c0-.505.407-.524 1.149-.56V22H34v.342c.722.073.968.128 2.616 2.841l2.124 3.494v3.149c0 1.378-.049 1.794-1.634 1.828V34h4.948v-.346c-1.458 0-1.666-.326-1.666-1.63V28.53l2.374-4.12c1.117-1.917 1.652-1.99 2.234-2.064v-.342M51.281 22.011h-.359a.615.615 0 01-.178.42.57.57 0 01-.411.17c-.417 0-1.319-.59-2.325-.59-1.505 0-3.032.97-3.032 2.954 0 1.722 1.078 2.483 2.612 3.404 2.465 1.492 2.73 2.085 2.73 3.08 0 .266-.054.53-.157.773a1.941 1.941 0 01-.441.644c-.188.18-.41.32-.652.407a1.806 1.806 0 01-.754.104c-2.267 0-3.115-2.26-3.435-3.076h-.384l.499 3.684h.36a.556.556 0 01.137-.404.518.518 0 01.38-.17c.503 0 1.325.589 2.594.589 2.4 0 3.535-1.667 3.535-3.144 0-3.565-5.594-3.915-5.594-6.518 0-1.081.855-1.618 1.688-1.618 1.761 0 2.835 1.562 3.12 2.983h.416L51.27 22" fill="#EFCA2E"/><path fill-rule="evenodd" clip-rule="evenodd" d="M16 22h3.975L23 28.807V22h3v12h-3.975L19 27.193V34h-3V22z" fill="#fff"/><path fill-rule="evenodd" clip-rule="evenodd" d="M7.919 22h4.162l4 12H12.92L10 25.243 7.081 34H3.92l4-12z" fill="#fff"/><defs><linearGradient id="paint0_linear" x1="10.418" y1="9.712" x2="68.147" y2="76.017" gradientUnits="userSpaceOnUse"><stop stop-color="#1A1E21"/><stop offset="1" stop-color="#06060A"/></linearGradient></defs></svg>