<!-- by TradingView --><svg width="56" height="56" fill="none" xmlns="http://www.w3.org/2000/svg"><path fill="#E31C24" d="M0 0h56v56H0z"/><circle cx="28" cy="28" r="28" fill="#E31C24"/><path d="M29.902 31l-1.881-3.475L26.069 31h3.833zM17.37 39h17.098c-.43-.286-1.218-2-1.218-2H17.966c-1.238 0-1.483-2 .23-2h14.07l-.996-2h-14c-3.447.147-3.567 5.725.099 6zm23.884-4.716l-8.686-15.218c-.02.682-.964 2.352-.964 2.352l7.744 13.835c.541 1.08-.824 2.379-1.59.915l-7.243-12.837-1.206 2.105 6.918 12.175c1.803 2.863 6.556-.072 5.027-3.327zM25.716 15.78l-8.9 15.45c.534-.26 2.402-.229 2.402-.229l8.086-14.187c.619-1.117 2.598-.24 1.933.948L21.613 31h2.14l7.267-12.713c1.552-3-3.265-5.487-5.304-2.508zm17.773 18.31c1.673 3.319-1.059 6.889-3.957 6.901l-22.685.003c-3.962 0-5.585-4.334-3.962-7.26l11.156-19.655c1.922-2.861 6.34-2.69 8.115.033l10.979 19.335.354.643z" fill="#fff"/></svg>