<!-- by TradingView --><svg width="56" height="56" fill="none" xmlns="http://www.w3.org/2000/svg"><path fill="#005595" d="M0 0h56v56H0z"/><circle cx="28" cy="28" r="28" fill="#005595"/><path d="M43.996 23.671v-1.264c-.287.232-1.04.776-1.802.776-.965 0-1.93-.882-1.93-.882l-.033.028c-.148.129-.828.684-1.575.822-.052.01-.107.018-.159.023h-.01a1.39 1.39 0 01-.155.009c-.964 0-1.926-.882-1.926-.882s-.968.882-1.934.882c-.444 0-.883-.189-1.233-.39a2.068 2.068 0 01-.555-.493 2.03 2.03 0 01-.345-.633l-3.48-10.999L24.941 23H12l10.522 7.415-4.081 12.253 10.418-7.661 10.416 7.661-3.657-10.976c-.336.167-.741.315-1.151.315-.963 0-1.93-.808-1.93-.808s-.964.808-1.928.808-1.93-.881-1.93-.881l-.002.073v-1.438s.968.883 1.932.883 1.928-.883 1.928-.883.967.883 1.93.883c.842 0 1.684-.672 1.885-.843v-1.525c-.206.16-1.043.77-1.882.77-.966 0-1.928-.808-1.928-.808s-.967.807-1.93.807c-.965 0-1.93-.88-1.93-.88l-.002.073v-1.437s.967.882 1.931.882c.964 0 1.93-.882 1.93-.882s.963.882 1.929.882c.965 0 1.93-.882 1.93-.882s.965.882 1.929.882a1.4 1.4 0 00.157-.008l.009-.001c.052-.004.105-.012.158-.022a2.89 2.89 0 00.859-.328l.7-.5V25.28c-.176.134-.834.605-1.558.74-.053.01-.107.017-.16.02l-.008.002a1.624 1.624 0 01-.155.008c-.964 0-1.931-.808-1.931-.808s-.965.808-1.93.808c-.966 0-1.928-.808-1.928-.808s-.967.808-1.93.808c-.965 0-1.93-.88-1.93-.88l-.002.072v-1.437l.002.041s-.002-.02-.002-.041c.01.01.97.882 1.931.882.433 0 .862-.179 1.21-.375.424-.221.722-.466.722-.466s.271.224.666.436c.354.21.805.405 1.261.405.432 0 .86-.179 1.206-.374.426-.22.726-.467.726-.467s.291.24.708.458c.347.199.782.383 1.219.383.054 0 .106-.003.157-.008h.009c.052-.005.105-.013.158-.022.383-.07.75-.254 1.034-.43.346-.195.577-.38.577-.38s.275.227.675.44c.352.206.8.4 1.253.4.416 0 .827-.165 1.166-.352.278-.14.507-.294.638-.391v-.272z" fill="#fff"/></svg>