<!-- by TradingView --><svg width="56" height="56" fill="none" xmlns="http://www.w3.org/2000/svg"><path fill="#D52B1E" d="M0 0h56v56H0z"/><circle cx="28" cy="28" r="28" fill="#D52B1E"/><path d="M49.886 28h-1.012c.363-.625.735-1.007 1.054-.951.337.06.226.407-.042.951zm.561-2.329c-1.797-.093-3.377 1.292-4.152 3.425-.554 1.527-.429 2.81 1.272 2.899 1.431.074 2.703-.293 3.655-1.995h-2.194c-.3.446-.617.494-.889.442-.381-.072.06-1.127.279-1.442h3.19c.124-.252.24-.521.345-.812.554-1.527.054-2.436-1.506-2.517zm-4.698.388c-1.072-.256-1.777.404-1.777.404l.235-.463H42.17l-3.504 5.998h2.237l2.105-3.577c.148-.254.349-.545.649-.482.268.056.347.296.26.457L41.797 32h2.22l2.542-4.332c.351-.629-.226-1.47-.811-1.61zm-7.93 2.544c-.55 1.002-.924 1.502-1.386 1.416-.337-.062-.21-.514.12-1.12.464-.846.96-1.462 1.374-1.394.386.064.223.492-.109 1.098zm.832-2.932c-1.846-.093-3.58 1.292-4.375 3.425-.57 1.527-.33 2.81 1.417 2.899 1.764.089 3.453-.954 4.397-3.484.57-1.527.163-2.759-1.439-2.84z" fill="#fff"/><path d="M36.037 26.205L37.334 24h-6.62L29.6 26h3.257l-5.597 3.874L26 32h6.63l1.11-2h-3.113l5.41-3.795zm-10.885 2.398c-.55 1.002-.924 1.502-1.386 1.416-.336-.062-.21-.514.12-1.12.463-.846.96-1.462 1.374-1.394.387.064.222.492-.108 1.098zm.831-2.932c-1.845-.093-3.579 1.292-4.374 3.425-.57 1.527-.329 2.81 1.417 2.899 1.765.09 3.453-.954 4.397-3.483.57-1.528.162-2.76-1.44-2.84zm-5.368 2.327h1.194L23 26h-1.19l.518-1h-2.346l-2.812 4.981c-.257.477-.233 1.011.141 1.493.267.35.547.526 1.052.526h1.33l1.13-1.98h-1.005c-.077 0-.165.012-.197-.062-.017-.046-.027-.094-.006-.136l1-1.824zM16.765 26l-2.29 3.862c-.187.32-.381.41-.678.355-.371-.07-.216-.338-.11-.522L15.946 26h-2.244s-2.553 4.211-2.552 4.213c-.455.79.143 1.584 1.621 1.758.84.1 2.603.004 3.434-1.343l.004-.004L19 26h-2.235zm-6.248.703L9.733 28H8.59l.874-1.454a.799.799 0 01.809-.41c.345.033.456.21.243.567zm.915-2.67c-.945-.118-2.954 0-3.835 1.683L4 32h2.344l1.253-2h1.14l-1.254 2H9.81l3.314-5.772c.552-1.018.02-1.98-1.692-2.195z" fill="#fff"/></svg>