<!-- by TradingView --><svg width="56" height="56" fill="none" xmlns="http://www.w3.org/2000/svg"><path fill="#0046BE" d="M0 0h56v56H0z"/><circle cx="28" cy="28" r="28" fill="#0046BE"/><path d="M42 35h7v6h-7l-2-2v-2l2-2z" fill="#FFEE35"/><path d="M14.962 26H13v-2h1.962c.518 0 .966.48.966 1.007 0 .522-.47.993-.966.993zM13 20h1.662c.745 0 .955.614.955 1.048 0 .438-.25.952-.955.952H13v-2zm4.262 2.726l.133-.069c.1-.034.2-.137.333-.24.134-.102.267-.239.4-.41.134-.137.234-.343.334-.582.1-.24.133-.514.133-.788 0-.72-.333-1.336-.967-1.85-.633-.513-1.5-.787-2.6-.787H10v10h5.362c1.3 0 3.966-.24 3.966-2.877 0-1.986-2.033-2.397-2.066-2.397zM16.962 37.006H15v-2h1.962c.518 0 .966.479.966 1.006 0 .522-.47.994-.966.994zm-1.962-6h1.537c.745 0 1.08.614 1.08 1.047 0 .439-.375.953-1.08.953H15v-2zm4.262 2.726l.133-.069c.1-.034.2-.137.333-.24.134-.102.267-.24.4-.41.134-.138.234-.343.334-.583.1-.24.133-.514.133-.788 0-.719-.333-1.335-.967-1.849-.633-.514-1.5-.787-2.6-.787H12v10h5.362c1.3 0 3.966-.24 3.966-2.877 0-1.986-2.033-2.397-2.066-2.397zM28 26h-5v-2.007h4V22h-4v-2h5v-2h-8v10h8v-2zM36 18v2h3v8h3v-8h3v-2h-9zM32.782 25.757c-.595.506-1.96.291-2.896-.833l-1.604 1.904c1.117 1.185 2.23 1.776 3.86 1.776 1.986 0 3.871-1.254 3.871-3.501 0-1.574-.82-2.202-2.11-2.824-.594-.252-1.216-.448-1.77-.784-.555-.336-.365-1.326.442-1.413 1.035-.111 1.252.555 1.454.77l1.695-1.697c-.96-1.019-1.997-1.59-3.38-1.59-1.862 0-3.63 1.148-3.63 3.286 0 .797.244 1.636.841 2.18.72.654 1.962 1.274 2.588 1.428.625.155 1.24.66.639 1.298zM28 35.036c0 .77-.802 1.347-1.465 1.347-.698 0-1.535-.576-1.535-1.347V29h-3v5.897a4.4 4.4 0 004.395 4.396h.21A4.4 4.4 0 0031 34.897V29h-3v6.036zM36.5 32.39L34.328 29H31l4 6.438V39h3v-3.562L42 29h-3.328L36.5 32.39z" fill="#fff"/><path d="M41.765 38a.38.38 0 01-.76 0 .38.38 0 01.76 0z" fill="#1C252C"/></svg>