<!-- by TradingView --><svg width="56" height="56" fill="none" xmlns="http://www.w3.org/2000/svg"><path fill="#F16923" d="M0 0h56v56H0z"/><circle cx="28" cy="28" r="28" fill="#F16923"/><circle cx="28" cy="28" r="16.5" fill="#F16923" stroke="#fff"/><path fill-rule="evenodd" clip-rule="evenodd" d="M28 12l2 10 6.65-7.46L33 24l9.554-2.647L34 27l10 3H12l10-3-8.554-5.647L23 23.998l-3.65-9.458L26 22l2-10zm-.128 18.002a4 4 0 10.256 0H38c-.805 4.54-4.975 8-10 8-5.024 0-9.195-3.46-10-8 6.709-.003 7.343-.002 8.02-.001l1.852.001z" fill="#fff"/></svg>