<!-- by TradingView --><svg width="56" height="56" fill="none" xmlns="http://www.w3.org/2000/svg"><path fill="url(#paint0_linear)" d="M0 0h56v56H0z"/><circle cx="28" cy="28" r="28" fill="url(#paint1_linear)"/><path d="M6 33.49c0 .221-.12.319-.262.35a1 1 0 01-.246.023c-.088 0-.111.039-.111.07 0 .047.047.07.134.07h2.04c.079 0 .135-.023.135-.07 0-.031-.032-.07-.112-.07-.103 0-.261-.008-.357-.023-.206-.031-.197-.156-.221-.342v-4.086l.793.016c.627.008.809.21.825.38l.008.07c.008.101.024.132.08.132.039 0 .055-.039.063-.109 0-.17.016-.66.016-.8 0-.1-.008-.14-.056-.14-.024 0-.08.016-.19.032-.104.015-.254.007-.477.007H5.23c-.23 0-.698-.007-.698-.007-.175-.024-.246-.078-.302-.078-.04 0-.063.039-.08.124-.015.055-.15.692-.15.8 0 .07.016.11.063.11.048 0 .064-.032.08-.086a.766.766 0 01.119-.226c.103-.147.27-.194.674-.201L6 29.412v4.078zM10 33.49c-.024.194-.027.319-.17.35a1.046 1.046 0 01-.246.023c-.087 0-.11.039-.11.07 0 .047.047.07.134.07l2.976.015c.261 0 .325 0 .373-.17.04-.133.095-.583.095-.73 0-.07-.008-.156-.064-.156-.047 0-.063.031-.079.101-.048.272-.127.412-.302.49-.182.077-.476.085-.658.085-.714 0-.928-.101-.944-.552-.02-.5 0-1.005 0-1.507 0-.038.008-.07.04-.07.174 0 .967.016 1.094.032.262.023.35.124.39.256.015.085.015.17.023.24 0 .032.016.055.063.055.064 0 .072-.093.072-.148 0-.046.016-.31.032-.442.04-.334.055-.443.055-.482 0-.039-.024-.07-.055-.07-.032 0-.056.039-.111.086-.072.062-.167.085-.334.1-.158.016-1.063.016-1.222.016-.04 0-.047-.031-.047-.07v-1.631c0-.039.016-.062.047-.062.143 0 .976.015 1.095.03.35.032.405.125.46.242.04.077.048.194.048.24 0 .055.008.086.056.086.055 0 .071-.078.079-.109.016-.078.032-.365.04-.435.015-.303.055-.38.055-.427 0-.031-.008-.062-.047-.062-.032 0-.072.023-.111.03-.056.009-.167.032-.294.04l-2.912-.016c-.103 0-.159.016-.159.062 0 .047.048.07.12.07.102 0 .221.008.277.024.222.062.225.132.241.357v3.97zM14.212 33.343c-.032.217-.096.481-.286.504-.111.016-.159.016-.214.016-.072 0-.111.031-.111.062 0 .062.055.078.127.078h1.428c.103 0 .166-.016.166-.078 0-.03-.047-.062-.11-.062a1.23 1.23 0 01-.247-.031c-.119-.023-.214-.07-.214-.194 0-.109.008-.194.024-.31l.333-2.549h.024c.23.459.643 1.259.698 1.383.08.186.635 1.196.802 1.5.11.201.19.333.277.333.08 0 .12-.062.278-.373l1.5-2.92h.023l.39 2.85c.023.187.007.264-.032.28-.048.015-.08.039-.08.07 0 .039.04.09.207.098h1.444c.103 0 .182-.005.182-.06 0-.038-.048-.061-.111-.061-.087 0-.198-.008-.397-.063-.214-.062-.277-.24-.34-.652l-.636-4.063c-.023-.14-.103-.21-.158-.21-.064 0-.127.055-.183.164l-1.872 3.697-1.873-3.65c-.095-.18-.143-.21-.214-.21-.056 0-.12.062-.135.17l-.69 4.28zM22.003 33.49c0 .203-.087.319-.23.35a1.045 1.045 0 01-.246.023c-.088 0-.111.039-.111.07 0 .047.047.07.135.07h2.023c.071 0 .127-.023.127-.07 0-.031-.032-.07-.111-.07-.103 0-.254-.008-.357-.023-.207-.031-.217-.156-.24-.342v-4.031c0-.07.015-.11.055-.125a.692.692 0 01.24-.03c.159 0 .445.03.698.248.39.326.413.761.413.979 0 .675-.547 1.071-.936 1.071-.151 0-.23.032-.23.086 0 .046.047.07.087.07.032.008.174.008.206.008.992 0 1.754-.669 1.754-1.6 0-.358-.199-.653-.35-.793-.11-.093-.428-.381-1.3-.381h-2.167c-.103 0-.158.024-.158.07 0 .047.047.07.119.07.103 0 .222.008.277.024.223.062.286.132.302.357v3.97zM27.625 30.92c0-1.003 0-1.19.016-1.4.016-.232.072-.325.262-.356.08-.016.19-.024.27-.024.087 0 .127-.023.127-.07 0-.046-.048-.07-.15-.07H26.18c-.103 0-.15.024-.15.07 0 .047.04.07.119.07.087 0 .174.008.23.024.222.062.285.132.301.357.008.21.008.396.008 1.398v1.165c0 .606 0 1.127-.032 1.406-.023.194-.063.319-.206.35a1.046 1.046 0 01-.246.023c-.087 0-.111.039-.111.07 0 .047.048.07.135.07L29.292 34c.365 0 .396-.013.444-.16.055-.195.103-.684.103-.762 0-.077-.016-.147-.063-.147-.056 0-.072.039-.08.1-.016.125-.087.312-.174.397-.175.179-.445.187-.817.187-.54 0-.81-.04-.929-.14-.15-.125-.15-.544-.15-1.39v-1.166zM31 33.49c-.024.194-.028.319-.171.35a1.046 1.046 0 01-.246.023c-.087 0-.111.039-.111.07 0 .047.048.07.135.07l2.975.015c.262 0 .326 0 .373-.17.04-.133.095-.583.095-.73 0-.07-.008-.156-.063-.156-.048 0-.064.031-.08.101-.047.272-.126.412-.3.49-.183.077-.477.085-.66.085-.714 0-.928-.101-.944-.552-.02-.5 0-1.005 0-1.507 0-.038.008-.07.04-.07.175 0 .968.016 1.095.032.262.023.35.124.389.256.016.085.016.17.024.24 0 .032.015.055.063.055.064 0 .071-.093.071-.148 0-.046.016-.31.032-.442.04-.334.056-.443.056-.482 0-.039-.024-.07-.056-.07s-.055.039-.11.086c-.072.062-.167.085-.334.1-.159.016-1.063.016-1.222.016-.04 0-.048-.031-.048-.07l.001-1.6c0-.039.016-.062.048-.062h1.094c.349.031.405.124.46.24.04.078.048.195.048.241 0 .055.008.086.055.086.056 0 .072-.078.08-.109.015-.078.031-.365.04-.435.015-.303.055-.38.055-.427 0-.031-.008-.062-.048-.062-.032 0-.071.023-.11.03-.056.009-.167.008-.294.016l-2.912.008c-.104 0-.16.016-.16.062 0 .047.049.07.12.07.103 0 .222.008.278.024.222.062.226.132.242.357v3.97zM36.567 32.084c0 .606 0 1.127-.032 1.406-.023.194-.063.319-.206.35a1 1 0 01-.246.023c-.087 0-.111.039-.111.07 0 .047.048.07.135.07h2.039c.08 0 .135-.023.135-.07 0-.031-.032-.07-.111-.07-.103 0-.262-.008-.357-.023-.207-.031-.246-.156-.27-.342-.032-.287-.04-.808-.04-1.414v-2.672l.881.016c.627.008.81.21.825.38l.008.07c.008.101.024.132.08.132.04 0 .055-.039.063-.109 0-.17.016-.66.016-.8 0-.1-.008-.14-.056-.14-.023 0-.079.016-.19.032-.103.015-.254.007-.476.007H35.82c-.23 0-.492.016-.698-.007-.175-.024-.246-.078-.302-.078-.04 0-.063.039-.079.124-.016.055-.15.692-.15.8 0 .07.015.11.063.11.047 0 .063-.032.08-.086a.764.764 0 01.118-.226c.103-.147.27-.194.675-.201l1.04-.024v2.672zM42.654 34.088c1.8 0 2.928-1.188 2.928-2.703s-1.095-2.47-2.857-2.47c-2.118 0-2.928 1.46-2.928 2.587 0 1.173.826 2.586 2.857 2.586zm.285-.357c-1.317 0-2.11-1.072-2.11-2.431 0-1.631.912-2.035 1.69-2.035 1.127 0 2.023.9 2.023 2.36 0 1.88-1.11 2.106-1.603 2.106zM47.239 30.406h.024c.135.117.873.917 1.634 1.632.73.691 1.603 1.507 2.04 1.903.07.07.166.14.285.14.056 0 .111-.063.111-.21l.08-4.164c.007-.373.063-.489.253-.543.088-.024.143-.024.215-.024.079 0 .119-.03.119-.07 0-.054-.064-.07-.159-.07H50.27c-.103 0-.175.016-.175.07 0 .04.024.07.111.07.096 0 .262 0 .365.04.167.061.23.178.239.582l.07 2.936h-.03c-.104-.093-1.032-1.026-1.508-1.484-1.016-.97-2.063-2.02-2.15-2.105-.12-.116-.215-.217-.302-.217-.072 0-.12.093-.12.225l-.063 3.915c-.008.575-.031.753-.214.8a1.466 1.466 0 01-.317.031c-.064 0-.111.031-.111.07 0 .062.063.07.158.07h1.659c.095 0 .158-.016.158-.07 0-.039-.04-.07-.119-.07-.11 0-.246-.008-.365-.047-.135-.046-.222-.202-.238-.714l-.08-2.696zM10.004 23.567c0-.047.015-.055.047-.055.118 0 .843.008 1.016.023.212.016.299.148.33.241a.6.6 0 01.047.202c0 .046.024.093.063.093.071 0 .079-.093.079-.148 0-.046.008-.349.024-.48.023-.21.055-.388.055-.427 0-.039-.016-.062-.04-.062-.039 0-.055.03-.094.07-.063.085-.165.108-.291.116-.103.008-.197.008-.315.008l-.874.008c-.04 0-.047-.024-.047-.063V21.52c0-.078.023-.093.063-.093h1.055c.26.008.393.108.44.202.048.093.04.193.04.248 0 .077.04.108.086.108.047 0 .063-.077.071-.132.008-.077.024-.465.032-.535.023-.17.055-.248.055-.294 0-.032-.024-.063-.048-.063-.039 0-.07.031-.11.04H8.446c-.11 0-.165.03-.165.077 0 .046.055.07.118.07.103 0 .22.007.276.023.22.054.31.132.325.357v3.963c0 .197-.113.318-.255.35a1.034 1.034 0 01-.243.022c-.08 0-.103.04-.103.07 0 .055.047.07.142.07h1.99c.103 0 .15-.023.15-.07 0-.03-.031-.07-.118-.07-.094 0-.244-.007-.338-.023-.205-.03-.225-.144-.225-.349 0 0 .004-1.288.004-1.923zM13 25.49c-.024.194-.095.318-.237.35a1.033 1.033 0 01-.244.022c-.087 0-.11.04-.11.07 0 .047.047.07.134.07h1.927c.087 0 .142-.023.142-.07 0-.03-.031-.07-.087-.07-.086 0-.236-.007-.338-.023-.212-.03-.187-.13-.187-.349V23.993c0-.039.042-.054.073-.054l.484.015c.047 0 .086.008.126.047.086.1.377.543.653.9.385.512.645.822.944.97.181.092.37.131.755.131h.661c.087 0 .134-.015.134-.07 0-.03-.031-.07-.086-.07-.055 0-.095 0-.166-.015-.11-.023-.354-.054-.74-.434-.416-.412-.904-1.009-1.518-1.753.677-.536.96-.97.96-1.459 0-.442-.291-.775-.488-.907-.37-.24-.873-.28-1.314-.28h-2.022c-.102 0-.157.016-.157.063 0 .046.047.07.118.07.102 0 .22.007.275.023.22.062.292.132.308.357v3.963zm1-4.018c0-.054.034-.077.081-.093.07-.015.098-.023.271-.023.41 0 1.055.24 1.055 1.171 0 .543-.236.83-.449.977-.118.086-.212.11-.488.11a1.05 1.05 0 01-.389-.063c-.047-.023-.08-.046-.08-.116v-1.963z" fill="#fff"/><path d="M20.32 24.334c.032 0 .056.008.072.047l.535 1.334c.031.078-.016.14-.063.147-.071.008-.087.031-.087.07 0 .047.079.06.205.068h1.33c.26 0 .299-.014.299-.068 0-.046-.032-.07-.095-.07-.078 0-.157-.007-.26-.023-.125-.023-.322-.108-.59-.706-.44-1-1.597-3.668-1.762-4.033-.07-.147-.102-.21-.205-.21-.07 0-.126.078-.204.264l-1.81 4.119c-.142.333-.26.535-.574.582-.063 0-.142.007-.205.007-.055 0-.079.031-.079.07 0 .055.04.07.126.07h1.574c.07 0 .11-.015.11-.07 0-.039-.016-.07-.102-.07h-.102c-.213 0-.276-.07-.276-.186 0-.077.032-.24.102-.403l.37-.892c.016-.039.024-.047.063-.047h1.629zm-1.463-.33c-.023 0-.039-.016-.023-.047l.645-1.678c.008-.023.016-.062.04-.062.015 0 .023.039.03.062l.678 1.686c.007.023 0 .039-.032.039h-1.338z" fill="#fff"/><path d="M23.719 22.41h.023c.134.117.866.916 1.621 1.63.724.69 1.59 1.504 2.023 1.9.07.07.165.14.283.14.055 0 .11-.063.11-.21l.079-4.157c.007-.373.063-.489.251-.543.087-.023.142-.023.213-.023.079 0 .118-.031.118-.07 0-.055-.063-.077-.158-.077h-1.558c-.102 0-.173.023-.173.077 0 .039.024.07.11.07.095 0 .26 0 .362.038.166.062.229.179.237.582l.07 2.932H27.3c-.102-.093-1.023-1.024-1.495-1.482-1.007-.969-2.046-2.016-2.132-2.101-.119-.117-.213-.218-.3-.218-.07 0-.117.093-.117.225l-.063 3.91c-.008.573-.032.752-.213.798-.094.024-.22.031-.315.031-.063 0-.11.031-.11.07 0 .062.063.07.158.07h1.644c.095 0 .157-.015.157-.07 0-.039-.039-.07-.118-.07-.11 0-.244-.007-.361-.046-.134-.047-.22-.202-.236-.714l-.08-2.691zM31 21.527c.016-.233.147-.326.336-.357.087-.016.126-.023.197-.023.055 0 .094-.024.094-.07 0-.047 0-.077-.15-.077h-2.04c-.102 0-.157.03-.157.077 0 .046.047.07.118.07.103 0 .22.007.276.023.22.062.31.132.326.357v3.963c-.023.194-.114.318-.255.35a1.035 1.035 0 01-.244.022c-.087 0-.11.04-.11.07 0 .047.047.07.133.07h2.042c.08 0 .134-.023.134-.07 0-.03-.04-.07-.094-.07a2.57 2.57 0 01-.339-.023c-.173-.03-.251-.155-.267-.341v-2.009h.031l.071.093c.15.202 1.365 1.722 1.664 1.978.299.256.527.409.897.44l1.086.002c.126 0 .165-.002.165-.07 0-.039-.04-.07-.094-.07-.079 0-.22 0-.425-.085-.37-.147-.638-.434-.944-.706-.268-.248-1.515-1.644-1.759-1.954a38.79 38.79 0 011.35-1.404c.29-.272.51-.411.731-.489.126-.046.3-.077.401-.077.063 0 .103-.024.103-.07 0-.047-.047-.077-.118-.077h-1.527c-.07 0-.11.03-.11.077 0 .039.032.054.095.07.063.015.094.062.094.131 0 .117-.15.272-.346.49-.205.224-1.098 1.201-1.334 1.45H31v-1.691z" fill="#fff"/><path d="M36.296 22.923c0-1 0-1.187.015-1.396.016-.233.071-.326.26-.357a1.55 1.55 0 01.268-.023c.086 0 .125-.024.125-.07 0-.047-.047-.077-.15-.077h-1.95c-.103 0-.15.03-.15.077 0 .046.04.07.118.07a.93.93 0 01.228.023c.22.062.283.132.3.357.007.21.007.395.007 1.396v1.163c0 .605 0 1.125-.031 1.404-.024.194-.063.318-.205.35a1.035 1.035 0 01-.244.022c-.086 0-.11.04-.11.07 0 .047.047.07.134.07L37.948 26c.362 0 .393-.014.44-.16a4.95 4.95 0 00.103-.761c0-.078-.016-.147-.063-.147-.055 0-.07.038-.079.1-.015.125-.086.31-.173.396-.173.178-.44.186-.81.186-.535 0-.803-.039-.92-.14-.15-.123-.15-.542-.15-1.388v-1.163zM40.002 25.521c-.024.194-.063.287-.205.318a1.033 1.033 0 01-.243.023c-.087 0-.11.04-.11.07 0 .047.047.07.133.07H41.6c.079 0 .134-.023.134-.07 0-.03-.031-.07-.11-.07-.102 0-.26-.007-.354-.023-.205-.03-.245-.132-.269-.31v-4.002c0-.23.048-.326.237-.357a.97.97 0 01.205-.023c.07 0 .11-.016.11-.078 0-.039-.055-.069-.142-.069h-1.817c-.11 0-.165.03-.165.069 0 .062.039.078.11.078.086 0 .173.007.252.03.15.047.21.12.21.35l.002 3.994zM43.267 22.41h.023c.134.117.866.916 1.621 1.63.724.69 1.59 1.504 2.023 1.9.07.07.165.14.283.14.055 0 .11-.063.11-.21l.079-4.157c.008-.373.063-.489.252-.543.086-.023.141-.023.212-.023.079 0 .118-.031.118-.07 0-.055-.063-.077-.157-.077h-1.558c-.103 0-.174.023-.174.077 0 .039.024.07.11.07.095 0 .26 0 .363.038.165.062.228.179.236.582l.07 2.932h-.031c-.102-.093-1.023-1.024-1.495-1.482-1.007-.969-2.046-2.016-2.132-2.101-.118-.117-.213-.218-.3-.218-.07 0-.117.093-.117.225l-.063 3.91c-.008.573-.032.752-.213.798-.094.024-.22.031-.315.031-.062 0-.11.031-.11.07 0 .062.063.07.158.07h1.644c.095 0 .158-.015.158-.07 0-.039-.04-.07-.118-.07-.11 0-.244-.007-.362-.046-.134-.047-.22-.202-.236-.714l-.08-2.691z" fill="#fff"/><defs><linearGradient id="paint0_linear" x1="10.418" y1="9.712" x2="68.147" y2="76.017" gradientUnits="userSpaceOnUse"><stop stop-color="#1A1E21"/><stop offset="1" stop-color="#06060A"/></linearGradient><linearGradient id="paint1_linear" x1="10.418" y1="9.712" x2="68.147" y2="76.017" gradientUnits="userSpaceOnUse"><stop stop-color="#1A1E21"/><stop offset="1" stop-color="#06060A"/></linearGradient></defs></svg>