<!-- by TradingView --><svg width="56" height="56" fill="none" xmlns="http://www.w3.org/2000/svg"><path fill="#9B6621" d="M0 0h56v56H0z"/><circle cx="28" cy="28" r="28" fill="#9B6621"/><path d="M33 12H23v6.544a7 7 0 001.534 4.373l.932 1.166A7 7 0 0127 28.456V41a1 1 0 01-1 1h-2.391a1 1 0 100 2h8.782a1 1 0 100-2H30a1 1 0 01-1-1V28.456a7 7 0 011.534-4.373l.932-1.166A7 7 0 0033 18.544V12z" fill="#fff"/><path fill-rule="evenodd" clip-rule="evenodd" d="M19.002 12v6.842a7 7 0 01-1.352 4.135l-.868 1.186c-.628.857-.782 1.892-.782 2.954v16.879h-2V27.117c0-1.487.29-2.935 1.168-4.135l.869-1.187a5 5 0 00.965-2.953V12h2zM36.996 12v6.842a7 7 0 001.351 4.135l.87 1.186c.626.857.783 1.892.783 2.954v16.879h2V27.117c0-1.487-.292-2.935-1.17-4.135l-.869-1.187a5 5 0 01-.965-2.953V12h-2z" fill="#fff"/></svg>