<!-- by TradingView --><svg width="56" height="56" fill="none" xmlns="http://www.w3.org/2000/svg"><path fill="url(#paint0_linear)" d="M0 0h56v56H0z"/><circle cx="28" cy="28" r="28" fill="url(#paint1_linear)"/><mask id="a" maskUnits="userSpaceOnUse" x="13" y="13" width="30" height="30"><ellipse cx="28.15" cy="28" rx="14.85" ry="15" fill="#C4C4C4"/></mask><g mask="url(#a)"><path d="M30.515 31.57c-.344.355-.688.59-.688.59-4.587 3.426-11.577 6.194-11.577 6.194l-.917.237c2.638 2.716 6.803 6.076 10.817 6.076 3.44 0 7.377-1.208 9.9-3.334.229-.236.848-2.742 1.192-2.979.114-.118.229-.236.458-.354.23-.236.344-.472.574-.59.114-.237.344-.355.459-.591.114-.119.114-.236.229-.354-2.638.708-6.892-1.706-10.447-4.895z" fill="url(#paint2_linear)"/><path d="M41.968 22.16c0-.118-.115-.236-.115-.355-.23-.471-.459-1.063-.688-1.535 0 0 0-.118-.115-.118-3.636 3.425-4.65 4.515-8.716 6.667.23.827-.655 1.654-.884 2.599-.344 1.18-.377 2.48-1.065 3.07 3.555 3.19 9.105 4.79 11.742 3.845.115-.118.115-.236.23-.354.114-.118.114-.236.229-.355.114-.236.344-.472.458-.708.115-.118.23-.354.23-.472l.344-.71c.114-.236.23-.472.23-.59.114-.236.114-.354.228-.59.042-.087.077-.17.106-.248 1.043-2.903-1.507-7.232-2.214-10.146z" fill="url(#paint3_linear)"/><path d="M23.2 13c.573.945 2.712 2.244 2.712 2.244s4.014 4.724 5.963 10.276v.118c.115.236.23.708.344 1.417 4.129-1.654 7.983-4.908 9.13-7.388-.001-3.8-6.47-6.177-11.55-6.667-2.269-.22-5.262-.375-6.6 0z" fill="url(#paint4_linear)"/><path d="M24.26 13.12c-1.27 0-5.51 1.657-6.512 2.4-3.658 2.71-3.762 7.08-3.762 12.48 0 1.127 2.642 6.739.245 7.95.054.083.96 2.042 1.022 2.107 1.47 1.515 1.063-.603 1.773.864.688-.237 2.12-.646 2.12-.646 4.079-1.153 11.69-3.867 13.074-8.622 2.273-5.46-4.28-12.743-7.96-16.533z" fill="#43698B"/></g><path d="M19.147 13.59s-6.652 3.071-8.601 9.922c-1.95 6.85 1.95 13.11 1.95 13.11s5.848-1.654 10.435-5.197c0 0 2.064-1.535 2.638-3.307.573-1.89-.46-4.252-.46-4.252-1.949-5.55-5.962-10.276-5.962-10.276z" fill="#BED6EA"/><defs><linearGradient id="paint0_linear" x1="10.418" y1="9.712" x2="68.147" y2="76.017" gradientUnits="userSpaceOnUse"><stop stop-color="#1A1E21"/><stop offset="1" stop-color="#06060A"/></linearGradient><linearGradient id="paint1_linear" x1="10.418" y1="9.712" x2="68.147" y2="76.017" gradientUnits="userSpaceOnUse"><stop stop-color="#1A1E21"/><stop offset="1" stop-color="#06060A"/></linearGradient><linearGradient id="paint2_linear" x1="35.139" y1="42.992" x2="22.84" y2="32.972" gradientUnits="userSpaceOnUse"><stop stop-color="#C4CA80"/><stop offset=".505" stop-color="#DBE08C"/></linearGradient><linearGradient id="paint3_linear" x1="43.233" y1="33.002" x2="33.704" y2="25.24" gradientUnits="userSpaceOnUse"><stop stop-color="#9FBC6E"/><stop offset=".403" stop-color="#AFCE79"/></linearGradient><linearGradient id="paint4_linear" x1="38.181" y1="24.459" x2="24.661" y2="13.443" gradientUnits="userSpaceOnUse"><stop stop-color="#9EC381"/><stop offset=".161" stop-color="#84B16B"/><stop offset=".321" stop-color="#71A45A"/><stop offset=".432" stop-color="#6A9F54"/></linearGradient></defs></svg>