<!-- by TradingView --><svg width="56" height="56" fill="none" xmlns="http://www.w3.org/2000/svg"><path fill="#F0F3FA" d="M0 0h56v56H0z"/><circle cx="28" cy="28" r="28" fill="#F0F3FA"/><path d="M30.845 22.131c-3.035 1.599-5.74 3.683-7.968 5.868 2.174 2.112 4.707 4.134 7.968 5.867L46 28l-15.155-5.868z" fill="#9D7C37"/><path d="M21.898 27.004C18.491 23.417 16.17 19.394 15 16l15.415 5.966c-2.781 1.118-5.746 2.826-8.517 5.038z" fill="#A7A9AC"/><path d="M21.898 28.993C18.491 32.58 16.17 36.606 15 40l15.415-5.968c-2.781-1.117-5.746-2.825-8.517-5.039z" fill="#8C7965"/></svg>