<!-- by TradingView --><svg width="56" height="56" fill="none" xmlns="http://www.w3.org/2000/svg"><path fill="url(#paint0_linear)" d="M0 0h56v56H0z"/><circle cx="28" cy="28" r="28" fill="url(#paint1_linear)"/><path d="M8 16h9.81c5.371 0 9.101 2.163 9.101 6.287a5.469 5.469 0 01-.814 2.904 6.197 6.197 0 01-2.282 2.167c1.262.36 2.357 1.09 3.113 2.075a5.063 5.063 0 011.065 3.367c0 5.273-4.85 7.2-10.127 7.2H8V16zm9.884 9.346c.323.017.646-.03.947-.139.301-.108.572-.273.796-.485.223-.212.393-.466.498-.743a1.85 1.85 0 00.11-.863 1.797 1.797 0 00-.159-.846 1.97 1.97 0 00-.54-.703 2.227 2.227 0 00-.82-.427 2.378 2.378 0 00-.944-.07h-3.105v4.276h3.217zm.56 9.736c.38.032.763-.01 1.123-.125s.687-.3.96-.54c.274-.242.486-.534.622-.857a2.18 2.18 0 00.167-1.014 2.117 2.117 0 00-.16-.983 2.307 2.307 0 00-.6-.832 2.606 2.606 0 00-.93-.527 2.802 2.802 0 00-1.089-.125h-3.87v5.07l3.777-.067z" fill="#fff"/><path fill-rule="evenodd" clip-rule="evenodd" d="M31 25v-9h3v9h11v-9h3v24h-3V28H34v12h-3V25z" fill="#00AEEF"/><defs><linearGradient id="paint0_linear" x1="10.418" y1="9.712" x2="68.147" y2="76.017" gradientUnits="userSpaceOnUse"><stop stop-color="#1A1E21"/><stop offset="1" stop-color="#06060A"/></linearGradient><linearGradient id="paint1_linear" x1="10.418" y1="9.712" x2="68.147" y2="76.017" gradientUnits="userSpaceOnUse"><stop stop-color="#1A1E21"/><stop offset="1" stop-color="#06060A"/></linearGradient></defs></svg>