<!-- by TradingView --><svg width="56" height="56" fill="none" xmlns="http://www.w3.org/2000/svg"><path fill="#00578E" d="M0 0h56v56H0z"/><circle cx="28" cy="28" r="28" fill="#00578E"/><path d="M44 12.034L12 12v32h32V12.034zm-7 21.815v1.344c-3.514 0-5.656-1.008-7.054-2.252.226.572.49 1.177.83 1.748 2.381 4.202 6.575 6.353 12.695 6.42v1.748c-8.576-.067-12.58-4.067-14.47-7.428a15.805 15.805 0 01-1.02-2.185C25.148 39.462 17.113 39.529 17 39.529v-1.95c.378 0 10-.235 10-9.579h2c0-9.345 9.622-9.445 10-9.445v-1.95c-.113 0-8.148.1-10.981 6.286a15.805 15.805 0 00-1.02-2.185c-1.89-3.294-5.894-7.294-14.47-7.361v-.874H43.47V28H29c0 .235.255 5.849 8 5.849zM12.529 15.092c6.083.068 10.314 2.219 12.694 6.42.34.606.605 1.177.831 1.748-1.398-1.243-3.54-2.252-7.054-2.252v1.345c7.745 0 8 5.412 8 5.647H12.529V15.092z" fill="#fff"/><path stroke="#fff" d="M12.5 12.5h31v31h-31z"/></svg>