<!-- by TradingView --><svg width="56" height="56" fill="none" xmlns="http://www.w3.org/2000/svg"><path fill="#14487C" d="M0 0h56v56H0z"/><circle cx="28" cy="28" r="28" fill="#14487C"/><path d="M38 33.673h-1v.325h3v-.325h-.95V27.7c-.26.272-.482.299-.897.299H37v.317h1v5.356zM18.003 33.674h-1.046V34H20v-.326h-1l-.031-5.973c-.262.272-.429.299-.843.299h-1.169v.317h1.015l.031 5.357zM42.045 33.674H41V34h3v-.326h-.991v-5.361H45v5.361h-.559V34h2.569v-.326H46v-5.976c-.261.27-.415.298-.839.298H43V27c0-1.221.155-2.461 1.544-2.461.55 0 .956.226.956.461 0 .154-.135.208-.243.271-.172.09-.334.263-.334.516 0 .344.334.579.622.579.424 0 .73-.335.73-.832 0-.588-.604-1.32-1.866-1.32-2.191 0-2.39 1.595-2.39 3.286v.505L41 27.996v.317l1.018.009v5.352M8.187 29.71c1.344.283 1.95 1.115 1.95 2.021 0 1.043-.81 1.885-2.048 1.885-1.264 0-2.484-1.062-2.68-3.193h-.347v3.44h.348c.026-.229.115-.403.382-.403.499 0 1.033.54 2.315.54C9.977 34 11 32.838 11 31.063c0-1.39-.677-2.424-2.475-2.873l-.685-.164C6.255 27.65 5.792 26.9 5.792 26.14c0-1.043.784-1.748 1.736-1.748 1.487 0 2.368 1.235 2.546 2.782h.365V24.32h-.33c-.035.174-.124.348-.39.348-.455 0-.829-.668-2.226-.668C6.103 24 5 25.043 5 26.598c0 1.666.81 2.544 2.501 2.946l.686.165zM34 32.5c0 .923.181 1.49 1.01 1.49 1.002 0 1.335-.55 1.489-.885l-.253-.172c-.162.28-.313.567-.746.567-.334 0-.498-.336-.498-.86l-.01-4.323h.999V28H35l.01-1.5h-.244c-.216 1.302-.559 1.5-1.776 1.5v.317l1 .01L34 32.5zM30.071 33.674H31v-3.94c0-.734-.854-1.11-1.314-1.11-.82 0-1.38.642-1.65 1.022v4.028H29V34h-3v-.326h.983v-5.348H26V28h1.028c.622 0 .738 0 .972-.299v1.393h.027C28.297 28.77 28.891 28 30 28c1.181 0 1.997.769 1.997 1.691v3.983h.983V34H30.07v-.326zM16.446 31.907c-.145.715-.704 1.592-1.678 1.592-.946 0-1.406-.56-1.406-1.809v-1.266c0-1.221.45-2.098 1.479-2.098.613 0 .955.298.955.533 0 .127-.08.2-.162.29a.598.598 0 00-.162.398c0 .28.216.56.613.56.37 0 .667-.289.667-.741 0-.67-.784-1.366-2.01-1.366C13.198 28 12 29.185 12 30.976c0 1.637.839 2.975 2.642 2.975 1.218 0 2.002-.986 2.164-2.053h-.36M51.625 31.94c-.14.72-.732 1.604-1.745 1.604-.985 0-1.464-.565-1.464-1.824v-1.276c0-1.231.47-2.116 1.539-2.116.638 0 .994.301.994.538 0 .128-.084.2-.168.292-.085.1-.17.219-.17.401 0 .283.226.566.639.566.375 0 .694-.292.694-.748 0-.675-.816-1.377-2.092-1.377C48.248 28 47 29.195 47 31c0 1.65.872 3 2.749 3 1.266 0 2.082-.994 2.251-2.07h-.375M24.965 32c-.144.796-.73 1.548-1.65 1.548-.929 0-1.315-.57-1.315-1.719v-1.302h3.308c.081 0 .117-.036.117-.118v-.199c0-.832-.748-2.17-2.408-2.17-1.442 0-2.506 1.42-2.506 2.975 0 1.863 1.082 2.976 2.56 2.976 1.164 0 2.011-.752 2.237-1.991h-.343zm-.775-2.09c0 .054-.027.09-.09.09H22v-.233c0-.877.413-1.41 1.09-1.41.694 0 1.1.497 1.1 1.41v.143zM14.296 18.299h.334c1.262 0 1.939.714 1.939 1.6 0 1.267-.857 1.7-1.894 1.7h-.657v-3.3h.278zm-1.29 7.452h-.856v.308h3.48c1.182 0 2.37-.688 2.37-2.27 0-1.258-.908-1.927-2.008-1.99v-.055c.928-.08 1.656-.687 1.656-1.935 0-1.076-.7-1.809-2.369-1.809H12.15v.299h.866v7.452h-.01zM14 22h.891c1.28 0 1.975.748 1.975 1.789 0 1.14-.685 1.962-1.857 1.962h-1.01v-3.844M19 23.5c0 1.367.825 2.5 2 2.5 1.167 0 2-1.142 2-2.5s-.825-2.5-2-2.5c-1.175.009-2 1.133-2 2.5zm2.989.285c0 .952-.097 1.886-.989 1.886-.9 0-.989-.934-.989-1.886v-.562c0-.951.075-1.886.989-1.886.944 0 .989.935.989 1.886v.563zM32 23.5c0 1.367.825 2.5 2 2.5 1.167 0 2-1.142 2-2.5s-.825-2.5-2-2.5-2 1.125-2 2.5zm2.989.277c0 .951-.097 1.886-.989 1.886-.9 0-.996-.935-.996-1.886v-.563c0-.951.074-1.885.996-1.885.937 0 .989.934.989 1.886v.562z" fill="#fff"/><path d="M39.375 25.692H40v-3.36c0-.579-.438-.787-.835-.787-.514 0-.885.48-1.129 1.013v3.134H39V26h-3v-.308h1v-4.146h-1v-.308h.973c.523 0 .829 0 1.027-.262v.931h.018c.451-.552.904-.913 1.616-.913 1.11 0 1.366.768 1.366 1.429v3.27h.727V26h-2.36v-.308M25.803 23.83c.668.09.947.488.947.913 0 .606-.487.922-1.028.922-1.028 0-1.397-.913-1.46-1.52H24V26h.253c.017-.18.117-.326.234-.326.243 0 .523.326 1.253.326 1.083 0 1.74-.678 1.74-1.7 0-.733-.468-1.164-1.388-1.3l-.55-.09c-.73-.118-.983-.371-.983-.805 0-.425.36-.787.974-.787.712 0 1.127.443 1.244 1.148h.253l-.027-1.474h-.226c-.009.109-.054.28-.17.28-.208 0-.488-.28-1.092-.28-.857 0-1.515.597-1.515 1.447 0 1.076.758 1.246 1.488 1.345l.316.045zM31.273 25.053c-.117.19-.36.489-.721.489-.307 0-.552-.145-.552-.624v-3.629l1 .009v-.308l-1-.008V19.49l-.233.009c-.189 1.158-.83 1.5-1.767 1.5v.299h1v3.619c0 .796.38 1.094 1.164 1.094.722 0 1.1-.37 1.299-.678l-.19-.28z" fill="#fff"/></svg>