<!-- by TradingView --><svg width="56" height="56" fill="none" xmlns="http://www.w3.org/2000/svg"><path fill="url(#paint0_linear)" d="M0 0h56v56H0z"/><circle cx="28" cy="28" r="28" fill="url(#paint1_linear)"/><path d="M38.316 31.105h.246l.165-.083h.246l.083-.083h.164l.082-.083h.082l.165-.083h.082l.164-.083H40.206l.165-.084h.822l.082.084h.246l.165.083h.328l.083.083.164.083h.082l.165.083h.246l.082.083H44.151l.083-.083h.164l.082-.083h.247l.164-.083.082-.083h.247v-.083h-.082l-.082-.084-.165-.083h-.082l-.082-.082-.165-.084h-.082l-.164-.083h-.082l-.083-.083h-.164l-.082-.083h-.247l-.164-.083h-.082l-.165-.083h-.493l-.082-.083H41.028l-.082.083h-.164l-.083.083h-.246l-.165.083h-.082l-.082.083h-.164l-.083.083-.164.083h-.164l-.165.084-.082.082h-.164l-.082.084-.083.083h-.164l-.082.083-.082.083-.165.083h-.082l-.164.083-.083.083h.165z" fill="#94D8E9"/><path d="M34.946 33.43h.739l.083.083h.328l.165.083h.082l.164.083h.083l.082.083h.164l.082.083h.247l.164.083h.987l.164-.083h.247l.164-.083h.082l.165-.083h.082l.082-.083h.246l.165-.083h.164l.165-.083H41.192l.083.083h.328l.082.083h.247l.082.083h.165l.082.083h.164l.082.083H42.918l.083.083h.904l.164-.083h.082l.165-.083h.246l.082-.083h.165l.082-.083h.164l.083-.083h.246l.082-.083h1.315l.165.083h.329l.082.083h.164l.082.083h.165l.082.083h.082l.164.083h.165l-.082-.166-.083-.083-.082-.083v-.166l-.082-.084-.082-.082-.082-.167v-.083l-.165-.083v-.083l-.082-.083-.082-.166-.082-.083-.082-.083-.083-.083-.082-.083-.082-.083-.082-.083-.082-.083-.165-.083-.082-.083-.082-.083-.082-.083-.083-.083-.082-.083-.164.083h-.493l-.083.083h-.246l-.164.083h-.083l-.164.083h-.164l-.165.083h-.164l-.082.083h-.658l-.164.083-.083-.083h-.739l-.165-.083h-.164l-.164-.083h-.083l-.082-.083h-.164l-.165-.083h-.246l-.082-.083h-.247l-.164-.083h-.082l-.165.083h-.082l-.164-.083-.165.083h-.329l-.164.083h-.082l-.165.083h-.082l-.164.083h-.082l-.082.083h-.247l-.164.083H38.15l-.082.083-.164-.083h-.74L37 31.852h-.083l-.082.083-.164.083-.082.083h-.083l-.082.083-.164.083-.083.083-.082.083-.082.083-.164.083-.082.083h-.083l-.082.083-.082.083-.164.083-.083.083-.082.083-.082.084-.164.083-.083.083h-.082v.083h.165z" fill="#007EC5"/><path d="M49 36.75v-.663l-.082-.084v-.166l-.083-.083.083-.166-.083-.083v-.166l-.082-.083v-.249l-.082-.083-.082-.166h-.247v-.083H47.931l-.164-.083h-.082l-.083-.083h-.164l-.082-.083h-.165l-.082-.083h-.246l-.165-.083h-.904l-.082.083H45.301l-.082.083h-.165l-.082.083-.164.083h-.164l-.165.083h-.329l-.164.083h-1.315l-.082-.083h-.247l-.082-.083h-.164l-.083-.083h-.082l-.164-.083h-.247l-.164-.083h-.082l-.165-.083h-.904l-.082.083H39.712l-.082.083-.165.083h-.164l-.164.083h-.247l-.082.083h-.164l-.083.083-.082-.083-.164.083h-.987l-.082-.083-.164.083-.082-.083h-.247l-.082-.083h-.165l-.082-.083h-.082l-.164-.083h-.082l-.165-.083h-.329v-.083h-1.068l-.082.083h-.329l-.082.083h-.165l-.082.083-.082.083h-.165l-.082.083h-.164l-.082.083-.083.083-.164.083h-.082l-.082.083-.082.083-.083.083-.164.083-.082.083-.082.083-.083.083-.082.166-.082.083h-.082l-.082.166h-.165v.166l-.164.084h-.082l-.082.166-.083.083h-.082l-.082.083-.082.166-.082.083h.164l.082.083h.165l.082.083h.657l.082.083h.165l.082-.083h.657l.165-.083.082-.083h.247l.082-.083h.164l.083-.083h.164l.082-.083h.986l.082-.083.165.083h.329l.082.083H36.26l.082.083.082.083h.247l.164.083h.082l.165.083h.246l.165.083.082-.083h.164l.083.083h.164l.082-.083H38.644l.082-.083h.164l.082-.083h.082l.165-.083h.246l.083-.083h.246l.082-.083H40.287l.083-.083.164.083.082-.083h.165l.082.083h.575l.164.083h.083l.164.083h.082l.082.083h.247l.164.083.083.083.164-.083.082.083H43.164l.164.083.083-.083h.739l.165-.083h.164l.082-.083h.247l.082-.083.164-.083h.165l.164-.083h1.644l.164.083h.247l.082.083h.082l.165.083.082.083h.247l.164.083h.329l.164.083.082-.083H49v-.166z" fill="#43C5E4"/><path d="M23.026 19.73v.082l.083.083.082.166h.082l.082.083.082.083.083.083.082.083.082.166.165.083.164.166.164.167.082.083.165.166.164.166.165.166.082.083.164.166v.083l.165.083.082.083.164.166v.083h.082l.082.083.083.083.082.166h.082l.164.166v.083l.083.083.164.083.164.166.083.083v.084l.164.082.164.167.083.083.082.083.082.083.082.083.165.083.082.166h.082l.082-.083v-3.488l-.164-.166v-.083l-.082-.083-.083-.083-.164-.083-.082-.083-.082-.166-.165-.083-.082-.083-.082-.166h-.082l-.083-.083-.082-.166-.082-.083-.082-.083-.165-.083-.082-.083-.082-.166-.164-.083-.082-.083-.083-.166h-.082V18.4l-.164-.084-.082-.166-.083-.083-.164-.083-.082-.083-.082-.083-.083-.083v-.083h-.328l-.083.083v.166l-.164.083-.082.166-.082.084v.082h-.082v.084l-.083.083-.082.166-.164.083-.082.166-.083.166-.164.166v.083h-.082v.166l-.165.083.082.083-.082.083h.082z" fill="#007933"/><path d="M25.165 16.906l.164.083v.083l.165.083v.083h.082l.082.083.082.083.083.166.164.083.082.084.082.083.082.082.083.084.082.083.082.166.082.083.165.083.082.083v.083l.082.083.082.083h.082l.083.166.082.083.082.083h.082l.082.083.083-.166V14.166L27.466 14l-.082.083-.082.083h-.082v.083l-.082.083-.083.083-.082.083-.082.083v.083l-.164.083-.082.083v.083l-.083.083-.164.166-.165.166-.082.084v.083l-.082.083-.082.083-.164.166-.083.166-.164.166-.082.166-.165.083v.083l-.164.166v.249z" fill="#A5CF4F"/><path d="M28.535 18.318v.747h.164l.082-.166.165-.083v-.083h.082v-.083l.082-.083.165-.083.164-.166.082-.166h.082l.082-.166.165-.084.082-.082v-.084l.165-.083v-.083h.082l.082-.166.164-.083.165-.166v-.083h.082l.082-.083.082-.166.082-.083-.082-.083-.082-.166-.082-.083-.082-.166-.165-.083-.082-.166-.082-.083-.082-.166-.082-.083-.165-.166-.082-.083v-.084h-.082l-.082-.165-.165-.167-.164-.166-.082-.166-.165-.166-.164-.083-.082-.166v-.083h-.083l-.082-.083-.164-.083-.082.166.082.083-.082.083.082.083-.082.166.082.083v.166l-.082.083.082.166v.333h-.082.082l-.082.166.082.166v.249l-.082.249v.166l.082.249v.083l-.082.083V17.902l.082.084-.082.166.082.166z" fill="#62BB46"/><path d="M27.548 31.769V31.354l-.082-.083v-.083l-.082-.083-.082-.083-.083-.083-.082-.166h-.164v-.084l-.082-.082-.083-.084-.082-.083-.082-.083-.082-.083-.082-.083-.165-.166-.164-.166-.082-.083-.083-.083-.082-.083-.082-.166h-.082l-.082-.083-.082-.083-.083-.083-.082-.083-.164-.166-.082-.083-.083-.083-.082-.083v-.083h-.082l-.082-.083-.082-.166h-.083l-.082-.083-.082-.166h-.082l-.082-.084-.083-.082-.082-.084-.164-.166-.082-.083-.083-.083-.082-.083-.082-.083-.082-.166-.165-.083-.082-.083-.082-.083-.164-.083v-.083l-.082-.083-.083-.083-.082-.083-.082-.083-.082-.083-.083-.166-.164-.083-.082-.083-.165-.083-.082-.166-.082-.083-.082-.083-.082-.166h-.082l-.083-.084-.082-.083-.082-.083-.082-.083-.165-.166-.082-.083-.082-.083-.082-.083-.082-.083h-.082l-.083-.166h-.082l-.164.083V25.126l-.082.083v.25l.082.166v.664l.082.083V26.787h.082v.166l.082.166v.249l.082.166.083.083v.25l.082.082v.083l.082.167.082.166.082.166.083.166.082.083v.083l.082.166.082.166.082.166.165.166v.083l.082.083.082.166.082.083h.082l.083.166.082.166.164.166h.082v.083h.083l.082.084v.082l.164.084.082.083.083.166h.082l.164.166h.082l.083.083.082.083.082.083.164.083.083.083.164.083.164.083.083.083.082.083h.082l.082.083h.165l.082.083h.082l.082.083.165.083h.164l.082.083h.165l.082.083.164.083h.082l.082.083h.165l.246.083h.247l.082.083.082-.083.082.083.083-.083.164.083h.329v-.083l.082-.166V31.77zM28.535 23.466v.249l-.082.083.082.166-.082.166h.082l.082.083h.082l.082-.166.165-.083v-.083l.164-.083.165-.166.164-.166.082-.083.165-.166.082-.083.082-.084.082-.083.082-.083.082-.083.083-.083.082-.083.164-.166.082-.083.083-.083v-.083l.164-.083.082-.083.082-.083.165-.166.082-.083h.082v-.083l.165-.083v-.083l.082-.083.082-.083.082-.083.082-.083h.083v-.166h.082l.082-.083.082-.166.164-.084.083-.082v-.084l.164-.083v-.083h.082l.083-.083.164-.166.164-.166.082-.083v-.249l-.082-.083v-.083l-.082-.166-.164-.166-.082-.083-.083-.166-.082-.083-.082-.166-.082-.083h-.083l-.082-.25h-.082l-.082-.083-.082-.166-.082-.166-.083-.083-.082-.083-.082-.083h-.164l-.165.166-.082.166h-.082v.083L31 18.07l-.165.082-.082.084-.082.166-.082.083-.165.083v.083h-.082l-.082.083v.083l-.165.083-.082.083-.082.083v.083h-.082l-.082.166-.165.083v.083l-.082.083-.164.083-.082.083v.083h-.083v.083l-.082.083-.082.083-.082.083h-.082v.083h-.083v.083l-.164.083v.083l-.082.084V20.974l-.082.249.082.083-.082.083.082.083-.082.083.082.166v.166l-.082.083.082.166-.082.166v.249l.082.166-.082.166v.166l.082.166-.082.083.082.167z" fill="#A5CF4F"/><path d="M35.521 25.625v-.914l-.082-.166-.082-.083h-.164l-.083.083-.164.166-.082.083-.082.083-.083.083v.083l-.164.083-.082.166-.083.083h-.082l-.082.084-.082.082v.084l-.164.083-.083.083-.082.083-.082.083-.082.166-.082.083h-.083l-.164.166v.083l-.082.083-.165.083-.082.083v.083l-.164.083-.082.166-.165.083v.083l-.164.083-.082.083v.083l-.083.083-.164.083-.082.083-.164.166v.084l-.083.082-.164.084-.082.083-.082.166-.083.083-.164.083-.082.166H31v.083l-.165.083-.082.083v.083l-.082.083-.165.083v.083h-.082l-.082.083-.082.083v.083h-.082l-.082.166-.165.083-.082.083-.082.083v.083l-.165.083-.082.083v.083h-.082l-.082.083v.083l-.165.083-.164.166v.084h-.082l-.082.083-.083.083-.164.166v.083h-.082v.166l-.082.166.082.083v.083l-.082.166v.166l.082.166v.166l-.082.166.082.083v.083l.082.083h.329l.164-.083H29.603l.082-.083h.165l.082-.083h.329l.082-.083h.082l.082-.083h.083l.164-.083h.164l.165-.083.082-.083h.082l.082-.083.165-.083h.082l.164-.166h.083l.164-.083.082-.083h.082l.082-.083.165-.083.082-.083.082-.083.165-.083.082-.083.082-.083.164-.166.083-.083.164-.084v-.082h.082l.082-.084.083-.166.082-.083.082-.083v-.083h.082l.082-.083v-.083l.083-.083.082-.166.082-.083.082-.083.082-.083.083-.083v-.166l.082-.083.082-.166.082-.083.082-.166.083-.083v-.166l.082-.083.082-.083v-.083l.082-.167v-.082l.082-.167V27.7h.083v-.249l.082-.166v-.166l.082-.166v-.249l.082-.083v-.498l.082-.083V25.625z" fill="#62BB46"/><path d="M28.535 29.61v.166l.164-.083.082-.083h.083v-.083l.164-.083.082-.083.082-.166.083-.083.082-.083.164-.083.082-.083v-.083l.165-.083.082-.083.082-.166.082-.083h.082l.083-.083.082-.166h.082v-.083h.082l.082-.167.165-.082.082-.167.082-.083.082-.083.083-.083.164-.083.082-.083.082-.083v-.083l.165-.083.082-.083v-.083l.164-.166.083-.083.164-.166h.082l.082-.166.082-.083.083-.083h.082v-.083l.082-.083.082-.083.083-.083.082-.083h.082l.082-.083.082-.166h.082l.083-.167.164-.166.082-.083h.082l.083-.166.164-.083.082-.083v-.083l.165-.083v-.083h.082l.082-.083.082-.166h.082l.083-.083.082-.166h.082l.082-.083.082-.166h.083l.082-.083.082-.083.082-.166v-.332l-.082-.166h-.082v-.084l-.082-.082v-.167l-.083-.083v-.083l-.082-.083-.082-.083v-.166l-.082-.166-.083-.083-.082-.166-.082-.083-.082-.166v-.083l-.082-.083v-.083l-.082-.083-.083-.166-.082-.083-.164-.166-.165.083v.083h-.082v.083l-.082.083-.082.083h-.082v.083l-.165.166-.082.083-.082.083-.082.083-.165.083v.083l-.082.083-.164.166-.083.083-.082.083h-.082l-.082.166h-.082l-.082.166-.083.083h-.082v.166h-.082l-.082.083-.082.084-.083.083v.083h-.082l-.082.083-.082.083H31v.083h-.083l-.082.083-.082.083v.083l-.164.083v.083l-.082.083-.165.083-.082.166h-.082v.083l-.082.083-.083.166-.164.083-.082.083v.083h-.082l-.165.083-.082.083-.082.166h-.082l-.083.166-.164.084v.082h-.082l-.082.167-.083.083-.082.166h-.082l-.082.083v.083l-.082.166.082.083-.082.083.082.249v.083l-.082.083.082.083-.082.083.082.083-.082.083v.249l.082.166v.083l-.082.166.082.167v.249l-.082.083v.249l.082.083v.083l-.082.166v.665l.082.165-.082.083.082.083z" fill="#007933"/><path d="M27.548 29.112V25.79l-.083-.084-.082-.166-.082-.083-.082-.083-.082-.166-.165-.083-.082-.083-.082-.083-.082-.083-.082-.083-.083-.083-.082-.083-.082-.083-.082-.083-.165-.083-.082-.166-.082-.083-.082-.083-.082-.083-.083-.083-.082-.083-.082-.083-.082-.083-.082-.083-.083-.083-.164-.167-.082-.082-.082-.084v-.083h-.083l-.164-.166-.082-.083-.165-.166h-.082l-.082-.166-.082-.083h-.082l-.082-.166-.083-.083-.082-.083-.082-.083-.082-.166-.165-.083-.082-.083-.082-.083-.082-.083-.082-.083-.083-.083-.082-.083-.082-.083-.082-.083-.082-.083-.083-.083-.164-.166-.082-.084h-.165l-.082.084-.082.082-.082.167v.083l-.165.083-.082.166-.082.166v.083h-.082v.166l-.082.083-.082.166v.083l-.083.083-.082.083v.166l-.082.083-.082.166-.082.166v.083l-.083.166-.082.166.082.166.083.084.082.083.082.083.082.083.082.083.082.083.083.083.082.083.082.166.165.083.164.166.082.166.165.083.082.083.082.166.164.083.082.083.165.083v.166h.082l.082.083.082.083.083.083h.082v.167l.164.082.082.083.082.084.165.083v.083l.082.083.165.166.082.083.164.166.082.083v.083h.082l.083.166h.082l.082.083.082.083.082.083.083.083.082.083.082.083.082.083.082.083.083.083.082.083.082.083.082.083.082.083v.083l.165.083.164.167h.082v.082l.083.084.082.083.164.166.082.083v.083h.082l.083.083.164.083v.083l.082.083.082.083.083.083.082.083.082.083.082.083h.082l.083-.083V29.112z" fill="#62BB46"/><path d="M15.63 35.34v-.084h.082v-.083l.165-.083v-.083l.082-.083h.082v-.083l.165-.083v-.083h.082l.082-.166h.082v-.083h.082l.165-.166.082-.083.164-.166.082-.083v-.083l.083-.083h.082l.082-.166.164-.083.165-.166.082-.166.164-.084.082-.083.083-.083.082-.083.082-.166.082-.083.082-.083.165-.083v-.083l.082-.083.082-.083.165-.083.082-.083.082-.083.082-.166-.082-.166-.164-.083-.165-.083h-.082l-.082-.083-.165-.083v-.083h-.164l-.082-.083-.082-.083-.165-.083h-.082l-.082-.083h-.164v-.083l-.165-.083-.164-.084h-.082l-.083-.083h-.164l-.082-.082-.165-.084h-.328v.084l-.082.082-.165.084v.083l-.164.083-.083.083-.082.166-.082.083h-.082v.083l-.164.083-.083.166-.164.166h-.082l-.082.083-.083.166-.082.083-.082.083-.082.083-.165.166-.082.083-.082.083-.082.083-.165.166-.082.083-.164.166-.082.084h-.082l-.083.166-.082.083h-.082l-.082.166-.083.083-.082.083-.082.083H13l-.082.166-.082.083-.083.083-.082.083-.164.166-.082.083-.083.083-.082.083-.164.166-.082.083h-.083v.083l-.082.083-.082.083-.082.083-.082.083h-.082l-.083.083-.082.166-.082.083h-.082l-.082.166-.083.084-.082.083-.082.083h-.082v.083l-.165.083v.083l-.082.083-.082.083h-.082l-.082.166h-.083l-.082.083v.083l-.082.083v.166l.082.083H11.521l.164-.083h.246l.165.083h1.068l.165-.083.164.083h.247l.164-.083h.164l.083-.083v-.083l.164-.083.082-.083.082-.083v-.083h.083v-.083l.082-.083.082-.083h.082l.165-.166.082-.083.082-.166.082-.084.082-.082.165-.084.164-.166z" fill="#E82C2A"/><path d="M20.727 35.34l.082-.167.164-.083v-.083h.082l.083-.083v-.083l.164-.166.164-.166.083-.083.164-.166.082-.083.082-.083.083-.083.082-.166-.082-.083-.083-.083-.164-.166h-.082l-.165-.084-.082-.166-.082-.083-.164-.083-.083-.083h-.082l-.082-.083-.082-.083-.082-.083-.165-.083-.164-.083v-.083h-.082l-.082-.083-.165-.083h-.246v.083h-.083l-.082.083-.082.166h-.082l-.082.083-.083.166-.082.083-.082.083-.164.083-.083.166-.164.084-.082.083-.082.083v.083l-.165.083-.082.166-.082.083-.082.083-.165.083-.082.166-.082.083-.082.083-.165.083v.083l-.164.083-.082.166h-.082l-.083.166-.164.083-.082.166h-.082v.083l-.083.083-.164.083-.164.166-.083.166-.082.084-.082.083-.082.082-.082.084-.083.083h-.082v.083h-.082v.083l-.082.083-.082.083-.165.083v.166l.083.083.082-.083.164.083h1.397l.083-.083.082.083H17.932l.165-.083.082.083h.657l.082-.083h.083l.164-.083h.082l.082-.166.083-.083.164-.083v-.083h.082l.082-.166.083-.084.164-.082v-.084l.082-.083.165-.083.082-.166.082-.083.082-.083.165-.083.082-.083z" fill="#C3271B"/><path d="M25.576 36.75h-.082l-.083-.082-.164-.166-.164-.166-.083-.083-.082-.083-.164-.084-.165-.166-.164-.166-.164-.083v-.083l-.082-.083h-.083l-.164-.166-.165-.083-.082-.083v-.083h-.082l-.082-.166h-.082l-.165-.083-.164-.166-.082-.083-.082-.083h-.083l-.082.083-.164.083-.082.083-.082.083-.083.083-.082.083-.082.083-.082.083-.165.166-.082.083-.082.083-.082.083-.082.083-.083.083-.082.083v.083l-.164.084-.082.083-.083.083-.164.166v.083h-.082l-.082.083-.165.166v.083h-.082v.166h.082l.247.083H23.274l.165-.083.164.083h.164l.165-.083.164.083h1.398l.082-.083v-.166z" fill="#E82C2A"/><path d="M10.041 35.34l.165-.084.082-.083.082-.083.082-.083.082-.083.082-.083.083-.083.082-.083.082-.083.082-.083.165-.166.082-.083v-.083l.164-.083.082-.083.083-.083v-.083h.082l.082-.083v-.083h.082v-.083l.165-.083v-.083h.082l.082-.166.082-.084.082-.083.082-.083h.083v-.083h.082l.082-.083.082-.083.083-.083.082-.083.082-.083.082-.083.082-.166.165-.083.082-.083.082-.083.082-.083.165-.166.082-.083v-.083h.082l.082-.083.165-.166.082-.083.164-.166.082-.083.083-.166h.082l.082-.166h.082l.082-.084.165-.166.082-.083v-.083l.082-.083.082-.083.083-.083-.165-.083-.082-.083-.165.083-.164-.083H13.74l-.082.083h-.494l-.164.083h-.164l-.247.083h-.164l-.083.083h-.164l-.082.083h-.164l-.165.083-.082.084h-.164l-.165.082-.082.084h-.082l-.165.083-.164.083-.082.083-.165.083h-.082l-.164.166-.082.083h-.082v.083l-.165.083-.082.083h-.082l-.082.083-.083.083-.082.083h-.082l-.082.083-.082.083-.165.166-.082.166h-.082l-.082.083-.083.166-.082.083-.082.083-.164.083v.166l-.083.083-.082.084-.082.166-.164.166v.083l-.082.083-.083.166-.082.166-.082.166-.082.083-.082.083v.166l-.083.166v.083h-.082v.083l-.082.166v.166l-.082.25-.082.165-.083.167v.249l-.082.166V36.502L7 36.668v.083l.082.083v.083h.082l.083.083.164-.083h.082l.165.083h.493v-.083l.082.083.164-.083h.165l.082-.083.082-.083.082-.083.082-.083.083-.083.082-.083.082-.083.082-.083.082-.083v-.083l.165-.083.164-.166.082-.084.083-.082.082-.083v-.084h.082l.082-.166z" fill="#EA5329"/><defs><linearGradient id="paint0_linear" x1="10.418" y1="9.712" x2="68.147" y2="76.017" gradientUnits="userSpaceOnUse"><stop stop-color="#1A1E21"/><stop offset="1" stop-color="#06060A"/></linearGradient><linearGradient id="paint1_linear" x1="10.418" y1="9.712" x2="68.147" y2="76.017" gradientUnits="userSpaceOnUse"><stop stop-color="#1A1E21"/><stop offset="1" stop-color="#06060A"/></linearGradient></defs></svg>