<!-- by TradingView --><svg width="56" height="56" fill="none" xmlns="http://www.w3.org/2000/svg"><path fill="#E31836" d="M0 0h56v56H0z"/><circle cx="28" cy="28" r="28" fill="#E31836"/><path d="M13.141 30.207c-.911 1.639-1.257 3.247-.618 4.49 1.992 3.88 11.246 3.825 20.139.129 2.237-.93 4.264-2.014 6.016-3.178 5.211-3.464 7.231-7.371 5.74-10.275-1.993-3.88-10.078-4.291-18.971-.596-.952.396-1.866.817-2.736 1.257l-.748.005a44.056 44.056 0 014.117-1.995c10.11-4.202 20.142-4.033 22.407.378 1.7 3.31-.89 7.937-6.85 11.881-1.978 1.31-4.457 2.649-6.976 3.696-10.11 4.201-20.24 3.942-22.505-.468-.802-1.562-.664-3.393.398-5.33l.587.006zm2.072-2.81c.579-.637 1.18-1.145 1.929-1.763l.019-.473a24.407 24.407 0 00-2.5 2.253l.553-.017z" fill="#fff"/><path d="M16.036 27.35C15.3 29.969 13.06 31 10.805 31c-3.189 0-4.251-1.826-3.64-4.535C7.677 23.802 9.773 22 12.847 22c2.295 0 4.04 1.06 3.445 4h-3.305c.209-1.398-.126-1.77-.568-1.765-.931 0-1.222.896-1.53 2.265-.293 1.298-.436 2.265.47 2.265.466 0 .839-.26 1.295-1.414h3.382zM20.766 24h.352c.579 0 .873.212 1.022.573.158.375.097 1.054-.09 1.927-.188.873-.4 1.552-.719 1.926-.304.362-.688.574-1.267.574h-.352l1.054-5zm-5.014 7h4.477c2.797 0 4.948-1.682 5.531-4.4.573-2.67-.173-4.6-3.814-4.6h-4.263l-1.93 9zM26.557 22h3.222l-.444 5.65h.025L31.416 22h3.725l-.368 5.65h.025l1.98-5.65H40l-3.895 9h-3.902l.41-5.84h-.026L30.492 31H26.59l-.033-9z" fill="#fff"/></svg>