<!-- by TradingView --><svg width="56" height="56" fill="none" xmlns="http://www.w3.org/2000/svg"><path fill="#00A271" d="M0 0h56v56H0z"/><circle cx="28" cy="28" r="28" fill="#00A271"/><path d="M26.058 22.913c-2.369.85-3.184 3.152-3.184 3.152-.319.85-1.166.935-2.12.935h-4.492C15.025 27 14 26.238 14 25c0-1.24.848-2 2.262-2h3.563l-5.155-5.116a2.249 2.249 0 010-3.186 2.24 2.24 0 013.183 0L23 19.825v-3.533c0-1.239.75-2.264 2.023-2.264 1.24 0 1.977.99 1.977 2.228v4.497c0 .956-.094 1.879-.942 2.16zM25 41.963c-1.236 0-2.036-.817-2-2.231V36l-5.112 5.324c-.882.888-2.333.888-3.182 0-.883-.883-.883-2.335 0-3.183l5.114-5.139h-3.522c-1.273 0-2.262-.765-2.262-2.002 0-1.24.99-2 2.262-2h4.49c.954 0 1.803.038 2.123.89.813 2.405 2.89 3.219 2.89 3.219.886.319 1.199 1.133 1.199 2.125v4.498c0 1.24-.727 2.232-2 2.232zM39.703 33h-3.57l5.16 5.14c.884.884.884 2.301 0 3.184a2.234 2.234 0 01-3.182 0L33 36.19v3.543C33 41.08 32.237 42 31 42c-1.238 0-2-1.028-2-2.267v-4.5c0-.956.059-1.84.909-2.124 2.367-.814 3.18-3.15 3.18-3.15.319-.848 1.168-.959 2.122-.959h4.492C40.94 29 42 29.76 42 31c0 1.237-.954 2-2.297 2zm.035-6h-4.491c-.954 0-1.84-.05-2.121-.9-.815-2.373-3.147-3.223-3.147-3.223-.849-.32-.979-1.133-.979-2.126v-4.496c0-1.238.764-2.228 2.003-2.228 1.237 0 1.997.92 1.997 2.228v3.604l5.146-5.196a2.24 2.24 0 013.183 0 2.287 2.287 0 010 3.22L36.237 23h3.501c1.237 0 2.262.76 2.262 2s-1.025 2-2.262 2z" fill="#fff"/></svg>