<!-- by TradingView --><svg width="56" height="56" fill="none" xmlns="http://www.w3.org/2000/svg"><path fill="#BA0C2F" d="M0 0h56v56H0z"/><circle cx="28" cy="28" r="28" fill="#BA0C2F"/><path fill-rule="evenodd" clip-rule="evenodd" d="M12.31 30.638c.85 5.109 4.188 9.561 8.847 11.805 4.338 2.09 9.434 2.05 13.77.012 4.076-1.916 7.392-5.806 8.531-10.235.946-3.677.653-7.628-1.014-11.063-2.3-4.737-6.628-7.984-11.806-8.846a15.832 15.832 0 00-5.196.004c-5.15.856-9.609 4.218-11.79 8.866-1.385 2.954-1.877 6.244-1.342 9.457z" fill="#fff"/><path fill-rule="evenodd" clip-rule="evenodd" d="M27.195 13.09c-3.19.193-5.835 1.25-8.218 3.031a14.254 14.254 0 00-2.394 2.282c-.153.182-.274.318-.415.511-.87 1.186-1.462 2.114-2.047 3.59a15.176 15.176 0 00-1.034 6.438c.453 7.97 7.296 14.571 15.855 14.078 7.982-.46 14.575-7.302 14.078-15.855-.186-3.203-1.28-5.798-3.034-8.19l-1.298-1.485c-.788-.792-1.648-1.514-2.604-2.104-2.644-1.63-5.598-2.496-8.89-2.297z" fill="#C9234B"/><path fill-rule="evenodd" clip-rule="evenodd" d="M27.207 13.38c-3.326.224-6.13 1.37-8.556 3.38a14.767 14.767 0 00-3.023 3.434c-1.59 2.525-2.45 5.585-2.25 8.725.21 3.276 1.4 6.146 3.382 8.536a14.66 14.66 0 0012.15 5.274 14.66 14.66 0 008.547-3.382l.974-.88c.162-.164.29-.326.449-.48 1.11-1.09 2.262-3.059 2.84-4.509a14.69 14.69 0 00-2.372-14.828l-.88-.975c-2.925-2.912-7.015-4.58-11.26-4.294z" fill="#fff"/><path fill-rule="evenodd" clip-rule="evenodd" d="M27.371 18.687c-4.913.392-8.903 4.62-8.528 9.973.342 4.871 4.665 8.996 10.033 8.548 4.855-.405 8.906-4.627 8.497-9.975-.373-4.886-4.633-8.974-10.002-8.546z" fill="#C9234B"/><path fill-rule="evenodd" clip-rule="evenodd" d="M24.107 24.005l-.082.048c-.375-.006-.123-.14-.383-.221-.229-.072-.368.025-.472.123-.153.145-.221.127-.429.212-.256.106-.159.177-.403.238-.25.064-.228.066-.354.255-.106.16-.165.214-.28.362-.207.27-.337.466-.365.926-.266.262-.83.308-.548.982.31.74.622.408.983.28.19.106.811.762.91 1.219.21.974.495 1.952.745 2.893.222.836.431 1.377.814 2.075.245.448 1.55 2.245 1.969 2.383.868.285 1.52-.477 2.034-.791.75-.459 1.414-.968 2.055-1.55.383-.346.74-.743 1.054-1.157.117-.154.514-.783.622-.849.19.065.26.195.558.068a.761.761 0 00.392-.367c.654.03.534-.275.976-.367.169-.035.214-.05.356-.116-.033-.087-.058-.094-.062-.203l.238-.207c-.01-.136-.01-.04-.03-.091-.098-.263.098-.33.02-.621l-.131.416-.055-.134c-.081.053-.065.11-.146.124l.035-.246c-.07.056-.125.126-.129.196-.008-.293.058-.598.039-.942-.014-.258-.066-.671-.162-.862.014.174.09.372.064.577-.021.168-.07.125-.112.231a.224.224 0 00-.006.02l-.124.448c-.032.098.011-.046-.008.118-.014.123-.115.184-.177.288-.064.108.044.013-.073.119l-.04-.072-.012-.025c-.04-.084.002-.041-.055-.116-.014.026-.008.028-.025.07l-.01.026-.011.027-.084-.216c-.048.014.016.003-.039.03-.114.057.047.061-.064.016-.04-.218-.005-.316.086-.458.1.081.167.232.344.03-.08-.23-.235-.145-.43-.231-.053-.023-.03-.023-.08.041-.004.005-.01.018-.017.026-.044-.116-.028-.107-.129-.164l.151.406c-.148-.155-.333-.435-.375-.694.103.093.223.092.355.012.009-.24-.058-.145-.236-.26-.126-.082-.17-.169-.274-.26-.122-.109-.175-.13-.2-.342-.022-.199-.013-.22.139-.276l.023-.01c.005-.001.017-.004.024-.01-.388-.371-.205.374-1.206-.355-.643-.468-.902-.139-1.556-.334a.53.53 0 01.022-.356c.042-.083.165-.175.235-.257-.13.023-.277.095-.322.17-.213.35-.024.326-.7.834-.982.738-.307 1.055-.33 1.38-.022.313-.52.46-.789 1.246-.136.397-.206 1.362-.46 1.601-.221-.192-.277-.49-.471-.662-.238-.21-.347-.356-.562-.579-.363-.376-.684-.902-.937-1.383-.136-.26-.73-1.403-.595-1.642l.222-.353c.8-1.7-.498-1.037.994-1.86.26-.143.502-.282.754-.422l1.128-.62c.189-.1.208-.169.466-.145.219.269.393.576.641.825.142.143.192.218.398.318.286.14.266.112.497-.03.283-.175.622-.356.944-.518a7.15 7.15 0 00.906-.548c-.064-.681-.368-1.318-.417-1.755.092-.094.115-.078.217-.178.002-.41-.436-1.32-.925-.979-.347-.345-.536-.811-1.018-1.019-.172-.074-.311.051-.46.14-.284.168-.564.33-.864.492-.266.145-.634.398-.883.492 0 .565.17 1.037.342 1.5-.548.384-1.768.998-2.405 1.341-.256.138-.575.32-.827.416-.133-.23-.11-.167-.413-.188v.001z" fill="#fff"/><path fill-rule="evenodd" clip-rule="evenodd" d="M23.376 37.526c-.85.148-1.343 1.22-1.405 1.912-.055.604.157.932.464 1.19.274.23.821.455 1.3.372 1.099-.191 1.963-2.365.904-3.11-.31-.219-.775-.448-1.263-.364zm.153.686c-.627.177-1.103 1.325-.693 1.872a.71.71 0 00.746.232c.39-.12.711-.63.8-1.125.11-.605-.267-1.145-.853-.98zM31.89 37.952l.623 2.187c-.247-.201-1.64-1.669-1.855-1.822l-.698.204.917 3.172.603-.163-.62-2.172c.152.079 1.587 1.539 1.867 1.79l.684-.181-.92-3.175-.601.16zM21.642 38.78c-.178-.093-.35-.265-.545-.397-.19.11-.684.571-1.124-.003-.372-.485.259-1.32.637-1.574.49-.328.943-.133 1.078.255.106.304-.036.464-.1.696.105.101.43.374.551.424.163-.35.418-.68.249-1.217-.119-.378-.417-.654-.705-.828-1.28-.773-2.41.913-2.53 1.665-.139.885.786 1.58 1.478 1.548.426-.02.853-.306 1.01-.57zM36.048 38.039l-.61.352c.042.245.155.39.054.666a.699.699 0 01-.429.394c-.747.218-1.608-1.22-1.176-1.819a.681.681 0 01.588-.244c.266.029.379.186.535.328.111-.025.507-.263.593-.352-.1-.224-.501-.565-.842-.642-.786-.177-2.433.667-1.353 2.424.342.556.925 1.323 1.929.899.335-.142.652-.425.797-.736.233-.498.05-.843-.086-1.27zM30.036 26.91l.238.096c-.183.134-.273-.046-.546.005-.478.088-.588-.027-.995.438-.091.104-.182.372-.187.542.221.103.15.112.471.093.248-.015.349.027.445.165 0-.153-.003-.067.034-.123.184-.029.133-.062.285.02.068.037.038.03.127.053.242.062.231.103.43.11.283.008.135-.046.265-.093.131.114.11.227.22.332l.127-.1.021-.019.021-.018c.054.05.08.08.134.136.034.034.044.037.073.071.134.16.123.442.395.27.027.126.21.378.265.64-.028-.133.018-.135.047-.17.098.46.124.33.193.501.078.194-.002.415.057.61.073-.114.062-.415.072-.597.006-.095.008-.192.037-.288.03-.104.01-.07.05-.068.217.007-.104.148.053.036 0-.157-.012-.368.042-.494l.084-.134c.026-.03.03-.024.067-.06.146.133.115.466.125.653.001.017.006.094.008.107l.041.126c.04-1.01-.112-.892-.33-1.008l-.004-.564c-.124-.095-.02-.003-.151-.05-.287-.104-.296-.214-.311-.36-.13.082-.077.073-.186-.056l-.138-.102c-.166-.07-.21-.169-.272-.204l-.27-.127c-.107-.061-.236.02-.475-.234-.27-.288-.126-.117-.361-.109-.034.001-.127-.022-.201-.025zM37.398 32.047c.107.09 2.517 1.039 2.785 1.108l-.346.922.671.277.986-2.551-.665-.242-.369.909c-.487-.142-2.54-1.06-2.81-1.06l-.252.637zm.85-3.805l1.594.153-.129 1.483c-.41.01-1.297-.18-1.61-.123l-.067.713 3.68.353c.087-.18.07-.51.097-.724l-1.368-.137c-.023-.128.09-1.334.13-1.475l1.383.112.065-.72-3.694-.366-.081.731zm.338-1.473l-.332.174.062.359c.25-.012 1.863-.368 2.02-.462l-.288-1.313-.631.134.13.635c-.58.026-1.006-.207-.982-.812.02-.49.482-.75.914-.882.5-.153 1.146-.091 1.39.233.124.164.225.434.14.69a.678.678 0 01-.172.258l-.24.183a.219.219 0 00-.016.018l.169.762c1.593-.404 1.343-3.187-.854-3.01-.815.066-1.665.423-1.937.987-.184.381-.176.826-.042 1.243.18.557.483.638.669.803zm-1.466-3.384c.043.144.222.557.316.658l3.351-1.563-.304-.665-3.363 1.57zm-2.026-2.817c.062.122.373.49.487.583l2.342-1.203c-.102.228-1.459 1.792-1.629 2.077.078.17.33.431.464.579.184-.041.657-.308.853-.405l2.562-1.286-.445-.56c-.148.044-.437.218-.59.305l-1.801.964 1.696-2.087c-.055-.108-.127-.184-.212-.286-.091-.11-.159-.201-.232-.288l-2.398 1.252c.022-.065 1.495-1.874 1.7-2.07a3.832 3.832 0 00-.455-.563l-2.342 2.987zm-3.057-2.004c.184.15 1.528.958 1.772 1.022.842.221 1.445-.61 1.725-1.069.357-.586.69-1.462.139-2.042-.23-.242-.91-.615-1.276-.829-.14-.082-.319-.205-.457-.264-.087.074-.177.252-.247.367l-1.657 2.815zm.994-.251c.01.009.02.009.023.021.004.012.016.015.02.02l.425.259c.575.341.864.347 1.385-.497.409-.662.457-1.073-.185-1.454-.131-.078-.377-.245-.51-.28l-1.159 1.931zm-4.524-2.608c-.357.137-.588.289-.726.625-.466 1.134.519 1.987 1.532 1.603.201-.076.325-.21.453-.254.213.24-.008.432 1.102.432-.112-.298-.434-.639-.562-.938.053-.11.156-.204.233-.331a1.94 1.94 0 00.197-.418c-.092-.12-.248-.212-.364-.308-.09.083-.148.302-.392.558l-.124-.162-.124-.198c-.085-.136-.182-.245-.234-.414.815-.241.897-1.427-.019-1.652-.782-.192-1.51.383-.972 1.458v-.001zm.652-.2c.403-.122.503-.644.172-.726-.206-.05-.346.065-.361.252-.018.225.081.354.19.474zm.294 1.668l-.592-.952c-.037-.043-.021-.026-.058-.056-.311.152-.541.532-.326.942.175.332.686.351.976.066zm-5.282-2.465l.46 1.317-1.39.494c-.152-.223-.349-1.08-.503-1.293l-.672.227 1.238 3.507.689-.237-.535-1.531 1.424-.491.523 1.502c.215-.023.536-.134.69-.245-.12-.472-.869-2.454-1.145-3.246l-.092-.208a.571.571 0 00-.015-.026l-.671.23zm-1.788 3.143c-.227.104-.424.351-.649.455.145.366.383.998-.32 1.253-.803.291-1.92-1.23-1.487-1.915a.763.763 0 01.599-.337c.304-.005.51.18.677.31.213-.13.425-.353.616-.436-.061-.146-.285-.324-.446-.428-.684-.44-1.345-.199-1.866.258-.815.714-.485 1.705.077 2.423.463.591 1.236 1.338 2.282.72.3-.178.657-.539.777-.935.18-.597-.07-.949-.26-1.368zm-6.322 3.175c.005.007.015.008.017.02l2.985 2.15c.142-.145.305-.39.422-.565-.119-.168-.878-.605-1.074-.82.11-.18.22-.322.338-.492.11-.158.218-.386.455-.375.39.019.68.51 1.117.56.084-.199.305-.418.415-.62-.12-.079-.311-.119-.44-.2-.392-.244-.834-.667-1.299-.481.027-.824-1.085-1.436-1.67-.913-.125.112-.216.256-.332.417l-.934 1.319zm1.015-.179c.1.109.22.178.355.278l.384.252c.167-.18.306-.422.452-.612.22-.288.202-.498-.068-.694-.33-.238-.506-.113-.689.151-.128.186-.33.434-.434.626zm-2.814 6.046l1.37.038c.057.218-.015 1.197-.02 1.498l-1.4-.037-.015.734 3.725.105c0-.22.048-.532-.008-.733l-1.585-.045.04-1.485 1.614.027.018-.725-3.717-.112-.022.735zm2.275 2.81l.213.757c.27-.007.538-.017.74.13.48.354.484 1.176-.68 1.526-1.698.51-1.846-1.114-.904-1.378-.031-.223-.128-.613-.232-.768-.386.107-.788.443-.945.74-.22.417-.155.98.022 1.406.378.903 1.193 1.07 2.303.742 2.153-.639 1.523-2.403.85-2.931-.306-.24-.89-.358-1.367-.224zm-1.332-6.81c.535.157 1.11.383 1.647.559.53.174 1.32.352 1.077 1.079-.36 1.084-2.165-.241-3.168-.354l-.226.664c.206.142 1.826.643 2.191.77.997.344 1.572.034 1.868-.81.557-1.59-.768-1.798-2.037-2.232-.318-.108-.823-.312-1.129-.37l-.223.694zM29.036 38.577l.328 3.26.642-.056c.002-.313-.286-3.15-.347-3.286l-.473.037c-.086.015.045-.015-.06.013l-.09.032zM27.886 20.788c.026.056.05.102.087.12.134.065-.15-.079.128-.008l.066.193-.093-.01c.04.168.112.309.179.421l.274.39c-.074-.255-.195-.278-.244-.55.304.182.128.52.53.588-.057-.183-.126-.21-.165-.42l.12.122c.034.05.056.1.087.16.064.124.113.226.198.313l-.103-.284c.222.217.568.95.742 1.277.111.212.224.446.349.648.144.237.251.414.39.623-.156-1.394-.284-1.155-.751-1.975-.18-.316-.315-.415-.317-.63.007.007.018.008.021.021l.141.194c.05.093.093.167.139.253.1.193.187.317.303.465-.117-.485-.713-1.372-1.08-1.723-.43-.413-.365-.663-1.001-.188zM30.671 31.585c-.035.335-.1.156-.243.38l-.142.149-.02.016-.09.15c-.095.13-.136.057-.213.223-.093.202-.1.361-.277.458.051.049.171.121.241.103.058-.016.013-.074.206-.074l-.132-.157c.188.016.14.009.326-.043l.086-.026c-.091-.044-.178-.104-.273-.134.078-.056-.05-.057.14-.03.035.005.072.038.164.053l-.182-.166.322.085c-.074-.106-.124-.106-.175-.197.116.017.077.022.178.06.099-.118.019-.115.198-.123-.054-.062-.062-.064-.106-.137a.508.508 0 00.232-.123c.094-.145-.045-.152.186-.21.004-.002.016-.003.023-.007-.032-.116.004-.069-.01-.224.062.013.13.044.197-.002l-.15-.067c.005 0 .02-.014.023-.007l.194-.137c.051-.038-.003.02.046-.031.12-.126.02-.323.017-.356-.004-.069.058-.126.037-.278-.286.35-.053-.143-.441.405l-.016.021-.155.237c-.147.259-.13.157-.19.189zM26.507 41.751l.284.053c-.02.277-.112.407-.347.474l-.03.33c.68-.066.838-.863.812-1.558l-.644-.07-.075.771zM21.656 25.45c-.104.017-.026-.124-.094.035 0 .247-.036.18-.079.398.547-.241.197-.194.41-.352.054-.039.007-.003.071-.036l.097-.049c.204.098.323.216.497.325.193.12.53.197.376-.197-.18-.026-.13.074-.327.043-.002-.14.063-.238.026-.323-.1-.23-.069.041-.18-.196l-.147.048-.015-.128c-.019.002-.095.024-.1.024-.062.004-.01.032-.18-.073-.081-.05.008-.027-.096-.05-.187.21-.226.142-.259.53z" fill="#C9234B"/><path fill-rule="evenodd" clip-rule="evenodd" d="M22.123 24.7c.185.259.659.013.871.885.04.16.008.118.119.181.083.055.302.04.383.004.06-.15-.003-.27-.081-.346-.123.037-.017.033-.07.132l-.27.042c.041-.211.132-.262.34-.322-.058-.154.001.006-.098-.11l-.065-.083-.04-.026-.048-.027c-.166-.098-.226-.119-.134-.223-.245-.017-.363-.197-.565-.159l.034-.115c-.376.061-.325-.005-.376.167zM25.056 41.503l.633.134.176-.782-.628-.124-.181.772zM36.737 38.002c.078.091.164.172.25.274.114.133.127.167.27.286.142-.093.354-.284.472-.413l-.516-.59c-.12.137-.346.27-.477.443zM22.703 27.625c.052-.088.248-.31.317-.358-.11-.223-.043-.207-.221-.39.033-.177.047-.153.113-.278-.335.137-.644.33-.754.644.099-.05.177-.126.241-.205-.043.159-.125.135-.189.338.005.003.014-.002.015.004.027.133-.038-.12.11.116l.02.035c.072.099.032.007.154.077.126.074.049-.01.076.113.08-.14.007-.064.117-.096z" fill="#C9234B"/><path fill-rule="evenodd" clip-rule="evenodd" d="M30.53 30.837l-.001-.001c.05-.025.02-.01 0 0zm.004.004c-.03.01-.019.004-.004-.005l.004.005zm-2.64 3.64c.117-.07.068-.048.127-.122.071-.09.095-.05.195-.115l.198-.16.016-.019.261-.308c.102-.095.08.023.184-.089l-.023-.192.161-.05-.103-.076c.255-.103-.093-.127.292-.125-.092-.162-.074-.053-.044-.262l.227.057-.133-.17c.004.003.046-.008.054-.012.053-.025.047-.024.068-.04l-.143-.102c.087-.074.162-.013.08-.174.116.016.098.05.196-.003-.065-.044-.133-.082-.188-.15.057-.03.093.01.16-.04l-.1-.12.264.044-.238-.178.39.117c-.05-.135-.168-.153-.315-.208.007-.006.02-.02.024-.013l.106-.02c.011.002.12.03.16.037-.006-.008-.016-.027-.019-.021l-.12-.112c-.054-.051-.016-.002-.063-.066.172.044.21.122.394.097-.043-.023-.088-.06-.149-.094l-.14-.083c-.062-.056-.008.009-.06-.068l.343.094c-.065-.108-.025-.042-.092-.108-.076-.075-.04-.001-.088-.104l.272.066-.096-.134.236.026c-.06-.065-.156-.15-.21-.22l.245.05-.079-.153.226.072c-.034-.117-.056-.099-.107-.203l.246.065c-.044-.133-.044-.056-.1-.18.186-.003.099.022.27.075l-.146-.147.061-.025.025-.01.074-.041c-.042-.039-.075-.061-.106-.133l.212-.01c-.064-.079-.08-.065-.148-.142.136-.062.114.014.256.07-.07-.154-.15-.14-.22-.275.228.065.217.027.388.158-.096-.193-.22-.146-.33-.37.153.014.152.16.352.144a1.68 1.68 0 01-.33-.36c.192.076.252.178.422.25-.085-.173-.233-.195-.363-.398.198.065.176.162.392.197-.077-.205-.352-.243-.445-.447l.271.093c-.105-.188-.199-.18-.323-.304 0-.1-.035 0 .108-.07l-.514-.276c.186-.04.231.053.41.082a1.133 1.133 0 00-.421-.217c.07-.03.054-.011.106-.026l.03-.008.03-.01.06-.023c-.37-.069-.357-.183-.408-.199-.17-.018-.486-.064-.644-.059-.395.014-.143.219-.387.075.045.231.002.098-.027.132l-.018.014-.157.15c-.012.006-.018.007-.02.006l-.005.005-.18-.03.095.262c-.107-.041-.102-.068-.178-.16.004.134.032.128.077.238l-.123-.02.043.163c-.052-.03-.071-.04-.12-.07.064.287.01.044-.057.253l-.004.017-.006.013c-.072.124.008-.019-.029.024-.08.09-.064.272-.15.368l-.157-.156c.035.204.105.171.109.36-.125-.064-.107-.245-.16-.086-.042.128.03.206.057.339-.095-.031-.016.02-.093-.067l-.063-.087c-.004-.005-.01-.015-.017-.022.04.17.085.213.024.346-.039.086.035-.046-.017.051-.036.067-.006.03-.063.036.06.163.066.073.077.262l.038.196c0 .006 0 .017.002.024.012.103.276.456.363.553-.005.003-.015-.002-.017.005-.023.089-.084-.066-.106.096-.002.012.009.078.013.103l-.158-.07.109.193-.191-.149c-.073-.072-.102-.084-.15-.18-.017.059-.036.155-.071.206-.084-.025-.095.011-.156-.044-.025-.022-.108-.15-.117-.162.02.148.11.288.066.382a.457.457 0 01-.125-.221c0 .102.016.097.023.19l-.051.674c-.182.737-.27.564-.326.775l.085-.482-.154.442c-.05-.057-.05-.067-.028-.186.016-.088.028-.108.033-.214l-.123.135a.553.553 0 01-.023.02l.074-.355c-.047.063-.112.195-.19.22l.063-.25-.163.14.09-.347-.167.066c.034-.13.056-.13.104-.25-.1.049-.108.083-.183.166-.041.046-.012.021-.059.057l.115-.307c-.06.056-.088.098-.158.136-.084.046-.092 0-.153.15-.007-.007-.015-.03-.019-.024l-.138-.12c-.056-.043-.022-.003-.055-.047.186-.25.081-.114.217-.108h.074c.127-.007.153-.057.227-.177-.027-.08-.023-.032-.06-.079l-.03-.04c-.097-.139-.113-.315-.177-.454l-.022-.083c-.021-.095-.234-.29-.304-.38l-.07-.109-.014-.023c-.07-.132-.036-.088-.006-.244-.186.04-.026.114-.245.165.058-.217.123-.142.202-.332-.149.07-.043.036-.138.101-.11.076.02.057-.17.056.016-.229.155-.17.198-.433-.007-.006-.019-.023-.022-.016l-.162-.167c-.035-.072-.073-.2-.094-.256-.166.045-.234.15-.37.214l.115-.208-.202.117c.054-.211.117-.136.212-.313l-.25.15c.06-.15.093-.157.152-.268-.157.055-.113.135-.279.204.014-.287.38-.196.213-.463-.141.043-.187.14-.305.205.012-.229.428-.201.209-.564l-.18-.291c-.044-.047-.196-.07-.056-.243l-.138.037c.065-.224-.063-.23-.041-.31.002-.009.05-.084.065-.111l-.126-.036c.036-.309-.04-.22-.083-.412-.028-.124.02-.095-.017-.171-.047-.096-.043.015-.128-.143l.372-.03.133-.23c-.18.01-.22.045-.33-.061.088-.04.08-.014.143-.042.138-.06.083-.066.133-.117l.133-.08c.149-.064.077.009.14-.101-.276.075-.192.04-.246-.015l.272-.089c-.09-.061-.24-.017-.202-.134.02-.06.175-.099.252-.13l-.068-.08.196-.08-.146-.043c-.004 0-.015-.002-.021-.005.075-.08.1-.092.114-.178l.026-.082c.006-.036.008.004-.002-.072l-.036-.383c.005-.142.02-.226-.082-.314l-.242-.175c-.13-.134-.037-.018-.023-.218-.171.082-.03.108-.201.023a1.202 1.202 0 01-.219-.145c-.08-.073-.126-.13-.12-.221.002-.039.008-.045.014-.042a.608.608 0 01-.012-.025c-.027-.035-.09-.047-.114-.08-.214.154-.119.522-.003.675.263.347.473.173.515.523.028.235-.071.244-.211.506l-.024.047-.013.024c-.125.253-.055.147-.062.25-.013.208-.235.185-.403.287-.132.079-.093.139-.095.15l-.016.065c-.035.064-.144.099-.202.172 0 .01 0 .021-.002.037-.01.085-.033.094-.105.165.243-.132.184-.031.206-.015-.076.038-.128.095-.2.15.005 0 .076-.017.132.017l-.118.105c.003 0 .015-.007.018 0 .003.008.017.003.021.004l.144.035-.14.075.136.076c-.074.062-.049.035-.094.098.163.158.077.133.133.231.02.034.11.115.105.192-.008.108-.168.139.065.29-.11.126-.048.076-.06.184-.016.138-.036.064-.074.217.175-.08.009-.074.217-.12-.033.077-.061.113-.098.176.1-.056.044-.068.152-.005-.082.082-.22.324-.36.355-.174.039-.012.02-.163-.05l.125-.218c-.043-.023.003-.05-.197.012.036-.109.055-.09.034-.16l-.076-.132c-.12-.199-.033-.18-.08-.388-.024-.108-.103-.206-.135-.325-.016-.06-.021-.147-.048-.203a.315.315 0 00-.046-.06c-.058-.059-.047-.035-.086-.062l-.275.209-.08.204.146-.08c.025.054.004.063-.027.136.18-.086.105-.059.137.037l-.017.167.098.02c-.076.176-.082.182-.038.332l.126.546c.02.157.046.106.093.22.007.016.113-.076-.011.16l.143-.068c-.023.143.022.04.016.178l-.003.022c-.011.138.102.395.017.62l.133-.093c0 .178-.06.13-.073.252l.114-.094-.092.257c.113.059.018-.047.132.002l-.096.32c.094-.11.069-.189.177-.27.074.148-.105.24-.103.439.068-.107.044-.144.159-.192l-.08.3c.083-.114.056-.12.18-.175l-.077.22c.002.004.01.002.012.008.015.06.022-.003.079.028l-.092.215c.04.027.054-.046.124-.002l-.063.18c.071.039-.016 0 .045 0l.05-.002c.003 0 .013-.002.018.001l-.08.178c.007.003.019-.003.021.004.004.016.104-.022.066.168.05-.054.062-.09.113-.064l-.064.214c.045.016.01.03.102-.06l-.095.478.155-.303c.044.173-.067.315-.063.51.033-.097.158-.278.176-.358l-.065.373c.09-.073.12-.163.183-.245l-.068.318.198.072-.054.284.095-.041-.042.275c.028-.09.057-.108.116-.155l-.034.243c.05.023.037.017.102-.02.006-.004.016-.015.025-.02-.023.404.058-.048.062.385.035-.028.02-.017.052-.046l.065-.058c.002.111.011.107.02.114l.083.002-.037.217c.155-.111.189-.064.197.164l.052-.043c.042-.03.017-.016.054-.036l.016.238c.094-.085.024-.064.088-.031l.019.386c.042-.082.024-.142.07-.216l.046.197c.12-.073.023-.065.105-.056l-.018.242.132-.134c-.017.275.046.13.116.37.036.126.039.22.149.313.097.084.219.212.345.23.03.003.02-.005.091.01.093.019.136.038.247.037.32 0 .874-.275.959-.574.064-.225.035-.243.236-.226.007-.17-.136-.224.108-.369v.003z" fill="#C9234B"/></svg>