<!-- by TradingView --><svg width="56" height="56" fill="none" xmlns="http://www.w3.org/2000/svg"><path fill="#002F6C" d="M0 0h56v56H0z"/><circle cx="28" cy="28" r="28" fill="#002F6C"/><path fill-rule="evenodd" clip-rule="evenodd" d="M50.534 32.46c.504 0 .997-.56.92-1.118l-1.58-6.936c-.063-.487-.41-.836-.885-.83H6.97c-.425-.004-.814.343-.885.83l-1.564 6.936c-.063.555.408 1.117.918 1.117h45.094zm0 .54c.814.002 1.693-.798 1.413-1.823l-1.514-6.951c-.173-.718-.745-1.218-1.444-1.226H6.97c-.67.008-1.263.508-1.41 1.226l-1.512 6.949c-.264 1.025.593 1.827 1.393 1.823h45.092V33z" fill="#fff"/><path fill-rule="evenodd" clip-rule="evenodd" d="M18 26.986c.28-.595.731-.986 1.481-.986 1.11.008 1.871.787 1.87 1.91 0 1.137-.709 2.168-1.872 2.16-1.077.008-1.808-.929-1.805-1.984-.012-1.338-.39-2.619-1.796-2.69-1.282-.064-1.885 1.133-1.881 2.684-.004 1.203.595 2.488 1.933 2.49.822-.004 1.263-.23 1.837-.822l.16.207A2.627 2.627 0 0115.864 31c-1.627-.004-2.868-1.092-2.864-2.99-.004-1.727 1.171-3.01 2.848-3.006.286 0 .525.043.728.1.147.041.277.088.391.128l.116.04c.299.097.44.06.57-.272H18v1.986zM40.2 25l2.01 4.838c.024.054.048.116.074.181.138.348.318.803.694.782L43 31h-2.148v-.197c.788-.047.65-.42.38-1.076l-.29-.713h-2.147c-.029.089-.072.209-.121.343v.001c-.137.375-.314.86-.318 1.093.006.315.369.348.565.352v.199h-1.668v-.197c.288-.028.455-.217.595-.455.177-.295.317-.582.447-.907-.298.37-.695.629-1.245.627-.906.008-1.568-.87-1.562-1.95-.006-1.124.622-2.12 1.869-2.12.473 0 1.217.26 1.255.865-.002.217-.192.401-.397.393-.2.008-.39-.19-.397-.393.006-.332-.182-.574-.613-.578-.698.006-1.043.774-1.047 1.483 0 .791.43 1.675 1.27 1.656.635 0 .996-.571 1.23-1.147L40.002 25h.198zm-.384 1.3l-.916 2.31h1.845l-.928-2.31zm-19.27 2.12c-.064.742-.419 1.418-1.04 1.36-.763-.069-1.08-1.032-.977-2.241.068-.75.43-1.297 1.024-1.252.917.09 1.061 1.35.993 2.133z" fill="#fff"/><path fill-rule="evenodd" clip-rule="evenodd" d="M35.77 29.836V30h-1.995v-.164l.016-.004c.495-.037.61-.187.617-.543V27.27c.018-.577-.248-.53-.635-.315-.083.055-.193.061-.31.035-.085-.012-.133-.056-.184-.12l-.044-.056c-.056-.074-.128-.148-.319-.16-.156 0-.495.418-.49.653v1.982c-.003.445.212.514.615.547V30h-1.975v-.164c.499-.04.613-.19.617-.547V27.425c-.001-.57-.002-.882-.617-.693v-.185l1.36-.475v.733c.178-.295.52-.721.924-.721.27 0 .507.156.551.426l1.233-.51.016 3.285c-.008.45.215.518.62.551zM27.747 30v-.164c-.373-.037-.516-.156-.514-.547V27.75c0-.768-.056-1.664-1.064-1.664-.464 0-.97.357-1.276.72-.106-.41-.437-.72-.85-.72-.385 0-.728.193-1.023.426-.046.033-.086.076-.125.118a1.524 1.524 0 01-.065.069c-.059.047-.069.045-.073-.031v-.594l-1.257.457v.194c.435-.002.546.08.515.545v2.019c.006.36-.108.506-.495.543l-.02.004V30h1.793v-.164c-.38-.037-.528-.152-.534-.547v-2.207c.203-.297.608-.496.94-.496.53 0 .566.541.566.986l-.002 1.717c-.008.395-.154.508-.533.547V30h1.789v-.164c-.373-.037-.52-.154-.514-.547V27.1c.18-.315.488-.514.853-.514.507 0 .64.205.631 1.023v1.68c0 .391-.142.508-.513.547V30h1.77zm1.9-.537c.558-.004 1.005-.467 1.256-.922l.178.045c-.26.769-.962 1.422-1.832 1.414-.973.008-1.524-.754-1.524-1.791 0-1.227.667-2.12 1.702-2.12.939 0 1.456.706 1.478 1.612h-2.573c.018.811.411 1.758 1.316 1.762zm-.363-3.033c.518-.004.74.46.768.945H28.4c.072-.525.327-.945.884-.945z" fill="#fff"/></svg>