<!-- by TradingView --><svg width="56" height="56" fill="none" xmlns="http://www.w3.org/2000/svg"><circle cx="28" cy="28" r="28" fill="#C11A1C"/><path fill="#C11A1C" d="M0 0h56v56H0z"/><path d="M22.38 26.057l-1.254-1.786c-.22-.286-.518-.557-.879-.306-.571.4-.06.973-.036 1.01l1.225 1.742-1.148.802-1.586-2.258a8.656 8.656 0 00-.582-.753l1.136-.793.373.493.012-.008c-.08-.567.212-1.004.667-1.324.369-.257.921-.354 1.307-.074-.048-.506.229-1.006.677-1.337.652-.455 1.433-.37 1.903.302l1.425 2.028-1.148.801-1.25-1.78c-.22-.287-.518-.557-.877-.306-.573.4-.064.97-.04 1.003l1.223 1.743-1.148.801zm-3.578 2.499l-.254-.324c-.05.486-.27.82-.66 1.093-.651.455-1.432.369-1.9-.297l-1.428-2.034 1.148-.8 1.253 1.784c.22.288.519.559.88.307.57-.4.061-.973.036-1.01l-1.225-1.742 1.148-.801 1.585 2.257c.19.272.323.448.582.753l-1.165.814zm-3.982 2.773a2.64 2.64 0 01-3.675-.652 2.63 2.63 0 01.66-3.669l1.565-1.092.864 1.238-1.394.965a1.132 1.132 0 00-.283 1.578c.359.514 1.067.64 1.583.282l1.396-.976.86 1.232-1.576 1.094zm10.201-11.64l.373.493.013-.007c-.08-.566.212-1.004.668-1.323.367-.257.921-.354 1.306-.074-.049-.506.228-1.006.677-1.337.652-.456 1.433-.37 1.903.301l1.425 2.028-1.148.802-1.251-1.78c-.219-.289-.517-.557-.877-.307-.572.4-.063.972-.04 1.004l1.224 1.743-1.148.801-1.254-1.786c-.22-.288-.518-.557-.878-.306-.572.4-.062.972-.038 1.008l1.225 1.744-1.148.801-1.585-2.258a8.886 8.886 0 00-.582-.752l1.136-.795zm4.825-5.347l.569.81-1.16.81-.57-.81 1.16-.81zm3.058 4.367l-1.148.801-2.132-3.034 1.148-.802 2.132 3.035zm-.631-4.082l.254.323c.05-.486.269-.82.659-1.092.652-.456 1.433-.37 1.9.296l1.428 2.034-1.147.801-1.255-1.786c-.22-.287-.518-.558-.878-.306-.572.4-.062.973-.036 1.009l1.224 1.743-1.148.801-1.585-2.257a8.918 8.918 0 00-.582-.753l1.166-.813zM28.073 24H42V12.002h-3.978l-.926.651c-.073-.102-.154-.18-.25-.2-.108-.023-.235 0-.393.111-.17.12-.205.287-.082.464.156.222.615-.116 1.495-.396.443-.139.848-.09 1.196.405.564.804-.05 1.538-.746 2.024-.746.522-1.58.879-2.222-.05l1.09-.762a.407.407 0 00.27.217.45.45 0 00.371-.05c.224-.159.33-.356.193-.55-.376-.538-1.953 1.04-2.725-.061-.473-.672.01-1.366.554-1.805l-9.276.001s-7.43-.216-12.156 4.992c0 0-4.415 3.907-4.415 11.039 0 .344.01.67.031 1.002.003.11.073.841.123 1.23.793 5.73 4.385 8.96 4.385 8.96 5.006 4.991 11.938 4.775 11.938 4.775H42V32H28.01S23 32.186 23 28c0-4.123 5.073-4 5.073-4z" fill="#fff"/></svg>