<!-- by TradingView --><svg width="56" height="56" fill="none" xmlns="http://www.w3.org/2000/svg"><path fill="#F0F3FA" d="M0 0h56v56H0z"/><circle cx="28" cy="28" r="28" fill="#F0F3FA"/><path d="M24.416 22C15.121 22 8.337 22.293 3 23.422c4.667-.892 12.634-1.227 20.128-1.171 16.342.097 24.966 3.038 24.966 5.91 0 2.466-2.787 4.431-27.767 5.839l5.877-.014C44.414 33.136 51 31.115 51 28.035 50.987 24.94 40.719 22 24.416 22z" fill="#91BC50"/><path d="M19.604 26h-2.17c-1.827 0-1.893 2.454-.67 2.454h1.04c.382 0 .356.546-.038.546h-2.567l.605-3h-1.026l-1.511 2.621.276-2.621h-1l-1.577 3H9.48c-1.091 0-.868-2 .447-2h1.696l.447-1h-2.05c-2.525 0-2.827 4-.803 4h2.261l1.17-2.364L12.374 30h.92l1.367-2.349L14.2 30h3.408c1.617 0 1.67-2.424.434-2.424h-.892c-.42 0-.315-.576.145-.576h1.914l.395-1zm8.86 0l-1.445 2.94L26.4 26h-.855l-1.551 3h-1.642c-.447 0-.657-.227-.67-.651h2.101l.434-.895H21.92c.197-.318.5-.454.881-.454h1.668l.513-1h-2.025c-2.485 0-3.01 4-1.039 4h2.55l1.303-2.712.552 2.712h.986l2.024-4h-.867z" fill="#3893CE"/><path d="M30.735 27c-.381 0-.585.138-.782.458h2.285l-.434.897h-2.088c.014.426.21.645.67.645h1.405l-.42 1h-1.42c-1.973 0-1.447-3.987 1.038-3.987h4.562c1.538 0 1.052 2.433-.013 2.433h-.447L35.998 30h-1.026s-.736-1.31-.88-1.584c-.145-.274-.092-.73.302-.73h.789c.565 0 .545-.686.045-.686h-.96l-1.452 3h-1.012l1.466-3h-2.535z" fill="#3893CE"/><path d="M45.149 26h-1.25l-1.708 1.697L41.178 26h-2.314c-2.59 0-3.129 4-1.143 4h1.709l1.196-2.454h-2.314l-.434.863h1.38l-.315.591h-.78c-1.065 0-.684-2 .5-2h2.108l.841 1.333L40.784 30h.986l.683-1.424L45.15 26z" fill="#3893CE"/></svg>