<!-- by TradingView --><svg width="56" height="56" fill="none" xmlns="http://www.w3.org/2000/svg"><path fill="#005DAA" d="M0 0h56v56H0z"/><circle cx="28" cy="28" r="28" fill="#005DAA"/><path d="M37.692 31H25.88a3.145 3.145 0 01-2.248-.978 3.188 3.188 0 01-.88-2.3c0-2.925 2.992-2.874 2.992-2.874s1.871-.223 3.59 2.805l4.384-3.019s-2.564-5.214-8.103-5.214c-5.538 0-8.239 5.481-8.239 8.088 0 4.75 3.906 8.492 7.094 8.492h16.359l-3.137-5z" fill="#fff"/><path d="M41.675 37.044L45 43H24.145C20.291 43 11 38.55 11 27.758 11 20.3 17.367 13 25.675 13c2.715.065 5.366.854 7.694 2.291a15.92 15.92 0 015.588 5.906l-4.273 2.938s-3.163-5.814-9.077-5.814a9.183 9.183 0 00-6.557 2.767 9.725 9.725 0 00-2.768 6.714c0 5.752 4.385 9.198 8.265 9.198 4.71 0 17.094.062 17.094.062" fill="#fff"/></svg>