<!-- by TradingView --><svg width="56" height="56" fill="none" xmlns="http://www.w3.org/2000/svg"><path fill="#104F8C" d="M0 0h56v56H0z"/><circle cx="28" cy="28" r="28" fill="#104F8C"/><path d="M42 33l-1.487-2-1.507 2h1v3h-6.798v-2.5h-.056c-.765 1.768-2.556 2.496-4.453 2.427-.914 0-1.943-.318-2.693-.752V36l-3.126-.022-.014-5.257-.017-.016c-.242.528-.437 1.094-.754 1.599-1.573 2.755-4.505 3.848-7.49 3.515-2.51-.218-4.897-2.104-5.917-4.484-1.11-2.568-.907-6.098.831-8.309 1.867-2.513 4.883-3.545 7.837-2.917a8.16 8.16 0 012.2.891v-1h2.45v5.025L18.784 25c-.937-1.303-2.41-1.547-3.945-1.207-1.466.28-2.803 1.723-3.045 3.227-.31 1.716.37 3.375 1.76 4.36 1.096.854 2.865.886 4.005.117.59-.365 1.1-.908 1.447-1.497h7.679c.12.839.147 1.675.706 2.327.303.287.74.372 1.172.287.469-.07.952-.488 1.088-.97.137-.503 0-1.047-.348-1.404-.278-.287-.627-.427-.967-.582-1.859-.667-4.141-1.474-4.858-3.685-.56-1.916.098-3.925 1.64-5.12 1.253-.977 3.308-1.272 4.722-.426l.416.279c.067-.008.038-.093.046-.147V20h2.713v5.345H29.96c-.18-.76-.128-1.722-.928-2.126-.447-.17-1.059-.186-1.414.187-.34.302-.476.736-.4 1.203.068.628.665 1.023 1.202 1.186 1.163.45 2.364.776 3.376 1.598 1.513 1.102 2.088 3.531 1.605 5.36-.024.048-.03.156-.03.156l.074.055h1.066l3.99-5.276-3.553-4.68L34 23v-3h6v3h-.994l1.5 2 1.5-2H41v-3h7v3h-1.494L42.8 27.742 46.506 33h1.504l-.004 3h-7v-3H42z" fill="#fff"/></svg>