<!-- by TradingView --><svg width="56" height="56" fill="none" xmlns="http://www.w3.org/2000/svg"><path fill="#022169" d="M0 0h56v56H0z"/><circle cx="28" cy="28" r="28" fill="#022169"/><path d="M13 26.492c-.993-.655-1.534-1.021-2.85-1.021-1.6 0-2.897 1.36-2.897 3.038 0 1.679 1.298 3.039 2.897 3.039 1.258 0 1.515-.117 2.85-.98v3.017a6.53 6.53 0 01-2.85.648c-3.418 0-6.19-2.563-6.19-5.724s2.772-5.722 6.19-5.722a6.62 6.62 0 012.85.636v3.07zM17 23h-3v11h3V23zM15.5 22.371c.971 0 1.756-.754 1.756-1.684 0-.929-.785-1.683-1.755-1.683-.97 0-1.757.754-1.757 1.683 0 .93.787 1.684 1.757 1.684zM49.439 27.253c-.413-.161-1.561-.488-1.75-.563-1.5-.589-.954-1.686.157-1.686.822 0 1.595.327 2.154.684v-2.63c-1.086-.316-1.782-.434-2.682-.434-2.418 0-3.66 1.694-3.666 3.403-.003 1.201.97 2.52 2.104 2.921 1 .353 1.15.411 1.748.608 1.194.395 1.197 2.024-.434 2.024-.528 0-1.838-.149-2.614-1.756L39.86 18.648l-5.86 14.842V26h2v-3H26v6.547L21.123 23H18v11h3v-6.701L26.102 34H29v-8h2v8h6.095l.717-1.992h3.465L40.452 30h-1.865l1.272-4.062 1.715 4.57c1.087 2.798 3.136 3.764 5.433 3.764 2.297 0 4.625-1.293 4.625-3.94 0-1.895-1.158-2.678-2.193-3.08z" fill="#fff"/></svg>