<!-- by TradingView --><svg width="56" height="56" fill="none" xmlns="http://www.w3.org/2000/svg"><path fill="url(#paint0_linear)" d="M0 0h56v56H0z"/><circle cx="28" cy="28" r="28" fill="url(#paint1_linear)"/><path d="M37.532 33.405a1.797 1.797 0 110 3.595 1.797 1.797 0 110-3.595zM16.94 19a1.8 1.8 0 110 3.6 1.8 1.8 0 010-3.6zM46.671 27.6L50 33h-3.444l-1.596-2.946L42.94 33h-3.478l3.834-5.413L40.358 23h3.51l1.134 2.12L46.315 23h3.523l-3.167 4.6zM32.534 29.016L35.459 33h-3.617L30 30.014V33h-3V23h3.908c1.117 0 2.021.328 2.615.95.53.554.798 1.304.798 2.236 0 1.375-.692 2.44-1.787 2.83zm-.781-2.68c0-.337-.085-.585-.255-.767-.34-.355-1.01-.404-1.498-.408v2.355c1.227-.013 1.753-.354 1.753-1.18zM26.369 23v2.613H24V33h-3v-7.387h-2V23h7.369zM18.41 23v10h-3V23h3zM39 23v10h-3V23h3zM14.631 24.545l-1.511 2.434c-.425-.703-1.262-1.156-2.106-1.156-1.206 0-2.089.978-2.089 2.18 0 1.203.883 2.177 2.089 2.177.844 0 1.681-.453 2.106-1.156l1.511 2.439A5.003 5.003 0 0111.014 33C8.246 33 6 30.765 6 28.004a5.012 5.012 0 018.631-3.46z" fill="#fff"/><defs><linearGradient id="paint0_linear" x1="10.418" y1="9.712" x2="68.147" y2="76.017" gradientUnits="userSpaceOnUse"><stop stop-color="#1A1E21"/><stop offset="1" stop-color="#06060A"/></linearGradient><linearGradient id="paint1_linear" x1="10.418" y1="9.712" x2="68.147" y2="76.017" gradientUnits="userSpaceOnUse"><stop stop-color="#1A1E21"/><stop offset="1" stop-color="#06060A"/></linearGradient></defs></svg>