<!-- by TradingView --><svg width="56" height="56" fill="none" xmlns="http://www.w3.org/2000/svg"><path fill="#1E3930" d="M0 0h56v56H0z"/><circle cx="28" cy="28" r="28" fill="#1E3930"/><path d="M11.023 28l.28 3.317 19.985-2.4-19.424 4.587 2.593 3.382 17.74-7.262-15.355 8.96 4.486 2.296L33.95 29.907 25.185 42h7.083l4.208-14H11.023zM37 16v9.662L40 16h-3zM30.922 16.51l4.513 9.29-1.296-9.48-3.217.19zM33.67 25.977l-6.328-8.874-2.996.927 9.324 7.947zM20.6 19.554l11.597 6.867-14.652-5.146 3.054-1.721zM14.53 23.39l16.056 3.74-18.16-1.624 2.103-2.116z" fill="#fff"/></svg>