<!-- by TradingView --><svg width="56" height="56" fill="none" xmlns="http://www.w3.org/2000/svg"><path fill="url(#paint0_linear)" d="M0 0h56v56H0z"/><circle cx="28" cy="28" r="28" fill="url(#paint1_linear)"/><path d="M7.958 30.01c-.471.442-1.084.636-2.055.636h-.402v-5.29h.402c.97 0 1.56.18 2.055.646.52.481.832 1.226.832 1.992 0 .768-.312 1.535-.832 2.016zM6.204 24H4v8h2.193c1.166 0 2.007-.286 2.746-.924a4.078 4.078 0 001.398-3.07c0-2.361-1.698-4.006-4.133-4.006zM11.028 32h1.502v-8h-1.502v8zM16.2 27.11c-.9-.341-1.165-.567-1.165-.994 0-.498.471-.876 1.119-.876.45 0 .82.19 1.21.64l.786-1.056a3.318 3.318 0 00-2.262-.877c-1.362 0-2.4.971-2.4 2.265 0 1.089.483 1.646 1.893 2.167.588.213.887.355 1.038.45.3.202.45.486.45.818 0 .64-.496 1.115-1.165 1.115-.717 0-1.294-.367-1.64-1.054l-.97.959c.692 1.043 1.523 1.505 2.666 1.505 1.56 0 2.655-1.065 2.655-2.595 0-1.256-.506-1.825-2.214-2.466zM18.889 28.035c0 2.323 1.831 4.125 4.189 4.125.666 0 1.218-.13 1.922-.46v-1.816c-.619.617-1.149.866-1.85.866-1.56 0-2.666-1.126-2.666-2.726 0-1.518 1.141-2.715 2.593-2.715.739 0 1.28.263 1.923.89v-1.814c-.68-.344-1.22-.486-1.886-.486-2.345 0-4.225 1.838-4.225 4.136zM36.74 29.387L34.689 24h-1.64l3.266 8.184h.808L40.448 24H38.82l-2.08 5.387zM41 32h4.258v-1.354H42.5v-2.16H45v-1.355h-2.5v-1.776h2.758V24H41v8zM48.438 27.683H48V25.26h.462c.935 0 1.444.407 1.444 1.186 0 .804-.509 1.237-1.468 1.237zm3.013-1.321c0-1.498-.993-2.362-2.724-2.362H46.5v8H48v-3.214h.196L50.274 32h1.847l-2.424-3.37c1.131-.24 1.754-1.043 1.754-2.268z" fill="#fff"/><ellipse cx="29.418" cy="28" rx="4.193" ry="4.305" fill="url(#paint2_radial)"/><defs><linearGradient id="paint0_linear" x1="10.418" y1="9.712" x2="68.147" y2="76.017" gradientUnits="userSpaceOnUse"><stop stop-color="#1A1E21"/><stop offset="1" stop-color="#06060A"/></linearGradient><linearGradient id="paint1_linear" x1="10.418" y1="9.712" x2="68.147" y2="76.017" gradientUnits="userSpaceOnUse"><stop stop-color="#1A1E21"/><stop offset="1" stop-color="#06060A"/></linearGradient><radialGradient id="paint2_radial" cx="0" cy="0" r="1" gradientUnits="userSpaceOnUse" gradientTransform="matrix(-5.38912 -7.12336 6.94668 -5.25545 32.515 31.818)"><stop offset=".271" stop-color="#F59314"/><stop offset=".844" stop-color="#DA4120"/><stop offset="1" stop-color="#87261B"/></radialGradient></defs></svg>