<!-- by TradingView --><svg width="56" height="56" fill="none" xmlns="http://www.w3.org/2000/svg"><path fill="url(#paint0_linear)" d="M0 0h56v56H0z"/><circle cx="28" cy="28" r="28" fill="url(#paint1_linear)"/><path d="M8 17v4h2v16.996h6.342c6.97 0 12.1-2.665 12.1-10.48C28.441 18.968 23.894 17 15.695 17H8zm8 4h.398c3.66 0 5.744.996 5.744 6.126 0 4.07-.749 6.874-5.23 6.874H16V21z" fill="#FE0"/><path d="M37.687 17c-6.57 0-10.371 3.84-10.371 10.503 0 5.894 2.808 10.497 9.801 10.497 2.143 0 4.282-.575 5.639-1.413L43.472 38H47V27h-8v3h2v3.237a6.39 6.39 0 01-2.457.506c-3.288 0-4.872-2.234-4.872-6.453 0-3.83 1.476-6.038 3.682-6.038 1.738 0 2.569 1.056 3.02 2.992l6.212-.99C45.69 19.161 42.555 17 37.687 17z" fill="#FE0"/><defs><linearGradient id="paint0_linear" x1="10.418" y1="9.712" x2="68.147" y2="76.017" gradientUnits="userSpaceOnUse"><stop stop-color="#1A1E21"/><stop offset="1" stop-color="#06060A"/></linearGradient><linearGradient id="paint1_linear" x1="10.418" y1="9.712" x2="68.147" y2="76.017" gradientUnits="userSpaceOnUse"><stop stop-color="#1A1E21"/><stop offset="1" stop-color="#06060A"/></linearGradient></defs></svg>