<!-- by TradingView --><svg width="56" height="56" fill="none" xmlns="http://www.w3.org/2000/svg"><path fill="#29445A" d="M0 0h56v56H0z"/><circle cx="28" cy="28" r="28" fill="#29445A"/><path d="M6.843 25.318c.195.042.157.18.157.18v5.575c0 .609-1 .595-1 .595v-6.35h.843zM6.148 25h-2.27s-.196 0-.196.166c0 .152.095.166.318.166v6.35s-.36-.014-.36.138c0 .18.126.18.265.18h3.232S9 31.917 9 30.63V26.26S8.836 25.04 7.54 25H6.149zM10.759 28.864c.292 0 .53-.219.53-.491 0-.273-.238-.491-.53-.491-.293 0-.53.218-.53.49 0 .273.237.492.53.492zM18.195 28.864c.293 0 .53-.219.53-.491 0-.273-.237-.491-.53-.491-.292 0-.529.218-.529.49.014.273.25.492.53.492zM15.726 25.003c.362 0 .994.612 1.05 1.099v1.001c0 1.057-.91 1.308-.91 1.308.166.055.375.07.709.278.334.195.425.654.425.654v2.404h.34c.055 0 .169-.014.182.125.014.195-.252.128-.252.128h-1.808c-.223 0-.462-.204-.462-.337V28.94c0-.208-.333-.236-.333-.236H14v3.016h.216c.042 0 .215-.042.215.139.014.209-.173.142-.173.142h-2.543c-.07 0-.126-.03-.126-.142 0-.14.126-.14.126-.14H12v-6.423c-.248 0-.355.015-.355-.139 0-.153.125-.153.125-.153h3.956zm-1.254.292H14v3.032h.862s.138-.014.138-.278v-2.56s.014-.194-.193-.194h-.335zM35.59 25.003c.357 0 1.055.612 1.11 1.099.041.32 0 .723 0 1.001 0 1.057-.959 1.308-.959 1.308.165.055.535.07.863.278.395.25.396.654.396.654v2.35h.332c.055 0 .19-.013.204.126.013.195-.165.18-.165.18h-1.96c-.35 0-.411-.389-.411-.389v-2.67c0-.21-.384-.237-.384-.237H34v3.003h.22c.042 0 .204-.042.204.139 0 .19-.174.153-.174.153h-2.59c-.069 0-.123-.042-.123-.153 0-.098.123-.14.123-.14H32v-6.41h-.254s-.168 0-.168-.127c0-.165.123-.165.123-.165h3.89zm-1.232.292H34v3.032h.794s.206-.014.206-.278v-2.56s-.055-.194-.274-.194h-.368zM22.587 28.754h.324l.093.082v3.047c.013.109.093.122.093.122h2.168c.12 0 .173-.081.173-.122 0-.041-.013-.191-.226-.191H25v-6.388h.198c.174 0 .2-.082.2-.177 0-.123-.133-.123-.133-.123H23.07c-.066 0-.08.123-.08.123v2.96l-.093.095h-.794L22 28.086v-2.96s-.004-.122-.07-.122h-2.153s-.134.027-.134.123c0 .095.027.177.2.177H20v6.238s.03.15-.17.15-.227.15-.227.19c0 .042.054.123.173.123h2.127s.083-.013.097-.122c.013-.11 0-3.047 0-3.047l.09-.082h.497zM28.44 32.153c-1.167 0-1.512-.184-1.923-.595-.398-.412-.464-1.205-.49-1.546C26 29.686 26 29.46 26 28.297c0-.921.066-1.389.212-2.027.186-.836.517-.992.929-1.19.398-.199 1.34-.213 1.34-.213l.132-.014s.849.028 1.246.227c.412.198.743.368.929 1.19.146.638.212 1.106.212 2.027 0 1.163 0 1.375-.026 1.715-.027.326-.08 1.12-.491 1.546-.398.41-.716.595-1.884.595h-.159zm.08-.213c.517 0 .48-.397.48-.397v-5.91c0-.54-.294-.567-.454-.567h-.092c-.146 0-.454.028-.454.567v5.91s-.041.397.427.397h.093zM44.445 32.152c-1.167 0-1.512-.184-1.923-.595-.398-.411-.465-1.205-.491-1.545-.027-.326-.027-.553-.027-1.715 0-.922.067-1.39.213-2.027.185-.837.517-.993.928-1.191.398-.198 1.34-.213 1.34-.213h.132s.849.015 1.247.213c.41.198.742.369.928 1.19.146.639.212 1.106.212 2.028 0 1.162 0 1.375-.026 1.715-.027.326-.093 1.12-.49 1.545-.399.41-.717.595-1.897.595h-.146zm.093-.213c.495 0 .462-.396.462-.396v-5.911c0-.539-.29-.567-.436-.567h-.093c-.146 0-.471.028-.471.567v5.91s-.086.397.445.397h.093zM41.896 25s.097.083.097.153v.736s-.014.167-.153.167c-.14.013-.167-.056-.167-.195-.014-.153 0-.222 0-.222h-1.115s-.139-.014-.139.111v5.944h.192c.14 0 .184.056.184.153s-.086.153-.198.153h-2.32c-.11 0-.219-.056-.219-.153s.053-.153.192-.153h.17V25.75c0-.125-.139-.111-.139-.111h-.957v.222c-.014.153-.055.195-.168.195-.139-.014-.153-.167-.153-.167v-.736c0-.07.098-.153.098-.153h4.795zM50.358 32.004H52V25.32h.113c.21 0 .21-.122.21-.177 0-.054-.084-.136-.182-.136h-.868s-.176 0-.176.15c0 .122.107.177.176.177h.144c.014.15 0 4.115 0 4.115l-1.686-4.129h.168c.125 0 .195-.068.195-.177 0-.109-.07-.136-.126-.136h-2.563s-.139.03-.139.125.028.175.14.175h.208v6.382h-.167c-.209 0-.209.123-.209.177 0 .055.084.137.181.137h.872s.173 0 .173-.15c0-.123-.076-.178-.145-.178h-.175c-.014-.136 0-5.144 0-5.144l2.214 5.472zM52 23H4v1h48v-1z" fill="#fff"/></svg>