<!-- by TradingView --><svg width="56" height="56" fill="none" xmlns="http://www.w3.org/2000/svg"><path fill="#013C81" d="M0 0h56v56H0z"/><circle cx="28" cy="28" r="28" fill="#013C81"/><path d="M47.823 20.76c-1.39-4.828-10.586-6.22-20.547-3.08-.482.148-.936.296-1.39.474 8.91-2.162 16.658-.74 17.879 3.523 1.362 4.68-5.648 10.987-15.609 14.126-.227.06-.454.148-.681.207l4.626-16.76h-.029l-1.22.088c-2.27.237-4.71.74-7.18 1.51-9.933 3.11-16.886 9.566-15.495 14.392 1.39 4.828 10.585 6.22 20.575 3.08.483-.148.937-.296 1.39-.474-8.91 2.162-16.658.74-17.878-3.523-1.334-4.68 5.647-10.987 15.608-14.126.199-.06.426-.119.625-.178l-4.57 16.732 1.22-.09c2.271-.236 4.712-.74 7.18-1.51 9.934-3.109 16.887-9.565 15.496-14.392z" fill="#fff"/></svg>