<!-- by TradingView --><svg width="56" height="56" fill="none" xmlns="http://www.w3.org/2000/svg"><path fill="#EC1944" d="M0 0h56v56H0z"/><circle cx="28" cy="28" r="28" fill="#EC1944"/><path fill-rule="evenodd" clip-rule="evenodd" d="M30.322 26.599c0-.5.704-.864 1.783-.864 1.23 0 2.386.436 3.105 1.05a.28.28 0 00.426-.075l.878-1.746a.269.269 0 00-.072-.348c-1.085-.816-2.545-1.401-4.36-1.401-2.979 0-4.643 1.664-4.643 3.564 0 4.434 6.73 2.9 6.73 4.85 0 .533-.61.985-1.9.985-1.281 0-2.796-.506-3.676-1.204a.28.28 0 00-.413.073l-.997 1.668a.268.268 0 00.055.347c1.201 1.009 3.014 1.605 4.89 1.605 3.143 0 4.901-1.548 4.901-3.634-.001-4.47-6.707-3.089-6.707-4.87zM16.81 19.039h-2.619a.191.191 0 00-.19.19v5.53c-.878-.959-2.056-1.543-3.38-1.543-2.829 0-5.121 2.661-5.121 5.943 0 3.283 2.292 5.944 5.12 5.944 1.325 0 2.503-.584 3.38-1.543v1.07c0 .106.085.191.19.191h2.62a.191.191 0 00.191-.19V19.229a.19.19 0 00-.19-.19zM11.25 32.607c-1.52 0-2.752-1.544-2.752-3.45 0-1.904 1.232-3.448 2.752-3.448 1.513 0 2.74 1.53 2.75 3.423v.05c-.01 1.895-1.237 3.425-2.75 3.425zM45.347 23.234c-1.429 0-2.528.59-3.249 1.552v-5.592a.195.195 0 00-.197-.194h-2.704a.195.195 0 00-.197.194v15.612c0 .107.088.194.197.194h2.704c.108 0 .099-.086.099-.194V28.13c.002-1.511 1.2-2.354 2.527-2.354 1.329 0 2.473.802 2.473 2.772v6.258c0 .107.108.194.217.194h2.586a.195.195 0 00.197-.194v-6.443c0-3.543-2.07-5.129-4.653-5.129z" fill="#fff"/><path d="M20.348 20.288c0-.98.817-1.774 1.774-1.774a1.773 1.773 0 110 3.548 1.788 1.788 0 01-1.774-1.774zm5.17 11.651c-1.2.697-2.485.88-3.37.882-.886-.001-2.172-.185-3.37-.882-.197-.11-.301.083-.26.25.406 1.672 1.871 2.912 3.619 2.923h.021c1.748-.01 3.213-1.25 3.62-2.923.04-.168-.064-.36-.26-.25zm-.71-4.222c-.946.55-1.961.695-2.66.696-.7-.002-1.715-.146-2.66-.696-.156-.087-.239.064-.207.197.322 1.32 1.478 2.3 2.858 2.307h.017c1.38-.008 2.536-.987 2.857-2.307.033-.133-.05-.284-.205-.197zm-.755-3.6a3.877 3.877 0 01-1.905.499c-.5-.001-1.228-.105-1.906-.498-.111-.063-.17.046-.147.14.23.946 1.059 1.647 2.047 1.653h.012c.988-.006 1.816-.707 2.046-1.652.023-.095-.036-.203-.147-.141z" fill="#fff"/></svg>