<!-- by TradingView --><svg width="56" height="56" fill="none" xmlns="http://www.w3.org/2000/svg"><path fill="#006491" d="M0 0h56v56H0z"/><circle cx="28" cy="28" r="28" fill="#006491"/><path d="M22.294 22.299l9.747-9.704c.727-.724 1.552-.86 2.436 0l9.059 9.019c.648.646.589 1.624 0 2.21l-19.71 19.603c-.707.704-1.63.822-2.455 0l-8.862-8.823c-.708-.704-.649-1.82 0-2.465l9.785-9.84z" fill="#fff"/><path d="M22.451 23.296L32.65 33.45l-9.275 9.233c-.57.568-1.16.587-1.749 0l-8.489-8.45c-.53-.529-.49-1.116 0-1.605l9.314-9.332z" fill="#006491"/><path d="M33.298 32.843L23.1 22.69l9.274-9.234c.57-.567 1.16-.587 1.75 0l8.488 8.451c.53.529.491 1.116 0 1.605l-9.314 9.331z" fill="#E31837"/><path d="M33.5 25a2.5 2.5 0 100-5 2.5 2.5 0 000 5zM26.5 36a2.5 2.5 0 100-5 2.5 2.5 0 000 5zM18.515 36.008a2.51 2.51 0 002.515-2.504A2.51 2.51 0 0018.515 31 2.51 2.51 0 0016 33.504a2.51 2.51 0 002.515 2.504z" fill="#fff"/></svg>