<!-- by TradingView --><svg width="56" height="56" fill="none" xmlns="http://www.w3.org/2000/svg"><path fill="#FF1900" d="M0 0h56v56H0z"/><circle cx="28" cy="28" r="28" fill="#FF1900"/><path d="M21.636 12.019c.033.034.332.206.664.412 2.758 1.752 4.818 4.053 6.047 6.733.366.824.798 2.13.964 2.988.698 3.573-.83 7.73-4.452 12.195-1.13 1.409-2.858 3.126-4.32 4.363-2.292 1.89-5.549 3.916-8.24 5.118-.2.103-.299.138-.299.172.1 0 1.661-.515 2.625-.859 4.42-1.58 8.373-3.813 11.43-6.492.897-.79 2.26-2.233 2.924-3.092 1.694-2.164 2.691-4.294 3.123-6.63.166-.893.2-2.473.1-3.4-.565-4.294-3.555-7.97-8.506-10.547-.864-.446-2.326-1.099-2.06-.961z" fill="#fff"/><path d="M42.845 17.064c-3.084.272-6.236 1.02-8.88 2.072-.983.408-2.745 1.189-2.88 1.325-.069.034-.17.135-.306.17-.102.067-.271.135-.373.203-.101.068-.237.136-.305.17-.067.034-.44.272-.813.51-4.067 2.716-6 6.214-5.05 9.237.17.51.542 1.393.61 1.358.068-.034 1.05-1.562 1.39-2.105.27-.476.27-.476.27-1.019 0-.95.204-1.8.645-2.717 1.288-2.615 4.202-5.026 8.371-6.86 2.305-1.02 5.22-1.834 7.863-2.242.339-.068.61-.102.61-.102.034-.102-.237-.068-1.152 0zM29.728 34.487c-.237.271-.542.611-.711.815-.34.373-.373.34.44.68.712.305 1.593.61 2.407.848l.644.17.61-.645c.339-.374.61-.68.644-.713 0-.034-.305-.17-.678-.272-.848-.306-1.763-.713-2.373-1.053-.27-.136-.474-.272-.508-.272-.068-.034-.271.17-.475.442z" fill="#fff"/></svg>