<!-- by TradingView --><svg width="56" height="56" fill="none" xmlns="http://www.w3.org/2000/svg"><path fill="url(#paint0_linear)" d="M0 0h56v56H0z"/><circle cx="28" cy="28" r="28" fill="url(#paint1_linear)"/><path d="M32.78 40.656a5.03 5.03 0 01-2.894 1.453c-1.678.097-3.314-.896-3.809-4.504l-6.779-1.922c2.962 10.149 11.158 9.793 13.978 5.377.192-.29.133-.436 0-.508-.135-.073-.302-.073-.496.104zm0-26.642c-2.726-5.247-12.39-.064-14.068 13.483-.14.621.165 1.256.746 1.558a8.4 8.4 0 002.76.88c.741.167 1.505.229 2.265.186.682-.029 1.247-.52 1.342-1.171 1.443-14.532 4.892-17.826 6.494-14.702.184.363.655.17.453-.234h.008z" fill="#0070A6"/><path d="M31.111 18.6a1.781 1.781 0 00-1.736.735c-.4.693-.662 1.45-.773 2.236a7.803 7.803 0 00-.16 2.422c.131.432.54.731 1.008.735 3.087.185 12.147 1.429 13.423 3.964.84 1.744-1.678 2.188-3.54 2.648a1.481 1.481 0 00-1.217 1.17 3.268 3.268 0 00.504 2.617c.236.382.75.509 1.149.282l.11-.073c.959-.608 1.81-1.363 2.516-2.236 6.057-8.13-6.644-14.412-11.284-14.5z" fill="#54B948"/><path d="M34.224 31.913c-15.193 1.614-27.182-5.07-18.105-6.693 0 0 1.158-.258 1.376-.888.218-.63.285-.807.537-1.736.16-.573.302-.896.454-1.34.242-.686-.21-1.098-1.217-.621-8.297 3.899-5.872 11.181.898 14.83 4.433 2.494 9.662 3.336 14.698 2.365a2.999 2.999 0 002.005-1.34c.683-.986.98-2.173.839-3.35a1.173 1.173 0 00-.439-.95 1.276 1.276 0 00-1.046-.261v-.016z" fill="#26BCD7"/><defs><linearGradient id="paint0_linear" x1="10.418" y1="9.712" x2="68.147" y2="76.017" gradientUnits="userSpaceOnUse"><stop stop-color="#1A1E21"/><stop offset="1" stop-color="#06060A"/></linearGradient><linearGradient id="paint1_linear" x1="10.418" y1="9.712" x2="68.147" y2="76.017" gradientUnits="userSpaceOnUse"><stop stop-color="#1A1E21"/><stop offset="1" stop-color="#06060A"/></linearGradient></defs></svg>