<!-- by TradingView --><svg width="56" height="56" fill="none" xmlns="http://www.w3.org/2000/svg"><path fill="#F1471D" d="M0 0h56v56H0z"/><circle cx="28" cy="28" r="28" fill="#F1471D"/><path d="M8.37 32.498c-1.336 0-2.14-1.114-2.14-2.841 0-1.486.608-2.84 2.287-2.84 1.618 0 2.317 1.272 2.317 2.757 0 1.704-.626 2.924-2.464 2.924zM13 22H9.442v1.445H11v3.407h-.037c-.422-.899-1.667-1.54-3.034-1.54C5.6 25.313 4 26.876 4 29.74 4 32.035 5.232 34 7.83 34c1.453 0 2.472-.539 3.133-1.662H11V34h3.156v-1.669H13V22z" fill="#fff"/><path d="M16.184 29.265c0-1.145.882-1.935 2.187-1.935 1.392 0 2.115.753 2.145 1.935h-4.332zm6.327-.406C22.134 27.074 20.627 26 18.481 26c-2.72 0-4.528 1.52-4.528 3.935 0 2.512 1.649 4.065 4.565 4.065 1.9 0 3.745-.719 4.033-2.562h-2.047c-.297.752-1.007 1.179-2.05 1.22h-.064c-1.407-.057-2.206-.815-2.206-2.118h6.465c0-.546-.02-1.117-.138-1.681M32.766 26H28.37v1.403h1.368l-2.072 4.907-2.01-4.907h1.366V26h-4.583v1.403h.955L26.288 34h2.573l2.947-6.597h.958V26zM36.943 32.616c-1.674 0-2.323-1.297-2.323-2.616 0-1.319.65-2.615 2.323-2.615S39.24 28.68 39.24 30c0 1.319-.625 2.616-2.298 2.616zm0-6.616c-2.71 0-4.554 1.488-4.554 4s1.845 4 4.553 4c2.709 0 4.53-1.488 4.53-4s-1.821-4-4.53-4zM50.719 32.635v-3.648c0-1.93-.822-2.987-3.039-2.987-1.24 0-2.36.566-2.887 1.561h-.037V26h-3.267v1.366h1.282v5.269h-1.282V34h4.634v-1.365H45v-3.003c0-1.125.516-2.21 1.937-2.21 1.152 0 1.65.772 1.65 1.717v3.496h-1.22V34H52v-1.365h-1.281z" fill="#fff"/></svg>