<!-- by TradingView --><svg width="56" height="56" fill="none" xmlns="http://www.w3.org/2000/svg"><path fill="#0099D8" d="M0 0h56v56H0z"/><circle cx="28" cy="28" r="28" fill="#0099D8"/><path fill-rule="evenodd" clip-rule="evenodd" d="M9 28c0-7.732 6.268-14 14-14h19v4H23c-5.523 0-10 4.477-10 10s4.477 10 10 10h19v4H23c-7.732 0-14-6.268-14-14z" fill="#fff"/><path fill-rule="evenodd" clip-rule="evenodd" d="M15 28a8 8 0 018-8h19v4H23a4 4 0 000 8h19v4H23a8 8 0 01-8-8z" fill="#fff"/><path fill-rule="evenodd" clip-rule="evenodd" d="M21.478 28a2 2 0 012-2H42v4H23.478a2 2 0 01-2-2z" fill="#fff"/></svg>