<!-- by TradingView --><svg width="56" height="56" fill="none" xmlns="http://www.w3.org/2000/svg"><path fill="#FF0200" d="M0 0h56v56H0z"/><circle cx="28" cy="28" r="28" fill="#FF0200"/><path fill-rule="evenodd" clip-rule="evenodd" d="M11.69 25.611L12 24H5.574l-.851 4.431L4 32h6.607l.335-1.698H7.278l.335-1.727h3.097l.335-1.611H7.948l.258-1.353h3.484zM16.873 28.635h2.201c.078-.462.223-1.151.253-1.712.035-.657-.221-1.14-.784-1.457-.806-.45-1.994-.427-2.884-.46-1.22-.044-2.671.115-3.44 1.201-.396.56-.62 1.43-.707 2.108-.108.829-.523 2.22.226 2.9.557.507 1.803.676 2.527.666.737-.01 1.453-.06 2.178-.206L18.34 34h2.96l-4.427-5.365zm-.329.051c-.242 1.102-.571 2.028-1.846 2.018-1.28-.01-.855-1.391-.734-2.197.173-1.144.61-2.344 1.923-2.248 1.328.097.86 1.511.657 2.427zM28.684 25L28 28.486 27.316 32H29.9l1.394-7h-2.61zM37.63 26.389L37.936 25h-5.652l-1.368 7h2.61l.583-3.004h2.56l.101-.51.152-.794h-2.534l.253-1.303h2.99z" fill="#fff"/><path fill-rule="evenodd" clip-rule="evenodd" d="M20.372 25h2.636l-.989 4.745c-.12.58.388.882.825.922.561.052 1.065-.323 1.203-.95L25.086 25h2.61l-1.04 5.016c-.444 1.308-1.475 1.821-2.612 1.95C24 32 22.5 32 22 32l-2.414-3.123.786-3.877zM43.485 25h3.32l1.014 1.814L49.465 25H52l-3.32 3.259L50.86 32h-3.244l-1.065-2.126L44.727 32h-3.878l-.152-1.53h-2.686L37.073 32h-1.825l4.41-7h3.168l.608 5.668 2.104-2.154L43.485 25zm-4.612 4l1.419-2.413.253 2.413h-1.672z" fill="#fff"/></svg>