<!-- by TradingView --><svg width="56" height="56" fill="none" xmlns="http://www.w3.org/2000/svg"><path fill="#0D3469" d="M0 0h56v56H0z"/><circle cx="28" cy="28" r="28" fill="#0D3469"/><path d="M35 15.5h-4v.5h4v-.5zM23.037 18.235l-.097-.257c-.208-.425-.61-.823-1.025-.978-.793-.296-1.733-.116-2.343.476a1.958 1.958 0 00-.464 1.904c.344.793.989 1.175 1.637 1.56.592.35 1.187.703 1.56 1.372.183.398.183 1.324-.061 1.684-.452.605-1.196.772-1.904.579-.5-.116-.927-.656-1.098-1.132-.157.038-.315.09-.471.14l-.005.002c.142.422.39.796.72 1.08.635.527 1.623.618 2.38.322.659-.219 1.306-.9 1.39-1.634.171-1.41-.776-2.387-1.739-3-.555-.355-1.116-.713-1.47-1.23-.207-.348-.182-.901.05-1.235.341-.464.866-.63 1.415-.528.5.077.952.592 1.123 1.08l.402-.205zM14 17.628h3V17h-4v8h4v-.489h-3l.012-3.522 2-.002v-.476L14 20.5v-2.872zM27 17.628h2V17h-5v.628h2V25h1v-7.372zM13 36.511h-2v-7.473h-1v8h3v-.527z" fill="#fff"/><path fill-rule="evenodd" clip-rule="evenodd" d="M19.5 37h1.135l-3.008-8h-.378L14 37h.5l1.516-3.756h2.24L19.5 37zm-2.324-6.508l-.964 2.11h1.879l-.915-2.11z" fill="#fff"/><path d="M23.903 36.421c-.585-.373-.805-1.016-.891-1.685L22.988 29h-1L22 34.273c.012.785.207 1.48.707 2.045.733.862 2.133 1.004 3.146.656.89-.282 1.586-1.247 1.66-2.212V29h-.525L27 33.502c0 1.09-.024 2.174-.915 2.83-.537.411-1.608.45-2.182.09z" fill="#fff"/><path fill-rule="evenodd" clip-rule="evenodd" d="M34.662 32.782c.049-1.492-.769-2.946-2.087-3.486-.71-.344-1.565-.319-2.418-.294L29 29v7.974h1c.949.02 1.96.012 2.722-.437 1.22-.643 1.94-2.353 1.94-3.755zm-1.928 2.945c1.013-1.106 1.098-3.357.561-4.72-.586-1.377-1.928-1.58-3.295-1.478V36.5c1.037.026 2.014.011 2.734-.773zM46.148 31.894c.317-.579.293-1.466-.11-2.006-.718-.904-1.989-.873-3.105-.842h-.947L42 36.994 43 37l-.014-4.026H44l.037.026L46 37h1l-2.085-4.154-.012-.064c.476-.13.952-.4 1.245-.888zm-.793-.154c.207-.386.22-.965.024-1.377-.4-.832-1.56-.714-2.393-.71-.055 0 .055 0 0 0v2.895c.879.038 1.905.041 2.369-.808z" fill="#fff"/><path d="M32 17.628h3V17h-4v8h4v-.489h-3l.012-3.522h2v-.476L32 20.5v-2.872zM38 17.628h3V17h-4v8h4v-.489h-3l.012-3.522h2v-.476L38 20.5v-2.872zM37 29.601h3V29h-4v8h4v-.489h-3V33h2v-.476l-2.012-.013.012-2.91z" fill="#fff"/></svg>