<!-- by TradingView --><svg width="56" height="56" fill="none" xmlns="http://www.w3.org/2000/svg"><path fill="#ED1B2F" d="M0 0h56v56H0z"/><circle cx="28" cy="28" r="28" fill="#ED1B2F"/><path d="M45.558 25h3.39l1.09 4.229H50V25h2v6h-3.33l-1.15-4.35h-.018V31h-1.944v-6zm-5.404 6L41 28.726v-2.293h1v2.293L42.857 31H45.2l-2.105-6h-3.119l-2.07 6h2.248zM29.08 25h3.348l.77 3.284h.017l.76-3.284h3.339v6h-2.046v-4.71h-.034L34.077 31H32.19l-1.154-4.71h-.003l.004 4.71H29v-6h.08zm-.415 2h-1.947v4h-2.265v-4h-1.948v-2h6.16v2zm-6.591-.313a5.424 5.424 0 00-1.75-.29c-.355 0-.972.008-.972.382 0 .756 3.103.041 3.103 2.276C22.455 30.61 20.89 31 19.58 31c-.871 0-1.59-.083-2.435-.274V29.22c.609.25 1.353.383 2.029.383.533 0 1.014-.108 1.014-.399 0-.781-3.102-.075-3.102-2.327 0-1.595 1.69-1.878 3.035-1.878.634 0 1.335.075 1.952.2v1.487zM4 25h5v1.444H6v.85h3v1.445H6v.816h3V31H4v-6zm7.81 6l.824-2.274v-2.293h.988v2.293L14.514 31h2.343l-2.105-6h-3.119l-2.071 6h2.248z" fill="#fff"/></svg>