<!-- by TradingView --><svg width="56" height="56" fill="none" xmlns="http://www.w3.org/2000/svg"><path fill="#F1651F" d="M0 0h56v56H0z"/><path d="M25 19v4h3v1h-3v6.303c0 1.75.573 2.454 1.556 2.454.894 0 1.609-.576 1.832-.968L29 32.5c-.5 1-1.975 1.685-3.293 1.685C24.009 34.185 23 32.981 23 31v-7h-2v-1c2 0 3-1.5 3-4h1zm6 11h-1v3s1.986 1.14 3.706 1.14c2.324 0 4.178-1.153 4.178-3.387 0-3.917-5.63-3.794-5.63-6.42 0-1.083.96-1.498 1.943-1.498C35.5 22.835 36 23.777 36 26h1v-3.5s-1.752-.587-2.69-.587c-2.19 0-3.956.99-3.956 3.203 0 3.87 5.497 3.517 5.497 6.42 0 .968-.603 1.705-1.944 1.705C32.036 33.24 31 32 31 30zm9.275 7.687C39.06 37.687 39 37 39 35h-1v3c.5.5 1.247 1 2.275 1 1.52 0 3.374-.438 5.43-5.437l3.542-9.697c.29-.691.253-.866 1.253-.866h.5v-1h-4v1h.5c.5 0 .5.269.5.866 0 .253-.15.69-.15.69-.246.646-2.615 7.141-2.615 7.141-.983-2.534-2-7.089-2.235-7.92-.235-.831 1-.777 1.5-.777h.5v-1h-6v1h.5c.5 0 .743.251.9.777 1.1 3.723 3.003 9.21 3.562 10.708-1.207 2.51-2.637 3.202-3.687 3.202zM10 18.359c0-.23.022-.369.402-.369 0 0 2.598.01 5.098.01s2.5 4 2.5 4h1v-5H5v1s2-.194 2 1.271v12.38c0 1.336-2 1.336-2 1.336V34h14c.067-.83-.067-4.585 0-5h-1s0 4-3 4h-3.52c-1.118 0-1.48-.243-1.48-1.234V26h3.11c1.113.082 1.89.848 1.89 2h1v-5h-1c0 1.133-.673 1.871-1.89 2H10v-6.641z" fill="#fff"/></svg>