<!-- by TradingView --><svg width="56" height="56" fill="none" xmlns="http://www.w3.org/2000/svg"><circle cx="28" cy="28" r="28" fill="#827A71"/><path fill="#827A71" d="M0 0h56v56H0z"/><path d="M16 45v-2h2.398c.602 0 .602-.5.602-.62V13.594c-.002-.32-.373-.577-.688-.595H16V11h22l.839 9H37.57L37 16.885C36.521 14.644 34.447 13 32.077 13H24v13h4.775c1.395 0 2.403-1.496 2.725-3l.5-2h1v13h-1l-.66-2.98c-.358-1.715-1.234-3.02-3.044-3.02H24v13.5c0 .752.708 1.482 1.47 1.5h6.93c2.572-.121 4.6-1 5.434-4.5l.827-4.5H40l-.947 11H16z" fill="#fff"/></svg>