<!-- by TradingView --><svg width="56" height="56" fill="none" xmlns="http://www.w3.org/2000/svg"><path fill="#F0F3FA" d="M0 0h56v56H0z"/><circle cx="28" cy="28" r="28" fill="#F0F3FA"/><path d="M11.207 33.091c-.125.061-.22.114-.362.194 0 0-.538.762-1.135 1.71-.551.876-1.149 1.91-1.529 2.652L8 38c.998-.722 2.217-1.124 3.845-1.32 1.998-.24 4.326-.2 6.712-.098 2.094.09 4.324.229 6.561.34 3.788.19 8.69-1.737 11.34-4.361 0 0-.114.066-.15.089-4.931 2.85-9.394 2.229-13.392 1.501-3.014-.549-6.05-1.686-8.737-1.686-1.052 0-2.05.174-2.972.626z" fill="url(#paint0_linear)"/><path d="M11.261 33.065c3.272-1.56 7.484.327 11.655 1.086 3.998.727 8.461 1.35 13.391-1.501l.151-.09s-1.02.095-2.526.116c-1.508.02-4.619-.107-6.505-.267-3.97-.336-6.965-.561-9.363-.562-2.927 0-4.964.336-6.803 1.218zm-.054.026l.054-.026-.054.026z" fill="url(#paint1_linear)"/><path d="M44.153 19.32c-1.996.24-4.326.2-6.71.098-2.095-.09-4.325-.229-6.562-.34-3.788-.19-8.69 1.736-11.34 4.361l.15-.088c4.93-2.85 9.393-2.23 13.392-1.502 4.194.763 8.43 2.668 11.71 1.06.125-.061.219-.114.361-.194 0 0 .538-.762 1.136-1.71.55-.876 1.148-1.91 1.528-2.652.05-.1.181-.353.181-.353-.999.722-2.216 1.124-3.846 1.32z" fill="url(#paint2_linear)"/><path d="M19.692 23.351l-.15.088s1.018-.094 2.526-.113c1.507-.02 4.617.105 6.505.266 8.815.746 12.82.948 16.166-.656-3.273 1.56-7.485-.328-11.656-1.087-1.737-.316-3.562-.612-5.474-.612-2.49 0-5.129.501-7.917 2.114zm25.047-.415c.018-.01.035-.018.053-.026l-.053.026z" fill="url(#paint3_linear)"/><path d="M29.166 25.871c-4.079-.316-8.26-.633-12.036-.088a59.526 59.526 0 00-4.372 4.929c3.817-1.387 8.853-.984 14.054-.58 4.084.316 8.268.633 12.049.084.936-.876 3.69-4.005 4.365-4.926-3.82 1.389-8.858.985-14.06.581z" fill="url(#paint4_linear)"/><defs><linearGradient id="paint0_linear" x1="27.984" y1="41.035" x2="15.54" y2="28.591" gradientUnits="userSpaceOnUse"><stop stop-color="#AECA24"/><stop offset="1" stop-color="#168E44"/></linearGradient><linearGradient id="paint1_linear" x1="36.458" y1="33.305" x2="11.207" y2="33.305" gradientUnits="userSpaceOnUse"><stop stop-color="#AECA24"/><stop offset=".59" stop-color="#168E44"/><stop offset=".8" stop-color="#168E44"/><stop offset="1" stop-color="#168E44"/></linearGradient><linearGradient id="paint2_linear" x1="29.474" y1="16.424" x2="38.722" y2="25.671" gradientUnits="userSpaceOnUse"><stop stop-color="#3993D7"/><stop offset="1" stop-color="#27459C"/></linearGradient><linearGradient id="paint3_linear" x1="19.541" y1="22.695" x2="44.792" y2="22.695" gradientUnits="userSpaceOnUse"><stop stop-color="#3993D7"/><stop offset=".8" stop-color="#27459C"/><stop offset="1" stop-color="#27459C"/></linearGradient><linearGradient id="paint4_linear" x1="24.291" y1="24.3" x2="33.265" y2="33.273" gradientUnits="userSpaceOnUse"><stop stop-color="#F0431E"/><stop offset=".9" stop-color="#F78F1F"/><stop offset="1" stop-color="#F78F1F"/></linearGradient></defs></svg>