<!-- by TradingView --><svg width="56" height="56" fill="none" xmlns="http://www.w3.org/2000/svg"><path fill="#009" d="M0 0h56v56H0z"/><circle cx="28" cy="28" r="28" fill="#009"/><path d="M36.276 26.77c0-3.11-2.856-7.58-8.373-7.58-4.998 0-8.374 4.276-8.374 8.68 0 5.247 3.636 9.13 9.866 9.13H41.21c-2.791 4.34-7.659 7-13.242 7C19.14 44 12 36.81 12 28c0-8.81 7.14-16 15.967-16C36.795 12 44 19.19 44 28c0 1.749-.325 3.445-.779 5H25v-1.938l6.667-.193c3.18-.13 4.609-1.573 4.609-4.1z" fill="#fff"/></svg>