<!-- by TradingView --><svg width="56" height="56" fill="none" xmlns="http://www.w3.org/2000/svg"><path fill="url(#paint0_linear)" d="M0 0h56v56H0z"/><circle cx="28" cy="28" r="28" fill="url(#paint1_linear)"/><path d="M21.545 26l-.955 3.947h-1.05l.643-2.761h-.077l-1.728 2.54a.937.937 0 01-.438.248.91.91 0 01-.498-.018.534.534 0 01-.105-.301c-.167-.724-.325-1.449-.488-2.173-.025-.101-.061-.203-.122-.394l-.671 2.863h-.61L16.259 26h1.383l.642 2.918L20.244 26h1.301z" fill="url(#paint2_linear)"/><path d="M38.599 26a.63.63 0 01.248.136c.073.064.13.143.17.233a.69.69 0 01-.012.571c-.102.352-.228.695-.378 1.152.333.784-.334 1.872-1.301 1.876h-2.883c-.024 0-.049 0 0 0L35.187 26H38.6zm-1.062 2.215h-1.476a.297.297 0 00-.125.067.314.314 0 00-.082.12c-.09.308-.15.626-.232.995h.76c1.05 0 1.05 0 1.22-1.068-.016-.004-.028-.017-.065-.114zm-1.289-1.605l-.235 1.063h1.536a.308.308 0 00.136-.064.324.324 0 00.092-.123c.085-.275.134-.563.203-.872l-1.732-.004z" fill="url(#paint3_linear)"/><path d="M8.306 26c.512.254.549.335.407.953-.15.699-.297 1.393-.468 2.088-.17.694-.427.923-1.13.927L4 29.977v-.085c.093-.13.168-.272.224-.423.138-.568.256-1.14.366-1.695.11-.554.203-1.185.305-1.774h3.411zm-2.354.606l-.63 2.799H6.89c.093 0 .232-.17.26-.288.143-.555.256-1.118.378-1.694.057-.263.11-.53.171-.817H5.952z" fill="url(#paint4_linear)"/><path d="M34.215 26c.496.263.537.335.407.927a89.9 89.9 0 01-.496 2.22.92.92 0 01-.297.593.848.848 0 01-.606.22c-1.081.025-2.159 0-3.228 0 .264-1.16.528-2.308.76-3.456.03-.166.046-.335.049-.504h3.411zm-2.997 3.388h1.476c.248 0 .334-.106.379-.33.097-.483.211-.957.313-1.44.073-.335.138-.674.211-1.034H31.85l-.63 2.804z" fill="url(#paint5_linear)"/><path d="M25.359 26c.439.186.488.538.406.961-.162.712-.313 1.423-.48 2.118-.03.258-.155.494-.348.66a.95.95 0 01-.688.23h-2.314c-.528 0-.732-.276-.626-.822.154-.784.333-1.563.504-2.347.052-.198.155-.378.298-.52.144-.14.322-.238.515-.28h2.733zm-.635.614h-1.797l-.622 2.791h1.602a.328.328 0 00.145-.073.347.347 0 00.095-.134c.203-.856.382-1.703.578-2.584z" fill="url(#paint6_linear)"/><path d="M30.478 26l-.898 3.579-.09.36a.393.393 0 01-.09.025c-1.093.038-1.097.042-1.593-.974-.31-.635-.614-1.27-.972-2.012l-.663 2.965h-.601L26.335 26h1.301l1.411 2.922h.118l.5-2.922h.813z" fill="url(#paint7_linear)"/><path d="M52 26l-1.83 1.368 1.057 2.58h-1.252l-.724-1.797c-.817.305-1.012 1-1.012 1.796h-1.15c.239-1.08.487-2.16.719-3.244.033-.233.05-.468.049-.703h1.3l-.512 1.758.114.072L50.943 26H52z" fill="url(#paint8_linear)"/><path d="M47.613 26l-.025.593h-1.984c-.106 0-.285.093-.305.174a65.626 65.626 0 00-.59 2.596h2.265l-.223.593h-2.505c-.496 0-.671-.314-.561-.847.15-.7.321-1.394.455-2.118.028-.24.128-.464.285-.642a1.1 1.1 0 01.59-.349h2.598z" fill="url(#paint9_linear)"/><path d="M10.742 26c-.155.487-.318.97-.456 1.47-.203.813-.366 1.634-.553 2.481H8.627c.252-1.135.513-2.278.752-3.422a2.157 2.157 0 000-.529h1.363z" fill="url(#paint10_linear)"/><path d="M14.979 29.94h-.862c-.314-.924-.5-1.906-1.045-2.83-.269.348-.5.62-.7.916-.33.463-.635.946-.915 1.444a.782.782 0 01-.35.408.733.733 0 01-.52.075 2.935 2.935 0 00-.406 0c.175-.28.309-.5.447-.716.602-.932 1.22-1.86 1.81-2.8a.64.64 0 01.302-.32.603.603 0 01.43-.04c.229.085.42.258.532.483.443 1.101.842 2.215 1.277 3.38z" fill="url(#paint11_linear)"/><path d="M41.453 27.106c-.285.386-.525.686-.74 1.004a38.61 38.61 0 00-.79 1.224c-.43.686-.426.69-1.304.576.03-.073.063-.144.101-.212.708-1.097 1.423-2.19 2.123-3.29a.715.715 0 01.308-.29.679.679 0 01.411-.058c.129.012.25.066.348.153a.648.648 0 01.197.334c.407 1.11.814 2.22 1.22 3.312-.057.047-.077.076-.097.076-.683.047-.683.047-.911-.63-.18-.585-.387-1.148-.586-1.695a3.865 3.865 0 00-.28-.504z" fill="url(#paint12_linear)"/><path d="M12.768 29.823c-.138-.334-.273-.611-.384-.913a.406.406 0 01.03-.285c.172-.294.364-.572.566-.885.047.1.081.165.108.23.418 1.009.418 1.009-.32 1.853z" fill="url(#paint13_linear)"/><path d="M41.39 27.74c.152.395.284.692.397 1.016a.428.428 0 01-.036.3c-.167.253-.354.486-.563.767-.136-.328-.264-.62-.374-.925a.398.398 0 01.023-.273c.158-.284.348-.557.554-.885z" fill="url(#paint14_linear)"/><defs><linearGradient id="paint0_linear" x1="10.418" y1="9.712" x2="68.147" y2="76.017" gradientUnits="userSpaceOnUse"><stop stop-color="#1A1E21"/><stop offset="1" stop-color="#06060A"/></linearGradient><linearGradient id="paint1_linear" x1="10.418" y1="9.712" x2="68.147" y2="76.017" gradientUnits="userSpaceOnUse"><stop stop-color="#1A1E21"/><stop offset="1" stop-color="#06060A"/></linearGradient><linearGradient id="paint2_linear" x1="18.496" y1="26" x2="18.496" y2="30" gradientUnits="userSpaceOnUse"><stop stop-color="#fff"/><stop offset="1" stop-color="#C7C7C7"/></linearGradient><linearGradient id="paint3_linear" x1="36.744" y1="26" x2="36.744" y2="29.968" gradientUnits="userSpaceOnUse"><stop stop-color="#fff"/><stop offset="1" stop-color="#C7C7C7"/></linearGradient><linearGradient id="paint4_linear" x1="6.392" y1="26" x2="6.392" y2="29.977" gradientUnits="userSpaceOnUse"><stop stop-color="#fff"/><stop offset="1" stop-color="#C7C7C7"/></linearGradient><linearGradient id="paint5_linear" x1="32.34" y1="26" x2="32.34" y2="29.971" gradientUnits="userSpaceOnUse"><stop stop-color="#fff"/><stop offset="1" stop-color="#C7C7C7"/></linearGradient><linearGradient id="paint6_linear" x1="23.54" y1="26" x2="23.54" y2="29.971" gradientUnits="userSpaceOnUse"><stop stop-color="#fff"/><stop offset="1" stop-color="#C7C7C7"/></linearGradient><linearGradient id="paint7_linear" x1="28.024" y1="26" x2="28.024" y2="29.976" gradientUnits="userSpaceOnUse"><stop stop-color="#fff"/><stop offset="1" stop-color="#C7C7C7"/></linearGradient><linearGradient id="paint8_linear" x1="49.544" y1="26" x2="49.544" y2="29.947" gradientUnits="userSpaceOnUse"><stop stop-color="#fff"/><stop offset="1" stop-color="#C7C7C7"/></linearGradient><linearGradient id="paint9_linear" x1="45.633" y1="26" x2="45.633" y2="29.956" gradientUnits="userSpaceOnUse"><stop stop-color="#fff"/><stop offset="1" stop-color="#C7C7C7"/></linearGradient><linearGradient id="paint10_linear" x1="9.684" y1="26" x2="9.684" y2="29.951" gradientUnits="userSpaceOnUse"><stop stop-color="#fff"/><stop offset="1" stop-color="#C7C7C7"/></linearGradient><linearGradient id="paint11_linear" x1="12.58" y1="26.055" x2="12.58" y2="29.971" gradientUnits="userSpaceOnUse"><stop stop-color="#fff"/><stop offset="1" stop-color="#C7C7C7"/></linearGradient><linearGradient id="paint12_linear" x1="40.973" y1="26.05" x2="40.973" y2="29.966" gradientUnits="userSpaceOnUse"><stop stop-color="#fff"/><stop offset="1" stop-color="#C7C7C7"/></linearGradient><linearGradient id="paint13_linear" x1="12.87" y1="27.74" x2="12.87" y2="29.823" gradientUnits="userSpaceOnUse"><stop stop-color="#fff"/><stop offset="1" stop-color="#C7C7C7"/></linearGradient><linearGradient id="paint14_linear" x1="41.3" y1="27.74" x2="41.3" y2="29.823" gradientUnits="userSpaceOnUse"><stop stop-color="#fff"/><stop offset="1" stop-color="#C7C7C7"/></linearGradient></defs></svg>