<!-- by TradingView --><svg width="56" height="56" fill="none" xmlns="http://www.w3.org/2000/svg"><path fill="#461B87" d="M0 0h56v56H0z"/><circle cx="28" cy="28" r="28" fill="#461B87"/><path d="M40 35l3.922-4.5L40 26h4l2.081 2.186L48 26h3.946l-3.904 4.482L52 35h-4l-2.08-2.204L44.011 35H40zM40 23h-5v3h5v3h-5v3h5v3h-8V20h8v3z" fill="#EE6F2D"/><path fill-rule="evenodd" clip-rule="evenodd" d="M29 25.924V20h3v15h-3v-1.462c-.61.918-1.983 1.462-3.072 1.462-2.526 0-4.366-2.068-4.652-4.467h-6.61c0 1.069.878 1.97 1.896 1.97.707 0 1.098-.122 1.438-.503h3.319c-.88 1.914-2.445 3-4.757 3-2.9 0-5.172-2.16-5.172-5.18 0-.224.017-.52.046-.82H7v6H4V20h8.036v3H7v3h5.036v1.183c.847-1.526 2.47-2.463 4.526-2.463 2.53 0 4.238 1.352 4.9 3.559.58-2.003 2.233-3.517 4.428-3.517 1.072 0 2.37.3 3.11 1.162zm-12.438.99c-.877 0-1.58.6-1.79 1.52h3.597c-.175-.938-.842-1.52-1.807-1.52zm7.943 2.706c0 1.216.764 2.38 1.995 2.38 1.346 0 1.929-1.148 1.929-2.38 0-1.299-.55-2.548-1.929-2.548-1.33 0-1.995 1.25-1.995 2.549z" fill="#fff"/></svg>