<!-- by TradingView --><svg width="56" height="56" fill="none" xmlns="http://www.w3.org/2000/svg"><path fill="url(#paint0_linear)" d="M0 0h56v56H0z"/><circle cx="28" cy="28" r="28" fill="url(#paint1_linear)"/><path d="M2.035 31.485c12.932-1.076 36.666-2.095 44.565 1.458l-.248 1.364c-8.447-4.62-42.55-2.912-44.317-2.823z" fill="#fff"/><path fill-rule="evenodd" clip-rule="evenodd" d="M10.064 29.998h1.297l.72-5h-1.297l-.72 5zM11.818 30h1.297l.349-2.406c.156-1.094 1.01-1.482 1.891-1.482l.177-1.233c-.755 0-1.384.238-1.775.815h-.021l.1-.696h-1.298L11.818 30z" fill="#fff"/><path fill-rule="evenodd" clip-rule="evenodd" d="M19.913 25.697c-.212-.298-.805-.915-2.091-.915-1.329 0-2.453.498-2.615 1.631-.273 1.91 3.156 1.204 3.033 2.06-.038.268-.509.586-1.126.586-.69 0-1.223-.219-1.462-.627l-1.08.706c.407.508 1.21.915 2.475.915 1.233 0 2.47-.547 2.643-1.76.272-1.9-3.226-1.154-3.1-2.029.042-.298.453-.497 1.058-.487.765 0 1.135.388 1.247.716l1.018-.796zM19.761 28.71c-.11.814.188 1.29 1.251 1.29.404 0 .732-.063 1.049-.127l.142-1.056c-.194.02-.402.063-.583.063-.5 0-.553-.233-.496-.655l.364-2.705h1.159l.125-.93h-1.159l.214-1.59H20.53l-.769 5.71zM4.706 30h1.428l.444-3.036h3.615l.168-1.158H6.746l.23-1.59h3.934L11.086 23H5.728l-1.022 7zM22.41 30h5.634l.177-1.22h-4.21l.261-1.808h3.615l.168-1.16H24.44l.23-1.593h3.934L28.781 23h-5.358l-1.013 7zM28.332 30h1.298l.38-2.625c.132-.925.71-1.323 1.337-1.323.67 0 .829.448.763.905L31.67 30h1.297l.493-3.41c.158-1.105-.33-1.711-1.605-1.711-.521 0-1.11.179-1.555.616h-.022l.072-.497h-1.298L28.332 30zM34.995 26.993c.215-.537.615-1.12 1.535-1.12 1.014 0 1.119.851 1.08 1.12h-2.615zm3.842.838c.257-1.8-.368-3.049-2.165-3.049-1.743 0-2.915 1.134-3.13 2.636-.215 1.502.633 2.635 2.376 2.635 1.467 0 2.337-.656 2.824-1.233l-1.01-.596c-.152.168-.634.715-1.654.715-.702 0-1.302-.361-1.217-1.108h3.976zM38.79 30h1.297l.349-2.406c.156-1.094 1.01-1.482 1.892-1.482l.176-1.233c-.755 0-1.384.238-1.775.815h-.021l.1-.696H39.51L38.79 30z" fill="#fff"/><path fill-rule="evenodd" clip-rule="evenodd" d="M45.659 27.325c-.087.537-.489 1.333-1.467 1.333-.977 0-1.15-.796-1.085-1.333.088-.537.489-1.332 1.467-1.332.978 0 1.151.795 1.085 1.332zm1.587-2.327H45.95l-.07.487h-.02c-.268-.358-.647-.606-1.424-.606-1.339 0-2.472.934-2.688 2.446-.216 1.512.649 2.447 1.989 2.447.467 0 1.136-.14 1.61-.557l-.077.537c-.088.617-.528 1.015-1.368 1.015-.648 0-.97-.419-1.016-.767h-1.36c-.09.627.265 1.701 1.966 1.701 1.638 0 2.846-.348 3.05-1.78l.705-4.923z" fill="#fff"/><path fill-rule="evenodd" clip-rule="evenodd" d="M52 24.998h-1.34l-1.533 3.66h-.021l-.636-3.66h-1.392l1.196 5.162c-.205.318-.37.427-.784.427l-.511.006-.158 1.103.776.005c.935 0 1.424-.298 1.854-1.223l2.55-5.48z" fill="#fff"/><defs><linearGradient id="paint0_linear" x1="10.418" y1="9.712" x2="68.147" y2="76.017" gradientUnits="userSpaceOnUse"><stop stop-color="#1A1E21"/><stop offset="1" stop-color="#06060A"/></linearGradient><linearGradient id="paint1_linear" x1="10.418" y1="9.712" x2="68.147" y2="76.017" gradientUnits="userSpaceOnUse"><stop stop-color="#1A1E21"/><stop offset="1" stop-color="#06060A"/></linearGradient></defs></svg>