<!-- by TradingView --><svg width="56" height="56" fill="none" xmlns="http://www.w3.org/2000/svg"><path fill="#E21D38" d="M0 0h56v56H0z"/><circle cx="28" cy="28" r="28" fill="#E21D38"/><path fill-rule="evenodd" clip-rule="evenodd" d="M44 28c0 8.837-7.163 16-16 16-4.67 0-8.873-2-11.798-5.192 2.733.506 5.967.858 9.645.934V38.66c-2.162-.14-3.168-.432-3.318-.864-.285-.818-.6-8.372-.529-11.796h3.8c.294-.133.646-.26.997-.388.42-.153.837-.305 1.155-.464V24H22s.096-3.21.172-4.583c.075-.94.94-1.589 1.513-1.589 1.006-.075 1.946.358 2.886.79.254.108.505.235.757.362.251.127.503.254.757.362.216.075.507.141.723-.075l.157-.193c.236-.293.47-.582.708-.813.141-.216.076-.357 0-.433-.44-.345-.847-.655-1.266-.975l-.604-.463c-.358-.291-1.006-.291-1.59-.291-.157-.05-.306-.034-.452-.017a1.885 1.885 0 01-.215.017c-.573 0-1.372.14-2.67.432-2.81.79-6.27 2.736-6.636 5.979-.075.508-.24 1.807-.24 1.807-.434.042-.833.093-1.225.143-.32.04-.636.08-.962.115-.04.347-.059.673-.078 1-.016.284-.032.569-.063.87.394-.04.812-.06 1.24-.078.358-.016.724-.033 1.088-.063-.019 2.888.143 6.638.253 9.19.029.667.054 1.252.071 1.719-.075.291-.353.436-1.077.436l.83 1.021A15.94 15.94 0 0112 28c0-8.837 7.163-16 16-16 5.091 0 9.627 2.378 12.557 6.084-.51-.067-1.012-.157-1.519-.247a27.964 27.964 0 00-1.938-.3 58.47 58.47 0 00-5.265-.432c-1.24 3.459-2.688 7.859-4.202 12.474 7.86.649 10.886 2.811 10.745 5.763-.14 1.589-1.654 3.102-3.6 3.243-2.303.141-3.384-.79-4.033-1.805-.34-.557-.706-1.11-1.083-1.681-.26-.392-.523-.791-.788-1.205-.136-.282-.414-.088-.627.06l-.021.015c-.342.291-.65.616-.946.93-.144.152-.285.301-.427.443-.291.291-.216.508-.14.724l.129.302c.39.906.778 1.812 1.167 2.65.724.432 3.968 1.005 6.346.79 1.654-.142 3.676-.79 5.405-2.022 1.655-1.297 2.886-3.027 3.102-5.838.076-1.73-.216-3.534-1.73-5.189-1.513-1.654-4.107-3.027-9.372-3.384.132-.391.248-.767.363-1.135.138-.446.272-.881.427-1.319 3.168.141 5.979.358 8.367.649.103-.448.174-.88.243-1.302.06-.365.12-.723.197-1.08A15.925 15.925 0 0144 28z" fill="#fff"/></svg>