<!-- by TradingView --><svg width="56" height="56" fill="none" xmlns="http://www.w3.org/2000/svg"><circle cx="28" cy="28" r="28" fill="#7AB726"/><path fill="#7AB726" d="M0 0h56v56H0z"/><path d="M50 24c0-.556-.384-1-.907-1H37.612C35.62 23 34 24.38 34 26.5s1.62 3.5 3.612 3.5h8.775C47.446 30 48 31.118 48 32.026c0 .909-.76 1.96-1.613 1.96h-11.44c-.523 0-.947.452-.947 1.007 0 .557.424 1.007.946 1.007h11.44C48.38 36 50 34.146 50 32.026S48.379 28 46.387 28h-8.775C36.759 28 36 27.408 36 26.5s.76-1.484 1.612-1.484h11.481c.523 0 .907-.46.907-1.016zM29.667 19.253a1.404 1.404 0 10-2.809 0 1.404 1.404 0 002.809 0zM23.788 20.657a1.404 1.404 0 110-2.807 1.404 1.404 0 010 2.807zM19.313 20.657a1.403 1.403 0 11-.002-2.807 1.403 1.403 0 01.002 2.807zM14.838 20.657a1.404 1.404 0 110-2.808 1.404 1.404 0 010 2.808zM10.364 20.657a1.404 1.404 0 11-.002-2.808 1.404 1.404 0 01.002 2.808zM22.027 23c-3.207 0-6.418.003-9.626 0C8.61 23 6 25.593 6 29.517v5.487c0 .605.415 1.096 1 1.096.586 0 1-.491 1-1.096v-5.487C8 26.797 9.752 25 12.4 25h9.627a.985.985 0 00.971-1c0-.555-.435-1-.97-1z" fill="#fff"/><path d="M10 30.001c0 .534.415.999.948.999h9.11c.534 0 .942-.465.942-.999 0-.533-.408-1.001-.942-1.001h-9.11c-.533 0-.948.468-.948 1.001zM27 24.083v10.833c0 .598.448 1.084 1 1.084s1-.486 1-1.084V24.083c0-.599-.448-1.083-1-1.083s-1 .484-1 1.083z" fill="#fff"/></svg>