<!-- by TradingView --><svg width="56" height="56" fill="none" xmlns="http://www.w3.org/2000/svg"><circle cx="28" cy="28" r="28" fill="#F60"/><path fill="#F60" d="M0 0h56v56H0z"/><path d="M50 33h-2v2h2v-2zM41.985 22.033l2.294 10.62 2.111-10.62h2.166l-2.852 12.95h-2.748L40 22.034h1.986zM10 22H8v2h2v11h2V24h2v-2h-2v-3c0-.384.08-.802.3-1.003.22-.2.556-.37 1.013-.37H14V16h-1.149c-1.129 0-1.628.263-2.145.68-.517.416-.706 1.061-.706 1.982V22zM15 35h2V22h-2v13zM28 29h5v-3.929c-.005-2.392-1.214-3.342-3.503-3.342-2.38 0-3.497.948-3.497 3.358v6.57c.007 2.193 1.402 3.527 3.496 3.527 2.093 0 3.499-1.134 3.504-3.526V31h-2v.85c0 .878-.578 1.485-1.504 1.485-.928 0-1.496-.612-1.496-1.486V29zm0-4.146c0-.732.437-1.49 1.497-1.49 1.059 0 1.503.746 1.503 1.489v2.152h-3v-2.151zM22.501 27.616c-1.818-1.42-2.245-1.626-2.245-2.685 0-.902.504-1.45 1.405-1.45.9 0 1.339.541 1.339 1.46V26h2v-1.815c-.008-1.535-1.464-2.49-3.524-2.49-2.027 0-3.464.783-3.476 3.236-.002.417.001.417 0 .256.004.771.124 1.994 2.242 3.63l.607.467c1.562 1.185 1.943 1.328 1.936 2.737 0 .869-.412 1.516-1.425 1.516-1.012 0-1.36-.652-1.36-1.062V31h-2v1.528c0 2.108 1.524 2.767 3.498 2.767 1.976 0 3.502-.665 3.502-3.376v-.226c-.005-1.894-.386-2.403-2.499-4.077zM36 23.353v-1.32h-2.001V34.99H36v-9.041c0-.699.769-1.394 1.237-1.665.442-.259 1.069-.397 1.763-.405v-2.011c-1.329.024-2.326.245-3 1.437v.048z" fill="#fff"/></svg>