<!-- by TradingView --><svg width="56" height="56" fill="none" xmlns="http://www.w3.org/2000/svg"><path fill="#1C4094" d="M0 0h56v56H0z"/><circle cx="28" cy="28" r="28" fill="#1C4094"/><path fill-rule="evenodd" clip-rule="evenodd" d="M24 15v6H12v-6h12zm1.128 12.834c-.634-2.08-2.615-3.454-4.763-3.834h-8.094c3.453 1.172 4.256 4.1 4.256 4.1.834 4.103-3.899 4.904-3.899 4.904h8.81c2.49-.326 4.49-2.542 3.69-5.17zm14.998 4.318c2.155-.396 4.522-2.34 3.69-4.805-.573-1.88-2.504-3.33-4.524-3.347h-7.498c3.213 1.056 3.808 3.582 3.808 3.582s1.192 3.633-3.69 4.57c1.692.421 3.236 2.112 3.69 3.752.833 3.752-3.69 5.096-3.69 5.096h7.26c2.262 0 5.313-2.646 4.763-5.096-.238-1.29-.952-1.992-1.43-2.461-.832-.704-2.38-1.291-2.38-1.291zM25.722 41l7.143-25.997h-1.667L24.175 41h1.547z" fill="#fff"/></svg>