<!-- by TradingView --><svg width="56" height="56" fill="none" xmlns="http://www.w3.org/2000/svg"><path fill="red" d="M0 0h56v56H0z"/><circle cx="28" cy="28" r="28" fill="red"/><path d="M42.078 41c1.995-.686 3.547-3.011 3.92-5.936V34H36v7h6.078zm3.921-19v-.98c-.392-3.051-2.06-5.455-4.186-6.02H36v7h10zM10 34v1.057c.37 2.927 1.923 5.257 3.923 5.943H20v-7H10zm4.185-19c-2.123.566-3.796 2.971-4.184 6.026V22H20v-7h-5.815zM46 25H36v6h10v-6zM22.982 41L33 41.011v-6.999L22.982 34v7zm10.005-26H23v7h9.987v-7zM10 31h10v-6H10v6z" fill="#fff"/></svg>