<!-- by TradingView --><svg width="56" height="56" fill="none" xmlns="http://www.w3.org/2000/svg"><path fill="#3B73B9" d="M0 0h56v56H0z"/><circle cx="28" cy="28" r="28" fill="#3B73B9"/><path fill-rule="evenodd" clip-rule="evenodd" d="M42.084 35.6A15.93 15.93 0 0044 28C44 19.209 36.837 12 28.001 12 19.163 12 12 19.16 12 28.001 12 36.839 19.163 44 28.001 44c2.75 0 5.338-.694 7.598-1.916a16.531 16.531 0 006.486-6.485zM31.917 23.7c0-1.91 1.292-3.762 1.998-3.413.804.403-.603 2.202-1.998 3.413zm-8.79.695c0-1.535 1.515-4.452 2.44-4.143 1.094.364-.906 3.306-2.44 4.143zm-2.699 9.823c0 .743.41 1.413 1.107 1.381 2.39-.107 3.388-3.523 3.76-6.313-2.094 1.025-4.867 2.934-4.867 4.932zm11.164-2.795c0-1.395 1.208-2.558 2.79-2.558 2.047 0 3.117 1.766 3.118 3.671 0 2.094-1.87 4.505-4.52 4.505-3.212 0-4.783-2.923-4.783-5.341 0-3.395 2.326-4.838 3.302-5.35-.185-.14-.325-.325-.464-.557-1.117.792-2.132 1.49-4.269 2.701-.095 1.49-.244 3.115-.615 4.23-.847 2.598-2.477 4.318-4.615 4.318-1.814 0-2.64-1.526-2.64-2.923 0-1.022.604-2.323 1.671-3.302 1.264-1.133 2.651-1.857 4.506-2.825l.38-.2c.048-.277.093-.557.138-.882-.512.464-1.255.65-1.861.65-.976 0-1.766-.837-1.952-1.722-1.302-.091-2.278-1.024-2.326-2.512 0-1.07.42-2 1.115-2 .28 0 .374.231.374.418 0 .066-.03.186-.068.34-.068.278-.164.666-.164 1.055 0 .605.277 1.395 1.024 1.395 0-2.416 1.765-5.534 3.858-5.534C26.986 19 27 20.025 27 20.489c0 2.186-2.014 4.605-3.782 5.21.047.187.234.7.791.7.7 0 1.537-.652 1.956-1.166.186-.977.883-2.374 1.811-2.374.376 0 .56.28.56.606 0 .698-.765 1.605-1.322 2.21-.137.68-.18 1.206-.18 1.41 1.626-.977 2.526-1.528 3.737-2.41-.096-.326-.096-.7-.096-1.07 0-2.186 1.442-4.605 3.35-4.605 1.07 0 1.628.744 1.628 1.581 0 1.582-1.348 2.976-3.256 4.42.14.37.364.691.688.856 0 0 .623-.223 1.24-.198.556.02 1.324.22 1.363.736.08 1.134-2.398.733-2.581.703-.007 0-.01-.002-.01-.002-1.025.278-2.897 1.44-2.897 4.42 0 2 1.117 4.083 3.072 4.083 1.486 0 2.81-1.42 2.855-3.143 0-1.115-.521-2.196-1.637-2.196-.558 0-1.12.4-1.16.995-.034.505.202.774.416 1.018.17.194.326.372.326.64 0 .416-.325.603-.654.603-.927 0-1.626-.93-1.626-2.093zm10.551 1.383c.053.017.08-.002.086-.017.008-.017.773-2.072.746-4.788-.05-5.304-2.697-10.793-8.513-12.56-1.208-.374-2.233-.604-3.393-.604-1.604 0-2.288.543-2.842.982-.378.3-.697.552-1.206.552-.696 0-1.163-.512-1.163-1.115 0-1.071 1.257-1.909 3.257-1.906 1.95 0 3.298.49 3.542.58l.04.013c.013.003.042-.002.062-.047.014-.038 0-.07-.014-.082-.084-.066-2.259-.81-4.745-.791-5.35.041-10.792 2.745-12.56 8.513-.371 1.208-.606 2.232-.606 3.395 0 1.604.543 2.303.983 2.871.3.388.553.714.553 1.224a1.1 1.1 0 01-1.115 1.116c-1.07 0-1.907-1.209-1.907-3.257 0-.502.036-.977.089-1.408.136-1.105.388-1.919.456-2.14l.01-.032c.002-.012-.007-.046-.048-.06-.04-.014-.073 0-.083.014-.011.02-.749 2.114-.75 4.743-.003 5.395 2.743 10.836 8.513 12.603 1.208.373 2.232.606 3.395.606 1.603 0 2.287-.56 2.841-1.012.38-.31.698-.57 1.207-.57.65 0 1.163.512 1.163 1.163 0 1.024-1.21 1.861-3.256 1.861-1.862 0-3.366-.473-3.578-.555-.02-.01-.057.014-.069.045-.017.041.003.082.024.094.521.234 2.273.741 4.74.741 5.346 0 10.835-2.699 12.558-8.512.37-1.163.602-2.233.602-3.348 0-1.636-.545-2.33-.986-2.89-.298-.379-.547-.696-.547-1.203 0-.7.464-1.166 1.117-1.166 1.068 0 1.9 1.256 1.904 3.307.005 1.724-.457 3.25-.543 3.533l-.014.046c0 .027.01.046.05.06z" fill="#fff"/></svg>