<!-- by TradingView --><svg width="56" height="56" fill="none" xmlns="http://www.w3.org/2000/svg"><path fill="#D41E40" d="M0 0h56v56H0z"/><circle cx="28" cy="28" r="28" fill="#D41E40"/><path fill-rule="evenodd" clip-rule="evenodd" d="M42.899 9.002a.105.105 0 01.101.105c0 .054-.04.097-.093.103l.001.003C35.33 11.87 27.812 22.046 24.775 33.71A44.557 44.557 0 0023.733 39s-1.251.139.091-5.845c-7.784-5.291-4.748-21.868 19.06-24.153L42.889 9 42.894 9h.005v.002zM40.896 13c.057 0 .104.045.104.103h.002v18.022C41.002 41.172 27.998 47 27.998 47S14.01 41.368 14.01 31.228L14 13.1h11.243v.003c.056.003.107.154.107.208a.102.102 0 01-.103.104h-.004L15 14.1v17.128c0 9.013 13 14.775 13 14.775V34.039c4.633.305 7.138-2.686 8.827-7.453.604-1.706 1.055-3.645 1.51-5.6.655-2.818 1.318-5.672 2.461-7.917a.104.104 0 01.098-.069z" fill="#fff"/></svg>