<!-- by TradingView --><svg width="56" height="56" fill="none" xmlns="http://www.w3.org/2000/svg"><path fill="#1061A8" d="M0 0h56v56H0z"/><circle cx="28" cy="28" r="28" fill="#1061A8"/><path fill-rule="evenodd" clip-rule="evenodd" d="M27.947 12c-1.62-.012-3.31.519-4.584 1.53-3.14 2.49-3.623 8.065 2.813 11.498l-.031.017-.8 2.34C20.1 26.949 14.97 29.377 15 34.822c-.04 6.088 6.72 9.212 11.207 9.176 9.04.108 13.812-4.53 13.788-10.557.149-4.65-2.818-10.73-.063-15.441h-4.763c-.148 1.601-.979 2.704-2.929 3.507l-.39.227.202-.288c.901-1.001 1.195-3.134 1.11-4.557-.02-3.335-2.517-4.868-5.215-4.889zm-.734 4.157c2.397-.003 1.415 3.586.407 5.11-3.48-1.431-2.15-5.129-.653-5.097.085-.008.17-.013.246-.013zm6.811 8.409c-.26 3.159 1.477 6.137 1.11 9.476-.38 3.891-3.91 5.947-8.68 5.7-9.203-.661-7.725-8.549-2.648-8.34L21.826 36h4.627l1.66-4.058c1.248.62 2.002 1.241 2.772 1.86l1.538-3.899c-.936-.595-1.806-1.32-2.893-1.62l1.109-2.876c1.06.052 2.162-.099 3.385-.841z" fill="#fff"/></svg>