<!-- by TradingView --><svg width="56" height="56" fill="none" xmlns="http://www.w3.org/2000/svg"><path fill="#22559E" d="M0 0h56v56H0z"/><circle cx="28" cy="28" r="28" fill="#22559E"/><path d="M13 39h30v5H13v-5zM27 12h5l3 18 3-18h5v25h-4V18l-2 19h-4l-2-19v19h-4V12zM21 20h4v-1.564C25 16.773 25 12 18.933 12 13 12 13 17.45 13 18.436v12.5c0 3.65 1.323 6.04 4.752 6.064 2.028.003 2.949-1.513 3.248-2v2h4V23h-6v3h2v4.218c0 1.782-.226 3.244-2.009 3.244C17.5 33.5 17 32 17 30.282V18.5s-.362-3.203 1.991-3.203c2.11 0 2.009 2.218 2.009 3.14V20z" fill="#fff"/></svg>