<!-- by TradingView --><svg width="56" height="56" fill="none" xmlns="http://www.w3.org/2000/svg"><path fill="#00467F" d="M0 0h56v56H0z"/><circle cx="28" cy="28" r="28" fill="#00467F"/><path fill-rule="evenodd" clip-rule="evenodd" d="M36.797 14.633a3.145 3.145 0 11-5.793-2.351A16.088 16.088 0 0028 12c-8.837 0-16 7.163-16 16s7.163 16 16 16 16-7.163 16-16c0-5.587-2.864-10.505-7.203-13.367zM21.09 29.461c0-1.195.875-2.373 2.525-3.215-1.549-.926-2.357-2.457-2.357-4.426 0-3.467 2.592-5.908 6.446-5.908 1.582 0 3.164.505 4.376 1.549a5.912 5.912 0 011.767 2.575c.236.673.303 1.397.303 2.104.017 3.281-2.39 5.419-6.345 5.419-.707 0-1.33-.068-1.851-.202-.74.286-1.094.673-1.094 1.127 0 .97 1.145 1.044 3.326 1.184.357.023.74.048 1.15.079 4.377.32 6.228 1.16 6.228 4.41 0 3.332-2.76 5.25-7.977 5.25-4.763 0-7.204-1.498-7.204-4.241 0-1.582.943-2.457 2.945-3.114-1.514-.74-2.238-1.413-2.238-2.591zm3.114 5.234c0 1.11 1.228 1.885 3.315 1.885 2.828 0 4.41-.91 4.41-2.104 0-.943-.74-1.296-2.272-1.363l-3.737-.202c-1.161.538-1.716 1.06-1.716 1.784zm3.601-10.183c1.65 0 2.76-1.077 2.76-2.726 0-1.65-1.127-2.794-2.86-2.794-1.55 0-2.66 1.111-2.66 2.861 0 1.683 1.044 2.66 2.76 2.66z" fill="#fff"/><path d="M33.773 15.89a2.118 2.118 0 100-4.235 2.118 2.118 0 000 4.235z" fill="#24DE7A"/></svg>