<!-- by TradingView --><svg width="56" height="56" fill="none" xmlns="http://www.w3.org/2000/svg"><path fill="url(#paint0_linear)" d="M0 0h56v56H0z"/><circle cx="28" cy="28" r="28" fill="url(#paint1_linear)"/><path d="M17.181 25.307a.609.609 0 00-.496-.302H16.3a.598.598 0 00-.491.305l-3.047 6.405c-.085.166.007.285.196.285h.704c.278 0 .406-.125.481-.277l.276-.552c.043-.091.177-.171.366-.171h3.279c.189 0 .31.061.366.171.037.072.204.37.287.533a.508.508 0 00.493.296h1.022c.189 0 .271-.141.204-.272-.069-.132-3.255-6.421-3.255-6.421zM15.256 30c-.189 0-.278-.125-.198-.293l1.2-2.753c.08-.169.21-.167.288.001l1.169 2.753c.078.17-.013.292-.201.292h-2.258zm25.235-4.645v6.356c0 .172.155.289.344.289h.833c.189 0 .332-.119.332-.305v-6.352c0-.186-.11-.338-.3-.338h-.865c-.19 0-.344.114-.344.35zm-13.717 3.77c-.109-.151-.049-.32.132-.373 0 0 .72-.212 1.064-.516.344-.305.517-.745.517-1.319 0-.375-.066-.69-.199-.947-.133-.256-.323-.341-.57-.501a2.626 2.626 0 00-.889-.354 6.06 6.06 0 00-.812-.095 18.496 18.496 0 00-.686-.015h-3.458a.341.341 0 00-.343.338v6.352c0 .186.154.305.343.305h.819c.189 0 .308-.119.308-.305V29h1.59c.19 0 .433.079.542.23l1.61 2.495c.15.198.293.275.482.275h1.07c.188 0 .218-.175.152-.267-.064-.09-1.672-2.607-1.672-2.607zm-.651-1.194c-.212.049-.45.058-.45.058-.19.008-.498.015-.687.015h-1.603c-.19 0-.383-.152-.383-.338v-1.327c0-.186.194-.338.383-.338h1.603c.189 0 .498.006.686.014 0 0 .239.01.45.058.213.048.38.115.504.202.123.087.211.19.265.307.052.118.08.314.08.454 0 .139-.028.268-.08.385a.764.764 0 01-.265.308 1.397 1.397 0 01-.503.203zm24.83-3.05c-.188 0-.34.122-.34.301l.002 3.975c0 .187-.108.229-.239.095l-4.043-4.129a.796.796 0 00-.582-.243h-.76c-.24 0-.344.126-.344.253v6.62c0 .126.123.247.312.247h.762c.188 0 .279-.101.279-.272v-4.45c0-.186.152-.229.282-.094L50.5 31.76c.133.132.296.24.585.24h.573c.189 0 .343-.152.343-.338v-6.444a.341.341 0 00-.344-.337h-.702zM34.47 28.755c-.092.163-.243.162-.333 0l-2.22-3.45a.545.545 0 00-.497-.301h-1.072a.342.342 0 00-.343.338v6.344c0 .186.124.313.344.313h.666c.19 0 .325-.117.325-.297 0-.086.003-4.776.01-4.776s2.71 4.775 2.71 4.775a.223.223 0 00.399.001L37 26.94v4.763c0 .18.096.297.286.297h.767c.19 0 .343-.093.343-.338v-6.32a.341.341 0 00-.343-.337h-1.028a.56.56 0 00-.514.293l-2.041 3.459zM4 28.303c0 3.349 3.479 3.518 4.177 3.518 2.308 0 3.465-.614 3.505-.64a.598.598 0 00.32-.547v-2.26c0-.214-.176-.374-.392-.374H8.529c-.217 0-.36.16-.36.373v.24c0 .213.143.387.36.387h1.858c.162 0 .294.13.294.289l-.002 1.027c-.331.133-2.022.567-3.235.282-1.76-.414-1.896-1.843-1.896-2.271 0-.36.11-2.16 2.27-2.341 1.75-.148 2.9.548 2.912.554.206.105.419.03.533-.184l.219-.435c.09-.179.06-.364-.162-.511-.014-.009-1.24-.663-3.143-.663-4.06 0-4.177 3.192-4.177 3.556zM50.502 23h-4.998a.494.494 0 01-.432-.235.433.433 0 010-.468l2.5-4.063a.494.494 0 01.431-.234c.183 0 .34.085.432.234l2.499 4.063a.433.433 0 010 .469.494.494 0 01-.432.234z" fill="#fff"/><defs><linearGradient id="paint0_linear" x1="10.418" y1="9.712" x2="68.147" y2="76.017" gradientUnits="userSpaceOnUse"><stop stop-color="#1A1E21"/><stop offset="1" stop-color="#06060A"/></linearGradient><linearGradient id="paint1_linear" x1="10.418" y1="9.712" x2="68.147" y2="76.017" gradientUnits="userSpaceOnUse"><stop stop-color="#1A1E21"/><stop offset="1" stop-color="#06060A"/></linearGradient></defs></svg>