<!-- by TradingView --><svg width="56" height="56" fill="none" xmlns="http://www.w3.org/2000/svg"><path fill="url(#paint0_linear)" d="M0 0h56v56H0z"/><circle cx="28" cy="28" r="28" fill="url(#paint1_linear)"/><path d="M14.48 31L14 34h37.517L52 31H14.48zM7.013 31H6.35l-.478 3h.663l.478-3zM9.155 31H8.22l-.477 3h.933l.478-3zM4.87 31h-.392L4 34h.393l.478-3zM13.463 31H11.99l-.478 3h1.474l.478-3zM11.321 31h-1.204l-.477 3h1.203l.478-3z" fill="#ED1B2D"/><path d="M41.291 23l-.227 1.5h.49l-.613 3.945h-.497L40.204 30h5.24l.377-2.436h-1.687l-.13.88h-1.308l.195-1.243h1.44l.258-1.678h-1.443l.155-1.023h1.232l-.108.5h1.64l.336-2M31.779 23l-.225 1.5h.489l-.308 1.99L30.02 23H27.8l-.223 1.5h.491l-.611 3.945h-.49L26.731 30h2.774l.238-1.555h-.492l.357-2.35L31.485 30h1.481l.848-5.5h.493l.226-1.5M18.986 23l-.225 1.5h.493l-1.915 3.945h-.486L16.61 30h2.771l.244-1.555h-.497l.246-.445h1.716l.07.445h-.49L20.43 30l2.85-.001.24-1.554h-.494L22.152 23h-3.166zm1.803 1.76l.138 1.64h-.811M14.825 25.79c-.319.31-.816.189-1.25.21l.22-1.412c.492.012 1.168-.146 1.35.445.043.336-.053.539-.32.758zm.423 1.407c.328-.082.612-.291.88-.537.604-.581.94-1.427.698-2.3-.232-.818-1.052-1.305-1.811-1.36h-3.29l-.223 1.5h.49l-.609 3.945h-.495L10.649 30h2.684l.242-1.555h-.373l.141-.93L14.662 30h1.651l.242-1.555h-.617M26.43 29.997l.237-1.554h-.491l.612-3.945h.49L27.5 23h-2.847l-.227 1.498h.49l-.606 3.945h-.494L23.58 30M49.92 25.79c-.32.31-.816.19-1.25.21l.22-1.414c.492.013 1.168-.145 1.35.446.043.336-.053.54-.32.759zm.423 1.406c.329-.083.612-.291.88-.537.604-.582.94-1.428.698-2.3-.233-.818-1.051-1.304-1.811-1.359h-3.29l-.223 1.5h.49l-.609 3.944h-.495L45.745 30h2.683l.242-1.555h-.373l.142-.93 1.318 2.485h1.651l.242-1.555h-.617M9.738 23h1.367l-.363 2.385H9.187c-.086-.382-.457-.741-.82-.824a1.71 1.71 0 00-1.77.655c-.467.683-.674 1.832-.234 2.579.303.5.885.685 1.43.595.423-.082.85-.477 1.031-.896l-1.732-.002L7.308 26h3.65l-.605 4.002H8.947l.086-.444c-.166.232-.612.627-1.71.627-1.388 0-2.905-1.237-2.905-3.419 0-1.796 1.29-3.976 3.578-3.967.583.002 1.237.156 1.66.581" fill="#fff"/><path d="M39.291 23h1.368l-.363 2.385H38.74c-.086-.382-.458-.741-.82-.824a1.71 1.71 0 00-1.77.655c-.467.683-.675 1.832-.235 2.579.303.5.886.685 1.43.595.424-.082.85-.477 1.032-.896l-1.733-.002.217-1.492h3.65l-.605 4.002H38.5l.086-.444c-.165.232-.61.627-1.71.627-1.387 0-2.904-1.237-2.904-3.419 0-1.796 1.29-3.976 3.578-3.967.583.002 1.237.156 1.66.581" fill="#fff"/><defs><linearGradient id="paint0_linear" x1="10.418" y1="9.712" x2="68.147" y2="76.017" gradientUnits="userSpaceOnUse"><stop stop-color="#1A1E21"/><stop offset="1" stop-color="#06060A"/></linearGradient><linearGradient id="paint1_linear" x1="10.418" y1="9.712" x2="68.147" y2="76.017" gradientUnits="userSpaceOnUse"><stop stop-color="#1A1E21"/><stop offset="1" stop-color="#06060A"/></linearGradient></defs></svg>