<!-- by TradingView --><svg width="56" height="56" fill="none" xmlns="http://www.w3.org/2000/svg"><path fill="url(#paint0_radial)" d="M0 0h56v56H0z"/><circle cx="28" cy="28" r="28" fill="url(#paint1_radial)"/><path d="M12.088 26.336s-2.916.826-4.27 1.572c-.519.266-1.681 1.478.276 1.478a7.711 7.711 0 001.639-.282l2.633-.714.44 2.986s.081.496.13.66c0 0 .1.85.765.73a5.015 5.015 0 001.397-.24c.105-.05.38-.114.253-.53-.018-.207-.665-4.207-.665-4.207l2.291-.581.619 4.023s.116.922.823.751c.213-.033.738-.104 1.06-.285.078-.055.26-.118.043-.53-.066-.214-.764-2.706-.898-4.294.149-.027 2.72-.486 2.622-.375a6.07 6.07 0 00-1.253 2.076c-.294.635-.018 2.594 1.865 2.054.323-.12 1.078-.358 1.921-1.447.042.104.578 1.513 2.1 1.118.16-.044.393-.075.16-.277-.116-.074-.694-.38-.666-1.577.06-.784.165-1.563.313-2.334.016-.12.049-.551-.416-.446a3.66 3.66 0 00-1.173.567c-.106.09-.229.157-.311.552-.063.198-.714 2.227-1.776 2.95-.184.116-.527.357-.548-.136-.02-.27.199-1.77 2.03-3.419.221-.187.757-.585.969-.646.179-.031.384-.262.034-.358 0 0-.585-.145-2.522.13-.19.025-1.776.24-3.47.602-.018-.213-.208-2.854-.058-4.194.024-.26.297-1.175-.607-1.019-.162.02-1.053.152-1.505.448-.121.073-.286.127-.099.26.076.088.212.217.241.714.02.189.366 4.174.366 4.174l-2.299.604s-.432-3.333-.455-4.741c-.016-.231.121-1.206-.91-.843-.233.062-1.292.342-2.038.928 0 0-.42.253.01.357a.67.67 0 01.358.548c.043.225.567 3.196.567 3.196l.014-.003zM9.06 28.224c-.28.023-.187-.207-.045-.291 1.116-.704 3.12-1.21 3.12-1.21l.11.792c-1.452.436-2.813.71-3.186.709h.001zm21.67-3.518s.122.041.103-.145c-.02-.187-.06-.816-.578-1.104-.121-.054-.34-.203-.885-.011-.162.058-2.125.79-3.058 2.54-.071.153-.69 1.51.484 1.88.465.134.938.238 1.416.311 0 0 1.68.166.682 1.578a8.766 8.766 0 01-1.615 1.699c-.161.117-.852.624-1.655.18-.136-.06-.39-.137-.3.183.064.132.484.867 1.114 1.21.142.065.58.435 2.03-.389.311-.165 1.916-1.409 2.56-2.807.087-.252.606-1.472-.521-1.886-.341-.143-1.247-.344-1.487-.407-.444-.125-1.75-.358-.916-1.559.22-.226 1.027-1.075 2.625-1.273zm-.864-4.213s-.213.097.061.182c.3.187.517.488.604.837.45 1.45.774 2.939.969 4.447.032.233.308 2.49.27 3.09.022.166 0 .894 1.044.62.713-.19 2.378-1.353 3.518-3.107.149-.18 1.553-2.629-1.13-2.594-.413.067-.92.107-1.968.817-.028-.145-.276-3.06-.646-4.205-.13-.257-.223-.66-1.072-.566-.209.033-1.14.165-1.649.477l-.001.002zm4.085 4.674c1.19-.436.897 1.39.68 1.78a2.862 2.862 0 01-1.055 1.435l-.278-2.837c.203-.147.42-.274.646-.378h.007zm5.321-.778a1.373 1.373 0 00-.592-.59 1.33 1.33 0 00-.817-.129c-.315.062-.61.201-.86.407-.046.05-.208.247.041.275.149.025.872.078.914.801 0 .19.097.864-.468 3.206-.044.139-.199.613.353.583.19-.008 1.079-.053 1.528-.277.148-.083.363-.124.337-.54 0-.177 0-2.157-.14-2.696a2.869 2.869 0 011.245-1.392c.14-.07.634-.385 1.036.078.063.062.14.165.323.011.127-.122.596-.565.509-1.167-.04-.15-.076-.519-.829-.438-.22.04-1.269.109-2.583 1.868h.003zm1.821 2.533s-.145 1.503 1.534 1.377a4.825 4.825 0 003.03-1.412c.193-.2 1.165-1.184 1.293-2.2.035-.22.426-2.113-1.659-1.983a4.6 4.6 0 00-2.782 1.44c-.179.18-1.412 1.487-1.42 2.785l.004-.007zm1.844-.654c.447-1.759 1.292-2.373 1.418-2.492.57-.396.678-.073.752.064.162.37-.061 1.157-.134 1.391a4.09 4.09 0 01-1.33 2.056c-.7.46-.725-.129-.746-.299-.005-.24.007-.481.039-.72" fill="#fff"/><path d="M36.252 29.613a.65.65 0 01-.032.084c-.969 2.166-3.45 4.001-3.675 4.155a13.727 13.727 0 01-5.09 2.395c-1.833.465-3.727.63-5.61.485.619 2.031 3.853 3.331 3.98 3.384a8.813 8.813 0 006.573.14c2.604-.921 3.434-3.17 3.604-3.56.925-2.34.581-4.763.528-5.206a8.577 8.577 0 00-.204-1.215c-.04-.271.252-.228.257-.061.34 1.211.517 2.465.523 3.725-.008 2.608-.74 3.777-.852 4.027-.951 1.873-2.219 2.594-2.442 2.728-2.15 1.453-4.724 1.311-5.127 1.295-3.735-.174-6.063-2.043-6.493-2.392-2.402-1.933-2.612-4.378-2.617-4.53-.005-.151.034-.092.3-.026 4.148 1.174 7.773 0 7.975-.048 5.413-1.334 8.15-5.45 8.15-5.45.19-.299.323-.043.247.066" fill="#fff"/><defs><radialGradient id="paint0_radial" cx="0" cy="0" r="1" gradientUnits="userSpaceOnUse" gradientTransform="matrix(73.9524 0 0 69.49 49.527 .431)"><stop offset=".09" stop-color="#00A8AB"/><stop offset=".59" stop-color="#0073BD"/></radialGradient><radialGradient id="paint1_radial" cx="0" cy="0" r="1" gradientUnits="userSpaceOnUse" gradientTransform="matrix(73.9524 0 0 69.49 49.527 .431)"><stop offset=".09" stop-color="#00A8AB"/><stop offset=".59" stop-color="#0073BD"/></radialGradient></defs></svg>