<!-- by TradingView --><svg width="56" height="56" fill="none" xmlns="http://www.w3.org/2000/svg"><path fill="#6A727C" d="M0 0h56v56H0z"/><circle cx="28" cy="28" r="28" fill="#6A727C"/><path fill-rule="evenodd" clip-rule="evenodd" d="M23.006 19c-2.924.125-10.774 1.294-16.428 4.97.284-.03.86-.151 1.665-.32 2.417-.507 6.898-1.447 11.757-1.677v5.553c-7.548.92-13.71 2.909-16 4.853 4.69-1.12 10.188-1.846 16-2.177V38l3 2v-9.932c3.29-.11 6.652-.095 10 .043V40l3-2v-7.731c5.576.355 11.042 1.058 16 2.11-4.666-2.759-10.272-4.29-16-4.961v-5.445c4.861.23 9.345 1.17 11.763 1.677.805.169 1.38.29 1.665.32C43.774 20.294 35.924 19.125 33 19v8.143a69.17 69.17 0 00-10 .081V21.93h.006V19z" fill="#fff"/></svg>