<!-- by TradingView --><svg width="56" height="56" fill="none" xmlns="http://www.w3.org/2000/svg"><path fill="url(#paint0_linear)" d="M0 0h56v56H0z"/><circle cx="28" cy="28" r="28" fill="url(#paint1_linear)"/><path d="M17 22.648v9.708l.68.098V33h-3.432v-.546l.752-.098V28h-5v4.356l.743.098V33h-3.42v-.546l.71-.098v-9.709l-.71-.097V22h3.42v.55l-.743.098V27h5v-4.352l-.752-.098V22h3.432v.55M21.237 23.144c0 .706-.485 1.23-1.156 1.23-.684 0-1.156-.475-1.156-1.181 0-.67.472-1.193 1.156-1.193.671-.012 1.156.511 1.156 1.144zM21 32.418l.672.097V33h-3.344v-.485l.672-.097V25.6l-.672-.098V25H21v7.418zM22.34 32.509l.66-.1v-9.817l-.66-.099V22H25v10.41l.684.099v.493H22.34M30 25.321h1.774V26H30v4.665c0 1.157.22 1.522 1.276 1.522.398 0 .734 0 1.057-.073v.51c-.97.341-1.778.475-2.462.475-1.529 0-1.87-.681-1.87-1.996V26H26.24v-.679H28v-1.386l2-.572M38.537 29.072c0-2.497-.721-3.586-1.877-3.586-1.132 0-1.84 1.038-1.84 3.586 0 2.497.72 3.534 1.84 3.534 1.206.013 1.877-.986 1.877-3.534zm2.188.051c0 2.459-1.604 4.098-4.115 4.098-2.437 0-3.979-1.076-3.979-4.098 0-2.535 1.604-4.239 4.116-4.239 2.474 0 3.978 1.524 3.978 4.24zM49.662 32.515V33h-3.366v-.485l.704-.097v-4.734c0-1.18-.466-1.716-1.392-1.716-.426 0-1.12.292-1.608.62v5.818l.707.097V33h-3.379v-.497l.672-.097v-6.767l-.672-.097v-.511H44v1.034c.838-.657 1.658-1.18 2.797-1.18 1.514 0 2.203.864 2.203 2.567v4.978" fill="#fff"/><rect x="4.5" y="19.5" width="47" height="17" rx="1.5" stroke="#fff"/><defs><linearGradient id="paint0_linear" x1="10.418" y1="9.712" x2="68.147" y2="76.017" gradientUnits="userSpaceOnUse"><stop stop-color="#1A1E21"/><stop offset="1" stop-color="#06060A"/></linearGradient><linearGradient id="paint1_linear" x1="10.418" y1="9.712" x2="68.147" y2="76.017" gradientUnits="userSpaceOnUse"><stop stop-color="#1A1E21"/><stop offset="1" stop-color="#06060A"/></linearGradient></defs></svg>