<!-- by TradingView --><svg width="56" height="56" fill="none" xmlns="http://www.w3.org/2000/svg"><path fill="#0096D6" d="M0 0h56v56H0z"/><circle cx="28" cy="28" r="28" fill="#0096D6"/><path d="M28 44c-.159 0-.317-.003-.476-.007L30.794 35h4.5c.79 0 1.657-.601 1.927-1.343l3.548-9.744c.58-1.595-.333-2.913-2.031-2.913h-6.243l-5.238 14.406h-.002l-2.97 8.16C17.24 41.89 12 35.558 12 28c0-7.34 4.942-13.524 11.68-15.41l-3.064 8.422L15.521 35h3.391l4.366-12h2.548l-4.365 12h3.39l4.036-11.087c.581-1.595-.333-2.913-2.029-2.913h-2.85l3.273-8.983c.239-.01.478-.017.719-.017 8.837 0 16 7.163 16 16s-7.163 16-16 16zm9.68-21h-2.547l-3.568 10h2.548l3.568-10z" fill="#fff"/></svg>