<!-- by TradingView --><svg width="56" height="56" fill="none" xmlns="http://www.w3.org/2000/svg"><path fill="#3E000F" d="M0 0h56v56H0z"/><circle cx="28" cy="28" r="28" fill="#3E000F"/><path d="M21.426 31.923c3.097-2.351 4.134-6.013 4.574-7.72 1.019 2.89 1.59 4.858 5.009 7.72C37.5 36.688 34.793 42 32.522 42c-4.345.026-13.036.062-13.036 0-1.516 0-5.12-4.715 1.94-10.077zM26 19.015v4.01c.542-1.662 2.99-3.83 5.519-3.83 6.918-.18 8.928-2.552 10.48-3.563-.011-1.71-.028-4.824 0-4.853-2.058 2.312-5.083 3.484-10.48 4.118-4.327.508-5.495 3.13-5.52 4.118z" fill="#fff"/></svg>