<!-- by TradingView --><svg width="56" height="56" fill="none" xmlns="http://www.w3.org/2000/svg"><path fill="#71B010" d="M0 0h56v56H0z"/><circle cx="28" cy="28" r="28" fill="#71B010"/><path d="M27.115 24.997c-.83 0-1.617.326-1.964.574-.534-.411-1.262-.574-2.168-.574-1.371 0-2.822.429-2.983.497v7.497h1.75c.143 0 .25-.12.25-.283v-6.083c.313-.085.653-.128.907-.128 1.016 0 1.093.488 1.093 1.516v4.695c0 .129.102.283.263.283h1.475c.169 0 .262-.129.262-.283v-5.851c.271-.24.582-.352.938-.352.787 0 1.062.429 1.062 1.406v4.797c0 .12.085.283.263.283H30v-5.389c0-1.936-1.403-2.605-2.885-2.605zM5.003 32.991h1.738c.118 0 .262-.102.262-.257V29.01h2.162c.483 0 .83.394.83.796l.008 2.93c0 .145.119.265.263.265h1.737l-.008-10h-1.73c-.135 0-.262.134-.262.262v3.72h-2.28a.724.724 0 01-.72-.703v-3.017c0-.094-.093-.262-.262-.262H5.003v9.991zM49 31.055c0 .308-.3.446-.986.471-.974 0-1.014-.6-1.014-1.885v-1.3c0-1.473.158-1.884 1.014-1.884.72 0 .842.06.986.094v4.504zm-.986-6.08c-1.914 0-2.992 1.113-2.992 3.367v1.385c0 2.576 1.578 3.264 2.992 3.264.694 0 .749-.513.986-.83v.548c0 .12.123.282.275.282H51v-7.588s-1.446-.429-2.986-.429zM34.986 31.07c0 .291-.183.447-.868.473-.974 0-1.118-.574-1.118-1.86v-1.29c0-1.474.262-1.736 1.118-1.736.382 0 .724.048.868.082v4.331zM34.118 25c-1.914 0-3.125 1.053-3.125 3.307v1.377c0 2.493 1.313 3.307 2.727 3.307.702 0 1.042-.502 1.28-.819v.553c0 .12.1.266.262.266H37v-7.529c-.008 0-1.35-.463-2.882-.463zm5.644 7.991c.144 0 .242-.12.242-.283v-6.076c.432-.103.611-.158 1.051-.158.974 0 .949.437.949 1.508v4.706c0 .18.151.303.278.303h1.722v-5.01c0-2.201-1.035-3.007-2.898-3.007-1.49 0-2.984.437-3.102.472v7.545h1.758zm-22.49-7.987a.277.277 0 00-.272.283v6.006c-.432.103-.509.202-.95.202-.973 0-1.035-.368-1.035-1.44v-4.77c0-.18-.136-.283-.263-.283h-1.766v5.062c0 2.202 1.151 2.927 3.014 2.927 1.49 0 2.882-.437 3-.471v-7.522l-1.729-.003v.009z" fill="#fff"/></svg>