<!-- by TradingView --><svg width="56" height="56" fill="none" xmlns="http://www.w3.org/2000/svg"><path fill="#4C83C3" d="M0 0h56v56H0z"/><circle cx="28" cy="28" r="28" fill="#4C83C3"/><path fill-rule="evenodd" clip-rule="evenodd" d="M41.455 21H48v-1h-6.181l-.364 1zm-5.014 0l-.38-1H30v1h6.44zM30 22h6.82l.379 1H30v-1zm-2.2-1a4.481 4.481 0 00-2.8-1h-8v1h10.8zM17 22h11.713c.206.308.376.644.502 1H17v-1zm-1-1v-1H8v1h8zm-8 1h8v1H8v-1zm2 2h4v1h-4v-1zm0 3v-1h4v1h-4zm0 2v-1h4v1h-4zm0 2v-1h4v1h-4zm0 2v-1h4v1h-4zm0 1H8v1h8v-1h-6zm7 0v1h11.805c.232-.308.428-.643.584-1H17zm8-1h4.705c.066-.323.1-.657.1-1H25v1zm-3 0v-1h-3v1h3zm-3-2h10.705a4.964 4.964 0 00-.316-1H19v1zm0-2h9.805a5.029 5.029 0 00-1-1H19v1zm0-2h9.713c.206-.308.376-.644.502-1H19v1zm0-2v-1h3v1h-3zm6-1h4.443a4.537 4.537 0 010 1H25v-1zm7.004 2v1h6.712l-.38-1h-6.332zm5.953-1h-5.953v-1h5.574l.38 1zm1.676 1l-.364 1h6.727v-1h-6.363zm6.363-1h-5.999l.365-1h5.634v1zm0-2H48v-1h-6.91l-.364 1h5.27zm0 5H39v1h6.996v-1zm0 2H42v1h3.996v-1zm0 2H42v1h3.996v-1zm0 2H42v1h6v-1h-2.004zM48 36h-6v1h6v-1zm-9 1l.385-1H39v1zm0-2h.77l.384-1H39v1zm-.007-1v1h-.752l-.377-1h1.13zM39 33h1.539l.385-1H39v1zm-.007-1v1h-1.507l-.377-1h1.884zM39 31h2.309l.384-1H39v1zm-.007-1v1h-2.261l-.378-1h2.64zm0-1v-1h-6.989v1h6.99zm-6.989 1v1H36v-1h-3.996zM36 32h-3.996v1H36v-1zm0 2h-6v1h6v-1zm0 2h-6v1h6v-1zm-11 1v-.004A4.975 4.975 0 0027.805 36H17v1h8zm-9 0v-1H8v1h8zm22.618-1h.375v.994L38.618 36z" fill="#fff"/></svg>