<!-- by TradingView --><svg width="56" height="56" fill="none" xmlns="http://www.w3.org/2000/svg"><path fill="#364C73" d="M0 0h56v56H0z"/><circle cx="28" cy="28" r="28" fill="#364C73"/><path fill-rule="evenodd" clip-rule="evenodd" d="M12 12h32v20h-4.007V16H15.999v24h5.998v4H12V12z" fill="#9AD0E6"/><path d="M25 35h2v9h-2v-9zM35 35.536v1.692c-1.392-.743-3.276-1.026-4.61.134a3.124 3.124 0 000 4.212c1.19 1.315 3.205 1.037 4.61.287v1.588a6.086 6.086 0 01-1.264.413 6.635 6.635 0 01-1.383.138c-1.332 0-2.391-.406-3.176-1.217C28.392 41.972 28 40.878 28 39.5c0-1.398.395-2.497 1.185-3.298C29.98 35.4 31.068 35 32.448 35c.448 0 .885.046 1.312.138.426.087.84.22 1.24.398z" fill="#fff"/><path fill-rule="evenodd" clip-rule="evenodd" d="M44.003 40v-.86c0-1.275-.265-2.283-.943-3.023-.672-.744-1.589-1.117-2.749-1.117-1.293 0-2.322.413-3.087 1.24-.76.821-1.14 1.933-1.14 3.337 0 1.357.4 2.433 1.201 3.23.806.795 1.897 1.193 3.273 1.193.55 0 1.09-.056 1.624-.168.534-.113.875-.238 1.383-.452v-1.597c-.503.266-.83.426-1.344.56a6.227 6.227 0 01-1.578.198c-1.533 0-2.977-.92-3.08-2.541h6.44zm-1.982-2.886c.426.459.468.901.468 1.378h-4.71c.093-.553.19-.958.661-1.401.478-.444 1.112-.666 1.902-.666.698 0 1.258.23 1.679.689z" fill="#fff"/></svg>