<!-- by TradingView --><svg width="56" height="56" fill="none" xmlns="http://www.w3.org/2000/svg"><path fill="#F6F8FD" d="M0 0h56v56H0z"/><circle cx="28" cy="28" r="28" fill="#F6F8FD"/><path d="M32 21.286a7.158 7.158 0 00-1.746-1.25c-1.091-.613-2.376-.975-3.79-1.027a5.359 5.359 0 00-.273-.009l-.547.001H17V38h5v-4h4.306c1.244 0 2.41-.366 3.44-.848a9.566 9.566 0 01-1.138-4.529c0-2.922 1.315-5.547 3.392-7.337zM25.874 29c.08 0-.077.002 0 0H22v-5h3.761c1.479 0 3.005.318 3.005 2.437 0 2.07-1.462 2.563-2.892 2.563z" fill="#83C2EC"/><path d="M38.486 38.388a9.916 9.916 0 01-8.76-5.237c2.519-1.184 4.215-3.65 4.215-6.565 0-.051-.003-.101-.004-.152v-.003-.026a8.643 8.643 0 00-.009-.265c-.065-2.243-.873-3.796-1.956-4.864a9.925 9.925 0 016.514-2.425 9.92 9.92 0 016.913 2.79l-3.944 3.36-.02-.012a4.726 4.726 0 00-2.95-1.027c-2.6 0-4.716 2.089-4.716 4.656 0 2.57 2.116 4.659 4.717 4.659 1.525 0 3.268-.745 3.742-2.277H39v-4h9.254l.032.258c.036.251.06.507.075.764.013.197.023.4.023.587 0 .09-.005.208-.014.347a9.6 9.6 0 01-.776 3.477 6.946 6.946 0 01-.354.744l-.001-.011a9.919 9.919 0 01-8.753 5.222z" fill="#1477C6"/><path d="M33.95 26.586l-.003-.153v-.002l-.001-.026c0-.089-.003-.177-.008-.265-.065-2.245-.873-3.798-1.956-4.868-2.07 1.793-3.38 4.422-3.38 7.348 0 1.636.412 3.178 1.134 4.535 2.518-1.184 4.214-3.651 4.214-6.569z" fill="#0B335E"/><path d="M9 19v19h5V19H9z" fill="#83C2EC"/></svg>