<!-- by TradingView --><svg width="56" height="56" fill="none" xmlns="http://www.w3.org/2000/svg"><path fill="#003B83" d="M0 0h56v56H0z"/><circle cx="28" cy="28" r="28" fill="#003B83"/><path d="M44 27.4h7v2.679c-1.434.36-2.702.604-3.819.734-1.102.13-2.415.187-3.924.187-1.872 0-3.381-.115-4.559-.345-1.177-.23-2.083-.576-2.732-1.05-.649-.461-.966-.994-.966-1.598 0-.633.347-1.194 1.057-1.655.709-.46 1.75-.82 3.109-1.064 1.072-.187 2.49-.288 4.302-.288 1.736 0 3.034.058 3.894.173.86.115 1.57.302 2.144.546.573.245.996.561 1.283.936l-4.68.302c-.196-.216-.513-.389-.98-.504-.469-.115-1.042-.172-1.767-.172-1.071 0-1.917.143-2.536.402-.633.274-.95.705-.95 1.281 0 .633.317 1.08.966 1.338.633.273 1.524.403 2.671.403.544 0 1.057-.029 1.555-.086A24.78 24.78 0 0047 29.33V28.6h-3v-1.2zM4.995 25h5v1.586h-5V25zm0 2h5v4h-5v-4zM22 26.654v-.868l5.809 1h3.786S30.28 25 26.702 25H17v1.654h5zm5.867.474L22 27.986V27h-5v4h5v-2h3.462c1.33-.022 5.49-.406 6.103-1.872h-3.698z" fill="#fff"/></svg>