<!-- by TradingView --><svg width="56" height="56" viewBox="0 0 56 56" fill="none" xmlns="http://www.w3.org/2000/svg">
<rect width="56" height="56" fill="#F0F3FA"/>
<circle cx="28" cy="28" r="28" fill="#F0F3FA"/>
<rect x="17" y="17" width="29" height="3" rx="1.5" fill="#00A1DF"/>
<rect x="7" y="22" width="39" height="3" rx="1.5" fill="#00A1DF"/>
<rect x="5" y="27" width="41" height="3" rx="1.5" fill="#00A1DF"/>
<rect x="9" y="32" width="37" height="3" rx="1.5" fill="#00A1DF"/>
<rect x="13" y="37" width="33" height="3" rx="1.5" fill="#00A1DF"/>
<rect x="21" y="17" width="25" height="3" rx="1.5" fill="#7FA9C3"/>
<rect x="13" y="22" width="33" height="3" rx="1.5" fill="#7FA9C3"/>
<rect x="11" y="27" width="35" height="3" rx="1.5" fill="#7FA9C3"/>
<rect x="14" y="32" width="32" height="3" rx="1.5" fill="#7FA9C3"/>
<rect x="18" y="37" width="28" height="3" rx="1.5" fill="#7FA9C3"/>
<path fill-rule="evenodd" clip-rule="evenodd" d="M38.8987 30C38.9657 29.3427 39 28.6755 39 28C39 27.6646 38.9915 27.3312 38.9748 27H44.5428C45.3476 27 46 27.6716 46 28.5C46 29.3284 45.3476 30 44.5428 30H38.8987ZM37.704 35C38.0761 34.0362 38.3736 33.0337 38.5893 32H44.5428C45.3476 32 46 32.6716 46 33.5C46 34.3284 45.3476 35 44.5428 35H37.704ZM37.285 20C36.8069 18.9437 36.2371 17.9401 35.586 17H44.5428C45.3476 17 46 17.6716 46 18.5C46 19.3284 45.3476 20 44.5428 20H37.285ZM38.7707 25C38.6116 23.9701 38.372 22.9678 38.0586 22H44.5428C45.3476 22 46 22.6716 46 23.5C46 24.3284 45.3476 25 44.5428 25H38.7707ZM34.844 40C35.5831 39.0692 36.2381 38.0651 36.7969 37H44.5428C45.3476 37 46 37.6716 46 38.5C46 39.3284 45.3476 40 44.5428 40H34.844Z" fill="#005487"/>
</svg>
