<!-- by TradingView --><svg width="56" height="56" fill="none" xmlns="http://www.w3.org/2000/svg"><path fill="#BF2519" d="M0 0h56v56H0z"/><circle cx="28" cy="28" r="28" fill="#BF2519"/><path d="M5.785 36l5.065-15.998h-.785L5 36h.785zM7.071 36l5.065-15.998h-.785L6.286 36h.785zM8.357 36l5.065-15.998h-.785L7.572 36h.785zM9.643 36l5.065-15.998h-.785L8.858 36h.785zM20.125 36l4.035-13h4.115l1.035-3-13.82.005-1.034 3.001 4.991.003L15.413 36h4.712zM46.958 20.005c-1.528 3.172-4.033 9-4.033 9l.544-8.995-4.806-.004-4.814 9 1.114-8.997-4.77.001-.623 15.994h4.607l5.218-9.999-.083 9.991 4.425.003L52 20.01l-5.042-.005zm-3.644 14.993l-3.212.007.208-11.505c0-.307-.296-.221-.41.005-2.05 4.03-4.06 7.515-6.194 11.5H30.32l.504-14h3.229l-.984 10.736c0 .088.145.185.237-.002 1.828-3.713 3.792-7.088 5.745-10.737l3.581.003c-.085 2.586-.343 10.825-.343 10.825 0 .093.131.175.227-.104 0 0 3.245-7.07 5.003-10.729l2.968.008-7.173 13.993z" fill="#fff"/></svg>