<!-- by TradingView --><svg width="56" height="56" fill="none" xmlns="http://www.w3.org/2000/svg"><path fill="#193989" d="M0 0h56v56H0z"/><path d="M34.627 37.02l-1.481 1.478-1.441-1.467-.777-2.283-2.207-.754-.005-1.422-1.435.004-.757 3.608.777 2.334L23.92 40l-1.03-1.468.713-1.476-.005-1.574-2.205.008-2.912 3.055-2.207-.703-.01-3.046-3.848-.597-2.763 1.481-1.644-.706L8 31.878l1.484-.716 5.887-2.913.874.708 2.198-2.19-.005-1.422 2.912-2.904 1.478-3.102 2.192-3.611 3.638-.723L30.145 15l.005 1.422 2.932 2.884.01 3.097 4.578 4.302 4.42 2.93 2.206.703.776 2.18L48 33.933l-1.483 1.476-1.434.005-.005-1.472-2.208-.705-3.703-3.592-2.928-1.463-3.142-4.355-1.44-1.418.71-2.338-2.212-2.176-1.483 1.426.01 3.098-1.43 1.426 2.932 2.884-1.482 1.477 2.983 2.885.005 1.472 1.445 2.889 1.487-.004 1.636-1.478-.771-.708-.88-2.18 1.641-.006 1.445 2.89 1.492 1.467-4.558 1.588z" fill="#fff"/></svg>