<!-- by TradingView --><svg width="56" height="56" fill="none" xmlns="http://www.w3.org/2000/svg"><path fill="#00338D" d="M0 0h56v56H0z"/><circle cx="28" cy="28" r="28" fill="#00338D"/><path d="M8.5 25H11v3.739c0 .785-.088 1.383-.263 1.792-.176.41-.53.757-1.061 1.042-.531.285-1.212.427-2.041.427-.877 0-1.556-.094-2.038-.282-.482-.188-.854-.464-1.117-.827a2.484 2.484 0 01-.424-1.04A5.212 5.212 0 014 29.397l2.586-.127c.004.305.038.532.1.68.3.71 1.388.432 1.584.184.14-.177.23-.475.23-.894V25zM29.607 26.93c.326-.32.759-.48 1.297-.48.561 0 1.006.158 1.334.472.328.314.491.812.491 1.494 0 .81-.157 1.37-.47 1.683-.315.313-.759.469-1.332.469-.558 0-.998-.16-1.323-.48-.324-.318-.485-.843-.485-1.574 0-.737.162-1.265.488-1.584zm-2.554 3.689c.396.563.912.975 1.549 1.236.637.26 1.441.389 2.414.389.956 0 1.754-.15 2.394-.451.641-.302 1.131-.723 1.47-1.265.34-.542.509-1.236.509-2.082 0-1.166-.388-2.073-1.164-2.72-.776-.647-1.882-.97-3.316-.97-1.399 0-2.49.33-3.274.988-.784.659-1.176 1.579-1.176 2.76 0 .847.198 1.552.594 2.115zM16.902 25h-2.8L11 32h2.609l1.86-5.185.91 2.516h-1.345L14.482 31h2.428l.414 1H20l-3.098-7zM38.5 30.497h1.562c.461 0 .787-.066.976-.199.366-.255.378-.817.003-1.068-.187-.127-.516-.23-.985-.23H38.5v1.497zm0-2.755h1.361c.418 0 .709-.058.873-.174a.613.613 0 000-.981c-.164-.115-.45-.172-.856-.172H38.5v1.327zM36 25h5.007c1.073 0 2.592.411 2.592 1.741 0 .836-.676 1.326-1.41 1.531.925.181 1.811.686 1.811 1.735 0 .363-.105.69-.312.98-.676.936-2.015 1.013-3.071 1.013H36v-7zM44.19 29.645l2.53-.124c.055.324.168.57.336.74.274.275.666.412 1.175.412.38 0 .673-.07.879-.21.206-.141.309-.304.309-.49 0-.174-.098-.332-.295-.47-.197-.14-.651-.27-1.363-.394-1.166-.206-1.998-.48-2.495-.822-.501-.341-.752-.777-.752-1.307 0-.348.129-.676.384-.985.257-.31.642-.553 1.157-.73.515-.177 1.22-.265 2.116-.265 1.1 0 1.938.16 2.516.482.576.322.92.833 1.03 1.535l-2.506.115c-.067-.305-.207-.528-.42-.667-.215-.14-.51-.21-.885-.21-.31 0-.544.053-.7.156-.157.103-.235.229-.235.377 0 .108.065.205.195.29.127.09.425.174.895.25 1.161.198 1.994.398 2.498.6.503.201.868.451 1.097.75.229.3.344.633.344 1.003 0 .434-.153.835-.459 1.201-.305.367-.731.645-1.28.835-.548.189-1.239.283-2.072.283-1.465 0-2.479-.221-3.042-.665-.564-.443-.883-1.006-.957-1.69z" fill="#fff"/><path d="M25.824 29.976c-.356.289-.966.588-1.798.592-.557.003-.998-.16-1.322-.48-.324-.318-.486-.843-.486-1.574 0-.737.163-1.265.49-1.584.284-.28.799-.494 1.273-.497.713-.007 1.125.082 1.825.599.236-.47.613-1.158.901-1.567a2.933 2.933 0 00-.234-.155c-.62-.37-1.472-.554-2.558-.554-1.386 0-2.458.322-3.215.965-.758.643-1.137 1.564-1.137 2.762 0 .899.215 1.636.646 2.211.431.576.944.979 1.537 1.207.594.23 1.36.343 2.296.343 1.092 0 1.915-.19 2.679-.691 0 0-.506-.742-.894-1.575l-.003-.002z" fill="#fff"/></svg>