<!-- by TradingView --><svg width="56" height="56" fill="none" xmlns="http://www.w3.org/2000/svg"><path fill="#FFE211" d="M0 0h56v56H0z"/><circle cx="28" cy="28" r="28" fill="#FFE211"/><path d="M51.5 21.5v12.095h-47V21.5h47z" stroke="#1D1D1B" stroke-miterlimit="2.61"/><path fill-rule="evenodd" clip-rule="evenodd" d="M5.08 33.009h45.84V22.086H5.08V33.01z" fill="#FFE211"/><path d="M8.21 26.743c-.373-.32-1.247-1.15-1.23-1.983 0-.262.288-.768 1.044-.748.756.02 1.454.469 2.42 1.515.966 1.046 3.538 4.058 3.892 4.47.465.522.69 1.028 2.701 1.028h30.976m-.258-2.713c.373.287 1.247 1.15 1.23 1.963 0 .288-.288.785-1.044.748-.756-.038-1.451-.449-2.42-1.515-.968-1.067-3.538-4.059-3.892-4.453-.465-.543-.69-1.046-2.681-1.046H7.966m.17 2.68c-.765-.656-1.08-1.329-.765-1.703.262-.261 1.322-.132 2.162.673.839.805.93 1.515.744 1.725-.187.21-1.193.057-1.788-.411a3.733 3.733 0 01-.353-.288v.003zm39.71 1.66c.745.673 1.061 1.328.765 1.702-.287.262-1.342.132-2.179-.655-.836-.788-.914-1.535-.744-1.74.17-.203 1.193-.057 1.788.432.13.078.255.165.373.261h-.003z" stroke="#1D1D1B" stroke-width=".19" stroke-miterlimit="2.61"/><path d="M46.26 30.177h2.029M7.705 24.872h2.012-2.012zm2.42 2.586h2.029-2.03zm33.695.133h2.103-2.103z" stroke="#1D1D1B" stroke-width=".204" stroke-miterlimit="2.61"/><path d="M46.645 30.534h2.236M7.296 25.602h2.142-2.142zm.417.655h2.3-2.3zm.736.655h3.199-3.199zm1.914.225h1.472-1.472zm-.253-.768h1.006-1.006zm-.577-.71h.93-.93zm-.411-.356h1.023-1.023zm-2.162-.469h.664-.664zm.049-.244h2.365H7.01zm.15-.288H9.02 7.158zm2.178.17h31.666H9.337zm32.131.523H9.903h31.565zm-31.154.336h4.378-4.378zm.3.374h4.078-4.079zm.295.357h3.783-3.783zm.374.373h3.409-3.409zm.247.357h3.162-3.162zm.405.41h2.757-2.757zm.391.394h2.366-2.366zm.558.693h1.808-1.808zm.503.543h1.305-1.305zm.443.523h.862-.862zm.339.411h.523-.523zm.393.432h31.683-31.682zm.429.393h31.723H14.99zm32.873-2.187H45.76h2.104zm.56.575h-2.348 2.348zm-7.32-3.366h.985-.986zm1.396.486h-1.397H42.5zm.578.635h-1.975 1.975zm.374.411h-2.349 2.349zm.238.288h-2.587 2.587zm1.92.597h-1.322 1.322zm.058.288h-1.21 1.21zm.15.224h-1.15 1.15zm-1.504-.336h-3.222 3.222zm.428.43h-3.65 3.65zm.224.262h-3.874 3.874zm-3.874.357h4.19-4.19zm4.395.287h-4.395 4.395zm.353.32h-4.748 4.748zm.112.057H47.2h-1.248zm-.241-.245h1.043-1.043zm-.204-.224h.931-.931zm-.242-.244h.969-.969z" stroke="#1D1D1B" stroke-width=".135" stroke-miterlimit="2.61"/><path fill-rule="evenodd" clip-rule="evenodd" d="M18 28.557v-3.142h-.764v2.992c0 .357-.391.506-.633.506a2.69 2.69 0 01-.839-.356l-.336.655c.354.308.799.492 1.267.523a1.355 1.355 0 001.098-.468c.169-.2.189-.45.207-.71zm.957 1.178a.471.471 0 00.486-.486.482.482 0 00-.825-.34.482.482 0 00.34.826zm5.338 0a.486.486 0 00.503-.486.494.494 0 00-.986 0 .484.484 0 00.483.486zm-2.875-.017h-.862v-4.312h1.676a1.15 1.15 0 011.172 1.03c0 .287.055.746-.502 1.066a1.034 1.034 0 01.652 1.008 1.257 1.257 0 01-1.36 1.196l-.776.012zm.67-.72c.126 0 .248-.095.338-.183a.477.477 0 00.145-.333.494.494 0 00-.483-.486h-.67v1.001h.67zm-.075-1.787a.444.444 0 00.316-.764.454.454 0 00-.316-.133h-.595v.897h.595zm6.534-1.796v1.814h-1.247v-1.814h-.877v4.303h.877V28h1.247v1.718h.856v-4.303h-.856zm3.296 3.498a.575.575 0 00.558-.575v-2.917h.82v2.587c0 .672.074.991-.242 1.327a1.557 1.557 0 01-1.15.506 1.63 1.63 0 01-1.15-.506c-.316-.336-.241-.655-.241-1.328v-2.586h.819v2.9c0 .152.06.298.168.406a.62.62 0 00.418.186zm8.365-3.498h-2.685v.805h.894v3.498h.894V26.22h.896v-.805zm-4.1 4.283l-1.155-2.357v2.377h-.819v-4.303h.82l1.117 2.075v-2.075h.82v4.303h-.782v-.02z" fill="#1D1D1B"/></svg>