<!-- by TradingView --><svg width="56" height="56" fill="none" xmlns="http://www.w3.org/2000/svg"><path fill="#F0F3FA" d="M0 0h56v56H0z"/><circle cx="28" cy="28" r="28" fill="#F0F3FA"/><path d="M39.456 16.812c-.223-.23-.454-.456-.693-.672-2.517 1.191-4.597 2.678-6.18 4.438.204 1.375.349 2.78.412 4.221.216 4.997-.514 9.18-1.957 12.57 1.064 1.826 2.554 3.463 4.475 4.822a15.988 15.988 0 001.578-.97c-2.917-3.41-4.35-7.621-4.096-12.136.268-4.861 2.68-9.153 6.461-12.273z" fill="#3BBB9C"/><path d="M35.738 13.963a14.66 14.66 0 00-.871-.452 22.31 22.31 0 00-3.412 1.937c.214.729.407 1.472.58 2.232 1.17-1.329 2.436-2.57 3.703-3.717zM31.09 43.772a16.237 16.237 0 001.976-.526 31.777 31.777 0 01-3.008-3.886c-.46.811-.96 1.573-1.508 2.273a21.714 21.714 0 002.54 2.139z" fill="#05B6C4"/><path d="M43.572 24.339c-1.635 1.409-2.76 3.216-3.134 5.3-.404 2.231.145 4.46 1.393 6.444A16.009 16.009 0 0044 28.015c0-1.266-.15-2.494-.429-3.676z" fill="#8CC640"/><path d="M38.651 29.348c.325-3.073 1.472-6.288 3.541-8.743-.16-.306-.324-.608-.502-.903-3.96 2.17-6.52 5.6-6.895 9.811-.33 3.72 1.399 7.454 4.255 10.105.44-.42.858-.867 1.249-1.336-1.381-2.642-1.996-5.653-1.648-8.934z" fill="#6CC071"/><path d="M16.86 16.455A16.03 16.03 0 0012 26.897c2.668-2.563 4.337-6.67 4.86-10.442z" fill="#00BCE4"/><path d="M20.017 14.078c-.248.144-.492.293-.731.448-1.53 7.226-4.053 12.02-7.176 15.691.113.812.28 1.604.511 2.373 6.547-4.036 7.928-13.037 7.396-18.512z" fill="#009DCC"/><path d="M33.045 24.798c-.198-4.6-1.16-8.9-2.687-12.67a17.09 17.09 0 00-.93-.106c1.434 12.173.04 23.914-7.063 31.038 1.274.48 2.624.8 4.03.94 4.37-3.848 7.04-10.236 6.65-19.202z" fill="#00559F"/><path d="M26.805 12c-.305.022-.61.053-.909.091.286 7.929-1.046 21.078-8.855 27.656a15.98 15.98 0 002.352 1.827C29.511 34.679 29.461 21.19 26.805 12z" fill="#0069A5"/><path d="M23.264 12.662c-.269.082-.534.17-.795.266-.462 8.158-2.647 16.84-8.755 22.397.4.783.86 1.528 1.38 2.23 8.285-5.016 9.98-16.9 8.17-24.893z" fill="#0581B6"/></svg>