<!-- by TradingView --><svg width="56" height="56" fill="none" xmlns="http://www.w3.org/2000/svg"><path fill="#08090D" d="M0 0h56v56H0z"/><circle cx="28" cy="28" r="28" fill="#08090D"/><path d="M51.072 22.739c-3.906 0-4.072 1.73-4.072 4.169V33h1v-6.092c0-1.636-.153-3.187 3.072-3.187.345 0 .652.018.928.05v-.994a10.667 10.667 0 00-.928-.038zM10 28.883V23h1v5.9c0 1.698-.15 3.1 3 3.1 3.132 0 3-1.402 3-3.188V23h1v5.812c0 2.37-.206 4.188-4 4.188-3.812 0-4-1.818-4-4.117zM27 26.835V33h-1v-6.183c0-1.576.105-3.137-3.045-3.137-3.034 0-2.955 1.52-2.955 3.228V33h-1v-6.092c0-2.44.161-4.17 3.955-4.17 3.813 0 4.045 1.73 4.045 4.097zM28 23h1v10h-1V23zM33.807 28C35.295 28 36 27.683 36 26.145 36 24.608 35.236 24 33.77 24H31v4h2.807zM30 23.011h3.794c2.136 0 3.206 1.114 3.206 3.095C37 28.1 35.942 29 33.783 29H31v4h-1v-9.989zM39.308 27h5.878c0-1.874-.406-3.34-2.676-3.34-2.577 0-3.202 1.495-3.202 3.34zm-1.026.892c0-2.93.775-5.189 4.246-5.189 3.588 0 3.706 2.548 3.69 5.297h-6.91c.017 2.422.372 4.108 3.287 4.108 1.55 0 2.138-.46 2.896-1.06l.59.85c-.841.673-1.835 1.201-3.486 1.201-3.639 0-4.313-2.276-4.313-5.207zM5.317 35C8.85 35 9 33.083 9 30.713V23H8v7.713C8 32.499 8.233 34 5.317 34H5v1h.317z" fill="#fff"/></svg>