<!-- by TradingView --><svg width="56" height="56" fill="none" xmlns="http://www.w3.org/2000/svg"><path fill="#D01F3C" d="M0 0h56v56H0z"/><circle cx="28" cy="28" r="28" fill="#D01F3C"/><path d="M51.025 24.968c-.861-.002-1.642.727-2.613 1.575-.892.778-2.715 2.744-4.379 3.863.464-.764 1.581-2.417 1.75-3.192.176-.813-.391-1.128-1.172-.626-.85.551-1.662 3.198-2.864 3.198-.219 0-.372-.112-.37-.369.006-.775 1.15-2.32 3.202-3.17.318-.135.44-.35.442-.536 0-.058-.01-.451-.64-.451-2.027 0-4.763 2.484-5.147 4.388-.395.417-1.105 1.035-2.006 1.438 1.017-1.511 1.892-2.727 2.351-3.989.53-1.47-.224-1.663-.998-1.233-.754.418-1.284 1.58-1.508 2.021-.22.439-.407 1-1.07 1.56-.662.558-1.35.465-.864-.626.434-.975 1.41-1.996 2.25-2.467.2-.112.374-.179.367-.46-.01-.447-.502-.756-1.203-.438-.953.433-1.41.721-2.217.721-.641 0-.973-.181-1.247-.3-.366-.164-.636-.108-.779-.06a1.351 1.351 0 00-.5.372c-.135.155-.249.41-.276.572-.188 1.193-1.182 3.332-1.913 3.332-.252 0-.53-.075-.458-.685.117-.997 1.263-2.346 1.528-2.614.265-.271.764-.455.8-.755.03-.25-.116-.531-.586-.531-1.545 0-3.61 2.247-3.815 4.267-.24.235-.528.465-.857.465-.714 0-.916-.7-.865-1.257 1.876-1.777 5.435-5.74 5.543-8.56.025-.675-.287-1.011-.813-1.011-1.324 0-3.18 2.032-4.335 3.598-1.42 1.93-2.294 4.26-2.602 6.026-1.04.946-1.461 1.01-1.914 1.01-.628 0-.848-.478-.828-.854 1.752-1.671 4.798-5.654 4.86-7.622.018-.583-.296-.858-.858-.858-1.194 0-2.886 1.323-4.102 3.066-1.215 1.743-2.003 3.794-2.226 5.652-.91.858-1.59 1.032-2.15 1.032a.817.817 0 01-.646-.355c.805-.488 2.638-1.71 2.638-3.534 0-.906-.582-1.31-1.161-1.31-1.473 0-3.79 1.927-3.774 4.587 0 .047.007.21.015.27-.667.24-1.127.486-1.02.99.096.456.636.433 1.339.172.162.316.85.836 1.823.836 1.317 0 2.323-.656 3.117-1.369.334.821 1.157 1.252 2.017 1.252 1.045 0 2.079-.744 2.893-1.417.095.629.705 1.61 1.76 1.61.963 0 1.698-.589 2.28-1.225.152.641.712 1.15 1.443 1.15 2.436 0 3.802-3.62 4.117-4.92a.22.22 0 01.295-.164c.453.165.675.248 1.248.18-.927.764-1.744 2.069-1.744 3.022 0 .952.786 1.394 1.36 1.394.576 0 1.337-.39 1.837-.882-.132.28-.31.708-.596 1.01-.524.152-2.063.735-3.04 1.359-.927.593-1.824 1.537-1.824 2.622 0 .58.453 1.262 1.52 1.262 1.791 0 3.045-1.23 4.736-4.46 1.401-.616 2.242-1.192 2.792-1.681.241.441.706.647 1.171.647.688 0 1.1-.209 1.655-.628a3.454 3.454 0 01-.387.76c-1.001.437-2.204 1.016-2.82 1.406-1.642 1.04-2.006 1.972-2.006 2.706 0 .449.366 1.23 1.473 1.23 2.394 0 3.877-3.126 4.842-4.893.708-.394 1.72-1.125 2.76-1.963a1.643 1.643 0 00-.053.43c0 .785.677 1.523 1.788 1.523 2.194 0 2.876-1.697 2.849-3.529-.01-.599-.094-1.076-.102-1.289-.02-.559.157-.86.642-.86.489 0 .82-.091.82-.53 0-.607-.413-.882-.973-.882l-.002-.02zM28.92 21.736c.063 0 .089.058.087.15-.019.721-1.788 3.638-3.424 5.336.985-3.04 2.949-5.486 3.336-5.486h.001zm-13.989 7.317c.071-1.296 1.05-2.294 1.435-2.294.143 0 .21.085.21.264 0 .462-.592 1.427-1.642 2.03h-.003zm8.315-6.246c.074 0 .106.06.103.159-.013.534-1.286 2.984-2.92 4.682.858-2.754 2.256-4.84 2.816-4.84h.001zm8.942 12.546c-.126 0-.189-.086-.189-.212 0-.787 1.666-1.718 2.54-2.055-.377.64-1.76 2.268-2.353 2.268l.002-.001zm6.666.043c-.123 0-.168-.077-.168-.203 0-.695 1.51-1.772 2.382-2.108-.454.824-1.714 2.31-2.216 2.31l.002.001zm9.098-5.006c-.105 0-.265-.027-.265-.397 0-.27-.122-.568-.57-.568-.06 0-.127.005-.202.019.957-.797 1.706-1.674 2.404-2.267-.143 1.812-.555 3.213-1.37 3.213" fill="#fff"/><path d="M47.111 24.632c-.032.318-.37.46-.399.745-.017.166.095.275.291.273.502-.006 1.85-.822 1.966-2.091.06-.64-.322-1.196-.986-1.196-.672 0-1.28.662-1.337 1.218-.055.544.496.741.465 1.05zm-35 8.952c-.432-.024-.634-.564-.634-1.22 0-.72.443-2.28.619-3.018.178-.745.254-1.95-.387-2.64 2.44-1.031 6.05-4.54 6.514-5.307.464-.767.555-1.743-.086-2.23-.637-.488-1.681.148-2.298 1.08-1.696 2.567-2.72 3.82-3.876 4.876-.901.824-1.34.837-1.772.9 0 0 1.665-2.862 2.287-3.722.746-1.027-.174-1.411-1.065-.762a31.47 31.47 0 01-3.297 2.08c-3.041 1.647-3.773 2.406-3.773 3.394 0 .439.29.99.901.99 1.192 0 2.37-2.235 2.948-2.792.224-.22.745-.695.947-.695.067 0 .112.043.112.176 0 .428-.79 1.642-2.017 3.032C5.456 29.742 4 30.555 4 31.843c0 .84.601 1.295 1.251 1.295 1.37 0 2.287-1.92 2.835-2.872.219-.38 1.428-2.745 1.682-3.256.265.148.428.456.342 1.083-.163 1.128-1.12 2.495-1.12 4.4 0 1.557 1.37 2.045 1.92 2.046.508 0 1.18-.206 1.347-.74.02-.08-.005-.215-.14-.225l-.007.01z" fill="#fff"/></svg>