<!-- by TradingView --><svg width="56" height="56" fill="none" xmlns="http://www.w3.org/2000/svg"><path fill="#1D3C6D" d="M0 0h56v56H0z"/><circle cx="28" cy="28" r="28" fill="#1D3C6D"/><path d="M25.02 28v-1.332c-.387-.003-.633-.001-1.02 0 0-.481-.004-1.19 0-1.67-.512.003-1.074.002-1.585.002l.009 1.667-.924.002V28h.923c.002.403 0 .631 0 1.034v.1l-.001.076c0 .235 0 .47.004.704.013.635.29 1.315.837 1.688.48.337 1.079.4 1.653.392-.472-.482-.756-1.186-.87-1.752l-.003-.016-.002-.017a4.123 4.123 0 01-.033-.534 3.885 3.885 0 01-.008-.134c-.002-.114-.002-.229-.002-.343-.002-.458.003-.74.002-1.198.386.001.633.001 1.02 0zM21.003 25.425c-.002-.457-.002-.915 0-1.373-.757-.13-1.75-.07-2.356.46-.544.496-.656 1.442-.637 2.145h-.663V28h.67l.006.622h-.003c.002 1.123.002 2.246 0 3.37h.713c.282 0 .564 0 .846-.002-.001-1.14-.002-2.28 0-3.418L19.573 28h1.171v-1.342l-1.178-.002c.014-.309-.016-.837.235-1.066.302-.257.841-.18 1.203-.165zM15.623 31.991h1.41c-.01-1.025.004-2.123-.015-3.149-.012-.601-.156-1.268-.805-1.55-.928-.409-2.23-.239-3.22-.099-.003.435 0 .871-.001 1.307.637-.122 1.546-.327 2.176-.119.294.09.403.363.449.61-.441-.05-.889-.142-1.334-.062-.527.057-1.05.286-1.348.685a1.434 1.434 0 00.369 2.058c.668.45 1.64.402 2.32-.006-.002.063.001.261 0 .325zm-.07-1.109c-.394.108-.876.227-1.238-.017-.33-.206-.288-.703.07-.865.366-.17.793-.111 1.182-.043.035.308.032.618-.014.925zM7.778 24.999c.564.003 1.128 0 1.692 0-.826 1.166-1.634 2.346-2.465 3.507.74 1.16 1.468 2.326 2.214 3.481-.584.005-1.17-.001-1.754.004-.652-1.037-1.305-2.073-1.953-3.111a820.735 820.735 0 000 3.11c-.504-.003-1.008 0-1.512 0 .002-2.33.002-4.66 0-6.989.504-.002 1.008 0 1.512-.002-.001 1.1-.003 2.2 0 3.299.753-1.102 1.512-2.199 2.266-3.3zM9.47 27.006c.523-.003 1.046 0 1.57-.003-.002.32-.003.638-.009.957.254-.529.803-.873 1.412-.963 0 .473.007.947-.007 1.42-.667.074-1.353.534-1.378 1.2-.018.79-.003 1.582-.004 2.374L9.47 31.99v-4.984z" fill="#fff"/><path d="M38.009 30.791c-.219.08-.263.12-.525.2-.263.08-.57.08-.833 0-.832-.32-.306-1.48-.306-1.48 3.416-.76 2.934-2.44 2.014-2.52-.569 0-2.627.08-3.591 2.24-.131.32-1.051 2.6 1.007 2.76.438 0 .92-.04 1.358-.24.394-.2.701-.44.964-.76.219-.36-.088-.2-.088-.2zm-.482-3.2c.263.08-.394 1.28-.394 1.28-.263.08-.526.16-.7.16.087-.16.569-1.68 1.094-1.44zM45.98 31.278c-.044-.04-.132-.04-.175-.079-.263-.158-.044-.592 0-.829l.788-2.525c.044-.158.35-.986-.876-.828-1.051.157-1.796.75-1.796.75.088-.237.175-.593 0-.672-.219-.078-1.489.277-1.795.513-.088 0-.22.119-.088.237.131.158.175.276.088.553-.176.473-.701 2.13-.833 2.446-.13.316-.306.908 0 1.105.22.158 1.14-.197 1.27-.277a.968.968 0 00.307-.157c.175-.158-.087-.237.175-1.066 0-.04.307-.868.526-1.578.175-.592.788-.868 1.007-.907.35-.04.263.236.22.434-.307.868-.658 2.17-.79 2.486-.13.315-.35.947 0 1.065.307.197 1.709-.355 1.84-.434.263-.158.263-.237.132-.237z" fill="#FF4544"/><path d="M40.637 31.262c-.088-.04-.131-.04-.175-.08-.263-.16-.088-.603 0-.844l.832-2.572c.044-.281.219-.643 0-.763-.263-.08-1.533.28-1.84.522a.136.136 0 00-.044.241c.132.16.132.281.045.563-.132.482-.745 2.21-.877 2.532-.13.321-.306.964.088 1.085.307.2 1.62-.322 1.796-.442.306-.121.306-.242.175-.242zM40.374 25.921c.088.171.876-.171 1.27-.386.044-.043.22-.172.263-.3.088-.3.132-.429.175-.643.044-.086.044-.214-.087-.258-.175-.043-1.227.086-1.49.515-.087.171-.394.986-.13 1.072zM51.974 29.584c-.132-.457-.92-.582-1.226-.333-.176.166-.263.5-.22.582.745-.207.876.416.745.665-.263.375-.35.5-.7.5H48.25c-.044-.042-.088-.084 0-.167.131-.166 2.547-3.415 2.634-3.54.044-.083.175-.291-.131-.291h-2.54c-.263 0-.395.083-.613.291-.176.208-.285.569-.417.985 0 0 0 .166.263-.042.044-.042.131-.208.263-.208h1.415c.482 0-2.05 2.55-2.838 3.755-.132.208.087.208.219.208h3.328c.832 0 .701.124 1.139-.458 0 0 1.22-1.365 1-1.947zM33.782 30.638l.942-3.389c.613-1.96.964-2.049 1.183-2.249h-1.445c-.526 0-.92.69-1.008 1.13l-.566 1.866h-1.314s.741-2.427.829-2.707c.044-.12.044-.289-.219-.289-.044 0-2.803-.07-3.68.21-.393.12-.963.44-1.138.92-.131.28-.306.8.088 1.76.044.119.131.2.175.24.131.079 1.27-.08 1.226-.08.088 0 .132-.041.044-.2-.088-.2-.35-.56-.394-.92-.175-1.4.92-1.6 1.095-1.64.263-.04.482-.04.744 0 .088 0 .307.04.35.12.088.16-.043.44-.13.76-.088.24-.833 2.719-1.052 3.399-.131.52-.7 1.64-1.27 1.8a.98.98 0 01-.482 0c-.175-.04-.35-.12-.481-.2-.35-.32-.57-.96-.614-1.44-.043-.6.088-1.04-.043-1.04-.229 0-.992.276-1.302.478l-.001.001c-.126.082-.134.098-.134.098a.085.085 0 00-.014.017c-.081.125-.076.573-.038.846.131.6.482 1.28 1.007 1.6 1.401.88 3.854-.72 4.117-.88.394-.32.657-.76.744-1.08.132-.4.294-.778.294-.778h1.314l-.623 2.087c-.131.36-.22.96.131.92 1.314 0 1.84-.44 1.884-.48a.114.114 0 000-.16.568.568 0 01-.22-.72z" fill="#FF4544"/></svg>