<!-- by TradingView --><svg width="56" height="56" fill="none" xmlns="http://www.w3.org/2000/svg"><path fill="#043361" d="M0 0h56v56H0z"/><circle cx="28" cy="28" r="28" fill="#043361"/><path fill-rule="evenodd" clip-rule="evenodd" d="M23 32h5v2h-5v-2zM29 32h5v2h-5v-2zM35 32h5v2h-5v-2zM41 32h5v2h-5v-2zM47 32h5v2h-5v-2zM7.747 28c-.03.527-.242.603-.551.603-.602 0-.652-.683-.652-1.598 0-.966.058-1.599.676-1.599.294 0 .55.078.578.594H10c-.009-1.765-1.308-2.158-2.83-2.158-2.04 0-3.16 1.265-3.101 3.137 0 1.907.979 3.189 3.093 3.189C8.66 30.168 10 29.657 10 28H7.747zM12.017 30h-2.3l1.94-6h3.112l1.948 6h-2.485l-.234-1H12.26l-.243 1zm1.164-4.655l-.529 2.26h1.025l-.478-2.26h-.018zM19 30h-2.004v-6h3.362c1.282 0 2.036.39 2.036 1.52 0 .691-.29 1.214-1.183 1.43v.017c.578.05.893.307 1.01.765.113.445.17 1 .258 1.85l.043.418h-2.147c-.133-.828-.15-1.093-.164-1.294a3.848 3.848 0 00-.047-.426c-.049-.298-.198-.414-.579-.414h-.584V30zm0-4.752v1.13h.385c.455 0 .786-.157.786-.602 0-.436-.306-.528-.769-.528h-.401z" fill="#FFD520"/><path fill-rule="evenodd" clip-rule="evenodd" d="M23 30h2.426v-3.705c0-.478.21-.669.44-.669s.422.227.422.645V30h2.424v-3.705c0-.478.21-.669.442-.669.23 0 .42.227.42.645V30H32v-3.955c0-1.59-.732-2.186-1.744-2.186-.572 0-1.174.226-1.584 1.086-.31-.74-.871-1.086-1.643-1.086-.572 0-1.173.226-1.583 1.086h-.02l-.06-.945H23v6zM43.512 30h2.428l-1.664-3.227L45.631 24h-2.529l-.672 1.909L41.62 24h-2.53l1.474 2.773L38.94 30h2.456l1.034-2.203L43.512 30z" fill="#fff"/><path fill-rule="evenodd" clip-rule="evenodd" d="M36.121 26.354h.334v-.615c0-.295-.15-.473-.541-.473-.347 0-.532.237-.568.734h-2.309c.093-1.597 1.524-2.059 2.991-2.059 2.228 0 2.972.722 2.972 2.105V30h-2.475l-.07-.513c-.404.545-1.016.745-1.65.745-1.18 0-2.011-.638-2.011-1.809 0-1.466 1.155-2.069 3.327-2.069zm-.49 2.444c.486 0 .636-.32.636-.805v-.497h-.382c-.738 0-.901.356-.901.686 0 .378.22.616.647.616z" fill="#fff"/></svg>