<!-- by TradingView --><svg width="56" height="56" fill="none" xmlns="http://www.w3.org/2000/svg"><path fill="#DE2F38" d="M0 0h56v56H0z"/><circle cx="28" cy="28" r="28" fill="#DE2F38"/><path fill-rule="evenodd" clip-rule="evenodd" d="M43.857 18.715l.143.122V36.88L36.78 44H19.13l-7.13-7.068v-17.83L19.166 12h17.724l6.968 6.715zm-.857.737v16.993L36.345 43H19.583L13 36.514V19.486L19.583 13h16.762L43 19.452zm-1 16.61V19.867L35.904 14H19.86L14 19.741v16.392l.09.09L19.914 42H35.94L42 36.063zM21 19.3V16h-2.032v7.68h2.04L21 20.598l1.255 3.082 2.085.006a77.608 77.608 0 01-1.268-3.095v-.001l-.334-.848.874-1.813c.308-.642.617-1.283.93-1.929h-1.93L21 19.3zm14.691.727c.166.186.43.237.68.284.347.067.663.127.64.538-.207.493-.677.341-1.073.213-.125-.04-.242-.078-.341-.092l-.079.862c.609.2 1.395.26 1.984-.04.472-.361.57-.943.452-1.505-.149-.508-.573-.59-.998-.673-.248-.049-.496-.097-.691-.23-.148-.295.016-.511.212-.561.304-.128.7-.022 1.027.065.076.02.148.04.215.055l.098-.803C37.444 18 36.99 18 36.54 18c0 0-1.274.087-1.134 1.46 0 0 .053.371.285.567zm-5.063.284c-.25-.047-.514-.098-.68-.284-.232-.196-.284-.567-.284-.567-.141-1.373 1.132-1.46 1.132-1.46.453 0 .904 0 1.278.14l-.099.803a6.252 6.252 0 01-.215-.055c-.327-.087-.723-.193-1.025-.066-.197.051-.36.267-.214.563.196.132.444.18.691.229.426.083.85.165 1 .673.117.562.02 1.144-.453 1.505-.59.3-1.375.24-1.984.04l.079-.862c.099.014.216.052.341.092.396.128.866.28 1.073-.213.023-.41-.293-.471-.64-.538zm-2.041-.267L28.583 18h.825v4h-1.041c-.092-.317-.236-.703-.379-1.083-.132-.354-.263-.703-.348-.99V22h-.826v-3.96h1.022l.75 2.004zM26.665 22h-.884c-.022-.097-.036-.194-.05-.29-.023-.164-.045-.325-.107-.478h-.95c-.063.154-.086.316-.11.481a3.68 3.68 0 01-.047.287h-.885c.153-1.025.362-2.072.571-3.119.059-.294.118-.588.175-.881h1.494c.275 1.273.57 2.646.806 4h-.013zm-1.188-1.612h-.609l.279-1.083.33 1.083zM34.405 22h.897c-.236-1.354-.53-2.727-.806-4h-1.493c-.077.401-.156.8-.235 1.198A60.16 60.16 0 0032.256 22h.885c.02-.096.035-.192.048-.287.023-.165.046-.327.109-.481h.95c.062.153.085.314.108.478.014.096.027.193.049.29zm-.965-1.612h.609l-.33-1.083-.28 1.083zm-2.769 9.577l.965-1.712c.152-.235.304-.477.46-.724 1.045-1.665 2.2-3.505 4.114-4.182.418-.108.893-.09 1.161.3.232.247.236.666.172.96-.314 1.395-1.119 2.39-2.012 3.496-.124.153-.25.309-.375.467.153-.088.307-.174.461-.259.582-.322 1.16-.643 1.683-1.117.821-.935 1.555-2.258.875-3.459-.43-.564-1.09-.794-1.84-.722-2.287.457-3.967 2.505-5.271 4.375-.211.36-.44.71-.668 1.06-.333.51-.665 1.018-.94 1.552h1.167l.048-.035zm-10.024-1.776c.75.246 1.537-.018 2.216-.249l.12-.095v1.899c-.253.162-.8.264-.8.264-1.5.336-2.893-.194-3.948-1.148-.804-.92-.929-2.42-.518-3.552.045-.07.09-.143.134-.216.256-.418.52-.851.992-1.092h2.5v-.917h.346l.459.917h.84v1.433c-.769-.495-2.002-.584-2.788-.072-.553.406-.696 1.078-.625 1.697.143.495.572.954 1.072 1.131zM24.52 24h-1.132v4h1.132v-4zm4.634 1.16l.543-1.16h1.052l-1.089 1.874L29.656 28h-1.004l-.004-2.126L27.559 24h1.052l.542 1.16zM24.841 24v.918l.682.003V28h1.09l.003-3.082h.667V24h-2.442zm-3.068 6.455c-.983 0-1.894-.16-2.698-.602-.25-.102-.523-.271-.707-.386l-.104-.064c-.607.318-1.172.926-1.315 1.563-.16.813 0 1.802.804 2.297.335.272.765.34 1.195.407.464.073.927.146 1.27.477.1.198-.033.365-.154.516l-.024.03c-.965.444-2.02.02-2.876-.352-.14.556-.227 1.163-.306 1.72l-.034.242c1.036.318 2.18.6 3.377.389.84-.301 1.804-.937 1.947-1.91.197-.953-.07-1.996-.893-2.509-.308-.228-.693-.274-1.08-.32-.42-.05-.842-.1-1.171-.386-.09-.124-.09-.23-.036-.37.179-.354.607-.422.89-.436.663-.08 1.255.124 1.785.307l.166.057-.036-.67zm16.48 1.8L38.25 30.5H39V34h-.947c-.084-.284-.215-.63-.345-.97-.12-.314-.239-.624-.316-.878V34h-.75v-3.465h.929l.682 1.72zM27.38 30.5v.803l.62.003V34h.997L29 31.303h.538V30.5H27.38zm3.773 2.126V34h.858v-3.5h-.868v1.286h-.508V30.5h-.84V34h.804v-1.387l.554.013zm2.69-.126h-.662l-.042-.006v.774h.739V34h-1.537v-3.5h1.483v.642h-.643l-.036-.002v.717h.697v.643zm-7.423.514a.28.28 0 01-.274.287c-.15 0-.272-.142-.272-.301l-.004-.005V30.5H25v2.388c0 .613.497 1.112 1.11 1.112.612 0 1.11-.499 1.11-1.112V30.5h-.8v2.53-.016zm8.595.986h-.87v-3.495s1.392-.024 1.57.035c0 0 .507.15.611.57a1.248 1.248 0 01-.322 1.33c.08.256.159.504.239.752l.244.772h-.805l-.321-1.167h-.34V34h-.006zm-.03-1.854v-1.033s.522-.09.582.42c0 0 .044.583-.492.597l-.09.016zM23.443 30.5c-.705 0-1.277.784-1.277 1.75 0 .967.572 1.75 1.277 1.75.706 0 1.278-.783 1.278-1.75 0-.966-.572-1.75-1.278-1.75zm.005.558c-.244 0-.442.525-.442 1.171 0 .649.198 1.173.442 1.173s.442-.524.442-1.173c0-.646-.198-1.17-.442-1.17zm3.38 3.487h1.275c-.395.811-1.66 2.83-3.557 4.411 1.03.286 2.546.45 3.175.497-.447.32-1.665.89-2.971.625s-1.645-.314-1.652-.305c-.962.644-3.285 1.016-3.57 0-.345-1.236 2.192-1.582 4.36-.948 1.044-.849 2.395-3.207 2.94-4.28zm-6.42 4.764s.933-.354 2.005.022c0 0-1.117.596-1.943.42 0 0-.375-.156-.129-.398l.067-.044zm9.218-4.632a.503.503 0 00-.506.5c0 .275.227.499.506.499.28 0 .505-.224.505-.5 0-.275-.225-.5-.505-.5zm5.74 3.923s.156.242.543.28c.037.02.216.03.216.03l1.712-.045.507-.567s-1.362.081-1.451.081h-.18l.051-.035c.322-.39.572-.814.697-1.273.017-.085.025-.174.033-.262.025-.276.049-.544.36-.692 0 0 .028-.043-.024-.043-.052 0-.14.015-.14.015-.418 0-.76.42-.82.5-.06.08-1.268 1.012-1.268 1.012a9.431 9.431 0 00-.465.314c-.548.385-1.13.793-1.55.56-.15-.118-.057-.52.122-.715.674-.088 1.21-.332 1.733-.636.2-.151.447-.477.286-.83-.09-.248-.357-.319-.608-.283-.84.194-1.764.785-2.069 1.61l-.022.051a1.513 1.513 0 00-.097.273c-.09.08-.67.316-.834.375-.164.06-.105-.06-.105-.06.147-.243.289-.45.425-.651.23-.337.446-.653.648-1.085.054-.124.036-.336-.143-.39-.59-.096-.985.222-1.391.549l-.11.088-.031.025c-.097.051-.067-.045-.067-.045.193-.463-.01-.582-.01-.582-.124-.07-.285 0-.41.072l-2.984 2.349-.043.01c-.186.066-.149-.082-.149-.082.183-.49.477-.866.797-1.274.118-.15.24-.306.36-.473 0 0 .518-.652.54-.667H28.74l-1.08 1.362-.261.353-.05.085c-.145.246-.274.467-.056.846.188.181.523.15.787.035.538-.41 1.006-.82 1.478-1.235.28-.246.563-.494.863-.744 0 0 .097-.062.09.064l-.03.08-1.287 1.87h.744s1.66-1.973 1.943-2.127c0 0 .157-.118.245-.156 0 0 .179-.102.165 0v.03l-.023.059-1.008 1.576c-.107.212-.1.471.125.584.45.085.858-.152 1.245-.377.089-.051.176-.102.263-.148l.029.1c.053.247.25.441.482.477.84.069 1.621-.51 2.376-1.068l.087-.065c.224-.165.445-.329.664-.474 0 0 .249-.192.293-.192 0 0 .045-.03.045.021 0 0 .007.781-.648 1.171 0 0-.268.112-.476.096-.209-.014-.536.06-.38.273zm-.469-2.247c-.506.296-.804.554-1.005 1.09 0 0 1.035-.272 1.43-.58.275-.217.111-.472.111-.472-.23-.206-.536-.038-.536-.038z" fill="#fff"/></svg>