<!-- by TradingView --><svg width="56" height="56" fill="none" xmlns="http://www.w3.org/2000/svg"><path fill="#2E65B0" d="M0 0h56v56H0z"/><circle cx="28" cy="28" r="28" fill="#2E65B0"/><path fill-rule="evenodd" clip-rule="evenodd" d="M30 13.055l1-.001L31.02 32H42v1H30.021L30 13.055z" fill="#fff"/><path fill-rule="evenodd" clip-rule="evenodd" d="M28 15.055l1-.001L29.02 34H45v1H28.021L28 15.055z" fill="#fff"/><path fill-rule="evenodd" clip-rule="evenodd" d="M26 17h1l.025 19H47v1H26.027L26 17zM10 36h15v1H10v-1zM12 34h13v1H12v-1zM14 32h11v1H14v-1z" fill="#fff"/></svg>