<!-- by TradingView --><svg width="56" height="56" fill="none" xmlns="http://www.w3.org/2000/svg"><path fill="#005DAA" d="M0 0h56v56H0z"/><circle cx="28" cy="28" r="28" fill="#005DAA"/><path d="M4 26v5h6v-1H6v-4H4zM11 26.008v5h6V30h-4v-1h4v-1h-4v-1h4v-.992h-6zM24 26v3.424L20.402 26H18v5h2v-3.248L23.4 31H26v-5h-2zM33 26v3.424L29.402 26H27v5h2v-3.248L32.4 31H35v-5h-2zM38.804 26L36 31h2.09l1.981-3.41.72 1.41h-.934l-.52 1H41.4l.526 1H44l-2.854-5h-2.342zM53 31h-2.644l-2.798-2.997h1.592c.245 0 1.052-.039 1.052-.454 0-.505-.691-.549-1.052-.549H47v4h-2v-5h4.15c.851 0 3.328-.001 3.328 1.35 0 .88-.923 1.303-1.66 1.487L53 31z" fill="#fff"/></svg>