<!-- by TradingView --><svg width="56" height="56" fill="none" xmlns="http://www.w3.org/2000/svg"><path fill="#007DA4" d="M0 0h56v56H0z"/><circle cx="28" cy="28" r="28" fill="#007DA4"/><path d="M4 23h3v7.732h3V33H4V23zM16.9 31.692c0 .392.098.953.272 1.308h-2.654c-.097-.262-.135-.729-.135-.99l-.02-.02c-.33.748-1.046 1.01-1.86 1.01-1.51 0-2.15-.766-2.15-2.243 0-1.682.814-2.15 1.88-2.393l1.317-.299c.58-.13.794-.299.794-.785 0-.373-.233-.598-.543-.598-.6 0-.678.43-.678.879h-2.479c0-1.701.93-2.561 3.177-2.561 2.576 0 3.1 1.01 3.1 2.187l-.02 4.505zm-2.556-2.561c-.175.112-.388.187-.697.299-.465.168-.543.523-.543.972 0 .448.174.766.562.766.562 0 .678-.486.678-.934V29.13zM17.424 23h2.828v3.056h.039c.27-.674.987-1.056 1.743-1.056 1.976 0 2.286 1.88 2.286 3.974 0 1.75 0 4.026-2.46 4.026-1.22 0-1.511-.692-1.628-1.038h-.019v.856h-2.79V23zm3.428 4.153c-.561 0-.639.528-.639 1.913 0 1.402.097 1.93.64 1.93.561 0 .638-.528.638-1.93 0-1.385-.096-1.913-.639-1.913zM29.027 25.94c0-.413 0-1.184-.6-1.184-.756 0-.795.484-.795 3.226 0 2.814.077 3.226.794 3.226.465 0 .659-.43.659-1.63V29h2.828v.452c0 2.258-.969 3.548-3.526 3.548-3.738 0-3.738-1.936-3.738-5 0-2.975 0-5 3.738-5 3.1 0 3.468 1.56 3.468 3.047v.68h-2.828v-.788zM39.254 28.99c0 2.145-.33 4.01-3.448 4.01s-3.448-1.846-3.448-4.01c0-2.125.33-3.99 3.448-3.99 3.119 0 3.448 1.865 3.448 3.99zm-3.448 2.238c.504 0 .62-.466.62-2.237 0-1.772-.116-2.238-.62-2.238-.503 0-.62.466-.62 2.238 0 1.771.117 2.237.62 2.237zM39.7 25h2.75v1.359h.02c.27-.747.91-1.359 1.685-1.359.31 0 .387.02.484.038v2.546a1.76 1.76 0 00-.349-.038c-.135-.02-.251-.02-.542-.02-.968 0-1.2.498-1.2 1.436V33H39.7v-8zM45 25h3v1.066h-.087C48.01 25.692 48.3 25 49.54 25 52 25 52 27.32 52 29.133 52 31.265 51.67 33 49.714 33c-.755 0-1.491-.37-1.743-1.061H48V35h-3V25zm3.64 2.02c-.563 0-.64.542-.64 1.982 0 1.422.097 1.964.64 1.964.561 0 .638-.542.638-1.964.02-1.44-.077-1.982-.639-1.982z" fill="#fff"/></svg>