<!-- by TradingView --><svg width="56" height="56" fill="none" xmlns="http://www.w3.org/2000/svg"><path fill="#143264" d="M0 0h56v56H0z"/><circle cx="28" cy="28" r="28" fill="#143264"/><path d="M13 28.596c0 .304-.224.404-.566.404h-.922c-.34 0-.512-.1-.512-.404v-2.188c0-.303.171-.408.512-.408h.922c.342 0 .566.105.566.408v2.188zm-.566-3.56h-.922c-.853 0-1.545.615-1.545 1.372v2.188c0 .758.692 1.372 1.545 1.372h.922c.394 0 .753-.13 1.027-.346.318-.251.518-.618.518-1.026v-2.188c0-.757-.691-1.372-1.544-1.372zM4.5 23c-.356 0-.5.102-.5.301v6.447c0 .207.144.302.5.302.355 0 .5-.103.5-.302v-6.447c0-.207-.145-.301-.5-.301zM21.727 29.004l-1.539.001c-.34 0-.62-.249-.62-.552v-1.905c0-.302.28-.548.62-.548h1.539v3.004zM22.189 23h-.002c-.326 0-.46.106-.46.313V25h-1.539c-.85 0-1.54.621-1.54 1.376v2.255c0 .757.69 1.368 1.54 1.368 0 0 2.036.002 2.054 0 .288-.011.407-.118.407-.314v-6.372c0-.215-.133-.313-.46-.313zM32 29.004l1.376.001c.34 0 .62-.249.62-.552v-1.905c0-.302-.28-.548-.62-.548H32v3.004zM31.492 23h.002c.327 0 .506.106.506.313V25h1.454c.85 0 1.546.621 1.546 1.376v2.255c0 .757-.697 1.368-1.546 1.368 0 0-2.037.002-2.054 0-.288-.011-.407-.118-.407-.314v-6.372c0-.215.173-.313.5-.313zM28.096 23c-.335 0-.473.106-.473.314v6.378c0 .216.137.316.473.316.337 0 .473-.108.473-.316v-6.378c0-.216-.136-.314-.473-.314zM51.5 23c-.354 0-.5.101-.5.3v6.4c0 .206.146.3.5.3.356 0 .5-.103.5-.3v-6.4c0-.207-.144-.3-.5-.3zM49.507 23c-.351 0-.493.101-.493.3v6.4c0 .206.142.3.493.3.354 0 .497-.103.497-.3v-6.4c0-.207-.143-.3-.497-.3zM29.803 23c-.342 0-.482.106-.482.314v6.366c0 .216.14.315.482.315.342 0 .48-.108.48-.316v-6.364c0-.217-.138-.315-.48-.315zM41.06 25.856h2.12c.215 0 .311-.118.311-.41s-.104-.41-.31-.41h-2.12c-.598 0-1.081.49-1.081 1.096v.551c0 .508.36.98.86 1.069l1.625.303a.281.281 0 01.219.266v.552a.275.275 0 01-.272.277l-2.122-.002c-.214 0-.31.118-.31.409 0 .293.106.41.31.41l2.122.002c.598 0 1.08-.49 1.08-1.096v-.552c0-.507-.36-.979-.86-1.068l-1.624-.303a.281.281 0 01-.22-.267v-.551c0-.151.122-.276.273-.276M18.296 26.11c0-.613-.55-1.11-1.23-1.11H15.53c-.68 0-1.23.497-1.23 1.11l-.002 3.569c0 .22.133.32.461.32s.46-.108.46-.32v-3.393c0-.153.14-.28.31-.28h1.537c.17 0 .31.127.31.28v3.393c0 .22.132.32.46.32s.462-.108.462-.32v-1.411l-.002-2.158zM38.012 29.005l-1.37.002a.282.282 0 01-.28-.281v-.464c0-.153.127-.279.28-.279h1.37v1.022zm-.11-4.004L35.87 25c-.218 0-.318.216-.318.513 0 .296.108.467.318.467h1.865a.28.28 0 01.278.28v.747H36.52c-.612 0-1.106.495-1.106 1.109v.773c0 .614.494 1.11 1.106 1.11h2.075c.223 0 .412-.19.412-.415v-3.473c0-.613-.493-1.11-1.104-1.11zM24 26.274c0-.144.146-.271.316-.271h1.383c.17 0 .301.127.301.27V27h-2v-.726zM26.68 29h-2.364c-.17 0-.316-.116-.316-.27v-.732h2.572c.27 0 .428-.172.428-.417V26.11c0-.605-.518-1.11-1.197-1.11h-1.54c-.68 0-1.263.505-1.263 1.11v2.78c0 .613.584 1.11 1.263 1.11h2.417c.245 0 .354-.178.354-.473 0-.296-.12-.527-.354-.527zM45 26.274c0-.144.13-.271.3-.271h1.382c.17 0 .318.127.318.27V27h-2v-.726zM47.664 29H45.3c-.17 0-.3-.116-.3-.27v-.732h2.556c.27 0 .444-.172.444-.417V26.11c0-.605-.534-1.11-1.214-1.11h-1.54c-.679 0-1.246.505-1.246 1.11v2.78c0 .613.567 1.11 1.247 1.11h2.417c.245 0 .354-.178.354-.473 0-.296-.12-.527-.354-.527zM9.36 25.076c-.283-.066-.451.08-.508.246l-1.195 3.422-1.2-3.427c-.058-.166-.255-.319-.52-.243-.343.1-.305.366-.27.463l1.57 4.448-.204.59c0 .002-.054.231-.355.231h-.464c-.144 0-.277.049-.277.402 0 .286.106.403.366.403h.347c.426 0 .891-.087 1.115-.725l1.866-5.344c.034-.098.054-.389-.272-.466zM50 32.361c0-.248-.213-.361-.5-.361-.288 0-.5.123-.5.361v3.276c0 .25.212.36.5.36.287 0 .5-.121.5-.36v-3.276zm2 0c0-.248-.213-.361-.5-.361-.288 0-.5.123-.5.361v3.276c0 .25.212.36.5.36.287 0 .5-.122.5-.36v-3.276zm-29 .033c0-.248-.212-.361-.5-.361-.287 0-.5.122-.5.361 0 .153 0 3.243-.007 3.276 0 .249.22.36.507.36.288 0 .5-.122.5-.36v-3.276zM5 35.637c0 .239-.212.36-.5.36-.287 0-.5-.11-.5-.36v-3.276c0-.238.213-.361.5-.361.288 0 .5.113.5.361v3.276zM28.123 32.03c.356 0 .5.113.5.361v3.276c0 .239-.144.36-.5.36s-.5-.11-.5-.36v-3.276c0-.238.144-.361.5-.361zM29.81 32c.355 0 .5.113.5.361v3.276c0 .239-.145.36-.5.36-.357 0-.5-.11-.5-.36v-3.276c0-.238.143-.361.5-.361zM31.493 32c.356 0 .5.113.5.361v3.276c0 .239-.144.36-.5.36s-.5-.11-.5-.36v-3.276c0-.238.144-.361.5-.361z" fill="#fff"/></svg>