<!-- by TradingView --><svg width="56" height="56" fill="none" xmlns="http://www.w3.org/2000/svg"><path fill="#E1213A" d="M0 0h56v56H0z"/><circle cx="28" cy="28" r="28" fill="#E1213A"/><path d="M7 25h1.55v3.57h2.174V30H7v-5zm6 0h1.655l.86 2.787.858-2.787H18l-1.794 5h-1.412L13 25zm5.005 0H22v1.37h-2.47v.507h2.274V28h-2.273v.63H22V30h-4v-5h.005z" fill="#fff"/><path d="M24 25h1.435L27 27.208V25h1.588v5h-1.36l-1.704-2.306V30h-1.52v-5H24zm6.602 0h1.52l1.93 5H32.39l-.242-.665h-1.604l-.238.665h-1.638l1.935-5zm1.168 3.157l-.42-1.206-.421 1.206h.841zm2.534-1.742H33V25h4v1.415h-1.166V30H34.2v-3.585h.104zM37.418 25H39v5h-1.582v-5zm1.782 2.515V27.5c0-1.392 1.093-2.5 2.507-2.5a2.456 2.456 0 012.493 2.485v.015c0 1.392-1.093 2.5-2.508 2.5a2.455 2.455 0 01-2.492-2.485zm3.457 0V27.5c0-.57-.371-1.082-.964-1.082-.584 0-.95.508-.95 1.067v.015c0 .57.37 1.082.964 1.082.584 0 .95-.508.95-1.067zM44.412 25h1.435l1.633 2.208V25H49v5h-1.366L46 27.694V30h-1.588v-5zm-30.916-.758l-.13-.222c-.02-.037-.053-.01-.053-.01s-.108.079-.167.116c-.06.037-.054.084-.054.106 0 .026-.017.17-.017.17a.192.192 0 01-.032.073l-.96.732-.118.026-.297.143.017-.196c.021.01.053.043.075.048.027.005.07-.006.07-.006s-.016-.037-.016-.058c0-.02.005-.058.005-.058s.043.026.081.026c.027 0 .054-.01.07-.02.016-.011.033-.032.033-.032s-.054-.032-.076-.053c-.01-.016-.032-.038-.021-.038.027 0 .07-.037.07-.037s-.027-.016-.054-.037a.135.135 0 01-.049-.063l-.016-.048s.016.021.054.021c.032 0 .065-.021.065-.021s-.027-.016-.043-.032a.3.3 0 01-.044-.069.787.787 0 00-.026-.084c-.006-.016-.006-.038-.017-.075-.01-.085-.048-.122-.048-.122-.113-.148-.372-.185-.372-.185-.13-.026-.264.143-.318.313-.087.28-.06.556-.06.556s.006.053.049.08c.027.015.14.042.14.042l-.01.228-.276.02-.377-.222-.76-.556s-.033-.021-.038-.08c0 0-.016-.143-.016-.169 0-.027.005-.069-.054-.106-.06-.037-.167-.117-.167-.117s-.038-.031-.06.006l-.129.222.054.212s.022.043.06.08l.048.047.28.25h.006l.463.407.135.128s.01.015.01.042v.1s0 .022.012.038c.016.016.264.212.264.212s.016.015.016.047l.043 1.463s0 .02.022.02l.08.033.184 1.6.35 1.06-.555.265s-.022.01-.032.031c0 0-.033.064-.033.075 0 .02.016.026.016.026h.825l-.08.212-.022.058s-.027.106.016.122c.049.016.194.021.259.016.08-.005.226-.016.253-.037.022-.021.033-.122-.086-.768l-.07-2.501.21-1.569c.022-.175.043-.19.043-.19s.227-.165.248-.186c.022-.021.016-.053.016-.053v-.175c0-.031.011-.058.011-.058l.183-.175.054-.053.583-.55.102-.117.049-.048c.032-.037.054-.08.054-.08s.043-.106.059-.137c.032-.022.016-.059.016-.059z" fill="#010101"/><path stroke="#fff" d="M4.5 22.5h47v10h-47z"/></svg>