<!-- by TradingView --><svg width="56" height="56" fill="none" xmlns="http://www.w3.org/2000/svg"><path fill="#004A98" d="M0 0h56v56H0z"/><circle cx="28" cy="28" r="28" fill="#004A98"/><path fill-rule="evenodd" clip-rule="evenodd" d="M5.88 24.24c-.076-.588-.371-1.006-.984-1.224l-.1-.032-.09-.028-.088-.023-.08-.016-.069-.016-.099-.019-.038-.004v-.197h3.62l2.224 5.53.987 2.44.933-2.44 2.142-5.53h3.371v.197l-.03.004-.08.012-.118.02-.149.03c-.28.072-.5.135-.72.336l-.057.055-.046.056-.042.054-.038.052-.026.047-.027.047-.034.08-.02.062-.007.04-.004.011v9.392l.19-.339.012-.023.027-.056.046-.09.053-.114.057-.138c.199-.472.425-.925.637-1.39 1.323-2.802 2.466-5.704 3.664-8.565l.107-.248.068-.158.024-.055 2.632 6.213c.63 1.502 2.233 7.21 5.261 4.755l.058-.052.053-.051.053-.055.053-.06.05-.062.05-.067.045-.067.038-.063.035-.06.03-.066.03-.067.03-.075.028-.071.026-.079c.282-1.001.125-1.919-.693-2.576l-.099-.079-.095-.067-.092-.063-.087-.055-.076-.043-.088-.047-.095-.047-.103-.052-.229-.106-.255-.118-.274-.134-.286-.142-.148-.08-.149-.078-.148-.087-.149-.086-.187-.114-.182-.123-.092-.063-.088-.067-.087-.067-.088-.07-.084-.071-.084-.07-.08-.076c-.607-.599-1.011-1.311-.94-2.206l.019-.146.022-.142.035-.146.034-.142.046-.138c.187-.521.456-.96.845-1.347l.107-.099.11-.094.114-.087.119-.082.121-.075.126-.07.13-.068.133-.055.137-.051.14-.043.142-.04.148-.027.149-.02.149-.012.152-.004h.099l.095.004.088.008.084.008.084.012.076.011.076.015.069.016.133.035.125.04.114.043.107.047.199.087.19.079.099.03.1.025c.444.071.789-.077 1.111-.386l.046-.052.034-.047.046-.067.015-.024.332 3.034h-.332l-.007-.028-.023-.082-.042-.127-.06-.161-.04-.095-.044-.098-.05-.107-.058-.11-.06-.114-.07-.115-.075-.118-.08-.122-.088-.117-.095-.119-.103-.118-.11-.114-.119-.11-.125-.103-.133-.102-.145-.095-.149-.083-.16-.078-.167-.067-.18-.059-.186-.047-.199-.035-.205-.02-.217-.008-.153.004-.145.016-.137.02-.125.031-.118.036-.11.043-.1.048-.095.054-.084.06-.08.062-.072.067-.065.071c-.293.36-.415.81-.415 1.276v.11l.003.107.016.103.023.098.027.098.037.095.042.09c.413.758 1.31 1.128 2.05 1.438l.27.106.274.11.15.06.144.063.141.067.137.067.134.075.129.075.13.078.122.083.121.083.119.087.11.086.11.091.107.095.103.098.1.095c1.07 1.204 1.294 2.599.369 3.995l-.05.078-.053.075-.054.075-.057.075-.057.071-.06.075-.12.118-.12.118-.065.06-.069.054-.065.055-.072.056-.073.05-.072.052-.076.052-.076.047-.08.047-.08.047-.084.044-.084.043-.088.04-.087.039-.092.035-.091.036c-.993.342-1.973.264-2.96-.043l-.16-.052-.157-.051-.08-.02-.076-.02c-.5-.128-.994-.107-1.383.268l-.053.064-.046.059-.042.055-.034.051-.027.047-.034.067-.012.028-.575-1.446-1.292-3.407H18.49l-.797 1.816-.018.043-.043.11-.03.08-.03.09-.035.106-.034.11-.03.123-.027.126-.023.13c-.056.406-.052.794.221 1.123l.046.047.05.043.053.04.053.04.054.03.057.032.057.028.053.023.057.024.057.02.115.031.11.02.107.015.095.008.091.005.076.003.11-.003.042-.005v.367h-6.118v-.367l.03.008.084.016c.956.124 1.428-.716 1.428-1.726l.024-3.49V23.36l-1.84 4.854-1.672 4.341-.47 1.218-.49-1.218-1.784-4.34-1.915-4.653v7.528c.034 1.014.206 2.148 1.37 2.36l.054.004.076.008h.03v.311H4v-.311l.042.004h.11l.077-.004.087-.008.096-.016c1.256-.269 1.469-1.331 1.469-2.364v-6.832zm28.355 8.876l.122.063.122.064.118.055.122.055.118.051.118.043.118.043.115.044c2.128.662 4.727-.107 5.577-2.352.106-.286.176-.668-.164-.835l-.026-.008-.016.06a5.016 5.016 0 01-.19.546l-.069.159-.042.086c-.913 1.795-3.247 3.137-5.109 1.639l-.099-.087-.095-.09c-1.683-1.896-1.58-5.434-.777-7.73l.091-.22.099-.22.107-.21.122-.204.13-.194.14-.185.157-.173.164-.162.179-.146.19-.13.206-.114.217-.098.236-.079.248-.055.263-.039.281-.012.252.008.236.02.229.04.217.046.205.06.195.074.183.079.175.09.164.103c.512.335.9.786 1.212 1.32l.06.118.058.11.05.106.041.099.069.173.05.13.026.087.008.031h.217l-.19-3.179-.02.024-.056.067-.039.043-.05.051-.056.055-.07.055c-.327.25-.704.433-1.12.339l-.053-.011-.053-.016-.107-.04-.11-.047-.114-.047-.126-.055-.13-.051-.144-.052-.08-.027-.08-.024-.088-.02-.091-.023-.096-.016-.099-.02-.106-.011-.115-.012-.118-.012-.122-.004-.133-.004h-.137l-.149.008-.164.015-.171.024-.183.028-.19.035-.199.047-.206.055-.21.064-.213.075-.22.082-.218.095-.22.106-.222.118-.22.13-.218.142-.213.157c-2.9 2.343-2.89 7.682.499 9.597zm9.433-1.363l-.069-.114-.064-.118-.061-.122-.061-.127-.058-.125-.053-.134-.053-.134-.05-.134-.045-.142-.042-.142-.042-.146c-.394-1.518-.353-3.15.03-4.664l.073-.232.076-.23.084-.22.091-.212.1-.205.106-.197.114-.189.119-.181.125-.17.134-.16c1.23-1.348 3.19-1.432 4.5-.15l.132.15.13.16.118.17.114.181.107.189.1.197.09.205.088.212.076.22.073.23.064.232c.355 1.492.394 3.165-.022 4.652l-.042.146-.046.142-.05.142-.05.138-.052.134-.058.13-.057.13-.06.126-.065.122-.065.122-.069.114c-1.346 2.12-4.067 2.168-5.41.004zm-.9.8l.092.07.096.072.099.07a5.8 5.8 0 006.229.182l.095-.059.095-.063.096-.067.095-.067.091-.067.092-.07.118-.1.115-.102.11-.102.11-.106.103-.11.107-.111.099-.114.095-.119.096-.122.091-.122.088-.126.084-.126.083-.13.076-.134.077-.134.072-.138.065-.138.065-.141.06-.146c.596-1.515.568-3.125.012-4.653l-.114-.26-.122-.252-.138-.24-.144-.232-.156-.221-.168-.213-.179-.2-.183-.19-.194-.18-.206-.17-.21-.158-.22-.145-.229-.134-.232-.127-.24-.114-.248-.102c-1.523-.541-3.13-.52-4.61.154l-.24.118-.236.133-.229.146-.22.158-.214.165-.202.177-.198.186-.187.196-.175.205-.168.217-.156.22-.145.237-.137.24-.125.249-.111.26a6.787 6.787 0 00-.099 4.597l.057.142.061.142.061.137.069.138.069.13.072.13.08.13.08.123.084.122.087.122.088.114.095.114.096.11.098.107.1.103.106.102.107.099.11.094.11.094zm-21.044-4.341l.221.567H18.6l.217-.567 1.509-3.577 1.398 3.577z" fill="#fff"/></svg>