<!-- by TradingView --><svg width="56" height="56" fill="none" xmlns="http://www.w3.org/2000/svg"><circle cx="28" cy="28" r="28" fill="#084497"/><path fill="#084497" d="M0 0h56v56H0z"/><path fill-rule="evenodd" clip-rule="evenodd" d="M4 25v7h1.316v-4.656c0-.211-.016-.704-.065-1.488.073.493.17.9.236 1.226L6.468 32h1.349l1.006-4.998c.07-.35.17-.724.244-1.146-.041.502-.065.985-.065 1.457V32h1.413v-7H8.157l-.77 4.173c-.052.276-.13.694-.171 1.277a6.679 6.679 0 00-.155-1.237L6.03 25H4zM15.153 25.045c-.448-.175-.862-.262-1.24-.262-1.595 0-2.543 1.02-2.543 2.643 0 1.565.982 2.626 2.421 2.626.543 0 1.017-.078 1.405-.235l-.034-1.312a1.59 1.59 0 01-.922.291c-.802 0-1.302-.553-1.302-1.38 0-.845.474-1.39 1.233-1.39.284 0 .577.088.878.273l.104-1.254zM16.379 25v6.998h1.625v-3.237l1.915 3.237h2.02l-2.468-3.77L21.71 25h-1.819l-1.888 3.038V25h-1.625zM23 25.022v6.976h4v-1.347h-2.447v-1.588h2.32v-1.327h-2.32V26.33H27v-1.307h-4zM32.487 25.1a5.515 5.515 0 00-1.693-.25c-1.676 0-2.576.794-2.576 2.181 0 1.035.526 1.588 1.64 2.04.758.312 1.239.403 1.239.926 0 .462-.393.764-1.052.764-.464 0-1.016-.14-1.622-.453l-.143 1.559a6.166 6.166 0 001.863.293c1.738 0 2.647-.846 2.647-2.364 0-.654-.196-1.126-.633-1.508-.4-.342-.98-.523-1.684-.784-.384-.14-.57-.362-.57-.654 0-.412.374-.673 1.06-.673.436 0 .9.12 1.4.362l.124-1.438zM38.002 25.1a5.516 5.516 0 00-1.694-.25c-1.675 0-2.576.794-2.576 2.181 0 1.035.526 1.588 1.64 2.04.758.312 1.24.403 1.24.926 0 .462-.393.764-1.052.764-.464 0-1.016-.14-1.623-.453l-.142 1.559a6.165 6.165 0 001.863.293c1.738 0 2.647-.846 2.647-2.364 0-.654-.196-1.126-.633-1.508-.4-.342-.98-.523-1.684-.784-.384-.14-.57-.362-.57-.654 0-.412.374-.673 1.06-.673.437 0 .9.12 1.4.362l.124-1.438zM42.323 24.85c-1.917 0-3.075 1.357-3.075 3.659 0 2.302 1.15 3.65 3.075 3.65 1.916 0 3.066-1.348 3.066-3.65 0-2.302-1.15-3.66-3.066-3.66zm0 1.357c.82 0 1.408.854 1.408 2.282 0 1.437-.58 2.291-1.408 2.291-.83 0-1.418-.854-1.418-2.291 0-1.438.598-2.282 1.418-2.282zM46.57 25v7h1.426v-3.68c0-.514-.051-1.207-.162-2.072.11.533.247 1.005.418 1.417L50.036 32H52v-7h-1.426v3.973c0 .492.052 1.075.145 1.739-.187-.724-.341-1.227-.46-1.508L48.542 25H46.57z" fill="#fff"/><path fill-rule="evenodd" clip-rule="evenodd" d="M12 31h3v1.008h-3V31z" fill="#FF713D"/></svg>