<!-- by TradingView --><svg width="56" height="56" fill="none" xmlns="http://www.w3.org/2000/svg"><path fill="#0027A0" d="M0 0h56v56H0z"/><circle cx="28" cy="28" r="28" fill="#0027A0"/><path fill-rule="evenodd" clip-rule="evenodd" d="M21.58 31.688c-1.691.158-2.517-1.535-2.646-3.165-.176-2.228.913-3.109 1.966-3.206 1.608-.15 2.49 1.488 2.623 3.178.17 2.167-.835 3.089-1.943 3.193zm-3.942-3.122c0 2 1.347 3.6 3.617 3.6 2.065 0 3.561-1.554 3.561-3.694 0-1.94-1.202-3.633-3.56-3.633-2.126 0-3.618 1.619-3.618 3.727zm31.677-5.575c0-.824-.524-1.521-1.13-1.521-.568 0-.701.41-.701.652 0 .297.193.427.394.443.28.018.733.285.733.89 0 .647-.57 1.093-1.113 1.361-.072.11-.015.272.103.333.921-.299 1.714-1.064 1.714-2.158zm2.495 5.146l-.907-.508c-.586-.333-.977-.683-.977-1.248 0-.54.32-1.084 1.183-1.084.865 0 1.245.81 1.367 1.365.069.11.332.094.382-.03.008-.682-.093-1.287-.21-1.556a8.168 8.168 0 01-.444-.099c-.296-.071-.571-.138-.92-.138-1.475 0-2.303.808-2.303 1.966 0 .889.604 1.507 1.308 1.901l.658.368c.837.46 1.027.983 1.027 1.491 0 .728-.483 1.143-1.23 1.143-.982 0-1.625-1.126-1.744-1.698-.104-.145-.323-.13-.38.034 0 .838.174 1.41.307 1.63.205.157.793.492 1.684.492 1.451 0 2.389-.777 2.389-2.013 0-1.063-.661-1.73-1.19-2.016zm-15.411 3.426c-1.12 0-1.399-.508-1.399-1.52v-3.777c0-.352.012-.553.096-.62.12-.107.523-.172 1.008-.172 1.653 0 2.913 1.016 2.913 2.966 0 1.932-.863 3.123-2.618 3.123zm1.901-6.2c-.688-.255-1.407-.363-2.227-.363h-2.828c-.13.047-.148.409-.016.457l.439.063c.332.046.332.353.332 1.337V30.282c0 1.091-.038 1.154-.668 1.265l-.28.047c-.1.08-.085.352.029.396 0 0 2.165.01 3.258.01.73 0 1.55-.099 2.21-.47 1.175-.648 1.773-1.806 1.773-3.058 0-1.46-.689-2.618-2.022-3.108zm-8.85 6.325c-1.691.158-2.518-1.535-2.646-3.165-.176-2.228.914-3.109 1.965-3.206 1.609-.15 2.49 1.488 2.622 3.178.172 2.167-.832 3.089-1.941 3.193zm-.325-6.85c-2.123 0-3.617 1.62-3.617 3.728 0 2 1.346 3.6 3.617 3.6 2.064 0 3.561-1.554 3.561-3.694 0-1.94-1.2-3.633-3.561-3.633zM16.25 30.362l.007.109c.038.676.058 1.034.711 1.104l.471.044c.086.091.072.316-.029.375h-3.502c-.104-.071-.118-.284-.028-.375l.422-.044c.699-.072.699-.302.698-1.203v-6.329h-.055c-.06.093-.264.523-.485.984-.166.348-.341.714-.467.965l-1.305 2.626c-.656 1.324-1.318 2.732-1.583 3.422-.027.047-.085.061-.145.061-.028 0-.102-.014-.13-.061-.216-.678-.762-1.855-1.126-2.64l-.167-.36-1.315-2.899c-.136-.3-.27-.618-.406-.939-.175-.414-.352-.832-.534-1.221h-.03c-.043.707-.078 1.38-.113 2.045l-.032.627a75.928 75.928 0 00-.102 3.527c0 1.11.085 1.351.659 1.395l.558.044c.101.091.086.333-.017.375h-3.12c-.09-.071-.121-.299-.03-.375l.322-.044c.615-.074.82-.18.909-1.229.089-.993.161-1.817.247-3.305.066-1.114.12-2.23.162-3.345.032-.946-.088-1.14-.983-1.291l-.232-.03c-.075-.09-.06-.314.058-.374H8c-.06.584.222 1.517.674 2.476l1.67 3.468.17.356c.277.58.548 1.149.843 1.697h.028c.367-.65.71-1.372 1.05-2.085l.078-.166 1.378-2.866.18-.363c.567-1.139.906-1.82.933-2.517h2.406c.088.06.088.314.013.375l-.31.028c-.922.109-1.127.38-1.113 1.428.03 1.592.132 4.367.25 6.53zm28.367-5.36c-.148.06-.162.33-.032.408l.309.049c.355.048.323.189.103.633l-.586 1.16c-.188.383-.36.694-.535 1.01l-.169.305c-.231-.431-.45-.87-.657-1.315l-.544-1.127c-.237-.495-.188-.585.131-.666l.207-.05c.145-.077.103-.347-.017-.408h-2.593c-.115.045-.144.314-.044.409l.382.078c.379.081.529.226.834.858l1.07 2.141c.09.182.17.326.236.447.201.368.29.532.29.904v.598c0 .938-.175 1.034-.804 1.112l-.365.047c-.105.08-.091.352.029.396h3.163c.12-.044.134-.316.03-.396l-.366-.047c-.63-.078-.69-.174-.69-1.112v-.856c0-.458.03-.616.559-1.52l.908-1.588c.454-.79.527-.887.983-.984l.35-.078c.12-.078.088-.364-.026-.409h-2.156z" fill="#fff"/></svg>