<!-- by TradingView --><svg width="56" height="56" fill="none" xmlns="http://www.w3.org/2000/svg"><path fill="#472380" d="M0 0h56v56H0z"/><circle cx="28" cy="28" r="28" fill="#472380"/><path d="M23 35.94c-.608.606-1.486.808-2.036.885-1.12.154-2.28-.255-3.018-1.234-.608-.8-.92-1.836-1.512-2.664-.936-1.31-2.433-2.17-3.975-1.866-3.048.608-4.431 4.513-2.708 7.222 2.463 3.871 8.002 3.2 10.845.519.885-.834 1.711-1.762 2.404-2.862z" fill="#E51636"/><path d="M42.108 34.524c-2.217-2.674-2.91-7.12-3.047-10.075-.118-2.553.008-6.975 1.837-8.261C40.285 15.34 38.983 15 38.065 15c-2.062 0-2.962 1.51-3.667 2.597-.233.36-3.7 5.621-3.7 5.621s-2.917-4.963-3.276-5.56c-.495-.822-1.423-2.334-3.053-2.596-.193-.03-.377-.065-.698-.062-.849.009-2.098.258-2.817 1.344 1.709 1.503 1.666 5.333 1.295 7.948C21.036 32.14 18 32.862 18 32.862c1.555 4.62 5.56 2.795 6.692-.888.733-2.394 1.206-5.425 1.315-7.938l4.395 7.416s4.977-7.393 4.977-7.386C34.56 37.14 38.467 41 42.036 41 45.61 41 47 37 47 37c-1.932-.128-3.623-.944-4.892-2.476z" fill="#fff"/></svg>