<!-- by TradingView --><svg width="56" height="56" fill="none" xmlns="http://www.w3.org/2000/svg"><path fill="#F0F3FA" d="M0 0h56v56H0z"/><circle cx="28" cy="28" r="28" fill="#F0F3FA"/><path d="M23.071 43a27.293 27.293 0 01-.336-4.265c0-6.014 1.962-11.282 5.265-15.735-3.465-4.67-8.41-8.415-14.121-9.949-.95-.255-1.879.486-1.879 1.489v26.923c0 .848.675 1.536 1.507 1.536h9.564z" fill="#239DE0"/><path d="M28 23c3.304 4.453 5.264 9.72 5.264 15.736 0 1.451-.115 2.875-.335 4.264h9.565c.832 0 1.506-.688 1.506-1.538V14.54c0-1.003-.928-1.745-1.879-1.49C36.41 14.587 31.465 18.33 28 23z" fill="#99D538"/><path d="M28 23c-3.304 4.453-5.264 9.72-5.264 15.736 0 1.451.043 2.875.264 4.264h10c.22-1.39.264-2.813.264-4.264 0-6.015-1.96-11.283-5.264-15.736z" fill="#1563A9"/></svg>