<!-- by TradingView --><svg width="56" height="56" fill="none" xmlns="http://www.w3.org/2000/svg"><path fill="#F0F3FA" d="M0 0h56v56H0z"/><circle cx="28" cy="28" r="28" fill="#F0F3FA"/><path fill-rule="evenodd" clip-rule="evenodd" d="M12 17.997l4.898-4.28 4.082 3.31 3.918-3.31 3.918 3.144 3.755-3.145L37 17v8.425l-5 4.181v-9.783s-.283-2.134-3-2.134V42h-5V19.495s-.136-1.806-3-1.806V42h-5V20.337s-.245-2.837-4-2.34z" fill="#0D2F8B"/><path fill-rule="evenodd" clip-rule="evenodd" d="M40.177 23.813L32 30.6v6.62l5.272 4.635L44 36.228l-.306-.332s-1.835 1.986-3.364 1.656c-2.446-.331-3.33-1.986-3.33-4.47v-5.627s1.954 2.151 3.33 2.151c1.224 0 2.447-1.158 3.67-2.482l-3.823-3.311z" fill="#F41521"/></svg>