<!-- by TradingView --><svg width="56" height="56" fill="none" xmlns="http://www.w3.org/2000/svg"><path fill="#F0F3FA" d="M0 0h56v56H0z"/><circle cx="28" cy="28" r="28" fill="#F0F3FA"/><path d="M38 39l-10-5.75 10-5.749V39z" fill="#98D5E9"/><path d="M18 39L8 33.25l10-5.749V39z" fill="#0065A0"/><path d="M28 33.25l10-5.75V16L18 27.501l10 5.75z" fill="#00A7CE"/><path d="M48 33.25L38 27.5l10-5.749v11.5z" fill="#0065A0"/><path d="M38 39l10-5.75-10-5.749V39zM18 16.001l-10 5.75V33.25l10-5.75V16z" fill="#00A7CE"/><path d="M18 27.5l10-5.75-10-5.749v11.5z" fill="#002D73"/><path d="M18 39l10-5.75-10-5.749V39z" fill="#98D5E9"/><path d="M38 27.5l10-5.75-10-5.749v11.5z" fill="#002D73"/></svg>