<!-- by TradingView --><svg width="56" height="56" fill="none" xmlns="http://www.w3.org/2000/svg"><path fill="#EE1B2D" d="M0 0h56v56H0z"/><circle cx="28" cy="28" r="28" fill="#EE1B2D"/><path d="M39.988 17.002l-2.879 12.77-3.119-12.77-9 .028-.016 5.022c-1.06-3.97-4.495-4.994-7.974-5.05-4.241-.056-8.837 1.372-9 6.99h5.998c0-1.697 1.25-1.993 2.713-1.968 1.797-.015 2.61.492 2.65 1.688-.061 1.038-.673 1.76-2.65 1.76h-1.714v4.077h1.532c1.017 0 2.433.555 2.489 2.006.068 1.73-1.133 2.49-2.61 2.505-2.639-.098-3.32-2.33-3.32-4.077H7c.026 1.177-.043 9.074 9.5 9.017 4.572.042 7.55-1.883 8.49-4.538L24.973 39l6.017-.029V24.99l3.481 13.981h5.247l3.274-13.981-.015 13.993h5.992L49 17.002h-9.012zm-14.994 12.77c-.748-1.55-1.423-2.256-2.015-2.47 1.243-.554 1.516-1.276 2.015-2.774v5.244z" fill="#fff"/></svg>