<!-- by TradingView --><svg width="56" height="56" fill="none" xmlns="http://www.w3.org/2000/svg"><path fill="url(#paint0_linear)" d="M0 0h56v56H0z"/><circle cx="28" cy="28" r="28" fill="url(#paint1_linear)"/><path d="M19 13h-6v6h6v-6z" fill="#004F7F"/><path d="M31 13h-6v6h6v-6z" fill="#FAA61A"/><path d="M43 13h-6v6h6v-6z" fill="#8E181B"/><path fill-rule="evenodd" clip-rule="evenodd" d="M19 13h6v6h-6v-6zm0 6v6h-6v-6h6z" fill="#0084C3"/><path d="M25 19h-6v6h6v-6z" fill="#68C3EE"/><path d="M31 19h-6v6h6v-6z" fill="#F58020"/><path fill-rule="evenodd" clip-rule="evenodd" d="M31 13h6v6h-6v-6zm6 6v6h6v-6h-6z" fill="#C3262D"/><path d="M19 25h-6v6h6v-6z" fill="#76CCCD"/><path d="M25 25h-6v6h6v-6z" fill="#00B3C2"/><path d="M37 25h-6v6h6v-6z" fill="#DF9D88"/><path fill-rule="evenodd" clip-rule="evenodd" d="M31 19h6v6h-6v-6zm6 6h6v6h-6v-6z" fill="#ED1C24"/><path fill-rule="evenodd" clip-rule="evenodd" d="M25 25h6v6h-6v-6zm6 6h6v6h-6v-6z" fill="#E2C197"/><path d="M19 37h-6v6h6v-6z" fill="#00AA4F"/><path fill-rule="evenodd" clip-rule="evenodd" d="M13 31h6v6h-6v-6zm6 6h6v6h-6v-6z" fill="#75C043"/><path fill-rule="evenodd" clip-rule="evenodd" d="M19 31h6v6h-6v-6zm6 6h6v6h-6v-6z" fill="#C4D92D"/><path fill-rule="evenodd" clip-rule="evenodd" d="M37 31h6v6h-6v-6zm0 6v6h-6v-6h6z" fill="#D7A96F"/><path fill-rule="evenodd" clip-rule="evenodd" d="M25 31h6v6h-6v-6zm12 6h6v6h-6v-6z" fill="#EEE1C5"/><defs><linearGradient id="paint0_linear" x1="10.418" y1="9.712" x2="68.147" y2="76.017" gradientUnits="userSpaceOnUse"><stop stop-color="#1A1E21"/><stop offset="1" stop-color="#06060A"/></linearGradient><linearGradient id="paint1_linear" x1="10.418" y1="9.712" x2="68.147" y2="76.017" gradientUnits="userSpaceOnUse"><stop stop-color="#1A1E21"/><stop offset="1" stop-color="#06060A"/></linearGradient></defs></svg>