<!-- by TradingView --><svg width="56" height="56" fill="none" xmlns="http://www.w3.org/2000/svg"><path fill="url(#paint0_linear)" d="M0 0h56v56H0z"/><circle cx="28" cy="28" r="28" fill="url(#paint1_linear)"/><path d="M39.11 16c-1.974 0-3.828.608-5.093 1.702-1.23 1.068-1.91 2.54-1.91 4.133 0 1.755.722 3.124 2.228 4.203 1.327.952 3.083 1.567 4.774 2.154 2.94 1.026 6.062 2.788 6.062 5.409 0 1.166-.404 2.164-1.167 2.848a5.399 5.399 0 01-3.657 1.388c-2.798 0-4.82-1.798-5.963-4.758l-2.511.66c.54 1.2 1.46 2.932 2.794 4.098 1.461 1.288 3.261 2.188 5.538 2.188 2.695 0 4.756-.96 6.097-2.327C47.692 36.276 48 34.456 48 33.183c0-1.823-1.152-4.055-2.737-5.166-1.383-.974-3.174-1.602-4.916-2.188-2.839-.953-5.548-1.86-5.517-4.202.01-1.092.395-1.942 1.096-2.535.714-.603 1.802-.903 3.112-.903 1.375 0 2.53.378 3.466 1.111.859.668 1.484 1.66 1.768 2.779l2.44-.313C45.642 18.181 43.097 16 39.11 16zM8 16L8 40h3V17.91v.07L16.912 40h2.016L25 17.98v-.07V40h3V16h-4.508l-5.554 19.624v.07l-.036-.07L12.351 16H8z" fill="#fff"/><defs><linearGradient id="paint0_linear" x1="10.418" y1="9.712" x2="68.147" y2="76.017" gradientUnits="userSpaceOnUse"><stop stop-color="#1A1E21"/><stop offset="1" stop-color="#06060A"/></linearGradient><linearGradient id="paint1_linear" x1="10.418" y1="9.712" x2="68.147" y2="76.017" gradientUnits="userSpaceOnUse"><stop stop-color="#1A1E21"/><stop offset="1" stop-color="#06060A"/></linearGradient></defs></svg>