<!-- by TradingView --><svg width="56" height="56" fill="none" xmlns="http://www.w3.org/2000/svg"><path fill="url(#paint0_linear)" d="M0 0h56v56H0z"/><circle cx="28" cy="28" r="28" fill="url(#paint1_linear)"/><path fill-rule="evenodd" clip-rule="evenodd" d="M27.956 34.294L21.426 13 13 41h1.588s1.063-5.464 2.78-8.317c.958-1.512 2.414-2.747 4.367-2.7 1.36.019 2.53.697 4.015 2.743.905 1.233 2.25 4.355 2.25 4.355s1.343-3.122 2.25-4.355c1.458-2.046 2.675-2.724 4.059-2.743 1.943-.047 3.381 1.188 4.323 2.7 1.723 2.853 2.78 8.317 2.78 8.317H43l-8.426-28-6.53 21.294-.044.043-.044-.043z" fill="#fff"/><defs><linearGradient id="paint0_linear" x1="10.418" y1="9.712" x2="68.147" y2="76.017" gradientUnits="userSpaceOnUse"><stop stop-color="#1A1E21"/><stop offset="1" stop-color="#06060A"/></linearGradient><linearGradient id="paint1_linear" x1="10.418" y1="9.712" x2="68.147" y2="76.017" gradientUnits="userSpaceOnUse"><stop stop-color="#1A1E21"/><stop offset="1" stop-color="#06060A"/></linearGradient></defs></svg>