<!-- by TradingView --><svg width="56" height="56" fill="none" xmlns="http://www.w3.org/2000/svg"><path fill="#068566" d="M0 0h56v56H0z"/><circle cx="28" cy="28" r="28" fill="#068566"/><path fill-rule="evenodd" clip-rule="evenodd" d="M20.183 13.15a.5.5 0 01.926-.023l5.73 13.173a.5.5 0 01-.459.7h-3.052a.5.5 0 01-.459-.301l-1.531-3.538a.5.5 0 00-.929.027l-4.443 12.14a.5.5 0 00.47.672H25.5a.5.5 0 00.5-.5v-2a.5.5 0 00-.5-.5h-5.382a.5.5 0 01-.475-.654l.974-3a.5.5 0 01.476-.346h14.115a.5.5 0 01.478.354l.913 3a.5.5 0 01-.479.646H30.5a.5.5 0 00-.5.5v2a.5.5 0 00.5.5h9.14a.5.5 0 00.472-.667L35.77 23.047a.5.5 0 00-.926-.044l-1.71 3.706a.5.5 0 01-.454.291h-3.09a.5.5 0 01-.453-.713l6.15-13.077a.5.5 0 01.921.04l9.546 26.078a.5.5 0 01-.47.672h-34.56a.5.5 0 01-.467-.677l9.926-26.174z" fill="#fff"/></svg>