<!-- by TradingView --><svg width="56" height="56" fill="none" xmlns="http://www.w3.org/2000/svg"><path fill="#3D90C3" d="M0 0h56v56H0z"/><circle cx="28" cy="28" r="28" fill="#3D90C3"/><path d="M45 38.81V14H11v29.375s3.029-2.866 7.195-3.148c5.955-.401 8.417 2.578 14.065 3.564 6.91 1.205 11.425-3.144 12.48-4.403.26-.325.217-.41.25-.482l.01-.095z" fill="#FAF7F7"/><path d="M21.103 30L16 23.64V30h-2V20h2.054L21 26.156V20h2v10h-1.897zM19.079 36.316c-2.317.129-3.293.414-4.393.97-.182.08-.368.203-.592.306-.195.086-.037-.325.031-.425a1.88 1.88 0 01.499-.487c2.468-1.694 7.913-2.284 12.35-.941 4.768 1.442 10.223 3.089 14.386.288 0 0 .24-.156.364-.232.158-.103.24-.103.258-.026.065.242-.041.487-.478.838-.491.395-.244.242-1.182.822-1.77 1.094-4.115 1.989-8.27 1.366-5.294-.789-7.38-2.791-12.973-2.48zM35 30V20h2v8h5v2h-7zM24.5 25.029c0 2.777 2.13 4.971 5 4.971 1.88 0 2.995-.662 4-1.726l-1.367-1.369c-.767.693-1.449 1.133-2.564 1.133-1.672 0-2.822-1.382-2.822-3.04v-.027c0-1.655 1.18-3.01 2.822-3.01.974 0 1.742.414 2.496 1.093l1.366-1.563C32.522 20.607 31.42 20 29.583 20c-2.994 0-5.083 2.252-5.083 4.998v.031z" fill="#3D90C3"/></svg>