<!-- by TradingView --><svg width="56" height="56" fill="none" xmlns="http://www.w3.org/2000/svg"><path fill="#00ADEF" d="M0 0h56v56H0z"/><circle cx="28" cy="28" r="28" fill="#00ADEF"/><path d="M23 19.567c1.872-1.858 3.161-3.371 6.01-3.371 4.574 0 5.99 4.063 5.99 8.028v15.098c0 1.661-2.851 1.593-4 1.678v.998h13V41c-.95-.097-4-.056-4-1.492v-17.71c0-4.688-1.777-9.583-7.231-9.583-4.543 0-7.507 3.288-9.769 6.782M21 20.714V39.36c.084.416.24.714.447.9.209.189.46.323.75.409C22.91 40.868 25 41 25 41v1H12v-1c.959-.086 2.104-.294 2.79-.581.687-.293 1.21-.766 1.21-1.433V18.251c0-1.107-1.33-1.6-2.115-2.023-.5-.271-1.385-.51-1.885-.718v-.373L20.574 12H21v8.714z" fill="#fff"/></svg>