<!-- by TradingView --><svg width="56" height="56" fill="none" xmlns="http://www.w3.org/2000/svg"><path fill="#EE3229" d="M0 0h56v56H0z"/><circle cx="28" cy="28" r="28" fill="#EE3229"/><path d="M37 29a8 8 0 01-14.15 5.116c1.09.135 2.644.007 4.855-.664 3.257-.99 6.017-3.376 7.619-5.499a6.833 6.833 0 00-.087-.479c-1.839 1.864-4.688 3.822-7.543 4.531-4.635 1.153-6.006-.216-6.374-.835l-.044-.085A8 8 0 1137 29z" fill="#fff"/><path fill-rule="evenodd" clip-rule="evenodd" d="M35.001 37A9.985 9.985 0 0039 29a9.985 9.985 0 00-3.999-8H42v5.962L45.066 21H51l-9 16h-6.999zM22.999 21A9.985 9.985 0 0019 29a9.985 9.985 0 003.999 8H16l-3.125-5.962V37H7V21h5.925L16 26.962V21h6.999z" fill="#fff"/></svg>