<!-- by TradingView --><svg width="56" height="56" fill="none" xmlns="http://www.w3.org/2000/svg"><path fill="url(#paint0_linear)" d="M0 0h56v56H0z"/><circle cx="28" cy="28" r="28" fill="url(#paint1_linear)"/><path fill-rule="evenodd" clip-rule="evenodd" d="M26 24H9v1h16.663l-.338 1H9v1h15.988l-.338 1H9v1h15.313l-.337 1H9v1h14.638l-.337 1H9v1h17.5l2.041-5.034L31.061 33H34.5l.841-2.524C35.38 31.657 36.267 33 40.61 33h.266c4.688 0 5.596-1.514 5.596-2.969 0-1.666-.69-2.64-4.19-2.734l-.945-.023c-1.187-.035-1.442-.223-1.442-.54 0-.329.194-.634 1.635-.634h.085c1.502 0 1.55.481 1.55.763h3.803c.194-1.431-.387-2.863-5.195-2.863h-.558c-1.991 0-3.24.335-3.995.838L37.5 24h-3.525l-1.764 5-2.832-5H26zm9.525 5.926h3.74c0 .305 0 .903 1.55.903h.074c1.538 0 1.78-.352 1.78-.68 0-.329-.255-.587-1.514-.622l-.92-.024c-2.585-.075-3.639-.76-3.95-1.857l-.76 2.28z" fill="#fff"/><defs><linearGradient id="paint0_linear" x1="10.418" y1="9.712" x2="68.147" y2="76.017" gradientUnits="userSpaceOnUse"><stop stop-color="#1A1E21"/><stop offset="1" stop-color="#06060A"/></linearGradient><linearGradient id="paint1_linear" x1="10.418" y1="9.712" x2="68.147" y2="76.017" gradientUnits="userSpaceOnUse"><stop stop-color="#1A1E21"/><stop offset="1" stop-color="#06060A"/></linearGradient></defs></svg>