<!-- by TradingView --><svg width="56" height="56" fill="none" xmlns="http://www.w3.org/2000/svg"><path fill="#08090D" d="M0 0h56v56H0z"/><circle cx="28" cy="28" r="28" fill="#08090D"/><path d="M35.46 28.945c-.137 0-.191-.159-.035-.34.498-.355.693-.465.72-.479.321 0-.294.819-.685.819zm16.346-1.79a.581.581 0 00-.086-.06l-.02-.015c-.25-.162-.523-.09-.523-.09s.052.094-.202.303a.32.32 0 00-.037.035l-.022.018a8.01 8.01 0 01-3.443 1.613c.416-.246 1.4-1.183.716-1.688-.398-.295-1.106-.166-1.773.172.077-.126.26-.393.187-.715-.074-.321-.686-.414-1.025-.293-.011.332-.064.51-.121.582-1.497 1.325-3.455 2.03-3.616 1.868-.13-.13.308-.647.453-.854a.51.51 0 00.039-.538c-.134-.247-.386-.261-.85-.16-.642.11-1.097-.12-1.48-.708-.189-.288-.646-.23-.882-.073a.956.956 0 01-.013.566c-.393.918-1.582.924-2.032.613-.064-.193-.233-.548-.572-.6-1.05-.161-1.41.486-1.582.684-.373.428-2.896 1.538-3.486 1.056-.434-.354-.07-1.645.76-2.938 1.228-1.95 1.784-1.928 1.98-1.73.122.122.24.392-.006.87a3.878 3.878 0 01-.053.099c-.424.7-.59.665-.59.665-.138.42.039.65.17.755.142.14.346.093.408.071.208-.072.337-.255.456-.441.594-.926.964-2.399-.008-2.931-.697-.382-1.87.133-3.167 2.247-1.152 1.878-1.478 3.357-.647 4.058 1.011.853 3.137-.273 3.836-.599-.019.143.036.856.738.816.9-.053 1.456-.832 1.695-1.23.35.204 1.885.497 2.816-.91.1.085.66.496 1.408.496-.264.486-.604 1.07-.102 1.47.705.562 3.12-.79 3.825-1.206-.4.731-1.096 2.386-1.798 3.853-.289.604-.691 1.416-.267 1.632.33.168.824-.005.898-.44.098-.569.644-2.155 1.031-3.013.736-1.647 1.398-2.5 2.516-2.5-.07.135-.09.24-.462.613-.404.408-.857.384-.834.824.014.258.277.331.35.351.584.158 2.198-.324 2.84-.56.737-.27 1.74-.766 2.482-1.242.35-.225.383-.552.095-.796zm-25.2-1.654c-.621.046-1.372.253-1.65.88-.231.518-.05 1.065.434 1.679.31.38.594.705.675.793-.223.047-.71.03-1.197-.06h-.006a4.749 4.749 0 01-.331-.074c-.276-.088-.352-.2-.352-.2l-.04.03v-.002l.04-.027c-.186.025-.341.156-.451.3-.11.143-.223.422-.127.556.082.113.244.176.553.186.477.023 1.763.194 2.238.248.367.04.614-.227.686-.403.097-.235-.003-.494-.126-.637-.61-.709-1.465-1.483-1.155-2.13.142-.297.829-.238 1.055-.17.484.145.724-.031.834-.357.07-.21-.056-.689-1.08-.612zm-12.577.816c.087.087-.098.284-.261.39-.448.292-.899.462-1.22.581.349-.718 1.359-1.142 1.481-.971zm10.37 1.569c.244-.138.341-.422.146-.657-.195-.236-.58-.216-.753-.111-.144.087-.311.238-.808.264-.468.024-.656-.178-.951-.178-.33 0-.464.233-.873.746-.208.26-.677.86-.89.86-.183 0-.252-.525-.252-1.209 0-.31-.136-.563-.488-.539-.292.02-.341.402-.494.581-.458.537-.827 1.062-1.014 1.062-.23 0-.32-.507-.32-.898 0 0 .072-.617-.484-.725-.242-.047-.493.088-.493.088.023.046.03.095.025.143-.07.259-.554.629-.554.629-.517.38-1.55 1.051-2.48 1.1-1.088.059-1.278-.516-1.316-.767.937-.346 1.562-.74 1.966-1.056.43-.335.713-.705.688-1.068-.034-.49-.477-.668-.829-.668-.756 0-2.01.328-2.614 1.995-.13.042-.438.044-.602.001-.22-.057-.216-.151-.216-.151-.205.053-.293.154-.365.332-.116.286.037.532.271.663.17.095.438.155.817.11.053.506.387 1.428 2.168 1.358 1.414-.055 3.07-1.225 3.218-1.317.063.292.263 1.34.864 1.34.722 0 1.463-1.084 1.463-1.084s.189 1.09.914 1.09c.606 0 1.366-.947 1.555-1.173.158-.188.464-.55.632-.55.164-.027.488.191 1.418.005.021-.005.441-.099.65-.216zm-11.53-5.262c.065-.173.008-.384-.098-.464-.355-.268-.676-.119-.917.146-.282.311-.648.985-.803 1.237-1.424 2.313-2.51 4.786-2.51 4.786s-.377-1.151-.43-2.066c-.048-.863-.087-1.686-.124-2.09-.012-.16-.08-.413-.36-.506-.217-.071-.532-.099-.754-.017-.017.276-.029.409-.143.735-.114.325-.848 1.761-.973 1.984-.638 1.143-1.48 2.565-1.53 2.657-.172.32-.41.756-.001.91.408.155.766.073.943-.19.034-.05.08-.145.08-.145s-.118-.099.136-.695c.076-.158.166-.341.267-.544l.061-.111c.03-.055.052-.103.068-.147.42-.832.978-1.906 1.476-2.847-.003.548.042 1.226.117 1.718.114.96.348 1.366.435 2.132-.017.518.034.607.409.711.35.097.555 0 .687-.326.507-1.286 1.963-4.24 3.2-5.843.13-.168.622-.649.764-1.026z" fill="#fff"/></svg>