<!-- by TradingView --><svg width="56" height="56" fill="none" xmlns="http://www.w3.org/2000/svg"><path fill="#004B8D" d="M0 0h56v56H0z"/><circle cx="28" cy="28" r="28" fill="#004B8D"/><path d="M7.473 26h.79c.48 0 1.017.132 1.017.76 0 .537-.31.896-1.242.896h-.876L7.472 26zM4 32h2.287l.48-2.431H8.32c1.976 0 3.247-1.375 3.247-2.99 0-1.762-.903-2.579-2.287-2.579H5.581L4 32zM14.39 26.73l.283 2.27h-1.44l1.158-2.27zM9.45 32h2.371l.593-1h2.457l.113 1h2.287l-1.215-8H13.77l-4.32 8zM16.565 24h2.315l.734 2.968L21.45 24h2.711l-3.67 5.03-.565 2.97h-2.316l.565-2.94-1.61-5.06z" fill="#fff"/><path d="M29.694 29c-.141.807-.734 3.17-3.868 3.17-2.174 0-3.247-1.495-3.247-3.617 0-2.57 1.524-4.722 4.066-4.722 1.666 0 3.162.777 3.218 3.168h-2.145c.028-.747-.311-1.166-1.045-1.166-1.299 0-1.75 1.555-1.75 2.69 0 .658.14 1.674 1.213 1.674.735 0 1.13-.51 1.3-1.197h2.258zM33.901 32l.543-3h-2.118l-.542 3h-2.316l1.581-8h2.316l-.639 3h2.118l.638-3h2.316l-1.553 8H33.9zM52 24h-2.739l-1.496 2.072L47.03 24h-8.612l-1.581 8h8.668l1.75-2.252.82 2.252h2.597l-1.835-4.225L52 24zm-8.696 7.242L43.558 30h-3.981l.197-1h3.614l.367-2h-3.614l.198-1h3.897l.338-1.81 1.638 3.526-2.908 3.526z" fill="#fff"/></svg>