<!-- by TradingView --><svg width="56" height="56" fill="none" xmlns="http://www.w3.org/2000/svg"><path fill="#F0F3FA" d="M0 0h56v56H0z"/><path d="M39.708 24.935c-1.444-2.125-6.942-2.8-13.532-1.462-3.016.614-5.974 1.618-8.037 2.731l-.011-.005c2.162-1.444 5.46-2.726 9.295-3.51 6.804-1.39 12.663-.613 13.766 1.744a1.357 1.357 0 00-.912.07c-.24.1-.433.254-.57.432zm-3.5 5.207c-2.054 1.104-4.813 2.203-7.793 2.844-7.165 1.544-13.81.886-13.97-1.818-.022-.389.083-.808.33-1.052-.39.074-1.033 0-1.325-.137-.357.513-.498 1.193-.377 1.75.614 2.827 6.86 3.59 14.024 2.046 3.716-.8 6.955-2.182 9.117-3.626 0 .004-.006-.007-.006-.007zm5.211-5.029c-.13-.306-.57-.411-.982-.235-.411.176-.638.563-.508.869.13.305.571.411.982.235.414-.174.64-.565.508-.869z" fill="#9D2235"/><path d="M12.665 28.278c.367-1.43-.25-1.988-1.341-1.988-1.08 0-1.942.63-2.166 1.669-.271 1.256.29 2.04 1.494 2.04.512 0 .858-.097 1.124-.23.354-.184.664-.514.796-.938h-1.155c-.112.305-.333.47-.681.47-.432 0-.582-.484-.432-1.021h2.361v-.002zm-2.195-.667c.111-.373.322-.671.731-.671.424 0 .495.372.426.67H10.47zm15.61.667c.366-1.43-.252-1.988-1.342-1.988-1.079 0-1.94.63-2.165 1.669-.27 1.256.223 2.04 1.427 2.04.512 0 .858-.097 1.124-.23.353-.184.664-.514.796-.938h-1.155c-.15.438-.48.47-.681.47-.337 0-.516-.484-.365-1.021h2.36v-.002zm-2.196-.667c.112-.373.322-.671.731-.671.425 0 .495.372.426.67h-1.157zm23.026.667c.366-1.43-.251-1.988-1.341-1.988-1.08 0-1.941.63-2.166 1.669-.27 1.256.271 2.042 1.475 2.042.512 0 .856-.098 1.122-.232.353-.183.666-.513.796-.937h-1.155c-.112.305-.333.47-.681.47-.337 0-.564-.485-.415-1.022h2.365v-.002zm-2.195-.667c.113-.373.321-.671.73-.671.425 0 .496.372.427.67h-1.157zm-27.925.649c.259-1.21-.552-1.97-1.583-1.97-1.16 0-1.974.704-2.253 1.97-.266 1.208.515 1.74 1.546 1.74 1.165 0 2.002-.445 2.29-1.74zm-2.136 1.02c-.526 0-.519-.557-.418-1.022.098-.465.446-1.258.97-1.258.525 0 .403.793.302 1.258-.098.467-.329 1.021-.854 1.021zm3.991-2.892h-1.248L16.427 31h1.249L18 29.5c.13.33.5.5.868.5.899 0 1.598-.651 1.926-2.017.205-.86-.065-1.695-1.044-1.695-.485 0-.86.176-1.19.563h-.014l.099-.463zm-.352 1.641c.13-.58.4-.982.819-.982.324 0 .547.282.39.982-.165.745-.388.977-.801.977-.32 0-.553-.278-.408-.977zM21.748 30l1.249-5h-1.249L20.5 30h1.248zm4.547-3.304h.893l1.057-1.565H27.01l-.715 1.565zm13.53-.307l-.774 3.61H40.3l.775-3.61h-1.249zm3.723.739l.162-.74h-.675l.228-1.04h-1.248l-.229 1.04h-.469l-.162.74h.47l-.406 2.082c-.103.463.173.79.922.79.399 0 .681-.058.852-.15l.159-.71c-.495.148-.668-.006-.627-.197l.348-1.813h.675v-.002zm-35.372-.669c.061-.289-.104-.446-.443-.446h-.677l-.19 1.015s.363.007.75.007c.389-.002.5-.287.56-.576zM8.206 25c.653 0 1.458.406 1.242 1.453-.232 1.13-.835 1.578-1.862 1.578H6.65L6.3 30H5l.977-5h2.229zm20.47 2.41h1.177c.147-.83-.398-1.122-1.318-1.122-.919 0-1.598.33-1.74 1.011-.122.593.213 1.044 1.013 1.283.55.165.668.275.625.45-.052.214-.232.27-.446.27s-.411-.147-.331-.445c0 .005-1.163 0-1.163 0-.214.811.25 1.158 1.28 1.158 1.218 0 1.682-.378 1.849-.958.177-.615-.113-.975-.973-1.171-.564-.128-.709-.45-.662-.663.031-.14.152-.226.392-.226.236.006.346.176.298.413zm20.954.63c.16-.746-.047-1.035-.367-1.035-.413 0-.647.256-.801.898-.187.771.046 1.082.351 1.082.367 0 .657-.198.817-.944zM51.644 25l-1.134 5h-1.246l.236-.794c-.333.441-.823.795-1.308.795-.979 0-1.22-1.062-1.044-1.925.212-1.04.867-1.787 1.926-1.787.46 0 .757.162.835.438h.013L50.398 25h1.246zm-14.643 1.375h-1.222l-.792 3.623h1.249l.525-2.384c.072-.322.258-.515.645-.515.302 0 .428.167.374.488L37.252 30H38.5l.551-2.538c.154-.726-.178-1.184-.934-1.184-.42 0-.824.13-1.178.458l.062-.361zm-2.661-1.377s-.701 3.053-.774 3.394a.832.832 0 01-.837.698c-.296 0-.672-.172-.556-.708.124-.576.77-3.382.77-3.382h-1.28s-.634 2.693-.776 3.35c-.193.896.268 1.65 1.684 1.65s2.07-.597 2.29-1.62c.155-.715.776-3.38.776-3.38H34.34v-.002z" fill="#002D72"/></svg>