<!-- by TradingView --><svg width="56" height="56" fill="none" xmlns="http://www.w3.org/2000/svg"><path fill="#1C65C5" d="M0 0h56v56H0z"/><circle cx="28" cy="28" r="28" fill="#1C65C5"/><path d="M7 28v-2.5h1.016c.63 0 1.141.57 1.141 1.28 0 .712-.51 1.22-1.14 1.22H7zm-3-5v10h3v-2.407l1.84-.002c1.853 0 3.356-1.695 3.356-3.786 0-2.09-1.503-3.805-3.356-3.805H4zM14.89 23l-4.887 10h3.311l1.197-2.433H17V33h3V23h-5.11zM17 28h-1.268L17 24.89V28zM37.35 23l-2.923 6c-.306.647-.91 1.087-1.605 1.087-1.004 0-1.818-.918-1.818-2.052 0-1.132.814-2.05 1.818-2.05.778 0 1.442.551 1.701 1.327l1.56-3.199c-.852-.902-2-1.456-3.261-1.456-1.527 0-2.887.81-3.759 2.07a5.566 5.566 0 00-.421.721l-1.262 2.587-.47.965c-.307.647-.91 1.087-1.605 1.087-1.004 0-1.819-.918-1.819-2.052 0-1.132.815-2.05 1.819-2.05.778 0 1.442.551 1.7 1.327l1.56-3.198c-.852-.903-1.999-1.457-3.26-1.457-2.633 0-4.766 2.408-4.766 5.378s2.133 5.378 4.766 5.378c1.526 0 2.886-.81 3.758-2.07.872 1.26 2.232 2.07 3.759 2.07 1.821 0 3.403-1.152 4.206-2.846H40V33h3V23h-5.65zM40 28h-1.778L40 24.889v3.11zM47 28v-2.506h1.017c.63 0 1.14.577 1.14 1.287 0 .711-.51 1.219-1.14 1.219H47zm5.414 5l-1.723-3.506c.798-.65 1.317-1.706 1.317-2.9 0-1.975-1.418-3.594-3.167-3.594H44v10h3v-2.407l.916-.001L49.102 33h3.312z" fill="#fff"/></svg>