<!-- by TradingView --><svg width="56" height="56" fill="none" xmlns="http://www.w3.org/2000/svg"><path fill="#F35E19" d="M0 0h56v56H0z"/><circle cx="28" cy="28" r="28" fill="#F35E19"/><path d="M12 28c0-8.835 7.166-16 16-16s16 7.165 16 16-7.166 16-16 16-16-7.165-16-16z" fill="#fff"/><path d="M25.834 23.942l-6.09-8.284 2.599 5.459-4.844-3.613 6.944 7.578-8.781-5.325 4.475 4.041-5.853-1.471 9.306 4.342-10.16-1.559 5.697 2.02-5.972.877 10.264.45-9.975 2.445 6.024-.307-5.184 3.095 9.66-3.517-8.295 6.08 5.46-2.595-3.597 4.844 7.574-6.944-5.33 8.788 4.043-4.477-1.482 5.853 4.344-9.312-1.562 10.153 1.969-5.686L28 42.85V32.605l2.887 9.961-.302-6.028 3.098 5.18-3.517-9.65 6.077 8.28-2.6-5.452 4.844 3.606-6.93-7.574 8.78 5.328-4.475-4.041 5.854 1.478-9.306-4.346 10.146 1.562-5.683-2.022 5.972-.877-10.251-.452 9.962-2.441-6.025.307 5.185-3.098-9.647 3.51 8.282-6.07-5.46 2.586 3.61-4.841-7.574 6.934 5.329-8.781-4.043 4.474 1.47-5.856L29.34 23.6 30.9 13.443l-2.022 5.687-.88-5.975-.445 10.263-2.442-9.981.302 6.029-3.098-5.184" fill="#F35E19"/></svg>