<!-- by TradingView --><svg width="56" height="56" fill="none" xmlns="http://www.w3.org/2000/svg"><path fill="#007DC3" d="M0 0h56v56H0z"/><circle cx="28" cy="28" r="28" fill="#007DC3"/><path d="M48 28.012C48 34.624 39.042 40 28.012 40c-3.243 0-6.338-.476-9.033-1.284l3.544-12.583h1.721l-1.958 5.56h2.545l2.198-6.462h-4.267l1.333-4.76c.175-.618.848-1.521 1.797-1.521.548 0 1.247.261 1.272.594-.724 0-1.298.642-1.298 1.356 0 .713.6 1.284 1.298 1.284.45 0 1.497-.5 1.447-1.593-.025-.666-.449-2.022-2.72-2.07-2.645-.047-4.466 2.189-5.115 4.448-.374 1.356-1.347 4.567-2.146 7.493l-2.096 7.35C11.369 35.647 8 32.056 8 27.988 8 21.376 16.958 16 27.988 16 39.041 16.024 48 21.376 48 28.012zm-35.068 3.657l.907-2.896c4.242.071 5.066-.928 5.664-3.449.425-1.784-.609-2.863-2.455-2.863h-5.066l-.172.924h1.122l-2.595 8.307h2.595v-.023zm2.687-8.284c1.323-.048 1.565.318 1.165 1.915-.674 2.688-1.346 2.7-2.593 2.7l1.428-4.615zm31.258 3.057c0-.737-.574-1.308-1.273-1.308-.573 0-1.372.357-1.92 1.237l.507-1.14h-3.469l-.341.923h.923l-1.875 5.538h2.545l1.135-3.323c.374-1.047 1.073-2.26 1.273-2.093-.225.998.549 1.522 1.223 1.522.698-.024 1.272-.619 1.272-1.356zm-11.734 2.481h4.267c.025-.095.031-.316.056-.435.474-2.117-.672-3.257-2.418-3.257-1.897 0-3.646.402-4.394 3.257-.5 1.902.592 3.157 2.489 3.204 1.697.048 3.275-.136 4.074-2.324H36.62l-.13.279c-.396 1.122-.724 1.237-1.173 1.237-.45 0-.651-.576-.5-1.237l.325-.724zm.455-1.886c.2-.69.624-1.261 1.173-1.237.549 0 .674.547.5 1.237l-.282.963h-1.671l.28-.963zm-3.788 3.732h-2.171l3.8-5.538H28l-.476.923h2.17l-3.599 5.538h5.39l.325-.923z" fill="#fff"/></svg>