<!-- by TradingView --><svg width="56" height="56" fill="none" xmlns="http://www.w3.org/2000/svg"><path fill="#4BA0DA" d="M0 0h56v56H0z"/><circle cx="28" cy="28" r="28" fill="#4BA0DA"/><path fill-rule="evenodd" clip-rule="evenodd" d="M21.682 28.168c-.007.046.008.08-.016.1-.003-.021-.006-.018-.01-.053-.02-.275-.049-.94.05-1.235.135.319.027.801-.024 1.188zm6.306-7.384c1.031 0 1.936.186 2.717.525l-.03-.455c-.783-.308-1.678-.475-2.687-.475-1.01 0-1.904.167-2.686.475l-.03.455c.78-.34 1.684-.525 2.716-.525z" fill="#fff"/><path fill-rule="evenodd" clip-rule="evenodd" d="M28.028 20.041c1.013 0 1.914.157 2.708.447l.15-.488c-.84-.299-1.792-.46-2.858-.46-1.065 0-2.016.162-2.857.46l.15.488c.794-.29 1.695-.447 2.707-.447zm3.84 15.803c.019-.023.074-.052.145-.095.381-.23 1.204-.143 1.544-.078.465.088.636-.086.764-.248.363-.46-.235-.982-.475-1.372l-.453-.55c.093-.287.361-.705.421-.791.06-.087.114-.005.091.083-.023.086-.145.45-.069.698.038.15.194.288.324.357.063.22.205.44.413.55.351.03.482.477.53.743.087.49-.301.907-.462.968-.288.11-.884-.036-1.21-.075-.164-.02-1.451-.166-1.497-.175-.007-.001-.048-.005-.067-.015zm-9.037-2.266c.046.108.06.112.027.212-.171.526-.379.867-.553 1.047 0 0-.261-.31-.309-.604.184-.382.447-.723.502-1.16.1.168.245.306.333.505zm1.567 2.463c-.032.01-.08-.005-.1.003-.318.115-2.122.23-2.445.282-.04.007-.288-.104-.324-.208-.037-.104-.113-.365.041-.383.289-.031.567-.033.743-.008.105.015.236.096.338.111.366.054 1.15-.155 1.582.1.076.044.133.061.165.103zm22.057-8.645c-.02.033-.08.078-.12.114-.068.059-.299.113-.51.052-.4-.117-.606-.599-.631-.977-.012-.166-.015-.31.092-.238.034.022.102.075.187.142.028.022.197.082.16-.106-.104-.525.164-1.08.155-1.668.23.05.51-.024.613.223.127.658-.16 1.454-.284 1.873-.063.209.066.415.235.533.032.022.066.04.103.052zm-2.067-.31c.008.513.123.973.378 1.303.185.239.288-.09.546.072-.307.392-.038.917-.32 1.339-.211.316-.256.175-.368.575-.16.566-.578 1.186-1.259 1.426-.529.185-1.197-.188-1.504-.403-.096-.067-.049-.104.103-.469.034-.083.104-.033.215.04.423.276 1.173.23 1.504-.083.285-.27.498-.789.475-1.133-.022-.344-.247-.7-.541-.838a1.043 1.043 0 00-1.043.143c-.143-.11-.103-.346-.05-.52a.751.751 0 01.399-.456c.176-.076.553.159.427-.168-.158-.406-.253-1.075.178-1.555.133.363.347.91.388 1.28.011.117.107.154.14.053.062-.182.122-.443.332-.606z" fill="#fff"/><path fill-rule="evenodd" clip-rule="evenodd" d="M38.216 33.197c-.065.015-.165.057-.234.054-1.02-.043-2.112-.013-2.557 1.032-.058.138.006.33-.131.331-.115.001-.237-.167-.273-.291-.035-.125-.01-.298.04-.43.05-.133-.09-.139-.193-.041-.074.07-.129.321-.259.288-.094-.024-.185-.147-.196-.333-.01-.186.156-.36.305-.467.082-.06.057-.145-.028-.139-.263.018-.378.255-.536.406-.106-.066-.303-.407.123-.736.712-.553 1.904.261 2.59-.25.08-.06.133-.167.054-.29-.08-.122-.38-.666-.49-.763-.308-.273-.518-.406-.558-.736-.038-.323-.032-.594-.161-.899.066-.262.201-.77.725-.635.435.113.66.222 1.113.15.399-.064.613-.134.937-.118.051.139.014.345-.016.538-.03.194-.16.76-.213.939-.053.178.088.442-.056.566-.43.08-.927-.364-1.032-.41-.106-.046-.242-.017-.144.105s.661.495.745.495c.37 0 .082.285.127.553.062.368.335.486.477.736.026.117-.098.292-.159.345zm-23.427 3.57h3.255c.209 0 .392.102.479.158l-1.636.48 1.019 2.782H7l1.18-1.54c.081-.105.069-.147.012-.248-.056-.102-.908-1.55-.95-1.633h5.615c.026 0 .2.159.23.19.031.034.083.028.118.028.035 0 1.306.033 1.349.033.043 0 .07-.019.082-.047.014-.027.11-.204.153-.204zm28.763 0h5.207c-.044.082-.895 1.53-.95 1.632-.058.101-.07.143.012.249L49 40.187H38.096l1.018-2.782-1.636-.48a.927.927 0 01.478-.159h3.325c.035 0 .113.095.165.15.053.054.236.239.366.258.13.019.472-.043.556-.148.053-.065.044-.018.08 0 .033.019.234.083.33.092a.95.95 0 00.453-.129l.32-.223z" fill="#fff"/><path fill-rule="evenodd" clip-rule="evenodd" d="M35.52 25.113c-.204.012-1.005.053-1.394-.088-.215-.545-.769-1.597-.823-1.694-.055-.096-.006-.104.052-.096l.39.058c.142.222.153.54.387.68.299.003.496-.245.783-.257.05.207-.029.511.164.637.235-.026.496-.052.716-.009-.04.25-.207.52-.274.769zm-15.806-1.277c.95 1.056 1.895 1.624 2.695 2.093.123.073.27.266.27.458.001.377-.314 1.304-.262 2.46.013.27.063.482-.056.664-.17.262-.505.159-.802.33-.161.092-.55.284-.596.304-.045.021-.084-.076-.103-.192-.019-.116-.02-.628.098-.782.1-.13.696 0 .761-.328.095-.473.367-1.43.202-1.852-.078-.2-.156-.291-.271-.32-.278-.068-1.056-.295-1.271-.393-.086-.04-.191-.048-.33-.065-.39-.046-.8-.27-1.152-.598-.04-.038-.144.018-.117.083.157.383.59.598 1.176.738.258.061.403.095.515.128.111.033.787.312.787.312.087.249.033.524-.008.737-.193.989-1.03 1.387-1.528 1.632-.488.239-1.612.162-1.931.858-.256.556-1.048 1.028-1.14 1.404-.088.351-.155 1.272-.817 1.488-.4.13-.573-.037-.884-.2-.045-.023-.078.07-.066.11.013.04.067.139-.014.18a1.078 1.078 0 01-.683.114c-.06-.013-.182.02-.118.091.15.166.345.158.695.099.193-.032.35-.239.508-.128.017.011.037.042.004.083-.132.161-.283.294-.566.307l-1.08.048c-.366.247-.4.764-.333 1.23.062.42.588.71.828.89.142.278.355.611.346.86-.002.063-.1.153-.17.15l-.989-.02c-.362-.278.304-.675-.15-.886-.04-.017-.378-.03-.378-.03-.154-.265-.473-.544-.346-.86.126-.316.244-.995.19-1.23-.055-.235-.119-.48.03-.733.148-.252.501-.074.795-.188.294-.113.66-.463.928-.686.484-.403.158-1.873.43-2.431.035-.07.06-.272.134-.482.206-.572.543-.98.761-1.117.202-.125.784-.492 1.201-.697.065.125.063.409.18.389.119-.02.117-.18.11-.272-.044-.551.16-1.513.3-1.907.08-.226.11-.576.074-.752-.11-.539-.267-.72-.315-1.3.287-.04.676.029.845.074.17.045.183-.042.183-.095 0-.054-.002-.1 0-.163.452.278.954.311 1.43.393z" fill="#fff"/><path fill-rule="evenodd" clip-rule="evenodd" d="M36.338 24.407c.035.147.013.415.193.567.716-.082.933-.01 1.365-.279.023-.014.057-.031.065 0 .052.22.215.75.733 1.02.058.029.103.047.117 0 .109-.357.591-.753.823-1.175.069-.125.152-.052.248.1.128.203-.026.266.061.63.152.627.752 1.352.934 2.226.049.234.114.494.087.754-.05-.013-.088-.076-.11-.15-.031-.1-.153-.134-.196-.048-.038.074.03.213.084.361.23.622 1.23 1.243 1.04 2.02-.09.368-.134.602-.317.848-.142-.056-.279-.33-.38-.618-.075-.215-.108-.28-.166-.352-.087-.107-.201-.04-.154.157.049.21.156.575.401.893.38.496 1.008 1.08 1.213 1.31.204.23.487.237.605.62.119.382.034.615.058 1.082.01.174.127.337.187.611.097.44.002.628-.002.724-.015.33.113.572-.145.83-.259.258-.5-.02-.532-.168-.031-.15.082-.244.046-.37-.035-.123-.159.008-.196.047-.172.18-.185.733-.565.592-.156-.058-.14-.263-.127-.385.012-.121.14-.277.229-.405.025-.034.055-.156-.084-.114-.318.095-.327.41-.497.6-.095-.029-.131-.043-.18-.248-.07-.297.232-.644.355-.683.274-.087.752-.35.73-.708-.019-.314-.033-.78-.161-1.124-.375-.358-.88.062-1.348-.215-.465-.273-.924-.59-1.427-.877-.172-.098-.512-.591-.646-.803-.248-.393-.222-.766-.144-1.06.117-.442.24-.971.23-1.505.325.048.616.496.684.593.052.073.115.157.181.111.066-.046.023-.207-.063-.302-.101-.111-.585-.724-1.085-.897-.54-.187-1.141-.159-1.554-.627.187-.46.505-.118 1.145-.299.486-.137.659-.813.852-1.121.061-.1-.091-.176-.158-.047-.22.421-.617 1.044-1.044.993-.113-.013-.208-.028-.208-.028.001-.138.15-.218.23-.316.064-.08-.055-.175-.176-.095-.048.033-.709.682-.99.72-.378.05-.699.38-.937.418-.238.038-.506.128-.612.366a1.122 1.122 0 00-.082.712c-.081.043-.174.006-.272-.044-.098-.048-.156-.165-.18-.302-.017-.093.077-.43-.063-.398-.212.049-.179.365-.28.57-.065.01-.107.015-.229-.08-.122-.096-.154-.265-.114-.494.04-.229.167-.275.19-.427.02-.153-.06-.14-.174-.08-.114.062-.17.287-.275.382-.029-.009-.095-.044-.128-.22-.103-.56.444-.562.706-.885.262-.324 1.145-.417 1.64-.798.547-.325 1.043-.76 1.654-.893.053-.027.053-.095.013-.123-.129-.069-.272-.016-.389.025-.364.12-.703.324-1.042.54l-.039-.013c-.19-.55-.228-1.203.177-1.652.08-.055.168-.113.195.006zm-25.42 3.84c.222-.19.198-.64.035-.94-.166-.31-.464-.592-.57-.958-.047-.157-.088-.798.071-.781.17.018.503-.143.737-.237.032.245.133.617.33.671.161.044.767-.213.843-.846.03 0 .057.01.079.032.022.02.035.048.038.079.068.585-.281 1-.75 1.68-.267.386-.225 1.44-.812 1.3zm6.839 2.438c.323.18.764.265 1.09.034.597-.32.984-.403 1.299-.268.212.092.322.222.402.5.102.36.223.181.215.576-.013.608-.857.843-1.057.992-.345.256-.616.431-.731.639-.029.051-.025.176.024.247.157.222.477.313.907.485.504.195 1.115.117 1.488.612.194.081.373-.032.492.25.037.088.192.467.281.714-.299.108-.65.024-.973.022-.186-.198.115-.512-.204-.59-.126-.031-.21.149-.326.162-.654-.174-.991-.695-1.711-.968-.267-.102-1.096-.184-1.162-.572-.09-.543.702-.618.799-1.063.012-.057.042-.148-.025-.233-.129-.164-.35-.071-.506-.045-.364.135-.831.077-1.128-.185-.058-.195.04-.427.165-.617.175-.264.318-.308.66-.692zm10.014-14.89c0-.065.025-.128.069-.175a.228.228 0 01.166-.072c.062 0 .121.027.165.073a.254.254 0 01.05.27.249.249 0 01-.05.08.233.233 0 01-.166.072.235.235 0 01-.216-.153.257.257 0 01-.018-.095zm-.215 0a.486.486 0 01.138-.322.438.438 0 01.311-.133c.116 0 .228.048.311.133.084.084.134.2.139.322a.488.488 0 01-.132.336.438.438 0 01-.318.138.438.438 0 01-.318-.138.488.488 0 01-.131-.336zm.45 3.51h.213c.086 0 .072-.046.08-.12.01-.074.596-4.031.604-4.1.012-.087.017-.112-.034-.142-.03-.019-.252-.11-.295-.133-.061-.032-.069-.042-.079-.124-.004-.036-.004-.238-.004-.357 0-.087-.043-.101-.104-.101h-.764c-.061 0-.105.014-.105.1 0 .12 0 .322-.004.358-.01.082-.017.092-.078.124-.043.023-.264.114-.295.133-.052.03-.046.055-.035.142.01.069.595 4.026.604 4.1.008.073-.006.12.08.12h.215zm1.493-4.007a.36.36 0 01-.265-.117.407.407 0 01-.11-.28c0-.104.04-.205.11-.279a.365.365 0 01.265-.115c.1 0 .195.042.265.116.07.074.11.175.11.28 0 .104-.04.205-.11.28a.365.365 0 01-.265.115zm1.188-.208a.503.503 0 01-.365-.16.561.561 0 01-.15-.386.56.56 0 01.151-.385.503.503 0 01.366-.159c.137 0 .268.058.364.16.097.102.151.241.151.386a.56.56 0 01-.151.385.503.503 0 01-.366.159zm1.459.512a.66.66 0 01-.645-.672c0-.372.289-.673.645-.673.356 0 .645.301.645.673a.659.659 0 01-.645.672zm.886 1.177a.574.574 0 01-.561-.585c0-.323.251-.585.56-.585.31 0 .562.262.562.585a.574.574 0 01-.561.585zm-.652 2.226a.39.39 0 01-.283-.122.434.434 0 01-.119-.297c0-.232.18-.42.402-.42.222 0 .402.188.402.42 0 .23-.18.419-.402.419zm-.85.7a.32.32 0 01-.237-.101.353.353 0 01-.1-.249c0-.194.151-.35.336-.35.187 0 .337.156.337.35a.37.37 0 01-.1.249.333.333 0 01-.236.101zm-5.018-4.202c.1 0 .195-.042.265-.116a.407.407 0 00.11-.28.407.407 0 00-.11-.279.365.365 0 00-.265-.116c-.1 0-.195.042-.265.116a.407.407 0 00-.11.28c0 .105.04.205.11.28.07.073.166.115.265.115zm-1.19-.208a.502.502 0 00.366-.16.56.56 0 00.15-.384.56.56 0 00-.15-.385.502.502 0 00-.365-.16.502.502 0 00-.365.16.56.56 0 00-.15.385.56.56 0 00.15.385c.097.102.228.16.365.16zm-1.457.513c.355 0 .644-.302.644-.673 0-.371-.289-.672-.644-.672a.66.66 0 00-.645.672c0 .372.288.673.645.673zm-.886 1.177c.31 0 .561-.262.561-.585a.574.574 0 00-.561-.586.573.573 0 00-.561.586.613.613 0 00.165.415.556.556 0 00.396.17zm.078 1.182a.466.466 0 00.456-.476.466.466 0 00-.456-.475.466.466 0 00-.456.475c0 .263.204.476.456.476zm.573 1.043a.381.381 0 00.283-.122.422.422 0 00.118-.297.41.41 0 00-.401-.42.41.41 0 00-.402.42c0 .111.043.218.119.297a.39.39 0 00.283.122zm.85.701a.343.343 0 00.336-.35c0-.194-.15-.35-.336-.35a.32.32 0 00-.236.101.354.354 0 00-.1.249c0 .193.151.35.336.35z" fill="#fff"/><path fill-rule="evenodd" clip-rule="evenodd" d="M32.953 17.896c.121 0 .237-.05.322-.139a.485.485 0 000-.671.447.447 0 00-.645 0 .484.484 0 000 .671.447.447 0 00.323.139zm-7.985 1.811a.616.616 0 00-.05-.558.58.58 0 00-.206-.194.554.554 0 00-.269-.071.55.55 0 00-.262.069.719.719 0 00-.012-.497.658.658 0 00-.36-.356.607.607 0 00-.25-.04.725.725 0 00.129-.563.728.728 0 00-.313-.477.82.82 0 00.341-.673.832.832 0 00-.082-.366.84.84 0 00.705-.152.898.898 0 00.246-.285.936.936 0 00.11-.366c.07.096.16.174.264.228a.721.721 0 00.667-.002.75.75 0 00.262-.229.64.64 0 00.138.3.582.582 0 00.869.05l.136.97c-.235-.155-.826-.743-1.654-.743s-1.269.476-1.269 1.256c0 .916 1.188 2.158 1.502 2.539l-.642.16zm-7.032-3.959c.162.537-.193.86-.322 1.585-.223.037-.41.042-.65.045a12.474 12.474 0 01-.05-.339c.188-.037.246-.034.403-.087.105-.337.297-.821.201-.99-.035-.06-.093-.1-.2-.05-.19.088-.602.349-.946.635.058.193.166.577.131.62-.034.045-.31.125-.361.103-.05-.022-.157-.433-.236-.626-.374-.05-1.024-.156-1.155-.09a.165.165 0 00-.081.18.169.169 0 00.028.065c.07.105.356.504.565.614.144-.026.274-.062.409-.092l.155.272c-.235.134-.463.26-.762.275-.366-.37-.812-.853-.888-1.14-.048-.18-.004-.294.185-.46.281-.249.942-.004 1.421-.086-.009-.122-.09-.35-.052-.365.038-.014.351-.152.382-.122.03.03.098.26.147.356.574-.177.832-.628 1.4-.572.12.013.235.134.276.27z" fill="#fff"/><path fill-rule="evenodd" clip-rule="evenodd" d="M27.999 21.025c-3.161 0-5.085 1.794-5.895 4.38 0 0 .069.032.594.442.417.325.29.82.18 1.25-.028.11-.055.217-.072.316-.119.583-.093 1.248-.077 1.653.008.192.013.325 0 .364a.793.793 0 01-.446.478.816.816 0 01-.241.057c-.16.02-.288.036-.272.257.485 3.352 2.496 5.855 6.229 5.855 3.978 0 6-2.842 6.304-6.525-.234.026-.542-.037-.657-.241-.03-.055-.056-.116-.081-.177-.069-.165-.138-.331-.319-.402a5.823 5.823 0 00-.023-.095c-.047-.19-.096-.388-.024-.634.047-.163.256-.31.484-.471.207-.147.431-.305.565-.497-.444-3.43-2.46-6.01-6.25-6.01zm2.968-1.762a.63.63 0 00.042.289l-.64-.163c.039-.048.092-.11.154-.183.436-.511 1.345-1.575 1.345-2.386 0-.79-.44-1.272-1.266-1.272-.685 0-1.208.409-1.5.638-.06.047-.111.087-.151.114l.136-.98a.574.574 0 00.602.136.603.603 0 00.265-.188.653.653 0 00.137-.304.754.754 0 00.262.232.71.71 0 00.665.002.755.755 0 00.263-.23c.012.13.05.256.11.37a.905.905 0 00.246.289c.1.076.215.13.337.156a.827.827 0 00.367-.003.86.86 0 00.007.756c.06.118.145.22.25.296a.735.735 0 00-.322.613.74.74 0 00.14.439l-.03-.001c-.348 0-.63.297-.63.664 0 .082.012.164.038.24a.537.537 0 00-.53.003.584.584 0 00-.205.197.622.622 0 00-.092.276zm-2.969 15.285H28c1.737 0 3.01-.697 3.85-1.824.836-1.122 1.24-2.67 1.24-4.378v-.002c0-1.708-.404-3.257-1.24-4.38-.84-1.125-2.113-1.822-3.85-1.822h-.002c-1.737 0-3.01.697-3.85 1.823-.837 1.123-1.24 2.67-1.24 4.379v.002c0 1.708.403 3.256 1.24 4.38.84 1.126 2.113 1.822 3.85 1.822zM17.267 37.55L18.473 41c2.767-.644 7.817-.968 9.526-.967 1.708 0 6.76.323 9.525.967l1.207-3.45c-2.756-.934-7.298-1.299-10.732-1.299-3.435 0-7.976.365-10.732 1.299zm22.734-20.074s-.185-.69-.359-.99a1.449 1.449 0 00-.836.462c-.153.163-.406.133-.647.105a1.516 1.516 0 00-.356-.015c-.076.01-.174.012-.284.014-.33.007-.77.016-1.044.251a6.35 6.35 0 01-.488.026c-.221.006-.412.012-.53.054l-.033.01c-.065.017-.144.038-.124.182.015.103.087.155.16.21.03.021.06.043.085.068.133.127.04.232-.05.333-.058.065-.114.129-.106.195l.003.033c.016.138.038.324.15.38.057.028.17.017.306.004.306-.03.73-.07.89.306a.594.594 0 00.043.068c.066.098.17.253.072.29-.13.047-.289.076-.452.105a2.72 2.72 0 00-.526.13c-.145.06-.153.23-.038.322l.068.052c.1.075.238.18.26.23.069.166.276.026.354-.074.102-.13.37-.139.615-.146.166-.006.32-.01.405-.053.08-.04.41-.215.529-.28.144-.079.363-.126.404.136.033.204.017.449-.065.672-.103.288-.604 1.057-1.777 1.334-.33.077-.657.078-.969.079-.532 0-1.02.002-1.402.385-.179.181-.22.48-.2.852.01.178.054.408.244.55.065-.028.136-.052.208-.077.217-.075.446-.155.575-.317.514-.643.839-.784 1.827-.894.332-.037.676-.003 1.013.03.631.06 1.24.12 1.708-.286.796-.691.889-2.215.75-2.766-.037-.144.17-.181.23 0 .178.53.085 1.645-.392 2.413-.39.626-.75.854-1.476.896-.142.008-.345-.01-.583-.032-.816-.074-2.056-.186-2.739.6a.874.874 0 00-.16.796c.143.065.293.05.449.036.112-.011.227-.022.344-.004.227.036.4-.125.563-.275.127-.118.248-.23.382-.236.11-.005.121.06.1.079-.155.13-.407.376-.434.573l-.001.007c-.026.193-.04.296.05.406.269.036.495-.022.654-.063.054-.014.1-.026.138-.03.29-.04.473-.277.624-.472.077-.099.145-.187.216-.235.045-.03.107.007.075.113a1.813 1.813 0 01-.07.18c-.073.174-.155.366-.088.586.102.34.253.558.452.593l.419-.492c.202-.237.434-.54.292-1.027-.034-.118.103-.148.148-.063.21.393.498.808.928.798-.027-.195.007-.35.044-.522.031-.144.065-.298.066-.494 0-.083-.034-.152-.06-.204a1.138 1.138 0 01-.011-.022c-.046-.099-.028-.19.05-.182l.109.013c.224.026.38.045.54-.109.008-.109-.05-.187-.11-.268a.542.542 0 01-.11-.2c-.01-.047-.024-.091-.038-.132-.04-.118-.068-.205.063-.211.057-.003.12.002.188.007.196.015.424.032.624-.126.007-.164-.029-.223-.101-.34a3.889 3.889 0 01-.053-.086c-.161-.276.026-.367.215-.458.105-.05.21-.102.257-.185a.876.876 0 00-.143-.153c-.053-.046-.102-.089-.18-.22-.052-.089-.043-.186.041-.26.017-.015.051-.031.095-.052.154-.075.425-.205.442-.521 0 0-.125-.011-.456-.044-.47-.047-.751-.603-.988-1.07-.11-.217-.21-.415-.315-.532L40 17.476zm-3.13.087a.146.146 0 00.02-.011c.247-.186.507-.055.743.063.13.066.253.128.361.13.068 0 .122.068.064.101-.025.014-.389.183-.69.166-.115-.006-.184-.094-.254-.183-.078-.1-.157-.2-.303-.182-.02-.043.028-.068.058-.084zm.234 1.075c.034-.089.11-.104.157-.068.023.018.026.086.029.165a.74.74 0 00.033.234.846.846 0 00.061.11c.05.08.098.156.054.22-.035.05-.192.042-.275-.132a.493.493 0 00-.016-.031c-.045-.084-.137-.255-.043-.498zm-21.213-.516a5.107 5.107 0 00-.11-.093c-.433-.013-.683.279-.963.606-.167.195-.345.402-.578.565-.11.077-.221.117-.327.155-.124.045-.24.088-.339.184 0 0 .218.238.298.345.034.047.03.177.026.335-.005.201-.012.447.059.622.105-.017.228-.132.334-.231.12-.113.219-.205.24-.104.009.039-.04.194-.099.378-.058.186-.126.401-.153.554-.082.463.04.898.56 1.263.291-.286.296-.52.3-.68.001-.086.002-.151.048-.192.072-.065.17 0 .14.605-.032.615.422.986.994 1.283.292-.365.071-.766-.006-.867-.13-.17.105-.17.15-.093.174.3.62.803 1.561.747.049-.184-.048-.341-.116-.452-.05-.081-.084-.137-.036-.162.069-.036.191.075.325.195.102.092.21.19.308.235.24.11.706.315 1.015.226-.005-.073-.06-.16-.11-.24-.045-.069-.085-.132-.082-.173.003-.044.053-.058.104-.04.16.053.319.265.483.484.16.212.324.432.5.524.058-.152.053-.338-.023-.563-.094-.281-.702-.928-1.23-1.038-.28-.058-.545-.107-.797-.154-1.403-.26-2.386-.443-3.082-1.601-.506-.841-.124-1.916.103-2.183.054-.062.2-.007.183.043l-.035.094a8.045 8.045 0 00-.19.563c-.076.282-.073.992.212 1.444.624.989 1.716 1.177 2.703 1.346.456.078.889.153 1.243.3.39.162 1.117.667 1.228 1.436.013.096.005.211-.004.325-.01.12-.02.24 0 .334l.002.002c.335.303.671.607 1.073.774a1.06 1.06 0 00.198-.535l-.072-.183c-.312-.797-.657-1.68-1.476-2.106-.947-.432-1.894-.974-2.617-1.884-.558-.245-.79-.462-.893-.817-.052-.181-.065-.602.083-.727.043-.036.125-.022.13.043.005.09 0 .182-.005.271-.007.105-.012.206 0 .292.056.358.668.68.803.691l.074.006c.309.025.7.057 1.03.331.08.066.17.151.261.236.193.181.385.362.465.352.074-.008.127-.058.133-.093.007-.047-.014-.092-.039-.144-.04-.082-.087-.18-.039-.332.1-.312.241-.216.397-.11.09.06.185.125.28.115.119-.164.071-.518-.009-.618a2.05 2.05 0 00-.147-.141 7.482 7.482 0 01-.316-.303 6.3 6.3 0 01-.306-.344c-.054-.064-.092-.109-.11-.124l-1.257-.97c-.133-.098-.14-.23-.146-.332-.005-.085-.01-.148-.085-.15-.039 0-.601-.026-.69-.032-.099-.006-.103.037-.08.425-.031.127-.14.137-.222-.029-.218-.447-.634-.543-1.04-.46-.175.036-.167.088-.13.191.107.296.523.525.693.619l.033.018c.049.027-.001.082-.04.096-.298.056-.561-.17-.773-.353zm1.871.319c-.044-.078-.03-.086.072-.096.393-.038.796.055.82.075.042.032.003.07-.039.113-.029.03-.06.06-.067.092a.327.327 0 00.007.1c.014.088.028.183-.073.16-.148-.032-.675-.365-.72-.444zm.886.884l.04-.027c.052.012.108.022.164.032.21.036.43.074.563.247.079.042.152.093.22.153.038.028.051.083.012.11-.14.049-.244-.041-.348-.133a.6.6 0 00-.223-.145.434.434 0 00-.167-.048c-.116-.018-.236-.036-.26-.189zm26.373 6.42c.106.097.206.188.29.275 0 0 0-.092.013-.201.005-.037.021-.096.042-.17.087-.31.25-.895-.02-1.302-.027-.04-.033-.087.014-.08.135.021.225.078.312.133.086.054.168.106.287.12.284.037.627.081.884-.27-.028-.23-.241-.311-.438-.386-.084-.032-.165-.063-.227-.104.06-.033.129-.057.2-.082.226-.08.467-.166.485-.556-.35-.04-.572-.13-.776-.214a2.166 2.166 0 00-.47-.15c-.26-.042-.484.036-.704.111a3.482 3.482 0 01-.235.076c-.067-.035-.13-.07-.19-.104-.278-.154-.518-.287-1.018-.33-.608-.053-1.34.296-1.789 1.182-.404.794-.23 1.745.115 2.5.276.605.74 1.24 1.15 1.463-.01-.242-.002-.49.017-.782-.288-.37-.78-1.05-.888-1.626-.173-.913.178-1.567.505-1.81.326-.242.73-.356 1.224-.252.495.104.89.459.968.557.113.139-.066.136-.165.132a.349.349 0 00-.207.068.38.38 0 00-.133.18c-.27.69.296 1.205.754 1.622zm-31.714.307a.39.39 0 00-.033.173c.067.003.12.001.265-.003h.003c.132-.004.576.172.207.937-.046.095-.199.301-.387.556-.37.502-.877 1.189-.979 1.577-.123.465-.082.988.149 1.319.351.505.985.642 1.844.497.055-.099.054-.258.053-.41-.001-.068-.002-.134.003-.194-.54.09-1.205.086-1.455-.385-.152-.284-.083-.666.005-.878.141-.34.459-.802.759-1.238.166-.242.327-.476.45-.676.046-.076.135-.029.156.001-.068.37-.044.835.192 1.173.023-.245.179-.444.329-.636.184-.236.36-.462.274-.751-.042-.14-.093-.18-.272-.236-.077-.023-.143-.005-.197.01-.073.021-.125.036-.154-.067l.395-.766c.246-.473.346-1.52-.104-2.266-.302-.503-.744-.93-1.421-.946-.451-.01-.813.192-1.133.37-.217.121-.416.232-.61.258-.118.015-.274.007-.445-.003-.355-.02-.772-.043-1.035.143a.91.91 0 00-.2.177l.02.024c.022.026.042.048.085.08.159.117.637.123.73.09.06-.021.079.043-.005.122-.185.171-.28.338-.379.509-.097.17-.196.344-.39.532.155.151.393.146.637.1.394-.077.52-.422.613-.674.044-.12.08-.218.134-.256.058-.04.107-.004.103.056-.002.04-.013.1-.027.174-.06.33-.171.933.158 1.2.434-.278.424-.854.4-1.054-.006-.065.073-.116.127-.08.027.019.062.052.103.09.149.142.377.36.576.188-.303-.31-.466-.68-.37-1.06.063-.255.305-.45.588-.49.587-.084 1.238.362 1.414.833.213.575.239 1.333-.116 1.798-.087.04-.124.002-.19-.063-.023-.023-.05-.05-.082-.076-.127-.107-.35-.085-.52-.03a.398.398 0 00-.162.092.429.429 0 00-.106.16zm6.421 13.288l-.296.052-.242-1.518.64-.114c.104-.018.324-.056.46.17.08.13.1.345.072.461-.06.22-.198.327-.367.343l-.354.064.087.542zm1.51-.217l-.299.04-.181-1.527.297-.04.069.574.574-.076-.068-.574.298-.038.18 1.527-.297.04-.082-.692-.574.075.082.691zm1.425-1.72l.3-.031.14 1.532-.299.03-.14-1.531zm1.063 1.45l-.111-1.535.299-.024.092 1.271.587-.047.02.263-.887.072zm1.18-1.634l.3-.019.089 1.537-.3.02-.088-1.538zm1.335 1.458l-.3.012-.059-1.537.649-.028c.104-.004.327-.014.437.23a.714.714 0 01.016.468c-.086.21-.235.297-.406.291l-.358.015.021.549zm2.832-1.104l-.292 1.06-.3-.001-.342-1.064-.005 1.062-.274-.002.008-1.539.438.003.328 1.064.278-1.06.438.002-.008 1.54-.274-.002.005-1.063zm1.986-.22a.94.94 0 01.184.625.925.925 0 01-.248.6.638.638 0 01-.495.164.647.647 0 01-.476-.22.943.943 0 01-.185-.625.934.934 0 01.249-.602.64.64 0 01.496-.163c.185.01.36.08.475.22zm.918 1.48l-.3-.025.116-1.535.81.067c.144.02.286.103.316.273a.544.544 0 01-.01.31c-.046.13-.113.173-.216.226a.564.564 0 00.024.02c.05.037.117.088.122.206.003.056-.006.218-.01.31l-.002.035c-.007.087.016.107.045.13l-.004.058-.32-.027a.39.39 0 01-.03-.147 4.51 4.51 0 01.024-.309c.004-.104-.064-.16-.169-.17l-.35-.028-.046.607zm1.592.148l-.298-.033.154-1.531.806.09c.145.022.286.11.31.28a.552.552 0 01-.017.312c-.05.127-.118.169-.221.219l.024.02c.048.038.114.091.115.21.003.063-.014.266-.02.343-.009.087.014.108.043.133l-.005.056-.322-.035a.38.38 0 01-.025-.148 4.52 4.52 0 01.03-.307c.007-.104-.06-.163-.162-.175l-.351-.039-.061.605zm1.534-1.361l.297.042-.2 1.525-.297-.044.2-1.523zm1.791.455a.46.46 0 01.026.31l-.277-.06c.028-.12-.047-.254-.248-.301-.143-.033-.258-.004-.292.118-.028.101.001.13.06.17.023.04.233.126.316.16l.025.01c.075.032.237.106.309.223.128.216-.018.56-.22.642-.137.056-.308.041-.468.009a.673.673 0 01-.33-.182.554.554 0 01-.125-.431l.287.06c-.01.06 0 .12.03.169.052.084.153.13.252.148.099.018.197.007.24-.022a.189.189 0 00.057-.253c-.046-.076-.171-.129-.3-.183-.08-.033-.163-.068-.228-.108-.144-.09-.25-.235-.178-.474.07-.235.27-.377.619-.301.076.016.341.08.445.296z" fill="#fff"/><path fill-rule="evenodd" clip-rule="evenodd" d="M19.641 38.508l.33-.061c.092-.017.128-.107.14-.158a.382.382 0 00-.022-.22c-.05-.097-.132-.1-.205-.086l-.316.058.073.467zm6.564-.688l.334-.015c.093-.004.14-.088.158-.138a.38.38 0 00.004-.221c-.038-.102-.12-.116-.194-.112l-.32.014.018.472zm4.545.526c.1-.089.156-.257.167-.427.007-.17-.032-.343-.123-.444a.369.369 0 00-.26-.122.363.363 0 00-.271.09c-.1.089-.157.256-.168.427-.006.17.033.344.123.444.072.08.165.116.26.121a.361.361 0 00.272-.09zm1.247-.424l.406.036a.179.179 0 00.076-.017.191.191 0 00.064-.048.224.224 0 00.053-.156c.008-.111-.035-.18-.167-.192l-.402-.035-.03.412zm1.603.152l.404.047a.19.19 0 00.142-.06.223.223 0 00.057-.154c.01-.111-.03-.181-.163-.196l-.401-.047-.04.41zM28 34.401h-.002c-1.69 0-2.927-.675-3.741-1.766-.817-1.096-1.21-2.613-1.21-4.29v-.001c0-1.677.393-3.193 1.21-4.288.814-1.092 2.05-1.767 3.741-1.767H28c1.69 0 2.927.675 3.74 1.766.818 1.096 1.21 2.613 1.21 4.289v.002c0 1.676-.393 3.192-1.21 4.288-.813 1.092-2.05 1.767-3.74 1.767zm-2.106-5.65c.99-.1 1.6-1.045 1.608-2.13.007-1.009-.618-2.02-1.205-2.246-.39-.151-.587.097-.768.326-.081.102-.16.2-.25.257a.754.754 0 01-.255.108c-.053.013-.095.023-.15.068.176.832.186 1.49.202 2.466l.013.707c.026 1.091-.017 2.58-.45 3.54 1.079-.877 1.154-2.314 1.187-2.937l.002-.035c.003-.06.017-.119.066-.123zm-.08-4.115a.316.316 0 01.157-.127c.175-.068.388.128.427.305.186.828.3 2.293-.019 3.35a.543.543 0 01-.128.204.506.506 0 01-.2.124c-.095.028-.224.009-.22-.112.025-.904-.034-2.55-.07-3.543a.344.344 0 01.053-.2zm1.842 5.294c.426-1.672.556-3.676.214-5.408.409.31.889 1.889 1.355 3.456.14-.394.252-.814.364-1.235.228-.855.456-1.71.914-2.34-.066 3.351.12 5.16 1.032 7.416-1.029-.792-1.464-2.28-1.783-3.628-.24.406-.342 1.628-.452 2.936l-.04.489a12.736 12.736 0 01-.346-1.473c-.097-.514-.19-1.014-.464-1.81-.04.122-.079.298-.125.51-.17.785-.446 2.049-1.278 2.744.056-.142.117-.283.178-.426.17-.395.342-.798.431-1.23z" fill="#fff"/></svg>