<!-- by TradingView --><svg width="56" height="56" fill="none" xmlns="http://www.w3.org/2000/svg"><path fill="#F48023" d="M0 0h56v56H0z"/><circle cx="28" cy="28" r="28" fill="#F48023"/><path d="M43.642 30.988L22.669 43.141c-3.184 1.843-8.698 1.344-3.382-7.812L21.5 32h15.863s3.477.143 6.28-1.012zM26.503 21.026L18.32 34.749s-1.934 3.154-2.32 6.242V16.52c-.024-3.48 2.9-8.583 8.505.965.762 1.357 1.998 3.542 1.998 3.542zM37.199 31h-3.703l-3.675-6.381-4.348-7.617s-1.644-3.086-4.06-4.92c1.546.58 21.07 11.96 21.07 11.96 2.566 1.476 5.831 6.862-5.284 6.958z" fill="#fff"/></svg>