<!-- by TradingView --><svg width="56" height="56" fill="none" xmlns="http://www.w3.org/2000/svg"><path fill="#F0F3FA" d="M0 0h56v56H0z"/><path d="M48 14H12.574L11 21.97c.98-.142 1.958-.178 3.008-.107 6.05.428 9.407 5.694 15.877 5.089 5.805-.64 10.281-4.448 16.226-4.448M45 32.696c-3.294 1.097-6.447 2.658-10.126 3.024-6.447.598-9.846-4.287-15.872-4.685-3.504-.233-6.447.73-9.32 2.193L8 42h35.213" fill="#000"/><path d="M46 24.905c-5.018.721-9.166 4.255-14.323 4.903-6.413.722-9.654-5.3-15.648-5.768-1.812-.144-3.485.108-5.053.613L10 29.845c2.927-1.84 5.994-2.416 9.27-1.587 6.552 1.623 9.305 5.372 15.752 4.651 3.694-.469 6.866-2.38 10.177-3.75" fill="#00539B"/></svg>