<!-- by TradingView --><svg width="56" height="56" fill="none" xmlns="http://www.w3.org/2000/svg"><circle cx="28" cy="28" r="28" fill="#4A613E"/><path fill="#4A613E" d="M0 0h56v56H0z"/><path d="M7 30.768c0 .694.103.96.516 1.232H5.517c.375-.211.483-.437.483-1.342v-4.275c0-.905-.108-1.172-.483-1.383h.97c.308 0 .308.01 1.135 0h.317c.567 0 .97.096 1.335.277.625.321 1.029.935 1.029 1.599 0 1.096-1.01 1.991-2.24 1.991a1.59 1.59 0 01-.73-.14c.635-.08.98-.221 1.307-.514.355-.321.529-.693.529-1.146 0-.814-.558-1.317-1.47-1.317-.27 0-.42.02-.699.09M12 26.385c0-.907-.041-1.174-.432-1.385h1.957c-.39.211-.525.478-.525 1.385v4.28c0 .906.178 1.124.568 1.335h-2c.39-.211.432-.429.432-1.335M17.453 26.39c-.433.47-.702 1.222-.702 1.985 0 .812.298 1.644.817 2.245.462.532 1.038.793 1.778.793 1.518 0 2.557-1.134 2.557-2.778 0-.792-.25-1.544-.693-2.105-.5-.622-1.115-.923-1.912-.923-.683 0-1.394.3-1.845.782zm4.574-.502c.634.642 1.028 1.624 1.028 2.576 0 2.067-1.653 3.7-3.748 3.7-2.066 0-3.7-1.594-3.7-3.619 0-2.106 1.653-3.7 3.835-3.7.961 0 1.941.391 2.585 1.043zM26 30.75c0 .692.122.97.54 1.25h-1.82c.435-.29.542-.548.542-1.25v-4.482c0-.692-.116-.988-.533-1.268h1.491c.039.1.049.145.242.416l3.783 4.992v-4.14c0-.702-.116-.978-.542-1.268h1.829c-.437.29-.532.566-.532 1.268v6.066c-.56-.19-.997-.531-1.413-1.113L26 26.518M35.003 31.075c.47.08.787.11 1.25.11.883 0 1.43-.17 1.979-.601L37.76 32h-4.229c.375-.21.468-.484.468-1.396v-4.251c0-.903-.102-1.154-.468-1.355h3.374c.191 0 .25-.01.384-.06v1.234c-.327-.331-.586-.422-1.24-.422-.49 0-.75.02-1.047.071V28h1.355a.66.66 0 00.346-.093v1.124c-.163-.22-.356-.291-.798-.291h-.903M41 31.075c.47.08.799.11 1.26.11.884 0 1.432-.17 1.98-.601L43.77 32h-4.23c.375-.21.46-.484.46-1.396v-4.251c0-.903-.094-1.154-.46-1.355h3.374c.192 0 .25-.01.385-.06v1.234c-.327-.331-.587-.422-1.24-.422-.49 0-.762.02-1.059.071V28h1.366a.66.66 0 00.346-.093v1.124c-.163-.22-.356-.291-.798-.291H41M47 30.64c0 .902.106 1.15.48 1.36h-1.922c.376-.21.442-.458.442-1.36v-4.262c0-.902-.066-1.168-.442-1.378h2.374c.663 0 1.134.135 1.5.416.413.32.672.842.672 1.354 0 .812-.682 1.563-1.643 1.814 1.518 2.126 2.287 2.968 3.094 3.41-.624.05-.73.06-.931.06-.577 0-.885-.201-1.567-1.054a19.329 19.329 0 01-1.778-2.636c1.144-.2 1.69-.702 1.69-1.515 0-.691-.498-1.172-1.229-1.172-.221 0-.433.02-.74.08" fill="#fff"/></svg>