<!-- by TradingView --><svg width="56" height="56" fill="none" xmlns="http://www.w3.org/2000/svg"><path fill="#173378" d="M0 0h56v56H0z"/><circle cx="28" cy="28" r="28" fill="#173378"/><path d="M28.05 13c1.497 1.495 3.169 3.076 4.629 4.619l-1.699 2.243v.123l4.49 2.063 3.04-2.148-1.836-2.092v-.16c1.882-1.373 3.498-2.698 5.326-3.966L41 23H15l-1-9.319c1.828 1.269 3.444 2.594 5.326 3.966v.161L17.49 19.9l3.049 2.148 4.481-2.063v-.123l-1.699-2.243c1.46-1.543 3.132-3.124 4.628-4.619h.101zM41 25l-.35 3H31v11h4.673c1.056-.01 2.158-1.41 1.947-2.168-.267-1.098-1.213-1.827-2.094-2.366.174 0 3.416-2.461 4.94-3.521-.073.681-1.166 9.521-1.175 9.673L28.087 45h-.174l-11.204-4.382c-.01-.152-1.102-8.992-1.166-9.673 1.515 1.06 4.757 3.52 4.931 3.52-.881.54-1.827 1.27-2.084 2.367-.22.757.881 2.158 1.937 2.168H25V28h-9.64L15 25h26z" fill="#fff"/></svg>