<!-- by TradingView --><svg width="56" height="56" fill="none" xmlns="http://www.w3.org/2000/svg"><path fill="#9F1C35" d="M0 0h56v56H0z"/><circle cx="28" cy="28" r="28" fill="#9F1C35"/><path d="M24 25.064c-.287-.037-.288-.06-.676-.06-1.814 0-3.324 1.066-3.324 3.168V35h-4V21h4v1.553c.763-.865 2.414-1.553 3.843-1.553H24v4.064zM31 16v6.561c.887-1.078 2.024-1.616 3.362-1.616 3.489 0 5.638 2.067 5.638 6.127V35h-4v-7.718c0-1.112-.834-2.436-2.446-2.436-1.44 0-2.554 1.02-2.554 2.803V35h-4V16H11v24h34V16H31z" fill="#fff"/></svg>