<!-- by TradingView --><svg width="56" height="56" fill="none" xmlns="http://www.w3.org/2000/svg"><path fill="#07365A" d="M0 0h56v56H0z"/><circle cx="28" cy="28" r="28" fill="#07365A"/><path d="M7.813 23.5c.952 0 1.436-.453 1.436-1.472 0-.942-.372-1.44-1.31-1.44-.104 0-.441-.011-.47.109-.03.12-.033.811-.033.965V23.5h.377zm7.05.828l-.87-2.378-.928 2.378h1.797zm8.078-3.802c-.377.056-.525.339-.712.691l-1.677 2.948v1.108c0 .887-.02 1.337.963 1.303v.42h-6.878v-.414c.295-.045.819-.022.819-.461 0-.165-.126-.526-.19-.68l-.209-.593h-2.184l-.12.302c-.094.263-.242.593-.242.864 0 .504.45.537.819.57v.413h-3.303l-1.404-2.121c-.323-.47-.754-.996-1.026-.976-.054 0-.105.01-.158.01v1.36c0 .845-.01 1.337.944 1.304v.422H5v-.428c.944.034.933-.45.933-1.303v-3.48c0-.845.022-1.337-.933-1.303v-.479c.567.011 1.12-.011 1.677 0 .534-.011 1.059.011 1.601 0 .471.023 1.196.163 1.634.358.64.274.974.823.974 1.544 0 .92-.744 1.502-1.551 1.634l1.345 1.76c.195.304.409.598.639.875.083.086.22.207.388 0 .283-.35.449-.865.607-1.25l1.962-4.92h.471l2.032 5.314c.105.274.305.789.503.996.193.14.417.223.65.24h.198c.933 0 .86-.428.87-1.303v-.898l-1.664-3.175c-.262-.462-.316-.582-.827-.702v-.473c.492.011.995-.011 1.487 0 .567-.011 1.12.011 1.688 0v.473c-.263.022-.744.056-.744.45 0 .207.251.669.356.856l.984 1.874.952-1.667c.125-.252.377-.724.377-.996 0-.45-.377-.514-.722-.514v-.476h4.252l1.938 4.929 1.781-4.929c.377.011.754-.011 1.12 0 .4-.011.787.011 1.247 0v.473c-.952-.034-.923.47-.933 1.326v3.245c-.014.332.013.668.072.995.104.44.47.47.848.537v.418h-3.343v-.418c.377-.067.754-.109.848-.537.056-.33.08-.663.072-.995v-3.262h-.016l-1.968 5.212h-.471l-2.06-5.288h-.02v3.167c0 .33 0 .996.147 1.28.157.309.492.384.796.418v.422h-2.355v-.428c.377-.067.754-.109.847-.537.056-.33.08-.663.072-.996V20.94a.828.828 0 00-.818-.417l-.003.003zm8.42 3.018c0-2.212 1.688-3.54 3.677-3.54 1.99 0 3.666 1.347 3.666 3.54s-1.698 3.453-3.698 3.453c-2-.003-3.645-1.28-3.645-3.453zm1.709-.067c0 1.326.345 3.113 1.939 3.113 1.623 0 1.99-1.555 1.99-2.981 0-1.382-.346-3.114-1.99-3.114-1.583-.008-1.939 1.656-1.939 2.982zm12.791-2.984c-.89.01-.861.36-.861 1.633v4.87h-.386L40 21.752v3.19c0 .788.048 1.588 1 1.633v.422h-2.245v-.428c.818-.087.88-.503.88-1.239v-4.137c-.316-.462-.441-.646-.984-.702v-.487c.315.011.628-.011.944 0 .377-.011.743.011 1.12 0l3.896 4.82V22.07c0-.788 0-1.544-.944-1.577v-.49h5.595c.962 0 1.864.316 2.618.982.786.713 1.12 1.656 1.12 2.719 0 .954-.283 1.807-.963 2.464-.7.657-1.655.862-2.578.829-.524-.012-3.184 0-3.184 0v-.412c.952.033.933-.45.933-1.304v-3.496c0-.822.021-1.292-.933-1.292h-.414zm2.66 4.173c0 .308 0 1.03.093 1.303.126.361.45.504.797.504 1.53 0 1.677-1.589 1.677-2.84 0-.69-.094-1.523-.398-2.147-.356-.702-1.038-.898-1.75-.898-.082 0-.323.022-.398.098a.539.539 0 00-.043.252v3.725h.022v.003zm-41.582 8.76a.392.392 0 00-.126.075c-.158.132-.305.658-.219 1.206.104.619.652 1.041 1.246.965.995-.142.818-.92.818-3.122v-1.742c0-.856-.032-1.349-.994-1.326v-.479c.492.011 1.059-.011 1.561 0 .618-.011 1.321.011 1.95 0v.473c-.819.023-.845.165-.845 1.326v2.4c0 1.71-.52 2.423-2.078 2.709-.332.06-.697.096-1.058.088-.884-.02-1.748-.303-2.052-1.144-.209-.581-.126-1.217-.126-1.48l1.458-.296.398-.076.072.417-.005.006zm6.936-.097l-.87-2.378-.933 2.378h1.803zm16.916.45h.388c.273.943.732 1.808 1.823 1.808.575 0 1.132-.394 1.132-1.03 0-.965-.952-1.228-1.645-1.533-.89-.406-1.612-.92-1.612-2.06 0-1.27.933-1.96 2.075-1.96.535 0 1.088.13 1.476.514l.125-.515h.43l.065 1.973h-.43c-.18-.8-.744-1.497-1.608-1.497-.48 0-.973.285-.973.845 0 .778.754.988 1.31 1.262 1.06.47 2.054.965 2.054 2.345 0 1.38-1.104 2.068-2.31 2.068-.629 0-1.279-.16-1.717-.644l-.142.644h-9.846v-.423c.377-.067.754-.11.848-.537.056-.33.08-.663.072-.997v-3.256h-.021l-1.974 5.213h-.47l-2.076-5.297h-.02v3.17c0 .33 0 .996.146 1.281.158.308.492.384.786.417V36h-5.043v-.429c.294-.044.818-.022.818-.461 0-.166-.125-.526-.19-.68l-.208-.593h-2.18l-.115.296c-.082.263-.24.593-.24.865 0 .503.449.537.818.57V36h-2.2v-.42c.398-.076.638-.417.826-.79a9.7 9.7 0 00.355-.856l1.96-4.93h.471l2.032 5.325c.105.274.305.8.503.996a.73.73 0 00.24.154c.08.033.172.033.252 0a.585.585 0 00.377-.44c.056-.33.08-.662.072-.995V29.93c-.179-.36-.567-.428-.922-.461v-.465c.355.011.722-.011 1.077 0 .42-.011.819.011 1.236 0l1.939 4.92 1.78-4.92h8.052v1.914h-.468c-.168-1.018-.638-1.349-1.582-1.349-.115 0-.754 0-.807.11-.033.055-.033.503-.033.593v1.92c.797 0 1.216-.155 1.256-1.109h.399c-.01.47-.032.954-.043 1.424.01.428.032.857.043 1.282h-.399c-.19-.954-.346-1.108-1.256-1.108v1.195c0 .976-.032 1.589 1.142 1.589h.398c1.048-.022 1.446-.383 1.698-1.514a.906.906 0 00.056-.17zm-4.786-2.993c0-.67.011-1.108-.44-1.251a1.816 1.816 0 00-.41-.045h-.53a1.476 1.476 0 00-.399.045c-.45.143-.441.593-.441 1.25v3.487c0 .669-.01 1.108.441 1.25.134.032.27.046.41.046h.524c.134.002.268-.012.399-.045.449-.143.441-.594.441-1.251l.005-3.486z" fill="#fff"/></svg>