<!-- by TradingView --><svg width="56" height="56" fill="none" xmlns="http://www.w3.org/2000/svg"><path fill="#08090D" d="M0 0h56v56H0z"/><circle cx="28" cy="28" r="28" fill="#08090D"/><path d="M35.919 29.774a4.42 4.42 0 00-.657-.867c-.263-.271-.915-.36-1.27-.176a1.295 1.295 0 01-1.247-.065c-.372-.244-.722-.516-1.106-.745-.315-.191-.635-.378-1.002-.49-.134-.041-.272-.064-.41-.01-.165.06-.19.045-.165-.108.01-.065.03-.13.048-.194.056-.192.06-.386.03-.581a5.473 5.473 0 00-.747-2.06c-.225-.367-.263-.745-.035-1.123a.53.53 0 00.03-.47c-.064-.184-.146-.36-.176-.55-.07-.509.004-1.01.069-1.514.008-.08.065-.103.134-.126.276-.095.552-.187.829-.29.237-.088.401-.237.427-.478a1.039 1.039 0 00-.133-.638c-.087-.15-.204-.283-.307-.42-.121-.165-.26-.329-.255-.532.009-.24-.104-.424-.272-.592a5.49 5.49 0 00-.514-.454c-.203-.157-.423-.276-.7-.299-.16-.015-.32-.053-.475-.08-.393-.069-.786-.13-1.175-.206-.228-.042-.267-.103-.276-.31-.009-.16.087-.267.229-.336.164-.08.155-.168.07-.298-.152-.225-.282-.462-.424-.692-.052-.08-.039-.118.047-.172.186-.118.41-.171.6-.278.985-.562 1.975-1.112 2.95-1.69 1.352-.798 2.557-1.769 3.844-2.644.1-.065.19-.141.264-.233.125-.16.164-.164.315-.011.177.183.311.39.445.596.039.061.078.126.168.141.277.046.519-.187.428-.42a5.627 5.627 0 00-.985-1.636 1.554 1.554 0 00-.466-.39c-.156-.08-.341-.041-.48.092-.116.111-.112.188.013.344.151.188.277.386.406.585.06.092.044.145-.047.218-1.089.84-2.25 1.593-3.378 2.384-.751.524-1.598.925-2.392 1.391-.557.329-1.11.661-1.663.994-.28.168-.561.202-.881.06a.999.999 0 00-.929.035c-.427.245-.725.577-.833 1.028a1.272 1.272 0 01-.19.44c-.117.171-.233.343-.25.55-.01.08-.074.149-.148.198-.099.07-.194.142-.302.188-.518.225-.941.55-1.33.92-.1.092-.117.15-.004.241.172.142.34.294.332.531 0 .05.03.104.056.15.169.286.402.52.747.645.07.027.152.046.104.141-.177.337-.29.455-.656.463a.674.674 0 00-.527.26.91.91 0 00-.22.562c.008.496-.2.932-.484 1.345-.16.233-.29.492-.531.66-.225.161-.342.364-.432.589a.382.382 0 00.043.37c.229.34.518.582 1.01.55.247-.014.32.05.398.26.021.054.034.112.047.165.091.39.139.783.195 1.177.168 1.17.324 2.338.53 3.504.092.512.109 1.02-.068 1.532a2.538 2.538 0 00-.125 1.063c.077.917.259 1.818.561 2.697.104.298.056.547-.147.795-.229.283-.458.57-.674.86-.483.653-.876 1.345-.984 2.136-.035.244-.056.493-.087.741a7.889 7.889 0 01-.255 1.253c-.142.501-.103 1.017-.077 1.525.026.535.142 1.051.432 1.529.082.133.13.282.16.435.047.23.172.42.35.585.362.34.781.63 1.079 1.024.108.141.298.11.462.076.147-.03.156-.141.164-.248.035-.378.009-.753.017-1.131 0-.084-.064-.1-.13-.122-.34-.123-.677-.245-1.023-.36-.09-.03-.134-.068-.134-.164-.008-.802-.025-1.609-.025-2.415 0-.313-.035-.642.09-.936.164-.386.199-.78.19-1.18a.997.997 0 01.32-.746 3.039 3.039 0 011.015-.676c.168-.069.32-.157.47-.252.407-.264.756-.581 1.12-.89.064-.058.116-.077.21-.05.377.107.752.21 1.128.31.125.03.164.09.143.198-.035.187-.074.374-.1.565-.108.742-.194 1.494-.488 2.201-.224.547-.272 1.1-.255 1.674.022.669.147 1.303.614 1.85.108.13.116.26.077.404a3.124 3.124 0 01-.362.872 3.526 3.526 0 00-.337.741 8.16 8.16 0 01-.622 1.44c-.121.222-.23.455-.264.704-.03.248.07.328.337.282a6.878 6.878 0 001.084-.286c.372-.13.41-.195.363-.55-.004-.02-.004-.039-.009-.058a.787.787 0 01.078-.504c.07-.13.138-.264.16-.405.078-.524.32-.998.523-1.487.112-.27.32-.447.596-.573.099-.046.203-.092.302-.141a.444.444 0 00.177-.145c.194-.302.1-.757-.207-.963-.07-.046-.082-.084-.044-.153.216-.375.41-.76.713-1.085.143-.153.181-.325.078-.508-.09-.153-.108-.318-.125-.486a8.45 8.45 0 01-.03-.917c0-.47.03-.898.064-1.326.056-.68.346-1.284.739-1.857.038-.057.073-.153.164-.134.09.02.095.123.103.195.018.168.005.333-.021.5-.056.34-.186.658-.337.971-.043.088-.086.184.017.264a.697.697 0 00.739.046c.354-.21.63-.49.86-.81.081-.119.163-.237.245-.352.026-.038.06-.095.117-.08.052.015.047.08.052.126.004.1.009.199.004.302-.009.692-.138 1.368-.25 2.048-.065.386-.091.783-.247 1.15-.215.528-.362 1.07-.51 1.613-.18.676-.25 1.364-.384 2.048-.095.485-.203.978-.505 1.41-.078.11-.073.24.009.355.078.107.198.104.32.092.315-.03.608-.122.872-.283a.352.352 0 00.134-.122c.198-.378.32-.772.164-1.188-.026-.077-.026-.138.03-.203.35-.424.514-.913.6-1.421.07-.402.156-.799.273-1.193.146-.496.246-1.012.682-1.402.073-.065.078-.164.073-.256a3.234 3.234 0 00-.116-.707c-.06-.23-.013-.409.13-.6a9.714 9.714 0 00.971-1.696c.078-.18.117-.36-.026-.532-.168-.206-.168-.428-.065-.653.126-.279.25-.558.38-.837.208-.447.42-.89.51-1.372.134-.699.047-1.39-.056-2.082-.026-.164-.043-.336-.143-.482a.47.47 0 01-.086-.24.929.929 0 00-.233-.57.9.9 0 01-.212-.443c-.009-.05-.026-.118.056-.13.22-.038.437-.095.627.088.172.172.37.317.557.482.194.172.41.225.678.137.332-.107.406-.24.246-.516zM22.31 24.203c.104-.023.207-.053.311-.08.12-.03.19.003.194.118.013.287.035.57.087.856a2.059 2.059 0 01-.661-.764c-.039-.069-.022-.11.069-.13zm.497 4.326c-.018.072-.03.148-.121.244-.264-1.211-.281-2.422-.536-3.607.06-.004.082.038.117.065.419.367.63.802.656 1.326.03.665.018 1.318-.116 1.972zm1.909-10.268c-.234.248-.475.485-.544.83-.04.202-.169.217-.359.095-.635-.405-.825-.986-.834-1.64 0-.107.048-.183.143-.24.272-.168.527-.348.717-.593.026-.03.06-.087.112-.068.06.023.03.088.017.126-.056.187.018.348.13.497.104.137.229.267.298.424.078.172.225.229.419.233h.229c-.125.13-.229.233-.328.336z" fill="#fff"/></svg>