<!-- by TradingView --><svg width="56" height="56" fill="none" xmlns="http://www.w3.org/2000/svg"><path fill="url(#paint0_linear)" d="M0 0h56v56H0z"/><circle cx="28" cy="28" r="28" fill="url(#paint1_linear)"/><path d="M49.998 30.985a1.464 1.464 0 00-1.521-1.405 1.469 1.469 0 00-1.387 1.541 1.464 1.464 0 001.521 1.405 1.468 1.468 0 001.387-1.54z" fill="#E60020"/><path d="M47.499 33.68a1.32 1.32 0 00-1.375-1.264 1.319 1.319 0 00-1.246 1.386 1.32 1.32 0 001.374 1.263 1.315 1.315 0 001.247-1.386z" fill="#DF0428"/><path d="M44.757 35.667a1.18 1.18 0 00-1.234-1.133c-.652.033-1.15.59-1.119 1.25a1.19 1.19 0 001.234 1.14 1.198 1.198 0 001.119-1.257z" fill="#D80A30"/><path d="M41.842 36.8a1.065 1.065 0 00-1.113-1.023 1.069 1.069 0 00-1.01 1.127 1.07 1.07 0 001.113 1.023 1.08 1.08 0 001.01-1.126z" fill="#D00E36"/><path d="M38.952 36.989a.956.956 0 00-.997-.92.964.964 0 00-.907 1.01.96.96 0 00.997.92.96.96 0 00.907-1.01z" fill="#C8113D"/><path d="M36.39 36.218a.872.872 0 00-.902-.83.874.874 0 00-.819.914c.02.48.429.855.902.829a.87.87 0 00.818-.913z" fill="#C01443"/><path d="M34.318 34.838a.777.777 0 00-.812-.744.78.78 0 00-.735.822.775.775 0 101.547-.078z" fill="#B81649"/><path d="M32.7 33.187a.707.707 0 00-.728-.673.707.707 0 00.064 1.412.705.705 0 00.665-.739z" fill="#AF1654"/><path d="M31.416 31.445a.627.627 0 10-1.253.065c.02.35.307.622.652.602a.627.627 0 00.6-.667z" fill="#A6165F"/><path d="M30.412 29.703a.567.567 0 00-.588-.544.568.568 0 00-.537.596.567.567 0 00.588.544.569.569 0 00.537-.596z" fill="#9D166A"/><path d="M29.632 28.006a.516.516 0 00-.511-.518.516.516 0 00-.511.518c0 .285.23.518.511.518a.516.516 0 00.511-.518z" fill="#931574"/><path d="M6 28.272c0 .913.729 1.658 1.63 1.658.901 0 1.636-.738 1.636-1.658 0-.913-.728-1.658-1.636-1.658A1.64 1.64 0 006 28.272z" fill="#0091DB"/><path d="M8.237 25.027a1.464 1.464 0 001.522 1.406 1.468 1.468 0 001.387-1.542 1.464 1.464 0 00-1.522-1.405c-.805.032-1.425.725-1.387 1.541z" fill="#0086D1"/><path d="M10.737 22.327a1.32 1.32 0 001.374 1.263c.722-.032 1.278-.654 1.246-1.392a1.317 1.317 0 00-1.374-1.263 1.329 1.329 0 00-1.246 1.392z" fill="#007BC7"/><path d="M13.479 20.339a1.18 1.18 0 001.234 1.133 1.184 1.184 0 001.118-1.25 1.19 1.19 0 00-1.233-1.14 1.203 1.203 0 00-1.119 1.257z" fill="#006FBC"/><path d="M16.4 19.211a1.07 1.07 0 001.113 1.024 1.069 1.069 0 001.01-1.127 1.065 1.065 0 00-1.113-1.023 1.068 1.068 0 00-1.01 1.126z" fill="#0063B2"/><path d="M19.283 19.018a.96.96 0 00.997.92.966.966 0 00.908-1.017.96.96 0 00-.997-.92.973.973 0 00-.908 1.017z" fill="#0D57A7"/><path d="M21.846 19.788c.02.48.429.849.902.83a.874.874 0 00.818-.914.868.868 0 00-.901-.829.874.874 0 00-.819.913z" fill="#3A4A9D"/><path d="M23.918 21.168c.019.434.383.764.812.745a.78.78 0 00.735-.823.777.777 0 00-.812-.744.784.784 0 00-.735.822z" fill="#4F3A93"/><path d="M25.541 22.82c.02.388.346.686.729.673a.709.709 0 00.665-.738.703.703 0 00-.729-.674.7.7 0 00-.665.738z" fill="#5F258A"/><path d="M26.82 24.561a.627.627 0 101.253-.065.627.627 0 00-.659-.602.633.633 0 00-.594.667z" fill="#6B1685"/><path d="M27.83 26.303a.567.567 0 00.588.544.568.568 0 00.537-.596.567.567 0 00-.588-.544.56.56 0 00-.537.596z" fill="#80167D"/><defs><linearGradient id="paint0_linear" x1="10.418" y1="9.712" x2="68.147" y2="76.017" gradientUnits="userSpaceOnUse"><stop stop-color="#1A1E21"/><stop offset="1" stop-color="#06060A"/></linearGradient><linearGradient id="paint1_linear" x1="10.418" y1="9.712" x2="68.147" y2="76.017" gradientUnits="userSpaceOnUse"><stop stop-color="#1A1E21"/><stop offset="1" stop-color="#06060A"/></linearGradient></defs></svg>