<!-- by TradingView --><svg width="56" height="56" fill="none" xmlns="http://www.w3.org/2000/svg"><path fill="#0F7FCA" d="M0 0h56v56H0z"/><circle cx="28" cy="28" r="28" fill="#0F7FCA"/><path d="M7 33.569c0 .787-.671 1.427-1.499 1.427-.83 0-1.501-.64-1.501-1.427v-7.147c0-.787.671-1.426 1.501-1.426.828 0 1.499.639 1.499 1.426v7.147z" fill="#fff"/><path d="M11.864 24.99a.711.711 0 00.197-.493c0-.385-.316-.5-.686-.5H5.34c-.742 0-1.34-.734-1.34-1.505C4 21.722 4.598 21 5.34 21h6.05c1.86 0 3.59 1.563 3.59 3.497 0 1.034-.526 2.065-1.213 2.706l-3.208 3.344a.92.92 0 00-.31.708c0 .565.402.745.842.745h2.313c.74 0 1.339.68 1.339 1.448 0 .773-.6 1.552-1.34 1.552H11.09c-2.716 0-3.88-1.73-3.88-3.826 0-1.385.682-2.203 1.26-2.808l3.395-3.376z" fill="#fff"/><path fill-rule="evenodd" clip-rule="evenodd" d="M36.716 32c.536 0 .866-.232.866-.797 0-.441-.216-.672-.589-.815l-5.202-2.455c-1.235-.512-2.178-1.95-2.178-3.432 0-1.936 1.596-3.501 3.432-3.501H39c.73 0 1.275.787 1.275 1.558 0 .792-.532 1.444-1.262 1.444h-5.798c-.367 0-.622.173-.622.559 0 .282.106.476.336.584l5.083 2.512c1.353.546 2.454 1.927 2.454 3.546 0 2.094-1.761 3.797-3.75 3.797h-5.664c-.73 0-1.332-.783-1.332-1.554S30.32 32 31.052 32h5.664zM48.2 32c.542 0 .877-.232.877-.797 0-.441-.22-.672-.597-.815l-5.272-2.455C41.956 27.42 41 25.983 41 24.5 41 22.565 42.618 21 44.478 21h6.036c.74 0 1.292.787 1.292 1.558 0 .792-.539 1.444-1.279 1.444h-5.876c-.373 0-.63.173-.63.559 0 .282.107.476.34.584l5.152 2.512c1.37.546 2.487 1.927 2.487 3.546C52 33.297 50.215 35 48.2 35h-5.742c-.74 0-1.35-.783-1.35-1.554S41.718 32 42.458 32H48.2zM16.84 23.815l-.122.182h5.485c2.133 0 3.858 1.767 3.858 4.012 0 2.248-1.725 4.028-3.858 4.028s-3.857-1.78-3.857-4.028c0-.348.044-.693.122-1.013v-.003c.232-1.106-.575-1.845-1.365-1.845-.6 0-1.237.416-1.393 1.114v.001c-.148.698-.212 1.07-.212 1.746 0 3.853 2.997 6.991 6.705 6.991 3.711 0 6.705-3.138 6.705-6.99 0-3.854-2.996-6.994-6.705-6.994-2.18 0-4.14 1.126-5.364 2.799z" fill="#fff"/></svg>