<!-- by TradingView --><svg width="56" height="56" fill="none" xmlns="http://www.w3.org/2000/svg"><circle cx="28" cy="28" r="28" fill="#D23252"/><path fill="#D23252" d="M0 0h56v56H0z"/><path d="M32.291 16.233c-.213-.653-.75-2.41-1.244-2.889-.736-.713-1.902-.821-4.023-.821-1.503 0-2.497.534-3.037 1.145-.443.495-.649 1.333-.88 2.052L20.597 23h3.592l1.655-4.48L27.5 23h3.596l-1.307-3.456c-.139-.455-.576-1.55-.923-1.544-.048-.009.78-.005 1.527 0 .693.002 1.393.005 1.538-.009.514-.058.845-.294.361-1.758zM28.213 18c-.824.004-2.184 0-2.184 0l1.605-4.979s1.043 3.293 1.231 3.842c.21.61.06 1.132-.652 1.137z" fill="#fff"/><path d="M41.608 28.273c.578-.397 1.829-1.333 2.146-1.934.474-.897.225-2-.429-3.944-.467-1.383-1.305-1.86-2.072-2.167-.625-.25-1.51-.228-2.295-.228H31.01l1.102 3h5.248l-4.248 3.078 1.11 3.3L37.573 27c.17-.114.623-.433.862-.69.242-.257.223-.503.218-.597-.006-.05.244.714.472 1.4.21.643.419 1.279.481 1.412.216.454.71.64 2.002-.253zm-2.992-3.199A118.36 118.36 0 0137.94 23h5.08s-2.609 1.982-3.09 2.323c-.534.38-1.088.404-1.313-.249z" fill="#fff"/><path d="M32.286 40.641c.57.408 1.88 1.265 2.57 1.373 1.029.155 2.04-.412 3.755-1.615 1.22-.854 1.692-1.853 1.76-2.654.055-.653-.29-1.445-.54-2.156l-2.401-7.314-2.91 2.03 1.588 4.83-4.286-2.97-2.904 2.037 3.375 2.345c.168.12.619.431.945.576a.783.783 0 00.654.013c.048-.018-.628.45-1.234.868-.563.39-1.129.782-1.239.878-.382.34-.412.85.867 1.76zm2.23-3.732c.66-.473 1.763-1.241 1.763-1.241l1.536 4.67s-2.657-1.814-3.142-2.153c-.542-.37-.733-.868-.157-1.276z" fill="#fff"/><path d="M17.215 35.923c-.228.65-.669 2.114-.558 2.781.163.996 1.034 1.746 2.75 2.946 1.22.86 2.351.984 3.16.797.66-.148 1.334-.71 1.96-1.16l6.465-4.463-2.902-2.044-4.268 2.95 1.603-4.854-2.908-2.034-1.262 3.821c-.07.19-.238.704-.278 1.05-.042.343.125.531.187.602.034.036-.633-.437-1.234-.866-.56-.394-1.12-.795-1.252-.865-.45-.245-.96-.118-1.463 1.34zm4.368.89c.67.464 1.766 1.239 1.766 1.239l-4.126 2.85s.966-3 1.144-3.545c.204-.61.635-.946 1.216-.543z" fill="#fff"/><path d="M17.23 20.64c-.71-.008-2.293.04-2.914.347-.93.459-1.401 1.492-2.057 3.437-.467 1.382-.241 2.458.192 3.141.353.562 1.112 1.006 1.753 1.441l6.395 4.552 1.12-3.29L17.492 27h5.273l1.11-3h-4.158c-.207 0-.768.048-1.116.117-.352.07-.485.187-.536.267-.025.045.234-.716.468-1.4.22-.635.44-1.274.47-1.411.1-.493-.182-.922-1.773-.934zm.47 4.284c-.249.758-.65 1.915-.65 1.915L12.94 24s3.254.004 3.851 0c.666-.005 1.126.266.91.924z" fill="#fff"/></svg>