<!-- by TradingView --><svg width="56" height="56" fill="none" xmlns="http://www.w3.org/2000/svg"><path fill="#E31937" d="M0 0h56v56H0z"/><circle cx="28" cy="28" r="28" fill="#E31937"/><path d="M14.005 29.642h-.602v-1.215h.602v1.215zM42.78 30h-.572v-3.569h.572V30zm-6.207-2.456H36V26.5h.574v1.044zM26.384 27v-1.548h-.924V24H23v1.452h-2l-1 2.975-1-2.975h-2.642L18.5 31l-.856 2h2.679L23 26.99V31l2.46.01V27h.924zM52 31.01v-3.986c0-.45-.194-.837-.581-1.16-.37-.307-.776-.46-1.229-.451-.749.009-1.383.206-1.743.584l-.01-.504H46v5.517l2.437-.01v-4H49v4l3 .01zm-35.335 0v-3.546c0-.701-.286-1.241-.84-1.628-.518-.36-1.183-.54-2.005-.53-.96.008-1.71.197-2.254.558-.472.305-.703.674-.703 1.115v.244h2.569v-.659h.573v1.026l-1.312.028c-1.348.026-2.033.549-2.041 1.557-.02 1.278.581 1.917 1.791 1.917.73 0 1.284-.262 1.663-.792l.01.71h2.549zm22.381-2.817c-.018-.926-.221-1.61-.6-2.042-.49-.567-1.189-.846-2.39-.846-1.017 0-1.66.203-2.102.5-.638.423-.952 1.242-.952 2.448 0 1.179.333 1.99.998 2.43.453.306 1.076.4 2.046.409.933.009 1.503-.135 1.994-.45.433-.279.738-.72.905-1.314.027-.117.045-.239.055-.328h-2.5v1H36v-1.482h3.028c.01-.117.018-.225.018-.325zm6.58 0c0-1.196-.315-1.997-.942-2.43-.435-.297-1.164-.458-2.19-.458s-1.755.153-2.19.45c-.618.432-.932 1.242-.932 2.438 0 1.216.314 2.025.932 2.448.434.297 1.164.45 2.19.45 1.016 0 1.746-.143 2.19-.45.627-.432.942-1.25.942-2.448zm-35.205-2.32a1.794 1.794 0 00-.49-1.324C9.588 24.18 9.135 24 8.553 24H4v7.01h2.982l.01-3.01h.703l-.01 3.01h2.726v-2.213c0-.396-.074-.684-.231-.873-.221-.27-.452-.442-.684-.522.314-.18.536-.36.656-.54.157-.234.25-.568.269-.99zM32.74 31.01v-4.112c0-.423-.167-.774-.491-1.062a1.723 1.723 0 00-1.164-.423c-.323 0-.646.053-.97.162-.323.108-.563.243-.72.396V24h-2.753v7.01h2.753V27H30v4.01h2.74zM7.694 26.87H7v-1.53h.695v1.53z" fill="#fff"/></svg>