<!-- by TradingView --><svg width="56" height="56" fill="none" xmlns="http://www.w3.org/2000/svg"><path fill="#04A6E4" d="M0 0h56v56H0z"/><circle cx="28" cy="28" r="28" fill="#04A6E4"/><path fill-rule="evenodd" clip-rule="evenodd" d="M43.704 23.196c-1.745 0-3.74.894-4.704 1.903V17H34.46v1.961l1.539.383V39h2.64l.44-1.903c.964 1.01 2.464 1.903 4.246 1.903C46.669 39 49 37.399 49 30.9c0-6.068-2.367-7.704-5.296-7.704zM42.16 36.615c-1.121 0-2.476-.592-3.16-1.218v-8.46c.842-.742 2.1-1.218 3.319-1.218 2.06 0 2.682 1.485 2.682 5.315 0 4.014-.683 5.58-2.84 5.58z" fill="#fff"/><path d="M28.412 23.012V25.4l2.003.2-2.103 6.765c-.348 1.145-.672 2.385-.858 3.566h-.038c-.224-1.205-.423-2.267-.833-3.53l-2.19-6.765L26 25.388V23h-6.795v2.424l1.369.212L25.214 39h3.434l4.64-13.329L35 25.435v-2.423h-6.588zM18 34.337c0-3.377-1.905-4.38-4.705-5.1-2.289-.579-3.048-1.122-3.073-2.35 0-1.216.896-1.877 2.489-1.877.759 0 1.306.095 1.779.307L15.062 28h2.389v-4.17c-1.182-.579-2.621-.818-4.686-.818C9.045 23.012 7 24.857 7 27.36c0 2.986 1.928 4.096 4.628 4.793 2.265.578 3.123 1.121 3.123 2.597 0 1.393-.759 2.113-2.7 2.113-1.02 0-1.393-.082-2.065-.39L9.476 34H7v3.867c1.17.637 2.924 1.121 5.089 1.121 3.633 0 5.911-1.546 5.911-4.651z" fill="#fff"/></svg>