<!-- by TradingView --><svg width="56" height="56" fill="none" xmlns="http://www.w3.org/2000/svg"><path fill="#ED2024" d="M0 0h56v56H0z"/><circle cx="28" cy="28" r="28" fill="#ED2024"/><path d="M25.305 32.803l3.627-5.908a2.88 2.88 0 00.257-.547.946.946 0 00.053-.348h2.138c.443 0 .157.163.316.241.329-.252.57-.24 1.07-.24h1.76c1.398 0 .973.942.438 1.825l-1.213 2C32.856 31.303 31.34 31 29.874 31c-.241 0-.41-.056-.48-.152-.169-.229-.427.068-.525.281-.211.458-.822 1.229-.916 1.501a1.112 1.112 0 00-.057.368h-2.532c-.11-.008-.13-.076-.059-.194zM32.335 27h-.564a.874.874 0 00-.443.109c-.097.056-.2.176-.313.362l-1.087 1.845c-.1.165-.17.3-.207.407-.073.21.045.278.355.278h.585c.205 0 .356.002.454-.074.099-.075.236-.26.411-.551l.997-1.689c.034-.056.07-.115.106-.171.056-.088.095-.158.113-.212.036-.103.023-.176-.038-.217-.061-.043-.183-.087-.369-.087zm-8.137 1.683l-.726.019c-.2.005-.342.024-.422.07-.08.047-.177.158-.283.337l-.18.303a1.592 1.592 0 00-.113.21c-.04.116-.031.192.024.234.057.042.178.064.362.064h.61c.218 0 .363-.018.433-.055.07-.037.16-.136.257-.307l.31-.552c.155-.269.027-.331-.272-.323zm-1.764-2.678h4.625c.218 0 .383.02.499.06a.723.723 0 01.302.216c.1.12.16.271.182.453.022.18 0 .36-.06.537a3.812 3.812 0 01-.351.694l-1.32 2.178c-.101.166-.187.35-.256.547a.865.865 0 00-.06.31H23.55a.939.939 0 01.07-.325l.042-.12c-.161.182-.33.309-.507.384-.178.076-.394.06-.648.06h-1.463c-.463 0-.787-.051-.97-.259-.218-.244-.263-.55-.135-.92.047-.137.125-.293.232-.467l.295-.489c.27-.448.554-.759.852-.93.297-.17.7-.256 1.208-.256h2.364c.185 0 .311-.022.376-.065a.65.65 0 00.263-.352c.037-.106.024-.18-.04-.218-.064-.04-.198-.058-.403-.058h-2.461c-.48-.004-.86.062-1.142.195l.951-1.175zm-5.555 0c.324.001.138.24.6.086.126-.043.31-.086.566-.086h1.664c.467 0 .778.134.935.401.144.256.155.556.036.902-.077.22-.21.489-.399.803l-1.236 2.037c-.1.166-.186.348-.253.542a.844.844 0 00-.06.31h-2.915c.203-.195.36-.315.477-.466.116-.15.26-.369.433-.654l1.354-2.236c.136-.228.211-.36.224-.398.044-.127-.001-.21-.137-.246a1.203 1.203 0 00-.256-.015h-.595c-.198 0-.349.032-.45.096-.101.063-.21.192-.327.386l-1.625 2.681c-.101.166-.187.35-.255.547A.833.833 0 0014.6 31h-2.914c.199-.194.357-.314.474-.465.118-.15.264-.369.437-.654l1.798-2.966c.103-.173.189-.355.253-.542.04-.111.057-.233.057-.367h2.173zM48.12 26c.323.002.137.193.598.039.127-.042.31-.039.567-.039h1.664c.467 0 .778.087.935.355.144.255.155.556.036.9a4.42 4.42 0 01-.4.804l-1.235 2.037c-.1.167-.186.349-.253.543-.039.111-.058.23-.06.36h-2.916c.203-.194.362-.365.478-.516.115-.151.26-.37.433-.654l1.354-2.237c.089-.148.426-.486.087-.576a1.212 1.212 0 00-.256-.016h-.596c-.197 0-.348.033-.45.096-.1.064-.209.126-.326.32l-1.626 2.68c-.1.167-.186.35-.255.548a1.136 1.136 0 00-.058.355h-2.914c.198-.194.356-.365.474-.516.118-.151.264-.37.437-.654l1.798-2.966c.103-.174.189-.355.253-.543a.85.85 0 00.057-.32h2.173zm-7.604 0h3.057c1.221 0 1.301 1.019.747 1.913l-1.14 1.842c-.628 1.017-1.33 1.244-2.485 1.244h-3.042c-.84 0-1.602-.146-1.225-1.193.044-.122.118-.264.22-.426l.007-.013c.758.01 1.437.017 2.277.006.312.004.155.31.116.418-.08.221.316.21.441.212h.562c.35.006.533-.043.718-.343l1.21-1.952c.214-.348.356-.708-.2-.708h-.621c-.395 0-.642.116-.854.453-.09.184-.194.153-.61.19l-1.982.011.298-.482c.568-.908 1.475-1.172 2.506-1.172z" fill="#fff"/><path d="M35.343 28.368c-.109.133-.218.343-.328.476-.051.09.026.148.232.153 1.253.01 2.507-.01 3.76 0 .258 0 .521-.008.618-.169l.27-.524c.113-.188.211-.304-.135-.304l-3.202.016c-.479 0-.979.064-1.215.352zM15.502 23l-1.086 2.259c-.191-.195-.927-.26-1.256-.26H9.917c-.18 0-.315.021-.401.052-.22.08-.361.31-.474.501-.164.279.071.447.373.447h2.494c.405 0 .969-.012 1.126.11.24.187.458.67.352.997-.334 1.025-1.132 2.27-1.829 3.088-.663.779-1.672.813-2.616.805H4l1.162-2.106c.641.508 2.433.218 3.216.218.434 0 .508.585 1.433.699.46.056.64-.086.653-.22.024-.242-.633-.167-.705-.313-.259-.527-.075-1.054.158-1.216.3-.208.944.123 1.004.054.225-.258-1.044-.993-1.396-.681l-.483.429c-.18.159-1.255.157-1.797.174-.95.03-1.305-.37-1.064-1.11.293-.901.944-1.805 1.41-2.633C8.153 23.293 9.07 23 10.148 23h5.354z" fill="#fff"/></svg>