<!-- by TradingView --><svg width="56" height="56" fill="none" xmlns="http://www.w3.org/2000/svg"><path fill="#DF134C" d="M0 0h56v56H0z"/><circle cx="28" cy="28" r="28" fill="#DF134C"/><path d="M38.917 7a12.643 12.643 0 01-.076 11.549 7.932 7.932 0 001.973-4.262c.215.45.366.928.448 1.421a6.839 6.839 0 00-.06-4.816s2.265 3.524-.2 6.642a7.514 7.514 0 00-.16-.875c-.7 1.2-1.616 2.258-2.701 3.122 2.8-.803 4.065-2.167 4.621-3.993C44.162 11.15 38.917 7 38.917 7z" fill="#004694"/><path d="M42.454 18.477a.108.108 0 00-.148 0c-.064.06-3.253 3.475-9.387 2.656a43.258 43.258 0 01-5.118-1.067c.444-.907.764-2.199-.552-2.946-1.89-1.067-4.454.779-4.602 1.024-.056.096.02.148.1.156.332.032 2.865-.036 3.95 1.501-2.69-.666-3.014.486-2.618 1.674A14.8 14.8 0 0025.8 24.78a.133.133 0 010 .152.265.265 0 01-.132.085c-4.233 1.424-7.39 5.658-9.407 9.27a13.573 13.573 0 01-1.525-6.26 13.789 13.789 0 015.66-11.05 13.705 13.705 0 0112.227-1.988v-.033a14.435 14.435 0 00-16.348 4.357 14.535 14.535 0 00-1.042 16.932 34.932 34.932 0 00-1.601 3.84c-.188.562-.236 1.023.124 1.18.36.157.572-.04 1.064-.722 1.569-2.167 8.231-12.079 12.86-8.945 2.302 1.56 3.026 3.006 1.685 4.354-.708.71-2.4 1.713-3.417 2.195-1.576.746-2.429.895-2.297 1.453.132.557.8.51 3.434-.177 3.044-.803 9.963-2.596 6.402-8.475-1.617-2.649-3.285-4.655-4.378-6.292a.11.11 0 010-.137c.036-.056.136-.048.136-.048 11.76-.883 13.173-5.654 13.217-5.835 0-.032.048-.132 0-.18l-.008.02z" fill="#EFF7FB"/><path d="M40.825 33.922a13.773 13.773 0 01-10.172 7.58 13.744 13.744 0 01-12.04-3.968c-.4.506-.8 1-1.144 1.457a14.433 14.433 0 0013.03 3.683 14.472 14.472 0 0010.358-8.74h-.032v-.012z" fill="#EFF7FB"/></svg>