<!-- by TradingView --><svg width="56" height="56" fill="none" xmlns="http://www.w3.org/2000/svg"><path fill="#022C6C" d="M0 0h56v56H0z"/><circle cx="28" cy="28" r="28" fill="#022C6C"/><path fill-rule="evenodd" clip-rule="evenodd" d="M16.223 43c.537-4.557 2.171-9.055 4.73-12.864 1.989-2.962 4.563-5.546 7.489-7.608a31.875 31.875 0 017.489-3.804c-.22.145-.439.283-.658.421-.22.138-.44.276-.659.421-3.071 2.004-5.85 4.56-7.928 7.55-.643.813-1.17 1.742-1.667 2.643C22.776 33.778 21.577 38.43 21.45 43h-5.228zM12 36.873S10.5 40 10 43h4.088a28.583 28.583 0 014.319-11.819 31.906 31.906 0 017.606-8.101 31.263 31.263 0 00-8.162 5.72C15.452 31.152 13.5 33.5 12 36.873zm30.538-16.942c.575.261 1.153.523 1.73.797a157.835 157.835 0 01-2.194-3.746l.748-.783c.726-.758 1.46-1.525 2.178-2.324-1.065.198-2.147.43-3.207.656-.338.073-.673.145-1.006.215-.487-.852-.949-1.678-1.41-2.504L38.68 11a190.969 190.969 0 01-.468 4.269c-.169.03-.337.062-.506.094-1.241.23-2.497.463-3.707.719l.828.375c1.021.463 2.057.933 3.092 1.367a186.326 186.326 0 01-.445 3.82l-.052.42c.302-.33.608-.659.913-.988.611-.658 1.223-1.316 1.808-1.974.048-.012.086-.049.122-.084.053-.05.101-.096.17-.062.694.337 1.396.655 2.102.975z" fill="#fff"/></svg>