<!-- by TradingView --><svg width="56" height="56" fill="none" xmlns="http://www.w3.org/2000/svg"><path fill="url(#paint0_linear)" d="M0 0h56v56H0z"/><circle cx="28" cy="28" r="28" fill="url(#paint1_linear)"/><path d="M12 17h38L37 41H12V17z" fill="#FFD20B"/><path fill-rule="evenodd" clip-rule="evenodd" d="M30.377 22.37l.608-2.944c.14-.467.14-1.028 0-1.215l-1.122.327c.081.242.022.555-.056.967l-.037.201-.608 2.943c-.046.28-.093.561-.093.701 0 .42.28.701.84.701.235 0 .468-.047.655-.093l-.047-.608h-.093c-.14 0-.187-.093-.187-.233 0-.066.023-.18.07-.405l.07-.343zm-12.614-2.664c-.327-.28-.748-.374-1.215-.374-.467 0-.888.327-.888.701 0 .234.14.374.514.514l.608.187c.7.233 1.074.607 1.074 1.215 0 1.168-.981 2.149-2.616 2.149-.748 0-1.308-.187-1.776-.467l.561-.841c.467.28.841.42 1.402.42.7 0 1.12-.374 1.12-.888 0-.28-.186-.467-.56-.56l-.56-.187c-.608-.187-.982-.514-.982-1.122 0-1.074 1.028-1.962 2.29-1.962.654 0 1.308.187 1.682.56l-.654.655zM20.633 21h-.701l-.394 1.743c-.047.14-.047.234-.047.327 0 .233.094.28.328.28a1.1 1.1 0 00.373-.093v.607c-.28.094-.607.187-.887.187-.608 0-.935-.28-.935-.7 0-.14 0-.328.047-.515l.44-1.836h-.327l.14-1h.424l.21-.948 1.075-.28A50.3 50.3 0 0020.092 20h.867l-.327 1zm3.437 1.696l.327-1.495c.047-.327.187-.748.28-.934-.327-.187-.84-.28-1.308-.28-.654 0-1.168.186-1.588.607-.468.514-.841 1.355-.841 2.289 0 .841.373 1.262 1.074 1.262.467 0 .794-.14 1.075-.468 0 .14.093.327.28.468l.841-.655c-.187-.233-.233-.467-.14-.794zm-1.635-1.635c.28-.327.514-.327.747-.327.055 0 .126.016.184.03.042.009.077.017.096.017l-.42 1.868c-.093.28-.42.608-.748.608-.233 0-.326-.14-.326-.514 0-.514.14-1.308.467-1.682zm4.018-1.168c.047.14.094.467.094.654.326-.374.747-.607 1.354-.607.514 0 .795.28.795.794 0 .187 0 .374-.047.56l-.56 2.71H27.06l.561-2.57c.047-.14.047-.28.047-.373 0-.187-.094-.234-.28-.234-.234 0-.561.14-.888.608l-.56 2.57H24.91l.56-2.664c.094-.42.094-.794 0-1.028l.982-.42zm7.896 3.644c-.514.374-1.075.56-1.635.56-.935 0-1.495-.513-1.495-1.448 0-.84.373-1.681.887-2.196.374-.373.841-.513 1.355-.513.794 0 1.355.327 1.355 1.074 0 .748-.7 1.355-2.009 1.355-.28 0-.467-.047-.467-.047s-.047.234-.047.374c0 .467.234.654.654.654.374 0 .748-.14 1.121-.42l.28.607zm-1.542-1.869c.467 0 .981-.14.981-.56 0-.234-.093-.42-.42-.42-.374 0-.701.233-.841.934 0 0 .14.046.28.046zm3.785.476l-.187-2.281h-1.028l.373 2.96s.094.886.094 1.177h.28l-.075.118c-.225.353-.33.517-.626.692a3.013 3.013 0 01-.7.243l.187.727a2.41 2.41 0 001.027-.388c.327-.194.608-.582 1.028-1.357l2.29-4.169h-1.122l-.98 1.94a20.274 20.274 0 00-.515 1.21s-.046-.63-.046-.872zM16.61 25.977c.81 0 1.43.346 1.43 1.081 0 .475-.333 1.037-1.144 1.253a.95.95 0 01.81.951c0 .303-.142.822-.524 1.168-.381.389-.858.518-1.716.518h-2.003l1.192-4.97h1.955zm-1.86 4.193h.716c.238 0 .429-.043.572-.13.238-.13.429-.475.429-.734 0-.346-.19-.476-.715-.476h-.668l-.333 1.34zm.525-2.204h.668c.286 0 .429-.044.572-.13.19-.13.333-.303.333-.562 0-.303-.143-.432-.62-.432h-.667l-.286 1.124zm4.291 1.361l.667-3.004c.096-.476.096-1.048-.047-1.24l-1.145.335c.083.247.023.566-.057.987l-.038.205-.62 3.003c-.047.286-.095.572-.095.715 0 .43.286.716.858.716.239 0 .477-.048.668-.096l-.048-.62h-.095c-.143 0-.191-.095-.191-.238 0-.067.024-.183.071-.413l.072-.35zm4.53-1.192l-.334 1.526c-.048.334-.048.572.143.81l-.858.668c-.191-.143-.286-.334-.286-.477-.286.334-.62.477-1.097.477-.715 0-1.096-.43-1.096-1.287 0-.954.38-1.812.858-2.337.429-.429.953-.62 1.62-.62.477 0 1.002.096 1.336.287-.068.136-.137.394-.205.652a16.16 16.16 0 01-.081.301zm-1.192-.477c-.239 0-.477 0-.763.334-.334.382-.477 1.192-.477 1.717 0 .381.095.524.334.524.334 0 .667-.334.763-.62l.429-1.907a.591.591 0 01-.098-.018.943.943 0 00-.188-.03zm3.957 0c.238 0 .429.096.62.287l.667-.573c-.334-.333-.715-.476-1.097-.476-.572 0-.953.19-1.334.476-.573.477-1.05 1.383-1.05 2.384 0 .858.477 1.383 1.383 1.383.572 0 1.05-.19 1.478-.524l-.334-.668c-.333.238-.62.381-.905.381-.286 0-.477-.19-.477-.62 0-.62.286-1.477.572-1.811.143-.143.286-.238.477-.238zm3.337-2.574c.048.19.048.667-.143 1.526l-.954 4.386h-1.049l.954-4.434c.095-.572.143-.906.095-1.097l1.097-.381zm2.145 1.86l-1.668 1.763 1.096 2.289h-1.24l-.858-2.289 1.383-1.764h1.287zm6.95 2.908c.286-.43.954-1.856.954-1.856h-.954c-.048.143-.477.95-.62 1.188l-.715-.858.095-.048c1.002-.476 1.24-.906 1.24-1.525 0-.62-.524-1.002-1.335-1.002-1.049 0-1.86.716-1.86 1.574 0 .334.096.62.43.906-.858.381-1.335.953-1.335 1.62 0 .763.62 1.288 1.716 1.288.763 0 1.24-.19 1.621-.477l.286.334H40.2l-.906-1.144zm-2.145.476c-.477 0-.763-.19-.763-.572 0-.429.238-.763.62-.953l1.048 1.24c-.238.19-.524.285-.905.285zm.762-3.861c.239 0 .382.143.382.381 0 .334-.286.715-.668.906-.286-.286-.333-.477-.333-.62 0-.381.286-.667.62-.667zm-22 6.533c.911 0 1.487.086 1.822.473.24.301.432.603.432 1.205 0 .818-.336 1.893-1.007 2.539-.576.56-1.152.783-2.35.783h-1.344l1.2-5h1.247zm-1.152 4.09h.528c.48 0 .815-.131 1.055-.433.48-.688.576-1.678.576-1.936 0-.473-.144-.904-.863-.904h-.48l-.816 3.273zm5.229.995c.528 0 1.103-.19 1.63-.567l-.239-.615c-.384.284-.767.426-1.151.426-.432 0-.672-.19-.672-.662 0-.142.048-.379.048-.379s.192.048.48.048c1.343 0 2.063-.615 2.063-1.371 0-.757-.576-1.088-1.391-1.088-.528 0-1.008.142-1.392.52-.527.52-.91 1.371-.91 2.222 0 .946.575 1.466 1.534 1.466zm1.103-3.026c0 .426-.527.568-1.007.568-.144 0-.336-.048-.288-.048.144-.709.48-.945.864-.945.335 0 .431.189.431.425zm4.22-.094c-.19-.19-.383-.284-.623-.284-.191 0-.335.095-.48.236-.287.331-.575 1.182-.575 1.797 0 .425.192.615.48.615s.575-.142.911-.379l.336.662c-.432.331-.912.52-1.487.52-.911 0-1.391-.52-1.391-1.37 0-.994.48-1.892 1.055-2.365.384-.283.768-.472 1.343-.472.384 0 .768.142 1.103.472l-.671.568zm2.591-1.324c.192-.851.192-1.324.144-1.513l-1.103.378c.048.19 0 .52-.096 1.088L25.887 38h1.056l.96-4.359zm.624 2.08l1.679-1.75h-1.343l-1.343 1.75.863 2.279h1.247l-1.103-2.279zm4.748 1.797c-.527.378-1.103.567-1.678.567-.96 0-1.535-.52-1.535-1.466 0-.85.383-1.702.91-2.222.385-.378.864-.52 1.392-.52.815 0 1.39.331 1.39 1.088 0 .756-.719 1.37-2.062 1.37-.287 0-.48-.047-.48-.047s-.047.237-.047.379c0 .472.24.662.671.662.384 0 .768-.142 1.151-.426l.288.615zm-1.583-1.891c.48 0 1.008-.142 1.008-.568 0-.236-.096-.425-.432-.425-.384 0-.72.236-.863.945 0 0 .143.048.287.048zm3.982-1.135c.048-.236-.048-.52-.096-.662l-.96.426c.097.283.097.614 0 1.134L34.043 38h1.055l.576-2.61c.336-.473.575-.567.767-.567.096 0 .192.047.288.094l.48-.945c-.144-.095-.24-.095-.384-.095-.432 0-.815.237-1.151.615z" fill="#000"/><defs><linearGradient id="paint0_linear" x1="10.418" y1="9.712" x2="68.147" y2="76.017" gradientUnits="userSpaceOnUse"><stop stop-color="#1A1E21"/><stop offset="1" stop-color="#06060A"/></linearGradient><linearGradient id="paint1_linear" x1="10.418" y1="9.712" x2="68.147" y2="76.017" gradientUnits="userSpaceOnUse"><stop stop-color="#1A1E21"/><stop offset="1" stop-color="#06060A"/></linearGradient></defs></svg>