<!-- by TradingView --><svg width="56" height="56" fill="none" xmlns="http://www.w3.org/2000/svg"><circle cx="28" cy="28" r="28" fill="#0081C6"/><path fill="#0081C6" d="M0 0h56v56H0z"/><path d="M14 21.426c-.968-.412-2.29-.705-3.369-.705-1.055 0-2.42.455-2.42 2.1 0 2.621 6.732 1.517 6.732 6.586 0 3.313-2.662 4.57-5.764 4.57-1.672 0-2.66-.218-4.179-.585v-2.73c1.056.564 2.793.933 4.004.933 1.166 0 2.727-.585 2.727-1.95 0-2.88-6.731-1.69-6.731-6.693 0-3.38 2.662-4.614 5.367-4.614 1.32 0 2.51.173 3.633.541v2.547zM32 25.202c-.875-.295-2.016-.463-3.063-.463-.768 0-1.687.273-1.687 1.199 0 1.724 4.977.631 4.977 4.542 0 2.524-2.285 3.533-4.614 3.533A16.05 16.05 0 0124 33.551v-2.314c.897.442 2.374.716 3.357.716.726 0 1.88-.274 1.88-1.326 0-2.124-4.977-.673-4.977-4.584 0-2.334 2.07-3.365 4.314-3.365 1.346 0 2.528.21 3.426.4v2.124zM41 25.265c-.512-.232-1.352-.4-2.227-.4-1.774 0-2.905 1.388-2.905 3.428 0 1.998.96 3.533 2.968 3.533.813 0 1.673-.294 2.164-.505v2.334c-.833.252-1.523.358-2.697.358-3.61 0-5.426-2.418-5.426-5.72 0-3.133 1.88-5.615 5.319-5.615 1.153 0 2.013.126 2.804.358v2.229zM47.234 31.826c2.2 0 2.776-1.934 2.776-3.743 0-1.661-.896-3.217-2.776-3.217-1.858 0-2.755 1.598-2.755 3.217 0 1.787.576 3.743 2.755 3.743zm0-9.147c3.267 0 5.766 2.165 5.766 5.74 0 3.112-2.114 5.594-5.766 5.594-3.63 0-5.746-2.482-5.746-5.594 0-3.575 2.5-5.74 5.746-5.74zM24.58 23h-2.905L16.08 38h2.625l5.877-15z" fill="#fff"/><path d="M12.707 22.516c1.213 1.229 2.422 2.726 3.299 4.482.784 1.572 1.18 3.103 1.463 4.646.012.054.048.05.069.008 1.043-1.823 1.682-4.305.748-6.175-.979-1.963-3.33-2.865-5.54-3.047-.077-.004-.09.036-.04.086z" fill="#7CEC33"/></svg>