<!-- by TradingView --><svg width="56" height="56" fill="none" xmlns="http://www.w3.org/2000/svg"><path fill="#005D9E" d="M0 0h56v56H0z"/><circle cx="28" cy="28" r="28" fill="#005D9E"/><path d="M33.772 30.47c-.553-.723-.292-1.647.024-2.409.387-.032.96-.251 1.31-.423.003.527.62 1.163 1.494.637.886-.535 1.508-2.022.725-2.868-.464-.505-1.2-.47-1.798-.27-1.273.424-2.134 1.51-2.778 2.643-.27.003-.687-.087-.674-.422.006-.156.168-.239.315-.233-.161-.25-.783-.288-.902.117-.143.49.343.697.448.75.219.104.477.104.692.139-.404 1.006-.706 2.288.035 3.235.25.317.572.531.973.583 1.89.246 3.239-1.767 3.291-1.77-.056.445.155 1.934 1.409 1.78 1.292-.16 1.954-1.462 2.31-2.593.265-.052.523-.142.765-.265.045-.024.063-.044.018.08-.259.708-.412 1.516-.012 2.21a1.141 1.141 0 00.883.574c.51.047 1-.162 1.373-.52.675-.651 1.132-1.524 1.235-2.453.687-.39 1.137-.995 1.602-1.671.032-.047.026-.027.049 0 .126.153.21.338.242.536.05.245-.023.46-.15.668-.355.586-.72 1.074-1.087 1.659a1.553 1.553 0 00-.26.845c0 .4.224.813.637.917.497.122.98-.116 1.335-.461.96-.936 1.602-2.276 2.496-3.418.147-.186.29-.35.44-.533.066-.08.044-.018.046.033.009.522.138 1.02.203 1.54.043.328.092.648.066.977-.037.418-.348.856-.81.79a.642.642 0 01-.349-.165.659.659 0 01-.193-.338.73.73 0 01.164-.65c-.49-.006-.735.573-.746 1-.011.426.35 1.478 1.425 1.246.64-.14.732-.566 1.07-.848a1.26 1.26 0 01.686-.283c.072-.155.183-.292.226-.461-.279.009-.534.14-.778.302-.01.007-.046-.01-.046-.014.146-.984-.353-1.8-.532-2.75-.048-.26-.07-.505.02-.748.08-.215.27-.343.45-.465-.051-.076-.167-.233-.184-.222-1.12.574-1.955 2.232-2.787 3.273-.363.455-.666.997-1.262 1.126-.183.04-.412-.093-.344-.308.2-.645.6-1.175.813-1.814.224-.678-.248-1.268-.616-1.785.118-.29.391-.605.235-.918-.102-.206-.347-.093-.46.054-.167.22-.19.49-.134.748-.19.392-.45.722-.722 1.073-.198.255-.428.434-.68.632-.037.03-.048.043-.055-.03-.053-.491-.29-.972-.755-1.148-.983-.372-1.943.357-2.433 1.185-.323.195-.576.347-1.029.419.05-.784-.145-1.06-.283-1.243-.4-.526-1.154-.565-1.687-.326-.897.407-1.45 1.33-1.664 2.088-.498.56-1.115 1.023-1.83 1.268-.5.177-1.11.158-1.465-.304v.001zm1.945-3.229a.945.945 0 01.355-.826c-.779.084-.94.817-.959.827-.32.186-.774.379-1.15.437-.07.01 1.017-2.307 2.38-2.335.6-.012.927.387.967.744.074.65-.258 1.356-.862 1.616-.337.146-.696-.11-.73-.464l-.001.001zm2.567 1.368c.253-.46.64-.953 1.181-1.02.004 0 .08-.012-.019.071-.189.158-.229.398-.234.62-.006.246.062.487.243.668.188.186.4.344.674.394.016.004.046.01.043.02-.068.353-.308.68-.537.972-.28.357-.67.6-1.128.538-.317-.041-.519-.337-.569-.65-.09-.574.072-1.118.346-1.614zm1.471-.786c.13-.093.389.07.475.253.131.275.127.575.065.876-.007.035-.015.036-.051.034-.163-.004-.303-.079-.435-.186-.242-.199-.428-.714-.053-.978v.001zm3.986.456c-.062-.204.045-.53.237-.551.403-.047.676.554.57.994a.689.689 0 01-.358 0c-.231-.05-.384-.23-.448-.445l-.001.002zm-.841-.214c.158-.181.333-.336.562-.402.142-.042.037.032.03.046a.937.937 0 00-.103.657c.057.305.283.52.55.646.17.081.387.09.543.084-.242.769-.74 1.737-1.607 1.81a.626.626 0 01-.376-.082.64.64 0 01-.261-.288c-.231-.521-.1-1.13.125-1.634.136-.306.317-.59.538-.84l-.001.003z" fill="#FF6868"/><path d="M15 32v-4.998l.753-.002v4.204l1.84.002V32H15zm5.192 0H18v-.794h2.064a.516.516 0 00.212-.044.548.548 0 00.18-.129.627.627 0 00.161-.42c-.02-.852-1.188-.585-2.014-1.149a1.305 1.305 0 01-.514-.643 1.416 1.416 0 01-.045-.845c.071-.28.226-.527.44-.703.215-.176.477-.272.748-.273h2.067v.8h-1.947a.472.472 0 00-.344.154.544.544 0 00-.142.37c-.087.625 1.419.785 1.685.937.301.094.56.3.731.583.17.282.24.62.197.953a1.428 1.428 0 01-.435.859c-.236.22-.538.342-.852.343V32zm10.29 0v-5h-.842l.002 3.294L27.836 27h-.833L27 32h.842l.003-3.3 1.788 3.3h.85zM4 32h.874l.64-3.407L6.5 32h1.01l.989-3.406L9.134 32h.874l-.983-5H7.99l-.986 3.524-.98-3.522h-1.04L4 32zm17.873-2.501c0-1.38 1.067-2.5 2.385-2.499 1.318.002 2.384 1.12 2.382 2.5-.002 1.38-1.067 2.5-2.384 2.5s-2.384-1.122-2.383-2.501zm2.383 1.719c.848 0 1.536-.769 1.536-1.718s-.686-1.72-1.535-1.72c-.848 0-1.535.77-1.535 1.719 0 .95.687 1.719 1.534 1.719zM10 29.5c0-1.382 1.069-2.5 2.386-2.5 1.317 0 2.384 1.12 2.383 2.501 0 1.381-1.069 2.5-2.385 2.499C11.067 32 10 30.88 10 29.5zm2.384 1.719c.847 0 1.536-.769 1.536-1.719 0-.95-.687-1.719-1.536-1.72-.849-.003-1.534.77-1.534 1.72s.687 1.72 1.534 1.72v-.001z" fill="#fff"/></svg>