<!-- by TradingView --><svg width="56" height="56" fill="none" xmlns="http://www.w3.org/2000/svg"><path fill="#C00" d="M0 0h56v56H0z"/><circle cx="28" cy="28" r="28" fill="#C00"/><path d="M27.992 38.672c-5.89 0-10.671-4.774-10.671-10.667 0-5.904 4.78-10.675 10.671-10.675 5.896 0 10.671 4.77 10.671 10.675 0 5.893-4.774 10.667-10.67 10.667zm0-26.672C19.163 12 12 19.165 12 28.005 12 36.837 19.161 44 27.992 44 36.828 44 44 36.837 44 28.005 44 19.165 36.827 12 27.992 12z" fill="#fff"/><path d="M27.993 22.52a5.477 5.477 0 00-5.48 5.485 5.48 5.48 0 005.48 5.481 5.486 5.486 0 005.488-5.481 5.482 5.482 0 00-5.488-5.485z" fill="#fff"/></svg>