<!-- by TradingView --><svg width="56" height="56" fill="none" xmlns="http://www.w3.org/2000/svg"><path fill="#0ABAB5" d="M0 0h56v56H0z"/><circle cx="28" cy="28" r="28" fill="#0ABAB5"/><path d="M8.991 25L9 26.616c-.021.016-.117.027-.122.014-.383-.952-.688-1.447-1.834-1.447h-.132v5.012c0 .251.028.427.155.545.088.08.41.119.672.119.015 0 .016.141 0 .141H5.261c-.016 0-.014-.141 0-.141.26 0 .584-.038.671-.12.128-.117.156-.293.156-.544v-5.012h-.132c-1.145 0-1.451.495-1.834 1.447-.005.013-.1.002-.122-.014L4.009 25H8.99zM35.073 29.35c0-.573.265-.99.758-1.222l1.432 1.93c-.337.327-.734.521-1.091.521-.623 0-1.099-.47-1.099-1.228zm1.46-3.59c.406 0 .647.309.647.808 0 .458-.345.958-.84 1.157-.376-.518-.474-.854-.474-1.166 0-.548.278-.8.666-.8zm2.9 2.375h-1.755c-.015.048-.014.117-.001.117.449.014.644.19.48.544a4.653 4.653 0 01-.423.744l-1.277-1.67c.762-.378 1.155-.763 1.155-1.373 0-.446-.441-.927-1.114-.927-.677 0-1.27.559-1.27 1.186 0 .401.118.698.502 1.235-.769.264-1.42.895-1.42 1.617 0 .813.631 1.392 1.473 1.392.62 0 1.167-.334 1.592-.813l.524.731h1.36c.016 0 .01-.124-.002-.124-.228-.009-.323-.033-.474-.106-.186-.09-.33-.24-.53-.483l-.413-.541c.242-.32.442-.67.666-.988.176-.247.363-.363.925-.412.014 0 .017-.08.002-.13zM45.575 29.165c0-.016-.107-.03-.115.007-.204 1.012-.927 1.641-1.588 1.641-1.258 0-2.06-1.144-2.06-2.782 0-1.639.7-2.814 1.929-2.814.745 0 1.477.628 1.68 1.567.003.014.118.002.115-.013l-.046-1.76c-.003-.014-.12-.015-.121 0-.029.254-.183.391-.428.292-.353-.142-.754-.273-1.17-.273-1.584 0-2.938 1.347-2.938 3 0 1.654 1.323 2.97 2.938 2.97.71 0 1.26-.151 1.721-.479l.083-1.356zM10 30.209c0 .244-.026.438-.134.541-.09.086-.221.11-.49.11-.015 0-.016.14 0 .14h2.1c.016 0 .014-.14 0-.14-.27 0-.456-.024-.546-.11-.109-.103-.135-.297-.135-.541V26.79c0-.245.026-.438.135-.541.09-.086.277-.11.546-.11.014 0 .016-.14 0-.14h-2.1c-.016 0-.015.14 0 .14.269 0 .4.024.49.11.108.103.134.296.134.541v3.418zM15.62 26h-3.258c-.015 0-.013.14 0 .14.244 0 .434.024.516.11.098.103.122.296.122.541v3.418c0 .244-.024.438-.122.541-.082.086-.272.11-.516.11-.013 0-.015.14 0 .14h2.085c.016 0 .014-.14 0-.14-.27 0-.497-.024-.586-.11-.109-.103-.135-.297-.135-.541v-1.623h.334c.338 0 .501.06.643.183.119.103.212.316.212.518 0 .016.067.02.105 0v-1.592c-.038-.018-.105-.016-.105 0 0 .203-.093.434-.211.537-.143.124-.306.19-.644.19h-.334v-2.24h.385c.995 0 1.295.54 1.445 1.167.004.014.09 0 .087-.015L15.62 26zM19.632 26h-3.257c-.015 0-.013.14 0 .14.244 0 .42.024.503.11.098.103.122.296.122.541v3.418c0 .244-.024.438-.122.541-.082.086-.259.11-.503.11-.013 0-.015.14 0 .14h2.084c.017 0 .015-.14 0-.14-.268 0-.495-.024-.585-.11-.109-.103-.135-.297-.135-.541v-1.623h.334c.338 0 .501.06.644.183.118.103.211.316.211.518 0 .016.067.02.105 0v-1.592c-.038-.018-.105-.016-.105 0 0 .203-.093.434-.211.537-.143.124-.306.19-.644.19h-.334v-2.24h.385c.995 0 1.296.54 1.445 1.167.004.014.09 0 .088-.015L19.632 26zM20.936 29.104l.666-2.022.672 2.022h-1.338zm3.081 1.765c-.345-.05-.463-.18-.622-.64l-1.41-4.216c0-.018-.215-.016-.215 0l-1.379 4.126c-.186.538-.333.634-.754.73-.013.003-.015.131 0 .131h1.337c.015 0 .014-.13 0-.13-.39-.033-.558-.197-.373-.731l.282-.858h1.451l.303.882c.158.456.011.671-.41.706-.012.001-.014.131 0 .131h1.79c.015 0 .013-.129 0-.13zM28.686 26h-1.54c-.016 0-.014.137 0 .139.33.033.493.067.579.232.098.19.143.514.143.941v2.337L25.387 26H24.12c-.015 0-.013.139 0 .139.461 0 .687.29.687.712v2.862c0 .428-.024.725-.123.915-.085.165-.177.203-.486.234-.013 0-.015.138 0 .138h1.526c.014 0 .013-.138 0-.138-.332-.034-.493-.067-.58-.234-.098-.19-.144-.487-.144-.915v-2.916L27.9 31h.162v-3.688c0-.427.024-.75.123-.94.086-.166.17-.2.502-.233.013-.002.015-.139 0-.139zM33.236 26h-1.338c-.014 0-.013.14 0 .14.41.017.549.186.402.517l-.877 1.864-.966-1.894c-.144-.317.017-.486.418-.486.013 0 .014-.141 0-.141H29.04c-.015 0-.012.14 0 .14.346.028.45.127.59.44l1.147 2.286v1.343c0 .244-.026.438-.124.541-.083.086-.276.11-.52.11-.013 0-.015.14 0 .14h2.029c.014 0 .013-.14 0-.14-.245 0-.438-.024-.52-.11-.099-.103-.125-.297-.125-.541v-1.491l1.012-2.075c.169-.359.35-.467.706-.502.013-.002.016-.141 0-.141zM49.838 28.498c0 1.372-.46 2.33-1.336 2.33-.878 0-1.338-.958-1.338-2.33 0-1.37.46-2.33 1.338-2.33.876 0 1.336.96 1.336 2.33zm-3.54 0c0 1.367.971 2.498 2.204 2.498 1.232 0 2.202-1.131 2.202-2.498 0-1.367-.97-2.498-2.202-2.498-1.233 0-2.204 1.131-2.204 2.498zM51.5 30c.279 0 .5.22.5.5s-.221.5-.5.5-.5-.22-.5-.5.221-.5.5-.5z" fill="#fff"/></svg>