<!-- by TradingView --><svg width="56" height="56" fill="none" xmlns="http://www.w3.org/2000/svg"><path fill="#FD0" d="M0 0h56v56H0z"/><circle cx="28" cy="28" r="28" fill="#FD0"/><path d="M7.542 30.995c-.437 0-.542-.35-.542-1.053V27h2v-1H7l-.028-2h-1.46L5 26H4v1h1v3.316c0 1.12.521 1.866 1.971 1.866.764 0 1.463-.42 1.909-.929l-.295-.645c-.334.296-.64.387-1.043.387zM38.568 30.995c-.436 0-.57-.35-.57-1.053V27H40v-1h-2.002v-2H36.54L36 26h-1v1h1v3.316c0 1.12.548 1.866 1.998 1.866.763 0 1.463-.42 1.908-.929l-.295-.645c-.333.296-.64.387-1.043.387zM50.79 25.238c-.599 0-1.086.453-1.086 1.018 0 .453.332.816.764.816a.769.769 0 00.521-.204c.055.961-.465 2.375-1.806 3.861l-.864-4.733h-2.315v.69c.52.102.64.204.806 1.008l.875 4.28c-1.318.917-1.983 1.608-1.983 2.318 0 .465.254.838.72.838.731 0 1.397-.791 1.906-2.649 2.581-2.117 3.668-4.064 3.668-5.718-.002-.936-.456-1.525-1.207-1.525zM15 30.463v-2.537c0-1.28-1.097-2.174-2.698-2.174-1.383 0-2.472.521-2.472 1.495 0 .476.316.838.785.838a.788.788 0 00.806-.815c0-.261-.087-.453-.229-.578a1.9 1.9 0 01.632-.102c.816 0 1.176.465 1.176 1.244v.668c-2.483-.17-3.53.612-3.53 1.902 0 1.018.72 1.767 1.928 1.767.741 0 1.394-.328 1.765-.848l.316.677h1.992v-.631c-.438-.046-.47-.25-.47-.906zm-2-.158c0 .419-.39.77-.88.77-.556 0-.85-.34-.85-.848 0-.702.369-1.098 1.73-1.008v1.086z" fill="#000"/><path d="M19.794 25.915c-.852 0-1.381.363-1.794 1.113V26h-2.508v.7c.545.079.508.26.508.92v6.528l-.574.193V35h3.527v-.659L18 34.137v-2.181c.35.204.79.34 1.38.34 1.713 0 2.99-1.33 2.99-3.362.002-1.92-1.07-3.02-2.576-3.02zm-.808 5.416A1.486 1.486 0 0118 30.98v-2.18c0-1.091.462-1.75 1.27-1.75.775 0 1.245.726 1.245 1.953 0 1.511-.601 2.33-1.53 2.33zM44.838 25.887c-.644 0-1.254.483-1.572 1.329v-1.22h-2.489v.67c.546.077.732.253.732.89v3.624l-.797.186v.638h3.71v-.637l-.96-.198v-2.548c0-.736.284-1.274.72-1.515a.778.778 0 00.764.603c.502 0 .852-.406.852-.89 0-.483-.327-.932-.96-.932zM32.905 27.993c-.918-.192-1.418-.1-1.418-.654 0-.408.317-.724.906-.724.754 0 1.2.328 1.398 1.007h.611v-1.506c-.524-.215-1.278-.362-1.963-.362-1.605 0-2.522.759-2.522 2.05 0 1.47 1.059 1.771 1.998 1.964.917.192 1.418.186 1.418.74 0 .498-.415.804-1.103.804-.939 0-1.363-.486-1.626-1.312h-.6v1.63c.381.237 1.145.543 2.18.543 1.704 0 2.72-.782 2.72-2.129 0-1.472-1.059-1.86-2-2.051zM26.265 25.753C24.344 25.753 23 27.1 23 29.025c0 1.835 1.343 3.148 3.265 3.148 1.267 0 2.085-.6 2.599-1.414l-.426-.419c-.47.476-1.004.713-1.54.713-1.09 0-1.757-.742-1.866-2.053h3.876c.261-1.453-.437-3.247-2.643-3.247zM25.02 28c.076-.913.59-1.362 1.168-1.362.611 0 1.015.449 1.015 1.362H25.02z" fill="#000"/></svg>