<!-- by TradingView --><svg width="56" height="56" fill="none" xmlns="http://www.w3.org/2000/svg"><path fill="#F6F8FD" d="M0 0h56v56H0z"/><circle cx="28" cy="28" r="28" fill="#F6F8FD"/><path d="M24 40h-7V21h-5v-6h17v6h-5v19z" fill="#1476C6"/><path d="M44 40H26v-5.579l7.642-6.228c1.462-1.281 3.203-2.775 3.2-4.907-.001-1.422-.874-3.07-2.338-3.069-2.23.003-2.855 2.862-2.957 4.745l-6.031-1.2c.656-5.225 4.346-9.011 9.505-9.018 4.775-.005 8.82 3.132 8.827 8.391.003 2.63-1.18 4.585-3.06 6.293L34.694 34l9.306.008V40z" fill="#000"/></svg>