<!-- by TradingView --><svg width="56" height="56" fill="none" xmlns="http://www.w3.org/2000/svg"><circle cx="28" cy="28" r="28" fill="#1DA1F2"/><path fill="#1DA1F2" d="M0 0h56v56H0z"/><path fill-rule="evenodd" clip-rule="evenodd" d="M45 19.08a13.17 13.17 0 01-3.771 1.031 6.566 6.566 0 002.883-3.634 13.152 13.152 0 01-4.168 1.595 6.567 6.567 0 00-11.186 5.988c-5.456-.272-10.292-2.889-13.529-6.862a6.547 6.547 0 00-.887 3.3 6.556 6.556 0 002.921 5.463 6.548 6.548 0 01-2.974-.822v.082a6.568 6.568 0 005.266 6.436 6.58 6.58 0 01-2.965.11 6.573 6.573 0 006.13 4.56 13.165 13.165 0 01-8.154 2.813c-.53 0-1.05-.034-1.566-.091A18.575 18.575 0 0023.064 42c12.073 0 18.675-10.004 18.675-18.68 0-.286-.004-.568-.019-.85a13.28 13.28 0 003.275-3.4l.005.01z" fill="#fff"/></svg>