<!-- by TradingView --><svg width="56" height="56" fill="none" xmlns="http://www.w3.org/2000/svg"><path fill="#004F85" d="M0 0h56v56H0z"/><circle cx="28" cy="28" r="28" fill="#004F85"/><path d="M15.435 33v-2H13v-1h2.435v-2H13v-1h2.435v-2h-4.81v8h4.81zm2.626-4.149L15.435 33h2.504l1.374-2.272L20.748 33h2.565l-2.687-4.212L23.19 25h-2.442l-1.374 2-1.313-2h-2.626l2.626 3.851zM30 33h2v-6h.565c.828 0 1.18.347 1.054 1.104-.123.758-.54 1.07-1.245.938L34.877 33h2.436L35 29.24c.915-.69 1.185-1.567.81-2.625C35.437 25.558 34.645 25 33.434 25H30v8zm17.374 0v-4.212L50.061 33H52v-8h-2.435v3.393L47.313 25H45v8h2.374zM4 25v2h2v6h2.374v-6h2.252l-1.252-2H4zm18.999 0v2H25v6h2.503v-6H30l-1.306-2h-5.695zm17.627 5.792c.498 0 .925-.184 1.279-.55.352-.366.53-.809.53-1.327 0-.517-.178-.96-.53-1.326-.354-.366-.78-.589-1.28-.589s-.928.224-1.285.588c-.353.367-.53.81-.53 1.327 0 .518.176.961.53 1.326.357.367.786.55 1.286.55zm-3.939-1.877c0-1.124.384-2.085 1.157-2.886.77-.799 1.697-1.029 2.782-1.029 1.083 0 2.01.23 2.782 1.03.77.8 1.157 1.761 1.157 2.885 0 1.125-.387 2.087-1.157 2.886-.772.8-1.699 1.199-2.782 1.199-1.085 0-2.012-.399-2.782-1.2-.773-.798-1.157-1.76-1.157-2.885z" fill="#fff"/></svg>