<!-- by TradingView --><svg width="56" height="56" fill="none" xmlns="http://www.w3.org/2000/svg"><circle cx="28" cy="28" r="28" fill="#005DAA"/><path fill="#005DAA" d="M0 0h56v56H0z"/><path d="M44 44V12H12v4.516l1.275-.319c5.541-1.156 11.178-.031 15.617 2.835 4.696 3.013 8.01 7.893 9.204 13.025.954 3.885.702 8.296-.567 11.943H44zM15.265 44H12.76a24.229 24.229 0 002.045-.834l.46.834z" fill="#fff"/><path d="M16.769 44l-.82-1.387c1.346-.745 2.69-1.57 3.957-2.572l2.05 2.685c.46-.342.89-.715 1.346-1.112l.076-.066a25.721 25.721 0 00-2.123-2.653c.973-.83 1.906-1.844 2.732-2.81a79.856 79.856 0 012.333 2.464c.51-.535.947-1.104 1.338-1.678a58.238 58.238 0 00-2.428-2.38 15.057 15.057 0 001.782-2.805c.868.66 1.703 1.345 2.523 2.06.348-.656.67-1.33.92-2.032-.818-.715-1.684-1.324-2.548-1.92.316-.711.62-1.72.734-2.368.829.433 1.85 1.106 2.56 1.63.19-.748.255-1.92.232-2.58a22.077 22.077 0 00-2.5-1.366 8.38 8.38 0 00-.063-1.415c.81.323 1.598.711 2.383 1.11a8.891 8.891 0 00-.908-2.698 35.378 35.378 0 00-2.078-.697 6.447 6.447 0 00-.52-1.056c.418.092.818.217 1.219.341.201.063.403.126.606.184-.136-.237-.338-.459-.537-.677a34.57 34.57 0 01-.085-.094c-.609-.654-1.286-1.2-2.022-1.587l-.737-.092a5.778 5.778 0 00-.854-.743c1.017.319 2.457.793 3.757 2.213 2.431 2.665 3.245 6.333 2.388 9.911C30.12 35.426 25.824 40.481 20.974 44h-4.205zM22.857 44H21.71c.12-.092.233-.182.34-.268.153-.122.295-.235.424-.328.103.164.251.394.382.596z" fill="#fff"/><path d="M25.306 44c-.36-.48-.95-1.256-1.391-1.8 1.156-.984 1.966-1.872 2.933-3.015.408.446.79.907 1.171 1.367.216.261.432.522.653.78.504-.563.994-1.143 1.421-1.751a41.63 41.63 0 00-1.873-2.122c.721-.995 1.544-2.288 1.95-3.088.66.588 1.32 1.275 1.925 1.936.374-.693.685-1.406.947-2.175a17.488 17.488 0 00-1.91-1.83c.356-.86.662-1.83.811-2.688.612.434 1.234.953 1.83 1.543.15-.928.222-1.916.17-2.919-.544-.49-1.132-.912-1.694-1.311-.014-.57-.032-1.06-.11-1.602.442.244.883.527 1.318.806l.172.11c-.276-1.196-.779-2.293-1.41-3.337l-.889-.416c-.184-.42-.406-.831-.64-1.232l.683.26c2.458 2.725 3.432 6.393 2.734 10.161-.644 3.593-2.489 6.685-4.822 9.58A35.405 35.405 0 0126.688 44h-1.382z" fill="#fff"/><path d="M31.219 44c2.34-2.86 4.035-6.013 4.748-9.556.772-3.751.161-7.722-2.222-10.55-.054-.06-.108-.125-.163-.19-.174-.206-.356-.421-.558-.561l-.011.027c1.066 1.33 1.915 2.756 2.352 4.343l-.008.017-.822-.63c.105.644.188 1.243.21 1.915.388.297.812.685 1.143 1.092.056 1.095.056 2.262-.129 3.337-.369-.498-.698-.86-1.275-1.443-.127.796-.422 2.05-.776 2.887a13.995 13.995 0 011.347 1.769c-.19.66-.557 1.546-.948 2.285a40.264 40.264 0 01-.417-.558c-.285-.387-.57-.772-.982-1.264a26.756 26.756 0 01-2.088 3.32c.53.633 1.017 1.293 1.478 1.96a20.946 20.946 0 01-1.403 1.8h.524z" fill="#fff"/><path d="M34.006 44h-.764l-.656-1.072a28.163 28.163 0 002.075-3.408c.166.232.321.502.478.776.083.145.167.291.253.432.367-.767.741-1.729.937-2.426l-.66-1.161c.374-1.063.629-2.032.807-3.074l.597.745c.225-1.134.286-2.24.25-3.336 0 0-.35-.545-.64-.866-.09-.943-.154-1.535-.308-2.252l.092.092c.653 1.465 1.197 2.996 1.12 4.753-.145 4.015-1.516 7.567-3.581 10.797z" fill="#fff"/><path d="M35.927 44h-1.41c.49-.783.969-1.664 1.382-2.5.147.244.311.558.395.822.366-.868.65-1.695.873-2.467l-.274-.77c.393-1.065.668-2.133.856-3.283l.176.242c.064-.34.103-.694.142-1.052.023-.205.045-.411.073-.616h.006c.196 1.765-.157 3.486-.544 5.098A25.628 25.628 0 0135.927 44zM37.11 44h-.721c.109-.233.243-.516.35-.736.046.12.1.23.157.343.467-1.448 1.025-3.475 1.334-5.12-.165 1.954-.56 3.99-1.12 5.513zM30.669 44h-3.274c.628-.615 1.181-1.27 1.73-1.918l.059-.07.325.43A73.95 73.95 0 0130.67 44zM14.865 16.341c2.005-.349 4.242-.21 5.944.744 1.139.591 2.21 1.68 2.74 2.845.904 1.773.808 4.22.256 6.122-1.51 5.502-6.703 10.57-11.804 12.867v-1.41l.393.782c.385-.168.63-.287.93-.482l-1.323-2.684v-1.214c.833-.436 1.33-.787 2.146-1.436.58.82 1.578 2.125 2.407 3.157a6.89 6.89 0 001.112-.961 47.715 47.715 0 00-2.612-2.965c.755-.593 1.267-1.14 1.866-1.87 0 0 2.036 1.643 3.029 2.48.267-.33.713-.883 1.024-1.344a38.56 38.56 0 00-3.179-2.207c.409-.555.844-1.232 1.187-1.866 1.13.49 2.273 1.108 3.383 1.74.245-.442.51-1.04.691-1.572-1.107-.558-2.265-1.075-3.437-1.473.21-.47.37-.96.49-1.458a28.1 28.1 0 013.499.992c.149-.554.232-1.27.247-1.845a23.307 23.307 0 00-3.459-.635 7.26 7.26 0 00.032-.944c1 .049 2.28.232 3.367.45a5.616 5.616 0 00-.385-1.67c-.652-.095-2.204-.167-3.156-.126-.046-.213-.155-.568-.234-.707.767-.085 2.018-.1 2.96-.037a4.453 4.453 0 00-1.029-1.311 19.36 19.36 0 00-2.523.273 2.536 2.536 0 00-.43-.508 19.684 19.684 0 012.201-.36c-.536-.398-1.4-.803-1.737-.903-.377.076-1.15.284-1.517.42a3.527 3.527 0 00-.611-.311 11.1 11.1 0 011.115-.384c-.867-.194-1.847-.227-2.776-.157l-.1.05-.707-.082z" fill="#fff"/><path d="M20.584 16.504a5.802 5.802 0 00-.535-.219c1.957.233 3.828.69 5.337 2.001 2.489 2.024 3.527 5.019 3 8.197-.66 3.988-2.885 7.324-5.697 10.415-3.085 3.336-6.731 5.64-10.688 6.944v-4.44s.38-.135.758-.346c.39.849 1.125 2.336 1.735 3.363a5.902 5.902 0 001.025-.528s-1.292-2.438-1.812-3.337c1.314-.708 2.211-1.34 3.333-2.243.468.595 2.366 3.064 2.366 3.064.475-.346.939-.733 1.31-1.11 0 0-1.859-2.27-2.485-2.938.82-.698 1.635-1.63 2.324-2.473.975.833 2.146 1.9 2.847 2.65.476-.51.9-1.068 1.216-1.55-.96-.882-1.981-1.711-2.978-2.507.57-.75 1.053-1.572 1.434-2.374 1.119.629 2.192 1.352 3.265 2.096a9.9 9.9 0 00.854-1.818c-1.092-.723-2.236-1.334-3.39-1.935.234-.646.434-1.31.586-1.995 1.203.414 2.36.981 3.491 1.554a9.05 9.05 0 00.248-2.218c-1.127-.517-2.289-.923-3.48-1.272a16.377 16.377 0 00-.034-1.15c1.155.239 2.281.616 3.38 1.013-.108-.768-.357-1.495-.686-2.185a30.185 30.185 0 00-3.052-.6c-.103-.3-.226-.59-.346-.87.93.082 1.971.233 2.73.41-.369-.667-1.028-1.314-1.677-1.796a23.095 23.095 0 00-2.002-.046 8.49 8.49 0 00-.618-.622c.407-.034.826-.035 1.238-.037.1 0 .2 0 .3-.002a9.658 9.658 0 00-3.066-1.068l-.12.021-.11-.05z" fill="#fff"/><path d="M12 17.038c2.344-.56 5-.41 6.731 1.364.326.327.54.69.741 1.064 1.14 2.415.25 5.26-.928 7.36-1.443 2.624-4.009 5.101-6.544 6.61V29.68l1.642 2.128c.296-.217.578-.453.855-.71L12 28.404v-.128a11.29 11.29 0 001.184-1.187c1.087.701 2.08 1.444 3.08 2.235.291-.308.57-.656.816-.992-1.033-.677-2.54-1.54-3.326-1.928.302-.374.604-.878.784-1.248 1.094.31 2.762.943 3.701 1.391.22-.393.421-.795.594-1.206a24.053 24.053 0 00-3.856-1.063c.13-.285.245-.62.295-.892 1.393.093 2.652.249 4.034.568.13-.453.225-.98.278-1.386a28.282 28.282 0 00-4.102-.145c.02-.2.043-.522.043-.683 1.222-.124 2.758-.183 4.1-.098-.003-.43-.07-.85-.19-1.242a26.873 26.873 0 00-3.972.48 2.778 2.778 0 00-.13-.504c1.015-.294 2.52-.526 3.838-.666a3.287 3.287 0 00-.614-.967c-1.194.231-2.716.68-3.492.96a2.243 2.243 0 00-.27-.427c1.073-.443 2.14-.739 3.255-1.007a3.723 3.723 0 00-1.11-.715c-.872.282-1.934.745-2.673 1.145a1.376 1.376 0 00-.314-.25c.6-.41 1.534-.844 2.304-1.125-.466-.189-1.18-.293-1.733-.298-.426.236-.938.568-1.466.95a2.459 2.459 0 00-.426-.137 9.3 9.3 0 011.074-.79c-.582-.002-1.216.1-1.706.205v-.215z" fill="#fff"/><path d="M12.002 18.756v-.625c1.126.155 2.303.857 2.788 1.977.801 2.041-.079 4.159-1.195 5.79-.45.637-1.018 1.24-1.595 1.815v-1.418s.293.173.523.328c.152-.14.38-.419.494-.59-.17-.112-.671-.364-1.017-.521v-1.11c.537.087 1.262.319 1.754.487.138-.224.298-.535.384-.759a49 49 0 01-.343-.067c-.56-.112-1.202-.24-1.795-.273 0-.002 0-.565.005-.565.735-.02 1.79.029 2.442.09.109-.263.171-.563.226-.852-.567-.021-1.876.076-2.666.183v-.422c.886-.18 1.62-.31 2.71-.416-.002-.215-.009-.52-.062-.756-.724.117-1.828.411-2.65.701v-.369c.777-.305 1.727-.656 2.547-.817a2.05 2.05 0 00-.236-.608c-.771.243-1.582.606-2.315.97v-.405c.43-.23 1.35-.686 2.011-.953a1.912 1.912 0 00-.479-.476c-.457.236-1.036.592-1.527.896v-.392c.302-.21.631-.405.96-.599l.215-.127a2.826 2.826 0 00-.834-.36l-.345.243z" fill="#fff"/></svg>