<!-- by TradingView --><svg width="56" height="56" fill="none" xmlns="http://www.w3.org/2000/svg"><path fill="#005581" d="M0 0h56v56H0z"/><circle cx="28" cy="28" r="28" fill="#005581"/><path d="M48.711 20.822c.551.97.833 2.006.856 3.178h-2.075c-.08-1.488-.664-2.968-2.071-3.526-1.301-.524-2.832-.524-4.209-.202-1.148.309-2.282 1.328-2.588 2.56-.345 1.355-.268 3.016.713 4.076.485.523 1.072.831 1.672 1.085 1.415.577 2.97.818 4.348 1.542.778.549.993 1.447.97 2.372-.052.992-.613 1.944-1.493 2.387-1.378.642-3.035.616-4.578.335-1.071-.27-2.233-1.046-2.563-2.226-.167-.563-.192-1.26-.154-1.85l2.04-.013c.065.308.051.724.115 1.073.064.496.51.95.945 1.112.993.268 2.04.348 3.009-.013.23-.135.459-.376.51-.644.063-.362.037-.764-.217-1.033-.51-.388-1.148-.482-1.747-.656-2.079-.483-4.463-1.3-5.381-3.633-.855-2.411-.447-5.374 1.416-7.13 2.077-1.85 5.035-1.903 7.612-1.194 1.148.389 2.257 1.26 2.87 2.4z" fill="#fff"/><path d="M37.413 34.844c-1.25-1.045-1.426-2.613-1.413-4.196h-2v.55c.012.698.063 1.408.242 2.052.611 2.438 2.84 4.034 5.06 4.462 2.817.524 6.12.47 8.467-1.326 1.976-1.649 2.627-4.316 2.002-6.782-.612-2.802-3.481-3.66-5.688-4.344-.676-.348-1.62-.24-2.002-1.058-.05-.281-.025-.63.217-.818.344-.241.919-.228 1.287-.014.269.295.294.725.333 1.1h1.981c.122-1.047-.215-1.354-.4-1.823-.79-1.354-2.576-1.313-3.85-1.006-.843.295-1.48 1.14-1.518 2.078-.103.952.242 1.863 1.02 2.346 1.76.898 3.812 1.085 5.483 2.238 1.173.884 1.492 2.226 1.39 3.713-.077 1.582-1.262 3.163-2.666 3.672-2.473.845-5.763.858-7.944-.844z" fill="#fff"/><path d="M31 38v-8h-4v7h-4v-7h-4v-4h4v-7h4v7h4v-7h4v12m-16-7v-5h-4v12a2 2 0 01-2 2v0a2 2 0 01-2-2V19H7v12a6 6 0 006 6h1a5 5 0 005-5v0" stroke="#fff" stroke-width="2"/></svg>