<!-- by TradingView --><svg width="56" height="56" fill="none" xmlns="http://www.w3.org/2000/svg"><path fill="#005293" d="M0 0h56v56H0z"/><circle cx="28" cy="28" r="28" fill="#005293"/><path fill-rule="evenodd" clip-rule="evenodd" d="M44.492 25.215c-.124-.172-.86-1.515-3.218-1.515-2.401 0-4.293 1.248-4.293 4.265V34h3.02v-6.04c0-.973.276-1.718 1.44-1.718 1.165 0 1.56.745 1.56 1.717V34h3v-6.04c0-.973.376-1.718 1.541-1.718S49 26.988 49 27.96V34h3v-6.035c0-3.017-1.892-4.265-4.293-4.265-2.355 0-3.092 1.343-3.215 1.515z" fill="#fff"/><path d="M14.001 29.828c0 1.902-.919 4.673-5 4.673C4.922 34.5 4 31.73 4 29.829V24h3v5.615c0 1.477.802 2.123 2.002 2.123 1.197 0 1.998-.646 1.998-2.123v-5.614h3.001v5.827zM36.001 29.883c0 1.88-.919 4.618-5 4.618-4.08 0-5.001-2.738-5.001-4.618V24h3v5.672c0 1.46.802 2.098 2.002 2.098 1.197 0 1.998-.638 1.998-2.098V24h3.001v5.883zM25 28.273c0-1.839-.919-4.516-4.999-4.516S15 26.434 15 28.272v5.729h3v-5.522c0-1.428.803-2.052 2.002-2.052 1.198 0 1.998.624 1.998 2.052V34h3.002v-5.728zM20.017 23c-1.403 0-2.517-1.087-2.517-2.501 0-1.412 1.114-2.499 2.517-2.499 1.39 0 2.483 1.087 2.483 2.499 0 1.413-1.093 2.501-2.483 2.501zM31.018 23c-1.404 0-2.517-1.087-2.517-2.501 0-1.412 1.113-2.499 2.517-2.499 1.39 0 2.483 1.087 2.483 2.499 0 1.413-1.093 2.501-2.483 2.501zM44.373 23c-1.403 0-2.517-1.087-2.517-2.501 0-1.412 1.114-2.499 2.517-2.499 1.39 0 2.483 1.087 2.483 2.499 0 1.413-1.093 2.501-2.483 2.501z" fill="#fff"/></svg>