<!-- by TradingView --><svg width="56" height="56" fill="none" xmlns="http://www.w3.org/2000/svg"><path fill="#0C2074" d="M0 0h56v56H0z"/><circle cx="28" cy="28" r="28" fill="#0C2074"/><path d="M8 18v20l20 6 20-6V18H8z" fill="#D62A43"/><path fill-rule="evenodd" clip-rule="evenodd" d="M22.02 37H28l-.02-15H22v7.858C22 32.125 20.588 33 19.5 33c-1.857 0-2.5-1.557-2.5-3.197V22h-6v10.097C11 35.347 13.526 37 16.5 37c2.528 0 4.254-.832 5.437-2.253H22L22.02 37zm16.927-11.559c.423.248.714.606.746 1.074h5.85c-.16-3.66-4.549-4.515-8.19-4.515-3.38 0-7.964.938-7.964 4.544 0 2.448 1.983 3.769 6.89 4.484 2.991.44 3.544.688 3.544 1.513 0 .827-1.332 1.102-2.178 1.102-.778 0-1.398-.166-1.722-.414-.488-.357-.89-.734-.923-1.229h-6c.096 3.688 4.452 5 8.418 5C41.515 37 46 35.926 46 31.964c0-2.34-1.886-3.414-4.031-3.992-1.135-.32-2.35-.501-3.404-.658-.938-.14-1.746-.26-2.252-.442-.357-.137-.748-.328-.748-.742 0-.935 1.04-1.101 1.952-1.101.518 0 1.04.137 1.43.412z" fill="#fff"/></svg>