<!-- by TradingView --><svg width="56" height="56" fill="none" xmlns="http://www.w3.org/2000/svg"><path fill="#2E3172" d="M0 0h56v56H0z"/><circle cx="28" cy="28" r="28" fill="#2E3172"/><path d="M35.537 23c-.875 0-1.335.46-1.559.929-.224.469-.22.928-.22.928v8.729s.01.6.196 1.194c.092.296.222.59.438.822.216.231.52.398.901.398h2.192c.83 0 1.232-.675 1.388-.929.01.06.04.15.049.24.02.226.024.477.024.477V36h3.677V23h-3.58s-.002.404-.024.61c-.018.173-.06.358-.097.504-.058-.089-.125-.216-.244-.371-.262-.342-.707-.743-1.412-.743h-1.73zm2.654 3.343c.351 0 .459.131.536.265.077.134.097.265.097.265v5.28s.026.116-.049.239c-.074.123-.245.265-.584.265a.436.436 0 01-.341-.159 1.025 1.025 0 01-.195-.371c-.083-.282-.049-.558-.049-.558v-4.642s-.023-.174.05-.319c.071-.145.227-.265.535-.265zM14 23.108V23h3.686v9.018c0 .364.168.484.317.57a.973.973 0 00.316.108s.157-.02.341-.108c.185-.089.39-.21.39-.57V23h3.799v10.048c0 1.122-.366 1.903-.78 2.356-.413.454-.87.596-1.12.596h-5.098c-.27 0-.72-.145-1.12-.596-.4-.451-.731-1.222-.731-2.356v-9.94zM27.67 23.785A1.622 1.622 0 0129.109 23h4.164V26.602h-1.51c-.26 0-.381.08-.439.19-.056.109-.048.243-.048.243v5.173s.037.143.097.271c.06.128.138.244.39.244h1.51V36h-4.164c-.716 0-1.181-.384-1.437-.785a2.141 2.141 0 01-.244-.57 1.335 1.335 0 01-.073-.351V24.76c0-.083.025-.202.073-.379.048-.176.117-.393.244-.596zM47.226 23.637c.276-.296.724-.637 1.29-.637h1.876c.795 0 1.24.492 1.436.955.197.463.17.902.17.902V36H48v-9.153c0-.285-.3-.398-.492-.398-.234 0-.498.122-.508.398-.01.276 0 9.153 0 9.153h-4V23H46.958s-.003.428 0 .637c.002.13.018.214.024.318.067-.087.13-.197.244-.318zM4 20.13V20H8.14v7.961c0 .745.16 1.65.34 2.341.09.346.187.651.269.859.04.104.068.184.097.234.029-.05.082-.13.122-.234.08-.208.18-.514.268-.859.175-.69.316-1.593.316-2.341V20h4.043v7.961c0 1.8-.643 3.816-1.266 5.36C11.705 34.862 11.087 36 11.087 36H6.41S4 31.552 4 27.961v-7.83zM23.214 20.13V20H27v16h-3.786V20.13z" fill="#fff"/></svg>