<!-- by TradingView --><svg width="56" height="56" fill="none" xmlns="http://www.w3.org/2000/svg"><path fill="#0069A6" d="M0 0h56v56H0z"/><circle cx="28" cy="28" r="28" fill="#0069A6"/><path d="M41.518 19.44c-.799-1.2-1.73-2.32-2.769-3.28-7.107-1.92-14.564-1.93-21.672.07-1.038.96-1.906 2.01-2.705 3.21 8.705-2.16 18.441-2.16 27.146 0z" fill="#fff"/><path d="M29.945 21.76c1.038-1.44 1.677-2.48 2.076-2.96-6.23-.48-12.507.08-18.257 1.68-.399.8-.752 1.68-1.072 2.48 5.431-.88 11.343-1.36 17.253-1.2zM27.469 34.24c-.64.96-1.438 2-2.157 3.04 5.75.24 11.46-.32 16.812-1.76.399-.8.748-1.6 1.068-2.48-4.792.88-9.893 1.28-15.164 1.28-.24 0-.4-.08-.56-.08zM29.385 22.56c-5.83-.08-11.613.296-16.964 1.336-.16.72-.341 1.44-.421 2.24 4.792-.32 10.038-.456 15.389-.456.719-1.2 1.358-2.24 1.996-3.12z" fill="#fff"/><path d="M24.674 38.08c-.879 1.2-1.678 2.32-2.157 2.8 5.43.72 11.021.32 16.292-1.12 1.038-.96 1.997-2.08 2.715-3.28-4.312 1.12-8.944 1.68-13.576 1.68-1.118 0-2.156 0-3.274-.08zM37.255 14.96C34.62 13.12 31.462 12 27.948 12c-3.514 0-6.68 1.12-9.315 2.96a40.676 40.676 0 0118.622 0zM30.583 29.52c4.632-.08 9.184-.16 13.417-.48v-2.08c-3.674-.24-7.507-.4-11.5-.4-.639.96-1.198 1.84-1.917 2.96zM33.059 25.68c3.754.08 7.316.24 10.83.4-.08-.72-.24-1.52-.4-2.24-2.794-.48-5.558-.88-8.513-1.04a44.625 44.625 0 00-1.917 2.88zM26.75 26.48c-3.115 0-6.15.08-9.184.16.32.64.878 1.76 1.437 2.72 1.917.08 3.834.08 5.75.16.64-.88 1.278-1.92 1.997-3.04zM19.562 30.24l2.316 3.6 2.316-3.52-4.632-.08zM28.028 33.44c5.35 0 10.582-.48 15.454-1.36.16-.72.358-1.44.438-2.24-4.392.24-9.104.4-13.896.48-.479.88-1.198 1.92-1.996 3.12zM14.85 30.08c-.958-.08-1.888-.08-2.847-.16.08.72.276 1.52.436 2.24 1.278.24 2.412.4 3.77.64-.56-1.04-.96-2-1.358-2.72zM18.844 36.56c-.799-1.04-1.278-1.68-1.997-2.88-1.437-.16-2.789-.406-4.146-.646.32.88.596 1.686 1.075 2.486 1.677.48 3.47.8 5.228 1.12-.08-.08-.16-.08-.16-.08zM19.642 37.6c-1.837-.24-3.496-.64-5.253-1.04.799 1.2 1.729 2.32 2.767 3.28 1.677.48 3.285.88 5.042 1.12-1.038-1.36-1.837-2.4-2.556-3.36z" fill="#fff"/><path d="M18.604 41.04c2.635 1.84 5.83 2.96 9.344 2.96 3.514 0 6.708-1.12 9.344-2.96-3.035.72-6.23 1.04-9.344 1.04-3.115 0-6.31-.32-9.344-1.04z" fill="#fff"/></svg>