<!-- by TradingView --><svg width="56" height="56" fill="none" xmlns="http://www.w3.org/2000/svg"><path fill="#ED1C24" d="M0 0h56v56H0z"/><circle cx="28" cy="28" r="28" fill="#ED1C24"/><path d="M31.347 12.354a16 16 0 11-6.695 31.292l.66-3.084a12.847 12.847 0 005.375-25.124l.66-3.084z" fill="#fff"/><path d="M41.802 31.09a14.143 14.143 0 01-27.603-6.18l1.279.287a12.833 12.833 0 0025.045 5.606l1.279.286z" fill="#fff"/><path d="M17.247 25.755a10.986 10.986 0 0121.507 4.49l-3.25-.678a7.666 7.666 0 10-15.009-3.134l-3.248-.678z" fill="#fff"/><path d="M26.813 33.743a5.864 5.864 0 112.374-11.485l-.639 3.09a2.708 2.708 0 00-1.096 5.305l-.639 3.09z" fill="#fff"/><path d="M24.836 23.063a5.864 5.864 0 016.328 9.874l-.711-1.11a4.546 4.546 0 00-4.906-7.655l-.71-1.109z" fill="#fff"/><path d="M30.16 17.23a10.986 10.986 0 11-4.32 21.541l.278-1.388a9.57 9.57 0 003.764-18.766l.279-1.388z" fill="#fff"/></svg>