<!-- by TradingView --><svg width="56" height="56" fill="none" xmlns="http://www.w3.org/2000/svg"><path fill="url(#paint0_linear)" d="M0 0h56v56H0z"/><circle cx="28" cy="28" r="28" fill="url(#paint1_linear)"/><path fill-rule="evenodd" clip-rule="evenodd" d="M4 21h1.265L8.57 31.101l3.564-10.564 3.68 10.475L19.003 21h1.264l-4.455 13-3.679-10.593L8.57 34 4 21zM26 32.314C25.469 33.4 24.308 34 22.98 34c-2.42 0-3.985-1.6-3.985-3.971 0-2.372 1.594-4.029 3.837-4.029 1.388 0 2.578.571 3.168 1.629V26h.994v8H26v-1.686zm-2.961.715c1.653 0 2.804-1.115 2.804-3.2 0-1.829-1.121-2.886-2.774-2.886-1.683 0-2.805 1.114-2.805 3.114.03 1.914 1.004 2.972 2.775 2.972zM28 27v-1h2v-3h.988v3H33v1h-2.012v7H30v-7h-2zM34.236 30c.057 1.914 1.178 3.029 2.788 3.029 1.207 0 2.04-.572 2.644-1.715l1.035.486c-.834 1.514-1.955 2.2-3.708 2.2C34.61 34 33 32.371 33 30.057 33 27.6 34.638 26 36.967 26c2.184 0 3.707 1.457 3.707 3.771V30h-6.438zm2.587-3.029c-1.294 0-2.357.715-2.472 2.029h5.001c-.115-1.4-1.006-2.029-2.53-2.029zM45.616 25.971c.316 0 .604.086.949.172l-.403.942C45.904 27 45.645 27 45.415 27 44.15 27 43 28.17 43 29.97V34h-1v-8h1v1.743c.805-1.2 1.466-1.772 2.616-1.772zM47.286 31.771c.403.829 1.035 1.258 2.012 1.258.949 0 1.524-.515 1.524-1.2 0-1.029-.949-1.172-2.271-1.629-1.294-.514-1.926-1.114-1.926-2.029 0-1.257 1.035-2.171 2.616-2.171 1.293 0 2.213.514 2.644 1.514l-1.006.515c-.259-.686-.862-1.086-1.724-1.086-.776 0-1.351.486-1.351 1.086 0 .742.66 1.028 1.925 1.428 1.466.429 2.271.914 2.271 2.286C52 33.029 50.908 34 49.097 34c-1.38 0-2.443-.657-2.817-1.629l1.006-.6z" fill="#fff"/><defs><linearGradient id="paint0_linear" x1="10.418" y1="9.712" x2="68.147" y2="76.017" gradientUnits="userSpaceOnUse"><stop stop-color="#1A1E21"/><stop offset="1" stop-color="#06060A"/></linearGradient><linearGradient id="paint1_linear" x1="10.418" y1="9.712" x2="68.147" y2="76.017" gradientUnits="userSpaceOnUse"><stop stop-color="#1A1E21"/><stop offset="1" stop-color="#06060A"/></linearGradient></defs></svg>