<!-- by TradingView --><svg width="56" height="56" fill="none" xmlns="http://www.w3.org/2000/svg"><path fill="#1188C9" d="M0 0h56v56H0z"/><circle cx="28" cy="28" r="28" fill="#1188C9"/><path d="M12 12h9v15l-9 9V12z" fill="#fff"/><path d="M33 12H23v13.172a2 2 0 01-.586 1.414L12 37v4l20.414-20.414A2 2 0 0033 19.172V12zM44 44v-9H29l-9 9h24z" fill="#fff"/><path d="M44 23v10H30.828a2 2 0 00-1.414.586L19 44h-4l20.414-20.414A2 2 0 0136.828 23H44z" fill="#fff"/><path d="M44 12h-9v6.172a2 2 0 01-.586 1.414L12 42v2h2l22.414-22.414A2 2 0 0137.828 21H44v-9z" fill="#fff"/></svg>