<!-- by TradingView --><svg width="56" height="56" fill="none" xmlns="http://www.w3.org/2000/svg"><path fill="#08090D" d="M0 0h56v56H0z"/><circle cx="28" cy="28" r="28" fill="#08090D"/><path d="M15.324 23L13 32.002h-1.579l-1.745-6.555L8 32.002H6.47L4 23h1.421l1.757 6.531L9 23h1.356l1.79 6.531L14 23h1.324zM16 22.95l1.363-.117v2.222l-.023.834h.05c.634-.246 1.14-.363 1.763-.363 1.102 0 1.847.52 1.847 2.508V32h-1.367V28.15c0-1.195-.557-1.352-1.19-1.352-.396 0-.734.092-1.08.193v5.004H16V22.95zM22.723 23.093c.736 0 .853.428.853.905 0 .476-.157.917-.853.917-.697 0-.84-.44-.84-.917 0-.48.127-.905.84-.905zM22 26h1.442v6.002H22V26zM25 25.652h.975l.193.516h.093c.379-.324.975-.608 1.756-.608.093 0 .194 0 .298.012v1.397a5.336 5.336 0 00-.805-.076c-.391 0-.701.092-1.08.26v4.85H25v-6.351zM29 32.002V23l1.42-.116v9.118H29zM40.493 25.564c2.017 0 2.793 1.189 2.793 3.3 0 1.977-.724 3.27-2.817 3.27-2.094 0-2.83-1.293-2.83-3.27-.004-2.111.836-3.3 2.854-3.3zm1.34 3.295c0-1.201-.196-2.186-1.332-2.186-1.15 0-1.437.945-1.437 2.186 0 1.15.232 2.146 1.369 2.146 1.144 0 1.4-.94 1.4-2.146zM46.869 25.564c2.017 0 2.794 1.189 2.794 3.3 0 1.977-.725 3.27-2.818 3.27-2.094 0-2.83-1.293-2.83-3.27-.004-2.111.836-3.3 2.854-3.3zm1.34 3.295c0-1.201-.196-2.186-1.332-2.186-1.15 0-1.437.945-1.437 2.186 0 1.15.232 2.146 1.369 2.146 1.144 0 1.4-.94 1.4-2.146zM50.58 32.003V23l1.42-.116v9.118h-1.42zM31.581 25.652h1.073l.116.464c.429-.232 1.217-.556 1.926-.556 1.293 0 2.237.945 2.237 3.207 0 2.227-.996 3.324-2.65 3.324-.608 0-1.28-.128-1.28-.128v2.91l-1.422.157v-9.378zm1.421 5.173c.4.012.62.024 1.033.024.88 0 1.461-.464 1.461-2.314 0-1.266-.516-1.602-1.449-1.602-.36 0-.696.064-1.048.18v3.712h.003z" fill="#fff"/><path d="M38.72 21.515c-1.064-1.233-4.529-.148-8.295 2.456v.656c3.318-2.356 6.33-3.444 7.167-2.472 1.044 1.212-1.557 5.169-5.808 8.842-4.255 3.665-8.554 5.657-9.598 4.445-.545-.628-.1-1.762 1.044-3.447h-.664c-1.417 2.113-1.95 3.651-1.221 4.495 1.329 1.537 6.292-.564 11.091-4.705 4.795-4.133 7.61-8.734 6.285-10.27z" fill="#EEB111"/></svg>