<!-- by TradingView --><svg width="56" height="56" fill="none" xmlns="http://www.w3.org/2000/svg"><path fill="#D73F37" d="M0 0h56v56H0z"/><circle cx="28" cy="28" r="28" fill="#D73F37"/><path fill-rule="evenodd" clip-rule="evenodd" d="M42.921 34.656c-1.15 1.438-2.878 2.877-5.252 4.46-7.7 5.179-17.63 5.179-21.732 0-1.655-2.159-2.23-4.749-1.799-7.482.72-4.46 4.174-8.92 9.714-12.588 1.727-1.151 3.095-1.151 3.886-.935 1.008.287 1.584.935 1.8 1.367.36.718 1.294 2.517-2.232 5.322-7.123 5.467-9.57 10.431-6.98 13.955 2.663 3.597 11.37 3.453 17.199-.36 1.799-1.222 3.382-2.229 4.893-4.028.143-.215.36-.215.431-.143.145.143.217.36.072.432z" fill="#fff"/><path fill-rule="evenodd" clip-rule="evenodd" d="M12.083 21.339c1.151-1.44 2.878-2.879 5.18-4.462 7.77-5.181 17.7-5.181 21.8.072 1.655 2.087 2.23 4.677 1.799 7.484-.72 4.39-4.173 8.851-9.713 12.52-1.726 1.152-3.093 1.152-3.885.937-1.007-.216-1.583-.936-1.799-1.296-.431-.791-1.295-2.59 2.231-5.325 7.122-5.541 9.569-10.506 6.979-13.96-2.662-3.67-11.368-3.454-17.195.36-1.8 1.151-3.383 2.23-4.893 3.957-.216.216-.36.216-.504.145-.072-.145-.144-.288 0-.432z" fill="#fff"/></svg>