<!-- by TradingView --><svg width="56" height="56" fill="none" xmlns="http://www.w3.org/2000/svg"><path fill="#0085B0" d="M0 0h56v56H0z"/><circle cx="28" cy="28" r="28" fill="#0085B0"/><path d="M36.127 31.543c-1.048.89-2.185 1.457-3.77 1.457-2.862 0-4.549-1.818-4.549-4.474 0-2.605 1.815-4.526 4.383-4.526 2.658 0 4.28 2.089 4.28 4.668 0 .322-.025.768-.025.768H29.79c.255 1.263 1.022 1.94 2.568 1.94 1.086 0 1.853-.439 2.53-1.07l1.24 1.237zm-6.325-3.74h4.727c-.217-1.302-1.073-2.153-2.325-2.153-1.303 0-2.134.877-2.402 2.154zM18.468 31.26h-.064c-.486 0-.754-.735-1.24-2.05l-.792-2.205c-.74-2.063-1.508-2.991-3.233-2.991-1.456 0-2.197.89-3.105 2.114l-.651.89L7.262 24H5l3.246 4.448-1.265 1.715c-.652.877-.97 1.225-1.533 1.225H5V33h.882c.933 0 1.585-.322 2.147-1.109l1.315-2.05L11.658 33h2.274l-3.463-4.59.843-1.135c.767-1.044 1.137-1.534 1.776-1.534.69 0 1.035.644 1.61 2.14l.971 2.502c.55 1.457 1.1 2.54 2.083 2.54h.128l-.498 1.263c-.384.993-.754 1.176-1.79 1.176H15V37h.797c1.52 0 2.607-.325 3.31-2.298L22.863 24h-2.031l-2.364 7.26zM51 33v-1.612l-.406.013c-.557 0-.849-.296-.849-.954v-2.991c0-2.244-1.318-3.456-3.169-3.456-1.014 0-1.863.361-2.446 1.006-.584-.632-1.433-1.006-2.447-1.006-2.015 0-3.36 1.315-3.36 3.456V33H40v-5.493c0-.877.568-1.78 1.683-1.78 1.116 0 1.317.903 1.317 1.78V33h2v-5.493c0-.877.422-1.78 1.513-1.78 1.09 0 1.356.903 1.356 1.78v2.901c0 1.793.735 2.592 2.244 2.592H51zM26.332 33C24.761 33 24 32.226 24 30.344V19h2v11.344c0 .722.317 1.006.9 1.006h.1V33h-.668z" fill="#fff"/></svg>