<!-- by TradingView --><svg width="56" height="56" fill="none" xmlns="http://www.w3.org/2000/svg"><path fill="#1081C5" d="M0 0h56v56H0z"/><circle cx="28" cy="28" r="28" fill="#1081C5"/><path fill-rule="evenodd" clip-rule="evenodd" d="M17.42 39c4.128 3.037 6.443 3.928 10.58 3.928 8.244 0 14.928-6.685 14.928-14.931 0-4.066-1.624-7.752-4.26-10.446L27.974 38.008c5.105-.053 9.354-3.783 10.025-8.716V39H17.42zm-.264-.742l10.757-20.26c-5.334 0-9.478 3.862-9.913 9.083V17h20.405c-2.689-2.613-6.36-3.928-10.405-3.928-8.945 0-14.93 5.983-14.93 14.925 0 3.977 1.553 7.586 4.086 10.261zM28 12c8.838 0 16 7.162 16 15.997C44 36.835 36.838 44 28 44c-8.836 0-16-7.164-16-16.002C12 18.457 18.457 12 28 12z" fill="#fff"/></svg>