<!-- by TradingView --><svg width="56" height="56" fill="none" xmlns="http://www.w3.org/2000/svg"><path fill="url(#paint0_linear)" d="M0 0h56v56H0z"/><circle cx="28" cy="28" r="28" fill="url(#paint1_linear)"/><path d="M28.055 22h5.515l-2.325-2H28.36c1.937-.197 3.383-1.967 3.383-4.025C31.743 13.805 30.186 12 28 12v8l-6.608-6.619c-.36.198-.664.367-.968.564-.36.254-.664.508-1.024.733l6.6 6.203V35l4 4v-3l-2-2 .055-12zM36 28l-2-2v8h2v-6z" fill="#fff"/><path d="M30 22v12h2V24l-2-2zM37 26l-2-2h-3l2 2h3zM24 33V21.59L17.959 16c-.555.628-1.079 1.312-1.48 2.082L21 22.588v3.451l-5.538-5.476C15.185 21.505 15 23 15 24c.062 0 8.723 8.743 9 9zM15 27.28v3.412L30 46v-3.327L15 27.28zM40.88 31H38v3h-2c0 2.165 1.815 4 4 4 2.184 0 4-1.8 4-3.964L40.88 31z" fill="#fff"/><defs><linearGradient id="paint0_linear" x1="10.418" y1="9.712" x2="68.147" y2="76.017" gradientUnits="userSpaceOnUse"><stop stop-color="#1A1E21"/><stop offset="1" stop-color="#06060A"/></linearGradient><linearGradient id="paint1_linear" x1="10.418" y1="9.712" x2="68.147" y2="76.017" gradientUnits="userSpaceOnUse"><stop stop-color="#1A1E21"/><stop offset="1" stop-color="#06060A"/></linearGradient></defs></svg>