<!-- by TradingView --><svg width="56" height="56" fill="none" xmlns="http://www.w3.org/2000/svg"><path fill="#F60" d="M0 0h56v56H0z"/><path fill="#F60" d="M0 0h56v56H0z"/><circle cx="28" cy="28" r="28" fill="#F60"/><path d="M23.335 32.33l1.12 1.586C23.71 34.657 21.11 37 17.207 37c-5.495 0-5.839-4.04-11.317-4.04H4v-1.81L10.194 25H5.01l1-2h7.998l-.728 2-5.992 6c4.599 0 5.728 4 10.239 4 2.76-.008 5.015-1.817 5.807-2.67z" fill="#fff"/><path d="M18 31.235c-1.106 0-1.776-.92-1.776-2.236 0-1.788 1.01-4.227 2.748-4.227 1.327 0 1.74 1.216 1.74 2.199 0 1.904-1.084 4.264-2.712 4.264zM19.23 23c-3.102 0-5.254 2.81-5.254 6.053 0 2.283 1.422 3.947 3.722 3.947 3.102 0 5.276-2.786 5.276-6.03 0-2.12-1.29-3.97-3.744-3.97zM29.878 24.71c.769 0 1.284.372 1.284.983v.016c0 1.138-1.595 1.47-4.09 1.432.294-1.153 1.292-2.43 2.806-2.43zm3.574.983C33.452 24.1 32.184 23 30.19 23c-3.485 0-5.735 3.142-5.735 6.03 0 2.337 1.35 3.97 4.156 3.97 1.227 0 2.576-.279 3.574-.766l-.229-1.672a6.235 6.235 0 01-2.78.627c-.958 0-1.686-.333-2.079-.983-.229-.372-.31-1.022-.27-1.355 3.902.085 6.626-.704 6.626-3.157zM49.544 24.705c.816 0 1.48.233 1.848.435L52 23.488c-.448-.255-1.296-.488-2.336-.488-2.335 0-3.999 1.302-3.999 3.147 0 1.101.816 1.907 1.952 2.496.976.489 1.296.869 1.296 1.473 0 .628-.568 1.163-1.52 1.179-.896 0-1.872-.373-2.376-.652l-.607 1.652c.528.372 1.607.69 2.759.705 2.376 0 4.2-1.178 4.2-3.287 0-1.217-.977-2.008-2.048-2.573-.832-.411-1.28-.791-1.28-1.318.008-.644.616-1.117 1.504-1.117zM42.462 20.598c0-.95.725-1.598 1.594-1.598.815 0 1.406.586 1.406 1.42-.027.968-.752 1.58-1.639 1.58h-.026c-.789-.009-1.335-.595-1.335-1.402zM40.513 33h2.357l1.892-10h-2.358l-1.892 10zM37.985 31c-.698 0-1.064-.265-.88-1.146L38.109 25h1.916l.368-2h-1.898l.507-3.004L36.519 21l-.383 2h-1.62l-.493 2h1.768l-1.026 4.998c-.36 1.884.585 3.002 2.749 3.002.497 0 .976-.022 1.497-.15v-1.994c-.408.097-.65.144-1.026.144z" fill="#fff"/></svg>