<!-- by TradingView --><svg width="56" height="56" fill="none" xmlns="http://www.w3.org/2000/svg"><path fill="#EB1B2A" d="M0 0h56v56H0z"/><circle cx="28" cy="28" r="28" fill="#EB1B2A"/><path d="M49.955 28.875l-.681 2.275-.27.625-.46 1.536s-.396-.014-1.307-.042c-.286-.007-.58.04-.872.112l-.63.292c-.41.127-.8.252-1.143.285a9.705 9.705 0 01-1.712.008l-.483-.17c-1.286-.133-2.036-.388-2.036-.388l.45-1.505.112-.652.683-2.278.32-.788.254-.85.107-.637.683-2.276.203-.4.524-1.747s.75.268 2.036.409l.543-.056c.606.048 1.132.05 1.72-.01.342-.034.733-.17 1.142-.307l.337-.015c.365-.109.738-.19 1.099-.174.906.042 1.307.056 1.307.056l-.465 1.548-.096.597-.682 2.274-.267.616-.3 1.004-.116.658z" fill="#fff"/><path d="M44.923 27.142a9.607 9.607 0 001.712-.008c.346-.033.738-.169 1.153-.303l.68-2.276c-.41.133-.809.27-1.151.303a9.636 9.636 0 01-1.712.007l-.682 2.277zM43.559 31.695a9.618 9.618 0 001.715-.009c.344-.033.737-.17 1.15-.303l.681-2.274c-.413.133-.805.268-1.15.301a9.64 9.64 0 01-1.711.008l-.685 2.277zM49.138 22.311l-.67 2.244c.496-.16 1.018-.293 1.516-.276l1.336.044.68-2.264s-.392-.01-1.336-.056c-.499-.026-1.03.137-1.526.308zM40.923 31.25s.767.257 2.08.394c.195.02.377.037.555.05l-.678 2.272c-.18-.013-.364-.03-.56-.05-1.312-.137-2.078-.397-2.078-.397l.68-2.269zM45.605 24.865l.67-2.237a17.398 17.398 0 01-.55-.053c-1.313-.143-2.078-.416-2.078-.416l-.678 2.263s.764.257 2.076.394c.196.02.381.035.56.049zM41.605 28.973l.681-2.275s.765.258 2.078.394c.196.02.38.037.559.05l-.68 2.276c-.18-.014-.363-.03-.56-.05-1.312-.136-2.078-.395-2.078-.395z" fill="#211E1F"/><path d="M49.273 31.15s-.403-.012-1.332-.043c-.5-.017-1.022.115-1.519.276l-.687 2.29c.497-.16 1.024-.305 1.524-.295.942.02 1.333.041 1.333.041l.68-2.27zM47.105 29.108l.683-2.277c.497-.16 1.017-.29 1.517-.277.93.027 1.333.043 1.333.043l-.683 2.278s-.387-.018-1.332-.044c-.5-.014-1.02.117-1.518.277z" fill="#211E1F"/><path d="M39.501 34L43 22h-1.503L38 34h1.501z" fill="#FFB300"/><path d="M12.408 25.805l-.032-2.02-1.295 2.02h1.327zM11.97 22h1.869l.458 6H12.44l-.013-.977h-2.126L9.674 28H7.781l4.19-6zM17.373 24.878a1.393 1.393 0 00-.467-.096c-.407 0-.776.351-.915.88-.126.509.081.834.525.834.13 0 .185-.026.39-.078l.467-1.54zM17.94 28h-2.293c-1.091 0-1.53-.95-1.136-2.357.393-1.415 1.38-2.365 2.451-2.365.295 0 .551.053.837.193l.45-1.468h1.51L17.94 28z" fill="#fff"/><path d="M19.41 23h1.618l-.165 2.661L22.422 23h1.372l-3.064 5H19.49l-.08-5zM24.85 25.95c-.382.26-.861.216-1.013.75-.072.253.015.439.213.439.192 0 .334-.105.554-.268.004-.09.025-.186.08-.364l.167-.557zm.95 2.032c-.77.064-1.116-.037-1.225-.448-.454.31-.773.466-1.245.466-.857 0-1.056-.558-.875-1.18a1.86 1.86 0 01.528-.823c.554-.512 1.612-.585 2.133-.979.116-.438-.01-.689-.43-.594-.539.123-.794.29-1.59.823l.41-1.417c.702-.481 1.288-.764 1.986-.823.883-.075 1.589.457 1.236 1.673l-.4 1.372c-.14.485-.152.631.276.64l-.803 1.29zM27.787 23.084h1.51l-.188.642c.562-.522.96-.726 1.44-.726.841 0 1.125.66.814 1.75L30.436 28h-1.51l.77-2.69c.14-.494.067-.718-.23-.718-.24 0-.485.168-.758.53L27.888 28h-1.51l1.409-4.916zM34.082 27.698c-.567.229-.896.302-1.31.302-1.284 0-1.882-1.017-1.456-2.473C31.668 24.32 32.69 23 34.178 23c.407 0 .825.082 1.168.247l-.467 1.603a1.478 1.478 0 00-.876-.284c-.537 0-1.014.385-1.178.943-.156.55.122.925.681.925.283 0 .555-.082 1.026-.302l-.45 1.566zM37.594 25.052c.174-.608.08-.92-.29-.92-.334 0-.614.274-.771.92h1.06zm.753 2.149c-.621.628-1.216.799-1.949.799-1.32 0-1.858-1.108-1.448-2.518.417-1.42 1.57-2.482 2.702-2.482 1.169 0 1.697 1.087 1.101 2.762h-2.43c-.133.494.12.962.7.962.407 0 1.056-.168 1.625-.567l-.301 1.044zM23.436 31.184c.464 0 .723-.235.84-.614.118-.385-.023-.57-.5-.57h-.358l-.347 1.184h.365zM22.109 29h2.4c1.343 0 1.6.76 1.363 1.555-.237.767-.956 1.62-2.422 1.62h-.683l-.541 1.76h-1.638L22.11 29zM7.86 32l-.026-1.512L6.754 32H7.86zm-.364-3h1.558l.382 5H7.888l-.01-1H6.2l-.62 1H4.001l3.495-5zM26.999 32.36c-.319.209-.72.172-.845.6-.06.203.012.351.177.351.16 0 .28-.083.463-.214.002-.071.02-.149.066-.29L27 32.36zm.793 1.626c-.644.05-.932-.03-1.024-.359-.377.249-.643.373-1.037.373-.715 0-.88-.446-.73-.943.068-.235.228-.469.44-.66.462-.409 1.345-.467 1.78-.782.096-.351-.01-.552-.36-.475-.448.097-.662.23-1.325.658l.342-1.134c.585-.385 1.073-.611 1.656-.659.736-.06 1.326.367 1.031 1.34l-.334 1.096c-.116.389-.127.505.23.513l-.67 1.032zM12.992 32.488c-.109.365.02.513.357.387l-.642 1.058a2.109 2.109 0 01-.565.067c-.485 0-.654-.186-.607-.678-.434.454-.859.678-1.295.678-.533 0-.988-.343-.646-1.49l.751-2.51h1.26l-.636 2.13c-.129.417-.062.596.199.596.187 0 .367-.119.613-.402L12.477 30h1.26l-.745 2.488zM15.758 33.576c-.416.287-.808.424-1.232.424-.382 0-.723-.13-.87-.403-.114-.216-.098-.489.065-1.007l.464-1.59h-.557l.144-.381L15.803 29h.285l-.349 1.137h1.011l-.293.863h-1.012l-.354 1.223c-.11.352-.036.503.224.503.212 0 .476-.093.798-.294l-.355 1.144zM17.995 32.747c.37 0 .713-.308.85-.747.13-.44-.03-.747-.399-.747-.37 0-.72.307-.85.747-.135.44.03.747.399.747zM18.822 30c1.363 0 1.563 1.062 1.282 2-.314 1.026-1.207 2-2.48 2-1.362 0-1.574-1.055-1.287-2 .3-.997 1.165-2 2.485-2zM37.28 31.333c-.288-.27-.52-.388-.757-.388a.393.393 0 00-.378.264c-.117.388.534.3.801.82.108.205.141.491.046.799-.144.483-.664 1.172-1.585 1.172-.515 0-.983-.132-1.254-.373l.33-1.1c.301.381.544.528.847.528.2 0 .367-.102.422-.3.15-.484-1.195-.477-.846-1.62.15-.49.627-1.135 1.632-1.135.454 0 .736.088 1.055.315l-.314 1.018zM30.706 30l-.38 1.117h.012c.443-.737.91-1.117 1.352-1.117.243 0 .458.097.687.305l-1.022 1.564c-.132-.23-.268-.327-.443-.327-.309 0-.637.373-.84.827L29.587 34h-1.26l1.24-4h1.139zM33.504 29l-1.411 2h.288l-.465 1.59c-.163.519-.179.791-.065 1.007.147.274.488.403.87.403.424 0 .817-.137 1.232-.424l.355-1.144c-.322.201-.585.295-.797.295-.261 0-.335-.151-.225-.503L33.64 31h1.012l.294-.862h-1.012l.35-1.136-.78-.002z" fill="#fff"/></svg>