<!-- by TradingView --><svg width="56" height="56" fill="none" xmlns="http://www.w3.org/2000/svg"><path fill="#00529B" d="M0 0h56v56H0z"/><circle cx="28" cy="28" r="28" fill="#00529B"/><path d="M15.955 12.015c-3.85 1.627-5.952 4.564-5.952 4.564s1.142-.622 1.738-.853c6.098-2.38 10.72-1.552 16.222 3.072 4.511 4.172 6.18 10.459 4.67 16.585-.737 2.628-2.001 5.13-3.827 7.244 5.986-3.445 9.322-9.819 8.674-16.797-.58-5.239-4.308-10.59-8.99-12.839-1.697-.887-6.144-3.373-12.535-.976z" fill="#fff"/><path d="M28.787 43c5.228-1.531 10.218-6.618 11.519-11.968 1.544-6.037-.018-11.894-4.671-16.032h7.368v28M15 43h12.589c-2.012-3.947-5.472-6.993-9.522-8.398C17.58 38.146 16.505 41.21 15 43z" fill="#fff"/><path d="M18.396 27.02c-.12-.055-.241-.105-.36-.155a24.718 24.718 0 01.292 4.94c4.123 1.891 7.593 5.533 9.038 9.758L27.841 43c.193-6.677-3.407-13.139-9.445-15.98z" fill="#fff"/><path d="M22.012 18.976c-2.729-1.327-5.892-2-9.23-1.498 1.468.585 2.997 2.45 4.08 5.18 4.718 1.487 8.836 5.322 10.504 9.955 1.316 3.16 1.422 6.89.72 10.387 1.545-2.166 2.352-4.705 2.703-7.405.755-6.979-2.668-13.512-8.777-16.62z" fill="#fff"/></svg>