<!-- by TradingView --><svg width="56" height="56" fill="none" xmlns="http://www.w3.org/2000/svg"><path fill="#F0F3FA" d="M0 0h56v56H0z"/><circle cx="28" cy="28" r="28" fill="#F6F8FD"/><path d="M16.285 45.127c.03-.636.437-2.412 1.292-5.046 1.6-4.942 4.997-12.134 11.288-14.381l.01 1.942s-6.082 2.142-10.717 12.69c-.931 2.122-1.568 4.307-1.829 4.81l-.044-.015zm8.643-1.666c6.615-1.774 8.026-10.206 8.02-17.084-.002-5.124-.788-9.387-.788-9.387-14.755 6.292-18.076 12.26-18.105 16.332 0 1.507.388 2.73.703 3.245l.023-.017c-.109-.42-.267-1.252-.267-1.942-.03-3.618 2.8-8.91 16.023-14.55 0 0 .704 3.79.71 8.34.009 5.86-1.06 12.961-6.36 15.028l.04.035z" fill="#00A94F"/><path d="M32.777 15.736c-5.624 2.362-9.904 4.716-13.01 7.112-3.134 2.413-5.103 4.863-6.022 7.491-.221.634-.45 1.523-.492 2.41-.685-.631-.881-.81-1.2-1.103C11.057 30.731 10 29.68 10 28c0-1.682 1.057-2.733 2.053-3.645 2.165-1.988 14.28-13.107 15.215-13.968.297-.275.48-.387.733-.387.252 0 .433.112.73.387L43.95 24.355C44.944 25.267 46 26.319 46 28c0 1.68-1.057 2.731-2.05 3.646A75897.98 75897.98 0 0128.731 45.61c-.298.277-.48.39-.73.39-.253 0-.437-.113-.734-.39-.197-.18-.554-.511-1.555-1.428 3.06-1.022 5.248-3.552 6.538-7.14 1.024-2.839 1.542-6.427 1.542-10.663 0-5.263-.802-9.666-1.016-10.643z" fill="#004B91"/></svg>