<!-- by TradingView --><svg width="56" height="56" fill="none" xmlns="http://www.w3.org/2000/svg"><path fill="#EE2722" d="M0 0h56v56H0z"/><circle cx="28" cy="28" r="28" fill="#EE2722"/><path fill-rule="evenodd" clip-rule="evenodd" d="M13.927 31H23v5h5c2.945 0 7-2.346 7-7.5 0-2.788-1.122-4.911-2.543-6.332C31.076 20.786 29.335 20 28 20H17.92l-5.017 9-.609 1.091L10.115 34l-.607 1.09L9 36h2.144l2.783-5zm1.176 2H21v5h7c2.794 0 6.309-1.617 8-5.01V38h6v-5h.54c.996 0 2.781-.037 4.387-1.044a6.329 6.329 0 002.168-2.25l-1.643-.932 1.643.932c.603-1.064.905-2.31.905-3.706 0-2.522-1.036-4.396-2.094-5.622C46.107 18.295 43.504 18 41.876 18H36V23.81a10.583 10.583 0 00-2.129-3.056C32.228 19.11 30.006 18 28 18H16.746l-.572 1.026-8.92 16L5.594 38h6.725l.572-1.027L15.102 33zM38 20v16h2v-5h2.54c.975 0 2.242-.06 3.325-.739a4.33 4.33 0 001.49-1.542C47.763 28 48 27.105 48 26a6.49 6.49 0 00-1.608-4.315C45.184 20.286 43.35 20 41.875 20H38zm-21.788 7H21l.04-5H23v7h-7.934l1.146-2zM28 32c1.153 0 3-.95 3-3.5 0-1.636-.634-2.766-1.371-3.504C28.814 24.182 28.086 24 27 24h-2v-2h2c1.413 0 2.507.261 3.618 1.193.143.12.285.25.425.39C32.123 24.661 33 26.288 33 28.5c0 1.877-.701 3.232-1.658 4.127C30.338 33.567 29.052 34 28 34h-3v-2h3zm13.876-10H40v2l2 .001c1.058.018 1.365.299 1.365.299s.635.431.635 1.2c0 .769-.298 1.5-1.46 1.5H40v2h2.54c.955 0 1.704-.083 2.262-.433.38-.238.697-.576.891-.983.176-.367.307-.873.307-1.584a4.49 4.49 0 00-1.121-3.008c-.618-.715-1.682-.992-3.003-.992z" fill="#fff"/></svg>