<!-- by TradingView --><svg width="56" height="56" fill="none" xmlns="http://www.w3.org/2000/svg"><path fill="#F0F3FA" d="M0 0h56v56H0z"/><circle cx="28" cy="28" r="28" fill="#F0F3FA"/><path d="M19.418 41c-.786 0-1.195-.29-1.587-.963l-3.58-6.49c-.247-.465-.251-.62-.251-.955l5.628.242L21 34h11l-9.169 5.77c-.457.265-2.194 1.23-3.413 1.23z" fill="url(#paint0_linear)"/><path d="M21 34h-5c-1.47 0-2-.658-2-1.408 0-.475.156-.734.372-1.261l7.094-16.559.076-.145.098-.15.205-.194.3-.156.434-.094.747.019 4.929 1.792-1.667 5.14L21 34z" fill="url(#paint1_linear)"/><path fill-rule="evenodd" clip-rule="evenodd" d="M35 41L24.017 15.08c-.193-.44-.502-1.01-1.303-1.01-.715 0-1.055.338-1.248.702.1-.262.4-.772 1.273-.772h7.728c.712 0 1.054.41 1.21.785L43 41 35 41z" fill="url(#paint2_linear)"/><defs><linearGradient id="paint0_linear" x1="16.351" y1="37.365" x2="32.119" y2="34.152" gradientUnits="userSpaceOnUse"><stop stop-color="#2B7A77"/><stop offset=".51" stop-color="#4EBAA9"/><stop offset="1" stop-color="#5CC2B1"/></linearGradient><linearGradient id="paint1_linear" x1="24.486" y1="16.116" x2="16.942" y2="34.236" gradientUnits="userSpaceOnUse"><stop stop-color="#236736"/><stop offset=".493" stop-color="#6BA443"/><stop offset="1" stop-color="#86C146"/></linearGradient><linearGradient id="paint2_linear" x1="27.515" y1="14.084" x2="38.601" y2="41.085" gradientUnits="userSpaceOnUse"><stop stop-color="#29A5E3"/><stop offset=".515" stop-color="#356EB9"/><stop offset="1" stop-color="#394DA5"/></linearGradient></defs></svg>