<!-- by TradingView --><svg width="56" height="56" fill="none" xmlns="http://www.w3.org/2000/svg"><path fill="#F0F3FA" d="M0 0h56v56H0z"/><circle cx="28" cy="28" r="28" fill="#F0F3FA"/><path d="M24.57 29.8l-12.468.004c-.117-1.102-.134-2.006-.048-2.943l12.513 2.682c0 .072-.005.154.002.256z" fill="#3F9B2C"/><path d="M33.03 28.3l10.587-4.073c.166.806.317 1.65.383 2.584l-10.9 1.72c-.024-.067-.039-.13-.07-.23z" fill="#EF3120"/><path d="M24.775 28.245l-12.543-3.06c.195-1.09.636-2.674 1.084-3.615l11.539 6.44a1 1 0 00-.08.235zM31.701 26.232l7.017-10.258c.814.74 1.768 1.706 2.31 2.6l-9.15 7.821c-.046-.05-.103-.113-.177-.163zM25.62 26.717L14.399 19.46c.577-1.07 2.323-3.05 3.237-3.761l8.139 10.845a.81.81 0 00-.154.172zM29.683 25.254L29.985 12c1.441.163 3.421.682 4.532 1.25l-4.63 12.044a.704.704 0 00-.204-.04zM27.342 25.47L20.15 13.95c1.796-1.038 3.922-1.712 5.76-1.94l1.662 13.382a1.398 1.398 0 00-.23.078zM13.128 33.86s-.216-.568-.432-1.291c-.202-.677-.398-1.484-.398-1.484 4.087-.534 10.462-.563 14.853-.563 0 0-8.485.805-14.023 3.337zM22.192 42.929s-1-.32-2.237-1.03c-1.14-.654-2.162-1.578-2.162-1.578 2.46-3.166 10.456-9.403 17.957-9.812 0 0-7.73 2.781-13.558 12.42z" fill="#3F9B2C"/><path d="M32.22 43.445s-1.88.572-4.195.555c-2.266-.017-3.304-.342-3.304-.342.468-1.633 5.83-11.155 12.25-13.148 0 0-4.954 5.342-4.75 12.935zM16.096 38.684s-.491-.443-1.309-1.63c-.753-1.094-1.072-1.832-1.072-1.832 2.02-1.314 9.136-4.713 19.226-4.713 0 0-8.754 1.6-16.845 8.175z" fill="#3F9B2C"/></svg>