<!-- by TradingView --><svg width="56" height="56" fill="none" xmlns="http://www.w3.org/2000/svg"><path fill="#ED3E26" d="M0 0h56v56H0z"/><circle cx="28" cy="28" r="28" fill="#ED3E26"/><path fill-rule="evenodd" clip-rule="evenodd" d="M13.415 34h3.914l.142 2h15.29l.526-4h-4.654l.212-2h4.637l.529-4h-4.656l.23-2h4.637l.529-4H24.559L22.76 34.381 21 20.001h-7L7 36h5.727l.688-2zm1.34-4h2.275l-.371-4.94L14.756 30zM39.953 36h-5.59l1.993-16h7.282c4.894 0 5.326 4.538 5.337 4.674.12 1.522-.222 2.718-.222 2.718S47.87 31 43.815 31h-3.157l-.705 5zm1.463-12l-.37 3h1.359s1.193-.072 1.307-1.412c.011-.13.027-1.588-1.184-1.588h-1.112z" fill="#fff"/></svg>