<!-- by TradingView --><svg width="56" height="56" fill="none" xmlns="http://www.w3.org/2000/svg"><path fill="url(#paint0_linear)" d="M0 0h56v56H0z"/><circle cx="28" cy="28" r="28" fill="url(#paint1_linear)"/><path d="M14.552 37.284A16.618 16.618 0 0112 28.397C12 19.34 19.163 12 28 12c3.411 0 4.861.965 5.358 1.393.878.758 1.47 1.807 1.399 2.888-.277 4.255-6.232 3.381-12.141 4.8-8.62 2.07-11.294 9.721-8.064 16.203z" fill="#8CC542"/><path d="M34.679 15.424c.325 1.266.175 2.208-.26 3.087-3.076 6.22-14.911 1.858-17.74 12.02-1.15 4.73 1.245 10.363 6.12 13.11.46.26.41.413-.093.233-3.38-1.215-6.242-3.558-8.154-6.59-3.23-6.482-.556-14.133 8.064-16.203 5.909-1.42 11.865-.545 12.141-4.8.02-.29-.01-.577-.078-.857z" fill="#4E7223"/><path d="M33.175 43.917c-.464.162-.557.091-.12-.248.822-.64 1.524-1.688 1.344-3.11-.51-4.025-6.147-3.435-7.035-8.305-.426-2.336.502-5.085 3.983-7.64-1.721 1.373-3.116 2.959-2.578 5.946.779 4.325 8.65 6.585 13.086.317 2.451-3.465 1.398-7.447 1.398-7.447.485 1.566.747 3.237.747 4.967 0 7.199-4.528 13.314-10.825 15.52z" fill="#004260"/><path d="M33.823 13.12c4.474 1.792 7.968 5.588 9.43 10.31 0 0 1.054 3.982-1.397 7.447C39.93 33.597 38.076 34.953 35 35c-3.076.047-5.79-1.992-6.23-4.44-1.262-7.004 8.106-6.307 7.38-13.21-.219-1.683-1.237-3.127-2.487-4.022-.476-.342-.38-.424.16-.208z" fill="#0078AD"/><defs><linearGradient id="paint0_linear" x1="10.418" y1="9.712" x2="68.147" y2="76.017" gradientUnits="userSpaceOnUse"><stop stop-color="#1A1E21"/><stop offset="1" stop-color="#06060A"/></linearGradient><linearGradient id="paint1_linear" x1="10.418" y1="9.712" x2="68.147" y2="76.017" gradientUnits="userSpaceOnUse"><stop stop-color="#1A1E21"/><stop offset="1" stop-color="#06060A"/></linearGradient></defs></svg>