<!-- by TradingView --><svg width="56" height="56" fill="none" xmlns="http://www.w3.org/2000/svg"><path fill="#00A7E1" d="M0 0h56v56H0z"/><circle cx="28" cy="28" r="28" fill="#00A7E1"/><path fill-rule="evenodd" clip-rule="evenodd" d="M6 35h2.472l2.226-6 .79 2h4.675l1.427 4h2.567l-5.686-15h-2.47L6 35zm4.697-6h-.005l2.489-6.53L15.438 29h-4.74z" fill="#fff"/><path d="M22 23.817C22 21.748 23.427 20 25.512 20H27v2h-1.011C24.946 22 24 22.933 24 23.968L24.023 25H27v2h-3v8h-2v-8h-2v-2h2v-1.183zM31 35h-2.004V20H31v15z" fill="#fff"/><path fill-rule="evenodd" clip-rule="evenodd" d="M33.816 34.214c.583.524 1.347.786 2.29.786 1.222 0 2.264-.472 3.124-1.416.153.341.313.61.48.806.18.197.437.348.77.453.333.105.791.157 1.374.157H42l.292-1.416h-.188c-.347 0-.604-.072-.77-.216-.167-.144-.278-.347-.334-.61-.026-.174-.019-.392-.01-.662.005-.156.01-.33.01-.521v-1.966c0-1.167-.112-2.137-.362-2.806-.236-.668-.693-1.108-1.22-1.397-.514-.288-1.208-.432-2.083-.432-.666 0-1.305.092-1.916.275-.61.184-1.124.426-1.54.728l.27 1.435c.5-.328.965-.55 1.395-.669.43-.13.861-.196 1.292-.196.777 0 1.34.157 1.686.471.361.302.48.882.48 1.747-1.625.027-2.986.305-4.207.829-1.222.524-1.833 1.395-1.833 2.614 0 .813.285 1.481.854 2.006zm4.082-.983a3.098 3.098 0 01-1.437.353c-.486 0-.875-.117-1.166-.353-.278-.25-.417-.623-.417-1.12 0-.722.32-1.24.958-1.554.653-.328 1.666-.459 3.165-.511v2.3c-.305.393-.631.649-1.103.885z" fill="#fff"/><path d="M49.875 27.465l.985-1.44a4.767 4.767 0 00-2.986-1.051c-2.692 0-4.874 2.244-4.874 5.013C43 32.755 45.182 35 47.874 35c1.19 0 2.28-.439 3.126-1.167l-.911-1.53c-.537.585-1.276.947-2.093.947-1.64 0-2.968-1.46-2.968-3.26 0-1.802 1.329-3.261 2.968-3.261.713 0 1.367.276 1.88.736z" fill="#fff"/></svg>