<!-- by TradingView --><svg width="56" height="56" fill="none" xmlns="http://www.w3.org/2000/svg"><path fill="#00A1E0" d="M0 0h56v56H0z"/><circle cx="28" cy="28" r="28" fill="#00A1E0"/><path stroke="#fff" stroke-width="2" d="M9 17h38v22H9z"/><path d="M33.123 23.409c-1.581 1.608-2.143 3.972-1.704 6.159.536 2.624 2.753 4.677 5.413 4.95 2.764.298 5.368-1.253 6.157-3.94.257-.877.234-1.672.254-2.578H38v2h3.235c0 .727-.798 1.594-1.49 2.092-1.173.837-2.775.864-4.05.23-2.161-1.071-2.923-3.79-2.17-5.982.563-1.637 1.866-2.71 3.548-2.922 1.74-.215 3.304.637 4.312 2.016.433-.428 1.322-1.289 1.322-1.289-1.188-1.576-2.983-2.505-4.974-2.53-1.729-.012-3.373.535-4.61 1.794zM12.908 33.98h2.032L16.279 31h5.196l1.291 2.98s1.353.014 2.03-.003c0 0-3.903-8.504-5.485-11.977h-.636c-1.462 3.095-5.767 11.98-5.767 11.98zm7.76-4.98h-3.565l1.823-3.632L20.667 29zM27 34h2V22h-2v12z" fill="#fff"/></svg>