<!-- by TradingView --><svg width="56" height="56" fill="none" xmlns="http://www.w3.org/2000/svg"><path fill="#F0F3FA" d="M0 0h56v56H0z"/><path d="M12.046 27.096c0 .294-.042.589-.042.925 0 2.986.796 5.803 2.22 8.2 1.004-3.364 2.47-6.938 4.312-10.47-2.303.336-4.48.798-6.49 1.345zM14.809 18.938c2.68-.588 5.611-.967 8.668-1.177 1.466-2.018 2.974-3.91 4.523-5.55L27.79 12c-5.401.042-10.133 2.775-12.981 6.938zM36.753 14.607c-1.173 4.71-3.267 9.84-6.198 14.886-.837 1.43-1.675 2.817-2.554 4.12.88 1.304 1.8 2.566 2.722 3.743a57.42 57.42 0 003.852-.252 50.134 50.134 0 002.387-3.869c2.345-4.12 4.188-8.242 5.444-12.11-1.298-2.65-3.266-4.92-5.653-6.518z" fill="#F89C0E"/><path d="M36.753 14.607A15.991 15.991 0 0028 12h-.21c2.387 2.565 4.732 5.593 6.868 8.999a54.047 54.047 0 002.094-6.392zM42.407 21.125c-.837 2.607-1.969 5.34-3.31 8.116 1.006 2.27 1.886 4.54 2.556 6.727.084-.042.21-.042.294-.084a16.042 16.042 0 002.052-7.863 17 17 0 00-1.592-6.896zM25.406 29.493a52.91 52.91 0 01-2.261-4.29 72.095 72.095 0 00-4.565.505 52.627 52.627 0 00-1.675 3.49 73.083 73.083 0 002.136 3.995 62.16 62.16 0 007.747 10.765c.418.042.837.042 1.256.042 2.596 0 5.025-.63 7.203-1.724-3.518-3.322-6.91-7.695-9.841-12.783z" fill="#40B93C"/><path d="M41.904 35.884c-3.393.8-7.203 1.346-11.224 1.514a52.472 52.472 0 004.481 5.004c2.848-1.514 5.193-3.742 6.742-6.518zM21.417 37.055c-2.47-.252-4.89-.624-7.11-1.129-.042.084-.042.169-.084.295 2.596 4.373 7.236 7.31 12.554 7.73-1.842-2.018-3.643-4.373-5.36-6.896zM27.959 17.593c-4.732 0-9.171.462-13.191 1.345a16.097 16.097 0 00-2.764 8.158c4.648-1.304 10.092-2.06 15.955-2.06 1.633 0 3.32.072 4.87.198a72.53 72.53 0 001.842-4.247 89.573 89.573 0 00-2.231-3.268c-1.424-.042-2.932-.126-4.481-.126z" fill="#1575C5"/></svg>