<!-- by TradingView --><svg width="56" height="56" fill="none" xmlns="http://www.w3.org/2000/svg"><path fill="#47433E" d="M0 0h56v56H0z"/><circle cx="28" cy="28" r="28" fill="#47433E"/><path d="M25.962 20c-.24 0-.473.07-.672.2-.199.131-.354.317-.445.535a1.172 1.172 0 00.263 1.297 1.226 1.226 0 001.318.256c.221-.09.41-.243.542-.439a1.176 1.176 0 00-.15-1.503 1.205 1.205 0 00-.856-.346z" fill="#009ACE"/><path d="M39 24h2v.678c.533-.645.943-.995 1.851-.99 2.038 0 3.149 1.239 3.149 3.4V32h-2v-4.845c0-1.11-.616-1.75-1.584-1.75-.97 0-1.416.64-1.416 1.75V32h-2v-8zm-16 8h-2V20h2v12zm4 0h-2v-8h2v8zm-10-8h2v8h-2v-.738c-.683.682-1.753.965-3.018.965-2.274-.002-3.958-1.673-3.958-4.197 0-2.69 2.047-4.343 4.18-4.343 1.18-.034 1.992.207 2.796 1.093V24zm-5.007 4.03c0 1.575 1.136 2.624 2.5 2.624 1.242 0 2.714-.896 2.714-2.624 0-1.686-1.283-2.624-2.714-2.624-1.43 0-2.5 1.104-2.5 2.624zm23.196 0c0-1.71-1.096-2.624-2.342-2.624-1.489 0-2.349 1.192-2.349 2.624 0 1.511.927 2.624 2.349 2.624 1.309 0 2.342-.957 2.342-2.624zm1.816 3.28c0 3.521-2.094 4.69-4.558 4.69a6.604 6.604 0 01-2.982-.657l.477-1.627c.76.421 1.617.641 2.49.639 1.433 0 2.65-.906 2.65-2.535v-.564a3.41 3.41 0 01-1.182.826c-.45.188-.935.28-1.424.267-2.245 0-3.942-1.778-3.942-4.334 0-2.45 1.597-4.332 3.95-4.332.487-.016.97.073 1.418.262.447.19.775.473 1.098.831V24h2.005v7.31z" fill="#fff"/></svg>