<!-- by TradingView --><svg width="56" height="56" fill="none" xmlns="http://www.w3.org/2000/svg"><path fill="#00426A" d="M0 0h56v56H0z"/><circle cx="28" cy="28" r="28" fill="#00426A"/><path d="M26.54 20.587l-5.478 9.488c-.571.975-.885 1.975-.971 2.925h-2.145c.146-1.2.607-2.35 1.54-3.989l3.829-6.624c.765-1.311 1.528-1.788 2.911-1.788h.314v-.012zM28.14 25.688c-2.775 0-4.485 1.675-5.987 5.325-.376.912-.594 2.05.69 2.038.727-.013 1.952-.426 2.813-1.04-.073.3-.11.74-.085.989h1.95c.074-.787.365-1.787 1.006-2.975l2.437-4.186a26.05 26.05 0 00-2.824-.151zm-2.024 4.85c-.4.388-1.175.961-1.83.974-.45-.024-.473-.462-.17-1.062 1.153-2.287 2.376-3.5 3.866-3.488h.268l-2.134 3.576zM48.187 25.688c-2.775 0-4.483 1.675-5.987 5.325-.376.912-.595 2.05.69 2.038.728-.013 1.952-.426 2.813-1.04-.073.3-.11.74-.085.989h1.952c.072-.787.363-1.787 1.005-2.975L51 25.839c-.921-.1-1.867-.151-2.813-.151zm-2.024 4.85c-.4.388-1.176.961-1.83.974-.45-.024-.473-.462-.17-1.062 1.153-2.287 2.376-3.5 3.867-3.488h.268l-2.135 3.576z" fill="#fff"/><path d="M41.848 35h-.643c-.824 0-1.551-.574-1.768-1.387l-.97-3.774L36.66 33h-2.073l5.794-10.149c.751-1.312 1.527-1.788 2.91-1.788h.218l-3.855 6.713L42.538 26h2.317l-4.86 3.19L41.847 35zM22.721 20c-1.95 0-2.97.538-4.885 1.963L11.34 27H7.182c-1.201 0-2.281 0-2.922.574l-1.077 1.027s3.126-.126 6.036-.24L3 33h2.691l6.365-4.749c1.235-.05 2.082-.075 2.096-.075 1.479-.04 2.303-1.176 2.303-1.176h-2.436l5.138-4.038-3.817 6.375c-.813 1.463-1.213 2.539-1.346 3.663h2.207c.084-.95.4-1.962.968-2.938l5.201-8.949c.363-.613.678-1.113.678-1.113h-.326zM33.072 27.738c-.025.188.05.312.424.562l.595.399c.642.439.907 1.102.825 1.638-.22 1.5-1.286 2.712-3.564 2.712-.996 0-1.444-.035-2.631-.236l.884-1.538c.825.15 1.285.226 1.903.226.862 0 1.201-.4 1.25-.726.023-.187-.062-.412-.473-.701l-.473-.348c-.752-.563-.957-1-.86-1.688.194-1.324 1.683-2.351 3.744-2.351.655 0 1.358.038 2.134.126l-.836 1.452c-.51-.04-1.333-.09-1.916-.064-.582.012-.969.224-1.006.537" fill="#fff"/></svg>