<!-- by TradingView --><svg width="56" height="56" fill="none" xmlns="http://www.w3.org/2000/svg"><path fill="#002898" d="M0 0h56v56H0z"/><circle cx="28" cy="28" r="28" fill="#002898"/><path d="M19 30.295h-4V26h-1v5h5M20 31v-4.988h5.662v.7H21V28h2.825v.738H21v1.543h4.725V31M31.87 31l-2.264-2.091L27.35 31h-1.114l2.806-2.593L26.409 26h1.212l2.032 1.877L31.662 26h1.114l-2.572 2.36L33.081 31M34 31h1.002v-5H34v5zM42 26.713h-4v3.569h4v-3.57zM42.172 31h-4.3c-.447 0-.872-.349-.872-.71v-3.587c0-.359.425-.703.873-.703h4.3c.447 0 .827.344.827.703v3.588c0 .36-.38.709-.828.709zM51.218 31L46 27.224V31h-1.002v-5h.797L51 29.76V26h1.012v5M8.673 23.778L4 31h1.191l3.482-6.23L12.154 31h1.191" fill="#fff"/><path d="M35.585 23.39c-.006-.017-.023-.023-.035-.015h-.003c-.056.032-.57.304-1.046.304-.48 0-.99-.273-1.046-.303l-.003-.001-.003-.002c-.003-.001-.009.002-.012.003-.009.003-.015.005-.02.012v.013c0 .001-.004.002-.004.004 0 .01.006.02.012.026.006.003.501.394.75.9.246.492.296 1.174.3 1.203 0 .017.011.028.026.028s.027-.013.027-.03c.005-.072.059-.724.296-1.202.249-.5.747-.895.75-.899.008-.005.011-.015.011-.025.003 0 .003-.001.003-.002 0-.005 0-.01-.003-.014z" fill="#D4004B"/><path d="M33.185 23.317C18.616 20.642 6.809 27.712 6.69 27.79c-.009.012-1.043 1.697-1.043 1.697-.006.013-.038.087-.027.096.01.011.072.041.083.033.128-.095 12.925-8.908 27.473-6.236a.026.026 0 00.03-.027c0-.002.003-.003.003-.005 0-.015-.012-.029-.024-.031z" fill="#fff"/></svg>