<!-- by TradingView --><svg width="56" height="56" fill="none" xmlns="http://www.w3.org/2000/svg"><path fill="#0B3865" d="M0 0h56v56H0z"/><circle cx="28" cy="28" r="28" fill="#0B3865"/><path d="M37.68 37.664l-6.838-2.828L28 41.686l-2.835-6.85-6.843 2.828 2.84-6.84-6.853-2.84 6.853-2.837-2.84-6.84 6.843 2.827L28 14.294l2.841 6.84-.034.018 6.873-2.845-2.83 6.84 6.848 2.838-6.85 2.84 2.832 6.839zM28 12c-8.834 0-16 7.164-16 16 0 8.839 7.166 16.002 16 16.002 8.836 0 16-7.163 16-16.002 0-8.836-7.164-16-16-16z" fill="#fff"/><path d="M36.233 19.754l-14.053 5.82L28 27.986l2.41 5.815 5.823-14.046z" fill="#fff"/></svg>