<!-- by TradingView --><svg width="56" height="56" fill="none" xmlns="http://www.w3.org/2000/svg"><path fill="url(#paint0_linear)" d="M0 0h56v56H0z"/><circle cx="28" cy="28" r="28" fill="url(#paint1_linear)"/><path d="M27.982 21.51v7.511l.734 1.167c.403.641 1.418 2.256 2.255 3.591.838 1.335 2.055 3.279 2.709 4.318.653 1.04 1.463 2.338 1.805 2.884l.623.995 4.948.004c2.72 0 4.944-.012 4.944-.025 0-.016-.323-.53-.719-1.142l-2.278-3.538-5.781-8.977c-.316-.485-.934-1.446-1.376-2.136-.445-.69-1.075-1.668-1.402-2.178-.33-.51-1.395-2.165-2.37-3.677l-2.916-4.532c-.63-.973-1.152-1.775-1.16-1.775-.008 0-.016 3.382-.016 7.51z" fill="#D21241"/><path d="M26.85 15.787c-.635.982-1.948 3.024-2.924 4.54-.976 1.512-2.04 3.168-2.37 3.677-.327.51-.957 1.488-1.403 2.178-.441.69-1.06 1.652-1.375 2.136l-5.781 8.978c-.857 1.33-1.883 2.925-2.279 3.537-.395.612-.718 1.126-.718 1.142 0 .013 2.224.025 4.948.025l4.944-.004.623-.994a4013.48 4013.48 0 014.901-7.815c.78-1.245 1.683-2.687 2.01-3.205l.591-.945-.007-7.518-.012-7.52-1.149 1.788z" fill="#fff"/><defs><linearGradient id="paint0_linear" x1="10.418" y1="9.712" x2="68.147" y2="76.017" gradientUnits="userSpaceOnUse"><stop stop-color="#1A1E21"/><stop offset="1" stop-color="#06060A"/></linearGradient><linearGradient id="paint1_linear" x1="10.418" y1="9.712" x2="68.147" y2="76.017" gradientUnits="userSpaceOnUse"><stop stop-color="#1A1E21"/><stop offset="1" stop-color="#06060A"/></linearGradient></defs></svg>