<!-- by TradingView --><svg width="56" height="56" fill="none" xmlns="http://www.w3.org/2000/svg"><path fill="#E71D1C" d="M0 0h56v56H0z"/><circle cx="28" cy="28" r="28" fill="#E71D1C"/><path fill-rule="evenodd" clip-rule="evenodd" d="M29.456 23.472c-2.455-.015-4.71 1.496-5.71 3.823l.923 6.727a6.062 6.062 0 003.402 2.096c2.635.576 5.243-.685 6.578-2.945L34.165 36h3.548l1.08-6.147L41.418 36h3.477L47 24h-3.54l-1.085 5.9-2.687-5.9h-3.416l-.829 4.578c-.55-2.858-3.06-5.088-5.987-5.106zm-.07 3.204c2.017-.024 2.994 2.306 2.469 4.039-.504 1.66-2.064 2.603-3.485 2.106-1.422-.498-2.165-2.247-1.662-3.907.409-1.349 1.516-2.224 2.679-2.238z" fill="#fff"/><path d="M18 20l-5.316 10h-2.25L9 33h2.251l-1.62 3h3.864l1.618-3h4.769l-.436-3h-2.812l2.637-5.226L20.997 36h3.285L22 20h-4z" fill="#fff"/></svg>