<!-- by TradingView --><svg width="56" height="56" fill="none" xmlns="http://www.w3.org/2000/svg"><path fill="#007E44" d="M0 0h56v56H0z"/><circle cx="28" cy="28" r="28" fill="#007E44"/><path d="M30.718 27.777c0 3.2 2.605 5.692 5.49 5.692 2.886 0 5.49-2.492 5.49-5.692 0-3.201-2.604-5.693-5.49-5.693-2.885 0-5.49 2.492-5.49 5.693zm5.49 8.579c-4.8 0-8.606-3.752-8.606-8.58 0-4.827 3.805-8.578 8.606-8.578 3.093 0 5.771 1.558 7.286 3.957C41.123 17.752 34.945 14 28.259 14 19.715 14 12 20.129 12 28c0 2.319.674 4.484 1.836 6.389L20 20h2l6.748 16h-3.192l-1.226-3h-6.793l-1.559 4.084C19.032 40.11 23.517 42 28.26 42 35.496 42 42.136 37.604 44 31.477c-1.367 2.914-4.319 4.879-7.792 4.879zM18.61 30h4.673L21 24l-2.39 6z" fill="#fff"/></svg>