<!-- by TradingView --><svg width="56" height="56" fill="none" xmlns="http://www.w3.org/2000/svg"><path fill="#D1A40B" d="M0 0h56v56H0z"/><circle cx="28" cy="28" r="28" fill="#D1A40B"/><path d="M16.108 26.926l.036-7.275c0-.584-.454-.8-.758-.546-.196.162-.927.916-.927.916-7.204 7.276-6.488 6.442-8.435 8.398C4.153 30.183 4.982 34 7.5 34c.944.002 1.991.01 1.991.01l3.127-3.575s-3.452 0-4.004-.02c-.97-.037-1.041-1.411-.184-2.152C8.74 27.929 13 23.5 13 23.5V32c0 1-.125 1.852.712 1.852.281-.591 2.396-6.926 2.396-6.926zM18.716 32.21c-.133.416-.42.633-.822.633h-.554l1.666-4.974c.068-.218.218-.326.403-.326h.873l-1.566 4.667zm-.55-5.284c-.32 0-.653.181-1.006.525a2.7 2.7 0 00-.69 1.051l-2.669 7.882c0 .055-.21.616-.21.616h1.168c.37 0 .704-.09.99-.308.252-.18.452-.507.604-.943l.74-2.21h2.636c.385 0 .755-.199 1.107-.579a2.87 2.87 0 00.588-.997l1.712-5.038h-4.97zM32.765 32.41a1.78 1.78 0 01-.236-.923c0-.199.034-.38.086-.543l1.043-3.075c.068-.218.201-.326.403-.326h2.92l.203-.617h-4.382c-.269 0-.62.145-1.04.435-.487.326-.79.706-.942 1.141l-1.074 3.153a1.841 1.841 0 00-.117.635c0 .398.134.706.42.923.285.218.655.327 1.107.327h3.794l.258-.694h-1.771c-.27 0-.487-.145-.672-.435zM43.667 27.959c0-.688-.32-1.034-.956-1.034h-2.05l1.914-5.688h-1.158c-.42 0-.823.163-1.208.47-.387.31-.655.69-.79 1.107l-3.61 10.726h1.46c.37 0 .69-.11.974-.308.269-.183.504-.616.722-1.269l1.495-4.42c.268 0 .487.072.654.216a.68.68 0 01.236.508.677.677 0 01-.051.235l-1.695 5.038h2.334l1.594-4.729c.084-.272.135-.543.135-.852zM48.784 27.869l-.637 1.885h-1.458c.33-.978.561-1.662.752-2.211h1.158c.202 0 .253.108.185.326zm1.41-.943h-5.171l-1.712 5.037c-.135.417-.202.725-.202.925 0 .434.286.652.84.652h4.684l.234-.695h-2.92c-.085 0-.205-.265-.085-.635.234-.696.435-1.296.614-1.823h3.803l.637-1.885a1.99 1.99 0 00.084-.58c0-.67-.268-.996-.805-.996zM25.83 32.836h-1.154c-.152 0-.184-.216-.084-.633l.615-1.83h1.46c-.37 1.099-.63 1.863-.836 2.463zm4.258-5.142c0-.506-.268-.758-.803-.758H24.63l-.218.613h2.224v.001h.687a.765.765 0 01.11.017c.021.008.04.018.056.032.056.05.06.143.019.278l-.238.702h.001c-.143.426-.275.82-.397 1.179h-3.793l-.745 2.2c-.168.488-.251.849-.251 1.047 0 .344.2.524.603.524h5.54l1.692-5.022a2.45 2.45 0 00.167-.813z" fill="#fff"/></svg>