<!-- by TradingView --><svg width="56" height="56" fill="none" xmlns="http://www.w3.org/2000/svg"><path fill="url(#paint0_linear)" d="M0 0h56v56H0z"/><circle cx="28" cy="28" r="28" fill="url(#paint1_linear)"/><path fill-rule="evenodd" clip-rule="evenodd" d="M50.863 26.579a1.137 1.137 0 100 2.273 1.137 1.137 0 000-2.273zm-44.59 1.137a1.137 1.137 0 11-2.273 0 1.137 1.137 0 012.273 0z" fill="#F84018"/><path fill-rule="evenodd" clip-rule="evenodd" d="M39.446 25h1.591l1.103 4.521h.36L43.595 25h1.558l-1.626 6H41.08l-1.634-6zM34.5 31H36v-6h-1.5v6zm-3.497-4.622h-1.748V31h-1.52v-4.622H26V25h5.003v1.378zm-10.369 1.27c.597 0 .826-.22.826-.648 0-.428-.229-.639-.826-.639h-1.078v1.286h1.078zM20.831 25c1.38 0 2.181.723 2.181 1.975 0 1.269-.8 2.025-2.181 2.025h-1.275v2H18v-6h2.83zm-9.222 3.01h1.184l-.403-1.53h-.36l-.421 1.53zM15.127 31h-1.512l-.54-1.7h-1.758l-.504 1.7h-1.48l1.75-6h2.295l1.749 6z" fill="#fff"/><defs><linearGradient id="paint0_linear" x1="10.418" y1="9.712" x2="68.147" y2="76.017" gradientUnits="userSpaceOnUse"><stop stop-color="#1A1E21"/><stop offset="1" stop-color="#06060A"/></linearGradient><linearGradient id="paint1_linear" x1="10.418" y1="9.712" x2="68.147" y2="76.017" gradientUnits="userSpaceOnUse"><stop stop-color="#1A1E21"/><stop offset="1" stop-color="#06060A"/></linearGradient></defs></svg>