<!-- by TradingView --><svg width="56" height="56" fill="none" xmlns="http://www.w3.org/2000/svg"><path fill="#007CC2" d="M0 0h56v56H0z"/><circle cx="28" cy="28" r="28" fill="#007CC2"/><path d="M16 23h7.49v2.997L21.546 26v7H18v-7l-2-.003V23zM27.398 29.276L26.873 33h-3.728l1.443-10h3.221l1.543 3.234L30.894 23h3.221l1.442 10H31.83l-.523-3.723L29.352 33l-1.954-3.724zM40.606 29.674c-.936 0-1.695-.75-1.695-1.674 0-.925.76-1.674 1.695-1.674S42.3 27.076 42.3 28c0 .925-.758 1.674-1.694 1.674zm0-6.674c-2.794 0-5.058 2.239-5.058 5s2.264 5 5.058 5c2.793 0 5.058-2.239 5.058-5s-2.265-5-5.058-5zM6.01 26.552l8.837.412-.302-.842-8.536.415v.015zM5.655 27.56l9.554.413-.301-.84-9.253.413v.015zM5.308 28.572l10.264.412-.301-.842-9.963.415v.015zM6.598 25.785L8.318 21h4.388l1.782 4.955-7.89-.17zM5.327 29.297L4 33h5.152l1.259-3.776-5.084.073zM15.62 29.148L17 33h-5.152l-1.264-3.777 5.036-.075zM47.627 30.294c-.856 0-1.627-.537-1.627-.537v2.747s.928.496 2.544.496C50.428 33 52 31.59 52 29.859c0-.687-.24-1.318-.649-1.834 0 0-.469-.602-1.147-1.017-.25-.17-.79-.475-.79-.758 0-.425.36-.672.908-.672.734 0 1.488.3 1.678.442V23.3s-.8-.3-2.416-.3c-1.884 0-3.581 1.29-3.581 3.021 0 .951.52 1.967 1.705 2.727 0 0 .56.38.747.77.084.165.045.313.045.313-.086.387-.4.488-.873.463z" fill="#fff"/></svg>