<!-- by TradingView --><svg width="56" height="56" fill="none" xmlns="http://www.w3.org/2000/svg"><path fill="url(#paint0_linear)" d="M0 0h56v56H0z"/><circle cx="28" cy="28" r="28" fill="url(#paint1_linear)"/><path d="M40.293 19.064c0-.9.747-1.628 1.669-1.628.919 0 1.664.729 1.664 1.628 0 .9-.745 1.63-1.664 1.63-.922 0-1.669-.73-1.669-1.63zm1.669 3.278c1.848 0 3.353-1.466 3.353-3.278 0-1.81-1.505-3.28-3.353-3.28-1.855 0-3.357 1.47-3.357 3.28 0 1.812 1.502 3.278 3.357 3.278zM8.872 19l-.506-1.493L7.86 19h1.013zm2.865 3H9.92l-.375-1h-2.28l-.377 1H5l3.403-9.004L11.737 22zM36 22h2v-6h-2v6zm-7 0h2v-6h-2v6zm5.296-4.705h1.184V16h-1.867c-.581 0-1.448.257-1.448 1.419 0 1.842 1.941 2.029 1.752 2.646-.091.296-.457.309-.646.309H32V22h2.017c.82 0 1.64-.506 1.64-1.445 0-2.161-2.242-2.47-1.767-3.136.09-.124.406-.124.406-.124zM28.701 15h7.93l-.933-2.004h-8.26l-1.92 5.754-2.017-5.754h-8.94L13.652 15H17v7h2v-7h3.238l3.28 8.785L28.7 15zm-14.14.585c-1.849 0-3.348 1.466-3.348 3.274s1.5 3.272 3.348 3.272c.843 0 1.61-.3 2.2-.802l-1.107-1.228a1.698 1.698 0 01-1.093.396c-.923 0-1.674-.734-1.674-1.638 0-.904.75-1.635 1.674-1.635.41 0 .788.142 1.077.381l1.106-1.227a3.374 3.374 0 00-2.183-.793zM51 15.97H49v2.19l-2.99-2.432V22H48v-1.935l2.999 2.187v-6.283zM20 16h2v6h-2v-6z" fill="#EFF7FB"/><path d="M25.903 41.985a2.303 2.303 0 01-.074-.133l-.021-.04-.003-.005v-1.842l-.062-.003s-1.527-.043-3.005-.043c-.696 0-1.377.008-1.89.038-.258.013-.469.034-.62.058a1.108 1.108 0 00-.186.046c-.037.016-.082.036-.093.082a1.658 1.658 0 01-.807.192c-.562 0-1.068-.219-1.354-.223a.386.386 0 00-.074.009h-.011l-.008.007c-.253.144-.323.16-.46.347a3.66 3.66 0 01-.496.034c-.28 0-.507-.033-.813-.037-.005-.203-.048-.3-.103-.36-.029-.03-.059-.048-.067-.056-.012-.012-.01-.002-.011-.012 0-.008.002-.025.013-.048.041-.11.036-.138.141-.205l.027-.017v-.982c.05-.036.085-.062.14-.094l.026-.018v-.67c.067-.053.1-.069.133-.11.036-.048.032-.096.033-.187l.002-.046c-.002-.035-.002-.058-.005-.08-.006-.038-.033-.066-.057-.084-.022-.022-.052-.05-.099-.11.04-.103.06-.193.089-.252.037-.064.069-.095.184-.113l.05-.01.001-.044s.017-.302.017-.547c-.002-.122-.004-.228-.018-.288l-.004-.021-.022-.014c-.046-.027-.085-.06-.138-.097v-1.042c.047-.04.084-.063.138-.095l.026-.017.001-.028s.09-1.234.09-2.165c-.001-.466-.017-.843-.095-.988a.448.448 0 00-.151-.157c-.047-.032-.1-.061-.175-.117v-3.075c.049-.036.084-.063.14-.094l.026-.018v-.683l-.026-.016c-.287-.181-.308-.28-.308-.293l.002-.004v-.008c.005-.108.021-.112.14-.19l.026-.017v-1.462l-.027-.018c-.105-.065-.293-.24-.45-.399-.153-.155-.283-.293-.283-.293l-.008-.008-.008-.009a.21.21 0 00-.081-.015c-.074.003-.123.026-.181.025-.073-.001-.19-.034-.38-.302l-.02-.025h-1.332c-.036-.043-.064-.076-.098-.128l-.021-.029h-.295l-.011.045c-.02.097-.033.128-.05.147-.014.018-.048.042-.1.102l-.044.047.055.034c.442.28.61.453.684.56.037.054.048.093.064.125a.164.164 0 00.086.1l.015.005h.022l.103-.002c.063 0 .146.005.213.02.067.014.108.04.117.065l.003.003v.003s.062.097.127.247c.066.15.136.351.156.55l.001.012c.007.14-.205.618-.278.693l-.041.047.054.033c.06.035.095.062.147.102.022.08.03.223.03.373 0 .274-.027.582-.036.665-.122.098-.177.173-.306.254l-.025.016v1.19l.025.016c.057.035.092.06.138.097v2.192l.028.018c.048.026.173.164.182.285l.002.023c.008.14-.144.324-.185.342l-.027.015v1.567c-.046.036-.082.065-.138.098l-.023.01-.002.026c0 .002-.043.217-.043.536 0 .152.009.33.038.515-.023.037-.035.059-.043.067-.008.01-.024.02-.085.044l-.038.014.003 1.986.025.017c.147.092.306.197.306.385 0 .056.008.091.008.111-.005.023 0 .014-.015.03-.014.015-.059.041-.131.087l-.025.018v.51c-.05.035-.086.065-.14.096l-.028.017v1.192l.025.016c.095.056.143.09.143.15 0 .075-.097.125-.14.148l-.028.017v.669c-.416.33-.396.264-.582.421l-.49.232-.007.025a.374.374 0 01-.047.147c-.015.018-.05.044-.103.1l-.044.048.056.034a.448.448 0 01.148.14l.033.049.057-.03c.082-.047.285-.07.508-.07.224 0 .47.02.658.038.188.02.321.042.321.042l.054.005.017-.043c.037-.098.303-.303.559-.461.215-.137.42-.252.479-.282h.605c.065.003.424.107.48.206l.02.028h.036s.271-.002.677-.002c1.091 0 3.177.004 3.504.028.047.065.114.194.378.207h1.59c.11.12.205.156.287.155.045 0 .079-.005.1-.005.033 0 .07 0 .17.135l.017.029h.544c.036.043.068.077.101.127l.018.026h2.32l-.065-.085a3.83 3.83 0 01-.222-.346zm-9.18-16.777a.174.174 0 00.112.052c.038.006.087.007.16.01a.213.213 0 00.118.127c.21.097.523.093.585.292l.213 3.147.026.018c.043.025.083.035.106.048.026.014.029.015.031.032l.003.015c-.02.01-.07.036-.143.088l-.026.018.053 6.168c-.146.142-.216.422-.217.616 0 .136.047.23.088.298.044.073.078.114.076.17 0 .066.007.11.007.134-.002.023 0 .023-.018.041a.655.655 0 01-.128.093l-.025.016v.132c0 .354-.015 1.533-.143 1.874-.27.16-.34.196-.407.266-.063.069-.105.147-.354.42l-.04.045.055.033c.053.034.094.07.125.1.035.026.044.054.103.065.01.008.034.028.07.028.09-.012.155-.06.39-.26.168-.059.788-.111 1.28-.11.162 0 .31.005.427.015a.805.805 0 01.225.046l.032.018.033-.015a.706.706 0 01.25-.072h.021l.012.016h.032l.115-.002a.61.61 0 01.243.047l.102.033-.08-.53-.023-.015c-.51-.317-.77-.418-.908-.497-.128-.077-.146-.111-.22-.37-.036-.13-.083-.24-.083-.332a.241.241 0 01.072-.168c.042-.048.082-.064.15-.106l.027-.016.09-1.097-.026-.016a1.56 1.56 0 01-.133-.272 2.176 2.176 0 01-.096-.282v-.047c-.002-.422-.163-.662-.16-.833 0-.084.031-.158.143-.257.057-.048.09-.072.155-.11l.024-.015.005-.024s.022-.144.022-.323c0-.09-.007-.186-.022-.279l-.006-.027-.025-.013c-.014-.01-.03-.098-.03-.184-.003-.093.005-.187-.011-.248a1.62 1.62 0 01-.052-.373c0-.095.013-.125.014-.167 0-.081-.03-.21-.03-.346 0-.133.03-.264.123-.354.053-.047.088-.068.155-.108l.033-.02-.092-.459-.022-.011c-.018-.013-.042-.121-.057-.218a1.062 1.062 0 00-.034-.142c-.009-.027-.018-.057-.044-.08.053-.318.07-.786.07-1.3 0-1.06-.075-2.312-.075-2.777.004-.072.032-.086.1-.133a.3.3 0 00.15-.257.438.438 0 00-.031-.19c-.044-.066-.106-.07-.1-.076-.011-.006-.036-.048-.036-.201-.01-.272.43-.597.834-.69l.048-.012v-.297l-.015-.015c-.086-.093-.14-.137-.203-.227l-.026-.042-.053.017c-.125.043-.782.07-1.447.07-.722 0-1.488-.029-1.657-.07l-.047-.014-.024.04c-.02.029-.1.118-.16.188l-.041.047.052.032c.157.101.161.14.21.184zm32.478 6.432c-.14.104-.213.346-.286.582a7.276 7.276 0 00-.106.463c-.088.048-.325.222-.325.619 0 .022.003.047.004.071-.03.091-.047.297-.065.584-.049.892-.049 2.478-.049 2.602v.003c-.065.326-.266.513-.451 1.063l-.003.009v.008c0 .026.003.05.003.074 0 .67-.553 1.34-.796 1.6l.022-6.9-.034-.018a.295.295 0 01-.087-.121c-.109-.216-.207-.632-.207-.767v-.01l-.007-.01s-.034-.07-.071-.14c-.019-.034-.034-.07-.054-.098 0-.003 0-.003-.005-.006.004-.034.004-.073.004-.125 0-.588-.07-2.16-.07-2.16l-.002-.006-.045-.183.065-.54c.1-.005.18-.007.255-.007.237 0 .4.021.719.021.08-.002.131.053.223.14a.596.596 0 00.377.17c.015.181.122.303.243.399.134.106.284.191.388.32.007.006.03.072.053.154.033.126.071.3.12.455.05.138.097.259.188.326v1.428zm1.737-2.208l-.004-.024-.02-.014c-.004-.002-.007-.01-.011-.018-.026-.052-.059-.162-.092-.26-.019-.052-.033-.098-.052-.136-.012-.028-.017-.053-.035-.072l.048-1.49-.027-.019c-.102-.064-.114-.094-.184-.266a7.767 7.767 0 00-.46-.96c-.051-.091-.194-.176-.359-.303a2.103 2.103 0 01-.474-.446l-.018-.027h-.77a.687.687 0 01-.1-.128l-.018-.028h-.712a.839.839 0 01-.101-.127l-.018-.028h-.546c-.077-.08-.124-.123-.182-.207l-.02-.029h-.547c-.186-.18-.47-.278-.715-.359-.127-.042-.242-.078-.324-.116-.085-.04-.124-.078-.128-.103l-.01-.044h-.561a.959.959 0 01-.1-.13l-.02-.027h-.956l.084.088c.019.024.114.102.259.224.387.327 1.09.91 1.219 1.017v.81c-.05.035-.084.064-.14.096l-.028.016v1.137c-.048.037-.082.065-.136.098l-.029.014v2.95l.025.015c.014.023.04.144.058.25.01.058.019.114.031.16.011.038.013.066.033.093l-.066 1.006.03.016c.049.032.085.055.126.088a1.957 1.957 0 00-.03.4c0 .398.042.916.042.917-.002.095.054.16.094.203.042.048.069.075.07.144v.431c0 .04.026.11.068.23.127.35.39 1.005.677 1.274l-.304 2.647.336.677.194.419c.013.037.058.059.089.06.044.005.065.003.065.005l.006.005a.177.177 0 01.007.06c.008.027-.093.116-.247.18-.151.07-.336.131-.456.175l-.059.02.025.051c0 .002.048.112.096.269.05.157.1.358.1.521 0 .026 0 .05-.005.073-.041.425-.289.782-.53.992l-.062.054.075.033c.046.02.097.02.171.023.17 0 .435-.025.669-.065.113-.02.223-.044.305-.072.074-.029.138-.051.168-.107.001-.001.003-.003.009-.003.032-.001.122.037.209.081.092.043.177.094.276.096a.17.17 0 00.047-.006l.005-.003.008-.003c.218-.104.691-.208 1.104-.304.208-.052.4-.1.545-.151a.883.883 0 00.18-.082c.038-.024.074-.054.086-.098.074-.073.082-.064.13-.093.05-.03.09-.077.171-.229.2-.213.206-.29.35-.638v-.005l.172-.805c.13-.28.14-.564.14-.837v-.215c0-.265.014-.515.125-.744l.005-.003v-.003c.047-.162.063-.466.063-.823 0-.804-.083-1.867-.095-2.028a.119.119 0 00.02-.063c.007-.078-.02-.182.1-.468l.003-.007.108-.705c.063-.052.243-.21.386-.497.087-.14.11-.309.11-.481 0-.199-.03-.406-.03-.578 0-.035 0-.072.003-.104.054-.055.09-.133.127-.209a.51.51 0 01.101-.166l.017-.011.007-.017c.054-.13.065-.402.065-.717 0-.626-.061-1.414-.061-1.417zm-9.27-.196c-.055.12-.134.335-.22.546-.088.22-.187.44-.262.52-.07.078-.357.25-.623.292-.053.01-.118.012-.187.012-.076 0-.147-.004-.196-.008v-4.271h.038c.03 0 .065 0 .103.002.067-.002.204.066.348.18.221.172.476.436.674.654.184.202.319.369.336.39.145.228.178.434.178.57 0 .107-.02.168-.019.168l-.003.008v.295c-.035.036-.04.076-.063.114-.005.018-.013.035-.017.047l-.04-.017-.016.07c0 .003-.037.165-.038.318 0 .037.002.075.007.11zm3.1 8.782L44.762 38c-.003-.147-.159-.445-.226-.538l-.013-.02-.023-.005c-.1-.02-.154-.038-.172-.055a6.3 6.3 0 01.034-.265c.019-.119.054-.253.068-.268l.017-.02-.005-.02c-.012-.052-.073-.449-.138-.842a15.94 15.94 0 00-.097-.545c-.034-.158-.051-.26-.079-.31l-.034-.052-.056.033c-.037.019-.06.025-.07.024-.017 0-.032-.008-.053-.041a.86.86 0 01-.073-.22 1.06 1.06 0 00-.022-.108c-.011-.025-.006-.051-.039-.073-.017-.025-.034-.133-.044-.27-.017-.206-.026-.482-.038-.72a4.104 4.104 0 00-.025-.318c-.011-.09-.019-.15-.05-.197l-.004-.005-.005-.007c-.016-.005-.05-.105-.062-.207-.017-.102-.026-.201-.056-.264a.325.325 0 01-.053-.167l.001-.05c.007-.036-.03-.085-.079-.104-.046-.024-.12-.048-.246-.091-.009-.002-.02-.005-.027-.041-.016-.052-.016-.142-.031-.23a.292.292 0 00-.184-.22c-.36-.374-.573-.47-.77-.47-.137 0-.242.043-.367.043l-.047-.002.06-.047c.04-.034.048-.084.047-.148l-.003-.262c1.06-.034 1.634-.89 1.946-1.954l.003-.006v-.007s.002-.163.002-.35c0-.085 0-.177-.002-.259.035-.048.052-.112.078-.18.012-.038.026-.073.038-.1.008-.015.011-.028.019-.033l.005-.008.026-.014.002-.029c0-.002.024-.33.024-.595 0-.141-.004-.258-.033-.327l-.848-1.558h-.04l-.006-.003c-.06-.02-.231-.161-.43-.304-.2-.142-.447-.287-.716-.319-.073-.01-.14-.01-.2-.01h-.152c-.052-.013-.353-.092-.654-.176-.167-.044-.336-.094-.462-.13l-.155-.046-.038-.014-.01-.015h-.877c-.043-.052-.066-.082-.1-.114-.045-.037-.101-.042-.178-.042-.158-.002-.202.01-.421.096l-2.404.06-.009.11.606.114c.013.011.032.022.06.042.132.081.426.257.69.467.262.206.488.455.5.653l.003.032.028.013a.363.363 0 00.165.047c.072-.002.12-.028.177-.041.067-.018.1-.06.124-.086a.095.095 0 01.026-.028 6.3 6.3 0 01.494.114c.017.005.031.01.047.017-.512.614-1.27.946-1.541 1.18l-.017.012-.001.019c-.026.175-.04.425-.04.673 0 .248.014.495.04.67l.003.024.022.013a.621.621 0 01.12.091c.017.021.016.02.016.024.001.007-.003.022-.003.045 0 .063.036.13.17.25l.01.743.021.013c.012.027.027.167.033.289.005.066.009.131.016.184.008.05.007.082.034.119.078.135.094.343.093.436v.05l-.003.03.026.017a.836.836 0 01.044.2c.01.049.017.095.029.134.006.031.01.057.028.082l-.001.188c0 .151.003.304.003.304v.03l.03.015c.002 0 .037.052.061.111.025.053.04.106.077.15l.08.614.026.013H38.5c.008.02.016.082.022.143.01.054.004.104.037.153 0 .182.003 1.79.003 2.915 0 .595 0 1.058-.003 1.087v.03l.031.017c.053.035.091.062.142.1.016.103.036.264.036.4 0 .09-.011.17-.03.204-.074.066-.148.208-.236.4-.268.592-.604 1.608-.604 1.609l-.004.007v.009c.004.057.044.098.092.138.336.265 1.59.721 2.231 2.24l.072.175.05-.182c.127-.462.158-.753.158-.947 0-.14-.017-.228-.028-.29.028-.016.046-.021.066-.035a.233.233 0 00.083-.076l.01-.01.002-.014a.856.856 0 00.01-.131c0-.377-.155-1.173-.174-1.492.117-.245.147-.561.147-.87 0-.215-.014-.425-.03-.601-.007-.073-.053-.126-.086-.168-.038-.043-.061-.077-.059-.088 0-.004-.002-.008 0-.013a.182.182 0 01.042-.114c.01-.019.026-.032.035-.04.003-.007.007-.01.01-.013l.028-.016v-.041c0-.284-.425-3.315-.424-3.695v-.022l.005-.009-.002-.015v-.012c-.004-.089.09-.206.157-.323.152-.277.196-.41.196-.548 0-.061-.007-.12-.016-.194.05.021.108.06.17.118.294.266.639.866.85 1.198v.001c0 .006.003.025.003.049 0 .184-.108.654-.157 1l-.007.049.056.01c.075.01.202.159.304.384.32.673.552 1.992.55 2.106v.004l-.002.007.002.005c.01.05.02.234.017.459.002.498-.03 1.234-.07 1.407-.044.205-.187.56-.322.89-.134.331-.26.628-.262.767 0 .017.002.033.01.051l.018.037.044-.002h.257c.375 0 .607.044 1.491.79.081.068.258.128.431.185.169.057.321.097.323.097l.066.02.016-.063c.395-1.68.338-1.732.426-1.913a.618.618 0 00.072-.267.366.366 0 00-.064-.21.399.399 0 00-.039-.055l-.007-.012c.079-.338.103-.576.103-.75 0-.282-.065-.407-.063-.484.004-.04.011-.078.067-.148l.014-.018zM10.353 27.095v.001c-.04.028-.032.055-.035.069.003.11.12.396.162.498-.081.072-.103.193-.13.338a3.863 3.863 0 00-.032.542c0 .134.005.251.007.323-.471.046-.677.254-.796.456-.12.204-.177.384-.34.436-.006-.007-.022-.013-.04-.02a.336.336 0 00-.134-.028h-.01a.615.615 0 00-.167.027V26.97a.445.445 0 00.12-.078c.05-.055.04-.11.044-.158a.41.41 0 01.036-.154l.057-.023c.001-.002.003-.002.004-.002a.124.124 0 01-.013.05l-.046.09.732-.09h.078c.12.215.255.286.397.301.112.015.216.005.347.045l-.241.144zm.12 9.992c.002.068-.061.317-.132.542a4.04 4.04 0 01-.104.303c-.018.043-.03.078-.042.1-.006.013-.01.024-.015.026l-.003.002-.014.009-.005.023c-.054.241-.05.505-.064.735-.015.226-.055.414-.167.5-.128.082-.262.246-.415.395-.153.153-.318.277-.45.28l-.024.003-.379.299a2.582 2.582 0 01-.45.088l.117-.189c.046-.073.088-.145.124-.204l.044-.074c.01-.023.015-.025.018-.059 0-.005.002-.013-.007-.03a.043.043 0 00-.022-.017c-.013-.157-.022-.506-.022-.506 0-.69-.007-1.012-.007-1.15a.062.062 0 00.01-.017.479.479 0 00.04-.145c.008-.067.062-.084.15-.167l.014-.014v-2.73l-.038-.013c-.087-.032-.125-.083-.126-.16l.001-.017c.007-.079.043-.118.125-.149l.033-.011.176-.745-.006-.013s-.102-.352-.102-.653c-.003-.152.03-.288.09-.353l.012-.012.005-.017c.012-.129.014-.34.014-.565 0-.314-.008-.653-.01-.842l.408.369c.004.004.364.304.681.457.015.014.077.062.133.123.072.071.137.165.132.217 0 .022-.002.035-.022.05a.097.097 0 00-.043.084c0 .064.042.11.07.155.03.038.051.076.055.09-.004.002-.02.005-.039.006l-.136.007.093.087s.035.036.078.098c.04.063.08.146.08.234 0 .051-.014.104-.043.155l-.027.048.053.025c.032.014.046.041.046.102.004.167-.155.455-.16.614 0 .155.018.25.047.318.048.103.117.129.146.175.039.048.078.142.078.392a.412.412 0 00-.197.357c.005.282.229.583.223.75-.002.056-.014.088-.061.118l-.078.047.08.045c.065.039.071.064.072.1.007.062-.053.148-.055.247 0 .025.005.052.017.077zm2.234.91c-.002-.334-.116-.684-.116-.859 0-.05.01-.08.019-.087.222-.25.285-.542.285-.852-.003-.399-.097-.834-.097-1.291v-.673c.034-.034.053-.07.053-.11-.007-.098-.095-.149-.172-.203-.077-.053-.153-.109-.18-.161-.096-.192-.131-.446-.131-.696 0-.5.135-.987.135-.988l.01-.036-.033-.02a1.007 1.007 0 01-.154-.107c-.002-.001-.002-.004-.002-.004v-.001c.002-.018-.01-.061-.05-.107a1.713 1.713 0 00-.243-.236l-.058-.051-.042.06c-.02.027-.025.023-.025.024 0 0-.01-.001-.02-.012-.041-.025-.087-.119-.085-.177-.002-.03.01-.042.014-.044l.009-.006.005-.008c.004-.006.173-.218.177-.407.004-.098-.066-.204-.217-.225l-.003-.001h-.003a1.494 1.494 0 01-.559-.153.587.587 0 01-.15-.098.15.15 0 01-.034-.037c-.005-.005-.005-.007-.005-.009.186-.19.733-.767.965-1.144l.61-1c.132-.115.168-.274.168-.453 0-.31-.11-.696-.11-1.111-.001-.416-.3-1.202-.854-1.53a.862.862 0 00-.433-.108c-.04 0-.074.001-.095.003-.057-.044-.14-.08-.222-.139a.527.527 0 01-.22-.27l-.009-.038-.043-.005a5.307 5.307 0 00-.758-.06c-.467 0-.789.076-1.676.076l-.874-.024a8.872 8.872 0 00-1.17.112c-.104.023-.181.036-.239.073h-.881l-.018.026c-.084.119-.107.119-.142.156-.04.05-.032.087-.033.226 0 .079-.002.122-.002.15.002.02-.003.038.012.064.038.037.04.025.057.04.02.016.054.05.108.125l.003.006.541.45c.019.02.053.054.088.087-.008.005-.016.016-.022.043 0 .027.02.042.03.049.03.012.03.007.042.01h.035l.012.009c.021.008.011.014.06.021a.086.086 0 00.052-.021c.004-.005.005-.009.009-.013.053-.003.105-.005.138-.008a.604.604 0 00.094.085v.003c0 .02-.005.07-.005.165 0 .106.014.165.014.191-.005.017 0 .008-.015.026-.02.016-.064.045-.136.092l-.029.015v3.678l.18.262c.007.044.021.195.021.332.003.1-.01.197-.026.219-.017.025-.137.17-.159.314v.002l-.016 1.055.128.232.038.724c0 .003-.003.006-.005.01a.238.238 0 01-.196.116l-.061.009.004.052c.003.074.007.165.007.27 0 .554-.06 1.49-.06 2.406v.006c.08.56.128 1.34.146 1.444.043.284.06.508.06.73 0 .443-.06.875-.061 1.718-.056.255-.138.578-.215.843-.04.133-.077.25-.11.337-.015.043-.03.076-.04.101-.007.012-.01.022-.013.027h-.002l-.006.003a1.205 1.205 0 01-.287.15c-.113.044-.208.077-.208.077l-.117.038.105.059c.028.018.124.094.197.151l.061.045.035-.05a.301.301 0 01.064-.004c.129-.001.36.031.54.032a.533.533 0 00.197-.027c.112.015.6.083 1.009.083.144 0 .278-.009.386-.032.097-.023.187-.058.222-.133.116-.096.193-.12.242-.12.06 0 .106.036.16.087.052.046.095.115.202.123.06-.003.112-.036.158-.086a.898.898 0 01.212-.06c.331-.073.886-.143.888-.143l.042-.003.012-.032c.08-.201.426-.392.764-.61.382-.243 1.07-.521 1.071-.523l.033-.012.004-.03c-.003-.003.067-.634.228-.992.137-.3.48-.727.48-.729l.004-.005.001-.004c.002-.003.217-.421.28-.718.014-.074.021-.15.021-.226zm13.925-2.574v-.141l.005-.059h-.468l-.019.02c-.143.14-.146.288-.194.406-.043.113-.113.215-.374.322-.03-.038-.057-.069-.087-.114l-.041-.061-.056.046c-.178.149-.282.463-.309.611-.41.03-.714.323-.947.612-.125.151-.228.306-.316.427-.086.121-.168.206-.197.216-.24.096-.408.125-.526.135-.123.013-.187-.005-.264.02-.317.138-.49.226-.605.28-.116.052-.157.068-.237.068-.082 0-.133.01-.152.008h-.004c-.001 0 0 .002-.017-.01-.016-.015-.04-.049-.08-.097.064-.086.137-.231.221-.416.147-.317.32-.736.462-1.078.07-.172.135-.323.184-.43.027-.055.049-.097.062-.126l.017-.026-.003-.003.003.004-.03-.03.065-.005v-.392c-.005-.017.048-.191.136-.41.131-.335.345-.808.581-1.218.232-.41.5-.755.696-.82l.046-.018-.01-.046s-.047-.184-.047-.373a.63.63 0 01.046-.26c.063-.147.259-.291.442-.392.186-.102.35-.162.35-.162l.04-.015v-.678c.15-.151.268-.498.425-.86.16-.376.36-.76.596-.907l.037-.022-.011-.04s-.06-.177-.06-.385c0-.183.048-.38.207-.492l.022-.018v-2.643c0-.1-.057-.164-.097-.208-.042-.048-.068-.076-.07-.144v-.796h-.063c-2.304 0-2.514-.017-4.858-.017h-.076l.01.063c.003.01.005.018.005.028a.452.452 0 01-.077.212c-.042.065-.08.107-.08.107l-.014.018v1.376l.029.016c.065.039.1.06.155.109.1.088.144.235.142.397.002.32-.155.676-.155.678l-.02.041.042.024c.009.003.022.023.027.066.01.04.012.094.022.149.042.188.092.49.092.49l.003.024.023.014c.132.083.14.123.14.162.003.03-.012.069-.012.124-.003.073.036.16.156.256l.057.045.042-.057c.234-.34.334-.46.34-.576V27.28c-.003-.08.1-.181.24-.254.137-.074.303-.12.359-.12h.063v-.055c.004-.829.727-.851.999-1.077l1.826.016v.975c-.564.46-.777.97-1.135 1.19l-.014.01-.005.011a.903.903 0 00-.098.436c0 .226.057.43.082.51-.55.444-.648.678-.663.76-.035.025-.108.07-.182.118l-.145.093a.81.81 0 00-.047.034l-.019.01c-.004.008-.002.003-.018.018-.29.39-.587 1.684-.625 1.84-.359.34-.52.614-.6.823-.075.197-.08.34-.103.384-.047.05-.41.418-.583.708-.105.182-.134.39-.167.565-.029.174-.067.312-.142.353l-.029.017v.031c.002.01.002.018.002.029.002.274-.184.81-.184 1.269 0 .08.005.157.02.232l.001.015.011.01.014.02a.422.422 0 01.088.244c0 .077-.025.16-.104.254l-.038.046.054.032c.027.014.12.142.184.26.035.06.065.12.089.168.009.023.02.043.023.058l.005.016h.003c0 .055.003.092.003.111-.002.023.003.014-.011.03a1.119 1.119 0 01-.13.088l-.03.015v.942l-.136.116-.07.068-.023.028c-.006.011-.017.016-.018.047a.164.164 0 00.057.136c.035.03.066.053.119.127l.017.026h1.291c.186.173.552.23.557.234l.007.001h.01c.172 0 .24-.11.299-.18.063-.073.114-.129.318-.134.114 0 .177-.012.203-.012 0 .002.003 0 .005 0l.015.011.098.13.016.028h1.896l.017-.028c.046-.063.179-.141.313-.195.129-.055.272-.09.3-.088h.065l-.002-.06c0-.002-.056-.875-.056-1.518 0-.163.003-.31.011-.423a.877.877 0 01.033-.209c.108-.096.132-.203.163-.278.036-.08.06-.121.193-.155l.07-.02-.028-.058c-.07-.145-.087-.493-.086-.685zm8.943-1.077h-.038c-.029 0-.06 0-.098-.002-.328-.089-.594-.376-1.075-.47a3.211 3.211 0 00-.786-.027l.004-.02a.947.947 0 00.026-.252c0-.263-.038-.63-.038-.898 0-.082.002-.154.012-.206a.518.518 0 00.087-.22c.056-.245.077-.598.081-.724a.348.348 0 00.285-.252c.044-.119.07-.23.187-.3l.025-.017v-.028l.03-.652c.069.167.171.365.296.486a.698.698 0 00.363.158c.119.024.222.046.326.127.111.082.16.321.183.55.013.116.024.23.042.326.019.081.036.152.09.203.015.11.022.386.022.705 0 .583-.02 1.314-.024 1.513zm2.132-.407l-.01-.007c-.007-.025-.03-.11-.05-.218-.073-.376-.173-1.09-.173-1.332 0-.018 0-.034.002-.045l.05-.009v-.848l-.028-.018c-.138-.085-.145-.124-.145-.155-.003-.027.018-.067.018-.13.002-.078-.041-.166-.18-.279v-.63l-.025-.015c-.052-.03-.094-.064-.146-.104l-.521-1.791-.005-.004s-.15-.338-.299-.726c-.154-.383-.303-.826-.3-1.001v-.431a.157.157 0 00-.041-.116c-.066-.09-.21-.173-.545-.804-.011-.016-.023-.087-.038-.173a1.539 1.539 0 00-.116-.447c-.066-.145-.194-.274-.401-.274-.152 0-.257.061-.308.15a.64.64 0 00-.052.297v.164a.645.645 0 01-.03.232c-.03.055-.061.085-.142.094l-.018.003-.01.007c-.153.084-.2.142-.226.19-.024.042-.019.055-.124.124l-.026.016v.629c-.22.178-.22.27-.324.429-.178.276-.33.722-.36.814-.044.03-.103.052-.161.114a.237.237 0 00-.065.163c.004.112.064.2.062.303a.261.261 0 01-.006.05c-.2.17-.307.431-.455.707-.152.292-.159.62-.187.9-.028.277-.075.493-.255.584l-.031.016v.031c0 .232-.048.437-.095.583-.046.145-.095.229-.093.229-.11.183-.236.273-.319.496a.596.596 0 00-.033.192c0 .13.043.221.043.36a.818.818 0 01-.03.214.78.78 0 00-.01.114.19.19 0 00.125.197c.027.01.039.017.04.02.004.004.01.005.013.032-.009.107-.02.111-.14.189l-.029.017v.626c-.042.03-.094.053-.148.108a.403.403 0 00-.105.295c0 .168.06.338.084.4-.008.012-.01.024-.019.041-.06.196-.143.816-.143.818l-.004.034.031.019c.1.056.146.093.138.11 0 .017-.007.033-.038.056-.092.075-.346.131-.47.308-.13.191-.149.497-.152.587-.212.168-.287.229-.588.586l-.028.032.026.031c.103.137.103.164.108.21.009.05.021.122.127.267l.025.04.05-.016c.003 0 .896-.294 1.69-.525.065-.019.254-.025.463-.024.412 0 .92.026.921.026l.056.003.01-.046a.562.562 0 01.135-.23c.025-.035.053-.063.079-.092.021-.03.041-.052.047-.093 0-.044-.053-.081-.088-.084-.069-.01-.157-.08-.245-.155-.075-.06-.156-.126-.257-.15v-.78l-.14-.365h.298c.073.066.21.138.393.23.302.149.71.332 1.042.509.163.085.308.171.412.247.103.074.152.145.147.166v.002c-.024.642-.291 1.2-.55 1.598-.129.199-.258.357-.352.466a4.46 4.46 0 01-.157.166l-.02.015v.024c0 .34.225.57.434.757.214.185.402.337.398.492v.438l.495 1.405v.907l.096-.046c.044-.02.075-.03.09-.036.006.006.008.012.013.016a.11.11 0 00.074.029.207.207 0 00.152-.06c.03-.03.058-.06.133-.109l.024-.016v-.668c.047-.037.087-.062.142-.095l.025-.018v-.515c.132-.126.187-.338.254-.537.059-.208.132-.407.218-.454l.03-.018v-.827c.206-.194.346-.557.469-.894.064-.175.12-.342.175-.475.056-.132.118-.227.155-.248l.021-.014.006-.018c.054-.194.073-.971.073-1.764 0-.768-.019-1.537-.05-1.77l-.006-.025zm-3.996 4.29c-.007-.204-.174-.295-.26-.422l-.02-.027H32.6c-.049-.053-.096-.093-.153-.141l-.057-.045-.041.058c-.222.315-.4.417-.607.5-.206.083-.455.141-.782.342-.056.036-.235.077-.415.125-.185.052-.381.116-.51.233-.127.123-.146.268-.16.37a.47.47 0 01-.032.119c-.017.024-.024.033-.059.04-.255.004-.448.065-.632.063a.715.715 0 01-.285-.055l-.054-.023-.028.044c-.032.043-.056.082-.075.104-.025.023-.031.024-.036.024-.048.002-.065-.018-.132-.072.049-.081.142-.225.152-.328.024-.053.154-.322.155-.48v-.038c.093-.127.508-.73.59-1.205.019-.1.024-.216.024-.328 0-.19-.016-.368-.021-.415l.497-1.247v-1.606a.72.72 0 01.237-.38c.087-.085.198-.16.257-.312l.005-.008v-.494c.222-.201.31-.499.384-.766.073-.274.141-.518.252-.579l.026-.016.05-1.422-.002-.006a.487.487 0 01-.013-.122c-.003-.265.202-.467.287-.813.084-.35.175-.899.175-.9.013-.152.059-.183.121-.224.063-.038.166-.078.21-.197a.825.825 0 00.031-.232 1.49 1.49 0 00-.026-.272c.323-.269.41-.316.491-.59a.867.867 0 00.028-.233c0-.114-.015-.222-.021-.273.48-.422.538-.931.687-1.077l.013-.014v-.19l-.058-.005h-.036c-.048 0-.078.006-.094.004h-.005l-.012-.009a.934.934 0 01-.092-.123l-.02-.026h-.035c-3.044 0-4.454-.006-5.095-.006-.321 0-.456.002-.508.006l-.058.002v2.684c-.098.083-.242.201-.251.337.004.17.09.25.087.403a.838.838 0 01-.082.318l-.018.043.041.024c.032.018.126.094.202.153l.056.043.04-.057c.092-.124.144-.126.215-.128l.09.002a.313.313 0 00.29-.172c.082-.14.16-.377.242-.816.08-.414.188-.733.295-.943.107-.216.234-.308.265-.299.114-.005.347-.093.566-.093.103 0 .196.022.257.077.056.048.073.08.116.146l.018.027h.88c.035.037.064.058.074.07.014.013.01.003.015.033v.005c.01.042-.106.126-.139.142l-.028.016v.513c-.238.203-.516.634-.744 1.039-.116.206-.22.403-.294.557a4.09 4.09 0 00-.086.192c-.02.052-.034.078-.035.111 0 .006.007.12.007.245 0 .064 0 .127-.007.18-.028.2-.14.416-.253.598-.115.187-.224.32-.244.414-.003.032-.003.053-.003.077 0 .044.003.09.003.165 0 .112-.06.22-.114.3-.058.08-.117.13-.117.13l-.02.017v.023c0 .053-.01.08-.012.133 0 .024.003.052.015.083.029.06.087.095.12.117.03.024.041.032.044.05l-.994 2.297v.005c0 .002-.161.684-.161 1.407 0 .362.04.737.164 1.043.03.08.076.13.108.177.03.046.053.084.055.157v.01s.056.288.056.596c0 .152-.012.31-.056.433a1.746 1.746 0 01-.098.207c-.034.07-.064.108-.068.16V38l.003.009s.055.139.051.266a.217.217 0 01-.042.152c-.042.049-.077.062-.152.105l-.036.021.011.038s.042.142.042.285a.368.368 0 01-.038.185c-.07.123-.159.16-.31.251l-.04.025.016.04s.059.15.059.29c0 .068-.017.13-.05.165-.043.049-.081.064-.151.106l-.029.016v.578c.004.047-.023.138-.023.242a.488.488 0 00.164.375l.021.018h.027c.345-.002.786-.235.96-.268.37 0 .722-.026 1.349-.026h.009l.01-.003c.212-.065.47-.208.63-.363l.82.076c.044.045.073.08.106.133l.018.028h2.496l.008-.048a.386.386 0 00.008-.063c0-.022-.004-.036-.004-.045.017-.012.056-.04.137-.09l.028-.018v-1.356c-.017-.16-.169-.211-.168-.468 0-.16.039-.235.075-.282.03-.05.084-.068.093-.147z" fill="#58ADFF"/><defs><linearGradient id="paint0_linear" x1="10.418" y1="9.712" x2="68.147" y2="76.017" gradientUnits="userSpaceOnUse"><stop stop-color="#1A1E21"/><stop offset="1" stop-color="#06060A"/></linearGradient><linearGradient id="paint1_linear" x1="10.418" y1="9.712" x2="68.147" y2="76.017" gradientUnits="userSpaceOnUse"><stop stop-color="#1A1E21"/><stop offset="1" stop-color="#06060A"/></linearGradient></defs></svg>