<!-- by TradingView --><svg width="56" height="56" fill="none" xmlns="http://www.w3.org/2000/svg"><path fill="#252969" d="M0 0h56v56H0z"/><circle cx="28" cy="28" r="28" fill="#252969"/><path fill-rule="evenodd" clip-rule="evenodd" d="M32.397 25h2.863s-.169.588-.26 1h2.372l-.255 1h-2.382c-.327 1.021-.563 2.363-.842 3.408-.12.449.404.592.404.592h2.224l-.301 1h-3.959c-.54-.089-1.14-.613-1.248-1.143v-.669c.463-1.63 1.384-5.188 1.384-5.188zm-9.184 1l1.975 3.41L21.816 32h1.856l2.1-1.62.787 1.62h3.565l-1.938-3.345L31.708 26h-2.127l-2.001 1.673L26.814 26h-3.601zm23.14 0l-1.424 6h3.066l.726-3.495c.175-1.01 2.171-1.263 2.865-.832L52 26.007c-1.054.174-2.538-.493-3.145.68v-.69L46.353 26zm-33.357-2l-6.786.03.012.558-1.743 6.486L4 32l7.252-.004c.656.015 1.218-.201 1.517-.749.218-.805.609-1.561.52-2.458a1.695 1.695 0 00-.667-.882c.307-.09.613-.207.854-.453.515-.686.672-1.55.693-2.397-.117-.519-.64-.968-1.173-1.057zM9.15 25h1.954c.386 0 .053 1.303.053 1.303s-.171.697-.463.697h-2.04l.496-2zm-.855 3.5h1.891c.352.008.186 1.219.186 1.219S10.067 30.99 9.716 31H7.618l.676-2.5zM21.026 26h-5.953l-.324 1h4.326c.306.148.231.867-.047 1.002h-3.864c-.339 0-.736.427-.736.427-.556.605-.677 1.383-.725 2.194.033.472.417 1.132.827 1.38h3.207c.248-.066.405-.44.523-.648.09.17.158.464.211.645h2.802l-.09-.487.826-3.211c.13-.415.338-1.366.058-1.737-.265-.35-.668-.565-1.041-.565zm-2.21 3l-.502 2h-1.509c-.695 0-.035-1.762 0-1.796L17.07 29h1.747zm25.491-3h-5.373c-.406.079-.77.353-1.02.719-.372 1.218-.72 2.45-.93 3.735.095.593.528 1.41 1.148 1.546h5.899l.46-1h-4.338l-.211-.14c-.325-.395.08-1.86.121-1.86h4.866s.67-1.297.275-2.175c-.166-.35-.538-.724-.897-.825zm-3.437 1h1.304c.121.033.196.248.238.383-.01.288 0 .35-.11.617h-1.917s.107-.763.485-1z" fill="#fff"/></svg>