<!-- by TradingView --><svg width="56" height="56" fill="none" xmlns="http://www.w3.org/2000/svg"><path fill="#04963F" d="M0 0h56v56H0z"/><circle cx="28" cy="28" r="28" fill="#04963F"/><path d="M23.159 26.618c.641.696.214 2.145-.214 2.957-.48.812-1.015.986-1.228 1.044-.748.173-1.176-.116-1.39-.522-.374-.58-.106-2.436.642-3.247.48-.696 1.602-.87 2.19-.232zM12.804 26c1.23 0 .685 1.662.044 1.662h-1.87L11.255 26h1.55zM12.42 30.56c1.283.117 1.497-1.618-.16-1.56h-1.549l-.32 1.56h2.03zM32.456 28c.854-.058 1.122-1.672-.107-1.73h-1.39L30.64 28h1.817zM43.912 31c2.885-.058 3.075-5 1.099-5h-1.176l-.991 5h1.068zM36.918 30l1.52-3.15.482 3.15h-2.002z" fill="#fff"/><path fill-rule="evenodd" clip-rule="evenodd" d="M51.742 30.734c.534-1.913.962-8.676-6.571-8.734H10.444c-6.144.29-7.052 5.893-6.144 8.619.534 2.493 2.939 4.265 6.465 4.381H44.69c4.167.058 6.25-1.83 7.052-4.266zm-27.354-.174c-1.069 1.45-3.045 1.74-4.541 1.392-.962-.348-1.443-1.044-1.657-1.913-.213-1.682.374-3.247 1.443-4.407.962-.986 2.404-1.217 3.74-.928 2.53.916 2.54 3.926 1.015 5.857zm-10.471 1.102c-.535.232-.909.338-1.817.338H8.36l1.336-7h3.954c1.549 0 1.976 1.27 1.442 2.314-.267.521-.641.811-1.015.927 1.603.638 1.175 2.725-.16 3.421zm1.335.338h1.817l1.389-7h-1.816l-1.39 7zm17.684-7c3.206-.058 2.35 3.241.534 3.763.787.256.937 1.204.94 2.172L37.743 25h2.03c.085 0 .967 4.302 1.336 6.146L42.34 25h3.365c1.656.116 2.244 1.096 2.458 2.082.267 1.623 0 4.86-3.687 4.918h-5.022s-.267-.942-.267-1h-2.939l-.694 1h-2.96l.092-.473c.211-.826.33-2.574-.872-2.527h-1.442s-.374 2.072-.535 3H28l.555-3h-1.923l.267-1h1.87l.588-3h3.579z" fill="#fff"/></svg>