<!-- by TradingView --><svg width="56" height="56" fill="none" xmlns="http://www.w3.org/2000/svg"><path fill="#023D2F" d="M0 0h56v56H0z"/><circle cx="28" cy="28" r="28" fill="#023D2F"/><path fill-rule="evenodd" clip-rule="evenodd" d="M15.01 15.976a6.706 6.706 0 018.483-3.626l18.4 6.81c3.94 1.458 3.91 7.043-.048 8.457l-.873.313 1.104.416c3.89 1.466 3.882 6.972-.013 8.426l-18.348 6.853a6.987 6.987 0 11-4.796-13.124l7.546-2.697-7.665-2.89a6.706 6.706 0 01-3.79-8.938zm18.731 9.228l5.127-1.832-17.11-6.333a1.707 1.707 0 00-1.195 3.197l13.178 4.968zm-.046 5.326l-13.093 4.68a1.987 1.987 0 101.364 3.731l17.1-6.387-5.37-2.024z" fill="#167565"/><path fill-rule="evenodd" clip-rule="evenodd" d="M23.493 12.35a6.706 6.706 0 00-6.826 11.266 4.605 4.605 0 016.615-6.013l15.586 5.769-2.41.861.112.056-10.258 3.588-.027-.008-7.366 2.632a6.987 6.987 0 104.796 13.124l18.348-6.853c3.895-1.454 3.903-6.96.013-8.426l-1.104-.416.873-.313c3.957-1.414 3.989-6.999.048-8.457l-18.4-6.81zm-2.891 22.86l13.093-4.68 5.37 2.024-17.1 6.387a1.987 1.987 0 11-1.363-3.732z" fill="#22C49A"/><path fill-rule="evenodd" clip-rule="evenodd" d="M42.479 27.339l-.01-.002-13.339 4.767-.12.1 4.685-1.674 5.37 2.024-15.579 5.82-.027.08-.767.287a4.516 4.516 0 11-3.575-8.262 6.838 6.838 0 00-.8.269 6.987 6.987 0 002.271 13.287 7.015 7.015 0 00.987-.024l-.01.032h.3a6.993 6.993 0 001.85-.418l18.348-6.853c3.895-1.454 3.903-6.96.013-8.426l-1.104-.416.873-.313c.224-.08.435-.173.634-.278z" fill="#167565"/></svg>