<!-- by TradingView --><svg width="56" height="56" viewBox="0 0 56 56" fill="none" xmlns="http://www.w3.org/2000/svg">
<rect width="56" height="56" fill="#4CADC7"/>
<circle cx="28" cy="28" r="28" fill="#4CADC7"/>
<path d="M12.9763 35.3267C13.9136 33.6747 14.4863 32.6271 15.4505 31.1294C18.3303 26.8425 18.8063 25.4213 21.9255 21.4439C22.2568 21.1307 23.5311 19.4664 23.8456 19.2195C22.0167 19.0645 19.923 19.7874 19.2946 20.0233C16.8035 21.2078 15.4505 22.8767 15.2104 23.3557C14.8834 23.9075 14.7264 24.6946 14.9746 25.1744C15.1319 25.4991 15.529 25.9621 16.4106 25.9621C15.9223 26.5306 15.3717 26.5306 14.8052 26.5306C13.8575 26.5306 13.3695 25.9621 13.1213 25.4213C12.8933 24.7769 13.0548 23.9854 13.2907 23.4323C14.0931 21.5332 16.6464 20.0233 17.9371 19.5442C20.4116 18.667 21.69 18.3538 24.4912 18.525C25.045 17.9564 25.7698 17.4902 26.1793 17.2458C26.8869 16.7674 27.6111 16.7674 28.0993 16.8439C28.5743 16.9217 28.6531 17.3236 28.5743 17.6445C28.4965 17.8793 28.3226 18.0342 28.0993 18.2773C28.0081 17.9564 27.6889 17.4902 27.0478 17.7217C26.7295 17.8793 26.4148 18.123 25.6122 18.7449C26.3275 18.9358 26.8331 19.1597 27.1513 19.4497C27.3768 19.6567 27.5261 19.8516 27.6111 20.0233C27.8758 20.5622 28.1772 21.6869 27.3629 22.8002C26.9657 23.2747 26.0054 24.6946 23.1217 25.1744C23.8456 25.6528 25.1239 26.3634 24.57 28.5069C24.4123 29.2947 23.5311 31.6085 21.2928 32.7042C20.5813 33.029 19.5302 33.1834 18.4915 32.7042C17.9371 32.4728 17.5273 31.9936 17.2006 31.6085L17.8462 30.1711C17.78 30.4187 17.5273 30.8047 17.6061 31.0407C17.9371 31.6085 18.9766 31.8181 19.6956 31.8522C20.1988 31.876 20.6468 31.7358 21.0443 31.4541C22.5218 30.4066 23.9533 27.3744 23.1217 26.3634C22.8025 25.867 22.3356 25.6528 21.69 25.5763C21.1355 25.5763 20.5859 25.6393 20.0846 26.0548L21.0443 24.3867C20.9781 24.6175 21.0842 24.6574 21.1355 24.6946C21.4035 24.8946 22.3356 24.9306 23.1217 24.6946C25.2939 23.9854 26.6507 21.5332 26.4148 20.4207C26.3392 20.1538 26.0965 19.6208 24.9795 19.3128C24.6525 19.5442 23.5311 20.977 22.5711 22.4091C21.214 24.3867 19.7786 26.595 18.5701 29.0631C17.5273 30.9628 17.0435 32.2419 16.1747 34.2914L12.9763 35.3267Z" fill="white"/>
<path fill-rule="evenodd" clip-rule="evenodd" d="M39.2956 24.186C39.2044 25.2162 40.1686 26.4529 42.4858 26.287C43.5279 26.2085 44.8658 25.8484 46 25.5359V26.4934C44.5504 26.858 43.565 27.0619 42.0926 27.4882C39.7878 28.1706 38.8945 28.429 36.5644 29.2175C34.3261 30.094 30.2319 31.557 26.4939 33.6625C23.0253 35.6155 21.1903 36.9532 18.0947 39.447C15.5893 41.4656 14.2393 42.6952 12 45V40.8798C13.2128 39.7672 18.3306 36.2811 21.9258 34.3853C25.6125 32.4728 28.6534 31.0407 32.9693 29.2947C34.7365 28.6613 39.1301 27.3584 40.106 26.9969C39.4448 26.8425 39.134 26.8213 38.658 26.4529C38.3073 26.1814 38.1344 25.9712 37.9342 25.5763C37.2227 26.287 36.8921 26.5306 36.42 26.9191C35.522 27.5531 34.3098 28.2792 33.4575 27.8367C33.0928 27.6509 32.9617 27.3808 32.8118 26.9969C32.1001 27.8734 30.0852 30.094 29.2037 29.3834C29.0467 29.2947 28.9023 28.8155 28.9023 28.5069C28.414 29.2297 27.9543 29.7081 27.4537 30.094C26.6925 30.6915 25.8243 30.5082 25.5336 30.2522C25.3607 30.1101 25.203 29.7976 25.2942 28.9859C25.4262 27.7846 26.6386 25.9133 27.3093 25.085C28.2193 23.9731 29.0467 23.3153 29.7585 23.3557C30.1932 23.3681 30.5064 23.5076 30.6637 23.9049L30.1725 24.8946C30.2105 24.6612 30.1881 24.503 30.0852 24.4638C29.8682 24.3358 29.6021 24.42 29.3397 24.6008C29.1255 24.7481 28.8939 24.9397 28.706 25.1429C28.4001 25.4734 28.0724 25.8703 27.8099 26.2683C27.2619 27.0953 26.967 27.9776 27.2967 28.3525C27.4883 28.604 27.966 28.4638 28.4156 28.0799C28.6265 27.8991 28.7631 27.7756 29.0197 27.4007C29.5808 26.5808 30.0742 25.4933 30.1725 24.8946L30.6809 23.8542C30.6809 23.8542 30.8918 23.5094 31.0495 23.1969L32.3405 23.0311C31.8521 24.0664 30.338 27.3178 30.7312 27.5531C31.1284 27.7969 32.2454 26.6844 32.7337 26.1319C32.8118 25.3281 32.9692 24.777 33.2213 24.1429C33.6146 23.1969 34.3261 21.6869 35.2076 20.4207C36.42 18.7449 37.8554 16.9989 38.8157 16.8439C39.1301 16.7674 39.5275 16.8439 39.6184 17.3236C39.6184 17.4002 39.6966 17.8793 39.2994 18.7449C38.9727 19.4664 38.3274 20.5796 37.8554 21.2895C36.8921 22.8002 36.0891 23.7417 35.3646 24.5409C35.1288 24.777 34.7858 25.1499 34.2472 25.6528L34.496 24.3867C35.6959 23.4323 36.6433 22.0117 37.6948 20.2548C37.9342 19.7874 38.4845 18.7449 38.1697 18.525C37.9342 18.3539 36.97 19.1423 35.8529 20.977C35.2864 21.8413 34.4172 23.8303 34.496 24.3867L34.2472 25.6528C34.2063 26.258 34.3802 26.7493 35.3769 26.5576C36.0891 26.4406 36.5644 26.1319 37.8554 24.6946C38.0912 23.4323 38.3274 22.7063 38.8157 21.6869C39.2994 20.4979 39.9331 19.4542 40.3302 18.8214C41.1034 17.6568 41.6458 17.2053 42.25 16.6902C42.6597 16.3288 43.8423 15.7327 44.3432 16.1333C44.5665 16.3005 44.5006 16.8561 44.3183 17.4124C44.157 17.8265 43.698 18.9346 42.8952 20.0233C42.2626 20.887 41.4719 21.8703 40.7357 22.6291C40.3007 23.0837 39.6966 23.8266 39.2988 24.1397L39.4448 23.0297C40.3571 22.3333 41.6705 20.6284 42.5637 19.0645C42.8952 18.4722 43.3712 17.5545 42.9741 17.4902C42.407 17.2458 41.054 19.2195 40.4993 20.1771C39.9331 21.2079 39.535 22.357 39.4523 22.9783L39.2956 24.186Z" fill="white"/>
</svg>
