<!-- by TradingView --><svg width="56" height="56" fill="none" xmlns="http://www.w3.org/2000/svg"><path fill="url(#paint0_linear)" d="M0 0h56v56H0z"/><circle cx="28" cy="28" r="28" fill="url(#paint1_linear)"/><path d="M27.669 25.43l-6.47-10.902 6.47 3.551v7.35zM28 17.52L21.587 14h12.826L28 17.52zM34.8 14.528l-6.468 3.551v7.35L34.8 14.529zM18.344 15.407l-6.47 10.902 6.47-3.552v-7.35zM18.676 23.316l-6.413 3.673h12.826l-6.413-3.673zM25.477 26.31L19 22.756v-7.35l6.477 10.902zM21.2 41.472l6.469-10.902v7.35l-6.47 3.552zM21.587 42L28 38.48 34.413 42H21.587zM28.331 37.92l6.47 3.552-6.47-10.902v7.35zM30.524 26.303L37 15.4v7.35l-6.476 3.552zM30.912 26.982l6.413-3.672 6.413 3.672H30.912zM37.657 22.75l6.47 3.553-6.47-10.902v7.35zM18.346 40.595l-6.47-10.902 6.47 3.552v7.35zM18.677 32.686l-6.413-3.672H25.09l-6.413 3.672zM25.478 29.693L19 33.245v7.35l6.478-10.902zM37 40.581L30.525 29.68 37 33.232v7.35zM37.326 32.673L30.913 29h12.826l-6.413 3.673zM44.127 29.68l-6.47 3.551v7.35l6.47-10.902z" fill="#fff"/><defs><linearGradient id="paint0_linear" x1="10.418" y1="9.712" x2="68.147" y2="76.017" gradientUnits="userSpaceOnUse"><stop stop-color="#1A1E21"/><stop offset="1" stop-color="#06060A"/></linearGradient><linearGradient id="paint1_linear" x1="10.418" y1="9.712" x2="68.147" y2="76.017" gradientUnits="userSpaceOnUse"><stop stop-color="#1A1E21"/><stop offset="1" stop-color="#06060A"/></linearGradient></defs></svg>