<!-- by TradingView --><svg width="56" height="56" fill="none" xmlns="http://www.w3.org/2000/svg"><path fill="#E41E35" d="M0 0h56v56H0z"/><circle cx="28" cy="28" r="28" fill="#E41E35"/><path d="M53 25.75c-9.257.375-17.897 3.25-23.698 6.875-.247-.375-.493-.75-.864-1.125 5.184-3.25 12.466-6 18.638-6.75h-.124c-6.665.625-13.083 2.75-17.65 5.25-.123-.375-.37-.625-.617-1 4.073-2.375 9.257-4.25 14.194-5.125h-.123c-5.801.875-10.985 2.5-14.565 4.625-.246-.25-.493-.625-.863-.875.37-.25.74-.5 1.234-.625.123.125.37.375.493.625l.247-.25c-.123-.25-.247-.375-.37-.625 2.962-1.5 6.665-2.75 9.504-3.25h-.124c-2.962.5-6.788 1.375-9.75 2.875-2.469-3-7.406-5-14.688-6.375h-.123c6.541 1.5 11.355 3.75 14.317 6.5-.37.25-.864.5-1.234.75-3.456-2.875-9.627-5.5-17.65-6.625H9.06c7.16 1.25 13.084 3.875 17.157 7.125-.37.25-.74.625-1.111 1-4.444-3.25-11.479-5.875-20.983-7.125H4c7.776 1.25 15.922 4 21.476 8.75-.74.625-1.358 1.25-1.728 2l.247.25c.617-.625 1.234-1.125 2.098-1.75.247.25.617.5.864.75-1.851 1.375-3.209 2.75-3.826 4.125l.247.25c1.11-1.25 2.468-2.5 4.32-3.625.37.375.617.75.864 1-3.58 2.375-5.925 5-6.418 7.375l.246.25c1.482-2.625 3.95-4.75 6.789-6.75.494.625.864 1.25 1.234 2l.247-.125c-.123-.75-.37-1.5-.74-2.25 7.282-5.125 17.156-7.75 23.08-8.125zm-27.4 2.875c.37-.25.74-.625 1.11-.875.37.25.617.5.864.75l-1.11.75a3.75 3.75 0 01-.864-.625zm1.48 1.25l1.111-.75.864.875c-.37.25-.74.375-1.11.625-.247-.125-.494-.5-.864-.75z" fill="#fff"/></svg>