<!-- by TradingView --><svg width="56" height="56" fill="none" xmlns="http://www.w3.org/2000/svg"><path fill="#1D2953" d="M0 0h56v56H0z"/><circle cx="28" cy="28" r="28" fill="#1D2953"/><path d="M26.217 33.254l-.089.001c-1.764 0-2.86-1.438-2.86-3.756 0-2.319 1.105-3.757 2.883-3.757.064 0 .127.002.19.006 1.653.1 2.671 1.518 2.671 3.75 0 2.278-1.068 3.709-2.795 3.756zm.152-9.252s-.085-.004-.128-.002c-.038-.002-.074-.002-.113-.002-1.206 0-2.268.336-3.113.984V20H21v15h1.756l.128-1.037c.849.69 1.964 1.037 3.267 1.037h.038c1.482-.008 2.74-.523 3.646-1.491.918-.984 1.406-2.371 1.406-4.01 0-3.256-1.904-5.387-4.872-5.497zm10.513 9.253c-1.763 0-2.86-1.438-2.86-3.756 0-2.319 1.105-3.757 2.882-3.757 1.765 0 2.862 1.438 2.862 3.757 0 2.318-1.105 3.756-2.884 3.756zm0-9.257c-1.494 0-2.77.517-3.683 1.499-.919.986-1.405 2.37-1.405 4.002 0 3.342 1.617 5.5 5.11 5.5 1.499 0 2.771-.515 3.683-1.49.921-.984 1.413-2.371 1.413-4.01 0-3.343-2.012-5.501-5.118-5.501zm10.568 1.63c-1.83 0-2.634 1.52-2.743 2.804h5.27c0-1.434-.72-2.803-2.527-2.803zm-2.743 4.384c.023 2.126 1.107 3.245 3.062 3.245 1.93 0 3.057-1.072 3.172-1.186l.877 1.428s-1.387 1.485-4.295 1.485c-2.909 0-4.976-2.013-4.976-5.463 0-3.473 2.158-5.507 4.976-5.507 2.817 0 4.477 2.126 4.477 5.142l-.022.844-7.27.012z" fill="#fff"/><path d="M17.266 25.462l-1.361-1.321 1.361-1.321 1.362 1.32-1.362 1.322zm.002-3.818l-1.362-1.321 1.363-1.321 1.36 1.32-1.36 1.322zm1.967 1.91l-1.362-1.321.757-.732.604-.589 1.362 1.321-1.361 1.32z" fill="#33B540"/><path d="M11.305 33.07c-3.006 0-4.96-2.273-4.96-5.604 0-3.33 2.052-5.606 5.032-5.606 2.186 0 3.158 1.042 3.916 1.786l1.344-1.268c-.72-.69-2.149-2.378-5.332-2.378C7.37 20 4 22.78 4 27.49 4 32.197 7.029 35 11.207 35c3.104 0 4.791-1.547 5.453-2.341l-1.396-1.314a5.277 5.277 0 01-3.959 1.725z" fill="#fff"/></svg>