<!-- by TradingView --><svg width="56" height="56" fill="none" xmlns="http://www.w3.org/2000/svg"><path fill="#027C4B" d="M0 0h56v56H0z"/><circle cx="28" cy="28" r="28" fill="#027C4B"/><path d="M25.583 27.302c1.309-.443 1.309-2.485 1.309-2.9-.003-1.732-1.154-3.4-4.552-3.4L16 21v13h6.324c3.418 0 4.675-1.867 4.675-3.737 0-2.265-1.415-2.961-1.415-2.961zM19 24h4.278c.437 0 .814.454.814.966 0 .523-.342.958-.839 1.03H19V24zm4.072 6.995H19V29h4.181c.518.063.91.377.91.92 0 .595-.464 1.067-1.019 1.075zM41 21h9.998L51 24h-7v2h6v3h-6v2h7l-.002 3H41M34.559 21H28v13h3v-5.412l3.329-.003c.95.015 1.688.832 1.688 1.84V34H39v-4.208c0-1.944-1.827-2.519-1.827-2.519S39 26.7 39 24.403C39 21.59 36.701 21 34.559 21zm1.644 4.183c-.055.428-.46.822-.969.822H31V24h4.236c.506 0 .902.386.967.9M14 31s-4.625.013-5.095.013c-2.138-.233-2.909-2.196-2.909-3.634 0-1.795 1.1-3.014 2.802-3.261C9.61 23.999 13.953 24 14 24v-3H8.878c-.559.038-1.484.111-2.432.542a6.123 6.123 0 00-2.294 2.064A6.945 6.945 0 003 27.48c0 .443.032.882.096 1.303.36 1.97 1.522 3.602 3.187 4.478.562.276 1.43.605 3.178.715l.942.022L14 34v-3z" fill="#fff"/></svg>