<!-- by TradingView --><svg width="56" height="56" fill="none" xmlns="http://www.w3.org/2000/svg"><path fill="#F0F3FA" d="M0 0h56v56H0z"/><circle cx="28" cy="28" r="28" fill="#F0F3FA"/><path d="M10 17.66l3.257-1.11L10.058 11 10 17.66z" fill="#231F20"/><path d="M12.065 16.521c1.018 0 1.832.854 1.832 1.878 0 1.025-.814 1.879-1.832 1.879-1.018 0-1.832-.854-1.832-1.879 0-1.024.814-1.878 1.832-1.878z" fill="#231F20"/><path d="M12.065 16.521c1.018 0 1.832.854 1.832 1.878 0 1.025-.814 1.879-1.832 1.879-1.018 0-1.832-.854-1.832-1.879 0-1.024.814-1.878 1.832-1.878z" fill="#231F20"/><path d="M12.792 16.976c-.029 0 .785.57.698 1.395-.058.882-.872 1.224-.872 1.224s.465-1.48.116-1.822c.349-.256.087-.797.058-.797z" fill="#fff" stroke="#231F20" stroke-width=".55" stroke-miterlimit="2.613"/><path d="M14.304 19.538c.93-.598 1.367-.968 2.733-1.622 1.367-.655 2.588-.911 3.868-1.196.61-.17 2.471-.313 2.617.171.29.626-.407.74-.175 1.423.233.711 7.823-1.025 10.382-.712 3.111.057 8.142 1.082 8.142 1.082-.407.598-.553 5.094.494 8.879.873 4.525 3.635 8.794 3.635 8.794 0 .142-3.577-.91-6.572-.797-2.995.114-4.798 1.992-8.723 2.02-3.897 0-4.508-1.365-6.078-1.678-1.57-.285-4.362.426-4.362.426-.058.029-.93-4.838-1.57-7.342-1.163-4.639-4.391-9.448-4.391-9.448z" fill="#E71D1C"/><path d="M29.163 20.192c3.839-.199 7.212 2.818 7.474 6.716.261 3.9-2.647 7.229-6.514 7.428-3.838.2-7.212-2.817-7.474-6.716-.261-3.87 2.676-7.229 6.514-7.428z" fill="#fff"/><path d="M29.338 21.074c2.704-.142 5.089 2.533 5.322 5.977.232 3.415-1.774 6.318-4.478 6.46-2.705.142-5.09-2.533-5.322-5.977-.233-3.415 1.803-6.317 4.478-6.46z" fill="#485E87"/><path d="M12.792 16.976c-.029 0 .785.57.698 1.395-.058.882-.872 1.224-.872 1.224s.465-1.48.116-1.822c.349-.256.087-.797.058-.797z" fill="#fff" stroke="#231F20" stroke-width=".55" stroke-miterlimit="2.613"/><path d="M29.163 20.192c3.839-.199 7.212 2.818 7.474 6.716.261 3.9-2.647 7.229-6.514 7.428-3.838.2-7.212-2.817-7.474-6.716-.261-3.87 2.676-7.229 6.514-7.428z" fill="#fff"/><path d="M29.338 21.074c2.704-.142 5.089 2.533 5.322 5.977.232 3.415-1.774 6.318-4.478 6.46-2.705.142-5.09-2.533-5.322-5.977-.233-3.415 1.803-6.317 4.478-6.46z" fill="#005A9C"/><path d="M11.541 16.663l-1.046-4.382 2.122 4.012-1.076.37z" fill="#fff"/><path d="M12.365 19.828L21.763 45" stroke="#000"/></svg>