<!-- by TradingView --><svg width="56" height="56" fill="none" xmlns="http://www.w3.org/2000/svg"><path fill="#0D93D2" d="M0 0h56v56H0z"/><circle cx="28" cy="28" r="28" fill="#0D93D2"/><path d="M14.371 36.875c2.895 4.106 7.512 6.523 12.567 6.523 5.392 0 10.41-2.86 13.195-7.502-2.263.51-5.95.788-7.41.88a10.395 10.395 0 01-5.785 1.741c-3.686 0-6.704-1.54-8.612-4.588 0 0-3.472 1.125-3.955 2.946zM13.75 19.863a6.64 6.64 0 00-.353.704l-.045.103.617 1.772L17 24.28l.126-.315c1.61-4.061 5.457-6.686 9.806-6.686 2.917 0 5.636 1.177 7.65 3.316l.085.09h.062l5.592-.46c-2.747-4.828-7.876-7.826-13.39-7.826-5.427 0-10.35 2.79-13.182 7.464z" fill="#fff"/><path opacity=".9" d="M13.73 19.863a6.463 6.463 0 00-.354.704l-.044.103.616 1.772 3.032 1.838.126-.315a10.534 10.534 0 016.034-5.995l-2.02-4.45c-3.024 1.226-5.616 3.414-7.39 6.343z" fill="#fff"/><path d="M12.938 22.642c0 .029 0 .058-.004.088-.02.966.296 1.802.94 2.483 0 0 2.05 3.118 12.73 3.616 6.523.305 19.572-1.837 19.572-1.837l3.01-4.826S32.937 24 26.7 24c-9.7 0-11.534-2.961-11.534-2.961-1-1.033-.912-2.108-.912-2.108-.523.734-1.29 1.914-1.317 3.712z" fill="#fff"/><path fill-rule="evenodd" clip-rule="evenodd" d="M12 22.628c.031-2.08.93-3.45 1.489-4.234l2.37-1.31c-1.596 2.097-.471 3.795 1.82 4.585 1.519.673 4.264 1.4 9.023 1.4 3.065 0 8.641-.453 13.491-.912a570.375 570.375 0 008.18-.836l.524-.058.18-.02.109.923s-.433.05-1.185.13c-3.852.42-16.08 1.703-21.3 1.703-9.7 0-11.534-2.961-11.534-2.961a3.414 3.414 0 01-.61-.855c-.347-.697-.302-1.253-.302-1.253a8.092 8.092 0 00-.732 1.21 5.903 5.903 0 00-.585 2.502c0 .029 0 .058-.003.088-.02.966.296 1.802.94 2.483 0 0 2.049 3.118 12.73 3.616 6.523.305 19.571-1.837 19.571-1.837l.153.918-.039.006-.112.018c-.098.016-.243.04-.429.068a209.493 209.493 0 01-6.798.946c-4.075.497-9.04.967-12.39.81-5.425-.253-8.733-1.174-10.718-2.079-.994-.453-1.657-.901-2.086-1.26a4.546 4.546 0 01-.476-.455 2.757 2.757 0 01-.127-.152l-.006-.008M12 22.65v-.023m34.176 4.364l3.01-4.826-.11-.923L51 21.026l-4.25 6.815-.42.069-.154-.918z" fill="#0D93D2"/><path fill-rule="evenodd" clip-rule="evenodd" d="M12.94 32.934c-.022-.962.273-1.83.972-2.482a4.636 4.636 0 014.136-1.066l.473.105c2.075.462 5.124 1.14 9.362 1.14 6.843 0 14.248-1.207 17.151-1.733.809-.147 1.268-.24 1.268-.24l-3.111 4.829s-8.132 1.682-15.54 1.682c0 0-7.117-.427-9.4-1.323-1.964-.61-3 .785-3 .785-.3.298-.505.6-.646.878-.345.684-.299 1.227-.299 1.227a8.086 8.086 0 01-.74-1.174 5.751 5.751 0 01-.623-2.539c0-.03 0-.056-.004-.09zm6.172 2.064c2.843.72 6.238.937 8.389 1.093l.064.004.021.002.034.002h.031c3.767 0 7.701-.427 10.681-.85a101.732 101.732 0 004.675-.777l.277-.055.072-.015.02-.003.004-.002.389-.08 4.52-7.015-2.176.444-.006.002-.02.003-.08.016c-.07.015-.177.035-.316.062a120.793 120.793 0 01-5.45.895c-3.49.49-8.046.977-12.358.977-4.131 0-6.843-.603-9.16-1.118l-.472-.105m.86 6.52c-1.063-.725-2.188-.386-2.577-.17-2.228 1.103-1.452 3.227-.247 4.31l-2.738-1.853c-.578-.784-1.512-2.16-1.544-4.248v-.024l-.003-.022v-.037c-.026-1.171.338-2.313 1.268-3.18a5.58 5.58 0 014.981-1.296" fill="#0D93D2"/><path d="M27.879 30.595c-4.572 0-7.761-.79-9.835-1.245a4.636 4.636 0 00-4.136 1.066c-.7.651-.994 1.52-.973 2.482.003.033.003.06.003.09.028 1.795.822 2.978 1.364 3.712 0 0-.092-1.074.944-2.105 0 0 1.284-1.296 2.978-.806 2.472.915 9.423 1.344 9.423 1.344 7.407 0 15.54-1.682 15.54-1.682l3.11-4.83s-9.67 1.974-18.418 1.974z" fill="#fff"/></svg>