<!-- by TradingView --><svg width="56" height="56" fill="none" xmlns="http://www.w3.org/2000/svg"><path fill="#1574C4" d="M0 0h56v56H0z"/><circle cx="28" cy="28" r="28" fill="#1574C4"/><path d="M36 35.65c-1.135.3-2.376.644-4.41.644-3.985 0-8.59-2.16-8.59-8.225 0-5.583 3.641-8.363 8.567-8.363 1.52 0 2.997.184 4.433.644V23.7c-1.285-.757-2.848-.824-4.219-.824C28.954 22.877 27 25.014 27 28c0 3.148 2.19 5.123 5.103 5.123 1.306 0 2.804-.367 3.897-.827v3.355zM38 20h10v3h-6v3h6v3h-6v7h-4V20z" fill="#fff"/><path d="M21.223 27.998c0 4.419-3.631 8-8.111 8S5 32.417 5 27.998C5 23.58 8.632 20 13.112 20s8.111 3.581 8.111 7.998z" fill="#7FCC28"/><path d="M12.661 36a7.9 7.9 0 00.682 0c.439-2.972 1.704-6.448 5.36-6.685 2.981-.193-1.815-.315-1.815-.315-1.523.113-2.7 1.142-3.388 3.012.527-2.795 1.818-5.545 5.203-5.764 2.981-.194-1.815-.248-1.815-.248-1.953.145-3.406 1.925-3.888 5-.483-3.068-1.935-4.855-3.887-5 0 0-4.796.054-1.816.248 3.383.22 4.674 2.961 5.204 5.754-.685-1.88-1.86-2.89-3.388-3.002 0 0-4.796.122-1.816.315 3.668.238 4.93 3.706 5.364 6.685z" fill="#fff"/><path d="M13 27.994c-.194.139-.907-2.16-.958-2.44-.27-1.488.851-3.705.948-3.546h.02c.097-.159 1.218 2.058.948 3.547-.05.28-.764 2.578-.959 2.439H13" fill="#fff"/></svg>