<!-- by TradingView --><svg width="56" height="56" fill="none" xmlns="http://www.w3.org/2000/svg"><path fill="#27ADEA" d="M0 0h56v56H0z"/><circle cx="28" cy="28" r="28" fill="#27ADEA"/><path d="M28 11l-15 8.5v17L28 45l15-8.5v-17L28 11zM14.474 35.665v-15.33L28 12.67l13.526 7.665v15.33L28 43.33l-13.526-7.665z" fill="#fff"/><path d="M24.146 18.97l3.137-1.854v7.722l.715.423.718-.424v-7.72l3.136 1.853.716-1.27L28 15l-4.57 2.7.717 1.27z" fill="#fff"/><path d="M33.714 20.07l3.137 1.853L28 27.153l-8.852-5.23 3.137-1.853-.716-1.27L17 21.5V27h1.432v-3.807l8.852 5.23v10.46l-3.137-1.853-.717 1.27L28 41l4.569-2.7-.717-1.27-3.136 1.854V28.422l8.851-5.23V27H39v-5.5l-4.57-2.7-.716 1.27z" fill="#fff"/><path d="M22.286 35.939l-3.137-1.842 6.534-3.835v-.84L24.966 29l-6.533 3.834V29H17v5.517l4.57 2.683.716-1.261zM37.567 29v3.836L31.034 29l-.717.42v.842l6.534 3.836-3.137 1.84.717 1.262L39 34.518V29h-1.433z" fill="#fff"/></svg>