<!-- by TradingView --><svg width="56" height="56" fill="none" xmlns="http://www.w3.org/2000/svg"><path fill="#1B619A" d="M0 0h56v56H0z"/><circle cx="28" cy="28" r="28" fill="#1B619A"/><path fill-rule="evenodd" clip-rule="evenodd" d="M9.03 30.497c.903 0 1.638-.294 2.384-.952l.241-.213.978 1.037-.268.258C11.754 31.217 10.74 32 9.002 32 6.15 32 4 29.428 4 26.016 4 22.586 6.168 20 9.044 20c1.702 0 2.681.7 3.27 1.228l.287.256-1.039 1.103-.24-.203c-.72-.61-1.427-.88-2.292-.88-2.047 0-3.59 1.925-3.59 4.48 0 2.53 1.577 4.513 3.59 4.513zm7.68-7.376c-.93 0-1.716.335-2.323.97V20H13v12h1.387v-4.97c0-1.434.935-2.475 2.222-2.475 1.254 0 2.004.878 2.004 2.35V32H20v-5.235c0-2.18-1.322-3.644-3.29-3.644zm5.712 5.94c0-.934.776-1.491 2.078-1.491.885 0 1.594.14 2.15.282v.615c0 1.188-1.048 2.084-2.438 2.084-.89 0-1.79-.501-1.79-1.46v-.03zM24.6 23c-1.158 0-2.037.364-2.744.72l-.294.149.524 1.36.324-.18c.738-.41 1.42-.6 2.148-.6.923 0 2.017.344 2.073 1.944a8.437 8.437 0 00-2.088-.242C22.39 26.15 21 27.31 21 29.107v.031C21 30.998 22.633 32 24.17 32c1.142 0 1.937-.46 2.466-.95v.763H28v-5.327C28 24.303 26.729 23 24.6 23zm5.598.125v1.382c.76-.988 1.85-1.507 2.985-1.507h.33v1.605h-.417c-1.443 0-2.898 1.141-2.898 3.69V32H28.79v-8.875h1.407zm7.28 7.394c-.797 0-1.152-.357-1.152-1.16v-4.677h2.626v-1.547h-2.626v-2.383H34.92v2.383h-.95v1.547h.95v4.754c0 1.548.935 2.51 2.442 2.51.499 0 .919-.096 1.361-.31l.2-.096v-1.493l-.484.227c-.38.179-.64.245-.96.245zm7.686-3.754c-.182-1.193-.858-2.341-2.299-2.341-1.17 0-2.111.966-2.356 2.341h4.655zm-6.164.72C39 24.97 40.71 23 42.894 23c2.225 0 3.778 1.85 3.778 4.5v.031l-.017.323-.016.32h-6.143c.268 1.636 1.47 2.387 2.545 2.387.903 0 1.639-.358 2.317-1.124l.228-.258 1.014.944-.24.274c-.656.746-1.63 1.603-3.348 1.603C40.725 32 39 30.072 39 27.515v-.03zm12.67-4.482c-1.142-.05-2.225.521-2.986 1.509V23.13h-1.407V32h1.407v-3.703c0-2.547 1.456-3.687 2.899-3.687H52v-1.593l-.33-.014z" fill="#fff"/><path fill-rule="evenodd" clip-rule="evenodd" d="M6 35v.006c0 .555.464.994 1.087.994.4 0 .644-.133.867-.343l-.242-.22c-.183.154-.35.248-.613.248A.683.683 0 016.394 35v-.006c0-.378.299-.682.705-.682.244 0 .427.097.598.24l.241-.25c-.204-.178-.442-.302-.836-.302C6.455 34 6 34.45 6 35zm5.132 0v.006c0 .375-.296.679-.72.679-.425 0-.727-.31-.727-.685v-.006c0-.375.296-.682.72-.682s.727.313.727.688zM9.29 35v.006c0 .544.458.994 1.114.994.656 0 1.12-.456 1.12-1v-.006c0-.544-.457-.994-1.114-.994-.656 0-1.12.456-1.12 1zm3.789-.967h.4l.65.915.65-.915h.4v1.934h-.376V34.58l-.674.912h-.013l-.668-.906v1.38h-.37v-1.933zm4.145 0h-.4v1.934h.37v-1.381l.668.906h.013l.674-.912v1.387h.376v-1.934h-.4l-.65.915-.65-.915zm3.313 1.113v-1.113h.376v1.1c0 .359.204.55.54.55.333 0 .537-.18.537-.537v-1.113h.375v1.097c0 .577-.36.867-.918.867-.556 0-.91-.29-.91-.85zm3.79-1.113h-.349v1.934h.37V34.59l1.177 1.376h.315v-1.934h-.37v1.337l-1.144-1.337zm3.184 0h.375v1.934h-.375v-1.934zm1.95.967v.006c0 .555.465.994 1.087.994.4 0 .645-.133.868-.343l-.242-.22c-.183.154-.35.248-.613.248a.683.683 0 01-.705-.685v-.006c0-.378.299-.682.705-.682.244 0 .427.097.598.24l.241-.25c-.204-.178-.442-.302-.836-.302-.647 0-1.102.45-1.102 1zm4.741.2l-.37-.774-.365.773h.735zm-.537-1.18h.348l.94 1.947h-.396l-.217-.467h-1.01l-.22.467h-.385l.94-1.947zm2.327.328h.677v1.619h.379v-1.619h.678v-.315h-1.734v.315zm3.248-.315h.376v1.934h-.376v-1.934zm3.791.967v.006c0 .375-.296.679-.72.679s-.726-.31-.726-.685v-.006c0-.375.296-.682.72-.682s.726.313.726.688zm-1.84 0v.006c0 .544.458.994 1.114.994.656 0 1.12-.456 1.12-1v-.006c0-.544-.458-.994-1.114-.994-.656 0-1.12.456-1.12 1zm3.788-.967h.349l1.144 1.337v-1.337h.37v1.934h-.315L45.35 34.59v1.376h-.37v-1.934zm3.592 1.41l-.226.242c.256.207.564.31.891.31.449 0 .763-.216.763-.578v-.005c0-.32-.232-.467-.684-.566-.412-.089-.51-.155-.51-.304v-.006c0-.127.129-.23.349-.23.195 0 .387.07.58.2l.201-.257a1.266 1.266 0 00-.775-.243c-.425 0-.73.229-.73.56v.006c0 .356.257.478.711.577.397.083.482.158.482.296v.005c0 .144-.146.243-.378.243-.262 0-.47-.09-.674-.25z" fill="#ABA5A8"/></svg>