<!-- by TradingView --><svg width="56" height="56" fill="none" xmlns="http://www.w3.org/2000/svg"><path fill="#0982C6" d="M0 0h56v56H0z"/><circle cx="28" cy="28" r="28" fill="#0982C6"/><path d="M21.717 25.497c.782 0 5.857 2.39 5.857 10.978 0 4.104-1.294 7.525-2.059 7.525-.336 0-.464-.36-.464-1.05 0-1.519.501-2.865.501-6.108 0-6.263-2.416-8.79-3.498-10.211-.32-.421-.562-.696-.562-.943 0-.1.067-.191.225-.191zm12.792.191c0 .247-.242.522-.562.943-1.081 1.422-3.497 3.948-3.497 10.21 0 3.244.5 4.59.5 6.11 0 .69-.127 1.049-.464 1.049-.764 0-2.059-3.421-2.059-7.525 0-8.588 5.076-10.979 5.859-10.979.156 0 .223.091.223.192z" fill="#fff"/><path d="M26.147 27.216c0 1.12.83 2.029 1.852 2.029 1.026 0 1.856-.908 1.856-2.03 0-1.122-.83-2.03-1.856-2.03-1.023 0-1.852.908-1.852 2.03z" fill="#F8971F"/><path d="M18.373 24.007c-.969-.467-1.694-1.405-1.812-2.313.719-.506 1.855-.544 2.825-.077 1.014.49 1.251 1.318 1.257 2.046-.516.477-1.255.835-2.27.344zm2.78-5.465c-.624-1.022-.77-2.317-.384-3.211.924-.013 1.973.656 2.595 1.677.652 1.07.416 1.966.026 2.627-.727.112-1.588-.022-2.238-1.093zm1.442 5.414c-.77-.695-1.2-1.75-1.086-2.61.777-.262 1.823.02 2.592.714.805.73.818 1.548.645 2.214-.587.29-1.346.41-2.151-.318zm2.351-2.617c-.33-1.14-.144-2.403.444-3.138.874.25 1.696 1.183 2.026 2.324.346 1.195-.1 1.972-.634 2.484-.71-.102-1.491-.474-1.836-1.67zm-4.05 8.333c-.765.158-1.573-.076-2.006-.566.228-.63.897-1.169 1.665-1.328.801-.166 1.273.223 1.567.657-.12.521-.42 1.069-1.225 1.237zm-2.023-2.42c-.871-.101-1.666-.636-1.978-1.317.44-.595 1.325-.938 2.198-.837.913.106 1.3.69 1.48 1.26-.292.517-.785 1-1.7.893zm-.078-6.913c-.684-.62-1.068-1.556-.966-2.322.691-.232 1.62.018 2.305.635.714.649.728 1.377.574 1.97-.522.258-1.197.364-1.913-.283zm4.664-4.912c-.277-.951-.12-2.004.37-2.617.73.211 1.414.988 1.69 1.937.289.997-.085 1.643-.53 2.072-.593-.086-1.241-.396-1.53-1.392zM12 40.1c0 .026.015.047.046.047.029 0 .08-.026.136-.047 2.738-1.048 6.781-2.334 12.455-2.727.007-.054.041-.324.041-.532 0-.438-.049-.895-.061-.971-5.815.57-9.827 2.368-12.464 4.098-.107.07-.153.087-.153.132zm23.357-16.437c.006-.728.243-1.556 1.257-2.046.968-.467 2.106-.429 2.825.077-.12.909-.844 1.846-1.812 2.313-1.016.49-1.754.133-2.27-.344zm-2.747-4.028c-.39-.661-.625-1.556.026-2.627.622-1.021 1.671-1.69 2.595-1.677.385.894.239 2.189-.383 3.211-.65 1.071-1.512 1.205-2.238 1.093zm-1.357 4.64c-.172-.667-.159-1.486.646-2.215.77-.695 1.814-.976 2.593-.715.113.861-.319 1.916-1.087 2.611-.804.728-1.566.608-2.152.318zm-2.037-1.266c-.533-.512-.979-1.289-.633-2.484.33-1.14 1.153-2.073 2.027-2.324.588.735.775 1.998.444 3.138-.346 1.196-1.124 1.569-1.838 1.67zm4.662 5.426c.295-.434.764-.823 1.568-.657.768.16 1.435.699 1.664 1.328-.433.49-1.24.724-2.008.566-.804-.168-1.105-.716-1.224-1.237zm1.549-2.076c.18-.57.567-1.155 1.48-1.26.873-.102 1.757.241 2.198.836-.312.68-1.107 1.216-1.978 1.316-.915.106-1.41-.376-1.7-.892zm-.136-5.738c-.153-.592-.141-1.32.575-1.969.684-.617 1.614-.867 2.305-.635.101.766-.283 1.703-.967 2.322-.715.647-1.39.54-1.913.282zM31.01 16.82c-.445-.43-.818-1.075-.53-2.072.277-.95.962-1.726 1.688-1.937.493.613.648 1.666.373 2.617-.289.996-.938 1.306-1.531 1.392zm12.836 23.149c-2.635-1.73-6.649-3.529-12.463-4.098a8.563 8.563 0 00-.061.971c0 .208.033.478.04.532 5.674.394 9.716 1.679 12.456 2.727.056.021.109.047.134.047.033 0 .048-.021.048-.047 0-.045-.048-.062-.154-.133zM28 17.818c-.753-.374-1.495-1.069-1.495-2.514 0-1.38.61-2.708 1.495-3.304.885.596 1.495 1.923 1.495 3.304 0 1.445-.74 2.14-1.495 2.515z" fill="#56B948"/></svg>