<!-- by TradingView --><svg width="56" height="56" fill="none" xmlns="http://www.w3.org/2000/svg"><path fill="#153869" d="M0 0h56v56H0z"/><path fill-rule="evenodd" clip-rule="evenodd" d="M21 16h1v16.106c.335-.028.668-.054 1-.078V16h2v15.902c.323-.017.644-.032.963-.046v-8.278a2.033 2.033 0 014.067 0v8.184c.325-.002.649-.002.97 0V17h.83a.497.497 0 01.098 0H32v.013c.066.016.13.046.186.09 2.092 1.634 5.556 4.086 9.263 6.305 3.72 2.226 7.632 4.187 10.632 4.88a.5.5 0 01-.21.977c-3.67-.734-8.231-2.345-12.144-3.98a84.59 84.59 0 01-5.223-2.378c-1.012-.509-1.873-.978-2.504-1.372v10.237c11.657.167 20.105 2.154 20.02 2.154A243.359 243.359 0 0032 33.085V36h-1v-2.912c-2.106.01-4.108.052-6 .118V36h-2v-2.715l-1 .048V36h-1v-2.613c-8.042.455-13.641 1.333-16.336 2.003 5.479-1.714 11.042-2.696 16.336-3.195v-7.327c-3.487 2.8-7.526 4.925-10.74 6.366a64.196 64.196 0 01-4.212 1.714 47.799 47.799 0 01-1.65.568l-.022.007-.006.002h-.002l-.148-.477.148.477a.5.5 0 01-.391-.914c8.58-4.773 14.163-11.78 15.862-14.649a.5.5 0 11.86.51c-1.475 2.492-5.663 7.845-12.06 12.378.388-.165.793-.341 1.212-.529 3.342-1.498 7.546-3.729 11.052-6.667A.503.503 0 0121 23.59V16zm8.03 15.77v-8.192a1.033 1.033 0 10-2.067 0v8.24c.697-.023 1.386-.039 2.067-.048zM32 20.333v-2.11c2.148 1.646 5.434 3.947 8.936 6.043.78.467 1.572.925 2.367 1.364a96.757 96.757 0 01-3.19-1.267 83.57 83.57 0 01-5.16-2.35c-1.381-.693-2.411-1.283-2.953-1.68z" fill="#fff"/><path d="M30 34h-4v2h4v-2zM26 18v3c1.657-.871 3.357-.363 4 0v-1.452c-.941-1.16-3.059-1.516-4-1.548zM26.58 17.433c.286-.06.785-.114 1.306-.074.53.041 1.013.174 1.334.428a.5.5 0 00.62-.784c-.547-.433-1.263-.593-1.877-.64a6 6 0 00-1.586.09.5.5 0 10.203.98z" fill="#fff"/></svg>