<!-- by TradingView --><svg width="56" height="56" fill="none" xmlns="http://www.w3.org/2000/svg"><path fill="#F0F3FA" d="M0 0h56v56H0z"/><circle cx="28" cy="28" r="28" fill="#F0F3FA"/><path d="M51.496 28.003c0 1.392-.087 2.647-.239 3.427-6.72 4.16-13.518 7.43-22.664 10.93-.482.18-.715.18-1.198 0-9.151-3.506-15.942-6.777-22.658-10.936-.151-.78-.244-2.035-.244-3.427s.087-2.64.244-3.421c6.71-4.153 13.507-7.43 22.664-10.93.483-.18.715-.18 1.198 0 9.152 3.5 15.943 6.777 22.658 10.93.152.78.239 2.035.239 3.427z" fill="#E25A46"/><path d="M52 31.748v-7.742c-6.878-4.274-14.07-7.34-23.233-10.84-.587-.222-.947-.222-1.54 0-9.164 3.5-16.36 6.813-23.227 11.086v7.496c6.873 4.273 14.063 7.586 23.227 11.085.587.223.947.223 1.54 0C37.931 39.334 45.123 36.022 52 31.748z" fill="#E25A46"/><path d="M27.581 16.534c-8.942 3.469-15.32 6.584-22.007 10.755a.83.83 0 00-.39.708c0 .294.146.558.39.708 6.687 4.171 13.065 7.292 22.007 10.755.326.126.506.126.826 0 8.943-3.463 15.32-6.584 22.013-10.755a.817.817 0 00.384-.708.824.824 0 00-.384-.708c-6.692-4.178-13.07-7.292-22.013-10.762-.32-.12-.494-.12-.826.006z" fill="#FCCF26"/><path d="M48.926 28.003c-6.309 3.877-12.42 6.83-20.903 10.125-5.535-2.13-10-4.111-14.105-6.242a.725.725 0 00-.692.012.82.82 0 00-.36.702v1.47c0 .457-.088.529-.314.619a3.973 3.973 0 01-.663.198V32.12c0-.846 0-1.308-.512-1.59-1.5-.835-2.913-1.663-4.308-2.521 6.285-3.86 12.39-6.818 20.902-10.125 4.448 1.71 8.047 3.259 11.367 4.873a.642.642 0 00.715-.102.635.635 0 00.175-.246c.32.697.494 1.027.79 1.177a106.56 106.56 0 017.908 4.417z" fill="#fff"/><path d="M27.797 17.398c-8.786 3.415-15.025 6.458-21.548 10.509l-.047.09.047.09a108.628 108.628 0 004.895 2.88c.25.139.25.373.25 1.141v2.965c0 .204.117.384.343.348.18-.03.46-.054.995-.264.535-.204.64-.576.64-1.098v-1.47c0-.115.04-.21.11-.259.04-.024.11-.048.215 0 4.093 2.125 8.576 4.117 14.105 6.266a.503.503 0 00.396 0c8.78-3.409 15.024-6.458 21.547-10.509l.047-.09-.047-.09a109.83 109.83 0 00-8.5-4.79c-.174-.09-.36-.48-.669-1.176l-.308-.684c-.064-.126-.384-.246-.529-.186-.029.012-.052.018-.035.102.035.156.21.93.023 1.086l-.174.024c-3.372-1.638-6.983-3.187-11.361-4.891a.53.53 0 00-.395.006z" fill="#0082C0"/><path d="M30.944 33.723s3.39-.774 3.566-.81c.137.018.28.03.428.03.905 0 2.118-.307 2.974-.973-.028.09-.06.21-.06.21l.581-.138 2.15-.492c.517-.12.961-.51 1.12-1.008.006-.012.011-.03.291-1.099l.12.402c.105.313.38.559.698.66.35.349.817.349 1.091.289l2.409-.546s-2.074-5.726-2.167-5.99l2.425-6.584s-.434.102-.549.126l.148-.396-2.924.666c-.521.12-.96.516-1.125 1.014l-.313.949c-.038-.096-.104-.277-.104-.277-.232-.603-1.16-1.07-1.778-.936l-2.573.588s.066.156.126.282a2.42 2.42 0 00-.954-.18c-2.2 0-3.654 1.153-4.104 2.473a2.283 2.283 0 00-.549-.402 2.22 2.22 0 00-1.317-.51 5.27 5.27 0 00-1.454.132l-3.155.714v1.122a2.289 2.289 0 00-.323-.198c-.291-.234-.725-.504-1.52-.504-1.383 0-2.628.504-3.43 1.375-.52.57-.806 1.266-.806 1.95v6.698c-.181.15-.384.306-.719.438l-.005-8.966-.406.09v-.366l-3.495.798v.984l-.165-.108c-.39-.336-.927-.522-1.542-.522-2.222 0-4.493 1.368-4.493 3.445v7.646c0 1.475 1.49 2.365 2.754 2.365 1.032 0 2.502-.408 3.396-1.212l.478-.114v.348l5.322-1.213v-.714c.746.546 1.333.51 1.607.51 1.219 0 2.535-.546 3.232-1.236l.549-.12v.348l3.369-.768v-.93c.137.12.28.222.455.288.066.084.428.318.74.372z" fill="#0082C0"/><path d="M12.996 34.883c0 .372-.456.504-.731.504-.22 0-.265-.168-.265-.234v-7.108c0-.51.645-.546.745-.546.145 0 .255.096.255.234v1.914c0 .283.23.457.53.379l1.47-.36v-2.851c0-.72-.378-1.447-1.439-1.447-1.581 0-3.561.96-3.561 2.803v7.628c0 .804.584 1.44 1.54 1.44 1.52 0 3.46-.875 3.46-2.76v-2.67l-1.339.36c-.3.071-.66.365-.66.641l-.005 2.073zM20 33.099c-.387.312-.88.444-1.4.57l-.6.09v-9.375l-2 .522v11.211l4-.936V33.1zM38 29.341c0 1.549-1.435 2.683-3.453 2.683-1.186 0-1.583-.864-1.577-1.596l.03-7.725c0-1.224 1.045-2.636 3.545-2.636 1.058 0 1.455.764 1.455 1.58v7.694zm-2.004-7.11c0-.12-.087-.235-.267-.235-.396 0-.711.227-.717.57v7.364c0 .06.035.228.28.228.65 0 .704-.347.704-.575V22.23zM26 32.307C26 33.862 24.573 35 22.568 35c-1.18 0-1.574-.867-1.568-1.602v-7.753C21 24.417 22.069 23 24.554 23c1.052 0 1.446.766 1.446 1.585v7.722zm-2-7.136c0-.12-.078-.235-.258-.235-.393 0-.736.228-.742.57v7.392c0 .06.065.229.308.229.647 0 .692-.349.692-.577v-7.38zM43.42 24l2.11 5.51-1.802.39c-.337.072-.622-.048-.72-.277l-1.041-3.295-1.041 3.746c-.093.276-.378.51-.715.588l-1.808.384 2.11-6.416-2.221-4.735 1.919-.415c.337-.072.622.048.715.276l1.04 2.545 1.041-2.995c.093-.27.378-.51.721-.582l1.913-.414-2.22 5.69zM29 26.863l.661-.168c.273-.066.339-.337.339-.607v-2.274c0-.225-.054-.506-.344-.432l-.656.162v3.319zm1 1.626c0-.222-.04-.513-.334-.432l-.666.162v4.987l-1.998.493v-11.23l2.467-.606c.42-.102.86-.144 1.2-.12.795.06 1.331.612 1.331 1.434v2.095c0 .666-.344 1.338-.9 1.8.546.09.9.499.9 1.093v3.217c0 .414.203.756.497.954l-1.818.45a.93.93 0 01-.679-.912V28.49z" fill="#fff"/></svg>