<!-- by TradingView --><svg width="56" height="56" fill="none" xmlns="http://www.w3.org/2000/svg"><path fill="#0480CA" d="M0 0h56v56H0z"/><circle cx="28" cy="28" r="28" fill="#0480CA"/><path fill-rule="evenodd" clip-rule="evenodd" d="M21.608 13h2.921s-2.921 3.181-4.168 6h-4.93l6.177-6zM26 13h1.454l-.033 6h-5.969C23 15.796 26 13 26 13zm2.546 0H30s2.5 1.795 4.477 6h-5.939l.008-6zm2.921 0h2.817l6.18 6h-4.91c-1.27-3.28-4.087-6-4.087-6zm-17.075 7h5.598s-1.1 3.084-1.155 7h-5.824L13 21.702 14.392 20zm6.681 0h6.381l.011 7h-7.624c0-4.5 1.232-7 1.232-7zm7.484 0h6.362s1.162 3.011 1.244 7h-7.606v-7zm7.446 0h5.579l1.41 1.702.012 5.298h-5.82c-.012-3.815-1.181-7-1.181-7zM13 28h5.81s0 3.338 1.198 6.985h-5.653L13 33.647V28zm6.83 0h7.624v7h-6.373c-1.251-3.662-1.251-7-1.251-7zm8.716 0h7.587s.03 3.838-1.233 7h-6.354v-7zm8.626 0H43v5.613L41.608 35h-5.653c1.228-3.162 1.217-7 1.217-7zM15.43 36h4.948s2.122 4.5 4.345 6.004h-2.98L15.43 36zm6.057 0h5.94l.063 6H26c-3-2.5-4.513-6-4.513-6zm7.053 0h5.887S32.5 40 30 42.004L28.592 42l-.052-6zm7.005 0H40.5l-6.203 6H31.36c2.5-2.5 4.185-6 4.185-6z" fill="#fff"/></svg>