<!-- by TradingView --><svg width="56" height="56" fill="none" xmlns="http://www.w3.org/2000/svg"><path fill="#CD192E" d="M0 0h56v56H0z"/><circle cx="28" cy="28" r="28" fill="#CD192E"/><path d="M8.996 24.34c1.038-.128 2.249-.44 3.604-1.243 1.065-.625 2.46-1.918 1.484-2.305-.638-.255-2.116.545-3.543 1.838-.233.206-1.271 1.408-1.4 1.543l-.145.167zm-.166-2.117c1.935-1.254 4.1-2.215 5.636-1.923.864.165 1.142 1.075.29 2.075-.613.723-2.245 1.535-3.207 1.838-.406.126-1.69.519-2.981.666-1.165 1.49-1.696 2.123-2.372 3.866-.502 1.298-.326 2.593.725 2.81.91.195 2.057-1.23 2.305-1.692 1.653-3.08-.012-2.925-.762-1.736-.45.713-.267 1.345-.47 1.372-.13.017-.176-.522-.092-.984.217-1.163 1.238-2.326 2.314-2.12.636.124.806.833.644 1.706-.246 1.318-1.46 2.872-2.26 3.431-.43.298-1.447.94-2.647.71-.736-.14-1.715-.76-1.911-2.185-.152-1.109.13-2.135.504-2.906.406-.832.897-1.655 1.528-2.444-.34-.116-.67-.28-.902-.506-1.046-1.012-.247-1.96.09-2.171.672-.423 1.983-.267 1.969 0-.006.121-1.367.043-1.537 1.039-.115.68.283 1.028.748 1.203a11.61 11.61 0 012.388-2.05z" fill="#fff"/><path fill-rule="evenodd" clip-rule="evenodd" d="M50.032 23.49c-.509-.886.172-1.566.822-1.37.588.178.68.784.396 1.147-.342.436-1.517.876-1.517.876-.093 0 .407-.466.3-.653z" fill="#fff"/><path fill-rule="evenodd" clip-rule="evenodd" d="M37.527 27.57c-.196-.743.713-1.567 1.615-1.857.95-.31 2.305-.431 2.505.2.232.74-.846 1.226-1.497 1.432-.162.048-.316.103-.414.12-.19.04-.38.079-.575.116.353.439 1.152.4 1.291.45-.019.065-.322.581-.322.581-.219-.017-1.079.074-1.594.39-.646.393-1.227 1.152-.845 1.583.438.49 1.284-.08 1.863-.518.672-.506 1.073-.9 1.7-1.858 1.488-2.616 3.702-6.178 3.768-6.209h1.581s-4.324 7.306-4.413 7.487c-.228.454-.665 1.134-.22 1.238.208.047.74.109 1.938-1.77 1.406-2.386 4.084-6.918 4.16-6.955h1.582s-4.325 7.306-4.415 7.487c-.227.454-.621 1.122-.235 1.238.758.228 3.464-3.455 4.272-4.752l1.44-.17c-.42 2.033-.133 1.92-.201 3.112-.047.83-.29 1.519-.714 2.085 1.01.037 2.01-.02 2.128.013.336.098-.543.91-1.018 1.041-.656.182-1.5-.073-1.822-.326a1.974 1.974 0 01-.231.116c-.725.303-1.456.363-2.072.165-.423-.136-.892-.38-.993-.735-.657.593-1.27.943-1.8.838-.624-.121-.926-.683-.996-1.176-.653.662-1.479 1.286-2.188 1.183-.855-.124-1.11-1.076-.86-1.58-.185.174-.398.374-.609.548-.742.61-1.29.828-1.613.93-1.12.355-1.604-.162-1.776-.712-.422-1.363 2.02-2.874 2.756-2.982 0 0-.718-.167-1.02-.468a11.06 11.06 0 00-1.157.27 6.826 6.826 0 01-.288.555c-.8 1.388-2.011 2.786-3.052 3.235-1.548.67-1.885-.344-1.927-.564-.2-1.078.392-2.858 1.223-4.283-.43.182-.852.345-1.24.48-.265 1.467-1.384 3.863-3.086 4.494-1.121.416-1.304-.878-1.183-1.37L24.977 35s-1.528.007-1.532 0c.795-1.658 2.916-6.042 2.916-6.055-.73 1.25-1.333 2.296-2.034 2.826-.547.413-1.775.698-1.91-.31-.135-1.017 2.378-4.515 1.281-4.515-.597 0-.945 1.155-1.143 1.59-.17.375-1.702 3.464-1.702 3.464h-1.44c1.343-3.05 1.694-3.596 2.062-4.512.13-.33-.138-.552-.322-.543-.636.035-1.28 1.747-2.787 5.055h-1.488l1.51-3.33c-.53.674-1.957 3.21-3.249 3.451-.669.125-1.106-.584-.997-1.433-.375.728-1.931 2.139-2.994 1.023-.86-.903.412-3.116 1.09-3.894 1.22-1.575 2.264-1.92 2.684-2.016.481-.107 1.005.088 1.227.488.081-.176.13-.286.135-.289h1.562c-1.672 3.636-2.365 4.72-2.152 4.943.554.581 3.228-3.364 3.925-4.943h1.502l-.252.545c.214-.181 1.08-.83 1.718-.77.555.054.683.6.73.814.073-.056 1.048-1.116 2.046-.765.747.263.146 1.832-.267 2.695-.232.484-.804 1.46-1.072 2.092-.218.513.168.793.74.152 1.399-1.564 2.125-3.315 3.322-5.763h1.454l-.751 1.697c.455-.447 1.24-.968 1.826-.821.444.112.685.483.685 1.1l-.001.086a28.216 28.216 0 001.48-.478c1.46-2.301 2.765-3.48 3.244-3.925 1.103-1.025 2.35-1.661 2.828-1.121.827.934-1.052 2.54-2.446 3.489-.444.303-1.044.651-1.71 1l-.229.377c.507-.318 1.233-.684 1.665-.56.858.244.849 1.047.567 1.853.25-.038.53-.076.829-.127zm-9.316.4l-.497 1.089c-.106.226-.711 1.56-.324 1.872.448.358 1.443-.977 1.95-1.925.484-.905 1.035-2.153.402-2.352-.546-.171-1.186.595-1.531 1.315zm-12.714-.341c.2-.38.244-.856.058-1.083-.342-.407-1.363.576-2.096 1.94-.51.831-1.156 2.14-.658 2.42.432.243 1.121-.51 1.543-1.129.417-.607.825-1.51 1.153-2.148zm32.694 3.22c.253-.247.463-.553.514-.872.136-.838.087-1.51.112-2.16-.788.943-1.588 1.968-2.348 2.782.465-.02 1.1.118 1.722.25zm-9.185-3.628c.118-.039.237-.08.356-.125.793-.303 1.555-.915 1.2-1.184-.294-.223-1.659.496-1.556 1.309zm-5.72 1.264c-.278.61-1.05 2.116-.404 2.29.678.182 1.316-.897 1.754-1.743.437-.835 1.033-2.137.42-2.361-.48-.172-1.088.65-1.383 1.105-.146.265-.278.502-.386.709zm1.706-2.946l.154-.1c1.25-.84 2.167-1.688 2.808-2.739.103-.168.271-.816-.161-.738-.508.098-1.718 1.829-2.8 3.577z" fill="#fff"/></svg>