<!-- by TradingView --><svg width="56" height="56" fill="none" xmlns="http://www.w3.org/2000/svg"><path fill="#0D5DB8" d="M0 0h56v56H0z"/><circle cx="28" cy="28" r="28" fill="#0D5DB8"/><mask id="a" maskUnits="userSpaceOnUse" x="12" y="19" width="41" height="18"><path d="M12.33 37H52V19H12.33v18z" fill="#fff"/></mask><g mask="url(#a)" fill-rule="evenodd" clip-rule="evenodd"><path d="M51.512 27.998c-2.41 4.966-13.062 9.009-23.715 9.009-10.663 0-17.387-4.043-14.979-9.008C15.217 23.052 25.88 19 36.533 19c10.663 0 17.386 4.052 14.979 8.998z" fill="#032B76"/><path d="M36.293 19.192c10.36 0 16.88 3.927 14.524 8.73-2.346 4.811-12.716 8.74-23.056 8.74-10.36 0-16.88-3.929-14.534-8.74 1.523-3.096 6.348-5.813 12.351-7.372.426-.116.863-.21 1.3-.316a43.898 43.898 0 019.415-1.042z" fill="#0A0A08"/><path d="M36.137 19.453c10.23 0 16.682 3.79 14.371 8.418-2.31 4.645-12.531 8.427-22.751 8.427-10.23 0-16.682-3.782-14.37-8.427 2.3-4.627 12.53-8.418 22.75-8.418z" fill="#969998"/><path d="M34.507 20.244c9.242 0 15.059 3.39 12.957 7.536-2.094 4.154-11.344 7.544-20.568 7.544-9.242 0-15.059-3.39-12.966-7.544 1.36-2.673 5.663-5.018 11.018-6.364.38-.1.77-.181 1.16-.273 2.664-.572 5.536-.9 8.4-.9z" fill="#0A0A08"/><path d="M45.947 24.38c.443.738.525 1.57.174 2.442a5.68 5.68 0 01-1.268 1.714c-2.916 2.703-9.477 4.719-16.03 4.719-7.726 0-12.598-2.801-10.838-6.235 1.21-2.364 5.308-4.514 10.216-5.575a28.08 28.08 0 011.76-.313 30.357 30.357 0 00-3.396.526c-5.44 1.205-10.055 3.15-11.398 5.843-1.947 3.916 3.45 7.11 12.02 7.11 7.024 0 14.057-2.14 17.435-5.076.382-.33.828-.795 1.178-1.29.145-.201.272-.404.378-.61.605-1.177.489-2.292-.231-3.256z" fill="#0D5DB8"/></g><path fill-rule="evenodd" clip-rule="evenodd" d="M9.317 27.356c-.162.256-.325.445-.485.562l-.006.005c-.184.144-.424.218-.715.218-.189 0-.319-.038-.355-.102-.004-.01-.089-.245.174-1.094.174-.537.377-.921.603-1.141.28-.281.581-.412.947-.412.115 0 .21.018.268.05.044.024.078.044.092.202l.053.62h2.916c-.183.242-.34.504-.465.778H9.516l-.199.314zm7.07.18c-.11.347-.25.599-.406.728-.16.128-.295.185-.436.185a.272.272 0 01-.06-.005c-.005-.038-.015-.174.083-.485.093-.316.23-.556.394-.694a.694.694 0 01.498-.173c.005.043.01.171-.074.444zm6.963-.007c-.09.306-.21.535-.34.643-.104.089-.193.132-.27.132h-.022a1.34 1.34 0 01.07-.34c.12-.392.255-.56.348-.633a.592.592 0 01.294-.146 1.546 1.546 0 01-.078.337l-.002.007zm20.49-3.047L44.613 22l-3.975 1.65-.101.043-.246.789h-.788l-.032.103a2.41 2.41 0 00-1.76-.103H34.6l-.59 1.884c.001-.077 0-.156-.006-.235-.028-.41-.172-.772-.404-1.02-.29-.331-.698-.545-1.214-.635-.382-.076-.9-.112-1.632-.112-.427 0-.831.029-1.235.089-.456.07-.79.163-1.052.29-.388.17-.71.375-.956.61-.216.198-.415.45-.605.77a2.726 2.726 0 00-.178-.574c-.252-.54-.82-1.185-2.093-1.185-.314 0-.611.04-.906.121l.001-.003h-3.4l-.49 1.566a2.468 2.468 0 00-.222-.468c-.512-.807-1.458-1.216-2.811-1.216-1.11 0-2.098.298-2.937.885a5.11 5.11 0 00-.44.347v-.01c0-1.155-.313-1.972-.957-2.497-.561-.48-1.389-.713-2.53-.713-1.36 0-2.559.367-3.561 1.092-.997.727-1.705 1.762-2.107 3.078-.325 1.027-.361 1.908-.108 2.62.27.744.72 1.274 1.332 1.575.551.276 1.302.416 2.232.416.774 0 1.45-.109 2.011-.324a5.06 5.06 0 001.594-.955c.224-.202.47-.47.697-.756.12.56.412.955.639 1.19.554.554 1.378.836 2.448.836 1.125 0 2.125-.301 2.972-.894.21-.148.406-.31.584-.482L17.666 33h3.557l.644-2.05c.31.131.668.198 1.062.198.829 0 1.604-.278 2.304-.825.2-.158.388-.339.56-.539.063.258.189.493.374.7.39.446 1.005.664 1.876.664.575 0 1.113-.086 1.601-.256.08-.029.163-.061.244-.097l.078.234h6.135l.692-2.217c.289-.918.553-1.284.684-1.42.127-.114.212-.13.285-.13.008 0 .087.003.279.088l.478.211.227-.274.669.002-.294.94c-.23.7-.306 1.198-.243 1.57.066.454.31.83.689 1.058.322.198.789.29 1.468.29.495 0 1.048-.058 1.643-.175l.29-.057.153-.03.596-2.925-1.066.313.305-.984h1.168L45 24.482h-1.16z" fill="#fff"/><path fill-rule="evenodd" clip-rule="evenodd" d="M9.615 27.222l-.146.23c-.175.275-.353.481-.532.612-.216.17-.494.257-.826.257-.267 0-.44-.066-.513-.196-.024-.042-.13-.299.16-1.232.184-.568.402-.978.65-1.219.31-.31.66-.462 1.072-.462.149 0 .268.024.355.072.103.058.165.133.184.345l.039.455h3.133a4.06 4.06 0 00-.73 1.138H9.614zm6.943.366c-.121.387-.277.661-.462.815-.194.154-.369.227-.551.227-.163 0-.196-.057-.218-.095-.009-.015-.08-.154.069-.63.104-.353.255-.615.45-.778a.88.88 0 01.57-.217c.15 0 .175.044.204.093.003.005.077.13-.062.585zm6.057.323c.106-.346.248-.596.411-.723.157-.127.304-.187.465-.187.083 0 .088.01.107.045.017.027.038.185-.076.534-.1.345-.238.598-.396.73-.139.117-.265.174-.387.174-.147 0-.172-.041-.188-.068 0 0-.056-.115.064-.505zm4.002-.089c.072-.256.12-.507.146-.746l.944.096c-.344.116-.623.26-.849.437a2.54 2.54 0 00-.241.213zm17.375-.712l.763-2.448h-1.16l.732-2.348-3.644 1.513-.26.835h-.788l-.055.178a2.312 2.312 0 00-1.112-.296c-.26 0-.503.04-.727.118h-3.01l-1.785 5.71-.017-.1a2.062 2.062 0 01-.04-.42c.004-.06.026-.19.106-.459l.714-2.289c.1-.301.137-.616.114-.962-.025-.369-.152-.692-.357-.91-.262-.3-.636-.495-1.11-.578-.375-.075-.884-.11-1.603-.11-.419 0-.814.029-1.209.087-.439.068-.758.156-1.002.276-.37.16-.676.355-.907.576-.246.224-.47.526-.682.92l-.172.319c0-.4-.073-.77-.22-1.101-.228-.491-.748-1.077-1.927-1.077a3.2 3.2 0 00-1.181.222l.032-.104H20.46l-.664 2.124a2.286 2.286 0 00-.334-1.113c-.476-.749-1.37-1.129-2.658-1.129-1.072 0-2.025.287-2.833.853-.27.19-.51.398-.723.624v-.435c0-1.097-.292-1.868-.89-2.357-.53-.453-1.32-.673-2.417-.673-1.322 0-2.485.356-3.456 1.058-.964.703-1.65 1.707-2.04 2.984-.313.99-.35 1.834-.11 2.509.253.697.671 1.192 1.24 1.472.528.264 1.252.398 2.154.398.751 0 1.407-.105 1.947-.311a4.9 4.9 0 001.54-.925c.316-.284.665-.69.939-1.09.02.733.354 1.235.644 1.536.518.518 1.298.78 2.319.78 1.087 0 2.053-.29 2.869-.86.455-.32.833-.7 1.126-1.136L17.91 32.82h3.18l.666-2.118a2.501 2.501 0 001.172.265c.787 0 1.525-.264 2.193-.786.302-.238.573-.53.806-.869-.024.493.181.838.372 1.05.356.408.926.606 1.743.606.554 0 1.073-.083 1.542-.246.133-.048.27-.106.41-.175l.1.302h5.873l.653-2.09c.287-.914.557-1.32.73-1.497.138-.124.264-.18.41-.18.036 0 .142.01.352.103l.354.157.195-.235.997.002-.366 1.173c-.221.674-.297 1.148-.238 1.488.058.401.273.733.604.933.294.18.731.265 1.375.265.484 0 1.025-.058 1.61-.173l.325-.063.511-2.514-.79.232c-.114.033-.216.06-.307.08l.44-1.42h1.17z" fill="#0A0A08"/><path fill-rule="evenodd" clip-rule="evenodd" d="M12.113 27.617c-.244.557-.78 1.23-1.232 1.635-.417.36-.88.638-1.377.818-.498.188-1.096.278-1.776.278-.834 0-1.477-.117-1.93-.341-.462-.225-.788-.62-.996-1.186-.2-.557-.163-1.285.118-2.165.362-1.176.987-2.075 1.857-2.703.879-.63 1.93-.953 3.162-.953.96 0 1.658.18 2.093.548.588.476.715 1.258.715 1.958H10.51c-.027-.314-.145-.566-.435-.727a1.225 1.225 0 00-.598-.135c-.535 0-1.015.197-1.423.602-.308.296-.562.763-.77 1.4-.245.782-.29 1.322-.118 1.618.163.288.48.44.943.44.453 0 .833-.126 1.132-.359.236-.171.453-.431.643-.728h2.23zM17.023 27.636c-.154.485-.362.826-.625 1.041-.272.216-.552.333-.86.333-.3 0-.517-.117-.644-.333-.136-.224-.127-.556.018-1.015.136-.458.345-.79.616-1.015a1.38 1.38 0 01.88-.323c.289 0 .497.107.624.323.136.216.127.549-.009.989zm2.011-1.78c-.38-.592-1.123-.889-2.237-.889-.97 0-1.822.252-2.546.755-.734.512-1.223 1.159-1.468 1.94-.271.845-.145 1.528.363 2.049.416.413 1.068.628 1.966.628.996 0 1.857-.26 2.582-.763.724-.503 1.205-1.15 1.458-1.94.227-.701.182-1.294-.118-1.78zM23.986 27.618c-.136.458-.326.772-.552.96-.227.19-.462.288-.707.288-.28 0-.49-.099-.607-.297-.127-.197-.117-.502.009-.907.136-.44.326-.763.571-.951.244-.198.498-.297.779-.297.245 0 .426.09.535.287.117.198.109.503-.028.917zm2.112-1.87c-.245-.52-.735-.78-1.477-.78-.372 0-.734.071-1.096.224-.263.108-.58.323-.96.647l.234-.755h-1.984L18.632 32h2.139l.724-2.28c.145.206.344.359.58.458.235.107.516.161.842.161.67 0 1.305-.224 1.885-.673.589-.459 1.015-1.105 1.286-1.959.245-.781.245-1.428.01-1.958zM30.755 28.094c-.082.242-.183.449-.318.602a1.632 1.632 0 01-.553.386c-.235.108-.47.162-.716.162-.226 0-.38-.054-.461-.153-.091-.099-.11-.225-.055-.377.037-.135.136-.252.29-.36.145-.108.453-.206.915-.314.345-.081.67-.162.996-.26l-.099.314zm2.554-2.004c-.018-.26-.1-.466-.236-.61-.19-.216-.471-.35-.833-.413-.362-.072-.87-.1-1.504-.1-.399 0-.77.028-1.133.081-.353.054-.652.126-.87.234-.317.135-.579.296-.778.485-.208.189-.399.449-.58.782l1.965.197c.155-.224.309-.377.472-.458.208-.099.48-.153.833-.153.272 0 .444.045.525.144.074.099.074.27 0 .512-.298.09-.57.17-.824.234-.262.053-.806.162-1.648.314-.707.117-1.224.305-1.55.557a1.894 1.894 0 00-.67.961c-.136.423-.072.772.181 1.051.254.288.707.431 1.368.431.498 0 .96-.072 1.377-.215.308-.108.644-.288.996-.53a2.807 2.807 0 00-.026.323c0 .072.017.17.063.305h1.984a2.473 2.473 0 01-.046-.53c.01-.134.055-.323.127-.565l.717-2.273c.08-.243.108-.494.09-.764zM37.043 25.137l-.246.782c.308-.359.589-.61.834-.745a1.57 1.57 0 01.815-.206c.317 0 .625.09.942.27l-1.096 1.4c-.227-.099-.408-.143-.553-.143-.28 0-.526.107-.752.314-.308.306-.598.863-.86 1.689l-.544 1.724h-2.13l1.606-5.085h1.984zM43.51 23.126l-.67 2.011H44l-.399 1.385h-1.169l-.57 1.823c-.073.216-.091.36-.073.431.036.108.136.171.316.171.155 0 .39-.045.699-.135l-.281 1.366a8.033 8.033 0 01-1.513.161c-.534 0-.906-.062-1.115-.189a.772.772 0 01-.371-.574c-.046-.26.027-.674.218-1.249l.57-1.805h-.788l.453-1.385h.73l.357-1.005 2.446-1.006z" fill="#fff"/></svg>