<!-- by TradingView --><svg width="56" height="56" fill="none" xmlns="http://www.w3.org/2000/svg"><path fill="#0F6BAD" d="M0 0h56v56H0z"/><path d="M9.111 33.026c-.607 0-1.116-.154-1.628-.36a3.572 3.572 0 01-1.316-.92c-.37-.407-.657-.916-.861-1.525C5.102 29.612 5 28.913 5 28.123c0-.786.098-1.47.293-2.054.2-.584.489-1.092.868-1.525.37-.42.809-.74 1.316-.958a3.955 3.955 0 011.653-.334c.312 0 .603.023.873.07.275.046.529.104.761.176.2.063.404.143.612.24.212.092.42.195.624.308v1.506h-.1c-.108-.1-.247-.223-.418-.366a4 4 0 00-1.398-.743 3.36 3.36 0 00-.967-.126c-.395 0-.718.082-1.072.246a2.66 2.66 0 00-.93.724c-.262.32-.466.72-.611 1.204a5.65 5.65 0 00-.219 1.632c0 .643.077 1.197.231 1.663.154.462.364.853.63 1.172.258.311.562.547.912.706.349.156.668.284 1.06.284.357 0 .688-.044.991-.132.304-.088.574-.2.812-.334a4.435 4.435 0 00.985-.75H12v1.487l-.58.277a6.601 6.601 0 01-1.41.46c-.23.047-.529.07-.899.07zm7.895-1.954v-1.953c-.28.025-.633.06-1.061.107a5.504 5.504 0 00-1.03.182c-.312.097-.57.246-.774.448-.204.197-.305.474-.305.831 0 .404.112.708.337.914.224.206.553.309.985.309.37 0 .706-.08 1.005-.24.3-.163.58-.363.843-.598zm0 .983c-.096.071-.225.172-.387.302a2.706 2.706 0 01-.462.303c-.208.109-.41.193-.605.252-.192.059-.462.088-.812.088a2.098 2.098 0 01-1.498-.624 2.158 2.158 0 01-.448-.712 2.439 2.439 0 01-.169-.9c0-.488.102-.902.306-1.242.204-.345.526-.618.967-.82.391-.18.853-.304 1.385-.371a22.02 22.02 0 011.723-.158v-.226c0-.278-.042-.5-.125-.668a.927.927 0 00-.35-.397 1.33 1.33 0 00-.549-.19 4.344 4.344 0 00-.667-.05c-.271 0-.59.042-.955.126-.366.08-.732.198-1.098.353h-.07v-1.203c.217-.063.527-.133.93-.209a6.495 6.495 0 011.199-.113c.478 0 .882.038 1.21.113C17.601 25.956 18 26.997 18 28v5h-.994v-.945zm4.929.888c-.64 0-1.04-.195-1.398-.56-.358-.37-.537-.952-.537-1.746V27h-1v-1h1v-2h1v2h2v1h-2v3.08c0 .358.006.633.019.826.012.194.06.374.143.542.07.147.26.273.417.349.158.07.373.107.643.107.191 0 .376-.028.555-.082.18-.06.308-.107.387-.145h.069v1.065c-.22.063-.445.111-.674.145a3.787 3.787 0 01-.624.056zm6.398-1.871v-1.953c-.278.025-.632.06-1.06.107a5.504 5.504 0 00-1.03.182c-.312.097-.57.246-.774.448-.204.197-.306.474-.306.831 0 .404.113.708.337.914.225.206.554.309.986.309.37 0 .705-.08 1.005-.24.3-.163.58-.363.842-.598zm0 .983c-.095.071-.224.172-.387.302a2.702 2.702 0 01-.461.303c-.208.109-.41.193-.606.252-.191.059-.462.088-.81.088a2.099 2.099 0 01-1.498-.624 2.159 2.159 0 01-.45-.712 2.439 2.439 0 01-.168-.9c0-.488.102-.902.306-1.242.203-.345.526-.618.967-.82.39-.18.852-.304 1.385-.371a22.028 22.028 0 011.722-.158v-.226c0-.278-.041-.5-.125-.668a.927.927 0 00-.349-.397 1.33 1.33 0 00-.55-.19 4.344 4.344 0 00-.667-.05c-.27 0-.588.042-.954.126a6.18 6.18 0 00-1.099.353h-.068v-1.203c.216-.063.526-.133.93-.209a6.495 6.495 0 011.197-.113c.479 0 .882.038 1.211.113.329.076.624.213.886.41.254.193.443.443.568.75.125.307.187.68.187 1.122V33h-1.167v-.945zM32 33h-1V23h1v10zm4.767-.032c-1.11 0-1.974-.315-2.59-.945-.611-.634-.917-1.533-.917-2.697 0-1.146.298-2.058.893-2.734.594-.68 1.372-1.021 2.333-1.021.433 0 .816.063 1.148.189.333.126.624.323.874.592.25.27.44.599.574.99.133.386.2.86.2 1.424v.642h-4.83c0 .82.204 1.445.611 1.878.408.433.972.65 1.691.65.258 0 .51-.03.756-.09.25-.058.474-.134.673-.226.213-.097.392-.189.537-.277.146-.093.266-.179.362-.259h.069v1.292c-.138.055-.308.124-.512.208a6.143 6.143 0 01-1.173.334c-.183.034-.416.05-.699.05zm1.373-4.467a3.322 3.322 0 00-.113-.826 1.709 1.709 0 00-.287-.585 1.311 1.311 0 00-.53-.404c-.212-.092-.476-.138-.792-.138-.312 0-.579.048-.8.145a1.86 1.86 0 00-.991 1.027c-.092.222-.15.483-.175.781h3.688zM46 33h-1v-4.091a7.58 7.58 0 00-.05-.901c-.058-.563-.281-.92-.801-1.177-.491-.254-1.136-.132-1.604.107a4.57 4.57 0 00-.905.611V33h-1.173v-7.234h1.173v.782c.35-.315.695-.557 1.036-.725.341-.168.701-.252 1.08-.252.686 0 1.277.283 1.664.741.387.454.58 1.113.58 1.979V33zm3.861-.057c-.64 0-.967-.182-1.324-.548-.358-.37-.537-.951-.537-1.745V27h-1v-1h1v-2h1v2h2v1h-2v3.095c0 .357.006.632.019.826.012.193.06.373.143.541.07.148.185.259.343.335.158.07.373.107.643.107.191 0 .377-.028.555-.082.18-.06.308-.107.387-.145h.069v1.065a5.21 5.21 0 01-.674.145 3.785 3.785 0 01-.624.056z" fill="#fff"/></svg>