<!-- by TradingView --><svg width="56" height="56" fill="none" xmlns="http://www.w3.org/2000/svg"><path fill="url(#paint0_linear)" d="M0 0h56v56H0z"/><circle cx="28" cy="28" r="28" fill="url(#paint1_linear)"/><path d="M37.456 26c-1.698-1.533-3.795-3.02-6.18-4.317-7.576-4.117-15.06-4.762-16.876-1.43-1.817 3.333 2.722 9.381 10.298 13.498 7.575 4.117 15.05 4.753 16.867 1.42.748-1.373.534-3.204-.668-5.171h-8.214c1.067 1.599 1.494 2.903.994 3.412-.84.857-3.985-.858-7.023-3.83-3.037-2.973-4.818-6.077-3.977-6.934.794-.81 3.646.678 6.52 3.352h8.259z" fill="#70C82C"/><path d="M27.02 12a7 7 0 00-7 7v18a7 7 0 007 7h2a7 7 0 007-7v-6h-7v7a1 1 0 11-2 0V18a1 1 0 112 0v5h7v-4a7 7 0 00-7-7h-2z" fill="#0994DD"/><path fill-rule="evenodd" clip-rule="evenodd" d="M33.508 23a35.306 35.306 0 00-4.489-2.447V23h4.489zm-6.489-3.279c-2.517-.95-4.91-1.483-6.947-1.579a7.058 7.058 0 00-.052.858v11.677a33.668 33.668 0 004.696 3.074c.77.419 1.54.802 2.303 1.148v-4.98c-.116-.111-.233-.223-.349-.337-3.033-2.973-4.811-6.077-3.972-6.934.588-.6 2.304.061 4.322 1.533v-4.46zm2 11.904v4.103c2.54.954 4.95 1.483 6.994 1.568.005-.098.007-.197.007-.296v-6h-2.727c.604 1.13.78 2.014.39 2.412-.621.634-2.5-.139-4.663-1.787z" fill="#81C5EE"/><defs><linearGradient id="paint0_linear" x1="10.418" y1="9.712" x2="68.147" y2="76.017" gradientUnits="userSpaceOnUse"><stop stop-color="#1A1E21"/><stop offset="1" stop-color="#06060A"/></linearGradient><linearGradient id="paint1_linear" x1="10.418" y1="9.712" x2="68.147" y2="76.017" gradientUnits="userSpaceOnUse"><stop stop-color="#1A1E21"/><stop offset="1" stop-color="#06060A"/></linearGradient></defs></svg>