<!-- by TradingView --><svg width="56" height="56" fill="none" xmlns="http://www.w3.org/2000/svg"><path fill="url(#paint0_linear)" d="M0 0h56v56H0z"/><circle cx="28" cy="28" r="28" fill="url(#paint1_linear)"/><path d="M20.137 15a4.103 4.103 0 00-2.969 1.28l-5.941 6.163c-1.637 1.697-1.637 4.46.006 6.163L28.002 46 44.77 28.606c1.642-1.701 1.639-4.462-.002-6.163l-5.937-6.16a4.098 4.098 0 00-2.968-1.281 4.119 4.119 0 00-2.979 1.286l-4.881 5.066-4.89-5.073A4.11 4.11 0 0020.136 15z" fill="#D92525"/><defs><linearGradient id="paint0_linear" x1="10.418" y1="9.712" x2="68.147" y2="76.017" gradientUnits="userSpaceOnUse"><stop stop-color="#1A1E21"/><stop offset="1" stop-color="#06060A"/></linearGradient><linearGradient id="paint1_linear" x1="10.418" y1="9.712" x2="68.147" y2="76.017" gradientUnits="userSpaceOnUse"><stop stop-color="#1A1E21"/><stop offset="1" stop-color="#06060A"/></linearGradient></defs></svg>