<!-- by TradingView --><svg width="56" height="56" fill="none" xmlns="http://www.w3.org/2000/svg"><path fill="#2C6CBE" d="M0 0h56v56H0z"/><circle cx="28" cy="28" r="28" fill="#2C6CBE"/><path d="M37.617 16.419a13.154 13.154 0 00-11.4-1.858L17 17.329v5.28l20.617-6.19zM42.136 22.191a12.655 12.655 0 00-2.897-4.411L17 24.458v5.282l25.136-7.549zM42.772 29.13c.329-1.695.31-3.477-.11-5.249L17.002 31.59v5.28l25.771-7.738zM33.81 38.952c4.039-1.213 7.039-4.187 8.392-7.802L17 38.718V44l16.81-5.048z" fill="#fff"/></svg>