<!-- by TradingView --><svg width="56" height="56" fill="none" xmlns="http://www.w3.org/2000/svg"><path fill="#E22739" d="M0 0h56v56H0z"/><circle cx="28" cy="28" r="28" fill="#E22739"/><path d="M34.505 26.137v7.011c0 1.579-1.183 1.832-2.428 1.894-1.245.063-2.428-.126-2.428-1.642v-7.263h1.307v6.884c0 .695.623.757 1.121.757.56-.063 1.12-.125 1.12-.757v-6.884h1.307zm0 0h-1.307v-3.158c0-.631-.56-.695-1.121-.695-.497-.063-1.12 0-1.12.695v3.158H29.65V22.6c0-1.516 1.183-1.706 2.428-1.642 1.245.063 2.428.316 2.428 1.831v3.348h-.002zm-6.163 0v3.22c0 1.328-1.12 1.643-1.929 1.643h-1.68v4.042c-.25 0-.997-.064-1.308-.064v-8.841h1.307v3.537h1.744c.31 0 .498-.064.498-.569v-2.968h1.368zm-4.916 0v-5.053c.871-.126 2.24-.19 3.485-.19.622 0 1.431.316 1.431 1.453v3.79h-1.368v-3.6c0-.253-.126-.316-.25-.316-.125 0-1.868.063-1.992.063v3.853h-1.306zm21.723 6.316c-.435.189-.746.315-1.245.504v-8.526a11.562 11.562 0 00-1.805-.568v-1.326c2.304.568 3.487 1.2 4.793 2.02v1.58c-.435-.379-1.058-.758-1.743-1.074v7.39zm-7.967 2.02c-.499.127-.747.127-1.307.254v-13.39c.56.063.87.063 1.37.189l2.177 8.148V21.84c.56.127.81.19 1.308.317v11.747c-.498.127-.872.127-1.369.252l-2.18-7.768v8.085zm-16.932-13.2v11.558c0 1.768-1.183 1.768-2.428 1.58-1.244-.254-2.365-.38-2.365-1.958V22.159l1.245-.317v10.485c0 .568.56.631 1.12.757.56.064 1.121.19 1.121-.505V21.463l1.307-.19zm-6.225 4.864v5.684c0 .884-.746 1.516-1.43 1.263-.747-.252-2.304-.82-3.113-1.389v-5.558h1.307V31c.436.126.934.38 1.308.569.497.127.622-.064.622-.38v-5.052h1.306zm-1.306 0V24.81c0-.253-.187-.506-.497-.38-.25.127-.997.38-1.433.632v1.074H9.482v-1.832c.872-.568 2.24-1.137 2.863-1.326.685-.252 1.681.127 1.681 1.2v1.958H12.72zm15.313-6.19c-12.823 0-22.098 3.159-22.098 8.02 0 4.927 9.275 8.086 22.098 8.086V37C14.71 37 5 33.462 5 27.968 5 22.537 14.71 19 28.032 19v.947zm0 16.106c12.822 0 22.098-3.159 22.098-8.085 0-4.862-9.275-8.02-22.099-8.02V19C41.352 19 51 22.537 51 27.968 51 33.464 41.352 37 28.032 37v-.947z" fill="#fff"/></svg>