<!-- by TradingView --><svg width="56" height="56" fill="none" xmlns="http://www.w3.org/2000/svg"><path fill="url(#paint0_linear)" d="M0 0h56v56H0z"/><circle cx="28" cy="28" r="28" fill="url(#paint1_linear)"/><path fill-rule="evenodd" clip-rule="evenodd" d="M40.714 37.715A15.93 15.93 0 0044 28c0-3.24-.964-6.257-2.62-8.777 1.099 2.269 1.346 4.895.93 7.466-.48 2.963-1.846 5.98-3.968 8.653l2.372 2.373zm-3.578 3.422l-2.287-2.288c-2.707 2.17-5.772 3.56-8.78 4.039a14.064 14.064 0 01-3.637.116c1.734.644 3.61.996 5.568.996 3.397 0 6.546-1.058 9.136-2.863zM12.878 33.24A15.979 15.979 0 0112 28c0-8.837 7.163-16 16-16 3.144 0 6.076.907 8.55 2.473-2.225-1.033-4.781-1.264-7.287-.865-3.693.588-7.474 2.552-10.572 5.642-3.098 3.09-5.071 6.866-5.669 10.558a14.153 14.153 0 00-.144 3.432zm17.127-14.67c-2.532.404-5.362 1.806-7.783 4.22-2.42 2.415-3.83 5.24-4.24 7.772-.41 2.534.19 4.576 1.48 5.87 1.29 1.293 3.33 1.897 5.865 1.493 1.918-.305 4.006-1.183 5.958-2.64L28 32h6.607c1.514-1.98 2.426-4.111 2.742-6.066.41-2.533-.188-4.576-1.478-5.87-1.29-1.293-3.332-1.897-5.866-1.493z" fill="#fff"/><defs><linearGradient id="paint0_linear" x1="66.5" y1="28" x2="-7.5" y2="28" gradientUnits="userSpaceOnUse"><stop stop-color="#35792A"/><stop offset="0" stop-color="#C6D52F"/><stop offset="1" stop-color="#35792A"/></linearGradient><linearGradient id="paint1_linear" x1="66.5" y1="28" x2="-7.5" y2="28" gradientUnits="userSpaceOnUse"><stop stop-color="#35792A"/><stop offset="0" stop-color="#C6D52F"/><stop offset="1" stop-color="#35792A"/></linearGradient></defs></svg>