<!-- by TradingView --><svg width="56" height="56" fill="none" xmlns="http://www.w3.org/2000/svg"><path fill="url(#paint0_linear)" d="M0 0h56v56H0z"/><circle cx="28" cy="28" r="28" fill="url(#paint1_linear)"/><path d="M11.434 23.4c0 .46.354.837.78.837.444 0 .798-.376.798-.836 0-.46-.354-.835-.798-.835-.426 0-.78.375-.78.835zM13 25h-1.62v6H13v-6zm35.608 8L52 25h-1.784l-1.22 3.136L47.656 25h-1.884l2.316 5.06L46.835 33h1.773zm-3.069-7.986a1.557 1.557 0 00-.444-.06c-.442 0-1.141.188-1.428.846V25h-1.668v6h1.723v-2.7c0-1.162.61-1.584 1.285-1.584.166 0 .344.01.532.057v-1.76zm-7.969 2.218a1.072 1.072 0 011.097-.986c.799 0 1.087.54 1.11.986H37.57zm2.328 1.513c-.155.46-.5.763-1.108.763-.654 0-1.22-.468-1.253-1.126h3.835c.011-.035.033-.305.033-.552 0-1.877-1.053-2.993-2.76-2.993-1.43 0-2.749 1.197-2.749 3.076 0 1.96 1.352 3.11 2.872 3.11 1.396 0 2.271-.845 2.538-1.854l-1.408-.424zM36.106 25h-1.773l-1.175 3.64L31.883 25h-1.828l2.26 5.913h1.696L36.106 25zm-8.7 4.38c-.633 0-1.243-.481-1.243-1.456 0-.985.61-1.444 1.242-1.444.643 0 1.242.459 1.242 1.444 0 .986-.599 1.455-1.242 1.455zm0-4.543c-1.641 0-2.928 1.28-2.928 3.087 0 1.807 1.287 3.099 2.927 3.099 1.651 0 2.926-1.292 2.926-3.1 0-1.807-1.274-3.086-2.926-3.086zm-5.851 1.643c.653 0 .986.423 1.108.869l1.507-.481c-.244-1.045-1.131-2.031-2.649-2.031-1.619 0-2.904 1.28-2.904 3.099 0 1.808 1.319 3.087 2.96 3.087a2.637 2.637 0 002.627-2.031l-1.486-.48c-.121.433-.487.867-1.141.867-.699 0-1.287-.516-1.287-1.443 0-.94.566-1.456 1.265-1.456zm-7.846 2.712c.044.645.598 1.83 2.327 1.83 1.474 0 2.194-.973 2.194-1.971 0-.857-.553-1.585-1.695-1.831l-.732-.152c-.244-.048-.432-.188-.432-.434 0-.306.277-.506.6-.506.509 0 .741.329.785.716l1.398-.27c-.056-.68-.61-1.737-2.206-1.737-1.23 0-2.118.868-2.118 1.936 0 .822.466 1.527 1.641 1.797l.631.152c.411.095.544.27.544.482 0 .258-.21.504-.643.504-.576 0-.842-.387-.864-.786l-1.43.27zM5.864 27.305c0 .016.003.034.009.042.004.006.009.018.01.025.002.008.007.014.01.014.007 0 .006-.008-.006-.03a.116.116 0 01-.012-.041c-.002-.036-.01-.045-.01-.01zm-.071-1.058c-.01 0-.018.002-.019.006-.001.004.005.006.014.007.01 0 .018-.003.019-.006.001-.004-.004-.007-.014-.007zm.009-.424c.014-.001.012-.015-.004-.026-.017-.011-.017-.011-.02-.003-.002.01.013.03.024.029zm.054-.018c.001-.003-.002-.012-.007-.02-.005-.01-.009-.012-.008-.007 0 .004-.001.006-.005.004-.01-.006-.005.005.007.017.005.006.012.009.013.006zm.395.382c.002-.008.002-.013-.004-.02-.005-.008-.006-.011-.004-.019.001-.008 0-.009-.008-.009-.017 0-.028.021-.024.043.004.013.007.017.028.023.011.003.015.003.012-.002a.023.023 0 010-.016zm-.341.979c.004-.006.005-.013.005-.013-.002-.002-.006 0-.01.006-.005.006-.006.013-.006.013.002.002.006 0 .01-.006zm.264-.874c0-.004-.002-.006-.005-.006-.004 0-.007-.005-.007-.012-.001-.007.002-.01.006-.009.004.002.01.001.012 0 .004-.003.003-.007-.006-.018-.01-.012-.012-.013-.018-.007-.005.008-.006.007-.006-.005 0-.008-.004-.014-.004-.014s-.012-.01-.022-.023c-.01-.013-.016-.023-.013-.023.003 0 .007-.003.008-.008s.006-.008.01-.006c.007.001.01-.007.007-.022-.005-.02-.028-.02-.05-.001-.025.021-.03.032-.017.053l.01.02c0 .002.009.016.02.031l.02.027-.003.02a.075.075 0 000 .032c.01.022.055.042.07.032.007-.005 0-.044-.008-.051-.003-.003-.004-.007-.004-.01zm-.297.003c-.002 0-.003.002 0 .006a.03.03 0 00.005.007s.002-.003.001-.006c0-.004-.003-.007-.006-.007zm.021-.429a.03.03 0 00-.01-.012c-.006-.006-.007-.006-.005 0 .003.015.017.025.015.012zm.148.085c.003-.005.004-.01.003-.012-.002-.002-.004.002-.007.008-.003.012.003.035.008.028.002-.002.001-.006-.003-.009-.005-.005-.005-.008-.001-.015zm.016.37s0 .004.003.009c.002.005.006.01.008.01.003 0 .002-.004-.002-.01l-.009-.01zm.05-.447c.002 0 .003-.002.002-.005 0-.004-.002-.007-.002-.007l-.003.006c0 .003.003.006.003.006zm-.086.433c-.004 0-.005.001-.002.003.004.003.007.002.008 0 .002-.002-.001-.004-.006-.003zm-.093-.135c-.01-.008-.02-.015-.02-.019 0-.002.002-.003.006 0 .005.002.011-.016.007-.022 0 0 .002-.006.007-.01l.009-.01h-.01a.034.034 0 00-.018.005.148.148 0 01-.024.012c-.016.007-.017.009-.01.017a.02.02 0 00.02.005c.006-.003.008-.001.007.004-.001.003-.006.006-.01.006a.032.032 0 00-.017.006c-.006.005-.01.003-.017-.006-.01-.013-.01-.014-.004-.02.006-.005.004-.006-.007-.007-.008 0-.015-.003-.015-.007-.002-.019-.03.003-.034.027 0 .007-.003.01-.005.008-.005-.007-.02.052-.016.063.007.019.048.025.072.01.017-.011.032-.01.055.004.02.012.07.018.08.01.023-.03-.036-.062-.056-.076zm.734-.445l-.001-.005-.005-.006.002.005.004.006zm-.04.35l.002.007c.002.007.003.009.003.004a.037.037 0 00-.005-.011zm-.068.006s-.002.002 0 .006c0 .003.004.006.006.006s.002-.002 0-.005c-.002-.004-.006-.007-.006-.007zm.715 1.185v-.004l-.002.006v.004l.002-.006zm-.009.018l-.003.006c-.001.006.002.006.004-.001v-.005zm-.014-.113v.006l.001-.004v-.002zm-.002.012l-.002-.003s-.002 0-.003.003c0 .002.002.003.002.003l.003-.003zm-.012-.048c0-.005-.001-.006-.002-.004 0 .008 0 .02.001.017a.04.04 0 00.001-.013zm-.006-.028l-.001.002a.05.05 0 000 .007l.001-.002v-.007zm-.009.018a.027.027 0 01-.01.013l-.006.005.003.003c.001.003.004.003.006.001a.114.114 0 00.012-.028c.001-.007 0-.004-.005.006zm-.021.248c-.002-.017-.004-.016-.003.002 0 .007.002.013.002.013v-.015zm-.009-.157l.006.002c.002 0 .002-.001.001-.01 0-.008-.002-.01-.002-.01v-.003l-.001-.014c-.002-.01 0-.019.003-.023.002-.002.002-.005-.001-.01-.003-.003-.004-.008-.004-.011.002-.009-.002-.017-.014-.028-.006-.006-.013-.011-.014-.014-.003-.003-.004-.001-.013.015-.01.019-.011.02-.012.01v-.019l.002-.014c-.001-.005-.01-.003-.016.003l-.006.008.003.002c.002.002.004.006.004.01 0 .002.003.005.005.006.003 0 .003 0-.002.003-.005.002-.006.003-.004.006V27.145s.003-.003.003-.005c0-.003.005 0 .009.004.004.005.01.008.01.008.001 0 .003.026.002.034 0 .003-.004.006-.004.006l-.005.009c-.002.007-.001.007.004.002.006-.003.007-.003.008.004.002.01.013.007.016-.005a.04.04 0 01.006-.014c.006-.009.01-.004.012.015 0 .007.002.014.004.015zm-.065-.035c.005-.011.007-.018.005-.017 0 0-.003.003-.003.005a.187.187 0 01-.004.014c-.003.008-.002.008.002-.002zm-.015.119l-.003.005c-.002.003-.001.005-.001.005s.003-.003.003-.006v-.004zm.043-.034c.003-.026.003-.031-.001-.021-.003.006-.01.03-.019.063a.308.308 0 01-.013.038c-.006.014-.01.018-.01.01a.036.036 0 00-.005-.013c-.01-.016-.01-.017-.003-.035l.008-.017a.056.056 0 00.004-.01c.002-.005 0-.007-.005-.006a.014.014 0 01-.011-.005c-.006-.005-.009-.006-.006 0 .002.004-.003.015-.008.016a.022.022 0 00-.012.014.062.062 0 01-.006.013.045.045 0 00-.005.015.015.015 0 01-.008.01c-.004.002-.005.001-.004-.003v-.01c-.003-.004-.01.002-.012.008a.015.015 0 01-.004.005.07.07 0 00-.015.027c0 .003-.003.006-.005.007-.003 0-.005.004-.005.009 0 .003-.003.007-.003.007s-.002-.002-.002-.005c.002-.008-.006.004-.01.017a.141.141 0 01-.02.036.217.217 0 01-.023.02.172.172 0 00-.027.023l-.009.01-.004.006c-.001.003-.005.004-.005.004-.003-.003-.02.042-.02.056 0 .01-.001.013-.005.017-.003.004-.005.01-.009.03a.551.551 0 01-.007.038l-.002.016a.112.112 0 01-.016.04c-.007.007-.008.011-.003.017.007.008.01.007.026-.01a.06.06 0 01.027-.017c.01-.004.014-.006.017-.013.007-.013.02-.023.053-.046.008-.005.015-.005.015-.005s.003.003.006.002c.004 0 .005.025 0 .036-.003.01 0 .005.014-.016s.015-.02.003.003c-.009.018-.01.025-.002.01.006-.01.006-.005 0 .009-.004.006-.004.008-.001.005.005-.006.005.002 0 .015s-.005.02.001.02c.003 0 .006.003.006.003.001.003.004.001.01-.006.006-.01.006-.01.007-.003 0 .006 0 .006.011-.007a.1.1 0 01.015-.016 1.28 1.28 0 01.06-.12l.013-.03a.194.194 0 00.01-.029.35.35 0 01.006-.024.092.092 0 00.004-.029l.001-.022v-.008-.017a.062.062 0 000-.024.04.04 0 010-.021.44.44 0 00.007-.042c.002-.009.002-.013 0-.015-.002-.003-.002-.009 0-.03zm-.001.357l-.004.003c-.003.004-.004.003-.003-.002 0-.005-.002-.005-.002-.005l.002-.011.003-.017c0-.006-.001-.004-.004.006a.133.133 0 01-.013.047l-.006.012c-.002.002-.004.009-.003.012 0 .003 0 .006-.004.014l-.004.011a.17.17 0 00.021-.038l.005-.008s.009-.015.012-.024zm-.042.068l-.002-.003c0-.003-.003.003-.01.017a.338.338 0 01-.024.037.29.29 0 00-.03.046c-.001.003 0 .006.004.005.006 0 .013-.01.023-.03.006-.014.016-.028.015-.024l.002-.003a.218.218 0 01.011-.02c.01-.017.014-.027.01-.025zm-.097.048l-.01.005-.005.017c-.004.02-.004.027.004.015.002-.004.005-.006.005-.006l.006-.01c.011-.024.011-.026 0-.02zm-.022-.063l-.004.004s.004 0 .005-.002c.002-.002.001-.003-.001-.002zm-.104-1.615c0-.003-.004-.006-.004-.006v.005a.023.023 0 00.005.006v-.005zm.101-.029c0-.003-.002-.005-.002-.005v.004l.002.005v-.004zm-1.308-.176c.004-.005.004-.007-.003-.007-.006 0-.01.003-.01.006 0 .008.005.008.013 0zm-.063.023c.003 0 .006-.003.006-.006 0-.004-.004-.007-.004-.007-.002 0-.005.003-.006.007-.002.003 0 .006.004.006zm-.101.045c.005.003.015-.006.015-.016 0-.005-.001-.005-.013 0-.009.003-.01.012-.002.016zm-.017-.008c-.003 0-.005.003-.004.006.002.004.005.005.007.003.006-.005.005-.01-.003-.01zm.38.474c.006 0 .013-.002.013-.006.002-.003-.002-.006-.01-.007-.005 0-.012.003-.013.006 0 .005.003.007.01.007zm-.138-.011a.036.036 0 00.017 0c.005-.002 0-.003-.009-.003-.01 0-.013 0-.008.003zm-.204-.053l.022.012c.002.001.005-.006.006-.015.003-.016.002-.017-.022-.017-.013 0-.024.003-.025.006 0 .003.009.01.02.014zm-.073-.097c.002 0 .004-.006.005-.013 0-.013-.005-.017-.01-.01-.005.006 0 .023.005.023zm-.015.036c0 .012.002.023.002.023.011 0 .02-.01.02-.027.001-.02-.002-.024-.013-.021-.005.001-.008.01-.01.025zm-.095.01c.001.004.004.006.007.004.007-.006.006-.01-.002-.01-.004 0-.006.003-.005.007zm1.473.535a1 1 0 00.02.045.297.297 0 01.018.067c.005.025.012.045.012.045.003 0 .026.04.028.052.007.03.018.074.03.073.004 0 .004-.003.003-.016 0-.008 0-.023.002-.033.003-.019-.022-.047-.035-.053-.004-.002-.008-.007-.01-.015a.09.09 0 00-.01-.024c-.01-.014-.012-.019-.015-.058-.002-.03 0-.045.005-.026 0 .005.003.009.006.008l.019.02a.138.138 0 00.02.025c.003.002.007.009.009.017a.063.063 0 00.005.014c.003 0 .008-.022.007-.028-.001-.003 0-.006.003-.007.002 0 .006-.006.008-.013.003-.012.003-.017-.003-.04a.19.19 0 00-.039-.077c-.023-.032-.027-.046-.022-.07.005-.023.018-.027.023-.01a.066.066 0 00.008.018c.004.005.004.006 0 .007-.009 0-.008.023.001.03.007.005.01 0 .01-.014 0-.009-.002-.014-.005-.018-.01-.015-.01-.027 0-.036.008-.006.01-.012.008-.018-.002-.007-.001-.008.001-.003.006.01.02 0 .024-.018a.128.128 0 00.005-.043l-.002-.009v-.021c0-.034-.004-.052-.014-.054h-.004l.002-.006c.004-.007-.001-.023-.016-.05a.164.164 0 00-.024-.037c-.005-.004-.002-.035.004-.04.007-.004.004-.01-.007-.015-.006-.003-.01-.003-.01.002 0 .01-.007.005-.011-.006a.021.021 0 00-.008-.01c-.007-.003-.014-.02-.008-.02.003 0 .006-.008.008-.018.003-.011.006-.015.009-.013.005.004.005.005.005.015 0 .015.006.023.01.014.002-.005.006-.006.012-.003.008.004.008.005.011.017.004.016.006.02.013.021.005 0 .012.011.01.017 0 .003.01.032.016.046 0 0 .004.001.008-.002.007-.005.007-.007.001-.026a.14.14 0 00-.022-.045c-.009-.013-.015-.026-.015-.026a.047.047 0 00.004-.03.058.058 0 010-.021c.001-.011.003-.012.009-.006.01.01.013-.002.01-.056a.181.181 0 00-.011-.068.203.203 0 01-.01-.03c-.003-.024-.033-.066-.035-.05 0 .007-.002.009-.005.002-.004-.01-.006-.013-.004-.007 0 .007 0 .006-.003-.002-.002-.006-.006-.01-.01-.012l-.007-.003.003-.008a.203.203 0 00.004-.021c.004-.044-.013-.052.01-.04.008.002.013.003.013 0 0-.005.016.006.018.013 0 .003.003.005.008.005h.009c.003 0 .003 0-.002-.005-.004-.004-.004-.007-.004-.02 0-.013.001-.015.008-.012.006.002.008.004.01.01.005.011.009.014.01.006 0-.004.002-.006.003-.004l-.002-.007c-.003-.006-.002-.009-.002-.009.006.002.012.024.01.037a.076.076 0 000 .02c0 .004 0 .009-.003.011-.003.005 0 .025.01.045a.824.824 0 00.02.042l.016.033c.005.01.005-.009 0-.02v-.009l-.001-.011c-.002-.006-.003-.01 0-.011.002-.001.002-.004-.002-.012-.005-.01-.006-.019-.001-.014.001.002.002.001 0-.002a.032.032 0 00-.004-.006l-.005-.01c-.003-.008-.005-.01-.007-.011-.004-.002-.005-.006-.008-.023-.002-.009-.002-.013 0-.013.003.002.005 0 .005 0s.002 0 .003.002c.002.004.003.003.003 0 0-.006.005-.005.012.003.001.003.004.002.004.002a1.828 1.828 0 00-.12-.168l-.004-.005v-.002l-.005-.005-.002-.002c-.002 0-.004-.003-.006-.007l-.012-.015a.117.117 0 00-.021-.012c-.023-.01-.011-.007-.02-.02-.009-.01-.028-.02-.025-.011.002.004 0 .003-.002-.002-.003-.006-.006-.01-.015-.013l-.016-.008-.008-.003c-.004-.001-.004 0 .002.01.006.009.006.01 0 .005-.003-.002-.005-.002-.005 0 .001.003 0 .003-.004 0a.096.096 0 00-.02-.01c-.011-.005-.015-.005-.015 0 0 .008-.007.003-.023-.014-.007-.008-.008-.01-.005-.008.006.002-.003-.01-.008-.012-.004-.001-.005-.002-.003-.004s.002-.003-.004-.007a.204.204 0 00-.023-.013c-.014-.007-.016-.007-.013 0 .004.006.002.007-.009.003a.07.07 0 01-.023-.012.112.112 0 00-.03-.015.33.33 0 01-.035-.015c-.01-.005-.013-.006-.01-.001.002.004 0 .006-.007.006-.012 0-.02-.006-.012-.008l.013-.006.015-.006c.006-.003.006-.006 0-.016a.038.038 0 00-.006-.006.217.217 0 01-.013-.009.07.07 0 00-.021-.01c-.014-.002-.031-.01-.032-.016-.002-.008-.022-.017-.031-.012-.003.001-.005.005-.005.007.001.003-.001.004-.004.003-.004 0-.005 0-.004.003.002.003-.004.002-.014 0-.03-.008-.078-.005-.084.004l-.004.005.008.006c.005.004-.001.005-.02.003l-.031-.001c-.005 0 .013.022.022.028.008.004.01.006.006.007-.002.001-.01-.002-.017-.007-.007-.003-.019-.01-.026-.012-.011-.006-.011-.006-.003.004s.008.01-.003.005c-.013-.006-.013-.002 0 .008.006.005.006.006-.003.003-.008-.002-.01-.005-.014-.015a.082.082 0 00-.008-.016c-.002-.003-.002 0 0 .004.002.006 0 .01-.002.01-.003-.002-.006 0-.007.003-.002.004-.001.006.007.014.006.007.007.01.007.017 0 .013.006.02.022.023.017.003.03.014.03.026 0 .007 0 .007-.003-.002-.004-.01-.016-.02-.026-.017-.004 0-.005.003 0 .012.003.01.003.016-.004.023-.01.012-.033.012-.04.001-.002-.004 0-.005.01-.001s.012.002.016-.012c.003-.014.003-.017-.004-.024a.072.072 0 01-.012-.027.07.07 0 00-.01-.024c-.004-.004-.006-.006-.005-.013 0-.011-.006-.02-.016-.022-.007 0-.008-.003-.007-.006.002-.004.001-.005-.004-.006-.003 0-.005.001-.004.005 0 .003 0 .005-.003.004-.003 0-.005.004-.005.01a.029.029 0 01-.006.018c-.004.004-.003.008-.003.008.002 0 .005.005.006.01a.01.01 0 010 .007s.003.006.012.014c.025.021.02.026-.01.009a.325.325 0 00-.05-.023.546.546 0 01-.033-.012c-.006-.003-.005-.002.004.006.016.012.02.02.014.027-.003.004-.005.004-.009-.002-.003-.005-.01-.006-.03-.003-.018.002-.026.001-.029-.004-.002-.003-.006-.005-.008-.003a.047.047 0 01-.014.005c-.018.003-.038.014-.038.02-.001.009-.016.01-.026.003-.007-.005-.007-.015.002-.014.007 0 .006-.008-.002-.014-.009-.006-.03-.007-.025 0 .003.002.006.009.005.014a.02.02 0 00.005.013c.008.009.001.02-.01.015-.005-.003-.014-.002-.021.003-.015.009-.016.01-.008.021.006.01.005.01-.01.006a.103.103 0 01-.024-.008c-.006-.003-.008-.002-.008.002.001.004.005.01.01.011.007.004.011.015.003.014a.072.072 0 01-.036-.024.04.04 0 01-.004-.017c0-.005-.003-.01-.01-.013-.02-.009-.006-.01.028 0 .03.008.037.007.046 0 .007-.005.01-.012.008-.016a.28.28 0 00-.125-.058c-.017-.005-.02-.006-.013-.01.008-.004.008-.004-.004-.01-.007-.003-.014-.005-.016-.003-.003 0-.005 0-.005-.004s-.003-.005-.006-.003a.036.036 0 01-.013.006.023.023 0 00-.012.008c-.003.004-.005.005-.005.003 0-.003.002-.009.005-.012.004-.007.003-.007-.008-.002a.045.045 0 00-.016.01c-.002.004-.007.005-.012.003-.004-.002-.012 0-.017.005-.005.004-.011.005-.015.002-.01-.007-.014-.007-.011 0 0 .003 0 .005-.003.005h-.013c-.007.001-.008.002-.003.007.008.009-.005.014-.014.005-.007-.005-.008-.005-.006 0 .002.006 0 .006-.005.003-.007-.003-.008-.002-.004.003.003.003.008.005.012.003.014-.007.005.007-.015.023a.098.098 0 00-.028.034c-.004.01-.01.018-.013.018-.003 0-.005.003-.005.006s-.002.005-.004.003c-.002-.001-.008.003-.013.01-.006.007-.013.01-.016.009-.003-.002-.006 0-.006.005s-.004.01-.007.01a.079.079 0 00-.023.01c-.018.011-.024.03-.015.046.004.006.003.01-.003.016-.006.007-.005.007.004.004.009-.004.01-.003.002.006-.01.01-.007.013.012.019.01.003.018 0 .031-.01.009-.007.017-.015.017-.019 0-.005.002-.004.006 0a.032.032 0 01.005.017c0 .004.002.008.004.008s.004.004.004.008a.04.04 0 00.007.02c.004.007.007.013.005.015 0 0 0 .008.002.013.004.011.02.01.02 0 .001-.004.006-.006.012-.006.017 0 .026-.012.024-.032-.002-.015 0-.019.01-.025a.084.084 0 00.017-.016c.005-.008.005-.01-.002-.017-.004-.005-.01-.009-.013-.009-.003 0-.005-.004-.005-.01 0-.02.011-.037.03-.047.02-.012.027-.02.024-.027-.005-.011.015-.024.033-.022.02.003.024.012.013.021-.042.035-.046.04-.043.05a.11.11 0 01.003.022c0 .02.019.03.048.025l.035-.005c.012-.002.025.007.021.014-.001.002-.014.005-.03.005-.034.001-.045.005-.045.014 0 .003.004.008.008.01.005.002.007.007.006.015-.002.017-.006.02-.017.009-.016-.017-.028-.003-.027.03 0 .017 0 .021-.007.021-.005 0-.009.002-.009.006 0 .008-.018.008-.024 0-.002-.004-.014-.003-.033.006-.017.006-.032.01-.035.007a.07.07 0 00-.028-.004c-.025 0-.038-.01-.033-.025a.022.022 0 01.01-.013c.007-.003.008-.006.005-.012-.003-.005-.003-.012-.001-.016.004-.01-.009-.007-.016.004-.004.005-.01.007-.012.005-.003-.003-.004.002-.003.02.003.045.002.05-.009.05-.031.002-.034.003-.038.016-.002.01-.004.011-.006.005-.001-.005-.006-.002-.015.012a.065.065 0 01-.026.024c-.007.003-.014.009-.016.014a.06.06 0 01-.018.02c-.012.007-.017.008-.023.002-.007-.005-.008-.005-.01.006 0 .012-.004.014-.012.014-.022-.002-.03 0-.032.01 0 .005.002.01.007.01.019-.001.038.029.035.052a.15.15 0 01-.008.032c-.006.015-.007.016-.046.014a.248.248 0 01-.045-.004c-.002-.002-.01 0-.016.004-.01.007-.011.01-.013.036a.204.204 0 01-.011.048c-.007.015-.008.022-.005.028a.049.049 0 010 .023c-.001.014 0 .016.013.012.011-.004.017-.002.022.008.007.011.011.012.022.007a.092.092 0 01.03-.008c.012 0 .02-.003.022-.01.002-.005.007-.01.01-.01.008 0 .023-.026.023-.04 0-.013.023-.04.042-.049.011-.005.016-.011.018-.024.004-.021.021-.03.037-.02.007.005.015.003.033-.009a.13.13 0 01.03-.016c.002 0 .014.012.025.028a.223.223 0 00.051.049c.033.02.041.033.035.06-.004.014-.003.013.01-.004.013-.015.014-.019.008-.024-.007-.004-.007-.008-.001-.014.005-.006.008-.006.016 0 .006.005.012.007.014.005.003-.004-.03-.03-.038-.03-.003 0-.006-.003-.006-.006 0-.004-.004-.007-.008-.007s-.016-.011-.027-.025a.092.092 0 00-.022-.026c-.003 0-.005-.007-.005-.016.001-.018.019-.028.023-.013.001.005.006.008.01.006.005-.002.01.003.015.015.004.01.014.02.021.023a.149.149 0 01.033.02c.014.012.02.021.02.034 0 .011.006.026.02.042.01.014.018.027.015.027-.006.004.016.032.025.032.005 0 .006-.003.004-.01-.002-.006.001-.011.01-.015.019-.01.011-.026-.01-.021-.003 0-.004-.003-.002-.008.001-.006 0-.012-.003-.014-.009-.008-.006-.018.004-.013.005.002.012 0 .015-.006.01-.02.045-.007.04.014 0 .006.001.01.004.01.004 0 .006.005.005.016 0 .01.003.016.003.016.002 0 .005.005.005.01 0 .006.007.013.015.017l.024.015c.01.006.014.005.02-.003.006-.01.009-.01.021 0 .016.01.035.013.038.004.001-.003.009-.007.018-.008l.015-.002v.027a.292.292 0 01-.007.061c-.01.042-.024.054-.046.039-.012-.008-.016-.009-.029-.002-.017.01-.028.01-.053 0a.997.997 0 00-.048-.015c-.017-.005-.03-.01-.03-.014-.001-.002-.007-.007-.014-.009-.019-.006-.042.009-.042.027a.054.054 0 01-.006.023c-.006.01-.01.01-.03-.003a.114.114 0 00-.035-.012.02.02 0 01-.017-.012c-.006-.012-.042-.03-.049-.024-.004.003-.05-.021-.05-.026 0 0 .005-.01.012-.016.01-.01.01-.014.005-.023-.005-.008-.005-.012 0-.022.007-.01.007-.01 0-.006-.005.002-.01.001-.01-.003.001-.004-.006-.006-.017-.003a.953.953 0 01-.072.008c-.038.003-.088.01-.114.037-.006.006-.055.003-.06-.005-.005-.01-.01-.007-.018.014a.076.076 0 01-.027.032c-.022.014-.046.05-.045.07 0 .017-.016.038-.045.056a.204.204 0 00-.056.07.06.06 0 01-.012.021.398.398 0 00-.027.042c-.014.026-.015.03-.01.04.005.011.005.024-.001.063a.2.2 0 01-.026.07c-.004.002-.005.007-.002.017a.078.078 0 01.001.033c-.004.014-.002.018.007.022.006.002.01.006.01.01l.015.032a.115.115 0 01.015.04c.002.028.045.06.068.083.013.012.016.013.066 0a.103.103 0 01.047 0c.017.005.028.003.056-.01.028-.014.072-.032.102-.014.008.007.014.015.014.02 0 .017.01.023.039.018.023-.003.027-.001.043.013.01.01.016.02.014.026a.181.181 0 00-.004.041.109.109 0 01-.007.038c-.007.01.004.03.038.065.029.033.053.075.06.12l.01.043c.004.018.002.025-.007.036a.153.153 0 00-.024.085c.004.031.03.065.05.091a.136.136 0 01.015.048c.006.038.016.062.029.073.012.009.043.068.04.075-.006.008.007.029.02.034a.023.023 0 00.023 0 .112.112 0 01.04-.01c.046-.003.092-.02.121-.062a.714.714 0 01.03-.035.063.063 0 00.019-.041c.004-.024.004-.026.027-.037.022-.011.023-.013.025-.032a.163.163 0 00-.001-.043c-.003-.019-.003-.02.008-.03a.201.201 0 00.027-.025.091.091 0 01.03-.024.094.094 0 00.03-.021c.011-.014.013-.02.017-.065.004-.037.003-.051-.002-.056-.004-.004-.007-.018-.006-.034 0-.015-.001-.034-.004-.041-.003-.01 0-.02.013-.045a.295.295 0 01.032-.05 2.47 2.47 0 00.045-.05.254.254 0 01.043-.044.187.187 0 00.064-.11.471.471 0 01.012-.047.151.151 0 00.001-.038c-.002-.03-.003-.031-.01-.026a1.943 1.943 0 01-.103.033l-.015-.017c-.009-.01-.012-.018-.009-.02.007-.003-.029-.045-.056-.066a.078.078 0 01-.03-.042.107.107 0 00-.022-.039c-.01-.01-.017-.023-.022-.045a.11.11 0 00-.021-.048.088.088 0 01-.017-.028.182.182 0 00-.015-.036 1.999 1.999 0 00-.045-.09c-.007-.01-.011-.02-.009-.02s.01.01.016.021c.015.027.026.032.024.011-.001-.01 0-.012.002-.005a.649.649 0 00.027.044.235.235 0 01.024.041c0 .004.007.012.013.018a.098.098 0 01.03.06c.002.01.01.022.022.034.01.009.02.02.02.025.001.004.01.02.02.034.01.014.02.032.02.04.004.025.022.073.029.077.003.001.011-.002.018-.007a.04.04 0 01.018-.01.043.043 0 00.017-.006l.012-.004s.008-.004.013-.01a.117.117 0 01.027-.02.059.059 0 00.024-.023.037.037 0 01.024-.02c.01-.002.017-.007.016-.012 0-.006.002-.01.007-.01s.008-.003.007-.006c0-.004.003-.01.008-.014s.008-.01.006-.012c-.005-.007-.002-.025.003-.025.003 0 .007-.01.01-.02l.005-.021a.563.563 0 00-.012-.015.06.06 0 00-.024-.018c-.015-.005-.022-.015-.028-.037l-.005-.018-.01.021c-.02.036-.057.035-.057 0 0-.02-.011-.026-.012-.008-.001.014-.002.013-.012-.01a.078.078 0 00-.016-.029.095.095 0 01-.02-.029c-.013-.024-.013-.024-.006-.032.014-.012.025-.007.039.02.014.023.046.06.076.054.004-.003.008-.004.01-.002s.003 0 .002-.003c-.003-.014.007-.009.014.008a.075.075 0 00.01.019c.033.012.085.02.119.008.001-.002.01.006.02.018.021.028.04.045.045.04.001-.002.003 0 .004.003 0 .003-.002.006-.006.006-.009 0-.008.002.007.02.018.022.03.02.03-.003 0-.013 0-.013.008.004.004.01.008.02.008.024.007.04.024.08.042.117a.258.258 0 01.016.035l.017.034a.53.53 0 01.023.047c.013.033.02.033.03.004a.192.192 0 00-.007-.106c-.006-.025-.007-.03-.002-.033.004-.002.006-.006.005-.009 0-.003.003-.005.003-.005.003 0 .012-.02.02-.054.004-.01.008-.02.01-.02.006 0 .01-.012.006-.025a.017.017 0 010-.012l.015-.003a.063.063 0 01.013-.003c.003 0 .004-.006.003-.012-.003-.016.007-.006.02.019a.098.098 0 00.02.029c.005.004.009.01.009.015 0 .005.004.01.004.01.005 0 .017.03.017.044 0 .01.002.014.006.016.01.006.012.004.016-.011l.004-.015.01.025h-.002zm-.137.165c-.013-.025-.017-.027-.017-.013 0 .015.009.052.015.06.004.008.006.008.012.002.009-.01.007-.02-.01-.05zm-.233 1.36s.004 0 .005-.002c.002-.001 0-.002-.002 0a.005.005 0 00-.003.002zm-.167-1.432c.002.004.006.005.008.003.005-.006.003-.01-.005-.01-.004 0-.005.004-.003.007zm-.02.7c.001 0 .003-.002.002-.005 0-.003-.003-.005-.003-.005l-.003.006c0 .003.001.005.003.004zm-.014.576c-.003.008.006.007.015 0 .004-.004.003-.006-.004-.006-.006 0-.01.002-.011.006zm-.161-.569c-.011.015-.013.022-.013.042-.002.034.007.045.029.038a.062.062 0 00.02-.008c.024-.035.042-.092.06-.14a.132.132 0 01.006-.015.033.033 0 00.004-.017c0-.01 0-.01.006-.009.006.003.006 0 .007-.018 0-.019-.005-.051-.009-.051l-.004.004c-.002.002-.005.008-.006.013a.042.042 0 01-.01.019.194.194 0 00-.018.022.072.072 0 01-.027.02c-.027.012-.038.03-.035.06.002.02 0 .025-.01.04zm-.678 1.055c.003 0 .004-.003.003-.006 0-.004-.002-.007-.002-.007l-.003.006c0 .004 0 .007.002.007zm-.165.032c0 .002.004.005.004.005s.002-.002 0-.005a.02.02 0 00-.003-.004v.004zm1.319-.243c-.012.005-.015.006-.018.004l-.01.002H6.54c.002-.004 0-.003-.004 0l-.008.006c-.003.002-.005.001-.005.001s0-.002-.003 0c-.01.001-.016 0-.013-.004.001-.002 0-.002-.001-.001a.159.159 0 01-.027.007l-.02.004c-.002 0-.001 0 .003-.006s.005-.007.003-.007l-.008.008c-.004.007-.006.008-.017.012a.046.046 0 00-.019.011c-.008.008-.016.01-.016.005 0-.002-.002-.002-.004 0a.255.255 0 01-.052.021c-.011.003-.022.003-.024-.001-.002-.004-.018.003-.027.012-.006.005-.009.006-.03.007-.02 0-.025 0-.035.007a.039.039 0 00-.007.005h-.001a.037.037 0 01-.013.01.157.157 0 00-.055.022.097.097 0 00-.02.012.212.212 0 01-.034.019.103.103 0 00-.024.013.015.015 0 01-.006.004l-.01.008c-.01.012-.027.023-.033.021-.004-.001.002-.012.008-.014l.01-.007c.005-.006.005-.006 0-.004-.006.004-.01.002-.006-.003a.014.014 0 01.006-.005.07.07 0 00.023-.022c0-.002-.008-.004-.022-.003a.237.237 0 01-.072-.002l-.004-.007c-.009-.008-.05.002-.053.014-.001.003-.004.004-.01.004s-.008 0-.009.004c0 .004-.002.005-.01.003-.004 0-.013.001-.019.003a.106.106 0 01-.018.008.106.106 0 00-.041.019c-.007.007-.02.01-.02.005 0-.002-.002-.002-.005 0-.003.001-.008-.001-.012-.006-.006-.008-.009-.008-.014-.004-.013.01-.023.015-.058.022a.213.213 0 01-.06.003.22.22 0 00-.081 0c-.002.004-.007.004-.012.002a.243.243 0 00-.078-.001.096.096 0 01-.053.005c-.015-.002-.027-.006-.026-.008.002-.007-.01-.004-.017.004-.006.007-.007.008-.012 0-.005-.007-.007-.008-.015-.004-.005.002-.011.003-.014.001-.005-.002-.005-.002 0 .004.005.007.005.007-.001.01a.03.03 0 01-.012.004c-.003 0-.006 0-.007.003-.001.002-.006.003-.01.004-.006 0-.01.002-.01.006-.001.004.001.005.01.004.01-.001.009 0-.006.007-.01.004-.017.01-.018.012 0 .002-.007.003-.017.002-.032-.005-.136-.003-.14.015 0 0 .033.02.037.018h.02c.015.002.015.002.01.006a.054.054 0 00-.007.005c.003 0 .005 0 .009.002.004 0 .009.005.009.005l-.008.003a1.785 1.785 0 001.379-.32zm-1.495-.18a.035.035 0 00-.013-.006c-.01-.004-.01-.003 0 .003.01.009.018.01.013.004zm-.022.453a.037.037 0 01-.007-.012c-.002-.009-.03-.019-.047-.017-.006 0-.01.005-.012.01 0 .006-.005.009-.015.008h-.008c.024.008.049.016.073.022h.017c.005-.002.005-.003 0-.01zm-.094-2.927c.005-.002.008-.001.008 0-.001.004 0 .006.003.006s.004.003.003.005c0 .003.003.006.008.006.007 0 .012-.004.022-.02a.086.086 0 00.013-.027c0-.004.006-.01.015-.017.016-.01.02-.018.015-.022-.002-.002 0-.004.003-.004.006 0 .007-.003.006-.01-.001-.006.001-.009.014-.012a.066.066 0 00.025-.015c.008-.009.008-.008.003.002-.005.009-.004.01.003.004a.106.106 0 01.023-.01.085.085 0 00.03-.02c.007-.007-.05-.013-.049-.013.003 0 .071-.005.071-.01 0-.007.002-.008.006-.003.006.009.05-.001.087-.019.023-.01.025-.013.02-.017a.065.065 0 00-.022-.005c-.007-.002-.01-.003-.005-.005.006-.001.008-.005.008-.012s.002-.008.007-.004c.004.002.008.007.008.01.001.007.028.01.03.004.001-.01-.01-.028-.02-.031-.01-.005-.017-.022-.008-.022.003 0 .005.003.004.006-.001.006.016.018.02.014.007-.005.005-.012-.006-.019-.007-.004-.01-.009-.01-.01.002-.002.007 0 .012.003.01.006.032.002.034-.008 0-.003.004-.007.01-.01.004 0 .006-.001.01-.003h-.01c-.012-.001-.012-.013 0-.013.004 0 .008-.003.008-.003.002-.009-.006-.02-.014-.02-.017 0-.014-.009.002-.01l.002.003.004-.004c.01 0 .015.002.014.005 0 .004.001.004.005-.001.008-.01.006-.014-.005-.015-.006 0-.01-.003-.01-.007-.002-.004-.005-.005-.01-.003l-.007.004.009-.012c.005-.007.01-.012.013-.012.003 0 .007-.004.008-.008.003-.005.007-.009.01-.009.005 0 .011-.002.014-.005a.125.125 0 01.042-.024.457.457 0 01.019-.007l-.019-.005a.049.049 0 00-.033.002.049.049 0 01-.023.004c-.005-.002-.016 0-.024.005a.053.053 0 01-.015.004l.002-.002.01-.01c.007-.007.006-.008-.011-.005-.012.002-.018.001-.016-.002.002-.003.01-.006.017-.006.008 0 .016-.003.017-.006.002-.003-.002-.005-.01-.005a.283.283 0 00-.13-.007c-.011.001-.02.005-.022.008 0 .002-.018.005-.038.005-.023.001-.034.003-.028.005.008.003.012.01.006.01-.002 0-.003.003-.004.006 0 .007-.001.007-.025 0-.026-.008-.03-.007-.03.003s-.004.01-.015.005c-.005-.004-.008-.003-.011.001-.003.005-.005.004-.007 0-.003-.008-.07.01-.073.02-.002.004-.006.006-.015.008a.137.137 0 00-.053.024c-.002.002.001.003.007.002.006 0 .01 0 .009.004-.003.006-.01.01-.033.017-.04.013-.05.017-.052.02-.003.006.025.013.03.008.003-.002.003 0 .002.002-.002.003-.01.007-.017.008-.012.003-.013.003-.008.005a.02.02 0 01.008.008c.002.004.014.003.036-.002.035-.007.06-.003.06.01 0 .004.002.006.005.006.002 0 .005.01.006.02.002.018.001.023-.004.029-.014.014-.013.019.001.014.01-.002.017-.001.022.004.007.009.007.023 0 .017-.002-.002-.008-.003-.014-.003s-.009-.001-.006-.005c.002-.003.001-.004-.002-.002s-.006.006-.006.009c0 .003-.004.005-.004.005l-.006.008c-.004.01.004.015.016.01l.009-.004-.004-.008c-.004-.007-.004-.007.005-.004.005.001.008.006.008.009 0 .002.002.002.005-.002.006-.006.005-.004-.002.008-.006.01-.012.016-.016.016s-.013.007-.02.014c-.012.011-.014.014-.012.02.002.005.002.007-.002.01-.004.002-.004.007-.001.015a.043.043 0 010 .021c-.004.01-.004.01.01.001.012-.006.012-.006.001.006-.01.013-.01.013-.004.04.006.028.013.035.028.03zm-.058 2.896l-.002-.005c-.004-.004-.012-.006-.012-.002H4.89l.015.007zm-.059-.222c-.002 0-.003 0-.003.003l.006.005c.002 0 .004-.001.003-.003 0-.003-.003-.005-.006-.005zm.028.127l-.01-.007c-.005-.004-.009-.01-.009-.01l-.002-.003s-.004-.005-.005-.01c-.001-.007-.004-.01-.009-.013-.004-.002-.007-.005-.007-.007 0-.005-.024-.027-.03-.027-.004 0-.007-.003-.01-.01-.004-.005-.005-.01-.005-.01.007-.01.012-.012.017-.01.003.003.005 0 .005-.003 0-.009.013-.016.023-.013.004 0 .006 0 .006-.003-.001-.002.002-.004.007-.005l.008-.002a.083.083 0 01-.01-.002h-.01l-.009.003a.09.09 0 00-.034.01.05.05 0 01-.014.01c-.006.003-.01.008-.01.01.002.003.006.004.006.004.002 0 .003.002.006.011.003.01.002.012-.004.01-.01-.003-.01-.005.012.026a.252.252 0 01.012.017c.003.006-.008.008-.033.004s-.028-.006-.033-.013c-.006-.007-.008-.008-.011-.006-.002.002-.003.003-.001.004 0 0 .004.003.005.006s-.001.002-.009-.002l-.018-.01a.102.102 0 01-.015-.007c-.006-.004-.009-.004-.01 0 0 .004-.004.003-.02-.004a.104.104 0 01-.022-.012.04.04 0 00-.014-.006.044.044 0 01-.015-.008.45.45 0 01-.126-.048l.016.01c.008.003.015.007.016.009 0 .002-.004 0-.011-.003-.007-.003-.01-.005-.008-.003a.046.046 0 01.01.009.061.061 0 00.007.005l.006.004a1.75 1.75 0 00.222.126.061.061 0 00-.018-.01c-.007-.003-.014-.006-.016-.01-.002-.002 0-.002.008.002a.22.22 0 00.061.023c.002-.001-.003-.005-.013-.009-.018-.008-.043-.026-.04-.03 0 0 .012.004.023.01a.135.135 0 00.06.02l.029.003c.013 0 .02 0 .02-.004 0-.003.003-.004.005-.002s.006 0 .009-.004c.002-.005.002-.009 0-.01-.003 0-.006-.004-.006-.004 0-.002.003-.002.008 0l.01.004zm-.067.048a.027.027 0 00-.012.003l.014.006.01-.001c.012-.004.006-.007-.012-.008zm-.303-.183l-.015-.006a.043.043 0 01.008.007s.003.004.006.005a.54.54 0 01.02.006c.022.008.005-.003-.02-.012zm.004-.431c-.002 0-.004.001-.003.004l.005.006c.003 0 .004-.002.003-.005s-.003-.005-.005-.005zm.073.467a.016.016 0 00-.005-.004v.003a.029.029 0 00.004.005v-.004zm.024-.3c-.003-.001-.005.002-.005.005 0 .006.001.007.006.003.006-.004.006-.007-.001-.009zm.021.003c-.004 0-.009.002-.01.006-.002.006-.002.007.006.005.011-.003.014-.01.004-.01zm.066.332c-.005-.001-.007 0-.005.002a.023.023 0 00.008.006c.003 0 .005-.002.005-.002 0-.002-.003-.004-.008-.006zm.067-.039c.002-.001.003-.004.002-.006-.002-.006-.005-.006-.007-.001-.002.006 0 .01.005.008zm-.052.016c.002.002.005 0 .005 0l-.004-.002c-.004-.001-.004 0-.001.002zm-.004.01l.01.004c.015.002.015 0 .001-.004-.005-.002-.01 0-.01 0zm.05.03c-.01.002-.009.003.008.007.03.007.03-.002.003-.033-.017-.018-.02-.02-.028-.02-.003 0-.003.004 0 .01.003.004.003.01.003.01-.002.002 0 .003.005.005.011.003.01.006-.002.005l-.015-.002h-.008c-.003-.002-.003 0 0 .004.005.004.008.005.015.004.006 0 .012.002.015.004.006.005.006.005.003.006zm.034-.087c-.002.002-.002.003.003.004.002 0 .004 0 .003-.003-.002-.005-.002-.005-.006-.001zm-.496-1.71c-.002.006.032.015.038.01a.058.058 0 01.02-.003c.009 0 .017-.003.017-.003l-.008-.016c-.01-.015-.044-.023-.041-.01.002.015-.005.026-.015.022-.005-.002-.01-.001-.01 0zm.004-.133c.002 0 .005-.004.006-.007s.001-.006-.001-.006l-.006.006c-.001.003.001.007.001.007zm-.033.137c-.004-.009-.018-.01-.019-.002 0 .004.005.007.011.008.008 0 .01-.001.008-.006zm.008-.047c-.004.007-.002.01.012.01.017.002.03-.007.02-.015a.129.129 0 01-.015-.017c-.032-.042-.04-.048-.06-.04a.058.058 0 00-.02.014c-.008.008-.008.009 0 .005a.046.046 0 00.016-.009c.006-.007.016-.006.014.002-.001.003 0 .006.005.007.004 0 .008.003.008.006 0 .004.003.007.007.007s.007.005.006.01c0 .005.002.01.006.01.005 0 .005.004.001.01zm.12.052c-.005 0-.01.002-.011.005-.002.004.002.007.007.008.005 0 .01-.003.011-.006.001-.004-.002-.007-.007-.007zm.018.178c-.002 0-.005.002-.006.006-.001.003.002.007.002.007.002 0 .005-.003.006-.006.001-.004 0-.006-.002-.007zm.26-.797a.046.046 0 01-.01-.009c-.002-.002-.002 0 0 .006 0 .005.005.01.01.009.005 0 .005-.002 0-.006zm.036-.065c-.003-.01-.017-.013-.015-.003 0 .002.005.006.009.009.008.003.008.003.006-.006zm.096 0c-.009.002-.013 0-.015-.006 0-.005-.004-.008-.007-.005-.006.005.002-.008.017-.025.016-.018 0-.013-.017.006a.183.183 0 00-.022.028.053.053 0 01-.01.012s-.005.004-.007.009c-.002.005-.008.01-.008.01s-.004.002-.005.005c-.002.004.008.006.024.005.022 0 .026 0 .02.007-.013.015 0 .008.02-.012.01-.01.016-.016.012-.014-.005.003-.004 0 .002-.01.007-.013.007-.014-.004-.01zm.002.035c.007-.01.002-.007-.01.006-.01.01-.01.012-.005.016.002.002.007 0 .01-.004.003-.005.003-.01.003-.01-.001-.002 0-.005.002-.008zm-.27-.111a.014.014 0 00-.007.003s0 .003.002.005c.001.002.004 0 .005-.002.002-.004.001-.006 0-.006zm.051-.066c-.002 0-.005.003-.007.006-.001.003 0 .004.004.002l.007-.006s-.001-.002-.004-.002zm.035-.129a.018.018 0 00-.011.006c-.003.004-.002.006.002.005a.02.02 0 00.012-.006c.002-.003.001-.006-.003-.005zm.025.008c-.002 0-.006.003-.009.007-.002.002-.003.005 0 .005.002 0 .006-.003.008-.006.003-.004.003-.006 0-.006zm.005-.027c.002-.003 0-.005-.003-.005s-.004-.002-.002-.005c.002-.004-.007-.014-.017-.016-.002 0-.001-.004.001-.008l.003-.005-.007.004a.066.066 0 00-.015.017.152.152 0 01-.019.023c-.008.008-.008.008 0 .004.004-.002.008-.001.008.002 0 .005.003.005.015-.004.012-.01.015-.01.02-.006.007.007.012.006.016 0zm.023.004c-.003 0-.004.003-.004.003.002.002.004 0 .006 0 .002-.003.001-.004-.002-.003zm.053-.114l-.007.008s.007-.004.01-.009c.01-.01.01-.01-.003.001zm.027.024h.007c.002-.002.001-.003-.002-.003-.004 0-.005.003-.005.003zm.001-.014l-.012.006c-.015.005-.028.024-.016.023.01-.001.016-.006.024-.02l.004-.009zm-.657.375l.009-.014c.005-.01.006-.012.003-.012a.012.012 0 00-.007.006c-.002.003-.005.02-.005.02zm-.035-.072c.005-.004.005-.005.003-.005 0 0-.005.003-.006.006a.049.049 0 01-.01.01c-.01.005-.013.013-.005.008.006-.004.017-.014.014-.014 0 0 0-.002.004-.005zm.415 2.211c0-.007.001-.012.005-.011.004 0 .005.002.004.007-.002.005-.001.007.003.008.006.001.006.002.003.008-.002.004-.006.007-.006.007s-.003 0-.003.002c0 0 .003.004.01.006.006.001.01.004.01.006 0 .003.004.006.009.007.006.001.008 0 .005-.005-.004-.005-.004-.005.002 0a.033.033 0 00.022.007c.015.001.02-.006.006-.008a.098.098 0 01-.04-.031c0-.003-.005-.008-.01-.011-.007-.005-.009-.006-.004-.005.005 0 .005-.001-.001-.012-.009-.015-.01-.022-.002-.02.004 0 .006-.004.005-.01a.02.02 0 01.008-.016c.01-.006.009-.02-.002-.023-.018-.003-.027-.032-.011-.034.004 0 .008-.004.008-.008a.09.09 0 000-.029c-.001-.002 0-.004.002-.003.004 0 .004 0 0-.004a.056.056 0 01-.011-.016c-.006-.011-.005-.012.012-.006.016.006.018.006.018-.006a.048.048 0 00-.003-.02c-.003-.004 0-.006.011-.004.027.004.041 0 .047-.012.007-.013.007-.025 0-.026-.003 0-.006-.006-.007-.011a.036.036 0 00-.011-.017c-.006-.004-.01-.01-.011-.013 0-.003.001-.003.005.002.005.004.018.01.03.013.02.006.023.005.031-.006a.078.078 0 00.012-.031c.003-.022.01-.037.014-.033.001.003.002.007 0 .011 0 .003 0 .002.003-.003a1.12 1.12 0 01.012-.025.064.064 0 00.005-.041c-.003-.014-.002-.03.001-.035.008-.014.052-.036.069-.035.013.002.03-.01.028-.02l.007-.025a.103.103 0 00.006-.024l.001-.024a.294.294 0 000-.058c-.004-.026-.003-.038.003-.047.018-.028.04-.059.05-.092a.139.139 0 00-.007-.042c-.007-.021-.01-.027-.02-.028a.119.119 0 01-.04-.03c-.024-.024-.034-.03-.051-.032a.075.075 0 01-.03-.01c-.007-.004-.015-.006-.021-.003-.01.005-.01.003-.012-.008 0-.011-.007-.017-.03-.03a1.948 1.948 0 00-.027-.017l-.009.018c-.005.01-.01.015-.013.013-.002-.003 0-.01.005-.017.01-.013.007-.024-.01-.03-.009-.004-.013-.002-.018.011-.006.015-.007.015-.009.004 0-.008.003-.022.009-.032.009-.016.01-.019.001-.028a.108.108 0 01-.014-.03c-.004-.012-.013-.033-.02-.046-.01-.02-.015-.024-.04-.03-.026-.006-.029-.008-.04-.036-.007-.02-.014-.03-.02-.031-.01-.001-.01-.004-.005-.014s.004-.013-.003-.017c-.005-.003-.01-.01-.01-.016 0-.009-.003-.01-.02-.003-.012.005-.02.005-.022-.001-.003-.004-.01-.006-.016-.006-.008.001-.013-.002-.015-.012-.001-.008-.005-.014-.008-.014a.006.006 0 01-.005-.006c0-.002 0 0-.002.003 0 .005-.004.008-.007.008-.004 0-.01.002-.013.006-.01.01-.01-.001 0-.015.012-.018.009-.02-.008-.007-.008.006-.017.011-.02.01a.013.013 0 00-.009.004c-.002.003-.006.005-.008.005l-.006.001s-.005.004-.007.009a.117.117 0 01-.017.026c-.015.018-.015.018-.019.006-.005-.02-.013-.024-.029-.015-.012.008-.014.008-.019 0a.075.075 0 01-.006-.026c-.001-.016 0-.021.015-.058.016-.037.017-.041.015-.052-.002-.009-.007-.012-.023-.013-.03-.002-.03-.002-.022-.01a.157.157 0 00.014-.03c.005-.012.01-.02.01-.018 0 .002.005-.005.009-.014a.297.297 0 01.015-.026c.013-.021.012-.025-.005-.022-.02.002-.028.01-.035.029-.005.014-.023.035-.025.029 0 0-.007-.001-.013.001-.018.008-.025-.005-.021-.04a.173.173 0 01.017-.068.216.216 0 01.02-.04.061.061 0 00.009-.02c.007-.021.025-.048.032-.048.003 0 .009-.004.014-.01.01-.01.03-.011.048 0 .01.004.01.004.014-.01.004-.012.006-.013.022-.012.01 0 .02.004.02.009.002.006.005.006.011.002.01-.007.015.018.006.034a.057.057 0 00-.006.026c0 .008 0 .017-.002.02-.002.006 0 .022.004.022 0 0 .007-.006.012-.015a.28.28 0 00.02-.076.148.148 0 01.006-.026c.005-.012.023-.038.027-.037 0 0 .01-.007.017-.016.008-.008.016-.015.018-.015 0 0 .008-.004.012-.009.004-.005.01-.009.014-.009s.007-.003.008-.01c.001-.006.003-.009.004-.006.001.002.004.002.007-.002.002-.003.002-.006 0-.006s-.002-.003.003-.008.007-.012.007-.015c0-.009.009-.036.016-.044.004-.006.004-.002-.001.012-.006.018-.006.02.001.01a.072.072 0 00.01-.021c.002-.006.005-.009.009-.009.004 0 .01-.005.015-.015.007-.012.011-.015.017-.015.006 0 .009-.002.007-.006-.002-.003.004-.007.017-.01.015-.003.019-.005.018-.011 0-.015.019-.039.038-.047l.027-.015a.087.087 0 01.013-.008l.016-.005c.01-.004.011-.004.001.005-.006.006-.014.01-.014.01-.004 0-.01.018-.008.022 0 .002.008 0 .016-.007a.09.09 0 01.02-.013c.014-.003.039-.02.042-.028.003-.006.003-.006.003 0 0 .005.002.005.007.002.005-.005.006-.006.003-.006-.002 0-.002-.006 0-.012.004-.008.002-.008-.01.005-.01.013-.016.016-.025.014-.014-.002-.02-.017-.014-.033.004-.008.003-.012-.001-.013-.006 0-.005-.002.004-.005a.028.028 0 00.016-.013c.002-.006 0-.009-.014-.008-.017.001-.038.013-.062.036-.01.01-.01.008.005-.008a.255.255 0 01.058-.048c.01-.007.019-.008.044-.006.028.003.034.002.048-.01a.17.17 0 01.034-.018c.015-.006.018-.009.024-.024.006-.015.006-.018-.003-.025-.007-.005-.008-.01-.003-.013.004-.004.005-.005.002-.006-.004 0-.009-.003-.009-.005l-.008-.002c-.003-.002-.007-.005-.006-.007a.026.026 0 00-.004-.012.02.02 0 01.001-.016.127.127 0 00.002-.043l-.002-.034-.016.019c-.02.021-.037.03-.039.02 0-.004-.004-.005-.007-.004-.006.002-.006 0 .003-.02.01-.02.01-.02.002-.024-.006-.002-.009-.005-.008-.007.004-.008-.006-.018-.018-.016a.06.06 0 01-.02-.002c-.005-.001-.011 0-.013.002a.164.164 0 00-.014.03.09.09 0 01-.02.035c-.01.012-.01.012-.007.018.005.007-.001.027-.012.043a.102.102 0 01-.025.021l-.018.012-.007.022c-.01.031-.013.037-.025.045-.009.005-.01.003-.012-.012a.057.057 0 010-.025c.02-.039.02-.04.005-.039-.009.001-.015-.001-.014-.004 0-.003-.002-.005-.005-.005s-.007-.005-.01-.011c-.003-.007-.01-.012-.02-.011-.01 0-.012-.002-.009-.014.003-.008.002-.015-.001-.016-.007-.003-.002-.013.02-.04.018-.022.043-.044.051-.045.003 0 .007-.003.007-.005.002-.007.017-.018.026-.02.009 0 .053-.044.05-.049h.007c.005 0 .01.004.01.007 0 .004 0 .003.002-.002a.014.014 0 01.012-.01.06.06 0 00.018-.01.172.172 0 01.01-.006l-.001-.008c-.002-.008.001-.017.005-.016 0 0 .005-.001.007-.005.003-.003 0-.008-.003-.012l-.01-.006s.01-.003.024-.003c.02-.002.026-.004.028-.01.003-.008.005-.008.01 0 .003.005.003.01.001.013-.002.002 0 .002.005 0 .004-.001.007 0 .005.002-.001.003.002.008.008.01.015.01.008.03-.016.043-.006.003-.009.006-.01.011 0 .006-.002.008-.012.01-.007.004-.015.005-.017.003-.005-.003-.018.007-.023.017-.002.003.007.003.021.001.017-.003.024-.003.025.003.001.004.004.007.006.007.003 0 .004.002.002.004-.006.007.001.02.008.015.003-.003.005-.002.006 0 0 .004.005.008.01.01l.012.006c.008.005.01-.01.001-.021-.011-.015-.005-.02.008-.006.01.009.012.01.02 0 .006-.008.008-.012.007-.023 0-.007-.001-.012-.004-.012-.002 0-.005-.004-.007-.009-.002-.008-.002-.009.007-.017.01-.009.013-.006.018.011.002.011.011.013.016.003.002-.004.005-.005.005-.005s.008-.003.016-.011l.014-.014-.012-.002c-.005-.002-.01-.005-.01-.009.001-.003-.003-.006-.009-.008-.022-.004-.027-.02-.008-.024.005 0 .005-.002 0-.005-.005-.002-.005-.004 0-.004a.01.01 0 00.009-.007c0-.004-.003-.005-.008-.002s-.007.002-.003-.002c.004-.006.002-.007-.009-.006-.003 0-.005-.001-.004-.004.004-.007-.01-.013-.017-.007-.003.004-.007.001-.01-.007-.001-.006-.005-.012-.008-.012-.004 0-.004-.001-.002-.004.007-.008-.005-.014-.019-.012-.009.001-.014.003-.016.008-.003.005-.004.005-.002 0 .001-.006-.003-.006-.016-.001-.021.007-.03.014-.036.027-.003.006-.002.01-.002.01.003 0 .003.002.001.005-.004.007-.005.007-.009 0-.001-.002 0-.008.002-.012l.006-.01a.054.054 0 01.011-.012c.01-.007.01-.007-.002-.005-.015.002-.027.01-.042.028-.013.014-.013.015-.014.025 0 .008.004.012.017.013.008 0 .013.003.01.004-.006.003-.013.013-.008.012 0 0-.002.005-.01.012a.048.048 0 01-.014.01c-.001-.002-.003 0-.006.006-.006.012-.012.014-.012.006-.001-.006 0-.008.006-.013.005-.005.006-.007.003-.012-.003-.004-.005-.003-.013.004-.013.013-.014.013-.008 0 .004-.007.003-.01-.002-.009-.006 0-.004-.006.004-.01.004-.004.003-.029-.002-.028 0 0 .002-.004.009-.01.007-.008.013-.012.015-.01a.099.099 0 00.034-.025c.003-.004-.04.006-.046.012a.027.027 0 00-.01.015c-.005.014-.009.02-.019.026a.046.046 0 00-.015.017c-.006.01-.004.016.008.017 0 0 0 .002-.004.005-.002.003-.002.005 0 .005.006-.001-.004.01-.015.014a.025.025 0 00-.013.014c-.004.008-.006.01-.008.008-.002-.001-.002-.005 0-.008.003-.004.005-.009.004-.012 0-.004.002-.006.002-.006l.009-.001c.005-.002.005-.002.004-.008 0-.011-.008-.011-.02-.002-.01.008-.012.01-.008.009.007-.001.006.003-.004.014-.012.011-.05.014-.053.005-.002-.008-.025 0-.028.007 0 .002.005.001.011-.003a.034.034 0 01.013-.004l-.012.007a.03.03 0 00-.015.015.052.052 0 01-.01.013c-.002.002-.001 0 .001-.004.007-.011-.004-.013-.03-.006-.014.004-.019.004-.016 0a.03.03 0 01.01-.007c.01-.003.003-.008-.008-.005-.005 0-.015 0-.02-.002a.024.024 0 00-.02.002c-.006.003-.01.003-.01 0 .001-.003 0-.003-.004.002-.01.009-.012.009-.01 0 0-.006 0-.007-.006-.001a.068.068 0 01-.018.01.16.16 0 00-.046.025c-.006.006-.01.007-.015.005-.012-.003-.002-.013-.027-.004l-.011.002-.01.001a.039.039 0 01-.007.002l-.007.003-.012.01a.295.295 0 00-.021.015c-.016.017-.03.035-.045.054l.003-.003c.004-.004 0 .004-.006.011a.018.018 0 01-.007.004l-.018.023.007-.005c.005-.004.006-.003.001.003a.486.486 0 00-.007.01.078.078 0 01-.017.013l-.038.055c.002-.001.001.001-.003.008-.006.009-.006.01 0 .006.004-.003.007-.003.007 0 0 0 0 .002.002 0a.02.02 0 01.007-.006c.005-.002.004-.001-.005.01a.213.213 0 01-.023.025.372.372 0 00-.018.017c-.002.003-.004.003-.004.003s-.002 0-.005.003l-.005.007a.23.23 0 01.01-.008.16.16 0 00.02-.016l.015-.012.005-.004a.384.384 0 00.031-.029c.007-.006.007-.007.005-.006-.005.001.003-.009.01-.013a.064.064 0 00.008-.008.111.111 0 01.027-.024c.004 0 .003 0-.001.003-.006.004-.025.024-.022.023l-.003.005c-.01.01 0 .005.01-.005a.08.08 0 01.013-.01c.003-.001.005-.003.008-.008.005-.009.007-.01.009-.005 0 .003-.002.007.006.007.003 0-.003.013-.003.018 0 .007.004.007.011-.002l-.003.005c-.008.01-.018.035-.015.034 0 0 .015-.026.015-.03 0-.002.004-.004.004-.004l.005-.007c.001-.004.002-.004 0 0a.034.034 0 01-.004.01l-.006.01v.005l.006-.008c.002-.005.005-.006.005-.006.001.002-.008.018-.012.019-.002 0-.005.003-.007.006-.001.002-.001.003.001.002.002-.002.001.001-.001.007a.066.066 0 00-.007.018c0 .004.001.003.006-.005l.004-.008c-.002.002-.002-.001 0-.006.003-.01.003-.01.007-.01.003-.001.003 0 .001.002-.004.005-.007.026-.002.023l-.008.015c-.012.019-.013.023 0 .01.005-.006.005-.005-.003.006-.007.01-.008.012-.004.009.004-.003.004 0 0 .007l-.005.012c-.005.008-.006.013-.002.012.003 0 .003.002.001.005-.002.005-.005.004-.009-.002l-.004.002c-.004.007.004.041.009.038.002-.002.004-.007.003-.012-.001-.01.003-.022.007-.023l-.001.005v.007c.004.003.003.011-.003.025-.004.01-.006.01-.014.002-.001-.002-.002-.002-.006.011a.25.25 0 01-.026.049c-.019.032-.039.065-.053.1l-.003.01c-.007.012-.01.03-.005.027.002-.003.002 0-.002.004a.107.107 0 00-.01.032.233.233 0 01-.007.028c0 .002 0 .006.004.008.008.004.008.015-.003.054a.27.27 0 00-.008.049c0 .013 0 .015-.007.021-.007.008-.008.005 0 .034 0 .006-.001.014-.003.02-.005.01-.003.05.001.045.004-.004.007-.02.004-.022-.002-.002 0-.013.003-.025l.006-.026.003-.029a.313.313 0 00.003-.031c0-.003.003-.014.007-.024.007-.019.007-.019.011-.013.003.004.002.013-.002.027a.228.228 0 00-.006.05L4 26.574v.034c0 .035-.002.061-.011.076a.06.06 0 00-.007.016c-.001.01.005.036.01.041a.045.045 0 01.008.012.127.127 0 00.017.026c.013.017.015.018.026.01.013-.008.016-.004.02.024.003.017.022.039.036.04.004 0 .006.003.005.006a.068.068 0 00.001.023.08.08 0 010 .032c-.003.008-.002.014-.002.014.01.004.015.015.012.024-.003.009-.002.009.008.013.004 0 .009.007.011.013.006.013.014.015.015.004 0-.011.018-.03.02-.024a.132.132 0 01.003.03c-.001.027-.009.107-.02.111 0 0-.004.007-.005.016 0 .01-.001.017-.004.016-.005 0-.011.05-.008.067.002.008.005.013.008.014.008 0 .008.015 0 .025-.009.013-.003.047.013.069a.371.371 0 01.027.057c.01.024.023.056.031.072a.153.153 0 01.014.035c0 .01.023.04.049.062.029.021.046.05.05.087.009.045.018.09.02.137 0 .015.002.03.004.034.002.004.002.009 0 .01-.001.002 0 .012.004.024a.19.19 0 01.007.084.08.08 0 00.004.041c.004.009.006.019.005.022a.072.072 0 00.002.024c.003.01.004.023.005.028 0 .007 0 .008.004.008.003 0 .003-.008.002-.014-.002-.008 0-.013.002-.012.005 0 .009.013.013.042l.002.02c.002.012.001.015-.005.011-.004-.002-.01-.002-.013.002-.003.004-.003.006 0 .006.015 0 .019.007.025.037l-.008-.008c-.005-.005-.01-.006-.01-.006l.005.007c.003.003.006.01.008.018.003.012.003.013.005.007 0-.005.004-.008.004-.008.004.001.005.02.002.024-.001.002 0 .004.004.004s.01.005.02.022c.007.011.011.021.009.02v.006c.003.003.008.005.012.004.005 0 .008 0 .008.003 0 .002.001.004.004.005.003 0 .005-.006.004-.013zm-.453-1.06a.026.026 0 00-.003-.01c-.002-.002-.003 0-.002.005 0 .006.003.01.003.01s.003-.001.002-.004zm-.249-.475l-.005.009c-.002.006-.002.01 0 .008l.004-.008a.042.042 0 00.001-.009zm.561-.972l.005.004c.005.004.023-.002.029-.012a.11.11 0 01.027-.021l.008-.005-.013.011-.012.012.006.001c.009 0 .01.002.001.005l-.01.007c0 .003.008.002.02-.002.012-.003.021-.004.02-.002-.002.002-.007.004-.012.005a.076.076 0 00-.021.007.645.645 0 01-.013.007l.003.005c0 .002.005.003.01.003.004-.002.007 0 .006.003-.002.007.04-.008.053-.018.005-.005.01-.006.013-.004.01.006.037-.006.031-.013 0 0 .003-.004.008-.005a.113.113 0 00.009-.003l-.005-.005c-.002-.003-.006-.005-.009-.004-.003 0-.003-.006.001-.017.005-.015.007-.018.013-.024a.074.074 0 00.009-.01c.003-.005-.014.001-.019.007a.027.027 0 01-.01.007c-.006.001-.006.002-.01.013-.005.014-.011.018-.008.004.004-.01 0-.01-.012 0-.006.005-.008.005-.006.001.001-.004-.001-.004-.01 0-.009.005-.01.005-.007 0 .002-.004.001-.005-.004-.002-.005.002-.007.002-.004-.002.005-.005-.002-.011-.01-.008a.105.105 0 01-.017.005.067.067 0 00-.02.007c-.006.004-.01.009-.01.009 0 .002-.004.007-.015.018l-.015.016zm.067-.074l.008-.001c.004 0 .01-.003.013-.007l.003-.002c-.001.002.003 0 .008-.005.007-.006.01-.008.007-.004-.003.006.014-.005.021-.014.009-.01-.016 0-.04.018l-.02.015zm.03-.006c.005-.005.006-.005.002-.004a.023.023 0 00-.01.006c-.005.007 0 .005.008-.002zm.033-.02c-.01.003-.014.006-.024.016l-.012.012.005-.001a.04.04 0 01.01-.001.026.026 0 00.01-.006c.003-.003.006-.001.006-.001 0 .002-.001.003-.005.005-.006.002-.006.002-.006.006.001.002.007 0 .022-.008a.125.125 0 01.03-.013.05.05 0 00.028-.02c.002-.003 0-.003-.007 0-.009.004-.01.003-.009-.003.003-.009 0-.01-.008-.001-.005.004-.006.006-.006.011 0 .006 0 .006-.008.009-.005.001-.01 0-.011-.003-.002-.002-.009-.003-.015-.002zm.015-.023s.003 0 .005-.002c.001-.002.001-.002-.001-.001-.003 0-.004.003-.004.003zm.018-.001a.05.05 0 00.016-.009c.002-.003 0-.003-.008-.001a.035.035 0 00-.015.009c-.002.002.001.003.007.001zm.015-.017c.01-.003.014-.005.012-.007l-.003-.002-.012.008c-.01.005-.01.005.003.001zm.02.04c.006-.006.007-.008.003-.007-.002 0-.004.003-.006.005 0 .003 0 .004.003.002zm.007.025c.003 0 .002 0-.002.005-.004.004-.007.005-.009.002-.002-.002-.004-.001-.007.002-.002.003-.002.005 0 .006.003 0 .007.005.01.01.002.005.006.005.008.002a.023.023 0 01.012-.008c.01-.002.02-.016.012-.019-.005-.001-.005-.002.003-.01.007-.006.009-.008.007-.009-.002-.002-.013.002-.026.007-.008.004-.014.014-.008.012zm.003-.047c0 .003 0 .004.004.003.003 0 .004.001.004.003-.002.004.003.003.01 0 .01-.006.011-.006.006.002-.005.007-.005.008.001.006a.045.045 0 00.027-.024c.005-.008.003-.009-.007-.006-.008.002-.012.004-.011.007 0 .006-.006.007-.008.002 0-.003-.002-.002-.005.003-.004.007-.005.007-.008.002-.005-.005-.01-.004-.013.002zm.005-.013c.004-.001.005-.002.004-.005 0-.005-.004-.004-.006.002 0 .002.002.003.002.003zm.022-.03c.007 0 .007-.001-.001.005-.006.003-.004.003.008 0 .008-.002.016-.002.014 0-.002.006.01.003.013-.002.004-.007 0-.013-.009-.012h-.016c-.006 0-.01.002-.013.006-.002.003 0 .004.004.003zm.05.036c-.002-.005-.003-.005-.015.004l-.01.007.004.002c.01.006.024-.003.021-.013zm.008-.015c.005-.002.01 0 .01.004a.018.018 0 01-.002.007l-.003.007c-.001.005.008.004.047-.004a.356.356 0 00.058-.015l.008-.005-.002-.005c-.002-.004-.014-.003-.043.005-.034.009-.038.01-.04.003-.001-.005-.009-.008-.018-.007h-.02c-.001-.001-.005 0-.008.003-.005.007 0 .01.013.007zm-.004-.023l.002.003h.01c.011-.004.012-.004.004-.004-.005 0-.006-.001-.001-.007.004-.005.003-.007 0-.006l-.012.001c-.004 0-.007.001-.009.004-.003.005 0 .01.006.009zm-.006-.025s.004 0 .006-.002c.003-.002.002-.003-.001-.002s-.005.004-.005.004zm.05.03l-.004.005c-.002.002 0 .004 0 .004l.004-.005v-.005zm.002-.006c.005 0 .006-.002.005-.005-.001-.006-.007-.004-.008.002-.001.002 0 .004.003.003zm-.005-.03c.01-.004.01-.004.003 0-.011.007-.011.01-.001.013.006.002.015 0 .042-.015.006-.003.007-.003.003 0-.008.007-.006.01.005.007.006-.002.009-.002.007 0-.002.002-.002.006-.002.006s-.005.003-.013.003c-.01.001-.014.003-.012.005.001.002 0 .004-.01.009-.028.013-.016.014.03.003.056-.013.062-.014.054-.018-.005-.002-.005-.003.003-.007a.034.034 0 00.01-.01c.001-.002.007-.005.012-.006a.047.047 0 00.02-.01c.008-.009.008-.009.003-.008-.01.002-.005-.007.005-.01a.31.31 0 00.063-.028.323.323 0 01.033-.016c.009-.004.015-.007.014-.01 0 0 .008-.006.02-.01a.073.073 0 00.025-.01c-.04-.018-.115.007-.154.02a.14.14 0 00-.034.015.022.022 0 01-.015.005.032.032 0 00-.018.005.117.117 0 01-.024.01c-.017.005-.023.01-.019.016.005.006.017.007.023 0a.023.023 0 01.009-.007c.004-.001.003 0-.003.005-.005.004-.003.005.007.002.023-.006.036-.008.033-.004a.094.094 0 01-.027.008c-.017.004-.024.006-.025.01-.001.004-.003.005-.006.003l-.007-.003H4.71c-.007-.005-.02-.009-.025-.007-.014.005-.018.007-.02.011 0 0-.004.005-.007.006a.034.034 0 00-.01.01c-.007.007 0 .01.014.006zm.429-.16c-.002.005.017.004.02 0 .001-.002-.002-.004-.008-.003-.007 0-.012.003-.012.003zm.368.368a.101.101 0 00-.03-.03s-.003.002-.004.005c0 .003-.011.007-.023.009a.08.08 0 00-.028.007c-.004.003-.008.002-.01-.005-.004-.006-.008-.008-.015-.005-.015.006-.02.015-.006.015.01 0 .01 0 .006.009-.005.007-.005.009 0 .009.007 0 .006.01 0 .013-.004.002.006.005.02.007.028.003.082-.009.09-.034zm-.19.162s.005-.003.006-.006c.002-.004.002-.007 0-.006 0 0-.005.002-.007.006-.001.003-.002.006 0 .006zm-.007.093c0-.004.002-.01.005-.012.003-.003.005-.01.005-.015-.002-.014-.03-.013-.036 0-.002.005-.008.01-.013.01-.006 0-.01.004-.011.012-.001.007 0 .014.002.016.003.002.001.005-.005.013-.009.01-.01.011-.005.017.002.003.009.004.015.002a.248.248 0 01.022-.009c.012-.004.024-.023.021-.034zm.1.033c.01-.01.007-.022-.003-.022-.004 0-.01-.007-.01-.015-.003-.009-.007-.017-.01-.02-.004-.001-.008-.008-.008-.015 0-.006-.004-.013-.008-.015-.007-.004-.007-.005 0-.015.013-.02.011-.027-.004-.024-.015.003-.016.001-.004-.011.006-.008.006-.008-.004-.009a.03.03 0 00-.016.006.128.128 0 00-.014.025c-.008.016-.008.02-.004.018.004-.003.005 0 .002.01-.002.007-.003.01 0 .005.006-.014.011-.008.006.009-.005.016-.004.016.007.013.01-.003.012-.002.011.004 0 .006 0 .01.003.01 0 0 .002.004 0 .01-.002.004-.008.009-.014.009-.008 0-.01.002-.006.01.003.008.002.01-.005.013-.005.002-.01.007-.01.01-.001.003 0 .005.002.003s.01-.001.017.002c.01.003.01.005.003.006-.006 0-.016.007-.022.014-.01.01-.01.012-.004.01a.132.132 0 01.031-.009 1.466 1.466 0 00.054-.009c.003 0 .005-.004.004-.008s.002-.01.006-.015zm.105-.613c.001.003.004.006.007.006.002 0 .003.002.002.005-.003.009.02.015.029.009a.019.019 0 01.016-.002c.006.004.004.005-.01.009-.015.004-.016.005-.008.009.006.003.008.004.003.005-.004 0 0 .005.01.01.014.01.015.01.018.001.001-.005.005-.01.007-.01s.007-.005.01-.01c.003-.007.008-.012.011-.012.009 0 .02.011.017.018-.003.01.027.01.032 0 .002-.003.002-.005 0-.004 0 0-.01-.003-.02-.009a.144.144 0 00-.027-.014c-.006-.002-.013-.007-.013-.01-.001-.002-.004-.003-.006-.001-.003.001-.005 0-.007-.004-.002-.006-.016-.009-.017-.003v.01c0 .002-.002.002-.005-.001-.008-.008-.05-.01-.049-.002zm.104 0c.01.002.023.005.026.007.008.005.045-.007.041-.013-.003-.005-.043-.012-.045-.008 0 0-.012.002-.025 0-.029-.003-.027.008.003.014zm.34.033c0 .008.002.008.017.003l.015-.005-.016-.001c-.009-.001-.017.003-.017.003zm.056.227c0 .002.001.006.003.008.005.005.016 0 .015-.007-.002-.007-.017-.009-.018-.002zm.037-.04a.031.031 0 01.015.01c.003.004.013.008.023.009l.017.001a1.038 1.038 0 00-.014-.012.063.063 0 01-.017-.02c-.002-.01.023-.046.03-.044.004 0 .006-.002.006-.005 0-.005.016-.01.053-.014.011-.002.02-.005.019-.008-.002-.006-.023-.009-.03-.004a.055.055 0 01-.021.001c-.026-.002-.057.009-.063.023-.004.006-.008.012-.01.011-.004 0-.005.004-.004.008.002.005 0 .009-.002.008-.002 0-.005.005-.006.011-.002.006-.005.01-.009.01-.01 0 .003.013.013.015zm-.001-.171c.002.007.005.007.008.001.002-.004.001-.005-.004-.005-.003-.001-.005 0-.004.004zm.019-.003c.003.006.023.008.024.002 0 0-.006-.004-.014-.005s-.013 0-.01.003zm.037.005c.003.001.008 0 .01-.002.005-.002.005-.003 0-.004-.002 0-.007 0-.01.003-.004.002-.004.003 0 .003zm.271.071c.008.002.013.004.012.005-.002.006.01.013.033.022.02.008.022.007.017-.002-.004-.01-.006-.011-.015-.015-.006-.002-.011-.006-.012-.009-.004-.012-.038-.025-.043-.016-.002.003 0 .007 0 .007s.001.003-.001.004c-.003.002 0 .003.01.004zm.07.048l.023.004a.17.17 0 00.022.002c0-.004-.006-.009-.015-.012-.005-.002-.01-.007-.01-.007-.002-.007-.013-.004-.016.004l-.003.01zm.138.093c-.003 0-.003 0-.002.003a.026.026 0 00.006.007l.002-.004a.009.009 0 00-.006-.006zm.178.056c.008.007.042.018.04.013 0-.005-.005-.008-.022-.017l-.021-.011-.006-.003c-.004.002 0 .01.01.018zm.032.029c0 .002.001.004.005.007.01.008.015.01.011.004-.006-.008-.016-.014-.016-.011zm.021-.009l.015.01-.01-.01a.268.268 0 00-.004-.003c-.005-.002-.005-.001 0 .003zm.241.448l.002.003c.002-.003 0-.007-.001-.007 0 0-.002.001 0 .004zm0 .107A.054.054 0 017 26.266c-.013-.02-.015-.02-.01-.005.008.018.01.03.008.03-.004-.002-.002.016.003.025.004.007.005.007.005.002s-.003-.007-.003-.007-.002-.001-.002-.003c-.001-.006.006-.005.012.002.004.004.006.004.005-.003 0-.004.003-.007.003-.007.007.001-.001-.017-.01-.02zm.021.098a.084.084 0 00-.012-.034l-.01-.02.002.006c.002.004.002.005 0 .003-.005-.004-.003.005.004.025a.093.093 0 01.005.048c-.002.007-.002.007-.006-.002-.003-.009-.003-.009-.002-.002.006.027.005.032-.004.03-.009 0-.014.01-.015.034-.001.011.002.022.004.018.001-.003.003 0 .006.012.006.024.011.023.008 0-.002-.016-.003-.018-.008-.024-.006-.008-.007-.014-.001-.01.002.002.003.002.001-.001 0-.003 0-.006.003-.006.006 0 .007.004.004.01-.003.003-.002.007 0 .014.004.007.005.007.005 0 0-.005.002-.007.003-.006.005.006.002-.006-.003-.015-.004-.008-.004-.009 0-.008.003 0 .005.003.007.01.004.013.01.013.007 0-.001-.009 0-.011.005-.01.004 0 .007-.003.007-.006 0-.006 0-.006.003-.001.005.008.004-.001-.001-.018a.285.285 0 01-.012-.047zm.01.465c-.008-.004-.017-.024-.016-.04a.1.1 0 00-.004-.025c-.003-.013-.005-.016-.01-.017-.004 0-.006.002-.005.008l.004.021.002.015s0 .007.004.017c.003.008.007.012.007.012s.002.001.004.007c0 .005.003.009.006.008l.008.004c.002.003.003.002.002-.002s.002-.002.006.005c.008.011.008.011.004 0-.002-.007-.006-.012-.011-.013zm.011.031l.005.005c.002.002.003.001.001-.002-.002-.005-.007-.007-.006-.003zm.012.005c.003.006.004.01.003.012 0 .003 0 .006.004.013.004.008.004.008.003-.003-.003-.022-.006-.03-.01-.03s-.004.001 0 .008zm-.045.37c0 .003.002.004.006.003.01-.003.012-.01.002-.009-.003 0-.007.003-.008.006zm.046-.338c0 .005 0 .007.002.005 0 0 .002 0 .003.003.001.004.003.005.003.003s-.001-.007-.004-.011c-.004-.007-.005-.007-.004 0zm0 .008c-.004-.02-.008-.03-.014-.033-.003-.001-.003.001-.001.01.003.012.003.014.006.007s.003-.007.003.007c0 .012 0 .015.003.019.004.005.004.002.002-.01zm-.029-.048c.006.01.006.01.003-.001a.037.037 0 00-.007-.015c-.002-.002-.003.001-.003.001l.007.015zm-.003.057c.002-.012.001-.022.001-.022l-.005.02c-.003.027 0 .028.004.002zm-.058-.301l-.003.003a.061.061 0 000 .02.072.072 0 00.007.027l.006.012v-.012a.234.234 0 00-.01-.05zm-.048-.529a.1.1 0 00.012.033l.024.058c.017.042.02.049.02.044 0-.002.002-.003.004 0 .004.003.003.002-.004-.01a.19.19 0 01-.011-.019c-.005-.01-.006-.024-.003-.023.003 0 .002-.005-.004-.014a.44.44 0 01-.035-.071c-.006-.011-.008-.014-.005-.007a.03.03 0 01.002.01zm.045 1.137s.003 0 .005-.002c0-.001 0-.003-.003-.001-.003 0-.004.002-.002.003zm-.026-.064c.005-.006.005-.009 0-.008 0 0-.003.003-.003.006s.002.003.003.002zm-.014 0s.002-.006.002-.013c0-.013-.002-.015-.006-.009-.002.004 0 .022.004.022zm-.004.083c.005 0 .013.001.018.003.012.003.038 0 .04-.005 0-.002-.004-.005-.009-.005-.005 0-.01-.005-.01-.01s-.003-.006-.014-.003c-.01.003-.017.003-.02-.002-.003-.007-.018-.006-.021.004-.004.009.004.017.016.018zm-.06-.144c0-.004-.003-.005-.003-.005s-.002.002-.002.005.002.005.002.005l.002-.005zm0 .049s.003 0 .003-.003v-.008s-.003 0-.004.003l.001.008zm.01-.052l.003.02a.203.203 0 01.004.033c0 .023.017.067.024.064.004-.002.007-.007.012-.026.007-.023.007-.024 0-.044a.062.062 0 01-.004-.028.023.023 0 00-.001-.017.214.214 0 01-.009-.017l-.006-.008s-.008-.012-.014-.027-.023-.028-.026-.028c-.003 0-.008 0-.01-.002-.004-.001-.005 0-.005.003 0 .004.015.021.022.04a.15.15 0 01.01.037zm.115.144s-.003.002-.004.006l.001.004.004-.006-.001-.004zm.026-.111c0-.003.002-.01.005-.015a.091.091 0 00.01-.022c.002-.01.004-.014.008-.016.005-.002.009-.012.005-.01l-.003-.02.001-.02.002-.004.001-.006s.003-.004.002-.008c0-.004 0-.008.002-.009.003 0 .003 0-.002-.006a.157.157 0 01-.01-.014c-.008-.013-.01-.01-.012.011-.001.01-.005.02-.005.02s-.004.006-.005.014a.102.102 0 01-.016.022.04.04 0 00-.011.017c-.001.007-.003.008-.009.007-.006-.001-.008 0-.01.007-.005.012-.008.041-.005.043 0 0 .002.01 0 .018 0 .013 0 .015.005.014.003 0 .006.001.005.004 0 .002.004.003.01.001s.01 0 .01.004c.001.005.002.005.007 0a.071.071 0 00.015-.032zm-.01.105c-.003 0-.004.001-.004.004 0 .002-.003.003-.003.003s-.005.003-.007.007c-.002.006-.002.006.002.003a.025.025 0 01.01-.006c.004 0 .006-.008.001-.01zm0 .02l.002.008c.004.007.007.004.007-.004 0-.003-.002-.005-.005-.004H7.01zm.054-.03a.081.081 0 00-.022.03c-.002.009-.001.008.01-.008l.014-.016s.004-.003.005-.006c.002-.005 0-.005-.007 0zm.024-.164c-.004.007-.017.01-.02.003-.003-.004-.015.017-.017.028a.05.05 0 01-.005.015.13.13 0 00-.01.046c0 .004 0 .012-.004.023-.004.012-.004.015-.001.012a.088.088 0 00.01-.027.161.161 0 01.007-.023s.002.004.001.007v.016c0 .008 0 .009.003.004.005-.008.008-.008.003 0-.003.008-.004.014 0 .014.001 0 .005-.018.004-.024v-.021l-.001-.015.01-.013c.007-.01.008-.012.005-.012a.031.031 0 00-.011.01c-.006.007-.007.007-.009-.001 0-.005 0-.012.002-.017.002-.008.005-.009.015-.009.01 0 .014-.002.019-.01.006-.012.006-.017 0-.006zm0 .2l-.005.006c-.004.005-.004.005 0 .004.002 0 .004-.003.005-.006v-.004zm.003-.124c0-.003 0-.005-.003-.004 0 0-.004.003-.004.006 0 .002.003.003.003.003s.004-.003.004-.005zm-.017-.202c0-.003-.002-.001-.005.003-.002.005-.003.013-.002.018.001.005.002.006.002.002 0-.003.002-.007.005-.008.003-.002.005 0 .008.01.003.014.008.02.013.019.002 0 .002-.003 0-.012-.003-.008-.003-.01 0-.007.002 0 .003 0 .003-.003a.18.18 0 00-.014-.044l-.003.013c-.003.014-.005.017-.007.009zm.03.261a.029.029 0 00-.003.009c0 .003 0 .002.002-.002l.003-.009-.002.002zm-.005-.066c0 .003.003.003.003.003h.008c.003.002.004.001.004-.005 0-.004-.002-.006-.007-.004-.005 0-.009.004-.008.006zm.005-.043s.012-.036.011-.038l-.001.004c-.001.004-.002.003-.002-.002 0-.008 0-.008-.001-.002a.531.531 0 00-.007.038zm.02-.01l.003-.001s0-.003-.002-.002l-.002.003zm.122.078c0 .003.001.002.001.002v-.005c-.001-.002-.001-.001-.001.003zM7.422 27c0 1.06-.856 1.919-1.911 1.919A1.915 1.915 0 013.6 27c0-1.059.855-1.918 1.91-1.918 1.056 0 1.912.859 1.912 1.918zm-.697-.628s-.002.002 0 .006c0 .003.003.006.006.006.002 0 .002-.003 0-.006l-.006-.006zm-.051-.37v.018c.001.021-.005.05-.012.055-.005.004-.005.004 0 .005.004.001.009-.003.011-.009a.033.033 0 01.007-.01c.006.001.005-.025 0-.042l-.006-.017zm-.238.155c.004.002.008.002.01.001.001-.002-.002-.003-.007-.003s-.006 0-.003.002zm.012-.526c.007.007.007.006.003 0-.005-.008-.015-.018-.012-.011 0 .002.005.007.01.01zm-.035.515l-.01.004c-.01.005-.014.01-.01.022.003.012.007.01.008-.003 0-.007.004-.012.008-.012.005 0 .007-.002.006-.006 0-.003-.002-.005-.002-.005zm.043.093c-.005 0-.009.002-.008.006 0 .003.003.006.007.006.005 0 .009-.002.009-.005 0-.004-.004-.006-.008-.007zm-.147-.59c0 .006 0 .008.003.008 0 0 .004.004.005.008 0 .006.004.006.004.006.001-.001 0-.008-.004-.016-.006-.016-.008-.017-.008-.006zm.159-.03v.004c.001.003.005.006.005.006v-.005a.018.018 0 00-.005-.005zm.014.503s0 .003.004.006l.01.007s0-.004-.004-.007a.066.066 0 00-.01-.006zm-1.675-.677c.005-.006.003-.006-.009.002l-.008.005h.006a.02.02 0 00.01-.007zm-.344.773c.011 0 .02-.003.025-.009.007-.008.009-.02.001-.012-.001.002-.01.005-.018.006-.022.005-.028.015-.008.015zm-.137-.412l-.014.014a.502.502 0 00-.015.015l.006-.002a.022.022 0 00.01-.006c.003-.004.008-.007.008-.007.002 0 0 .003-.003.006-.003.005-.001.003.005-.003a.113.113 0 01.019-.013c.013-.005.017-.015.004-.01-.008.003-.01.003-.004 0 .01-.01-.003-.005-.027.008l-.019.01.015-.006.015-.006zm.032.29c-.007.007-.008.009-.004.009.002 0 .007-.005.009-.01a.047.047 0 00.004-.008l-.01.009zm-.016-.042c-.004.007-.008.027-.005.024a.041.041 0 00.006-.017v-.007zm.036-.05l-.006.004a.02.02 0 00-.009.007.045.045 0 00-.004.03c.002.003 0 .012-.003.02-.005.012-.005.013 0 .005a.134.134 0 00.015-.038l.007-.028zm-.026.011c-.008.01-.01.013-.008.015.001.002 0 .006-.002.009-.003.003-.004.007-.004.009 0 0 .004-.003.008-.01a.316.316 0 00.01-.024c.005-.01.005-.01-.004.001zm.02-.068l-.006.008c-.005.005-.005.009-.005.009a.157.157 0 00.027-.03c.004-.008-.001-.005-.01.004l-.006.009zm-.04-.083c-.002-.003-.003-.002-.004.003s-.004.009-.016.018a.413.413 0 00-.014.01c.005 0 .007 0 .011-.002a.054.054 0 00.019-.007l.02-.015c.006-.006.016-.011.016-.011l.008-.006c.007-.008-.003-.005-.016.006-.012.01-.02.01-.024.004zm.014.047a.036.036 0 00-.018.01c-.01.01-.01.01.01-.002.015-.009.016-.01.008-.008zm.11-.082c.004-.006-.003-.005-.008.002-.003.002-.003.007-.003.007.002.002.007-.002.011-.01zm-.065.343c-.01.01-.04.07-.04.08 0 .01.015-.008.027-.034a.095.095 0 01.026-.038c.02-.018.02-.018.021-.004.001.01 0 .013-.005.02a.059.059 0 00-.01.013c-.002.003 0 .003.003-.001.006-.006.007-.005.007.006l-.002.014a.841.841 0 01.014-.022.246.246 0 00.015-.026c0-.002.003 0 .004.005.004.014.013 0 .01-.015-.002-.013-.01-.017-.011-.006l-.004.006c-.002 0-.003-.002-.001-.005.006-.013-.04-.007-.054.007zm0-.033c.007-.004.012-.006.01-.003-.006.008.001.014.017.014h.013l.005-.017c.003-.009.004-.015.001-.014-.003.002-.005 0-.005-.004-.002-.015-.011-.014-.04.007a.675.675 0 00-.032.024c-.007.006.019.001.031-.007zm.037-.055c.004-.008.002-.013-.003-.008-.006.006-.008.013-.004.013.002 0 .005-.002.007-.005zm-.019.157c-.013.005-.018.014-.008.014a.133.133 0 00.049-.025c.006-.008 0-.007-.041.01zm.36-.246c.004 0 .009-.003.011-.006.005-.007.005-.007-.007 0-.007.005-.008.006-.003.006zm-.125.057s.005-.005.007-.01c.004-.008.002-.011-.004-.005-.005.005-.007.015-.003.015zm.082-.062l.004-.006c0-.004-.002-.006-.002-.006s-.004.002-.005.006c0 .003.003.006.003.006zm.046-.521c.002-.002.001-.003-.002-.002-.003 0-.003.003-.003.003l.005-.001zm-.236.27c.002-.003 0-.004 0-.004l-.003.006-.001.004.004-.005zm.076 2.156c.002-.004.002-.01.002-.01-.003-.003-.01.007-.008.013 0 .003.003.001.006-.003zm.116-2.402c.01-.002.017-.009.013-.013-.003-.003-.004-.002-.006.003 0 .002-.005.006-.01.008-.005.003-.004.003.003.002zm-.132.554c-.003 0-.008.003-.01.007-.009.01-.006.01.005.001.008-.007.009-.008.005-.008zm-.01-.273c.003.002.004.001.005-.002.002-.008-.005-.012-.009-.005v.004l.005.003zm.07-.11a.006.006 0 00-.004.002h.006c.003-.003.002-.003-.001-.003zm.087-.032c.006 0 .012-.003.013-.005l.008-.007c.004-.002.002-.002-.003-.002s-.011 0-.012-.002c-.002-.001-.004-.001-.004.001 0 0-.003.007-.006.01-.004.006-.003.007.004.005zm.063.017l.008-.006c.002-.004-.007-.001-.01.004-.003.003-.002.004.002.002zm-.036.09a.055.055 0 01.011-.005c.004 0 .004-.002.002-.005-.005-.007-.01-.005-.015.004-.003.006-.003.008.002.006zm.96.023s-.003.003-.003.006.002.005.004.003l.003-.006s-.002-.003-.004-.003zm.002-.132c-.004 0-.006.003-.005.006 0 .003.003.006.003.006s.004-.003.005-.006c0-.003-.001-.006-.003-.006zm.197 1.625a.105.105 0 01.021-.004c.005 0 .007-.003.005-.005-.002-.001.002-.013.008-.024.01-.019.011-.022.004-.025-.013-.005-.034-.003-.039.005a.107.107 0 00-.008.031c-.004.023-.003.025.01.022zm-.163-1.486s-.002.003-.001.007c0 .003-.002.005-.005.003s-.006 0-.007.005c0 .006-.003.008-.005.006s-.005-.001-.006.003c0 .003 0 .006.004.006.01 0 .024-.013.023-.022 0-.004-.003-.008-.003-.008zm-1.702.205l-.007.006c-.005.006-.004.006.005-.002.005-.005.006-.005.002-.004zm1.479-.134c-.004.004-.007.012-.007.012 0 .005.016-.003.018-.009.004-.009-.003-.011-.011-.003zm1.388.413s.002-.003.001-.005c0-.004-.004-.006-.004-.006s-.002.001 0 .005c0 .003.003.006.003.006zm-1.22-.468a.01.01 0 00.003.01c.001.001.003 0 .003-.006 0-.01-.003-.013-.006-.004zm.248 1.635c0-.008-.001-.014-.003-.016s-.005.01-.005.027-.002.034-.001.04a.04.04 0 00.004.018c.005.008.006.005.008-.02l-.001-.032a.034.034 0 01-.002-.017zm.051-.311c0 .01.003.021.008.025.007.008.008.008.003 0a.084.084 0 01-.007-.026l-.004-.017v.018zm.008-.183c.003-.002.005-.006.005-.008l-.006-.002c-.003 0-.005.003-.004.007 0 .004.003.005.005.003zm-.78.09H5.23l.008.01c.005.005.008.006.009.002 0-.004-.004-.008-.008-.011zm-.001.03c-.002.004-.001.007.001.007.004 0 .007-.003.007-.006 0-.004-.002-.007-.002-.007s-.004.003-.006.007zm.304-.16c-.018-.008-.019-.007-.01.011.005.012.025.012.025 0 0 0-.007-.007-.015-.011zm.722-1.248v.005a.02.02 0 00.005.007v-.006l-.005-.006zM4.44 28.18c0 .002.003.005.003.005.003 0 .003-.002.003-.004-.001-.003-.004-.005-.004-.005l-.002.004zm-.033-.075c-.002 0-.002.002 0 .005a.033.033 0 00.006.006v-.005a.009.009 0 00-.006-.006zm-.092-.58c.002.004.007.009.011.01.006.004.006.003 0-.006-.007-.012-.014-.015-.01-.005zm-.052-.583c-.005.006-.007.025-.003.026 0 0 .005-.003.007-.008.006-.01.002-.027-.004-.018zm-.148-.666l.003-.009s-.002 0-.004.003a.032.032 0 00-.002.009s.002 0 .003-.003zm-.002.61c-.004 0-.004 0-.002.01.001.011.007.01.007-.003 0-.003-.002-.006-.005-.007zm.345 1.318c-.004.005-.004.005.003.004a.018.018 0 00.007-.004c.001-.007-.005-.007-.01 0zm.504-2.55c.002-.002 0-.003-.003-.003s-.005.003-.003.004c.002.002.004 0 .006 0zm.08 3.065c-.003 0-.004 0-.001.002.002.002.005 0 .005 0l-.004-.002zm-.16-3.235l.001.005s.004 0 .005-.003c.002-.003 0-.004 0-.004-.003 0-.006.003-.006.003zm.491-.078a.028.028 0 00.007-.005c0-.005-.008-.002-.01.003-.003.003 0 .004.003.002zm1.536 1.473c.002.001.002 0 0-.005-.005-.01-.006-.012-.005-.004a.02.02 0 00.005.009zm-1.666-1.282c.003-.002.005-.005.005-.008-.001-.007-.002-.006-.007.003-.002.006-.002.008.002.005zM10.6 27c0 2.305-1.822 4-4.133 4H4v-1.6h2.467A2.389 2.389 0 008.85 27c0-1.325-1.062-2.4-2.383-2.4H4V23h2.467c2.311 0 4.133 1.695 4.133 4z" fill="#fff"/><defs><linearGradient id="paint0_linear" x1="10.418" y1="9.712" x2="68.147" y2="76.017" gradientUnits="userSpaceOnUse"><stop stop-color="#1A1E21"/><stop offset="1" stop-color="#06060A"/></linearGradient><linearGradient id="paint1_linear" x1="10.418" y1="9.712" x2="68.147" y2="76.017" gradientUnits="userSpaceOnUse"><stop stop-color="#1A1E21"/><stop offset="1" stop-color="#06060A"/></linearGradient></defs></svg>