<!-- by TradingView --><svg width="56" height="56" fill="none" xmlns="http://www.w3.org/2000/svg"><path fill="#F0F3FA" d="M0 0h56v56H0z"/><circle cx="28" cy="28" r="28" fill="#F0F3FA"/><path d="M26 32.339v8.552c-.056 2.117-.075 2.164-.108 2.232-.2.565-1.084.861-1.068.877h6.416a3.01 3.01 0 01-.999-.92c-.05-.073-.24-.139-.24-3.42v-16l-5.345 5.603c.358-.16.876-.07 1.123.238.247.275.221.424.221 2.838z" fill="#000"/><path fill-rule="evenodd" clip-rule="evenodd" d="M12 28.184c0-.563.028-1.12.085-1.667l14.24-14.431a15.827 15.827 0 013.916.078l-18.08 18.323A16.47 16.47 0 0112 28.184M17.53 40.431a16.37 16.37 0 01-1.969-2.056l8.11-8.166c.359-.157.876-.073 1.122.234.177.246.183.451.207 2.335l-7.47 7.653zM38.027 15.609a16.153 16.153 0 012.03 1.992L31 26.517v-4.051l7.027-6.857zM34.935 13.616c.88.432 1.714.942 2.494 1.524l-22.33 22.627a16.362 16.362 0 01-1.505-2.526l21.341-21.625zM31.148 12.32c1.06.217 2.085.54 3.058.96L13.263 34.502a16.242 16.242 0 01-.947-3.097L31.148 12.32zM12.259 25.264c1.185-6.597 6.318-11.798 12.829-13l-12.83 13z" fill="#6FBE4A"/><path fill-rule="evenodd" clip-rule="evenodd" d="M40.453 38.124c-.591.75-1.246 1.446-1.956 2.08L31 32.85v-4.06l9.453 9.334zM42.453 35.099c-.417.885-.821 1.652-1.384 2.44l-9.81-9.94 1.895-1.92 9.299 9.42zM43.706 31.248a16.273 16.273 0 01-.925 3.107l-9.097-9.213 1.998-2.026 8.024 8.132zM38.743 20.015l1.803-1.825c1.538 1.982 2.673 4.29 3.164 6.864l-4.967-5.04zM38.213 20.553l5.688 5.77a16.599 16.599 0 01-.046 4.002l-7.64-7.747 1.998-2.025z" fill="#00954C"/></svg>