<!-- by TradingView --><svg width="56" height="56" fill="none" xmlns="http://www.w3.org/2000/svg"><path fill="#004C9A" d="M0 0h56v56H0z"/><circle cx="28" cy="28" r="28" fill="#004C9A"/><path d="M16.895 26H16.5v4h.395c.448 0 .605-.187.605-.722v-2.556c0-.538-.157-.722-.605-.722zM23.497 26c-.344 0-.497.208-.497.52v2.96c0 .31.153.52.497.52.346 0 .503-.21.503-.52v-2.96c0-.312-.157-.52-.503-.52z" fill="#fff"/><path d="M44.204 20H5v5h5v6H5v5h39.288S51 36.024 51 27.675C51 20.015 44.204 20 44.204 20zM20 29.237C20 31.006 19.292 32 17.524 32h-3.432L14 24h3.524c1.768 0 2.476.904 2.476 2.673v2.564zm3.559 2.778c-2.48 0-3.152-.72-3.152-3.9 0-3.18.673-4.115 3.152-4.115 2.484 0 3.158.936 3.158 4.114 0 3.18-.674 3.901-3.158 3.901zM31.554 32h-3.355l-1.662-7.974h2.699l.638 5.297h.019l.664-5.297h2.71L31.553 32zm6.831-6H36v1h2v2h-2v1h2.385v2h-4.912v-7.974h4.912V26zm6.948 6h-2.446c-.227 0-.37-.444-.37-.79v-1.288c0-.661-.18-.922-.658-.922H41.5v3H39v-7.974h3.813c1.484 0 2.187.63 2.187 2.15 0 .974-.495 1.594-1.332 1.69v.026c.533.063 1.332.453 1.332 1.41v1.746c0 .425.17.887.34.952" fill="#fff"/><path d="M41.85 26h-.35v1.564h.408c.467 0 .639-.392.639-.835 0-.556-.307-.729-.697-.729z" fill="#fff"/></svg>