<!-- by TradingView --><svg width="56" height="56" fill="none" xmlns="http://www.w3.org/2000/svg"><path fill="#00477F" d="M0 0h56v56H0z"/><circle cx="28" cy="28" r="28" fill="#00477F"/><path d="M6 36V20c1.9 0 3.758-.02 5.597 0 1.5.04 3.02.009 4.478.253 3.439.608 5.418 3.064 5.578 6.88.06 1.157-.02 2.375-.3 3.511-.76 3.105-2.919 4.932-5.937 5.196-3.079.304-6.217.16-9.416.16zm6-12.003V32c1.78.122 2.836-.366 3.016-1.909.18-1.583.166-2.583-.034-4.166-.2-1.583-1.263-2.13-2.982-1.928zM44 30v2h6v4H38V20h12v4h-6v2h5v4h-5zM26 36V24h-3v-4h13v4h-3v12h-7z" fill="#fff"/></svg>