<!-- by TradingView --><svg width="56" height="56" fill="none" xmlns="http://www.w3.org/2000/svg"><path fill="#015A98" d="M0 0h56v56H0z"/><circle cx="28" cy="28" r="28" fill="#015A98"/><path d="M11.313 28.31c0-2.433-1.157-3.764-3.61-3.764-.37 0-.833 0-1.203.046V32h1.11c1.944 0 3.703-.662 3.703-3.69zm2.687 0C14 31.66 11.823 34 7.98 34H4V22.985c.787-.091 1.713-.183 3.518-.183C11.73 22.756 14 24.775 14 28.309zm23 2.707v-8.035c.185-.046.485-.092.856-.092.833 0 1.666.276 1.666 1.423V25H42v2h-2.478v3.88c0 .825.761 1.238 1.41 1.238.74 0 1.295-.413 1.434-.505.139.184.51.689.51 1.102a.654.654 0 01-.186.459c-.139.138-1.085.826-2.751.826C37.485 33.954 37 32.53 37 31.017zm-8.282-3.213l-.88 2.983-.787-2.248c-2.87-8.445-7.915-10.556-11.896-10.556-3.286 0-5.508 1.423-6.99 3.029-.092.092-.092.138-.092.184 0 .091.047.137.14.137.045 0 .092 0 .138-.046 1.527-1.285 3.425-2.432 6.156-2.432 7.54 0 10.265 9.112 11.71 15.145h2.825l1.342-3.993 1.759-5.002c-1.99.137-2.963 1.101-3.425 2.8zM32.998 25c1.528.367 2.546 1.427 2.546 2.85v6.154h-1.111c-.926 0-1.435-.459-1.435-1.423V25zm-12.587 4.64c-1.389 0-3.097.367-3.097 1.514 0 .735.782 1.24 1.662 1.24.926 0 1.435-.505 1.527-.643.093-.092.14-.275.14-.55V29.64h-.232zM23 31.705c0 .918.188 1.607.466 2.02-.232.091-.602.229-1.25.229-1.204 0-1.389-.642-1.481-.964-.278.276-1.018.964-2.731.964-1.389 0-3.143-.826-3.143-2.708 0-2.157 2.495-2.891 5.272-2.891h.417v-.184c0-.917-.74-1.376-1.852-1.376-1.203 0-2.314.596-2.546.734-.185-.275-.416-.643-.416-1.056 0-.78 1.435-1.376 3.332-1.376 2.546 0 3.932.871 3.932 3.258v3.35zm26.324-2.065c-1.389 0-3.094.367-3.094 1.514 0 .735.78 1.24 1.659 1.24.743 0 1.666-.352 1.666-1.194v-1.56h-.231zM52 31.705c0 .918.147 1.607.425 2.02-.941.373-2.394.434-2.731-.735-.278.276-1.018.964-2.73.964-1.39 0-3.14-.918-3.14-2.8 0-2.157 2.491-2.799 5.268-2.799h.417c0-1.097-.809-1.56-1.852-1.56-1.203 0-2.314.596-2.545.734-.186-.275-.417-.643-.417-1.056 0-.78 1.435-1.376 3.333-1.376 2.546 0 3.972.871 3.972 3.258v3.35z" fill="#fff"/><path d="M32.513 21.058s-1.25 1.79-3.518 3.58c0 0 1.944-2.8 2.175-4.59 0 0-1.897-.734-2.73-1.56 0 0 1.573.826 3.147-.23 0 0 .37-1.101.231-2.707 0 0 .926 1.193 1.019 2.478 0 0 1.805-.688 2.314-3.029 0 0 .694 2.34-1.481 4.36 0 0 1.851.596 2.453 3.12 0 .093-.787-1.697-3.61-1.422z" fill="#F5B21E"/></svg>