<!-- by TradingView --><svg width="56" height="56" fill="none" xmlns="http://www.w3.org/2000/svg"><path fill="#63A844" d="M0 0h56v56H0z"/><circle cx="28" cy="28" r="28" fill="#63A844"/><path d="M22.162 29.584l-.083.083c-.042.04-.983 1.261-1.369 2.333h-1.903c.428-1.6 2.375-3.389 2.392-3.405l.108-.083-.108-.082c-.026-.025-1.836-1.756-2.523-3.43h1.92c.452 1.327 1.407 2.342 1.45 2.358l.066.066.067-.066c.042-.041 1.023-1.055 1.492-2.358h1.92c-.73 1.682-2.54 3.413-2.565 3.43l-.11.082.11.083c.025.025 2.26 1.789 2.73 3.405h-1.903c-.36-1.047-1.64-2.292-1.69-2.333v-.083zM14.98 32c1.433 0 2.346-.602 2.673-.858-.21-.107-.964-.461-1.064-.527-.151.165-.637.338-1.45.338-1.006 0-1.433-.42-1.433-1.847v-.107h.109c1.642 0 2.883-.297 3.956-.965.025-.082.083-.354.083-.585 0-1.097-.746-2.449-2.84-2.449-2.222 0-3.311 1.237-3.311 3.545-.009 2.408.972 3.455 3.277 3.455zm-1.283-3.95c0-1.005.151-1.995 1.35-1.995.62 0 1.047.297 1.047 1.047 0 .231-.125.487-.125.503l-.026.042-.067.04c-.595.314-.922.487-2.07.487h-.109v-.123zm-3.42.421C10.278 26.138 9.08 25 6.65 25H4v6.975h2.649c2.438-.016 3.629-1.146 3.629-3.504zM5.945 26h.772c.167 0 .343.025.536.082.62.314.922 1.004.922 2.414 0 1.558-.36 2.248-1.132 2.48L6.724 31H6v-5h-.056zm44.204 6v-5.021c0-.693-.084-.907-.595-.907-.897 0-1.258.61-1.283.627l-.025.024V32h-1.902v-5.03c0-.692-.084-.906-.596-.906-.896 0-1.257.61-1.282.626l-.025.025V32h-1.877v-5.433c0-.446-.453-.858-.94-1.114.386-.107 1.45-.428 1.518-.453.21.082.73.322.872.536l.067.082.083-.066S45.018 25 46.125 25c.813 0 1.391.173 1.726.486l.067.042.067-.025c.704-.313 1.35-.503 1.92-.503 1.542 0 2.095.627 2.095 1.195V32h-1.852zm-21.39-3.463c0 1.765.495 2.416 1.543 2.416.788 0 1.198-.148 1.35-.313.125.066.87.445 1.089.544-.277.23-1.132.816-2.481.816-2.33 0-3.546-1.195-3.546-3.446 0-2.268 1.216-3.554 3.546-3.554a3.81 3.81 0 012.48.923c-.209.108-.963.487-1.089.545-.15-.165-.536-.314-1.324-.314-1.073-.033-1.567.594-1.567 2.383zM37.098 25c-2.112 0-3.46 1.344-3.46 3.512 0 2.169 1.257 3.488 3.394 3.488 2.112 0 3.352-1.32 3.352-3.488C40.4 26.37 39.21 25 37.097 25zm-.066 5.87c-.922 0-1.324-.569-1.324-2.333 0-1.764.402-2.333 1.324-2.333.897 0 1.282.544 1.282 2.333.017 1.781-.369 2.333-1.282 2.333z" fill="#fff"/></svg>