<!-- by TradingView --><svg width="56" height="56" fill="none" xmlns="http://www.w3.org/2000/svg"><path fill="#F0F3FA" d="M0 0h56v56H0z"/><circle cx="28" cy="28" r="28" fill="#F0F3FA"/><path d="M10.207 23.073c-3.386 0-6.207 1.494-6.207 6 0 3.57 1.897 5.818 6.294 5.818 5.176 0 5.508-3.891 5.508-3.891h-2.508s-.538 2.255-3.153 2.255c-2.13 0-3.661-1.163-3.661-3.26H16v-1.649c0-2.075-1.203-5.273-5.793-5.273zm-.088 1.682c2.028 0 3.41 1.31 3.41 3.245H6.535c0-2.055 1.804-3.245 3.584-3.245z" fill="#E53238"/><path d="M16 19v16h3v-1.707s.668 1.922 3.88 1.922c3.385 0 5.683-2.443 5.683-5.943 0-3.256-2.111-5.874-5.677-5.874-3.339 0-3.917 1.875-3.917 1.875V19H16zm6.494 6.112c2.298 0 3.534 1.78 3.534 4.16 0 2.553-1.479 4.243-3.534 4.243-2.452 0-3.525-1.945-3.525-4.152 0-2.057.953-4.251 3.525-4.251z" fill="#0064D2"/><path d="M34.508 23.363c-5.094 0-5.42 3.174-5.42 3.637h2.535s.133-1.966 2.71-1.966c1.674 0 2.666.797 2.666 2.33v.65h-2.666c-3.946 0-6.032 1.095-6.032 3.531 0 2.397 1.927 3.702 4.532 3.702 3.55 0 4.166-2.04 4.166-2.04V35H40v-7.287c0-3.593-3.034-4.35-5.492-4.35zm2.491 6.182v.727c0 .949-.257 3.307-3.57 3.307-1.815 0-2.593-.941-2.593-2.034 0-1.987 2.314-2 6.163-2z" fill="#F5AF02"/><path d="M38.681 24h2.79l4.006 8.346L49.472 24H52l-7.278 15H42.07l2.1-4.232L38.682 24z" fill="#86B817"/></svg>