<!-- by TradingView --><svg width="56" height="56" fill="none" xmlns="http://www.w3.org/2000/svg"><path fill="#0098CC" d="M0 0h56v56H0z"/><circle cx="28" cy="28" r="28" fill="#0098CC"/><path fill-rule="evenodd" clip-rule="evenodd" d="M40.707 23H36.5L34 32h3.026s.18-.619.308-1h2.836c.11.363.24.632.33 1h3.022c-.933-3.002-1.904-5.99-2.815-9zm-1.078 6H38l.768-3.45.861 3.45z" fill="#fff"/><path d="M4 23c2.333.022 4.667-.006 7 0v2.509H7v.823h3V28.5H7v1.005h4V32H4v-9z" fill="#fff"/><path d="M18 25.581V23c-4 0-5.613.432-6.54 2.454-.656 1.428-.594 3.452.254 4.78C12.77 31.888 15 32 18 32v-2.5c-.85.014-2.041.142-2.815-.285C14.567 28.872 14 28.5 14 27.5c0-2.046 2.703-1.991 4-1.919zM28 23h3v6.502c1.07.006 3-.002 3-.002l-.688 2.5H34h-6v-9z" fill="#fff"/><path fill-rule="evenodd" clip-rule="evenodd" d="M44.5 23H44v9c.7-.036 1.468-.015 2.24.006 2.891.079 5.918.274 5.753-2.632-.061-1.093-.785-1.625-1.593-1.976.472-.17.803-.397 1.02-.764.718-1.222-.022-2.617-.92-3.134-1.126-.648-3.649-.485-6-.5zm4.275 5.688c.23.284.28.852 0 1.132-.237.237-1.172.18-1.172.18H47v-1.548h.603s.946-.044 1.172.235zm-.319-3.553c.35.193.44.846.096 1.147-.24.21-.68.171-1.152.171-.129-.005-.279 0-.4 0V25c.5 0 1.168-.024 1.456.135zM22.75 32.3a4.75 4.75 0 100-9.5 4.75 4.75 0 000 9.5zm.598-5.733l1.513-2.843-2.058 2.677a1.168 1.168 0 00-.452.07l-3.242-1.704 2.732 2.078a1.145 1.145 0 00-.118.188l-2.977-1.565 2.858 2.174c.005.066.016.132.032.195l-1.573 2.994 1.875-2.467c.067.067.14.125.222.173l-1.396 2.657 1.898-2.497a1.158 1.158 0 00.39-.037l2.993 1.594-2.472-1.901c.062-.064.117-.134.163-.21l2.794 1.488-2.631-2.024a1.198 1.198 0 00-.037-.35l1.622-3.048-1.934 2.515a1.155 1.155 0 00-.202-.157z" fill="#fff"/></svg>