<!-- by TradingView --><svg width="56" height="56" fill="none" xmlns="http://www.w3.org/2000/svg"><path fill="#F0F3FA" d="M0 0h56v56H0z"/><circle cx="28" cy="28" r="28" fill="#F0F3FA"/><path d="M33.6 22.092a9.932 9.932 0 01-.703-5.734C33.487 12.932 35.36 9.943 38 8c-5.119.613-9.625 5.104-10.484 10.548-.323 2.059-.486 5.254 2.83 8.583 2 2.007 4.028 4.2 3.445 8.107-.599 4-4.157 7.231-7.961 7.217-3.807-.018-6.333-3.264-5.82-7.276.66-5.142 6.18-6.725 6.7-9.903.197-1.215-.098-2.47-.385-3.52-.438-1.424-1.244-3.756-.248-6.603 0 0-2.952 2.285-3.673 7.09-.154 1.043-.442 2.535-1.881 4.024-1.438 1.491-2.999 4.035-3.417 7.11C16.312 39.233 20.045 43.975 25.6 44c5.556.023 10.729-4.697 11.623-10.535.777-5.058-2.44-8.752-3.624-11.373z" fill="#E43539"/><path d="M25.848 40.46h.02c2.783 0 5.51-2.52 5.958-5.516.425-2.839-.837-4.41-2.886-6.406-2.061-2.008-2.003-2.966-2.162-4.295.045 2.877.177 4.666-1.415 6.172-1.566 1.48-3.082 2.84-3.362 5.018-.19 1.493.161 2.837.992 3.782.708.809 1.695 1.239 2.855 1.245z" fill="#373535"/></svg>