<!-- by TradingView --><svg width="56" height="56" fill="none" xmlns="http://www.w3.org/2000/svg"><path fill="#EF3E42" d="M0 0h56v56H0z"/><circle cx="28" cy="28" r="28" fill="#EF3E42"/><path d="M38.882 40c-.723.678-1.505 1.461-2.345 2H31v2h-6v-2h-5.537c-.84-.539-1.622-1.322-2.345-2H25v2h6v-2H38.882zm3.223-3.94c-.606 1.137-1.328 1.982-2.168 2.94H38v-2h-7v2h-6v-2h-7v2h-1.956c-.84-.958-1.563-1.803-2.168-2.94H18V34h7v2.06h6V34h7v2.06h4.105zM43.961 30c-.098 1.436-.371 2.683-.801 4H38v-2h-7v2h-6v-2h-7v2h-5.18c-.43-1.317-.703-2.584-.78-4H18v-2h7v2h6v-2h7v2h5.96zM12 28c.137-8.898 7.248-16 16-16 8.752 0 15.863 7.102 16 16h-6v-1h-7v1h-6v-1h-7v1h-6z" fill="#fff"/></svg>