<!-- by TradingView --><svg width="56" height="56" fill="none" xmlns="http://www.w3.org/2000/svg"><path fill="url(#paint0_linear)" d="M0 0h56v56H0z"/><circle cx="28" cy="28" r="28" fill="url(#paint1_linear)"/><path d="M11.263 16.794c-.607-.709-.096-1.794.845-1.794h9.097c.326 0 .635.142.845.387l8.412 9.82c.607.708.096 1.793-.846 1.793H20.52c-.325 0-.634-.142-.845-.387l-8.41-9.82z" fill="#95C93D"/><path d="M27.538 16.794c-.607-.709-.096-1.794.846-1.794h9.097c.325 0 .634.142.845.387l8.41 9.82c.608.708.097 1.793-.844 1.793h-9.097c-.326 0-.635-.142-.845-.387l-8.412-9.82z" fill="#317CC0"/><path d="M46.737 30.794c.607-.709.096-1.794-.845-1.794h-9.097c-.326 0-.635.142-.845.387l-8.412 9.82c-.607.708-.096 1.793.846 1.793h9.097c.325 0 .634-.142.845-.387l8.41-9.82z" fill="#073552"/><path d="M30.462 30.794c.607-.709.096-1.794-.846-1.794H20.52c-.325 0-.634.142-.845.387l-8.41 9.82c-.608.708-.097 1.793.844 1.793h9.097c.326 0 .635-.142.845-.387l8.412-9.82z" fill="#ACB1BA"/><defs><linearGradient id="paint0_linear" x1="10.418" y1="9.712" x2="68.147" y2="76.017" gradientUnits="userSpaceOnUse"><stop stop-color="#1A1E21"/><stop offset="1" stop-color="#06060A"/></linearGradient><linearGradient id="paint1_linear" x1="10.418" y1="9.712" x2="68.147" y2="76.017" gradientUnits="userSpaceOnUse"><stop stop-color="#1A1E21"/><stop offset="1" stop-color="#06060A"/></linearGradient></defs></svg>