<!-- by TradingView --><svg width="56" height="56" fill="none" xmlns="http://www.w3.org/2000/svg"><path fill="url(#paint0_linear)" d="M0 0h56v56H0z"/><circle cx="28" cy="28" r="28" fill="url(#paint1_linear)"/><path d="M33 27v-5l2-2 1-1h9l-5 5h-4l2-2h-2.5l2-2H35v5l-2 2z" fill="red"/><path d="M17.468 26.938c.13-.079.219-.216.367-.266.095-.028.171.062.165.145l-.002.755c.173-.038.255-.127.418-.19.587-.236 1.259-.26 1.873-.109.506.125.957.45 1.194.894.278.503.343 1.105.184 1.651a2.347 2.347 0 01-1.237 1.463c-.529.263-1.152.327-1.737.229-.193-.034-.254-.09-.428-.178-.067-.028-.147-.085-.22-.037-.053.035-.04.104-.045.157.002.641 0 1.282 0 1.923-.004.091.024.195.12.235.255.113.418.084.688.135.088.008.134.11.088.178-.043.061-.13.064-.2.072-.696.005-1.72.016-2.57.005-.128-.004-.185-.21-.052-.254.266-.07.584-.024.802-.216.104-.096.125-.241.124-.372V28.01c-.005-.121.003-.273-.115-.35-.159-.102-.367-.064-.534-.145-.095-.05-.034-.166.048-.192.326-.152.772-.175 1.069-.386zm1.095.703a.823.823 0 00-.477.216c-.073.055-.093.145-.088.228.002.798-.002 1.596.002 2.393.002.201.12.365.285.475.272.177.467.281.794.317.571.03 1.164-.195 1.52-.625.297-.352.416-.815.391-1.258a1.845 1.845 0 00-1.008-1.506 2.531 2.531 0 00-1.42-.24zm11.78-3.581c.091-.063.21-.057.317-.06.362.003.882-.003 1.243.003.1-.01.105.1.097.181v7.11c.006.081 0 .2.095.233.193.041.316-.04.509-.046.072.007.105.087.092.15-.075.109-.211.147-.331.187-.325.092-.754.142-1.09.176-.098.013-.226.001-.275-.097v-.455c-.234.099-.48.226-.729.292-.667.186-1.32.166-1.95-.135-.46-.218-.846-.596-1.034-1.066a2.297 2.297 0 01.056-1.823c.226-.48.63-.87 1.104-1.115a2.508 2.508 0 012.182-.091c.09.03.187.091.286.06.09-.044.08-.159.085-.242v-2.496c.002-.1-.014-.21-.096-.277-.157-.13-.379-.122-.554-.216-.106-.052-.1-.211-.007-.273zm-.883 3.556a1.627 1.627 0 00-1.157.788 2.221 2.221 0 00-.155 1.85c.17.472.571.851 1.058 1.005.469.147.894.186 1.373.059a.53.53 0 00.364-.386c.062-.26.049-.531.057-.797-.004-.532.02-1.07-.085-1.595-.066-.311-.14-.573-.422-.753-.33-.21-.655-.225-1.033-.171zM4.207 24.03a.911.911 0 01.257-.03c1.569.013 3.262.006 4.897 0 .062 0 .14.007.17.074.042.093.033.2.037.299-.001.418.003.837-.001 1.256.024.144-.194.142-.228.027-.114-.25-.188-.52-.327-.758-.128-.199-.363-.265-.575-.309-.534-.097-1.351-.087-1.892-.096-.147.005-.317 0-.432.114-.11.121-.106.302-.113.458-.002.742 0 1.485-.002 2.228.004.087-.002.194.072.253.105.08.24.08.364.088.41.008 1.094.003 1.504.004.208.004.435-.057.567-.238.18-.226.178-.536.284-.796.048-.133.26-.1.274.04.025.176 0 .353-.01.529-.045.54-.026 1.082.01 1.621.002.16.029.324-.007.482-.05.124-.238.082-.275-.033-.111-.29-.082-.625-.221-.906-.102-.2-.33-.258-.526-.289-.391-.05-1.06-.045-1.453-.047-.161.008-.334.001-.482.08-.103.06-.097.199-.1.305.001.85-.002 1.7.001 2.55 0 .16.012.363.166.445.21.11.454.102.684.116.401.01 1.078.026 1.478-.021.266-.031.54-.12.73-.326.255-.273.458-.596.621-.938.047-.09.104-.222.226-.197.074-.002.111.088.088.154-.094.423-.207.904-.287 1.33-.029.137-.033.287-.104.41-.055.085-.25.091-.25.091l-4.962-.006s-.223.02-.322-.031c-.105-.052-.082-.231.026-.264.286-.094.38-.133.664-.231.177-.062.247-.269.242-.45.002-2.024 0-4.05 0-6.075 0-.13-.012-.289-.127-.368-.28-.181-.424-.15-.717-.292-.114-.06-.074-.241.05-.253zm33.18 2.35c.072-.037.193-.016.207.076.032.228-.01.46.023.688.027.075.121.07.186.075.438.003.877 0 1.315 0 .08-.001.184.01.215.1a.592.592 0 010 .36c-.038.08-.137.084-.214.085-.412 0-.824-.003-1.235 0-.104.006-.23.005-.3.095-.07.11-.06.248-.065.374-.003.811-.036 1.622-.036 2.433-.002.236.053.506.263.647.255.165.579.154.87.123.183-.017.35-.142.538-.11.095.017.1.143.047.206-.154.223-.42.337-.673.404-.35.083-.72.083-1.073.014-.282-.055-.556-.214-.688-.477-.154-.294-.154-.637-.15-.961.004-.825.026-1.65.023-2.475.004-.076-.025-.17-.11-.183-.153-.03-.31-.004-.462-.022-.09-.024-.085-.146-.016-.192.156-.125.35-.189.52-.293.337-.185.566-.516.734-.854.023-.04.042-.086.081-.113zm8.628.644c.077-.055.215-.01.217.09.022.207-.016.418.024.624.01.076.102.084.153.038.232-.162.439-.363.702-.48.298-.14.674-.144.957.032.282.18.277.642 0 .825a.76.76 0 01-.486.116c-.236-.036-.428-.192-.655-.255a.489.489 0 00-.511.18c-.133.174-.167.4-.166.611v2.141c.002.135-.008.272.026.404a.39.39 0 00.24.258c.262.11.554.089.832.11.108.002.162.144.1.222-.066.062-.25.06-.25.06s-1.493-.008-2.241 0c-.096-.003-.205-.003-.28-.068-.075-.075-.009-.217.093-.228.177-.047.39-.07.503-.23.137-.211.125-.473.135-.714.003-.639.002-1.278 0-1.918 0-.238-.06-.51-.28-.649-.077-.064-.224-.114-.196-.236.126-.135.319-.184.457-.306.24-.18.388-.449.626-.627zm-22.48.316c.508-.342 1.177-.42 1.766-.26a1.8 1.8 0 011.136.974c.114.246.197.521.156.793-.012.116-.144.156-.24.153h-3.016a4.08 4.08 0 00.035 1.071c.066.38.232.764.547 1.01.325.255.753.336 1.16.339.291 0 .601-.034.846-.201.117-.078.197-.198.315-.274.093-.043.203.065.132.149-.246.43-.705.716-1.188.835-.511.119-1.07.095-1.551-.122-.516-.228-.876-.708-1.033-1.23-.21-.699-.204-1.47.078-2.15.177-.428.461-.825.857-1.087zm.441.284c-.276.236-.506.56-.529.928.161.067.34.054.51.061.396.003.793.017 1.188-.021.177-.025.367-.05.508-.166.136-.118.146-.314.13-.48-.033-.29-.28-.516-.555-.6-.43-.137-.916-.007-1.252.278zm10.915-.597c.051-.044.122-.04.109.05.004.214-.001.424 0 .637v3.53c.002.116.006.256.115.328.189.115.421.127.62.22.092.07.003.208-.094.208H33.344c-.069 0-.16-.015-.18-.092-.026-.078.044-.145.116-.166.206-.068.388-.078.562-.222.145-.124.158-.326.16-.503v-2.703c.002-.093-.016-.2-.098-.258-.125-.088-.288-.085-.425-.145-.074-.028-.095-.144-.021-.184.166-.086.36-.105.524-.2.262-.148.66-.332.91-.5zm6.803-.004a2.42 2.42 0 011.5.267 2.54 2.54 0 011.265 1.86 2.855 2.855 0 01-.354 1.768 2.17 2.17 0 01-1.46 1.022c-.595.113-1.238.075-1.79-.184a2.061 2.061 0 01-1.044-1.167 3.113 3.113 0 01-.05-1.962c.16-.525.498-1.008.983-1.293a2.41 2.41 0 01.95-.311zm.044.31c-.516.134-.846.607-1 1.08-.222.705-.25 1.49.032 2.184.153.38.388.75.752.968.377.228.886.172 1.236-.081.35-.25.55-.65.66-1.05.162-.62.18-1.29-.035-1.9-.147-.422-.386-.84-.778-1.087a1.098 1.098 0 00-.867-.114zm8.26-.323c.274-.043.552-.024.828-.016.224.016.46.028.66.139.12.067.177.205.185.336.013.217.011.436-.003.654-.01.053-.01.126-.068.153-.108.021-.191-.069-.238-.152-.124-.214-.214-.46-.418-.618-.262-.202-.637-.232-.946-.126a.692.692 0 00-.456.661c-.008.26.187.467.382.618.473.358 1.028.595 1.496.96.263.204.508.469.566.803a1.329 1.329 0 01-.68 1.347c-.436.239-.955.252-1.441.214-.294-.027-.596-.057-.867-.178-.113-.054-.243-.143-.245-.28-.004-.252-.004-.505.002-.757.007-.081.009-.199.104-.229.1-.034.144.085.176.155.117.32.316.623.61.812.336.216.79.193 1.133.008a.736.736 0 00.382-.673c.003-.262-.168-.49-.373-.64-.528-.394-1.206-.575-1.663-1.062-.423-.445-.371-1.177-.011-1.641.211-.273.544-.435.885-.487zm-39.401.232c-.09-.094 0-.244.116-.235.465-.022.93.04 1.395.01.221.003.448-.045.667.009.088.015.135.148.054.205-.148.093-.363.073-.465.239-.069.142.062.27.121.387.21.328.438.646.698.933.053.046.108.13.187.103.123-.054.19-.186.257-.299.152-.284.315-.562.462-.85.04-.105.11-.246.035-.349-.14-.1-.326-.07-.47-.157-.072-.061-.047-.21.05-.222.276-.039.556.005.832.006.361.019.722-.04 1.082-.014.082.01.207.039.205.15.009.118-.132.118-.208.138-.372.073-.766.211-.994.551-.308.41-.615.818-.925 1.226-.04.06-.091.12-.095.197.032.118.106.218.17.32.317.474.68.911 1.017 1.369.149.207.296.425.507.569.15.111.329.165.485.265.058.03.034.207.034.207h-2.17s-.153-.135-.092-.198c.135-.135.349-.158.462-.32.048-.066-.01-.136-.043-.191-.266-.373-.516-.759-.77-1.14-.035-.05-.071-.1-.128-.12-.115.029-.193.13-.269.218-.2.248-.369.525-.494.823-.057.131-.085.296.004.42.106.179.324.197.473.316.072.058-.051.19-.051.19h-1.75s-.287.012-.392-.087c-.038-.11.074-.179.157-.21.273-.108.568-.212.767-.451.367-.428.72-.867 1.066-1.315.061-.085.13-.167.175-.263-.003-.093-.066-.165-.116-.236L11.23 27.63c-.087-.11-.171-.239-.308-.282-.107-.041-.229-.04-.325-.106z" fill="#fff"/><defs><linearGradient id="paint0_linear" x1="10.418" y1="9.712" x2="68.147" y2="76.017" gradientUnits="userSpaceOnUse"><stop stop-color="#1A1E21"/><stop offset="1" stop-color="#06060A"/></linearGradient><linearGradient id="paint1_linear" x1="10.418" y1="9.712" x2="68.147" y2="76.017" gradientUnits="userSpaceOnUse"><stop stop-color="#1A1E21"/><stop offset="1" stop-color="#06060A"/></linearGradient></defs></svg>