<!-- by TradingView --><svg width="56" height="56" fill="none" xmlns="http://www.w3.org/2000/svg"><path fill="#1A64B7" d="M0 0h56v56H0z"/><circle cx="28" cy="28" r="28" fill="#1A64B7"/><path d="M44.403 29.429h-1.36l1.637-3.136h.026l-.303 3.136zm-29.484-.104h-1.582l1.774-2.603-.192 2.603zm34.211 1.288L50.833 25h-2.348l-1.936 6.374L46.506 25h-2.829l-3.846 6.244L41.727 25h-2.23l-.96 3.925h-.04L37.854 25H35.43l-1.703 5.613h-3.352L30.834 29h2.935l.424-1.282h-2.936l.397-1.3h3.028L35.107 25H23.943l-.19.65c-.343-.486-1.082-.782-2.225-.782-1.823 0-3.162.669-3.56 1.978-.187.613-.064 1.038.256 1.391.333.353.865.622 1.501.91.54.26 1.174.482.994 1.067-.106.351-.454.695-1.006.695-.743 0-.812-.389-.7-.753.11-.364.27-.529.27-.529H17.33c-.277.181-.329.534-.329.534V25h-2.786l-1.506 2.327.43-1.327H8.81l.639-2h4.62l.708-2h-7.36L4 32h2.814l1.427-4h3.979l-2.565 4h2.362l.69-1.343h2.063L14.694 32H17v-.674c.294.491.901.836 2.284.836 1.95 0 3.245-.742 3.652-2.08.258-.843.079-1.307-.36-1.659-.44-.353-1.128-.594-1.892-.983-.41-.223-.654-.437-.46-.854.148-.306.486-.492.963-.463.77.037.863.609.627.877h2.163c.076-.16.066-.414 0-.581h1.385l-1.704 5.583h2.349l1.703-5.583h1.596l-1.703 5.583h7.936l.972-3.887.031-.02.654 3.907h4.528l.691-1.346h1.842l-.078 1.346h7.396l.425-1.39-2.87.001z" fill="#fff"/></svg>