<!-- by TradingView --><svg width="56" height="56" fill="none" xmlns="http://www.w3.org/2000/svg"><path fill="#E2231A" d="M0 0h56v56H0z"/><path fill-rule="evenodd" clip-rule="evenodd" d="M27.189 23.325C25.253 20.94 21.446 19 17.2 19a13.614 13.614 0 00-7.271 2.099l.905 1.272a12.193 12.193 0 016.366-1.813c3.277 0 6.273 1.304 7.865 2.767h2.123zm6.085 9.19c1.654 1.56 4.682 2.926 8.021 2.926 2.403 0 4.681-.73 6.586-1.94l.842 1.305C46.57 36.173 44.01 37 41.295 37c-4.306 0-8.145-2.004-10.112-4.484h2.091zm-27.62-6.391v1.05h1.78v1.43h-1.78v2.403H4v-6.315h3.62v1.432H5.654zM9.9 29.685h1.935v1.323h-3.59v-6.316H9.9v4.993zm8.614-1.907c0 2.098-1.468 3.561-3.465 3.561-2.028 0-3.495-1.463-3.495-3.561 0-1.94 1.685-3.276 3.495-3.276s3.464 1.335 3.464 3.276zm-5.244.031c0 1.081.812 1.908 1.78 1.908.967 0 1.778-.827 1.778-1.908 0-.89-.811-1.717-1.779-1.717-.967 0-1.779.827-1.779 1.717zm7.74 1.018l1.342-4.135h1.28l1.248 4.135 1.186-4.135h1.716l-2.034 6.315h-1.654l-1.087-3.611h-.03l-1.224 3.61h-1.685L18.2 24.693h1.717l1.092 4.135zm10.206-2.48a1.584 1.584 0 00-1.062-.414c-.312 0-.717.159-.717.54 0 .35.436.51.748.605l.406.127c.874.254 1.358.536 1.502 1.558 0 .636-.069 1.226-.569 1.64-.499.445-1.154.604-1.779.604a3.645 3.645 0 01-2.216-.732l.687-1.336c.406.35.905.668 1.467.668.375 0 .78-.19.78-.668 0-.445-.624-.604-.998-.7-1.03-.317-1.714-.303-1.714-1.543 0-1.304.905-2.163 2.154-2.163.655 0 1.404.191 1.965.54l-.654 1.273zm3.152-.223v1.05h1.841v1.43h-1.841v1.081H36.3v1.322h-3.557v-6.315H36.3v1.432h-1.934zm8.02 4.883H40.36l-1.56-2.37v2.37h-1.654v-6.315h2.465c1.248 0 2.185.605 2.185 1.972 0 .89-.5 1.654-1.374 1.813l1.966 2.53zm-3.589-3.42h.156c.53 0 1.124-.128 1.124-.796 0-.7-.593-.827-1.124-.827h-.156v1.622zm6.087 1.017l1.528-3.912h1.748l-2.684 6.315H44.23l-2.653-6.315h1.78l1.529 3.912zm5.18-2.48v1.05h1.841v1.43h-1.841v.972H52v1.43h-3.59v-6.314H52v1.432h-1.935z" fill="#fff"/></svg>