<!-- by TradingView --><svg width="56" height="56" fill="none" xmlns="http://www.w3.org/2000/svg"><path fill="#EE2E30" d="M0 0h56v56H0z"/><circle cx="28" cy="28" r="28" fill="#EE2E30"/><path fill-rule="evenodd" clip-rule="evenodd" d="M52 35h-5.179c-2.82 0-5.816-1.925-5.821-7.127-.004-4.26 2.72-6.873 5.821-6.873H52v5h-4a2 2 0 100 4h4v5zM4 28a2 2 0 012-2h3v-5h11v4h-6v1h4a2 2 0 110 4h-4v5H9v-5H6a2 2 0 01-2-2zm29 7l2-10.084V35h5V21h-4.854c-2.849 0-3.165 1.372-3.549 3.041l-.021.096L30.5 29l-.833-4.863-.022-.093c-.382-1.67-.697-3.044-3.549-3.044H21v14h5V24.916L28 35h5z" fill="#fff"/></svg>