<!-- by TradingView --><svg width="56" height="56" fill="none" xmlns="http://www.w3.org/2000/svg"><path fill="#41229A" d="M0 0h56v56H0z"/><circle cx="28" cy="28" r="28" fill="#41229A"/><path d="M28.005 12a16.47 16.47 0 00-2.965.268l5.255 20.022 10.048-14.472A15.94 15.94 0 0028.005 12zm-9.356 3.03C14.623 17.928 12 22.656 12 27.994c0 7.01 4.497 12.967 10.768 15.128l5.578-8.035-9.697-20.059zm24.88 9.059L31.255 35.947l1.894 7.213C39.465 41.017 44 35.042 44 28.005c0-1.358-.157-2.67-.471-3.916zM29.565 37.59l-5.993 5.79c1.404.407 2.9.619 4.433.619a16.13 16.13 0 004.359-.6l-2.799-5.81z" fill="#fff"/></svg>