<!-- by TradingView --><svg width="56" height="56" fill="none" xmlns="http://www.w3.org/2000/svg"><path fill="#09382B" d="M0 0h56v56H0z"/><circle cx="28" cy="28" r="28" fill="#09382B"/><path fill-rule="evenodd" clip-rule="evenodd" d="M34.026 37.178s.102-.102.102-.203c0-.203-.203-.102-.507-.304-.102 0-.102-.102-.203-.102-.304-.304-.203-.608-.304-1.014l-.203-.406s.406.203 1.115.609c.812.507.508 1.217.508 1.217s.405.304.71-.102c.1-.202.202-.405.405-.608.304-.608.203-1.319.203-1.319s-.203-.202-.304-.608c-.203-.304-.609-.71-.609-.71-.913-.811-2.23-.608-3.346-1.014-.609-.304-1.116-.609-1.116-.609s-.203-.202-.406-.304c-.203-.101-.405-.101-.405-.101s-.406-.102-.913 0c-.305.101-.609.304-.609.304s.507-.101.812.203c.203.304.304.608.405.913.203.304.406.405.406.405s-.304 0-.71.305c-.406.304-.608.71-.608.71s.507-.305 1.014 0c.405.202.608.202.608.202s-.507.406-.811.812c-.406.405-.203.811-.203.811s.102-.203.304-.203c.203-.101.507 0 .507 0s-.304.102-.507.507c-.304.406-.608.507-.608.507s.101.203.507.203c.405 0 .71-.203.913-.304.203-.203.507-.203.507-.203-.305.913.203 1.217.203 1.217s.101-.406.507-.811c.507-.507 1.217-.507 1.217-.507s.304-.102.811.101c.406.102.608.406.608.406z" fill="#fff"/><path d="M34.143 37.275c-.52-.529-1.12-.545-1.356-.487-.435-.083-1.077.745-1.343 1.17l-.672.695-2.387-.927-.347-1.587-.707-3.116.579-1.518c.417-.004 1.378-.044 1.832-.035.455.01.786.418.902.603.807.085 3.847.615 4.504 1.743 1.622 1.186.682 2.798.037 3.459-.131.22-.523.528-1.042 0z" fill="#fff"/><path fill-rule="evenodd" clip-rule="evenodd" d="M33.623 36.566c-.304-.305-.203-.609-.406-1.015-.101-.405-.101-.304-.101-.304s.406.203 1.116.609c.81.507.507 1.217.507 1.217s0 .101.203.101c.202.101.304-.101.202 0 .102.101.102.203.102.203s.203.913-.406 1.318c-.507.304-1.217.203-1.217.203s.609-.101.71-.811c.101-.406-.203-.812-.203-.812s.102-.101.102-.202c0-.305-.305-.203-.609-.508zm-14.401-9.128c.203.304.304.507.304.507-.203.203-.203.608 0 .913.203.405.304.71.304.71s-.202.202-.101.507c.101.507.304 1.014.811 1.521.609.71.812 1.116.812 1.116s-.203.304.101.71c.304.507 1.116.81 1.318 1.217.102.507.812.507.913.81.102.407.507.61.71.812.203 0 .406.102.406.304.101.406.912.508 1.318.812 0 0-1.927.71-3.55 1.42-1.825.71-2.738-.406-2.738-.406s.305 1.927 2.13 2.231c.913.203 1.826 0 1.826 0s-.508.507-1.217.913c-.812.406-1.217.203-1.217.203s.405.71 1.724.405c.608-.101 1.115-.507 1.115-.507s0 .406-.608.71c-.507.406-.812.406-.812.406s.406.101.913.406c.406.203.913.405 1.521.405.508-.101 1.116-.507 1.116-.507s-.101.304-.101.406c0 .304.101.405.101.405s.101-.81 1.825-.202c1.826.608 2.637.203 2.637.203s-.304-.203-.507-.406c-.101-.203-.101-.406-.101-.406s.507.507 2.028.102c1.116-.203 1.927-1.116 1.927-1.116s-1.318-.203-2.13-2.231c-.507-1.217-.304-1.927 0-2.333.305-.507.812-.71.812-.71s-.71 0-1.217.507c-.406.406-.507.71-.507.71s-.508-.304-.305-1.217c0 0-.203 0-.507.203-.101.203-.405.406-.811.406-.406-.102-.507-.203-.507-.203s.405-.101.608-.507c.203-.507.508-.609.508-.609s-.203-.101-.508 0l-.405.203s-.102-.304.202-.71c.406-.507.913-.811.913-.811s-.304-.102-.71-.304c-.507-.304-1.014 0-1.014 0s.203-.406.71-.71c.406-.304.609-.406.609-.406s-.203 0-.406-.304c-.102-.304-.203-.609-.406-.811-.304-.406-.811-.305-.811-.305s.304-.203.608-.304c.507-.203.913-.101.913-.101s-1.521-1.725-2.332-4.159c-.102-.202-.203-.405-.203-.608-1.217-4.564-1.623-4.767-1.623-4.767-.304 0-.304.406-.304.406s-.406-.304-1.724-2.637c-.507-1.014-1.014-2.637-1.116-2.637-.101.102-.304.305-.304.812v.811s-.811-1.014-1.521-2.738c-.508-1.217-.812-2.84-1.014-2.739-.305.102-.61.508-.508 1.116.102.609.609 2.333.609 2.333s-.811-.812-1.42-1.927c-.608-1.014-1.116-2.738-1.318-2.738-.305.1-.609.912.202 2.84.406 1.115.812 1.825.812 1.825s-1.116-.406-1.826-2.434c-.811-2.029-.912-3.246-.912-3.246s-.203-.101-.406.406c-.203.406-.203 1.623.304 3.043.507 1.52.913 2.028.913 2.028s-.811-.304-1.319-1.217c-.71-.913-1.115-2.434-1.115-2.434s-.102.101-.203.304c-.101.203-.304 1.014.203 2.333.203.71.811 1.52.811 1.52s-.507-.202-.811-.608c-.304-.202-.609-.71-.609-.71-.405.102-.101 1.217.305 1.826.202.811.608 1.116 1.115 1.623.507.608.507.912.507.912-.203.305.609 1.116.913 1.319.507.405.608.507.608.507s-.405.203.508 1.014c.304.203.405.304.405.304s-.71.203.913 1.522c.406.304.507.507.507.507-.304.304-.203.507.102.912.1.203.202.508.202.508s-.304.101 0 .608c0 0 .102.102.102.203zm12.575 5.274c1.116.405 2.536.202 3.347 1.115 0 0-.101-.203-.101-.507-.102-.608.101-.71.71-1.724 1.217-1.623 5.273-5.882 5.882-7.404.304-.608.608-1.825.913-2.84a25.19 25.19 0 00.608-2.737c-.405-.203-.71.608-1.014 1.52a3.272 3.272 0 01-.203.61s-.101-.406.203-1.623c.203-1.014.406-1.319.406-1.319-.203-.203-.812.102-1.116 1.217l-.406 1.217s-.1 0-.1-.507c-.102-.507.1-.811.1-.811s-.405 0-.81.811c-.204.406-.305 1.116-.305 1.116-.102-.203-.102-.71-.102-.71-.202 0-.507.405-.608.913-.203.405-.203 1.014-.203 1.014-.203-.102-.203-.406-.203-.406s-.405.203-.608 1.116v.71c-.203-.102-.203-.406-.203-.406-.304.101-.608.608-.811 1.521 0 0-.305-.101-.507.203-.203.304-.406 1.014-.71 1.217-.203-.101-.406.101-.507.203-.203.304-.406.71-.609.913-.101-.102-.406 0-.507.101-.203.203-.406.71-.608.811-.102-.101-.406 0-.508.102-.101.101-.101.405-.304.608-.203-.101-.304 0-.405.203-.203.203-.203.406-.406.609-.203-.102-.406.101-.507.202-.102.102-.203.406-.304.609-.508.101-.71 1.623-.71 1.623s.507.405 1.216.71z" fill="#DDAD1B"/></svg>