<!-- by TradingView --><svg width="56" height="56" fill="none" xmlns="http://www.w3.org/2000/svg"><path fill="#F6F8FD" d="M0 0h56v56H0z"/><circle cx="28" cy="28" r="28" fill="#F6F8FD"/><path d="M27 35.437v9.867c0 .626.737.94 1.194.47l12.197-12.582a1.028 1.028 0 000-1.462l-4.934-5.015L27 35.437z" fill="#CB2C30"/><path d="M42.322 18H27l8.46 8.718 7.32-7.517c.457-.418.152-1.201-.458-1.201zM27 35.437V18H11.678c-.61 0-.915.73-.458 1.2L27 35.438z" fill="#00A3E0"/><path d="M35.462 26.718L27 18v17.437l8.462-8.718z" fill="#512D6D"/></svg>