<!-- by TradingView --><svg width="56" height="56" fill="none" xmlns="http://www.w3.org/2000/svg"><path fill="#64BE49" d="M0 0h56v56H0z"/><circle cx="28" cy="28" r="28" fill="#64BE49"/><path d="M31 27.63L22 33v5.06l9-5.45v-4.98zM28 12c-8.837 0-16 7.163-16 16 0 5.017 2.31 9.495 5.924 12.43L22 38.06A11.665 11.665 0 0116.305 28c0-6.46 5.236-11.696 11.696-11.696 2.18 0 4.22.598 5.968 1.638L22 25v5l12-7v-5.057a11.662 11.662 0 015.696 10.056c0 6.46-5.236 11.698-11.696 11.698-2.182 0-4.252-.598-6-1.637v4.788A16.102 16.102 0 0028 44c8.837 0 16-7.163 16-16s-7.163-16-16-16z" fill="#fff"/></svg>