<!-- by TradingView --><svg width="56" height="56" fill="none" xmlns="http://www.w3.org/2000/svg"><path fill="#F0F3FA" d="M0 0h56v56H0z"/><circle cx="28" cy="28" r="28" fill="#F0F3FA"/><path d="M43.688 25.714H28v5.742h9.044C35.722 35.181 32.178 37.6 28 37.6a9.599 9.599 0 01-9.6-9.6c0-5.303 4.297-9.6 9.6-9.6a9.54 9.54 0 016.369 2.431l4.525-4.525C36.038 13.644 32.216 12 28 12c-8.837 0-16 7.163-16 16s7.163 16 16 16 16-7.163 16-16c0-.865-.11-1.27-.313-2.286z" fill="#FFC107"/><path d="M13.844 20.553l5.26 3.856C20.524 20.888 23.968 18.4 28 18.4a9.54 9.54 0 016.369 2.431l4.525-4.525C36.038 13.644 32.216 12 28 12c-6.147 0-11.475 3.469-14.156 8.553z" fill="#FF3D00"/><path d="M28 44c4.131 0 7.888-1.581 10.728-4.153l-4.953-4.19A9.535 9.535 0 0128 37.6c-4.163 0-7.694-2.653-9.025-6.356l-5.219 4.019C16.403 40.443 21.781 44 28 44z" fill="#4CAF50"/><path d="M43.688 25.714H28v5.742h9.044c-.635 1.79-1.788 3.075-3.272 4.2h.003l4.953 4.19C38.378 40.164 44 36 44 28c0-1.072-.11-1.27-.313-2.286z" fill="#1976D2"/></svg>