<!-- by TradingView --><svg width="56" height="56" fill="none" xmlns="http://www.w3.org/2000/svg"><path fill="#102E87" d="M0 0h56v56H0z"/><circle cx="28" cy="28" r="28" fill="#102E87"/><path d="M15.748 20.638l24.456.026.983 1.712v11.267l-.907 1.639H15.745l-1.15-1.978V22.75l1.153-2.112z" fill="#fff"/><path d="M20.07 15h15.79c.723.054 1.44.665 1.782 1.266A298.417 298.417 0 0140.401 21H15.544s1.862-3.247 2.647-4.602c.374-.628 1.084-1.356 1.879-1.398z" fill="#FDB314"/><path d="M21.492 22.021c1.052.086 2.483.51 2.508 1.795V26h-1.995v-1.828c-.025-.524-.45-.777-.996-.777-.502 0-1.009.189-1.009.777v7.63c.022.508.436.8.99.824.455 0 1.015-.21 1.015-.676V30H21v-1.987h3v4.188c-.049 1.012-.985 1.535-1.883 1.7-.53.104-1.07.113-1.6.087-.873-.067-2.031-.334-2.384-1.258a2.085 2.085 0 01-.132-.797v-8.004c-.041-1.727 2.193-2.029 3.491-1.907zM33.805 22.117a6.095 6.095 0 012.135-.043c.963.152 2.036.662 2.06 1.776V26h-2v-1.86c-.024-.468-.54-.736-.995-.758-.51.024-.986.348-1.008.844v7.561c.021.49.428.799.97.823.46 0 1.003-.178 1.03-.65V29H38v3.16c-.04 1.711-2.28 1.906-3.543 1.82-1.098-.101-2.43-.572-2.457-1.872v-8.232c.023-1.021.908-1.549 1.805-1.759z" fill="#102E87"/><path d="M40 22h.969s1.728 2.947 2.537 4.312c.131.22.237.457.333.694.026.097.062.194.088.29l.026.14c.07.335.053.686 0 1.03-.017.078-.044.157-.061.236a3.777 3.777 0 01-.097.29.165.165 0 01-.017.062c-.044.088-.08.176-.114.264-.176.369-.395.712-.588 1.072-.343.571-.668 1.16-1.001 1.731-.342.572-.731 1.316-1.074 1.879H40V22zM15 22h1v12h-1s-1.68-2.924-2.47-4.287c-.307-.545-.562-1.151-.527-1.793-.017-.343.07-.685.185-1.002.026-.07.061-.132.087-.202.185-.387.422-.747.632-1.116.676-1.134 1.435-2.475 2.094-3.6z" fill="#FDB314"/><path d="M29.447 22.226c-.678-.198-1.384-.234-2.09-.225H25V34h2v-4.478s1.6.045 2.23-.099c1.123-.243 1.75-1.269 1.77-2.392v-2.636c0-1.062-.514-1.865-1.553-2.169zM29 24.64v2.623c0 .918-1.465.737-2 .737v-4.5c1.295 0 2-.054 2 1.14z" fill="#102E87"/><path d="M15.588 35.004h24.859c-.477.83-3.221 5.33-3.221 5.33-.449.592-1.205.655-1.478.655-.273.001-10.203.01-15.23.01-.913.032-1.812-.538-2.331-1.282-.86-1.536-2.6-4.713-2.6-4.713z" fill="#FDB314"/></svg>