<!-- by TradingView --><svg width="56" height="56" fill="none" xmlns="http://www.w3.org/2000/svg"><path fill="#122344" d="M0 0h56v56H0z"/><circle cx="28" cy="28" r="28" fill="#122344"/><path d="M40.51 16H36v1h1.017v21.35c-.03.463-.204.65-.902.65H36v1h5v-1h-.783c-.815 0-1.188-.332-1.217-1.056V30h1.83c2.037 0 3.17-1.145 3.17-2.448v-8.887C44 17.362 43.041 16 40.51 16zm1.432 6.834v4.805c0 .723-.413 1.39-1.315 1.361H39V17h1.51c.815 0 1.432.535 1.432 1.346v4.487zM16 30h1v8.118c.03.724-1.015 1.332-1.742 1.36h-.029c-.727 0-1.229-.607-1.229-1.36V18.345c0-.55.356-1.824 1.287-1.795.757 0 1.213.695 1.446 1.766.262 1.1.58 2.957.777 5.163 0 .377.145.521.553.521H19v-8h-1v.55c0 .376-.203.348-.406.232-.699-.463-1.783-.782-2.54-.782-1.25 0-3.054.55-3.054 2.924v17.457c.03 3.04 1.63 3.59 3.23 3.619 1.22 0 2.258-.637 2.724-.868.32-.145.553.405.553.868H19V30h1v-1h-4v1zm10.73-1l1.135-9.497L29.145 29h-2.414zm5.586 9.024L29.582 16h-2.153l-2.734 22.082c-.146.695-.648.86-1.695.918v1h4v-1c-.378.029-.91-.02-1.2-.252a.708.708 0 01-.175-.464L26.644 30h2.618l1.076 8.284c0 .55-.058.687-.727.716H29v1h5v-1h-.52c-.844 0-1.105-.455-1.164-.976z" fill="#fff"/></svg>