<!-- by TradingView --><svg width="56" height="56" fill="none" xmlns="http://www.w3.org/2000/svg"><path fill="#64A8F0" d="M0 0h56v56H0z"/><circle cx="28" cy="28" r="28" fill="#64A8F0"/><path fill-rule="evenodd" clip-rule="evenodd" d="M37 6v7.105h-1.614c-.923-3.49-2.922-6.108-5.69-6.233-1.846-.124-2.921.748-3.845 1.995-.922 1.495-1.384 4.612-1.384 8.351 0 3.49.154 6.107.616 7.977.307.873 1.076 2.244 3.075 2.244 1.076 0 1.846-.25 2.307-.748.77-.748.535-2.244.535-3.24v-3.366c0-1.247-.074-1.994-.843-2.368-.615-.25-1.696-.25-2.157-.374V16h9v18h-1.307c-.46-1.37-.768-2.074-1.537-3.196-.77-1.121-2.153-2.367-4.46-2.367-2.46-.126-4.306 1.121-4.306 2.99 0 2.494 1.845 3.117 5.229 4.612C33.849 37.535 38 38.782 38 43.144 38 47.382 33.54 50 28.466 50H20v-9h1.391c1.385 6.481 4.768 8.002 7.075 8.002 2.922 0 4.305-1.495 4.305-3.614-.153-2.743-2.46-3.74-5.69-5.11-4.612-2.12-6.766-3.117-6.766-6.607.154-2.991 3.076-4.861 6.305-5.608-6.766-.624-8.765-5.61-8.612-10.97C18.008 11.733 21.853 6 29.388 6H37z" fill="#fff"/></svg>