<!-- by TradingView --><svg width="56" height="56" fill="none" xmlns="http://www.w3.org/2000/svg"><path fill="#5BA63C" d="M0 0h56v56H0z"/><path fill-rule="evenodd" clip-rule="evenodd" d="M14.026 20.112v15.776a2 2 0 00.944 1.699l3.056 1.898v-22.97l-3.056 1.898a2 2 0 00-.944 1.7zM19 40.09V15.91l4-2.485v13.394l1-.64V12.804l3.457-2.148c.171-.106.354-.184.543-.235V23.62l1-.64V10.415c.198.05.39.13.568.24L33 12.789v12.38l-10 6.4v11.007l-4-2.485zm9 5.489a2.004 2.004 0 01-.543-.235L24 43.196v-10.81l10-6.4V13.409l4 2.485v24.212l-4 2.485V30.734l-1 .64v11.839l-3.432 2.131c-.178.111-.37.192-.568.241v-11.65l-1 .64v11.004zm15-9.69V20.111a2 2 0 00-.945-1.699L39 16.515v22.97l3.055-1.898A2 2 0 0043 35.888z" fill="#fff"/></svg>