<!-- by TradingView --><svg width="56" height="56" fill="none" xmlns="http://www.w3.org/2000/svg"><path fill="#E23A2C" d="M0 0h56v56H0z"/><path d="M8 32H4v-.62c.397-.03 1.169.086 1.256-.446.028-.126.042-.315.042-.567V24.62c0-.26-.014-.445-.042-.553-.02-.108-.053-.184-.1-.23-.24-.226-.861-.186-1.156-.215V23h4v.62c-.276.025-.85.018-1.075.23-.048.045-.08.121-.1.23a3.002 3.002 0 00-.028.499v2.45h4.537v-2.41c0-.26-.01-.445-.029-.553-.019-.108-.052-.184-.1-.23-.228-.215-1.17-.215-1.17-.215V23H14v.62c-.267.024-.838.026-1.054.23a.498.498 0 00-.085.23 5.97 5.97 0 00-.015.499v5.842c0 .234.005.405.015.513.084.44.795.422 1.139.445V32h-4v-.62c.405-.03 1.216.102 1.305-.446a4.13 4.13 0 00.029-.567V28.03H6.797v2.392c0 .234.01.405.028.513.086.447.834.423 1.175.445V32zm11 0h-4v-.607c.295-.027.68-.063.804-.108a.998.998 0 00.285-.135c.114-.099.224-.243.328-.432.115-.189.257-.481.428-.877L19.629 23h.999l2.61 6.895c.143.36.262.643.357.85.105.207.214.355.329.445.066.045.166.086.3.122.142.027.501.054.777.08V32h-4.416v-.607c.276-.027.5-.054.67-.081.172-.027.3-.059.386-.095.095-.036.157-.076.185-.121a.298.298 0 00.057-.175c0-.126-.028-.27-.085-.432a6.356 6.356 0 00-.243-.648L21.212 29h-3.025l-.357.828c-.076.18-.138.332-.185.458l-.1.31a1.343 1.343 0 00-.058.203.871.871 0 00-.014.149c0 .072.015.13.043.175.038.036.11.072.214.108.105.036.252.067.442.094.19.018.514.04.828.068V32zm1.94-3.98c-.18-.45-.332-.833-.456-1.147a66.732 66.732 0 01-.314-.837 43.52 43.52 0 00-.228-.634c-.067-.18-.129-.355-.186-.526-.066.17-.138.346-.214.526-.066.18-.147.391-.242.634l-.343.837-.485 1.146h2.468zm8.6 3.98H26v-.62c.238-.01.4-.023.542-.041.18-.032.46-.057.572-.216.047-.072.076-.184.085-.337.01-.153.015-.4.015-.742v-1.012-.999c.01-.35.014-.697.014-1.039v-.918c.01-.278 0-.543 0-.714 0-.32-.008-.628-.029-.947-.009-.144-.028-.413-.057-.459-.085-.125-.252-.215-.499-.27a7.006 7.006 0 00-.4-.053L26 23.62V23h2.626c.837 1.035 1.684 2.442 2.54 3.495a963.015 963.015 0 002.597 3.117l-.029-1.35-.028-1.295c0-.405-.005-.756-.014-1.052v-.621c-.01-.342-.024-.778-.043-.931-.01-.153-.038-.441-.086-.513-.061-.087-.186-.15-.628-.175a12.42 12.42 0 00-.556-.054V23h3.61v.62c-.22.019-.404.037-.557.055a3 3 0 00-.356.04.552.552 0 00-.214.054c-.21.08-.203.347-.229.54-.01.144-.014.598-.014.985V32h-.899a37.658 37.658 0 00-.542-.688 75.517 75.517 0 00-1.084-1.35c-.457-.566-1.018-1.25-1.684-2.05-.657-.801-1.432-1.921-2.326-2.982v.944c.01.342.014.688.014 1.039.01.342.015.68.015 1.012.01.324.014.625.014.904.01.27.014.675.014.864v.863c.01.126.015.23.015.31.031.274.2.39.47.432.171.018.476.045.913.081V32zm14.443-2.456L44 32h-7v-.607c.666-.054 1.042-.122 1.127-.203.067-.063.105-.162.114-.296a4.18 4.18 0 00.029-.554v-5.748c0-.189-.005-.346-.014-.472-.01-.135-.038-.225-.086-.27-.057-.063-.171-.112-.342-.148a6.373 6.373 0 00-.828-.095V23h6.983v2.24h-.563c0-.74-.03-1.43-1.24-1.43l-2.398-.027v3.224h.129c.352 0 .642-.004.87-.013a7.61 7.61 0 00.585-.04c.152-.018.271-.041.357-.068a.92.92 0 00.214-.121c.076-.054.138-.153.185-.297.048-.144.095-.333.143-.567h.614v2.942h-.6a4.985 4.985 0 00-.142-.58.673.673 0 00-.172-.325.658.658 0 00-.228-.107 1.6 1.6 0 00-.37-.054 5.318 5.318 0 00-.6-.027 24.068 24.068 0 00-.885-.014h-.1v2.834c0 .18.024.315.072.404.057.081.166.135.328.162a6.45 6.45 0 001.141.108c.571 0 1.004-.031 1.299-.094.758-.162.798-1.606.798-1.606h.563zm2.62-.214c.191.792.289 1.237.517 1.417.443.364.974.499 1.67.499.57 0 1.013-.117 1.327-.35.314-.235.47-.514.47-.838 0-.17-.023-.323-.07-.458a.97.97 0 00-.23-.405 2.257 2.257 0 00-.47-.378 6.027 6.027 0 00-.785-.432l-.842-.404a6.527 6.527 0 01-1.055-.594 3.171 3.171 0 01-.657-.607 2.095 2.095 0 01-.328-.648 2.955 2.955 0 01-.086-.729c0-.368.086-.697.257-.985.171-.296.404-.544.7-.742a3.44 3.44 0 011.084-.472 5.074 5.074 0 011.37-.175c.905 0 1.548.199 2.282.769l-.014 1.754h-.642a10.28 10.28 0 00-.2-.77c-.122-.404-.33-.7-.742-.85-.237-.09-.585-.134-1.041-.134-.485 0-.89.108-1.213.324a1.028 1.028 0 00-.485.904c0 .152.024.296.071.431.048.126.124.248.228.365.105.117.243.233.414.35.181.117.395.239.642.365l.87.445c.457.234.838.45 1.142.648.305.198.542.396.714.594.18.197.309.409.385.634.076.215.114.463.114.742 0 .35-.08.674-.243.971a2.186 2.186 0 01-.67.77 3.135 3.135 0 01-1.042.499c-.409.126-.87.189-1.384.189-.694 0-1.266-.065-1.884-.378-.265-.134-.471-.122-.777-.122v-2.2h.604z" fill="#fff"/></svg>