<!-- by TradingView --><svg width="56" height="56" fill="none" xmlns="http://www.w3.org/2000/svg"><path fill="#E05929" d="M0 0h56v56H0z"/><circle cx="28" cy="28" r="28" fill="#E05929"/><path d="M26 12c-2.455 0-3 2.045-3 4.5v4c0 1.227-1.328 2.5-2.556 2.5h-4C13.99 23 12 23.545 12 26h9.778C24.723 26 26 24.723 26 21.778V12zM12 30c0 2.455 1.934 3 4.389 3h4C21.616 33 23 34.328 23 35.556v4C23 42.01 23.545 44 26 44v-9.778C26 31.277 24.723 30 21.778 30H12zM44 26c0-2.455-2.045-3-4.5-3h-4c-1.227 0-2.5-1.273-2.5-2.5v-4c0-2.455-.545-4.5-3-4.5v9.778C30 24.723 31.277 26 34.222 26H44zM30 44c2.455 0 3-1.99 3-4.444v-4C33 34.328 34.273 33 35.5 33h4c2.455 0 4.5-.545 4.5-3h-9.778C31.277 30 30 31.277 30 34.222V44zM25.438 28.08a.102.102 0 010-.16c.38-.297 1.702-1.366 2.477-2.463a.104.104 0 01.17 0c.775 1.097 2.097 2.166 2.477 2.462a.102.102 0 010 .162c-.38.296-1.702 1.365-2.477 2.462a.104.104 0 01-.17 0c-.775-1.097-2.097-2.166-2.477-2.462z" fill="#fff"/></svg>