<!-- by TradingView --><svg width="56" height="56" fill="none" xmlns="http://www.w3.org/2000/svg"><path fill="#00704A" d="M0 0h56v56H0z"/><circle cx="28" cy="28" r="28" fill="#00704A"/><path d="M10 33.21V22.79c0-2.041.55-2.54 3.601-3.403C18.684 17.951 24.617 18 27 18v-2H8v24h19v-2c-4.06-.005-8.861-.078-13.528-1.397C10.42 35.741 10 35.251 10 33.21zM46 33.21V22.79c0-2.041-.707-2.557-3.758-3.42C38.215 18.232 33.06 18.004 29 18v-2h19v24H29v-2c4.06-.005 9.769-.424 13.416-1.455C45.468 35.683 46 35.251 46 33.21z" fill="#fff"/><path d="M18 24v3h-3v-3h-2v8h2v-3h3v3h2.019v-8H18zM28 26v-2h-5.659c-.981 0-1.34.209-1.34 1.614v4.75C21 31.769 21.36 32 22.34 32h5.66v-2h-5v-1.01h5V27h-5v-1h5zM34.575 26.98H31V26h5v-2h-5.582c-1.12 0-1.418.234-1.418 1.622v1.79c0 1.61.296 1.588 1.418 1.588H34v1h-5v2h5.575c1.12 0 1.425-.256 1.425-1.644v-1.748c0-1.611-.303-1.628-1.425-1.628zM42.575 26.98H39V26h5v-2h-5.582c-1.12 0-1.418.234-1.418 1.622v1.79c0 1.61.296 1.588 1.418 1.588H42v1h-5v2h5.575c1.12 0 1.425-.256 1.425-1.644v-1.748c0-1.611-.303-1.628-1.425-1.628z" fill="#fff"/></svg>