<!-- by TradingView --><svg width="56" height="56" fill="none" xmlns="http://www.w3.org/2000/svg"><path fill="#38C6F4" d="M0 0h56v56H0z"/><circle cx="28" cy="28" r="28" fill="#38C6F4"/><path d="M37.71 9.117c.152.363.74 1.62.669 1.977-.027.138-.09.499-.14.587-.016.035-.116.208-.222.198-.22-.018-.236-.676-.306-.88-.095-.266-.27-.469-.485-.711-.066-.074-.227-.193-.304-.257-.483-.426-1.09-1.305-1.788-1.467-.003-.002-.008-.003-.013.006-.003.007.005.027.017.04.025.025.19.149.525.493.19.198.452.451.607.672.184.262.643.673.802.907.109.16.262.423.289.666.018.159.018.207-.075.227-.058.018-.455-.133-1.061-.18-.054 0-.563-.045-.619-.045-.767-.086-.719-.053-1.371-.257-.436-.138-.968-.327-1.442-.424-.058-.01-.685-.227-.725-.18-.028.03.183.16.227.18.185.082.721.28.927.378.26.128.494.23.727.32.36.141.701.27 1.135.37-.04.52-.142 1.388-.35 1.762a8.52 8.52 0 01-1.592 2.041c-.129.122-.252.3-.427.457-.149.137-.345.36-.487.394-.089.019-.212-.008-.316.014-.143.03-.256.11-.38.092-.123-.021-.165-.13-.272-.184a2.26 2.26 0 00-.549-.136c-.134-.015-.189 0-.166-.121 0-.005.01-.012.014-.089.03-.396.035-.766.032-1.046-.017-1.144-.738-2.053-1.167-2.827-.105-.19-.326-.62-.499-.817-.192-.215-.077.155-.047.275.036.137.157.292.197.407.03.065.054.161.077.226.227.675.807 1.587.893 2.403.004.051.016.117.013.153-.053.534-.131 1.206-.636 1.315a.402.402 0 01-.105.017c-.796-.005-1.484-1.093-1.836-1.663a7.69 7.69 0 01-.851-1.847c-.107-.343-.15-1.344-.185-1.706-.005-.06-.011-.434-.014-.483 0-.021-.008-.049-.023-.049-.041 0-.104.34-.126.427-.073.288-.093.918-.093 1.175 0 .715.212 1.432.503 2.058.174.38.556 1.136.77 1.498.064.107.224.314.213.393-.023.184-.373.18-.485.213-.55.081-1.284.01-1.929-.168-.622-.173-1.2-.375-1.714-.695-.055-.044-.116-.08-.152-.133-.685-.54-1.097-1.77-1.245-2.71a4.655 4.655 0 01-.033-.398c.063-.016.116-.032.172-.044.723-.183 1.697-.812 2.24-1.15.186-.113.369-.232.536-.372.02-.017.026-.026.02-.033-.002-.005-.017-.003-.037.005-.785.245-1.832.892-2.564 1.08-.053.014-.257.068-.391.091 0-.071.004-.21.005-.242.002-.085-.002-.164-.002-.236.083-.056.167-.144.283-.233.627-.493 1.045-1.906 1.475-2.603.005-.006.019-.03.014-.034-.006-.005-.017.002-.034.01-.755.356-1.113 1.91-1.787 2.354-.55.363-1.24.64-1.612 1.152-.042.06-.136.283-.212.304-.03.007-.14.105-.197.073-.201-.121-.382-.506-.52-.723-.198-.316-.144-1.237-.103-1.579.064-.527.5-1.208.755-1.643.005-.01.009-.014.005-.018-.003-.004-.01.001-.02.005-.102.04-.35.264-.391.309-.355.405-.812 1.08-.849 1.64-.037.529.108 1.705.454 2.052.06.075.124.139.2.195.422.378.618.94.834 1.486.068.18.142.32.26.483.385.578 1.118.89 1.773 1.215.622.307 1.351.625 2.05.846.44.14 1.022.282 1.548.378.2.039.376.076.476.16.071.06.116.31.157.433.05.159.11.313.153.433.116.323.187.633.308.868.17.313.574.448.946.586.048.008.276.077.543.062.17-.006.193.197.184.294-.008.138.012.23.009.367-.007.355.023.356-.022.66-.01.069-.092.282-.148.457-.012.027-.028.054-.033.079-.037.17-.057.487-.113.66-.05.18-.272.733-.328 1.575-.023.34-.149.662-.303.988-.073.154-.06.238-.116.41-.059.181-.092.32-.153.415a1.376 1.376 0 01-.187.234 7.18 7.18 0 00-.837.732c-.112.111-.23.392-.335.45-.07.039-.47.291-.565.32-.597.178-.736.277-1.212.572-1.027.635-8.138.604-8.006 5.574 0 .056-.015.171-.03.291a2.9 2.9 0 00.022.84c.112.705.308 1.354.568 1.894.444.918.857 1.45 1.513 2.041.166.15.357.273.52.432.327.32.499.934.748 1.354.027.028-.01.874-.01.883-.006.024-.016.17-.034.337-2.601.43-5.293.66-7.737.846v2h23v-7c-.156.037-1.334.346-1.983.588a3.669 3.669 0 00.122-.298c.138-.418.225-.87.377-1.193.1-.21.35-.863.35-.863.22-.701.311-1.16.39-1.62.013-.1.35-.519.35-.519.1-.13.18-.306.291-.466 0 0 .543-1.127.53-2.103-.006-.18.05-.987.044-1.688.004-.04.01-.076.01-.122a2.966 2.966 0 00-.03-.413c-.004-.027-.003-.056-.005-.082-.028-.18.012-.535.003-.695-.012-.212-.086-.189-.102-.407-.011-.148-.06-.262-.097-.401-.028-.102-.086-.193-.134-.284a1.114 1.114 0 01-.014-.12c.027-.755-.478-1.654-.49-1.686-.24-.55-.213-.57-.173-1.244-.027-.824-.164-1.27-.247-1.48-.034-.019-.29-.567-.373-.746a.351.351 0 01-.022-.228c.056-.235.466-.304.632-.416.106-.07.224-.251.273-.382a.109.109 0 00.008-.041v-.252c0-.02-.014-.034-.017-.052-.007-.038.005-.096.002-.138 0-.014 0-.026.003-.037.145-.445.294-.837-.13-1.06-.174-.093-.41-.132-.4-.308.006-.133.177-.182.278-.247.269-.175.452-.338.604-.586.064-.11.064-.399.142-.474.053-.053.202-.099.302-.151.322-.166.639-.274.926-.44.778-.443 1.617-1.294 2.215-1.907.295-.301.769-.845.986-1.238.174-.317.329-1.093.35-1.512.005-.1.029-.434.029-.45-.001-.016-.002-.034-.01-.034-.007-.002-.016.006-.019.015-.207.503-.405 1.419-.728 1.844-.24.312-.964 1.117-1.32 1.345l-.048.03c.01-.027.027-.065.035-.09a.563.563 0 00.03-.123c.082-.508.319-.867.319-1.727 0-.083.156-.233.196-.301.274-.464.306-1.095.228-1.57-.051-.313-.51-1.122-.68-1.314-.015-.019-.28-.341-.318-.301-.017.012.012.078.026.104zm-16.729 2.687c.173-.214.572-.448.729-.545a.633.633 0 00.052-.036c-.021.183-.033.35-.046.429-.087.033-.239.085-.395.142-.094.033-.216.108-.355.146-.107.027-.03-.079.015-.136zm.457 2.497a1.108 1.108 0 01-.167-.166c-.186-.169-.33-.473-.41-.774-.155-.586-.315-.468.046-.83.089-.094.232-.188.394-.274.101-.05.242-.122.337-.147.029-.008.041-.013.09-.023.005.063.012.154.014.26.06.965.219 1.712.621 2.424a8.678 8.678 0 01-.925-.47zm7.198 2.845c-.042-.035-.215-.064-.171-.202.015-.043.112-.074.14-.076.286-.054.758.083.603.355 0 0-.249.169-.262.17 0 0-.115-.047-.139-.061-.07-.046-.127-.154-.171-.186zM22.01 40.75c.074-.23.2-.474.439-.712.062-.061.592-.61.655-.694.207-.27.243-.328.486-.875a1.18 1.18 0 01.26-.37c.677-.32 1.35-.05 1.685-.139.25-.066.206-.257.256-.487.1-.006.206-.01.318-.011.24-.002.495-.068.72-.099l.463-.064c.585-.083.742-.203.742-.203.415-.107.837-.247 1.018-.386.19.024.292.46.428.688.135.23.15.314.274.474.012.015.173.359.34.743-1.856.756-4.803 1.51-8.084 2.135zm9.901-4.831c-.016.161-.038 1.606-.06 2.097-.214.076-.36.124-.47.156-.114-.42-.259-1.463-.298-1.553-.133-.304-.138-.54-.176-.947.34-.006.685-.032.992-.098.013.1.024.188.022.213 0 .025-.007.106-.01.132zm5.442-21.28c-.24.597-1.067 1.093-1.753 1.327-.191.064-.604.302-.73.214-.05-.038.214-.257.274-.306.596-.478 1.376-.838 1.97-1.29.144-.113.272-.212.3-.241-.006.06-.007.167-.06.296zm-.008-.988c-.59.73-1.83 1.105-2.502 1.575-.173.119-.313.278-.561.438-.075.045-.321.198-.488.274-.017.007-.1.077-.12.042-.04-.053.23-.357.258-.392.683-.876 1.307-1.731 1.44-3.056a4.9 4.9 0 00.026-.762c.058 0 .13.003.202.006.839.039 1.952.12 2.065.95.053.391-.15.713-.32.925z" fill="#95013D"/><path d="M29.156 21.388c.11-.08.04-.66.04-.677 0-.012-.079.081-.113.134-.035.054-.002.291-.002.298 0 .009.002.034.004.044.003.007-.004.016-.014.02-.009.003-.045.05-.121.11 0 0-.09.29.206.071zM34.468 20.067c-.135-.126-.081.045-.18.09-.14.08-.265.04-.485 0-.346-.305-.83.203-1.272-.035-.04-.06.024-.107.058-.151.393-.032.13.088.542.002 0 0 .18-.02.164-.07-.014-.045-.31.079-.643-.082-.352-.039-.12.3-.377.381-.098.031-.017.193.065.151.081-.042.169-.159.5-.076.176.185.26-.23.39.154.027.078.077-.008.077-.008-.012-.082.024-.113.06-.155.042.047.074.13.159.132l.06-.191c.086.11.248.167.407.166.187-.092.494-.049.475-.308zM32.557 18.076c.085.085.253.081.342.022.094-.064.14.008.24-.008.102-.017-.199-.23-.22-.14-.013.076-.068.021-.14.054-.098.014-.142-.102-.21-.145-.003-.055.028-.091.068-.13l.038-.033c.082-.076.094-.13.025-.225-.075.093-.138.072-.241.072-.125.004-.178.054-.18.182.037.066.146.098.115.177-.053.113-.214.07-.282.03-.21.05-.427.08-.541.291.076.03.118.023.175-.034l.05-.046c.018-.018.035-.027.057-.027.254-.09.516.172.704-.04zM30.252 18.316c-.084-.014-.12-.044-.193-.041-.082.003.143.208.168.217.06.021.273.053.304.053.178-.022.213-.181.283-.27-.11.078-.372.07-.562.04zM30.472 17.884c-.136-.19-.375.012-.524.088.09.304.326-.103.524-.088zM32.97 18.795c-.028.163-.078.303.02.456.056.036.305.246.684.174.393.051.164-.527.698-.398.154.038.048-.104.173-.186 0 0 .052-.052-.006-.068-.058-.016-.1-.029-.188.094-.321.006-.68-.304-.914.041.124.072.293-.152.428.02a.297.297 0 01-.27.327.696.696 0 01-.374-.07c-.225-.078-.094-.234-.11-.36.105-.197.334-.128.484-.243-.226-.05-.533-.024-.626.213zM30.096 20.372c.015-.007.034-.01.052-.017a.343.343 0 00-.098-.085l-.38-.172c-.002-.003-.003-.003-.003-.008a.364.364 0 01-.072-.046.328.328 0 00-.022-.07c-.01-.02-.024-.035-.037-.055-.002-.01-.003-.017-.006-.025-.004-.001-.009-.001-.011-.003-.006-.007-.008-.015-.016-.022L29.5 19.8c.09.027.258.11.328.173l.05-.003c-.05-.119-.203-.177-.283-.276-.055-.07-.082-.158-.143-.226l-.004-.033a.51.51 0 01.21.108l.051-.003a1.946 1.946 0 00-.228-.308c.01-.022.026-.042.03-.064.01-.084-.06-.264-.11-.34a1.59 1.59 0 00-.236.225l.005.009c.03.11.025.237-.014.352.017.594.492.909.856 1.056.07.017.14.035.21.043.026 0 .052.007.079.012-.02-.026-.038-.048-.058-.076-.05-.022-.083-.055-.147-.078z" fill="#fff"/><path d="M31.143 17.517l-.152-.112c-.143-.102-.263-.134-.461-.179-.433-.057-.684.099-.935.395l.049.027c.101-.162.207-.18.376-.256.097-.012.371-.08.45.048-.17.037-.447.077-.518.268.1-.079.303-.12.431-.085.082.04.171.107.261.169.021.016.046.026.069.041-.015.006-.037.015-.042.024-.09.201.215.204.208.048a.355.355 0 00.306-.03c.14-.122.016-.282-.042-.358zM28.789 17.764c-.016-.016-.013-.07-.028-.094-.101-.125-.232-.163-.356-.245-.098-.063-.187-.167-.297-.248-.294-.232-.625-.529-1.006-.619-.075-.016-.257-.023-.279 0-.062.078.107.453.123.526.017.058 0 .12.017.186.066.28.28.711.371.974.063.178.06.303.139.384.115.116.505.217.745.25.059.004.235.028.262.012.038-.015.154-.275.11-.338-.074-.105-.404.024-.561.015-.232-.01-.158-.112-.23-.323-.082-.24-.289-.411-.387-.666-.026-.071-.027-.172-.06-.278-.012-.027-.122-.182-.05-.231.04-.03.218.176.25.242.016.035.068.385.124.376.06-.012.048-.392.138-.342.038.022-.03.347.044.403.045.034.13-.015.16-.094.036-.024-.007-.129.044-.137.103.013.048.464.22.4.073-.026-.002-.213.059-.23.06-.017.136.265.14.294.002.02-.006.12 0 .123.118.082.101-.244.142-.265.011-.005.263.214.26.204.01.076-.179.146-.184.168-.042.127.135.253.17.247.082-.01.119-.226.168-.247.036-.017.075-.11.034-.154-.045-.2-.176-.19-.282-.293zM21.755 34.648c-.099-.043-.091.08-.183.11l-.057.011c-.11.03-.106.041-.045.194.205.107.303.002.367-.213 0 0 .018-.063-.082-.102zM21.049 35.022c-.104.048-.11.126-.102.223l.005.07c.063.058.109.07.173.035l.036-.027.034-.021c.052-.042-.003-.006.098-.064.102-.057.053-.102-.06-.156-.053-.026-.122-.037-.184-.06zM22.627 34.803l-.038.048-.04.046a.876.876 0 01-.086.1l.123.108c.176-.089.266-.217.275-.395l-.016.001a.329.329 0 00-.218.092zM24.878 34.096c-.196.03-.364-.047-.486.144l.072.061c.174.097.33-.002.48-.06.023-.072 0-.094-.066-.145zM24.185 34.659c-.037.068-.021.11.015.181l.035-.03c.099-.076.32.026.332-.215-.106-.031-.181-.089-.304-.05a.443.443 0 00-.078.114zM24.149 35.053c-.115-.008-.245.063-.189.152.084.14.232.069.362.06l.019-.05c-.041-.025-.056-.028-.097-.051a.24.24 0 01-.095-.11zM23.518 34.273a.337.337 0 01-.207.187l-.064.033c-.08.04-.11.054-.107.112 0 .013.001.024.005.044l.045.027.038.026a.126.126 0 01.105-.053h.068c.006 0 .012 0 .018.002l.057-.008c.063-.123.234-.143.22-.243a.191.191 0 00-.015-.058c-.018-.046-.115-.067-.163-.07zM19.262 34.98c.128.003.203-.244.341-.296.15-.041.284-.114.417-.178a.204.204 0 01.189-.112c.111 0 .234.055.36.053.044 0 .088-.01.142-.03a1.101 1.101 0 00.29-.032l.045-.015-.021.046a.385.385 0 01-.181.198.208.208 0 01-.137.042c-.088 0-.19-.03-.266-.03-.088.123-.322.125-.309.286.002.02.006.042.012.062.02.042.058.057.108.057.02 0 .041-.002.062-.01.145-.318.693.006.888-.403.125-.358.603-.617.74-.666.006-.005.006-.01.006-.018.001-.03-.067-.087-.074-.156a.098.098 0 01.039-.082l.066-.052.012.006c.114.06.204.137.314.17a.62.62 0 00.119.012c.162-.003.225-.085.224-.144-.003-.047-.044-.092-.149-.092-.008 0-.02 0-.041.003-.061-.021-.143-.024-.21-.044-.025-.01-.045-.004-.055-.04-.002-.019.007-.024.023-.04.081-.033.163-.056.248-.092.461-.18.217-.3.375-.44a.237.237 0 01.155-.048c.072 0 .151.013.226.013.09-.004.176-.022.246-.11.032-.04.064-.08.06-.124a.122.122 0 00-.025-.071c-.014-.01-.025-.023-.037-.037l-.006-.01v-.009c.033-.207.101-.275.094-.426-.003-.05-.078-.068-.102-.145-.156.08-.167.127-.286.227.01.131.034.16.072.282l.008.028-.028-.002h-.021c-.036.004-.039.004-.078.041l.034.13-.037-.009a.35.35 0 00-.129-.02c-.165 0-.268.116-.363.233-.113.146-.205.292-.431.294h-.031c-.032.079-.071.114-.15.154l-.066.032c-.08.034-.167.077-.194.173l-.004.014h-.014c-.27.028-.176.237-.258.416l-.006.01-.013.003c-.03.002-.06.008-.084.011l-.117.085c-.192.04-.446.125-.677.13a.749.749 0 01-.233-.036c-.01.017-.034.057-.078.06a.065.065 0 01-.03-.007l-.05-.022a.223.223 0 00-.08-.023.183.183 0 00-.076.023c-.178.009-.16.13-.257.243-.058.063-.1.095-.144.095-.069-.002-.107-.064-.167-.125-.069-.059-.121-.085-.187-.085a.393.393 0 00-.099.015c-.103.17-.263.167-.359.283 0 .002-.035.073-.03.116.003.024.003.029.031.03a.304.304 0 00.079-.018.66.66 0 01.268-.12l.01-.002.008.005c.021.016.034.037.034.058-.002.075-.077.159-.077.227.05.041.09.055.122.055zM20.57 31.112c-.168.005-.293.076-.287.192a.246.246 0 00.024.093l.052-.027.005-.002a.35.35 0 00.114-.015c.132-.172.497-.294.556-.384-.006-.033-.01-.076-.021-.1l-.002-.003c-.018-.05-.034-.062-.084-.066-.025.06-.193.314-.285.323a.144.144 0 01-.043-.011h-.029zM20.383 30.712c-.067.05-.105.091-.18.136l.002.004c.02.042.11.063.148.06h.002c.091-.008.221-.188.231-.237a.235.235 0 00-.078-.015c-.04 0-.076.015-.125.052z" fill="#fff"/><path d="M18.641 33.944c0 .008.003.016 0 .02.041.037.07.062.11.06.021 0 .05-.007.082-.023.013-.008.027-.018.043-.018.02 0 .035.01.054.02a.347.347 0 00.21.067c.075 0 .143-.024.206-.035.067-.023.205-.028.38-.052l.098-.025a.373.373 0 00.263-.123.378.378 0 01.2-.055c.141 0 .274.051.407.064.167-.04.42-.187.407-.38a.333.333 0 00-.02-.081l-.005-.014.01-.01c.04-.042.075-.104.114-.152l.038-.048c.038-.042.08-.069.134-.07a.393.393 0 01.095.014c.163.002.417-.314.573-.345.141-.028.153-.095.196-.178l.036-.039c.033-.072.097-.086.178-.09.026-.129.076-.155.204-.209.141-.068.198-.093.24-.234-.027-.097-.076-.301-.164-.291-.017 0-.035.007-.05.01-.032.073-.028.148-.043.219-.04.13-.088.205-.235.217-.258.23-.486.355-.705.606l-.01.009-.011-.003a.67.67 0 00-.077-.006c-.274 0-.492.324-.736.391l-.008.003-.007-.004c-.023-.015-.023-.035-.026-.06.003-.006 0-.014-.002-.02v-.02a.45.45 0 00-.004-.06c.02-.056.056-.098.11-.112l.049-.029c.101-.04.128-.08.134-.184-.008-.016-.007-.018-.032-.018-.061-.003-.251.082-.756.395l-.011.007-.01-.007c-.037-.028-.041-.068-.061-.113a.128.128 0 00-.052-.052c-.063.021-.119.03-.153.066l-.01.008-.011-.005a.462.462 0 00-.17-.043c-.222-.009-.18.344-.462.359a.32.32 0 01-.102-.015c-.061-.028-.085-.073-.088-.115-.002-.067.033-.131.03-.167-.001-.022-.009-.037-.111-.037l-.048.001c-.038.002-.036.009-.077.03l-.082.041a.28.28 0 00-.13.158c-.105.102-.325.059-.312.233 0 .012.003.028.005.041.018.038.047.046.098.046h.039c.04-.022.103-.073.17-.075.04 0 .084.023.097.063l.07.022.098-.01a.22.22 0 01.168-.082c.117 0 .23.07.33.07.064-.002.123-.026.18-.119l.012-.018.017.014c.035.025.063.031.086.031.065.002.12-.08.166-.144a.163.163 0 01.082-.067c.255.043.546-.028.781.174l.008.006v.014c0 .163-.262.184-.359.234l-.015.007-.012-.016c-.039-.063-.08-.078-.124-.078a.22.22 0 00-.083.02l-.057.025c-.026.005-.048.01-.067.01-.035 0-.063-.012-.098-.04-.19.033-.176.12-.314.238a.372.372 0 01-.087.01c-.177.002-.255-.113-.428-.11-.037 0-.077.006-.114.01-.065.081-.138.109-.234.15l-.012.003c-.119.038-.234.044-.223.115zM18.432 34.866c-.003-.07-.05-.186-.074-.261l-.248.164c-.031.115-.118.171.016.277l.049-.044c.024-.001.049.02.065.029.111-.015.195-.057.192-.165zM18.177 34.296l.051.034c.075.056.136.066.218.007 0-.078-.034-.12-.098-.17l-.046-.036c-.089-.053-.113-.08-.088-.173-.14-.027-.17.027-.263.093a.314.314 0 01-.074.035c-.034.157-.081.235-.027.395l.174-.161c.05-.077.083-.069.153-.024zM18.037 33.574c.09 0 .134.066.178.072.033-.047.067-.075.067-.069-.001-.025-.027-.017-.041-.059-.02-.057-.033-.093-.033-.133-.002-.025.174-.205-.04-.12-.024.01-.156.043-.156.043-.223.061-.235.131-.375.296l-.003.003c-.012.013-.016.022-.016.022 0 .004.01.02.05.037h.049c.023 0 .04-.001.057-.01l.023-.007s.23-.077.24-.075zM18.145 32.73l-.006.008-.016.002a.514.514 0 00-.283.136l-.084.079c.02.054.026.077.044.12l.002.001c.015.059.02.094.116.04.065-.037.057-.065.057-.065s.11-.078.206-.078c.036 0 .11-.032.11-.032.044-.047.054-.015.07-.09l.016-.073c.003-.027.052-.118.008-.118l-.12.005c-.05 0-.094.017-.12.065zM18.376 32.158l-.028-.049c-.05-.075-.092-.105-.153-.107-.02 0-.263.273-.388.395h-.005a.518.518 0 00-.119.125.186.186 0 01-.05.033l-.06.025c-.075.044-.08.065-.086.127l.216-.042c.226-.205.58-.203.673-.507zM20.908 31.268c-.126.082-.195.308-.39.377l.13.095c.255-.056.553-.057.659-.302l.13-.17.015-.003c.004 0 .018-.003.033-.003l.008-.002c.033 0 .03.01.04.028l.036.01c.052-.025.04-.042.04-.07 0-.018-.005-.04-.012-.077v-.038a.348.348 0 00-.208-.074c-.128 0-.336.24-.358.399l-.003.016-.017.005a.108.108 0 01-.04.007c-.045 0 .003-.06-.026-.074l-.005-.005-.002-.12h-.03v.001zM20.15 30.446l.01-.008c.127-.074.331-.117.337-.202a.199.199 0 00-.137-.05c-.113 0-.228.088-.223.202 0 .015.003.03.007.043l.006.015zM17.871 31.733a.178.178 0 01-.01.056c-.035.089-.075.181-.076.223.05-.018.201-.124.218-.173l.025-.054a.186.186 0 01.13-.118h.012l.04.001a.389.389 0 00.2-.066l.064-.045c.08-.058.155-.103.252-.104h.038l.005.006c.044.036.084.051.118.05.032 0 .064-.014.1-.046l.055-.059c.046-.052.086-.092.147-.092.037 0 .073.014.12.045a.567.567 0 00.28-.207l.055-.097.012-.002c.009-.004.017-.004.026-.004.054-.002.067.054.069.083v.05c.005.05.01.088.056.113.018.006.033.009.047.009.03 0 .055-.014.08-.048.039-.044.044-.05.086-.084-.018-.018-.04-.038-.044-.075 0-.03.016-.062.047-.095.039-.033.047-.058.046-.092a.128.128 0 00-.006-.038.639.639 0 00-.229-.046c-.067.002-.125.02-.156.07l-.005.008-.009.002c-.22.063-.373.328-.64.346l-.004.003-.01-.003a.578.578 0 00-.287-.083c-.134 0-.237.068-.338.148l-.12.101a.755.755 0 01-.128.091c-.072.048-.158.052-.233.057-.025 0-.049-.004-.07-.002h-.01c-.05.002-.068.013-.069.016v.003c-.015.017.1.045.116.152zM18.051 31.206l.091-.046c.19-.212.451-.267.678-.377l.013-.005.012.006a.186.186 0 00.11.023c.09-.005.157-.07.255-.084.042-.006.088.01.132.047.035.01.068.012.098.008.115-.012.187-.088.27-.19l.036-.052c.02-.023.047-.038.042-.08l-.001-.004c-.03 0-.104.051-.16.06a.06.06 0 01-.048-.016.063.063 0 01-.022-.044c-.003-.058.046-.093.12-.127.144-.055.316-.152.296-.197-.002-.01-.018-.018-.069-.012-.055.008-.126.056-.195.061-.033.005-.05.062-.082.054l-.048.017h-.008a.176.176 0 00-.07-.007c-.136.004-.107.145-.174.267l-.011.019-.017-.007-.04-.012h-.003c-.027.002-.06.003-.073.005-.465.342-.906-.09-1.26.584-.006.006-.006.012-.006.019 0 .028.07.078.134.09zM19.998 31.499a.106.106 0 00-.05-.009.083.083 0 00-.056.016l-.01.005-.006.004-.015.008c-.013.008-.022.015-.045.018l-.01-.003a.079.079 0 01-.048-.037l-.19.186h-.009c-.105.012-.232.084-.358.089a.235.235 0 01-.16-.057.5.5 0 00-.109-.013c-.172 0-.261.142-.445.209.012.068.025.085.07.085.02.002.044-.006.078-.014l.082-.03.01.017a.138.138 0 01.028.063c0 .049-.029.082-.063.125l-.046.043c-.044.048-.07.091-.068.142 0 .005.003.015.003.024a.094.094 0 00.047.017c.031 0 .073-.04.114-.083l.06-.057a.08.08 0 01.06-.036c.186-.034.283-.123.461-.183a.46.46 0 01-.006-.058c-.002-.042.003-.078.026-.105.024-.025.062-.034.108-.036.024 0 .05.002.082.006l.118.016a.53.53 0 00.115.01.243.243 0 00.17-.056l.017-.015.018.017a.21.21 0 00.136.046c.036 0 .07-.009.106-.024a.556.556 0 01.265-.04c-.046-.073-.096-.105-.216-.109-.027.019-.049.03-.07.03-.064-.005-.077-.06-.1-.1-.02-.047-.044-.09-.094-.111zM24.06 33.505c-.028.017-.06.046-.088.069-.053.034-.069.025-.128.016.015.1.039.16.155.17.068.011.113.006.184.028a.32.32 0 01.088-.097c.019-.033.05-.064.044-.114-.078-.118-.154-.144-.255-.072zM24.482 32.327v-.004c-.027-.11-.052-.118-.153-.12l-.117.018c-.023 0-.186.102-.21.106l-.06.093a.383.383 0 00-.064.188c.003.026.01.051.026.08l.008.01-.007.019c-.055.065-.135.03-.18.093a.206.206 0 00-.003.036c.002.036.02.057.062.092l.073.058-.02.02c-.061.07-.15.07-.217.079-.048.017-.051.03-.051.043-.003.033.055.096.091.131a.302.302 0 01.16-.055c.03 0 .063.004.093.022.162-.035.227-.085.22-.15 0-.032-.016-.071-.053-.124-.043-.064-.093-.122-.096-.195-.004-.045.017-.093.065-.14.002-.033.025-.073.076-.073l.073-.055c.057-.014.284-.118.284-.172z" fill="#fff"/><path d="M20.258 32.311l-.02.015-.16-.184c-.029-.004-.058-.037-.086-.036-.164.003-.305.07-.372.194l-.01.02-.017-.01a.191.191 0 00-.051-.01c-.06 0-.111.049-.179.079l-.011.002-.01-.006a.17.17 0 00-.1-.034c-.061 0-.115.053-.17.114-.036.04-.064.056-.097.056a.25.25 0 01-.076-.013c.052.15.149.156.363.19.134-.023.331-.07.403-.175l.004-.006.01-.002c.008-.002.014-.002.022-.002.118 0 .235.088.34.086a.18.18 0 00.129-.057l.008-.009h.01a.229.229 0 00.047.007.444.444 0 00.179-.054l.065-.042a.287.287 0 01.118-.046c.046-.001.09.024.136.067a.362.362 0 00.134.02.842.842 0 00.329-.092l.053-.038c.058-.07.107-.14.147-.221l.005-.007.01-.004.039-.003c.083-.001.238-.041.325-.045a.27.27 0 00.053-.005c.192-.06.416-.282.458-.4 0 0-.125.011-.201.01-.075.002-.713.16-1.1.508a.363.363 0 01-.213.067c-.096.003-.189-.021-.279-.018a.34.34 0 00-.235.084zM24.557 32.755l-.075-.015c-.084-.018-.064-.015-.152.048a.173.173 0 00-.016.084c.002.044.027.076.114.114l.01.005.006.01c0 .003.008.022.008.046a.165.165 0 01-.08.15c.028.102.067.125.118.125.045.002.071-.025.134-.064.029-.024-.004-.04.027-.057.008-.05.028-.088.027-.119-.006-.144.043-.298-.121-.327zM22.306 31.402c.18-.093.493.015.474-.311-.232-.16-.482-.01-.581.177-.039.07-.002.129.058.155l.049-.02zM21.915 31.132c.191-.058.262-.326.201-.393-.154-.003-.165.013-.269.111l-.038.033c-.05.033-.044-.007-.091.057l-.027.08.027.052c.037.071.1.105.197.06zM21.081 30.618c.003.09.068.082.194.122a.132.132 0 01.081.06.733.733 0 01.268-.277l-.005-.003a.241.241 0 00-.137-.041c-.126.004-.276.074-.4.095v.044zM21.26 30.153v-.016c-.002-.02-.012-.035-.04-.055l-.04-.03c-.004-.003-.015-.008-.03-.022-.007-.001-.015-.001-.02-.004-.012 0-.02.004-.037.018l-.023.01-.01.006-.011-.005c-.017-.006-.034-.007-.047-.009-.103-.004-.288.315-.329.423l.078.003c.149-.002.405-.218.509-.319zM21.898 30.356c.032.005.07.012.106.02.087-.044.095-.12.092-.204l-.001-.051c.011-.054-.066-.114-.124-.09-.094.029-.155.132-.184.212l-.023.073-.013.048c.058-.012.083-.018.147-.008zM24.952 33.4c-.011.07-.057.098-.101.116.053.037.11.068.148.075.051.004.072-.005.092-.099a.4.4 0 00.002-.036c.007-.056.003-.114.009-.167a.222.222 0 01.104-.162l-.082-.099c-.134.015-.173.047-.184.114a.338.338 0 00.004.104l.003.07c.007.024.011.046.007.066l-.003.013c.002.002 0 .005 0 .005zM24.521 33.715l-.028.03-.031.05c-.038.068-.041.112-.112.127.021.034.032.036.085.038h.017l.03-.002c.128-.055.276-.097.265-.204a.151.151 0 00-.013-.06.223.223 0 00-.096-.029c-.044.001-.079-.009-.117.05zM22.497 30.606c.069-.045.129-.089.124-.18-.076-.1-.174-.096-.264-.028a.517.517 0 00-.183.218l.127.067c.068-.025.129-.038.196-.077zM22.922 30.934c.012.133.052.235.22.26.04-.118.025-.093.14-.138l.077-.01a.47.47 0 00.11-.04c.058-.043.087-.149.087-.215-.239-.099-.473-.058-.634.143zM23.049 31.875l.077-.062c.086-.089.308-.02.336-.258-.18-.188-.437-.033-.487.135.109.085.014.133.074.185zM24.15 33.997c-.146-.193-.366-.055-.443.077.008.093.037.152.148.157.071-.1.237-.029.296-.234zM23.692 33.577v-.002c0-.011-.011-.04-.022-.083-.073-.092-.215-.03-.334-.073-.059.036-.413.214-.397.459.003.042-.032.042-.004.082l.007.015-.008.01c-.071.104-.185.13-.292.168h-.009l-.008-.005a.371.371 0 00-.16-.044c-.115 0-.184.094-.248.181l-.03.045-.024.041c-.045.048-.072.071-.107.071-.063-.005-.03-.052-.095-.1-.026.01-.124.051-.119.107v.01l.058.034c.02.046.069.173.162.168.008.001.02 0 .04-.002.03.01.057.012.079.012.14.004.15-.172.244-.278l.009-.007.008.003h.057c.29-.003.37-.193.678-.25l.078-.07c-.027-.093-.013-.133-.066-.192l-.004-.008.002-.008c.018-.114.146-.117.208-.147h.003a.176.176 0 00.077-.061c0-.048.027-.079.066-.079h.02l.05-.001.07.003h.011M24.468 28.952s.002 0 .003-.002a.496.496 0 01.125-.103l.008-.002c.022-.005.043-.014.071-.022.164-.045.24-.08.295-.25-.026-.044-.02-.044-.027-.041l-.008.001c-.006 0-.009-.003-.01-.001-.013-.002-.027-.002-.044-.002-.163.097-.406.234-.438.402 0 .007.007.008.007.009.01.006.017.014.018.011zM25.256 29.883c.053-.094.051-.114.07-.217l-.003-.07c-.035-.026-.066-.038-.084-.038-.011 0-.015 0-.022.008a.567.567 0 00-.175.434c.004.113.003.088.033.177l.057-.058c.009-.145.06-.11.124-.236zM24.071 31.99c.026-.034.006-.057.065-.091.053-.033.072-.07.132-.09-.02-.015-.037-.03-.059-.045l-.038-.035c-.034-.023-.06-.043-.1-.043-.107.028-.166.087-.23.172-.04.047-.038.056-.046.075-.012.018-.025.03-.058.047.079.063.146.105.198.105.04 0 .08-.022.136-.095zM23.581 31.416l.039.053c.016.02.032.043.052.067.086.087.084.034.193.04 0 0-.032-.07.012-.146.036-.06.057-.11.098-.162l-.031-.04c-.069-.102-.125-.139-.23-.088-.052.103-.19.123-.133.276zM22.85 30.41c-.037.056-.005.095.046.118l.046-.02c.16-.068.437.009.424-.237-.204-.12-.43-.001-.517.139zM23.098 29.807c.081-.048.147-.094.144-.193-.088-.107-.198-.102-.3-.03a.617.617 0 00-.209.238l.146.07c.077-.029.143-.044.22-.085zM23.79 30.276c.025-.072.013-.056.088-.084l.049-.006c.015-.004.056-.014.067-.024.038-.025.057-.087.057-.128-.15-.06-.297-.035-.4.085.007.08.032.142.138.157zM25.159 30.818c.044-.033.065-.113.066-.164-.183-.075-.362-.043-.486.108.01.103.041.18.17.201.031-.092.017-.071.106-.105l.06-.01a.243.243 0 00.084-.03zM23.928 30.476c-.045.078-.164.098-.117.216l.034.042c.014.016.027.033.046.05.073.069.073.028.166.032 0 0-.029-.057.008-.111.032-.05.05-.088.085-.129l-.026-.031c-.059-.08-.106-.111-.196-.07zM24.509 31.14l-.02-.152c.005-.082-.079-.08-.125-.063 0 .065-.013.075-.087.085l-.04.008c-.014.005-.03.005-.046.012-.039.022-.055.05-.062.093.108.097.265.057.38.017zM24.4 31.626l.039-.003c.046-.053.339.026.26-.155-.078-.099-.204-.027-.315-.018-.046.04-.035.136.016.176zM26.309 28.371c-.025.038-.04.07-.084.076-.262.15-.371.187-.371.187.001.02-.038.123-.043.143l-.083.076a.297.297 0 00-.032.124c.001.022-.042-.002-.032.03v.008c-.006.077-.091.089-.124.12l-.098.059c-.066.056-.116.11-.116.11l.062.052s.258-.104.449-.16c.066-.008.093-.1.176-.147l.008-.005h.01c.031.016.022.026.028.035l.013.034.015.06.004.009-.003.006c.008.075.285.176.36.183a.638.638 0 00.142.014c.188-.002.314-.097.392-.281a.348.348 0 00-.116-.02.261.261 0 00-.118.03c-.055.025-.095.057-.155.057a.216.216 0 01-.117-.037l-.025-.012.012-.025c.116-.232.17-.237.435-.305.14-.016.143-.128.146-.252a.366.366 0 00-.116-.021c-.198 0-.303.21-.494.32a.076.076 0 01-.03.006c-.056-.005-.17-.032-.187-.122 0-.01 0-.018.003-.025.02-.061.12-.128.218-.214.1-.08.193-.175.189-.203v-.005c0-.01-.009-.02-.028-.03-.017-.006-.037-.01-.04-.012a.381.381 0 00-.059-.006c-.058 0-.099.037-.145.088l-.046.055z" fill="#fff"/><path d="M24.938 28.192l.006-.005h.082c.01 0 0 0 .02-.004.028.004-.013.058.036.09.005.006.012.009.022.006.057.006.173-.113.273-.188a.127.127 0 01.066-.024c.06 0 .09.046.107.057l.017.012-.006.021c-.05.158-.056.26-.247.323l-.065.069c-.001.035-.011.096-.045.16 0 0-.064.053-.168.168-.104.108-.208.245-.2.281l.002.007h.008c.06.005.22-.093.358-.17l.004-.005h.006c.297-.046.223-.381.394-.559l.016-.019.303-.27a.11.11 0 01.034-.06c.047-.041.093-.068.123-.136a.052.052 0 00.003-.026c0-.072.009-.219-.073-.353l-.006-.007.003-.012c.013-.043.054-.055.09-.055l.09-.05a.138.138 0 00.123-.073c.04-.05.064-.058.06-.097-.003-.058-.044-.106-.196-.113h-.082a.258.258 0 01-.044.04.333.333 0 01-.115.126l-.006.004h-.008c-.007 0-.016-.002-.021 0-.059 0-.04.09-.064.1-.062.04-.062.023-.065.063.003.067-.025.106-.032.112l.067.155c-.012.032-.035.08-.09.094-.038.001-.202-.124-.216-.07-.076.235-.327.224-.534.249-.208.034-.33.03-.316.369v.003h.004c.182-.003.163-.093.282-.213zM25.612 33.59c-.061-.047-.159.037-.159.037-.183.106-.368.006-.331.303.176.086.255-.083.389-.143l.041.034c.054.037.095.026.152.005l-.01-.091s-.019-.102-.082-.145zM24.874 34.544l-.047.003c.038.09.069.128.18.132.078.01.091.003.137.054l.028-.019c.076-.058.09-.172.083-.25-.17-.064-.237.074-.38.08zM19.74 35.268c.047-.087.065-.1.175-.057.178-.096.08-.2.123-.31l-.076-.035c-.126.294-.531.092-.707.395a.677.677 0 00.054.51l.131.04c.127-.159-.03-.343.07-.433.143.044.198-.047.23-.11zM18.478 35.3l-.036.034c-.026.034-.057.058-.092.09.066.05.109.071.17.019.028-.02.06-.052.101-.05.068-.032.124-.034.092-.133-.107-.071-.17-.03-.235.04zM20.197 35.501l.05-.007.05.017c.062.045.042.073.032.103l.152-.008c.059-.032.07-.08.065-.133l-.003-.058-.01-.037.003-.028a1.33 1.33 0 01-.115-.04l-.083-.03a.636.636 0 00-.233-.047l-.036.202c.026.052.068.07.128.066zM19.912 35.587c-.238.148-.164.328-.222.552.145.073.205.053.23-.09l.01-.069c.005-.017.013-.032.02-.05.025-.055.056-.065.105-.08-.018-.102-.032-.205-.143-.263zM30.809 23.457c.01.01.013.014.022.02a.085.085 0 00.02.003h.016v-.001h.007c.027-.008.012-.008.017-.013.002-.004.002-.009.01-.027 0-.017.003-.039.006-.06.006-.044.096-.153.096-.185 0-.004.005-.004-.008-.015a.272.272 0 00-.063-.048.353.353 0 00-.134.043c-.037.03-.038.156-.04.157v.004l-.009.025v.004c.003.024.039.056.041.064.008.011.013.025.019.03zM28.946 22.706c-.04.002-.06.021-.09.046-.033.032-.037.166-.038.168l-.007.03v.002c.002.027.039.06.04.069.005.013.015.025.018.03l.024.024c.014.003.014.003.022.003H28.935c.029-.01.014-.013.02-.014l.006-.03c.003-.018.004-.042.007-.068.008-.044.096-.16.096-.194 0-.003-.046-.004-.055-.017-.004-.003-.052-.049-.062-.049zM32.328 23.734c.008.049.006.172.015.204.002.004 0 .004.01.016a.651.651 0 00.1.04c.026-.01.035-.031.048-.058.017-.041-.013-.175-.013-.175v-.003l-.002-.03v-.004c-.007-.025-.086-.054-.09-.062a.153.153 0 00-.019-.029.09.09 0 00-.021-.014l-.014-.002-.004.002h-.007l-.004.002c-.018.012-.008.01-.01.015v.032c.005.018.01.042.011.066zM30.418 23.038c.008.014.02.026.03.035.013.009.019.005.024.009h.031c.02-.008.015-.01.02-.011.002-.008 0-.007 0-.008.003-.011 0-.095.014-.198.024-.143.116-.35.118-.412-.002-.004 0-.008-.007-.016a.035.035 0 00-.033-.012c-.03 0-.047.011-.068.026a.232.232 0 00-.062.055.631.631 0 00-.084.152c-.013.029-.023.053-.034.073-.003.012-.006.018-.009.024-.003.002-.003.004-.003.007 0 0 0 .002-.002.002h-.002a.518.518 0 01-.009.062v.006c0 .044.05.12.054.14.007.026.018.053.022.066zM29.507 23.135a.593.593 0 00.045-.054c.003-.006.01-.08.016-.166.004-.082-.022-.328-.021-.347 0-.018-.017-.052-.045-.03-.03.02-.08.127-.085.135-.002.01-.012.051-.016.076l-.022.132c-.005.02-.048.135-.082.207-.035.07-.224.216-.203.24.018.026.092.04.134.02.046-.02.213-.143.234-.16a.275.275 0 00.045-.053zM29.172 22.1c.03-.03.055-.103.077-.123.005-.01.016-.064.02-.068.004-.002.005-.003.005-.007.01.004.022.004.035.004h.02c.027-.004.07-.038.096-.047.046-.014.05-.057.05-.09-.003-.021 0-.08 0-.127 0-.015-.024-.003-.01-.038.038-.08-.15-.004-.15-.004-.025.078-.045.121-.153.25-.057.067-.148.128-.187.173a.635.635 0 01-.05.058c-.01.017-.015.023-.016.04-.003.005-.002.014 0 .02 0 .04.008.096.014.144.005.03.02.075.032.112.004.017.01.033.015.049.006.005.007.012.01.013.001.003.003.008.006.009.002.002.007.01.026.01.003 0 .005-.003.008-.003l.008-.005c.019-.016.019-.033.019-.056v-.01c0-.001-.003-.001-.003-.003-.001-.032.007-.056.02-.14a.466.466 0 01.108-.161zM29.793 23.656a.406.406 0 01.056-.105c.002-.011.024-.002.042.015.018.018.04.01.04-.021a1.75 1.75 0 01.054-.177c.016-.038.068-.152.038-.204a.425.425 0 01-.046-.166c.004-.027.037-.103.037-.105 0-.003.005-.006.009-.008 0 0 .032-.026.065-.06.036-.029.024-.174.014-.228a1.323 1.323 0 01.02-.282c.008-.042.08-.156.07-.185-.01-.029-.047-.032-.09-.005-.043.024-.172.166-.185.226-.011.06-.056.12-.048.125.005 0 .03.116.037.12.008.008.008.02 0 .027-.006.009-.041-.038-.076.012a.606.606 0 00-.054.249c.003.039.04.185.05.226.01.04.065.226.052.282-.017.058-.226.143-.231.147h-.01c-.003 0-.008-.004-.013-.004a.316.316 0 00-.033.007.315.315 0 00-.063.088c-.008.025-.037.1-.044.129-.01.026-.062.114-.078.135 0 0-.152.464 0 .368.042-.03.141-.152.145-.154l.009-.002h.004l.03-.007c.015-.005.038-.069.048-.095a.978.978 0 00.062-.168c.012-.034.079-.151.089-.18zM30.45 25.282c.048-.023.035-.08.076-.136.037-.058.225-.015.227-.01 0 0 .065-.07.093-.125.032-.054.102-.25.144-.328.044-.081.05-.13.04-.14-.022-.033-.059-.02-.074.002-.015.025-.107.208-.136.238-.022.03-.116.128-.133.145-.021.017-.032.008-.028-.017a.906.906 0 01.044-.167c.03-.065.123-.234.154-.278a.59.59 0 00.04-.222c-.001-.032-.014-.287-.01-.306.005-.021 0-.094.017-.102.012-.008.036-.041.036-.041s.016-.016.018-.016c0 0 .004-.001.004-.003l-.01-.023c-.007-.01-.034-.033-.056-.018a.73.73 0 00-.096.159c-.014.045-.055.167-.067.219-.016.048-.057.2-.068.239a.635.635 0 01-.05.119c0 .003-.003.003-.004.003-.006.004-.036.036-.07.067-.035.038-.134.126-.168.156-.037.034-.171.047-.186.047a.254.254 0 01-.063-.012c-.019 0 .012-.076.092-.156a.533.533 0 00.142-.227c-.003-.015.001-.079.003-.116.004-.032.051-.14.056-.157a1.03 1.03 0 000-.1c0-.018-.024-.059-.027-.06 0-.007-.004-.012-.003-.018 0 0 .01-.028.018-.059.012-.029.094-.08.11-.105.015-.028-.01-.125-.01-.127a.058.058 0 00-.008-.022c-.002-.003-.002-.014 0-.015.001-.005.012-.048.029-.098.012-.046.023-.173.023-.178 0-.006-.062-.032-.1.032-.034.063-.14.245-.134.25.014.003.043.021.052.024.008.007 0 .03-.015.051a1.094 1.094 0 00-.071.116.79.79 0 00-.037.179v.032c0 .012-.01.019-.018.019-.011 0 0 .045-.04.06-.04.014-.023.142-.038.187-.012.05-.075.142-.075.157 0 .016.005.05.006.055a.025.025 0 01-.006.022l-.143.146s-.117.134-.08.17c.036.031.187.045.208.051.02.008-.057.072-.17.14-.116.07-.194.15-.184.152.012.003.077.055.104.05.026-.003.118-.05.138-.055.019-.003.08-.069.112-.094.036-.022.163-.142.203-.178a.464.464 0 01.178-.07c.008 0 .035.007.048.009.013.003.019.018.013.027a5.158 5.158 0 01-.226.29 3.686 3.686 0 00-.244.35c0 .002-.047.076-.038.081.028.027.06 0 .092-.002.036-.003.142-.117.19-.11.049-.001.131-.128.177-.153zM32.554 24.268c-.01-.052-.12-.036-.124-.01l-.02.08c-.002.008.003.142 0 .174-.005.037.005.186-.008.239-.01.054-.071.228-.083.263-.009.017-.014.037-.047.04-.032-.003-.037-.026-.043-.044-.008-.034-.019-.098-.03-.142a1.649 1.649 0 01.004-.305 4.06 4.06 0 00.018-.302v-.005a.85.85 0 00-.035-.149 1.537 1.537 0 00-.102-.206s-.023-.195-.031-.212c-.012-.016-.083-.039-.088.012.006.071.018.237.026.294.01.067.04.266.042.312.005.04.01.132.011.148v.002h-.001l.002.003a.297.297 0 00-.005.035l-.002.013h-.002c-.003.002-.003.003-.003.007a.077.077 0 01-.006.026.535.535 0 00-.025.087c-.019.066-.098.139-.12.21-.04.092-.224.193-.258.207l-.051.06c-.028-.005.015-.078.015-.084 0-.006.02-.06.024-.07.008-.01.007.034.04-.106.028-.136-.058-.227-.058-.316a.25.25 0 00-.008-.08c-.021-.062-.025-.3-.04-.356-.009-.037-.016-.13-.027-.137-.004-.007-.014-.011-.016-.024 0-.005-.004-.02-.008-.037v-.05c0-.031 0-.07.004-.1.002-.024.002-.076.002-.125 0-.032 0-.066-.002-.075a.115.115 0 00-.023-.055.048.048 0 01-.011-.026l-.02-.136a.583.583 0 00-.02-.093c-.034-.027-.077 0-.079.02-.007.076-.088.236-.11.297h.011c.01.004.02.008.03.01.02.003.024.019.028.026 0 .01.004.019.004.029 0 .012-.003.02-.004.033-.004.03-.013.072-.017.094v.035c0 .04.001.093.006.125a2.309 2.309 0 00.054.203c0 .018-.013.27-.013.37 0 .047.003.094.009.12.017.094.007.235.012.245.005.008.005.015.005.022 0 .002 0 .01-.004.015l-.009.011c0 .004-.005.009-.01.012-.012.013-.024.028-.043.047-.033.035-.016.09-.065.144-.09.093-.298.486-.298.64 0 0-.025.131-.025.088.007.103.067.219.067.306 0-.003.088.08.09-.022 0-.074-.014-.158.027-.284.084-.248.229-.51.506-.539.016-.009.018-.01.033-.015h.008c.022.002.027.018.027.025.004.007.004.015.004.02 0 .069-.067.25-.12.466-.044.195-.076.292-.094.372.008-.005.045.061.05.058.12.03.142-.115.155-.132 0 0 .005-.004.005-.006.004-.006.006-.014.01-.026a1.38 1.38 0 00.06-.316c.011-.178.073-.506.097-.58.02-.067.108-.132.16-.167.018-.011.026-.017.04-.02.001-.002.008-.003.012-.003.027 0 .046.021.046.042v.006c0 .024.074.358.123.74v.01s-.03.238-.03.51c0 .029 0 .056.004.085.012.248-.048.529.034.545.01-.007.042.01.043-.02a.5.5 0 00.083-.258v-.02a.151.151 0 01-.005-.03c.002-.099.06-.225.06-.274.002-.07.03-.15.03-.175.002-.032.002-.065.002-.087v-.013c0-.014.041-.256.033-.336-.007-.08-.05-.204-.05-.277h-.039a.748.748 0 01.047-.201v-.006c0-.027.05-.11.05-.148.002-.047.06-.305.082-.463.017-.115-.016-.128-.01-.174 0 0 .032-.076.03-.076l-.023-.07zM33.652 25.103c.005-.008-.026-.156-.007-.255.016-.098.003-.334-.028-.378-.034-.04.049-.081.048-.085-.01-.005-.013-.015-.01-.025.002-.006-.025-.099-.016-.148.002-.05-.005-.069-.006-.093-.003-.02.004-.022-.003-.051-.007-.034.003-.04.01-.06.014-.027.018-.048.021-.048.005 0 .02-.034.04-.067.004-.01-.025-.197-.035-.291-.008-.095-.063-.094-.063-.1 0-.006-.052.01-.06.199-.003.073-.02.17-.02.174l-.004.012c-.004.003-.026.008-.028.037-.007.058 0 .156.002.167.003.048.003.129 0 .145-.002.016-.006-.033-.006-.03-.002.005-.007.008-.01.012-.002.002-.009.045-.02.101a8.072 8.072 0 01-.093.32c-.022.06 0 .264.04.456.044.19.048.242.012.256-.051.027-.2-.122-.225-.194-.023-.07-.121-.224-.14-.29a4.997 4.997 0 01-.035-.124l-.002-.005-.003-.033c0-.01.005-.106.01-.15l.043-.312c.009-.069.025-.166.03-.222a1.164 1.164 0 00-.02-.263c-.01-.04-.033-.037-.036-.032-.13-.005-.082.198-.093.223-.019.024.044.148.033.164-.01.019-.011.064-.014.07a.03.03 0 00-.006.016c0 .003-.002.01-.005.011-.003.002-.12.088-.135.138a1.182 1.182 0 00-.038.156c0 .017.009.227.018.308.01.08.062.253.057.296-.008.044-.022.107-.03.142-.003.004-.003.009-.003.009s-.043.213-.047.455c-.001.104.096.12.112.224.032.208.12.57.151.63.035.062.049.1.062.1.013-.001.048.036.065.073.044.089.066.087.107.116.039.024.039-.043.04-.051.003-.01-.164-.497-.229-.864-.063-.367-.03-.576-.03-.591 0-.012.007-.052.02-.048.014.004.13.027.155.097.02.072.11.4.154.574.042.172.028.259.043.273.017.015.129.117.164.136.034.019.068.036.07.036.002 0 .019-.13-.076-.4-.098-.265-.117-.516-.096-.521.084-.025.316.193.44.464.123.27.171.378.19.356.049-.055-.022-.177-.047-.333-.025-.156-.197-.456-.297-.563-.103-.108-.118-.3-.12-.303a.024.024 0 01-.001-.016zM34.055 24.802s.036-.007.031-.02c-.021-.071.046-.046.054-.046.006 0 .02.007.024.011.002.006.13.204.218.317.072.09.102.102.113.094.012-.006-.073-.13-.062-.215.015-.081-.059-.169-.084-.178-.023-.011-.149-.136-.165-.198-.017-.063-.09-.355-.123-.433-.036-.082.013-.128.007-.134-.007-.005-.008-.018-.002-.023.006-.007-.014-.049-.01-.053a.726.726 0 00.014-.175c0-.059-.021-.074-.029-.066-.007.012-.108.285-.156.4-.048.115.025.49.09.589.063.095.077.13.08.13zM27.52 34.37c.049.001.088-.008.113-.036.016-.052.029-.052.027-.086a.113.113 0 00-.061-.095c-.032.09-.087.142-.16.142-.058 0-.123-.031-.194-.082a.183.183 0 01-.068.026c-.063.034-.112.063-.108.128v.004l.002.014-.006.007a.096.096 0 00-.03.067c0 .059.1.13.17.16l.012-.124c.026-.068.094-.086.154-.086.053 0 .102-.035.15-.039zM27.415 34.81c-.025.058-.016.055.012.116l.029-.029c.07-.062.243.114.253-.095-.083-.03-.14-.078-.23-.048-.023.032-.051.019-.064.056zM26.776 28.127c.037-.093.021-.077.12-.113l.07-.008a.446.446 0 00.094-.032c.05-.035.075-.119.077-.173-.207-.079-.407-.045-.55.116.01.107.044.19.189.21zM29.707 22.131a.269.269 0 00.058-.06c.027-.04.015-.108-.003-.143-.187.03-.33.135-.381.299.046.068.107.107.224.062-.008-.078-.011-.058.052-.123l.05-.035zM27.453 28.74c-.1.026-.154.08-.213.159-.038.045-.035.048-.045.068-.009.017-.021.028-.051.044.073.056.133.095.183.094.036 0 .074-.02.125-.087.024-.03.005-.051.06-.085.046-.03.066-.06.124-.081-.022-.014-.037-.03-.057-.042l-.035-.032c-.032-.021-.057-.04-.091-.038zM27.272 30.075c-.037.044-.034.052-.044.07-.01.017-.022.027-.05.042.07.056.131.101.18.098.038 0 .075-.023.125-.088.026-.03.007-.052.06-.086.05-.031.068-.062.125-.081l-.057-.042-.034-.033c-.033-.02-.056-.04-.093-.038-.097.023-.151.082-.212.158zM27.157 28.388l.046.015c.02.003.039.01.059.015.096.014.09-.013.198-.044 0 0-.042-.025-.006-.076.03-.043.045-.071.08-.11l-.035-.012c-.083-.027-.14-.027-.238.033-.043.067-.177.122-.104.179zM25.969 31.304a1.748 1.748 0 00-.006-.073.427.427 0 01.008-.108l.002-.014.015-.006c.011-.003.026-.014.044-.024l.052-.03c.026-.032.067-.049.12-.049.126-.046.311-.128.3-.23a.222.222 0 00-.048-.105l-.011-.01.003-.013c.057-.222.321-.392.49-.526a.29.29 0 01-.031-.117c-.005-.082.04-.144.098-.219l.056-.034c.039-.048.062-.096.06-.145a.154.154 0 00-.026-.075c-.035-.034-.068-.05-.085-.05-.02 0-.034.007-.053.052l-.019.028c-.014.04-.037.023-.067.03a.332.332 0 01-.212.089c-.147-.003-.254-.105-.363-.099-.015.003-.033.003-.048.008l-.014.002-.01-.006c-.038-.03-.061-.037-.074-.037-.04-.01-.062.102-.142.155-.279.138-.425.607-.415.742 0 .005.001.01.003.011.088-.002.482-.318.483-.355.005-.007.005-.01.005-.017.003-.02-.041-.035-.053-.09 0-.031.025-.046.052-.054l.056-.02c.057-.02.108-.047.13-.096l.01-.016.023.004c.1.029.287.128.368.188l.02.014-.01.023a.362.362 0 01-.111.127c-.172.12-.375.195-.363.373.002.032.01.07.028.114l.003.008-.002.01c-.03.14-.115.19-.219.19-.038 0-.077-.005-.12-.008l-.129-.02a.623.623 0 00-.111-.007.318.318 0 00-.253.112c.032.032.05.062.05.095.002.02 0 .038-.007.058l.219-.122.015.01c.089.06.103.136.105.205v.14c.003.052.012.089.052.16.134-.06.134-.103.132-.173zM27.673 31.941c-.025.258-.283.162-.397.32a.356.356 0 00-.081.235.23.23 0 00.01.065l.013-.01c.108-.075.186-.197.3-.285l.004-.006h.003l.037-.002h.007c.009 0 .013 0 .025-.002h.005c.03-.001.007.062.017.079.08-.026.138-.083.134-.163a.1.1 0 00-.003-.018l.01-.016.001-.01a.343.343 0 00.136-.128l.032-.052c.042-.07-.001-.05.062-.05.024 0 .046-.043.076-.035.046-.046.096-.048.086-.077 0-.008-.093-.02-.104-.04-.25.016-.162.083-.373.195zM26.91 32.59a.336.336 0 00-.064.009c-.148.09-.212.154-.37.156-.035 0-.075-.002-.117-.006-.22.206-.23.354-.23.512l.182.029-.014-.105c-.01-.184.255-.242.255-.242.242-.1.358-.114.506-.296a.198.198 0 00-.148-.058zM27.58 32.716c-.08-.001-.021.065-.092.121l-.01.009-.016-.003c-.026-.005-.047.039-.069.039-.152-.01-.444.2-.448.208-.107.16-.144.298-.327.437.04.028.068.044.097.045.028.001.063-.01.111-.049.042-.036.072-.092.157-.096.059-.226.214-.296.463-.349v-.002l.105-.188c.23-.055.219-.051.311-.203a.674.674 0 01-.15.027l-.133.004zM27.38 33.794a.308.308 0 01.083-.172.546.546 0 01.073-.064l.054-.04-.034-.118-.009.002c-.131.024-.166.09-.213.153l-.028.051a.459.459 0 01-.16.14.212.212 0 01-.124.027c-.083.005-.17-.021-.237-.035-.034.023-.037.044-.037.078 0 .012.002.026.007.04l.01.07c0 .024 0 .037-.002.058a.12.12 0 00.034.01.08.08 0 00.043-.025l.034-.048.012.002.036-.002c.014.002.029.002.041.002.037-.002.056.019.07.035.127-.035.286-.059.346-.164zM26.87 32.018c.018-.083.102-.128.186-.13.037 0 .071.01.103.025l.024-.025.02-.137.008-.005c.145-.118.145-.034.33-.059a.293.293 0 01-.015-.09c-.01-.284.183-.362.192-.63-.043-.041-.077-.066-.119-.066-.006.003-.014.003-.02.003-.038.079-.08.155-.075.234v.013l.005.02-.019.007c-.233.097-.048.093-.172.286l-.01.015-.018-.006a.268.268 0 00-.075-.01c-.094 0-.144.064-.194.13l-.046.06c-.073.09-.197.13-.206.176-.028.19-.109.179-.26.322a.196.196 0 01-.13.06c-.057 0-.091-.032-.104-.043a.069.069 0 01-.008-.024c.002-.03.021-.047.024-.052.044-.064.096-.135.09-.2a.13.13 0 00-.01-.05l-.007-.015.01-.012c.132-.149.23-.309.29-.49a.408.408 0 01.326-.228l.014-.002.01.014c.018.02.04.03.06.04l.035.018a.113.113 0 01.048.033c.046-.023.051-.03.051-.077v-.04a.232.232 0 01-.09-.17c-.006-.127.087-.249.14-.354a.364.364 0 00-.142-.054c-.047 0-.075.036-.092.146l-.01.092c-.01.068-.025.173-.115.21H26.89a.223.223 0 00-.028-.001c-.251-.004-.303.284-.511.409l.007.172-.005.008c-.047.06-.119.096-.178.14-.022.012-.04.034-.065.06.03.033.05.066.053.106.002.041-.015.077-.05.122-.084.097-.199.12-.191.203a.126.126 0 01.002.023l.072.046c.13.019.294.171.45.185.181-.104.358-.21.425-.408zM34.102 25.071c-.025-.007.017.18-.009.174.061.114.119.256.295.236-.024-.131-.161-.217-.234-.347l-.052-.063zM20.977 35.78l.04-.01c.054-.03.095-.058.088-.125-.09-.063-.144-.142-.234-.18-.056-.024-.091-.015-.143.01.065.154.037.22-.07.341l-.062.07c-.1.105-.123.165-.102.314a.943.943 0 00.481-.323c-.027-.046-.06-.075.002-.098zM21.63 36.825c-.042 0-.084.026-.123.053l-.023.01-.006.008-.003.01-.007.056-.004.025h.022l.004-.005c.036 0 .091.04.149.043h.003c.038 0 .074-.024.1-.084l.004-.01-.005-.007c-.03-.07-.069-.099-.11-.099zM21.11 36.726c-.135-.032-.273-.036-.409-.04l.088.301.14-.005c.002-.073-.01-.105.09-.11.106 0 .162.014.238-.068l-.053-.064-.093-.014zM20.323 36.179c-.145.019-.15.094-.14.219.006.044.015.09.012.135.003.046.021.045.005.077 0 0 .011.049.038.068.025.023.142-.07.142-.07.072-.07.056-.156-.004-.269l-.053-.16zM21.468 36.045c-.407-.123-.257.343-.361.46l.036.036a.486.486 0 00.27-.282c.131-.125.296-.085.43-.263-.156-.135-.269-.083-.375.05zM34.6 17.285c-.162.137-.366.406-.588.448-.122.021-.46-.013-.482-.079-.02-.061.391-.354.482-.4.101-.055.19-.06.327-.108.072-.027.248-.13.29-.125.08.011.121.061.094.155-.014.054-.065.059-.123.11z" fill="#fff"/></svg>