<!-- by TradingView --><svg width="56" height="56" fill="none" xmlns="http://www.w3.org/2000/svg"><path fill="#253285" d="M0 0h56v56H0z"/><circle cx="28" cy="28" r="28" fill="#253285"/><path d="M10.658 20H11v8.62H9.323V25h-3.73v3.62H4V20h1.592v3.412h3.73V20h1.336zm8.417 2.147c.334.662.508 1.417.508 2.252 0 .842-.18 1.61-.533 2.28-.36.675-.873 1.198-1.528 1.55a4.426 4.426 0 01-2.1.516c-.809 0-1.547-.192-2.19-.576a3.762 3.762 0 01-1.476-1.584 4.69 4.69 0 01-.494-2.1c0-1.384.391-2.484 1.168-3.28.777-.794 1.785-1.205 2.999-1.205.796 0 1.521.192 2.163.563a3.858 3.858 0 011.483 1.584zm-1.425.669a2.239 2.239 0 00-.892-1.007 2.527 2.527 0 00-1.336-.358c-.713 0-1.303.225-1.817.702-.494.457-.745 1.252-.745 2.365 0 .882.244 1.584.726 2.08.488.504 1.085.75 1.823.75.751 0 1.355-.246 1.837-.756.475-.503.719-1.239.719-2.186 0-.616-.103-1.146-.315-1.59zm3.859 4.19V20H20v8.62h5.535V27c-.007.007-3.583.007-4.026.007zm11.037-4.86c.334.663.507 1.418.507 2.253 0 .842-.18 1.61-.533 2.28-.36.675-.873 1.198-1.528 1.55a4.426 4.426 0 01-2.1.516c-.808 0-1.547-.192-2.189-.576a3.762 3.762 0 01-1.477-1.584 4.69 4.69 0 01-.494-2.1c0-1.384.392-2.484 1.169-3.28.77-.794 1.784-1.205 2.998-1.205.796 0 1.521.192 2.164.563a3.858 3.858 0 011.483 1.584zm-1.426.67a2.239 2.239 0 00-.892-1.007 2.527 2.527 0 00-1.336-.358c-.712 0-1.303.225-1.817.702-.494.457-.744 1.252-.744 2.365 0 .895.237 1.577.725 2.08.488.504 1.079.75 1.817.75.751 0 1.355-.246 1.836-.756.476-.503.72-1.239.72-2.186.006-.616-.097-1.146-.309-1.59zM37.54 24v1.499h2.402v1.093a3.433 3.433 0 01-.854.457 3.457 3.457 0 01-1.284.245c-.5 0-.976-.106-1.419-.324a2.14 2.14 0 01-.982-.954c-.231-.438-.347-.994-.347-1.657 0-.536.097-1.04.29-1.497.108-.258.269-.497.468-.715.192-.212.456-.385.783-.517.328-.133.732-.199 1.188-.199.379 0 .725.066 1.034.186.295.119.52.278.68.477.16.205.302.496.411.867l.07.239 1.452-.398-.07-.251c-.148-.57-.373-1.04-.669-1.398-.295-.365-.712-.656-1.226-.855A4.601 4.601 0 0037.78 20c-.848 0-1.612.172-2.267.517a3.524 3.524 0 00-1.547 1.61 5.11 5.11 0 00-.527 2.279c0 .821.18 1.577.533 2.246.36.675.893 1.199 1.592 1.557.687.35 1.458.53 2.299.53.623 0 1.233-.106 1.823-.325a6.528 6.528 0 001.708-.967l.103-.08V24h-3.955zm5.946-4H42v8.62h1.737V20h-.25zm6.928 5.26l-.058.259c-.135.603-.391 1.06-.764 1.365-.378.304-.828.457-1.38.457-.45 0-.88-.113-1.265-.338a1.959 1.959 0 01-.835-1c-.186-.47-.282-1.034-.282-1.677 0-.49.083-.974.244-1.437.154-.444.41-.789.79-1.047.378-.259.86-.391 1.438-.391.488 0 .899.12 1.22.344.314.226.558.61.732 1.133l.07.219 1.548-.351-.078-.272c-.243-.795-.667-1.418-1.27-1.855-.598-.437-1.343-.669-2.21-.669-.757 0-1.463.186-2.099.523a3.577 3.577 0 00-1.49 1.51c-.346.65-.52 1.425-.52 2.293a5.6 5.6 0 00.456 2.24c.308.709.764 1.252 1.361 1.63.591.37 1.355.563 2.28.563.905 0 1.682-.245 2.311-.73.636-.483 1.079-1.198 1.316-2.113l.071-.258-1.586-.398zM4 36h1v-6H4v6zm1.734 0H6.76v-6H5.734v6zm1.797 0h1.092v-6H7.53v6zm1.734 0h1.22v-6h-1.22v6zM11 36h1.347v-6H11v6zm1.796 0h1.349v-6h-1.349v6zm1.798 0h1.477v-6h-1.477v6zm1.798 0h1.476v-6h-1.476v6zm1.81 0h1.541v-6h-1.54v6zM52 30v6H20v-6h32z" fill="#fff"/></svg>