<!-- by TradingView --><svg width="56" height="56" fill="none" xmlns="http://www.w3.org/2000/svg"><path fill="#018E41" d="M0 0h56v56H0z"/><circle cx="28" cy="28" r="28" fill="#018E41"/><path d="M4 28a8 8 0 018-8h32a8 8 0 110 16H12a8 8 0 01-8-8z" fill="#fff"/><path fill-rule="evenodd" clip-rule="evenodd" d="M11.44 28.371l-.535 1.99c-.033.099-.133.298.067.43v.266c-.734-.067-1.568-.1-1.935 0l-.5-.067 1.768-6.232c.067-.2.1-.365.067-.53 0-.067-.067-.134-.1-.167l.033-.232c.367.033 1.134.133 1.835 0l.567.066s-.134.465-.2.763l-.868 3.116c.567-.43 1.701-.994 2.335-1.06l.534-1.923c.066-.166.133-.53.1-.63-.067-.034-.1-.067-.134-.067l.034-.265c.333.033 1.334.133 1.934 0l.5.066s-.133.465-.233.763l-.867 3.05-.7 2.652c-.034.132-.167.298.1.43l-.067.266c-.7-.1-1.535-.1-1.935 0l-.467-.066.968-3.415c-.6 0-1.635.3-2.302.796zm31.788-1.657c.3.464.2.873.067 1.305h-3.636c-.167.596-.334 1.58.234 2.143.566.43 1.367.232 1.834 0 .29-.126.56-.294.8-.497.1.1.334.364.334.364-.934.73-2.168 1.392-3.636 1.094-.734-.1-1.4-.663-1.601-1.193-.4-1.393.467-2.719 1.768-3.448 1-.53 3.035-.83 3.836.232zm-2.368-.133c-.7.133-.968.576-1.101.974h1.534c.133-.233.234-.443.133-.708-.133-.2-.3-.299-.566-.266zm-18.48.299c.7 1.027.133 2.718-1.101 3.613-.734.53-1.601.763-2.635.73-.6 0-1.234-.232-1.668-.564-.534-.398-.734-1.226-.667-1.591.2-1.426 1.501-2.719 3.269-2.984.967-.133 2.235.066 2.802.796zm-2.502-.332c-.367.133-.734.431-.967.962-.434.828-.768 1.989-.567 2.85.1.332.4.399.633.366.634-.166 1.235-1.194 1.501-1.89.134-.431.434-1.459.067-2.122-.133-.166-.333-.265-.667-.166zm9.107-.862c.1-.199-.3-.464-.634-.464-1.234-.033-2.002 1.226-2.669 2.088l-.033.034s.133-.564.2-.83l-.367-.066c-.767.166-1.634 0-1.801 0l-.034.233c.267.1.134.298.1.497l-1.067 3.813.5.066c.167-.066.801-.066.968-.066l.967.066.033-.232c-.2-.133-.133-.299-.1-.497 0 0 .567-2.222.8-2.553.535-1.194 2.102-1.79 1.802-.73l.067.067c.067-.034 1.034-1.028 1.268-1.426zm17.245 2.055l.767-2.751c.1-.265.234-.763.234-.763l-.534-.033c-.8.133-1.4 0-1.901-.033l-.034.265c.034 0 .067.067.134.133s-.067.398-.1.564L43.16 30.99l.534.066c.367-.1 1.167-.1 1.868 0l.033-.232c-.167-.1-.133-.265-.133-.365l.767-2.719z" fill="#CC2229"/><path fill-rule="evenodd" clip-rule="evenodd" d="M29.485 26.482c-.334.232-1.635.928-1.801.994v.199c.066 0 .133.1.1.265-.267.962-.867 3.05-.867 3.05l.5.067c.167-.067.934-.1 1.901 0l.034-.266-.067-.033c-.1-.1-.067-.232 0-.464l.467-1.625c.133-.397.2-1.292 1.034-1.79.133-.066.267-.066.366-.066.534.066.268.762.2 1.027l-.8 2.852-.067.298.468.066c.467-.132 1.3-.066 1.934 0l.033-.232-.033-.066c-.133-.066-.133-.166-.034-.464 0 0 .501-1.824.668-2.42.133-.431.634-1.194 1.3-1.061.2.066.334.298.234.73l-.967 3.447.5.066c.534-.132 1.368-.033 1.902 0l.066-.232c-.066-.033-.1-.066-.1-.1-.1-.132 0-.33.034-.53 0 0 .667-2.32.667-2.917-.034-.265-.1-.564-.367-.862-.3-.298-.7-.365-.968-.398-1.067-.133-2 .564-2.368 1.028 0 0-.1-.332-.2-.464-.133-.232-.433-.431-.734-.498-1.167-.331-1.8.299-2.435.962l.167-.431c.1-.431-.1-.53-.767-.133z" fill="#CC2229"/><path fill-rule="evenodd" clip-rule="evenodd" d="M29.252 26.394c.933-.895 1.834-1.823 2.201-2.718.133-.332.2-.73.133-1.194-.133-.73-.466-.796-.667-.762-.1 0-.333.132-.367.398-.133-.233-.5-.398-.767-.133 0 0-.267.199-.133.63-.3-.1-.6.1-.667.364-.067.299.067.564.434.63.433.1 1 .663.466 1.757-.133.299-.634.83-.7.896-.034.066 0 .165.067.132z" fill="#33A457"/><path fill-rule="evenodd" clip-rule="evenodd" d="M16.881 35h25.513C47.132 35 51 32.22 51 28.263 51 24.166 48.38 21 42.982 21h-8.913c.261.028.646.267.646 1h7.711C47.46 22 50 24.357 50 28.236 50 31.379 46.805 34 42.33 34H19.73c-1.078.561-1.182.606-2.849 1-.065 0-.065 0 0 0z" fill="#33A457"/><path fill-rule="evenodd" clip-rule="evenodd" d="M13.462 33.956c-3.756 0-7.454-2.268-7.454-5.664v-.028c0-4.04 3.469-6.264 7.421-6.264h15.903c0-.614.695-1 .892-1H13.266c-4.997 0-8.263 3.588-8.263 7.264 0 4.49 4.442 6.736 8.655 6.736 1.698 0 2.906-.28 3.821-.533 1.568-.449 3.103-1.403 4.474-2.47.099-.112.033-.168-.098-.084-2.689 1.664-5.333 2.043-8.393 2.043z" fill="#33A457"/><path d="M32.558 21.497c.033-.497.467-.497.467-.497.434 0 .533.43.533.43.334-.265.667-.033.667-.033.334.299.034.663.034.663a.52.52 0 01.367.067c.1.066.2.199.134.332a.541.541 0 01-.234.132s-.8.2-2.502 1.558l-.333.266c-.2.165-.2.099-.067-.067v-.033c.9-1.326.167-2.486.167-2.486-.033-.133-.067-.265.033-.365.333-.331.734.033.734.033zM31.69 25.144c-.166.067-.3.166-.466.265-.134.1-.167.033-.067-.066.934-.73 2.302-1.691 2.802-1.923.3-.166.667-.332 1.034-.298.4.033.6.563 0 .861 0 0 .467.166.367.663 0 0-.134.498-.734.432 0 0 .033.198-.067.43-.1.166-.367.366-.767.266 0 0 .133-.465-.3-.73 0 0-.534-.53-1.801.1z" fill="#33A457"/></svg>