<!-- by TradingView --><svg width="56" height="56" fill="none" xmlns="http://www.w3.org/2000/svg"><path fill="#F44144" d="M0 0h56v56H0z"/><circle cx="28" cy="28" r="28" fill="#F44144"/><path d="M8 24H5v8.998h3V24zM25 31v-2h-3v4h10v-2h-7zM16.177 31H12v-2H9v4h7.623C19.369 33 21 31.713 21 29.409V29h-2.747c-.034 1.27-.922 2-2.076 2zM12 26h4.177c1.15 0 2.037.785 2.076 2H21v-.532C21 25.242 19.369 24 16.623 24H9v4l3 .025V26zM22 28h3v-2h7.027v-2H22v4z" fill="#fff"/><path d="M32 27.5h-6v2h6v-2zM49.605 29H45l-2.54 3.054L39.92 29h-4.594L32 32.998h3.407l2.214-2.882L39.84 33h5.24l2.215-2.883L49.514 33H53l-3.395-4zM42.5 24.968L44.977 28h4.761L53 24h-3.42l-2.224 2.95-2.224-2.948L39.873 24l-2.23 2.95-2.223-2.948H32L35.263 28h4.765l2.473-3.032z" fill="#fff"/></svg>