<!-- by TradingView --><svg width="56" height="56" fill="none" xmlns="http://www.w3.org/2000/svg"><path fill="#007DC3" d="M0 0h56v56H0z"/><circle cx="28" cy="28" r="28" fill="#007DC3"/><path d="M14 21l-3.704 14H4l3.673-14H14z" fill="#fff"/><path fill-rule="evenodd" clip-rule="evenodd" d="M20.12 21h-5.532L11 34.994h7.147c2.213.13 3.948-1.81 4.875-3.62.096-.177.172-.354.25-.534.093-.214.188-.433.318-.66.058.524.19 1.036.39 1.518.537 1.68 2.122 3.198 3.857 3.296H39.08l2.512-2.585 1.375 2.585h5.95l-3.197-7.045L52 21h-6.669l-2.093 2.163L42.1 21H29.152a5.386 5.386 0 00-2.66 1.131c-1.167.97-1.884 2.262-2.512 3.652 0-.155-.032-.283-.065-.415l-.025-.102c-.42-2.004-1.765-3.975-3.77-4.266zm10.557 4.731c0-.226.572-.987 1.47-.987l3.654.015.706-2.627c.7 1.327 1.38 2.727 2.055 4.116l.365.752h3.323L42 28h-3.2l-.317.377-2.336 2.43-2.658 2.764.62-2.473h-2.952c-.412.008-1.107-.517-1.227-1.13h4.506l.417-1.593.084-.375H18l.25-1h16.931l.386-1.269h-4.89z" fill="#fff"/></svg>