<!-- by TradingView --><svg width="56" height="56" fill="none" xmlns="http://www.w3.org/2000/svg"><path fill="#0175CE" d="M0 0h56v56H0z"/><circle cx="28" cy="28" r="28" fill="#0175CE"/><path fill-rule="evenodd" clip-rule="evenodd" d="M27.958 22.54C27.383 23.336 27 24.905 27 26h5v5h-5v9h-5V26.013c0-1.876.226-4.323 1.71-6.377C25.291 17.444 28.442 16 32 16v5c-1.95 0-3.428.562-4.042 1.54zM41.958 22.54C41.383 23.336 41 24.905 41 26h5v5h-5v9h-5V26.013c0-1.876.226-4.323 1.71-6.377C39.291 17.444 42.442 16 46 16v5c-1.95 0-3.428.562-4.042 1.54z" fill="#fff"/><path d="M13.006 26c.043-1.09.371-2.367 1.018-3.16.584-.715 1.781-1.417 3.976-1.417V17h-6v23h6V26h-4.994z" fill="#fff"/></svg>