<!-- by TradingView --><svg width="56" height="56" fill="none" xmlns="http://www.w3.org/2000/svg"><path fill="#616161" d="M0 0h56v56H0z"/><circle cx="28" cy="28" r="28" fill="#616161"/><path d="M8.626 21h1.287v11H8.647l-.021-11zM12.102 21h1.287v11h-1.266l-.021-11zM19.89 31.802h1.287v-6.871H19.89v3.344c0 1.584-.794 2.471-1.867 2.471-.794 0-1.523-.667-1.523-1.965v-3.872h-1.287v4.246c0 1.848 1.137 2.823 2.446 2.823 1.03 0 1.888-.506 2.21-1.232h.02v1.056zM22.786 24.93h1.202v1.079h.021c.129-.418.944-1.254 2.146-1.254.987 0 1.673.44 2.102 1.276a2.455 2.455 0 012.124-1.276c2.06 0 2.553 1.518 2.553 3.058v3.989H31.67v-3.813c0-1.056-.215-2.002-1.46-2.002-1.244 0-1.716.66-1.716 1.892v3.945h-1.287v-3.791c0-1.298-.193-2.046-1.416-2.046-.923 0-1.738.506-1.738 2.068v3.769h-1.244l-.022-6.893zM35.981 24.93h-1.287v6.872h1.287v-6.871zM39.114 24.93v1.057h.021c.322-.726 1.18-1.232 2.21-1.232 1.309 0 2.446.792 2.446 2.64v4.429h-1.287v-4.055c0-1.298-.73-1.782-1.524-1.782-1.072 0-1.866.506-1.866 2.09v3.725h-1.288v-6.871h1.288z" fill="#fff"/><path fill-rule="evenodd" clip-rule="evenodd" d="M46.31 26.545l-.073.058-.773-.836c.708-.682 1.717-1.012 2.66-1.012 1.996 0 2.811 1.1 2.811 2.288V30.4c0 .484.022.88.065 1.254h-1.137v-.004c-.022-.35-.043-.701-.043-1.052h-.022c-.579.902-1.33 1.232-2.36 1.232-1.244 0-2.317-.726-2.317-2.068 0-1.76 1.652-2.376 3.69-2.376h.944v-.124c0-.704-.515-1.452-1.609-1.452-.916 0-1.387.376-1.836.734zm3.467 2.25v-.44h-.665c-1.202 0-2.682.22-2.682 1.32 0 .792.558 1.122 1.437 1.122 1.416 0 1.91-1.078 1.91-2.002z" fill="#fff"/><path fill-rule="evenodd" clip-rule="evenodd" d="M5 22.41c0-.484.386-.88.858-.88s.858.396.858.88-.386.88-.858.88A.872.872 0 015 22.41zm1.502 2.42H5.236v6.886h1.266V24.83z" fill="#FFB441"/></svg>