<!-- by TradingView --><svg width="56" height="56" fill="none" xmlns="http://www.w3.org/2000/svg"><path fill="#1D9E6A" d="M0 0h56v56H0z"/><circle cx="28" cy="28" r="28" fill="#1D9E6A"/><path d="M29.64 19.896L14.418 36.47a10.811 10.811 0 01-.63-1.128L29.74 19.415c.1-.083.381-.331.298-.215-.05.05-.314.53-.397.696zm-.414 2.008l-9.872 19.574c.331.216.68.432 1.027.614l8.878-19.624a6.067 6.067 0 01-.033-.564zm.198-1.427c-.016-.017-.05.066-.116.15l-13.15 18.13c.297.333.596.631.927.93l12.207-18.53c.016-.199.083-.481.132-.68zm8.547 4.495l5.681-.033c-.066-.298-.132-.746-.199-1.045l-5.267.797a3.247 3.247 0 01-.215.282zm-4.704 1.759l5.565 13.006c.282-.266.563-.548.828-.83l-6.095-12.126c-.083-.017-.198-.034-.298-.05zm5.35-2.82c.017 0 .05-.017.066-.033l3.81-2.605c-.15-.298-.381-.73-.547-1.028l-3.114 3.085c-.05.216-.132.398-.215.58zm-1.375 1.808l-.215.166 6.907 3.085c.016-.298.066-.73.066-1.028l-6.758-2.223zm-7.818-2.422L23.13 43.254c.398.132.796.232 1.193.331l5.25-19.84-.149-.448zm5.152 3.5l6.774 9.954c.182-.299.464-.73.63-1.029l-7.156-8.958c-.066.017-.15.017-.248.033zm1.291-.298l7.288 6.52c.1-.3.249-.764.331-1.08L36.1 26.4a3.193 3.193 0 00-.231.1zm-3.842-.166l3.329 15.875a16.59 16.59 0 001.077-.613l-4.141-15.13a1.922 1.922 0 00-.265-.132zm-1.126-.747l.53 18.049c.414-.1.828-.199 1.242-.315l-1.49-17.501c-.117-.083-.2-.166-.282-.233zm-3.644 18.397c.232.017.48.017.728.017.166 0 .332 0 .514-.017l1.739-19.11c-.083-.1-.149-.216-.232-.332l-2.75 19.442zm6.492-27.006h.067c.099 0 .215-.017.314-.017a4.924 4.924 0 014.92 4.927c0 .282-.034.564-.067.846.05 0 .1-.033.116-.066l1.226-4.745c-.248-.298-.563-.713-.845-.995l-.38 3.4c-.067-.215-.166-.43-.365-.845a2.738 2.738 0 00-.248-.415l-1.21-4.064a16.898 16.898 0 00-1.292-.846l1.574 3.832c-.282-.266-.563-.498-.712-.63l-3.313-4.364a17.173 17.173 0 00-1.64-.514l4.042 4.545-.1-.016-6.526-4.944c-.43-.033-.877-.066-1.325-.066-.116 0-.248 0-.364.017l6.443 4.313-8.96-4.065c-.514.1-1.01.216-1.508.349l9.706 3.815-12.273-2.836a15.54 15.54 0 00-1.358.746l12.439 2.273-14.642-.647a17.58 17.58 0 00-1.127 1.095l15.189-.083L14.7 19.133c-.282.415-.53.846-.779 1.278l17.11-2.986-18.27 5.706c-.132.415-.247.83-.347 1.26L30.65 17.89l-18.617 9.273c-.016.282-.016.564-.016.846 0 .116-.017.382-.017.498l18.402-10.12L12.348 31.31c.083.414.199.812.314 1.227l17.69-13.769c.083-.1.182-.199.265-.298.199-.183.48-.432.795-.664.646-.464 1.623-.763 2.335-.83z" fill="#fff"/></svg>