<!-- by TradingView --><svg width="56" height="56" fill="none" xmlns="http://www.w3.org/2000/svg"><path fill="#4491A5" d="M0 0h56v56H0z"/><circle cx="28" cy="28" r="28" fill="#4491A5"/><path fill-rule="evenodd" clip-rule="evenodd" d="M17.073 34h3.435l9.209-15.6L28 15.433 17.073 34z" fill="#fff"/><path fill-rule="evenodd" clip-rule="evenodd" d="M28 12c-8.82 0-16 7.18-16 16s7.18 16 16 16c8.897 0 16-7.18 16-16s-7.103-16-16-16zm2 29.19V24.76L33.698 31H31v3h7.926l-8.741-14.897L26 26.25v14.861C19.365 40.41 14.809 34.79 14.809 28c0-7.337 5.932-13.191 13.191-13.191 7.337 0 13.27 5.854 13.27 13.191 0 6.79-4.635 12.41-11.27 13.19z" fill="#fff"/></svg>