<!-- by TradingView --><svg width="56" height="56" fill="none" xmlns="http://www.w3.org/2000/svg"><path fill="#D52B1E" d="M0 0h56v56H0z"/><circle cx="28" cy="28" r="28" fill="#D52B1E"/><path d="M47.87 22.1c-1.251-6.396-11.16-8.94-22.135-5.681A36.362 36.362 0 0019.375 19h1.343c1.568-.854 3.28-1.6 5.102-2.14 9.112-2.706 17.472.089 18.676 6.242.69 3.527-1.126 7.391-4.517 10.558l-.32 1.577c5.69-3.785 9.06-8.79 8.21-13.137zM35.278 37.004a26.317 26.317 0 01-5.102 2.135c-9.11 2.706-17.47-.088-18.673-6.24-.69-3.534 1.131-7.405 4.534-10.574l.318-1.572c-5.699 3.788-9.075 8.799-8.225 13.148 1.25 6.396 11.16 8.938 22.134 5.68a36.42 36.42 0 006.36-2.577h-1.346zm-4.262-10.65L31.718 23c1.804.019 3.238-.168 2.912 1.435-.42 2.073-1.121 1.88-3.614 1.92zm-8.234 9.641h6.28L30.312 30c2.379-.08 3.186.027 2.932 1.278l-.955 4.717h6.255l1.047-5.18c.14-.688.483-2.378-2.257-3.143 2.785-.787 3.389-2.441 3.621-3.589.542-2.68-1.572-4.083-4.828-4.083H26.02l-3.238 15.995zM17.47 20h6.665l-3.238 15.995h-6.665L17.47 20z" fill="#fff"/></svg>