<!-- by TradingView --><svg width="56" height="56" fill="none" xmlns="http://www.w3.org/2000/svg"><path fill="#122B82" d="M0 0h56v56H0z"/><circle cx="28" cy="28" r="28" fill="#122B82"/><path d="M52 25.574l-.139 1.672h-.681c-1.087 0-1.652.873-1.652 1.71V33H47.6v-7.426h1.826l.041.893c.383-.612 1.053-.893 1.88-.893H52zM38.639 33H36.71v-4.052c0-.792-.068-1.79-1.18-1.79-1.071 0-1.498.775-1.498 1.677V33H32v-7.426h1.96l.04.915c.383-.613 1.03-1.09 2.082-1.09 1.944 0 2.557 1.391 2.557 2.839V33zm-7.376-1.94l-.135 1.63c-.462.124-.873.31-1.37.31-1.817 0-2.345-.977-2.345-2.656v-6.79h1.93v2.02h1.918l-.133 1.671h-1.786v2.953c0 .674.185 1.038.874 1.038.3 0 .633-.036 1.047-.175zm-4.483-5.486l-.15 1.672h-.523c-1.085 0-1.625.872-1.625 1.71V33h-1.929v-7.426h1.826l.038.893c.385-.612 1.056-.893 1.883-.893h.48zM14 31.94a8.72 8.72 0 01-4.492 1.056C6.308 32.898 4 30.906 4 27.54c0-3.35 2.33-5.49 5.51-5.54 1.611-.025 3.053.385 4.18 1.382l-1.357 1.377c-.698-.596-1.724-.944-2.95-.888-2.001.093-3.207 1.55-3.233 3.555-.026 2.17 1.302 3.667 3.378 3.722.977.024 1.677-.107 2.282-.38v-2.22H9.652l.146-1.82H14v5.21zM46.739 30h-5.288c.15.915.868 1.299 1.761 1.324.869.023 1.354-.24 1.99-.885l1.258.963C45.566 32.506 44.493 33 43.27 33c-2.15 0-3.762-1.6-3.762-3.847 0-2.245 1.603-3.754 3.681-3.754 2.29 0 3.55 1.391 3.55 3.86V30zm-1.932-1.663c-.06-.904-.735-1.476-1.666-1.44-.937.036-1.56.647-1.69 1.44h3.356zm-23.468-.292V33h-1.7l-.043-.973c-.522.648-1.369.973-2.24.973-1.314 0-2.555-.741-2.58-2.253-.04-2.377 2.667-2.546 4.367-2.546h.34v-.093c0-.786-.519-1.21-1.495-1.21-.701 0-1.393.281-1.905.762l-1.113-1.133c1.01-.822 2.062-1.128 3.182-1.128 2.212 0 3.187 1.025 3.187 2.646zm-1.856 1.566h-.268c-.913.002-2.517.047-2.511 1.004.009 1.349 2.78.92 2.78-.706v-.298z" fill="#fff"/></svg>