<!-- by TradingView --><svg width="56" height="56" fill="none" xmlns="http://www.w3.org/2000/svg"><path fill="#1A3668" d="M0 0h56v56H0z"/><circle cx="28" cy="28" r="28" fill="#1A3668"/><path d="M45.8 34c.77-4.24 1.54-8.519 2.2-11.04-1.87-.382-3.74-.688-6.16-.688-4.474 0-7.627 2.674-8.214 6.647-.44 2.789.917 5.08 3.74 5.08 1.21 0 2.383-.42 3.484-1.107-.074.382-.147.802-.257 1.108H45.8zm-3.63-7.64c-.184 1.26-.77 3.782-2.42 3.782-.807 0-1.064-.802-.954-1.566.184-1.338 1.32-2.33 2.604-2.33.256 0 .513.037.77.114zM26.89 19c-.406 1.618-.846 3.235-1.1 4.78a6.664 6.664 0 014.179-1.434c3.006 0 3.812 1.433 3.52 3.198-.113.882-1.027 5.184-1.58 8.456h-5.313c.367-1.654.807-3.713 1.061-5.367.147-.773.332-2.133-.694-2.133-1.1 0-1.686 1.14-1.98 2.022-.591 1.655-.845 3.824-1.212 5.478H18.38c1.173-4.522 2.165-9.191 3.118-15h5.392zM19.734 19c-.147.662-.404 1.824-.66 3H14.05c.22-1.03.367-2.044.513-3h5.17zm-.697 4c-.807 3.713-1.467 7.287-2.2 12.103C16.47 37.345 15.59 39 11.85 39c-1.32 0-2.603-.11-3.85-.33v-3.861c.44.147 1.1.257 1.577.257 1.283 0 1.87-.551 2.236-1.838C12.4 31.096 12.95 27.926 13.72 23h5.317z" fill="#fff"/></svg>