<!-- by TradingView --><svg width="56" height="56" fill="none" xmlns="http://www.w3.org/2000/svg"><path fill="#E92431" d="M0 0h56v56H0z"/><circle cx="28" cy="28" r="28" fill="#E92431"/><path fill-rule="evenodd" clip-rule="evenodd" d="M43.43 24.028c-.14.101-.26.223-.34.324l-.697.65c-.32.304-.638.608-.938.933-.06.06-1.116 1.034-1.116 1.034-.18-1.36-.26-2.86-.32-4.098-.08-1.48-.119-2.962-.139-4.442-.02-1.461 0-2.922.24-4.382.08-.569.957-2.496-.36-1.928-2.812 1.217-6.96 4.788-7.04 10.53-.02 1.216.14 2.433.519 3.61.08.264.18.507.28.771.079.182.358.568.358.77 0 .427-1.097.71-1.476.792-.319.081-.658.122-.997.142-.379.04-.718.162-.837-.203-.16-.527-.2-1.176-.5-1.846-.717-1.542-1.954-2.698-3.629-2.941-1.495-.203-2.991.385-4.307 1.075a23.16 23.16 0 00-2.434 1.5 94.737 94.737 0 01-.379-4.117c-.219-3.307-.319-6.451.499-9.657.04-.142.06-.304-.02-.426-.12-.182-.399-.121-.598-.04-2.314.933-4.308 2.678-5.584 4.848a11.875 11.875 0 00-1.536 7.324c.34 2.921 1.895 5.761 4.447 7.12a22.88 22.88 0 00-2.812 6.208c-.399 1.4-.638 2.86-.399 4.28.16.913.639 1.928 1.536 2.11.758.163 1.516-.345 2.074-.892 1.775-1.745 2.653-4.22 2.972-6.675.26-2.049.319-4.098.16-6.167-.04-.466-.08-.933-.12-1.42-.12-1.176.718-1.866 1.575-2.515.598-.447 1.197-.873 1.875-1.157.678-.284 1.416-.466 2.154-.365 1.057.142 2.233.873 2.712 1.867.1.223.479 1.014-.04.973-.12 0-.24-.08-.339-.142-.997-.547-2.134-.831-3.25-.73-.46.06-.938.162-1.337.446-.399.284-.678.75-.618 1.238.02.284.16.547.319.79.26.407.598.792 1.017 1.015.957.528 2.094.284 3.131.244.519-.02 1.037.04 1.496.263.22.102.359.183.518.366.2.243.32.811.579.79.339-.02.459-.79.518-1.014.1-.345.12-.852.579-.994a34.608 34.608 0 012.074-.547c.339-.081.698-.142 1.057-.203.24-.04.498-.122.738-.02.359.162.558.567.817.851.32.366.698.67 1.097.913.08.041.698.366.658.447-.06.121-.14.223-.199.345-1.795 3.022-2.273 4.605-2.732 6.41-.678 2.637-.459 5.457 1.196 5.802 2.274.487 4.607-3.59 5.126-7.526.339-2.658 0-5.823-.06-8.5 0 0 .638-.63.818-.812.458-.446.917-.913 1.356-1.38.24-.243.459-.486.698-.71.18-.182.439-.385.518-.648.04-.163-.02-.406-.219-.427-.14.041-.24.082-.34.143zM18.38 38.127c-.379 3.976-2.154 4.32-2.951 4.037-.918-.345-1.177-3.226.239-6.857.678-1.745 1.535-3.287 2.313-4.544.36 2.677.599 5.294.4 7.364zm.459-24.567c-.519 1.197-1.536 3.469-1.675 7.262-.08 2.495.299 5.538.678 8.54-.3.447-.619.894-.898 1.36-1.735-1.237-2.592-3.834-2.712-7.85-.2-6.006 2.692-8.967 4.268-9.718.399-.203.598-.162.339.406zm9.154 15.844c-.04.06-.12.1-.22.142-.239.06-.498.04-.757.02a3.504 3.504 0 01-1.357-.325c-.279-.142-.518-.304-.698-.568-.08-.162-.16-.345-.08-.507.04-.101.14-.162.24-.223.459-.244 1.037-.203 1.516 0 .478.203.877.568 1.236.953.16.163.22.366.12.508zm11.128 8.723c-.379 3.976-2.154 4.32-2.931 4.037-.918-.345-1.177-3.226.239-6.857.678-1.745 1.535-3.287 2.313-4.544.32 2.677.579 5.294.38 7.364zm.459-24.567c-.519 1.197-1.556 3.469-1.675 7.262-.08 2.495.299 5.538.678 8.54-.32.447-.619.894-.918 1.36-1.735-1.237-2.592-3.834-2.712-7.85-.18-6.006 2.692-8.967 4.288-9.718.379-.203.578-.162.339.406z" fill="#fff"/></svg>