<!-- by TradingView --><svg width="56" height="56" fill="none" xmlns="http://www.w3.org/2000/svg"><path fill="#EE3825" d="M0 0h56v56H0z"/><circle cx="28" cy="28" r="28" fill="#EE3825"/><path d="M45.028 25H25.775c-.277-.555-.74-.97-1.201-1.371-.832-.678-1.787-.925-2.711-.74l-.154.031.03-.185c.124-.986-.215-1.942-.924-2.743-.893-1.017-2.28-1.634-3.635-1.634-1.325 0-2.742.617-3.635 1.634-.709.77-1.017 1.85-.893 2.743l.03.185-.184-.03c-.863-.186-1.941.092-2.773.739C8.585 24.523 8 25.94 8 27.328s.616 2.804 1.725 3.698c.832.678 1.91.956 2.773.74l.184-.03-.03.184c-.124.894.215 1.973.893 2.743.924 1.017 2.31 1.634 3.635 1.634 1.356 0 2.773-.647 3.635-1.634.709-.832 1.048-1.757.924-2.743l-.03-.185.184.03c.924.186 1.91-.06 2.711-.739.616-.493 1.017-1.286 1.325-2.026h9.827c.585 0 1.078.424 1.078 1.04 0 .585-.462.96-1.078.96H35v5h4v-3.895c0-.586.384-1.105 1-1.105.585 0 1 .52 1 1.105V36h4v-5h-.988c-.586 0-1.078-.344-1.078-.96 0-.586.492-1.04 1.078-1.04h1.047C46.137 29 47 28.093 47 27.014 46.97 25.966 46.107 25 45.028 25zm-24.675 4.238c-.4 0-.8-.123-1.14-.338l-.616.585c.216.308.37.647.37 1.017 0 1.017-.832 1.85-1.848 1.85a1.854 1.854 0 01-1.849-1.85c0-.339.093-.709.339-1.017l-.616-.585c-.37.215-.74.338-1.078.338-.493 0-.955-.154-1.294-.523a1.919 1.919 0 01-.555-1.326c0-.493.185-.955.555-1.294.339-.34.832-.555 1.294-.555.431 0 .8.185 1.078.4l.616-.585c-.185-.247-.339-.678-.339-1.11 0-.493.185-.955.555-1.294.338-.34.831-.555 1.294-.524.492 0 .985.185 1.324.524.339.339.524.801.524 1.294 0 .37-.123.71-.37 1.11l.616.586c.37-.309.74-.401 1.14-.401.493 0 .955.185 1.294.555.339.339.554.801.554 1.294 0 1.017-.831 1.85-1.848 1.85z" fill="#fff"/></svg>