<!-- by TradingView --><svg width="56" height="56" fill="none" xmlns="http://www.w3.org/2000/svg"><path fill="#128AD8" d="M0 0h56v56H0z"/><circle cx="28" cy="28" r="28" fill="#128AD8"/><path d="M28.007 42.528c-9.167 0-16.564-6.491-16.564-14.53 0-8.041 7.397-14.532 16.564-14.532 9.165 0 16.563 6.491 16.563 14.532 0 8.039-7.398 14.53-16.563 14.53zM10 28C10 36.837 18.058 44 28 44c9.94 0 18-7.163 18-16 0-8.836-8.06-16-18-16-9.962 0-18 7.164-18 16z" fill="#fff"/><path d="M30.324 36.698v-7.066c1.292 2.955 3.577 3.606 5.43 3.606h5.14v-3.166h-3.598c-1.855 0-2.436-1.406-2.436-2.215 0-1.957 1.555-3.448 3.87-5.54h-4.1c-1.774 1.188-3.507 3.07-4.302 5.182v-9.783h-4.657v9.783c-.796-2.113-2.528-3.994-4.302-5.182h-4.1c2.316 2.092 3.87 3.582 3.87 5.54 0 .808-.581 2.214-2.436 2.214h-3.597v3.166h5.14c1.852 0 4.135-.65 5.43-3.605v7.066h4.648zm-6.143 1.521v-4.453c-.367.254-1.281.988-3.164.988h-7.395v-6.209h4.563c1.143 0 1.215-.695 1.215-.905 0-1.794-3.016-4.276-6.363-6.85l8.97-.017c.548.412 1.41 1.037 2.18 1.92v-6.52h7.625v6.52c.769-.883 1.632-1.508 2.18-1.92l8.971.017c-3.349 2.575-6.364 5.056-6.364 6.85 0 .21.072.905 1.215.905h4.563v6.21h-7.396c-1.882 0-2.796-.735-3.163-.988v4.452H24.18z" fill="#fff"/></svg>