<!-- by TradingView --><svg width="56" height="56" fill="none" xmlns="http://www.w3.org/2000/svg"><path fill="#003662" d="M0 0h56v56H0z"/><circle cx="28" cy="28" r="28" fill="#003662"/><path d="M12.588 26.484c.195-.345.42-.647.703-.903a2.827 2.827 0 011.352-.675 3.194 3.194 0 011.582.042c.725.214 1.281.674 1.701 1.326.323.503.513 1.057.623 1.648.093.507.115 1.02.08 1.536-.049.772-.226 1.512-.614 2.183-.425.726-1.017 1.238-1.812 1.438-1.034.26-1.993.079-2.837-.624a3.127 3.127 0 01-.711-.88.259.259 0 00-.071-.088v1.481c0 .032-.013.032-.044.032h-.486c-.045 0-.053-.01-.053-.047v-.065-10.744c0-.154-.018-.14.127-.14h.363c.093 0 .093 0 .097.093V26.484zm-.004 2.597c-.005.14.013.377.044.614.075.545.23 1.057.5 1.527.309.535.724.94 1.285 1.163.402.163.822.21 1.25.168a2.263 2.263 0 001.446-.689c.34-.354.565-.787.715-1.261.279-.899.31-1.81.115-2.732a3.803 3.803 0 00-.521-1.308c-.318-.494-.742-.843-1.29-1.015-.38-.12-.774-.13-1.167-.08a2.361 2.361 0 00-1.082.42c-.469.326-.787.786-.995 1.326-.216.568-.296 1.164-.3 1.867zM44.322 26.484v-.117-4.212c0-.154-.018-.155.133-.155h.455c.087 0 .087.015.087.108v10.747c0 .15 0 .15-.147.15h-.409c-.128 0-.119.013-.119-.117v-1.285-.12c-.045.023-.055.06-.073.093-.453.777-1.108 1.293-1.973 1.508-.856.214-1.689.134-2.462-.317-.586-.34-.998-.842-1.296-1.452a4.785 4.785 0 01-.426-1.504 6.28 6.28 0 01-.036-1.135c.05-.87.26-1.69.746-2.416.467-.698 1.103-1.163 1.922-1.35.408-.093.82-.093 1.232-.037.43.06.833.191 1.208.415.458.27.81.642 1.076 1.107l.055.103c.014-.014.023-.014.027-.014zm0 2.462c0-.508-.068-1.047-.251-1.569-.179-.516-.453-.977-.875-1.326-.705-.577-1.515-.717-2.38-.54-.664.135-1.167.535-1.533 1.108-.376.581-.55 1.238-.614 1.922a5.25 5.25 0 00.064 1.443c.083.465.23.907.467 1.317.293.503.691.884 1.231 1.094.408.158.83.204 1.264.163a2.517 2.517 0 001.304-.484c.408-.298.706-.694.916-1.15.288-.61.412-1.257.407-1.978zM29 31.771c-.49.694-1.13 1.122-1.913 1.308-.737.181-1.475.153-2.187-.144a1.948 1.948 0 01-1.065-1.02 2.193 2.193 0 01-.185-.75c-.027-.367 0-.73.097-1.084.172-.637.566-1.056 1.145-1.298.313-.13.64-.2.976-.247.41-.056.826-.06 1.237-.088.393-.028.782-.047 1.167-.135a1.87 1.87 0 00.274-.084.668.668 0 00.446-.61c.03-.381.013-.768-.102-1.135-.15-.49-.481-.773-.936-.917a2.407 2.407 0 00-.54-.107c-.406-.033-.813-.024-1.21.084-.477.13-.88.377-1.162.814-.2.307-.3.652-.345 1.02a5.378 5.378 0 00-.022.265c0 .041-.018.06-.058.06h-.468c-.04 0-.057-.014-.057-.056.022-.744.22-1.415.724-1.96.35-.376.774-.609 1.25-.735.708-.181 1.415-.181 2.113.052.756.255 1.197.805 1.352 1.624.04.219.058.442.058.666v4.756c0 .247.08.34.318.363.159.014.318-.014.477-.028a.245.245 0 00.062-.009c.048-.01.062.01.062.06v.494c0 .037-.005.065-.049.07-.26.014-.521.046-.782-.014-.438-.098-.663-.382-.672-.852-.009-.121-.004-.242-.004-.363zm-.012-3.081c-.01 0-.023 0-.027.005-.252.153-.53.218-.813.265-.41.07-.822.084-1.237.107-.371.018-.742.037-1.11.093a2.839 2.839 0 00-.773.223c-.375.182-.623.48-.733.899a2.4 2.4 0 00-.075.707c.018.638.292 1.098.848 1.364.075.037.15.065.23.088a3.13 3.13 0 001.657.037c1.37-.33 2.024-1.536 2.046-2.634.009-.363.004-.721.004-1.084-.004-.019 0-.042-.017-.07zM49.064 24.827c.429.009.889.06 1.326.242.751.312 1.202.889 1.352 1.722.044.237.058.48.058.721 0 .08 0 .084-.076.084h-.433c-.075 0-.075 0-.075-.084 0-.195-.009-.395-.044-.586-.124-.69-.512-1.127-1.14-1.336a2.887 2.887 0 00-.866-.14c-.389-.009-.769.014-1.14.14-.3.102-.57.26-.769.53a1.349 1.349 0 00-.274 1.001c.01.084.018.163.036.242.08.34.278.573.574.712.26.126.535.21.813.289.583.168 1.166.326 1.75.489.322.093.632.21.923.381.203.121.385.266.535.452.203.256.318.549.362.88.049.367.022.726-.093 1.08-.137.413-.388.74-.729.986a2.8 2.8 0 01-1.153.484 4.406 4.406 0 01-2.13-.107 2.34 2.34 0 01-1.113-.698c-.305-.35-.477-.768-.57-1.229a4.826 4.826 0 01-.076-.98c0-.093 0-.102.084-.102h.416c.08 0 .084.009.084.093-.005.246.013.547.058.789.154.8.614 1.312 1.352 1.545.437.14.888.172 1.343.14.336-.023.663-.098.976-.228.23-.098.442-.233.619-.424.287-.312.398-.684.371-1.112-.03-.47-.256-.805-.64-1.038a3.374 3.374 0 00-.88-.354c-.504-.14-1.012-.265-1.52-.405a6.198 6.198 0 01-1.051-.377c-.548-.256-.836-.707-.91-1.326a2.373 2.373 0 01.048-.917c.132-.456.397-.81.773-1.07.318-.224.667-.35 1.043-.42.252-.05.5-.07.786-.07zM31.605 26.237c.04-.014.045-.033.059-.051a2.66 2.66 0 011.694-1.257 3.288 3.288 0 011.775.033c.927.284 1.504.916 1.758 1.866.077.284.109.577.109.87V32.958c0 .028-.014.037-.04.037h-.514c-.027 0-.04-.01-.04-.037v-.103-5.068c0-.33-.042-.652-.146-.968-.218-.647-.645-1.08-1.285-1.27a2.666 2.666 0 00-1.64.018c-.59.2-1.017.6-1.317 1.154a3.56 3.56 0 00-.381 1.261 5.57 5.57 0 00-.032.615v4.268c0 .158.013.135-.137.135h-.404c-.045 0-.068-.014-.063-.066.004-.027 0-.05 0-.079V25.14c0-.159-.018-.136.131-.14h.36c.104 0 .108-.023.108.116v.982c.005.051.005.089.005.14zM5 27.503c0-1.783.004-3.57.004-5.352 0-.154-.018-.151.128-.151h.38c.095 0 .07.125.07.192 0 3.352-.004 6.707-.004 10.058 0 .168-.018.145.133.145h5.16c.155 0 .128-.024.133.144v.4c0 .047-.014.07-.062.065-.027-.004-.049 0-.075 0H5.123c-.146 0-.128.019-.128-.14.004-1.786.004-3.574.004-5.361zM20.552 26.246c.033-.01.037-.032.045-.046.355-.666.886-1.07 1.55-1.257a3.43 3.43 0 011.064-.107c.071.005.071.005.071.084v.456c0 .079-.004.084-.075.074a2.517 2.517 0 00-.46 0c-.855.075-1.482.536-1.87 1.392a3.91 3.91 0 00-.309 1.238c-.017.172-.017.35-.017.526v4.254c0 .028-.004.051 0 .08.009.06-.02.06-.07.06-.138-.005-.276 0-.41 0-.067 0-.067.014-.07-.07v-.056-7.717c0-.172-.013-.152.125-.157h.342c.084 0 .084.013.084.106V26.246z" fill="#fff"/></svg>