<!-- by TradingView --><svg width="56" height="56" fill="none" xmlns="http://www.w3.org/2000/svg"><path fill="#002D5B" d="M0 0h56v56H0z"/><path d="M5.671 30.248c.064-.029.417-.233.417-.233.107-.065.207-.134.307-.212a4.521 4.521 0 00-.186-.058c-.426-.165-1.914-.246-2.055.362-.016.068.035.139.078.186.258.286 1.132.091 1.44-.045zm5.144-4.897a8.279 8.279 0 001.503-.683c.151-.104.301-.204.462-.294.65-.364 1.266-1.03 1.646-1.674.044-.074.118-.285.07-.366-.217-.375-1.692.648-1.928.831-.2.156-.414.334-.593.515a3.873 3.873 0 00-.397.496c-.127.18-.677 1.036-.763 1.175zm-3.439 4.852c-.126-.06-.262-.12-.402-.18-.2.104-.398.195-.567.26-.67.254-1.635.595-2.253.182-.03-.046-.083-.067-.089-.126-.047-.07-.087-.162-.052-.247-.014-.068.036-.133.067-.188.326-.567 1.437-.541 1.98-.442.042.008.09.018.138.03.144.021.29.06.434.11.143-.13.299-.284.486-.472.742-.798 1.931-2.367 2.165-2.67.033-.043.078-.098.127-.157.104-.138.234-.317.385-.518a5.95 5.95 0 01-.63.1c-.05.003-.116.002-.184-.002-.362.016-.727.039-1.082-.031-.83-.167-1.9-.49-2.247-1.385-.051-.131-.06-.278-.074-.416.016-.055 0-.104.011-.16a.982.982 0 01.237-.5c.71-.746 1.984-.978 2.952-.763.078.017.554.136.571.202.005.019-.03.046-.044.046-.15 0-.307-.031-.456-.042-.48-.033-.968-.057-1.443.035-.601.116-1.745.42-1.65 1.266.014.128.082.368.144.48.22.394.768.668 1.165.82.69.266 1.506.337 2.236.237l.08-.01.098-.007c.158-.017.315-.041.468-.071a30.01 30.01 0 011.394-1.606c.423-.444 2.716-2.522 3.312-1.843.137.157.134.368.066.557-.28.784-1.31 1.596-2.258 2.148l-.026.017c-.455.308-1.133.548-1.757.72-.22.365-.337.57-.43.722a.184.184 0 01-.02.026l-.155.3a10.65 10.65 0 01-.66 1.101c-.44.642-.929 1.267-1.55 1.732l-.081.06a4.504 4.504 0 01-.52.347c.134.064.259.126.366.176.522.225 1.594.553 1.83.611.297.073.602.1.908.103.242.003.482-.054.723-.057.011 0 .05.017.044.034-.044.132-.99.248-1.027.278-.21.003-.822-.016-1.005-.076-.414-.135-.81-.313-1.209-.488-.148-.065-.292-.14-.44-.21a1.53 1.53 0 01-.076-.033zm4.703-3.007c-.263-.154-1.025.598-1.4.992a.292.292 0 00-.056.05c-.1.116-.265.267-.265.267s.3-.07.457-.142c.484-.216 1.269-.875 1.279-1.14l-.015-.027zm2.295.34c-.29-.343-1.988 1.39-2.228 1.694-.082.102-.647.722-.471.83.2.125 1.084-.66 1.283-.781.213-.13 1.114-1.011 1.264-1.232.049-.07.108-.177.141-.256.03-.07.068-.189.011-.256zm3.46.057c-.025-.063-.126-.09-.185-.08-.547.083-1.966 1.616-2.373 2.063-.058.064-.393.437-.253.515.365.203 3.008-2.013 2.811-2.498zm-2.7 3.593c-.269.044-1.631 1.207-1.86 1.453-.112.12-.801.949-.635 1.084.29.234 1.603-1.426 1.832-1.667.216-.28.497-.574.664-.87zm-3.378-.02c-.067-.074-.599.346-.685.42-.634.538-1.313.99-1.747 1.732-.038.065-.116.25-.104.325.004.028.041.05.067.053.202.017.852-.578.997-.748.192-.225 1.472-1.631 1.472-1.781zm9.675-3.905c-.26-.089-1.066.648-1.386 1.02-.098.115-.222.246-.222.246s.119-.007.356-.105l.15-.062c.469-.247 1.165-.835 1.147-1.053-.002-.023-.024-.039-.044-.046zm1.25 3.047a.597.597 0 01-.158-.337l-.006-.046a.686.686 0 01-.003-.101c.005-.109.04-.156.04-.156s-.17.096-.265.16l-.074.049c-.433.3-1.119.731-1.436.431a.6.6 0 01-.157-.337l-.005-.046a.688.688 0 01-.004-.101c.005-.109.04-.156.04-.156s-.17.096-.264.16c-.144.094-.332.223-.52.333a2.344 2.344 0 01-.421.212c-.624.187-1.186-.383-.91-1.014.026-.057.02-.131.057-.18l-.026-.045c-.03 0-.347.176-.607.325-.157.09-.298.173-.335.197-.336.217-.712.37-1.046.592-.246.163-.41.458-.593.686-.63.784-1.81 2.4-2.7 2.888-.195.106-.52.257-.73.13-.258-.156-.17-.51-.053-.725.292-.532.712-.9 1.158-1.29.313-.274.652-.5.986-.744.29-.211.824-.479 1.046-.69.187-.177.564-.622.656-.858l-.044-.015c-.4.214-.849.728-1.317.762-.17.013-.325-.156-.382-.308-.082-.223.053-.476.111-.687-.008-.018-.027-.039-.048-.034a64.492 64.492 0 00-1.49.843 1.845 1.845 0 00-.366.357c-.324.393-.683.964-.91 1.256-.5.642-1.253 1.521-1.95 1.926-.185.107-.524.265-.731.18-.08-.033-.182-.128-.2-.218-.175-.856 1.552-2.029 2.143-2.453.086-.062.18-.118.27-.175.376-.24.709-.477.99-.768a3.1 3.1 0 00.486-.662l.064-.114a2.376 2.376 0 00-.139.088c-.32.216-.76.636-1.126.72-.275.063-.47-.274-.449-.519.004-.048.06-.287-.07-.21-.088.052-.19.13-.273.195-.072.056-.145.11-.22.156-.41.247-1.095.582-1.465.1a.713.713 0 01-.156-.424 1.27 1.27 0 01.115-.523c.084-.15.149-.29.245-.434.233-.353.56-.7.897-.946.38-.278 1.12-.764 1.584-.805.17-.015.395.03.46.217.133.388-.362.783-.616.98-.363.282-.855.454-1.294.558l-.045.009a.094.094 0 00-.028.002 3.84 3.84 0 01-.243.038l-.093.091a1.6 1.6 0 00-.09.094 1.786 1.786 0 00-.126.151c-.23.297-.476.72-.35.896.221.313.876-.063 1.359-.389.213-.144.395-.28.487-.34.19-.122.32-.36.467-.533.293-.347.666-.708 1.05-.946.284-.177 1.313-.752 1.613-.508.064.052.132.244.145.256.08.077.24-.252.444-.252.055 0 .486-.085.412.084-.057.133-.664.748-.808.923-.202.245-1.049 1.233-1.139 1.442l.03.027c.229-.08.6-.28.938-.486a6.26 6.26 0 00.66-.453c.223-.184.437-.406.65-.606.424-.4 1.381-1.018 1.972-.95.236.027.21.288.312.316.11-.044.191-.158.285-.228.058-.043.496-.088.523.007.015.054-.066.133-.097.168-.632.728-1.313 1.438-1.857 2.24l.026.038a1.14 1.14 0 00.408-.188c.175-.123.375-.213.56-.32.065-.036.128-.075.189-.118.17-.121.36-.2.526-.332.088-.07.173-.128.264-.19.128-.09.225-.253.337-.363.322-.316.627-.565.99-.82.299-.21 1.317-.754 1.53-.22a.488.488 0 01.03.123c.006.056-.006.13-.006.13a.62.62 0 01-.078.18c-.163.273-.5.562-.771.713-.196.11-.382.212-.587.271-.392.113-.795.175-.795.175l-.072.081c-.172.184-1.078 1.301-.3 1.259.18-.01.42-.117.619-.232.109-.064.21-.124.253-.146.48-.245 1.555-1.365 2.422-2.318h-.494c-.046 0-.056-.026-.022-.058l.165-.159a.235.235 0 01.142-.057h.458c.555-.618.977-1.11 1.015-1.154.053-.06.429-.472.463-.492a.258.258 0 01.126-.043h.533c.045 0 .055.026.023.058l-.04.045c-.093.143-.706.808-1.417 1.586h.224c.045 0 .055.026.022.057l-.166.16a.236.236 0 01-.142.057h-.189c-1.077 1.182-2.262 2.507-2.185 2.657.079.156.642-.13 1.014-.36.609-.404 1.543-1.387 2.371-2.297h-.577c-.045 0-.055-.026-.022-.058l.165-.159a.238.238 0 01.143-.057h.54c.554-.618.976-1.11 1.014-1.154.053-.06.43-.472.464-.492a.258.258 0 01.126-.043h.533c.045 0 .055.026.022.058l-.04.045c-.092.143-.705.808-1.417 1.586h.655c.046 0 .055.026.022.057l-.165.16a.236.236 0 01-.143.057h-.62c-1.076 1.182-2.26 2.507-2.185 2.657.045.087.232.036.452-.066.338-.166.735-.448.908-.578.167-.127.398-.35.57-.443.019-.01.054-.014.067.008.026.041.013.092 0 .137-.054.19-.676.626-1.175.923-.09.056-.183.11-.276.156-.297.149-.588.22-.768.05zm25.184 0a.596.596 0 01-.157-.337l-.005-.046a.748.748 0 01-.004-.101c.005-.109.04-.156.04-.156s-.17.096-.265.16l-.073.049c-.433.3-1.12.731-1.436.431a.597.597 0 01-.157-.337l-.006-.046a.801.801 0 01-.004-.101c.005-.109.04-.156.04-.156s-.169.096-.264.16c-.143.094-.331.223-.52.333-.211.124-.425.224-.573.22-.136-.004-.29-.13-.337-.26-.02-.056 0-.189.009-.296.024-.128.055-.232.055-.232s-.201.137-.288.2a.126.126 0 00-.037.041c-.312.253-.701.624-1.104.52-.199-.052-.24-.244-.235-.435a.27.27 0 00.007-.057 2.16 2.16 0 01.082-.47s-.2.138-.287.201a.164.164 0 00-.022.019c-.462.34-1.267 1.016-1.636.605-.18-.2-.142-.528-.037-.748.775-1.626 3.369-4.141 4.81-5.184.233-.169 1.373-1.036 1.568-.522.23.605-3.076 3.086-3.374 3.31-.548.411-1.183.809-1.658 1.305-.256.267-.51.631-.701.95-.09.15-.34.513-.315.69.024.179.339.016.415-.019.593-.274 1.12-.776 1.632-1.182.085-.068.13-.156.215-.225.134-.109.245-.26.378-.37.567-.468 1.18-.909 1.891-1.095.386-.101.578.203.664.183.067-.015.178-.11.25-.135.069-.024.422-.032.495-.021.29-.005-.038.248-.344.549-.513.504-1.373 1.312-1.806 1.945-.043.063-.269.387-.149.431.049.018.22-.069.373-.154.11-.061.21-.121.254-.143.48-.245 1.556-1.365 2.423-2.318h-.495c-.045 0-.055-.026-.022-.058l.165-.159a.238.238 0 01.142-.057h.458c.555-.618.977-1.11 1.015-1.154.053-.06.43-.472.464-.492a.26.26 0 01.126-.043h.532c.046 0 .056.026.023.058l-.04.045c-.093.143-.706.808-1.417 1.586h.224c.045 0 .055.026.022.057l-.165.16a.237.237 0 01-.142.057h-.19c-1.076 1.182-2.26 2.507-2.184 2.657.078.156.64-.13 1.013-.36.61-.404 1.544-1.387 2.371-2.297h-.576c-.045 0-.055-.026-.023-.058l.166-.159a.238.238 0 01.142-.057h.54c.555-.618.977-1.11 1.015-1.154.053-.06.429-.472.463-.492a.258.258 0 01.126-.043h.534c.045 0 .054.026.022.058l-.04.045c-.093.143-.706.808-1.417 1.586h.655c.045 0 .054.026.021.057l-.165.16a.236.236 0 01-.142.057h-.62c-1.077 1.182-2.261 2.507-2.185 2.657.044.087.231.036.451-.066.338-.166.736-.448.908-.578.167-.127.398-.35.57-.443.02-.01.054-.014.068.008.026.041.012.092 0 .137-.055.19-.677.626-1.176.923a3.41 3.41 0 01-.276.156c-.297.149-.588.22-.768.05zm-1.96-2.867c-.146-.375-1.302.648-1.454.786-.357.325-1.32 1.29-1.458 1.724-.096.307.405-.03.457-.06.491-.3.944-.776 1.342-1.195.286-.3.77-.686.998-1 .042-.058.144-.179.115-.255zm-2.236-.911c-.252.264-.532.516-.753.808-.055.07-.092.12-.092.12s.128-.083.333-.233c.265-.188.597-.425.786-.611.232-.23.517-.435.768-.645.252-.211 1.954-1.736 1.947-1.934-.004-.096-.245.058-.279.077-.33.183-.673.511-.956.766-.602.541-1.194 1.062-1.754 1.652zm-14.123 1.74c-.153.162-.72-.272-1.217.023-.517.307-1.329 1.643-.68 2.132.377.284 1.302-.072 1.544-.44.093-.142.17-.32.208-.485-.28-.124-.54-.142-.846-.128-.222.01-.378.293-.211.473.018.02.101.069.124.032-.138-.272.35-.461.32-.067-.008.128-.135.203-.224.234-.438.147-.536-.324-.433-.654.106-.345.567-.474.88-.49.643-.034 1.338.32 1.965.213.612-.106.451-.738.056-.603.138.49-.538.591-.538.122 0-.543 1.137-.396 1.094.206a.802.802 0 01-.1.29c-.298.582-1.023.63-1.568.467-.069.116-.124.253-.214.353-.5.564-1.35 1.038-2.104.973-.368-.032-.836-.388-.953-.752-.111-.35-.114-.493.008-.869.234-.721.766-1.115 1.471-1.29.053-.013.341-.05.341-.124 0-.094-.078-.146-.074-.33.014-.507.656-.91 1.08-1.037.457-.136.97-.213 1.309.221.08.104.14.297.107.428-.077.309-.602.675-.811.297-.228-.409.662-.418.581-.614-.23-.56-1.442.149-1.631.723-.162.49.594.321.516.696zm13.262-4.642a4.74 4.74 0 01.369-.24 2.017 2.017 0 00-.287-.351c-.357-.347-.693-.412-1.205-.474-1.404-.17-3.288.987-4.05 2.158-.105.164-.223.41-.237.607-.013.174-.01.365.104.504.873 1.073 3.436-.843 3.678-1.892.174-.175.112.278.056.385-.152.288-.763.937-1.023 1.14a5.284 5.284 0 01-1.369.767 1.5 1.5 0 01-.912.076c-.354-.081-.732-.477-.771-.854-.037-.352.16-.873.348-1.164.207-.32.668-.83 1.016-1.075.893-.627 1.709-.86 2.781-.92.391-.02.732.055 1.041.175.26.1.485.256.679.44.103.107.23.238.336.37.105-.06.207-.119.297-.169l.049-.026c.045-.024.712-.354 1.056-.32.141.014.268.056.027.126-.862.25-1.255.49-1.324.529a.811.811 0 01.096.184l.013.034c.12.375.223.643.137 1.05-.079.377-.2.758-.408 1.082a4.145 4.145 0 01-3.1 1.873 8.112 8.112 0 01-.253.011c-.126.202-.267.42-.423.647-.23.312-.464.627-.744.891-1.162 1.097-2.465 1.488-4.027 1.488-.643 0-1.197-.205-1.677-.496-.537-.327-.739-1.277-.504-1.846.334-.81 1.498-1.575 2.18-1.843.786-.308 2.247-.437 2.927.145.125.108.22.236.296.386.187.367.012.894-.226 1.194-.51.641-1.768 1.093-2.552 1.098-.162.001-.461.004-.57-.137-.024-.03-.034-.085.01-.1.252-.006.497.065.75.042.617-.054 1.132-.263 1.676-.553.414-.22.887-.757.83-1.27-.035-.323-.311-.59-.596-.694-1.715-.63-5.529 1.078-4.399 3.139.14.254.464.468.72.572 1.094.448 2.361-.011 3.285-.644.544-.372.95-.848 1.413-1.309a9.985 9.985 0 00.4-.431c.08-.091.15-.176.186-.232l.113-.137a.617.617 0 01-.214-.086c-.193-.146-.363-.342-.014-.154.093.05.21.086.342.108l.04-.046c.043-.022.562-.66.638-.746.19-.217.393-.427.575-.652.306-.38.605-.78.93-1.14.342-.378.853-.763 1.265-1.057.072-.052.15-.106.226-.163zm.555.336a1.047 1.047 0 00-.102-.418c-.104.071-.38.265-.612.462-.859.73-1.745 1.876-2.3 2.943-.075.14-.197.367-.27.489.059-.009.116-.017.17-.027.264-.023.959-.273 1.131-.353.767-.354 1.504-1.405 1.829-2.178.08-.192.162-.607.154-.918z" fill="#fff"/></svg>