<!-- by TradingView --><svg width="56" height="56" fill="none" xmlns="http://www.w3.org/2000/svg"><path fill="#ED1C24" d="M0 0h56v56H0z"/><circle cx="28" cy="28" r="28" fill="#ED1C24"/><path fill-rule="evenodd" clip-rule="evenodd" d="M16.506 18.284l6.126-4.64c-.47 1.867-.909 4.623-1.145 8.018a72.197 72.197 0 01-4.981-3.378zm-.678.76L13.392 26.8c1.82-1.333 4.344-2.929 7.349-4.401a72.534 72.534 0 01-4.913-3.354zm6.545 4.343c-.13 2.813-.118 6.01.128 9.465 2.933-1.52 6.4-2.976 10.146-3.97a21.954 21.954 0 00-4.828-2.733c-1.793-.736-3.677-1.724-5.446-2.762zm12.18 7.093a84.87 84.87 0 01-1.367 12.015l6.607-5c-1.364-2.59-3.08-4.99-5.24-7.014zm5.79 5.937c-1.431-2.587-3.224-4.987-5.466-7.011 2.561-.545 5.226-.847 7.914-.78l-2.449 7.79zm-6.712-8.06a22.903 22.903 0 00-5.454-3.169c-1.73-.71-3.552-1.665-5.272-2.672 3.1-1.375 6.623-2.56 10.35-3.18.273 2.545.434 5.604.377 9.021zM22.48 21.585c.261-3.644.759-6.504 1.257-8.25 1.857.934 4.969 2.564 8.507 5.134-3.514.67-6.827 1.81-9.764 3.116zm-9.036 6.442c1.853-1.41 4.609-3.193 7.953-4.81a81.959 81.959 0 00.087 9.179c-3.05-2.117-5.857-3.513-8.04-4.369zm-.05 1.085c2.16.873 4.913 2.277 7.895 4.388-2.243 1.236-4.115 2.477-5.483 3.514l-2.412-7.902zm8.25 5.358c-2.056 1.14-3.79 2.28-5.089 3.25l6.202 4.814a84.37 84.37 0 01-1.113-8.064zm11.955-4.77c-3.83.946-7.392 2.405-10.402 3.944 2.944 2.248 6.042 5.165 8.977 8.901A83.752 83.752 0 0033.598 29.7zm.718-9.65a52.659 52.659 0 017.676 7.534c-2.51.005-4.99.312-7.377.824a76.06 76.06 0 00-.299-8.358zm-.207-1.888c-.239-1.902-.538-3.487-.849-4.683l5.614 4.361c-1.61-.01-3.204.107-4.765.322zm-2-5.13c.34 1.1.685 2.73.963 4.785a59.653 59.653 0 00-7.686-4.785h6.722zm-9.476 21.459a83.138 83.138 0 001.21 8.477h7.386c-2.819-3.546-5.781-6.326-8.596-8.477zm12.138-15.375a53.78 53.78 0 017.767 7.555l-2.37-7.763a31.564 31.564 0 00-5.397.208zM23.12 12h9.888l7.975 6.195L44 28.075l-3.096 9.852L32.879 44H22.99l-7.975-6.19L12 27.93l3.096-9.852L23.12 12z" fill="#fff"/></svg>