<!-- by TradingView --><svg width="56" height="56" fill="none" xmlns="http://www.w3.org/2000/svg"><path fill="#005595" d="M0 0h56v56H0z"/><circle cx="28" cy="28" r="28" fill="#005595"/><path d="M51.368 35.4c-1.849-.217-2.924-.566-4.23-1.47-1.389.398-2.779.555-4.301.555-5.499 0-8.931-2.384-8.931-5.913 0-2.444 1.8-4.672 5.378-5.575 1.172-.3 2.477-.397 3.746-.397 1.027 0 2.09.048 3.094.24 3.794.723 5.957 3.12 5.957 5.624 0 .927-.362 2.107-1.003 2.938-.217.277-.507.554-.773.819.894.41 1.583.71 2.695.77L51.368 35.4zm-8.386-9.994c-2.72 0-3.65 1.65-3.65 3.166 0 1.59.822 3.071 3.601 3.071 2.695 0 3.698-1.614 3.698-3.143 0-1.565-.858-3.095-3.65-3.095z" fill="#fff"/><path d="M29.64 34l-3.746-4.32L23 31.487V34h-5V23h5v4.212L28.71 23h6.525l-5.885 4.224L35.67 34h-6.03zM5 34V23h5v8h7v3H5z" fill="#fff"/></svg>