<!-- by TradingView --><svg width="56" height="56" fill="none" xmlns="http://www.w3.org/2000/svg"><path fill="#960A2C" d="M0 0h56v56H0z"/><circle cx="28" cy="28" r="28" fill="#960A2C"/><path d="M14.992 12h26.014C42.657 12 44 13.307 44 14.917v26.168C44 42.694 42.657 44 41.006 44H35.06c-.664-.56-1.457-1.218-1.76-1.416-.419-.271-.75-.459-.564-.824.328-.636.632-1.463.857-1.39.228.072 1.28.22 1.578.366.151.072.752.072 1.353-.22.977-.439 1.202-1.169 1.353-1.242.15-.076.45-.512.45-.512s.225-.222.225-.514c.074-.366.15-1.099-.15-1.537-.226-.367-.751-.882-1.126-1.028-.527-.22-.677-.365-.677-.73-.075-.293.6-.367.677-.88 0-.31-.178-.588-.49-.588v-.114c.268-.032.715-.175.64-.616-.075-.44-.375-.732-.375-.732s-.076-.438.149-.586c.3-.146.976 0 1.501-.073.528-.073 1.054-.146 1.054-.659 0-.805-.526-1.316-1.054-2.122-.525-.807-1.05-1.317-1.126-1.465-.074-.22-.095-.496-.095-.496s.474-.39.618-.525c.268-.254.6-.607.377-1.045-.076-.219-.376-.219-.528-.438-.226-.221-.15-.66-.376-.88-.15-.22-.15-.66-.375-1.025-.151-.438-.372-1.176-.372-1.176s.814-.51.889-.732c.375-.877.313-1.519.313-1.519s.301-1.171-.45-1.904c-.225-.291-.525-.584-.827-.73-.45-.294-.9-.584-1.202-.732-.525-.221-1.194-.386-1.722-.532-.525-.22-.752-.22-.977-.22-.299.074-.6.074-.75 0-.226 0-1.127-.293-1.654-.22-.448 0-1.05.294-2.028.366-.974.147-1.801-.072-2.327.074-.526.22-.825.145-1.127.293-.3.147-.682.238-.682.238s-.525.148-.75.22c-.15.146-.6.44-.6.44l-.453.44c-.15 0-.6.219-.675.363l-.3.294s-.225.074-.376.22c-.152.145-.452.586-.6.657-.227.075-.47.294-.996.733-.525.514-1.126 1.246-1.202 1.465-.076.147-.45.88-.45 1.026-.077.22-.226.952-.376 1.096-.076.147-.526 1.027-.526 1.174-.074.218-.074.951-.15 1.17-.075.22-.376 1.1-.376 1.759 0 .586.375 1.023.375 1.245.077.218.226 1.242.226 1.682.075.368.433 1.611.582 1.905.074.292.377.66.377.66s.192.71.643 1.153c.45.514.902 1.042 1.126 1.19.451.361.564 1.278.564 1.278s-.695.13-.846.276c-.15.22-.768 1.779-1.408 2.837-.605 1.005-1.682 2.005-1.752 2.453-.064.407.494.769.343.841-.086.044-.724.845-1.245 1.508h-.444C13.342 44 12 42.694 12 41.085V14.917C12 13.307 13.342 12 14.992 12" fill="#fff"/></svg>