<!-- by TradingView --><svg width="56" height="56" fill="none" xmlns="http://www.w3.org/2000/svg"><path fill="#0886C8" d="M0 0h56v56H0z"/><circle cx="28" cy="28" r="28" fill="#0886C8"/><path d="M31.5 21.793l1.455 3.62L36.5 26.92l3.5-8.794-8.5 3.668z" fill="#74BE45"/><path d="M15.955 18.125l3.546 8.794 3.5-1.505 1.455-3.62-8.5-3.669z" fill="#FAB01A"/><path d="M40 28.423l-3.5-1.505-1.455 3.668 1.454 3.62 3.5-1.504 5-2.116-5-2.163z" fill="#FEE600"/><path d="M37.955 37.874L36.5 34.207l-1.454-3.62-2.091 5.125-1.455 3.667 3.546 1.505L40 43l-2.045-5.126z" fill="#23AAE2"/><path d="M19.5 26.918l-3.546 1.505L11 30.586l4.954 2.116 3.546 1.505 1.454-3.62-1.454-3.669z" fill="#FEE600"/><path d="M19.5 26.919l1.454 3.668L23 25.413l-3.5 1.505z" fill="#FECF0A"/><path d="M32.955 25.414l2.091 5.172L36.5 26.92l-3.545-1.505z" fill="#C3D830"/><path d="M23 35.712l-2.045-5.126-1.454 3.621-1.455 3.667L15.956 43l5-2.116 3.5-1.505L23 35.712z" fill="#23AAE2"/><path d="M24.454 39.38L28 30.586l3.5 8.794 1.455-3.668 2.09-5.126-2.09-5.172-1.455-3.621L28 13l-3.546 8.793L23 25.413l-2.046 5.174L23 35.712l1.454 3.668z" fill="#fff"/></svg>