<!-- by TradingView --><svg width="56" height="56" fill="none" xmlns="http://www.w3.org/2000/svg"><path fill="url(#paint0_linear)" d="M0 0h56v56H0z"/><circle cx="28" cy="28" r="28" fill="url(#paint1_linear)"/><path d="M29.445 12v10.606l5.302-9.18A15.885 15.885 0 0029.445 12zm-10.716 2.853a16.112 16.112 0 00-3.877 3.876l9.18 5.303-5.303-9.18zm18.505 0l-5.266 9.179 9.18-5.303a16.264 16.264 0 00-3.914-3.876zM24.032 31.93l-9.18 5.303c1.062 1.504 2.373 2.85 3.877 3.913l5.303-9.216zm7.9 0l5.302 9.216a16.435 16.435 0 003.913-3.913l-9.216-5.303zm-5.377 1.463l-5.302 9.18A15.99 15.99 0 0026.555 44V33.394z" fill="#8DC643"/><path d="M26.555 12a15.88 15.88 0 00-5.302 1.426l5.302 9.18V12zm-13.129 9.253A16.028 16.028 0 0012 26.555h10.606l-9.18-5.302zm29.148 0l-9.18 5.302H44c-.17-1.879-.67-3.666-1.426-5.302zM12 29.445c.17 1.883.67 3.669 1.426 5.302l9.18-5.302H12zm21.394 0l9.18 5.302A15.934 15.934 0 0044 29.445H33.394zm-3.95 3.95V44c1.88-.17 3.662-.663 5.303-1.426l-5.302-9.18z" fill="#118745"/><defs><linearGradient id="paint0_linear" x1="10.418" y1="9.712" x2="68.147" y2="76.017" gradientUnits="userSpaceOnUse"><stop stop-color="#1A1E21"/><stop offset="1" stop-color="#06060A"/></linearGradient><linearGradient id="paint1_linear" x1="10.418" y1="9.712" x2="68.147" y2="76.017" gradientUnits="userSpaceOnUse"><stop stop-color="#1A1E21"/><stop offset="1" stop-color="#06060A"/></linearGradient></defs></svg>