<!-- by TradingView --><svg width="56" height="56" fill="none" xmlns="http://www.w3.org/2000/svg"><path fill="#1B2D81" d="M0 0h56v56H0z"/><circle cx="28" cy="28" r="28" fill="#1B2D81"/><path d="M34.838 15c-2.735 0-5.06.933-6.838 1.867C26.222 15.933 24.034 15 21.162 15 15.556 15 12 18.467 12 24.6c0 7.333 7.248 14.533 16 20.4 8.752-5.733 16-12.933 16-20.4 0-6.133-3.692-9.6-9.162-9.6z" fill="#CCC"/><path d="M12.82 24.733c0 7.467 8.206 14.534 15.043 19.2C29.915 42.6 31.966 41 33.881 39.4c-9.163-7.467-17.915-14.267-20.924-16.667 0 .534-.136 1.2-.136 2z" fill="#3656CC"/><path d="M42.496 28.2c-6.701-5.334-10.667-8.133-15.043-10.667-1.23-.667-3.555-1.733-6.154-1.733-2.461 0-4.65.8-6.154 2.267a6.643 6.643 0 00-1.914 3.6c3.419 2.4 12.854 8.933 22.29 16.266 3.146-2.933 5.744-6.267 6.975-9.733z" fill="#E61C23"/><path d="M40.718 18.067C39.214 16.6 37.162 15.8 34.7 15.8c-2.599 0-4.513.8-6.017 1.6 2.598 1.466 8.205 4.533 14.085 8.8.137-.534.137-1.2.137-1.733.137-2.667-.684-4.934-2.188-6.4z" fill="#FDBC11"/></svg>