<!-- by TradingView --><svg width="56" height="56" fill="none" xmlns="http://www.w3.org/2000/svg"><path fill="#7A5827" d="M0 0h56v56H0z"/><circle cx="28" cy="28" r="28" fill="#7A5827"/><path d="M9 29.447c.494-.004.335-.244 1.692-.004 1.534.272 2.435.438 3.835.52.676.066 2.28.042 3.266-.13 1.44-.223 1.798-.405 2.8-1.168 1.028-.807 1.056-2.326-.438-3.148-1.029-.569-2.272-.565-3.588-.714-1.166-.12-3.59-.218-4.138-1.085-1.138-1.839 6.88-2.407 6.963-.359-.141.115-.292.279-.44.359.314.145.542.123.853 0 .494-.194 1.976-.885 2.196-1.154-.604-2.138-8.613-2.137-10.958.375-.822.882-.776 2.198.321 2.736 1.193.598 4.528.583 6.037.822.932.15 2.55.561 2.139 1.54-.905 1.525-4.816.718-6.133.105-1.357-.628-1.193-1.256-2.674-.18-.548.42-1.555 1.05-1.733 1.485zm30.858-3.07c.192.375.233 2.02-.096 2.228-.316.21-1.769-.314-1.933-.508-.288-.344-.148-1.87.167-2.109.315-.254 1.629.001 1.862.39zM23.394 22.86c.658.27.932.045 2.056-.12a50.124 50.124 0 012.208-.269c2.811-.254 6.537-.548 9.293.035 1.385.299 2.894.974 3.045 2.484-5.129-.239-4.636 4.767-2.044 5.006 2.742.254 4.69-4.68 3.277-6.982-2.03-3.274-13.268-1.699-17.298-.365l-.538.211zm.256 5.446c-.529-.23-.301-3.603 1.906-2.511.796.388.096 1.18-.288 1.614-.37.404-1.006 1.165-1.618.897zm3.908-3.423c-2.043.493-1.892-.658-3.565.224-3.247 1.767-2.68 7.518.919 3.483.178-.194.888-.958 1.067-1.063 0 1.062-.23 2.659 1.044 2.45.384-.06 1.714-.908 1.687-1.94-1.48.987-1.124-.03-1.152-3.154zm1.029 1.286c.027-.06.329-.21.493-.09.316.21.15 3.2.178 3.917.74.09.796-.344 1.084-.837.343-.569 1.943-3.133 2.505-2.759.522.344-.592 4.627 1.554 3.362.233-.149.59-.529.74-.723.288-.344.439-.404.439-1.047-.274.21-.411.449-.837.39-.233-2.004.59-4.277-1.44-3.29-1.041.508-1.651 1.216-2.31 1.888 0 0 .113-1.718-.487-2.247-.63-.074-1.453.643-1.947.927l.028.509zm15.002.11c-.428-.46.547-1.067 1.205-.992 1.175.133.775.466 1.035.735.247-.015 1.001-.243 1.166-.452-.562-.942-3.64-1.27-4.737.36-1.509 2.227 3.832 1.57 3.36 2.802-.635 1.03-1.783.307-2.565-.067-.672-.314-.648-.232-1.155.246-.288.27-.724.685-.903 1.089.727 0 .611-.406 1.318-.244.52.12 1 .244 1.562.244 1.056 0 1.847-.023 2.464-.621.891-.852.987-1.734-.37-2.257-.933-.344-1.79-.32-2.38-.842zM4 35c11.273-3.942 34.025-4.058 48 0-18.728-2.659-32.745-2.663-48 0z" fill="#fff"/></svg>