<!-- by TradingView --><svg width="56" height="56" fill="none" xmlns="http://www.w3.org/2000/svg"><path fill="#003764" d="M0 0h56v56H0z"/><circle cx="28" cy="28" r="28" fill="#003764"/><path d="M33.484 23.563c-.384 0-1.107.562-1.175 1.054-.226 1.477-1.492 5.25-1.876 5.25-.158 0-.226-.14-.226-.844 0-2.039.723-4.312.723-4.71 0-.188-.135-.258-.316-.258-.497 0-1.13.422-1.243.75-.181.633-.226.914-.384 1.851-.159.563-1.04 3.258-1.402 3.258-.339 0-.316-1.289-.316-2.625 0-1.195.158-2.555.407-3.914.022-.234-.023-.328-.294-.328-.565 0-1.266.328-1.356.75-.136.515-.249 1.617-.249 2.86 0 2.882.317 5.366 1.243 5.366.701 0 1.515-1.289 1.808-2.273 0 1.969.407 2.273.882 2.273 1.333 0 3.955-5.648 3.955-8.18.045-.163-.023-.28-.181-.28zm-26.17 6.75c-.34 0-1.04.023-1.47.023-.407 0-.316-.516-.18-1.055.451-2.062 1.175-4.57 1.4-5.789.068-.328-.022-.422-.338-.422-.317 0-1.176.399-1.266.727-.723 2.531-1.107 4.64-1.401 6.61-.136.984-.09 1.616.723 1.616.61 0 3.051-.492 3.051-1.054 0-.328-.271-.657-.52-.657zM24.33 27.03c-.814 0-1.424.75-1.017.75.768 0 .384 2.836-.452 2.836-.95 0 .475-5.062 1.017-6.422.158-.398.09-.562-.226-.562-.384 0-1.04.305-1.266.797-.248.726-.7 2.203-.971 3.633-.181.89-1.04 2.296-1.402 2.296-.316 0 .385-2.859-.316-2.859-.294 0-.7.352-.859.492-.226.188-.633.844-1.107 1.688.158-1.078.316-2.625-.136-2.625-.248 0-.633.234-.881.398-.497.328-1.198 1.711-1.627 2.227.158-1.57.248-2.532-.09-2.532-.317 0-.927.352-1.086.68-.61 1.195-1.514 2.625-1.83 2.625-.317 0 .18-1.055.18-1.687 0-.328-.79-.891-.949-.563-.384.844-.971 2.344-1.582 2.344-.61 0 .385-2.79 1.515-2.79.452 0 .723.259.723.071 0-.656-.475-1.008-1.085-1.008-1.672 0-2.78 2.133-2.78 3.844 0 .89.452 1.383 1.108 1.383.7 0 1.4-.89 1.65-1.477-.227 1.078.158 1.477.7 1.477.859 0 1.56-.984 2.26-2.133-.249 1.711-.384 2.133.023 2.133.248 0 .655-.094.858-.305.565-.586 1.334-1.71 1.718-2.437-.407 2.015-.565 2.718-.158 2.718.226 0 .768-.093 1.017-.351.565-.586 1.04-1.313 1.424-1.945-.294 1.851-.023 2.296.565 2.296.587 0 1.491-.68 1.988-1.664.113 1.29.656 1.664 1.22 1.664 1.153 0 2.848-1.382 2.848-3.914-.022-.515-.226-1.078-.994-1.078zm20.091 3.774c-.881 0-.316-2.18.294-2.625-.158.586.136 1.078.633 1.078 0 .492-.452 1.547-.927 1.547zm-9.514-2.836c.565 0-.113 1.547-.972 1.617.18-.938.746-1.617.972-1.617zm16.43 2.695c-.565 0 0-3-.723-3-.249 0-.882.14-1.175.422-.317.305-.701.914-1.04 1.36.384-1.477.633-2.438.09-2.438-.248 0-.723.14-1.017.305-.27.164-.836.539-1.288.796-.203-.586-.633-.726-.994-.726 0-.328-.158-.516-.452-.516-.678 0-1.47.867-1.876 1.899-.475.89-1.062 1.64-1.31 1.64-.34 0 .248-2.203.745-3.96.339.023.678.046.904.046.95 0 1.198-.75 1.198-1.219 0-.398-.384.165-1.582.165h-.249c.136-.446.226-.797.271-.985.068-.187 0-.305-.158-.305-.452 0-1.175.399-1.333.915a2.117 2.117 0 01-.113.351h-.565c-.7 0-1.04.398-1.04.797 0 .258.181.07.791.07.136 0 .34 0 .565.024-.135.492-.271.984-.384 1.36-.18.585-.814 1.546-1.56 2.32v-.094c-.022-.797-.18-3.094-.632-3.094-.317 0-1.108.469-1.243.797-.407 1.078-1.966 3.328-2.938 3.328-.249 0-.34-.211-.362-.54.95-.093 2.102-1.195 2.102-2.39 0-.586-.316-1.125-1.085-1.125-1.401 0-2.463 1.899-2.463 3.445 0 1.008.542 1.688 1.514 1.688 1.989 0 3.164-2.438 3.639-3.21.565 2.53-1.243 2.132-1.243 2.46 0 .352.384.75.881.75h.068c.813 0 1.989-.75 2.825-2.04-.181 1.29-.136 2.04.655 2.04.656 0 1.356-.633 1.83-1.383.159.797.656 1.383 1.402 1.383 1.288 0 2.124-1.57 2.215-2.883a8.488 8.488 0 001.017-.422c-.34 1.97-.882 3.328-.317 3.328.226 0 .724-.187 1.017-.492.34-.351 1.424-2.203 1.628-2.203.316 0-.317 2.695.881 2.695.791 0 1.56-.96 1.56-1.476.067-.422-.407.117-.656.117z" fill="#fff"/></svg>