<!-- by TradingView --><svg width="56" height="56" fill="none" xmlns="http://www.w3.org/2000/svg"><path fill="#C6003D" d="M0 0h56v56H0z"/><circle cx="28" cy="28" r="28" fill="#C6003D"/><path d="M38.05 39.63c-.29 1.164-1.327 1.707-1.847 1.949L22.991 12.674c.819-.264 1.776-.545 2.647-.674l12.411 27.63zM31.004 12l10.795 23.557C47.614 26.53 41.179 14.14 31.004 12zM31.416 42.099L25.3 28.147c-.115 4.942-5.48 9.276-10.267 8.732 2.191 3.98 7.276 6.52 11.222 7.028 1.742.19 4.563.271 5.16-1.808z" fill="#fff"/><path d="M12.265 30.975c1.788 1.458 3.98 1.866 6.345 1.647 2.25-.372 4.384-2.238 4.903-4.54.55-2.028.148-3.318-.556-4.841a658.39 658.39 0 00-4.043-8.58c-5.244 3.629-7.78 10.106-6.649 16.314z" fill="#fff"/></svg>