<!-- by TradingView --><svg width="56" height="56" fill="none" xmlns="http://www.w3.org/2000/svg"><path fill="#EC1B24" d="M0 0h56v56H0z"/><circle cx="28" cy="28" r="28" fill="#EC1B24"/><path fill-rule="evenodd" clip-rule="evenodd" d="M26.93 37.26s1.268 2.365 2.703 0l2.778-4.293-8.182-13.888s-1.268-1.861-2.779 0l-2.855 4.2L26.93 37.26zM28.046 44c4.29 0 8.182-1.685 11.038-4.375l-9.77-16.252 3.021-4.389c1.268-1.766 2.613 0 2.613 0l8.349 13.983c.397-1.183.627-2.528.704-3.792l-9.45-15.83A16.693 16.693 0 0028.045 12C19.735 12 12 18.767 12 28.007c0 1.426.23 2.853.55 4.117l4.687-6.821 3.266 5.313c.78 1.263 0 2.35 0 2.35l-4.137 6.06C19.491 42.343 23.678 44 28.045 44z" fill="#fff"/></svg>