<!-- by TradingView --><svg width="56" height="56" fill="none" xmlns="http://www.w3.org/2000/svg"><path fill="#016EA9" d="M0 0h56v56H0z"/><circle cx="28" cy="28" r="28" fill="#016EA9"/><path fill-rule="evenodd" clip-rule="evenodd" d="M28.811 41.076h-1.363v-.608c0-.63.174-1.75.286-2.408.191-1.127-.004-1.26.371-2.317.103-.29.314-.69.394-.943.096-.301.08-.745.206-1.137.188-.58.578-1.521.626-2.121.187.052.645.44.93.586.387.198.658.32 1.061.517.816.398.477 1.413.775 2.439.29.997.505 1.422 1.036 2.166.366.511 1.052 1.358 1.196 2-.205.057-.91.48-1.213.63-.411.204-.829.399-1.28.56-.659.235-2.22.636-3.025.636zM15.116 30.325c.423-.037.536-.338 1.038-.338h.195c.548 0 1.451 1.15 3.116 1.15h.584c1.171 0 3.96-.913 4.154-.884l1.428.207h.532l-.078 1.555-.02.138.15 1.553v.54c0 1.233-.714 2.25-.714 3.043l-.05.753.44 2.899h-.26c-.926 0-3.143-.96-3.852-1.33-1.009-.523-2.256-1.482-3.012-2.27-.885-.923-1.638-1.855-2.266-3.05-.454-.864-1.353-2.76-1.385-3.966zm19.213-.338c.877.02 1.74.744 2.66.744l.587.013 2.79-.487c0 .987-1 3.327-1.403 4.017-.367.626-1.819 2.932-2.363 3.083-.249-1.113-.923-2.71-1.04-3.784-.078-.702-.036-1.574-.3-2.123-.325-.68-.686-.98-.931-1.463zm-4.82-2.502l.016-.406c.327.08 1.4.814 1.727 1.041.82.57.802.636 1.406 1.376.48.587.844.923 1.331 1.453.509.553.648 1.103.662 2.15.013 1.072.85 3.547 1.161 4.47.555 1.652 1.619 1.817 3.71 1.817-.178.252-1.38.715-1.777.854-.41.143-.7.12-1.069.24-.258.082-.65.393-.92.393h-.064c-.309 0-.343-1.276-.43-1.58-.208-.718-.314-.863-.66-1.409-.556-.873-1.162-1.44-1.515-2.547-.2-.628-.226-.897-.355-1.658-.136-.8.034-1.101-.532-1.543-.107-.083-2.589-1.467-2.595-1.474l-.096-3.177zm-13.104-.272c1.159.576 1.88-.056 2.541-.539.718-.524 1.444-.812 2.66-.812h.195c1.26 0 2.54 1.899 3.635 2.502.012.579.428.805.65 1.15-1.64 0-1.405-.381-3.025.094-.903.265-1.903.581-3.012.581h-.584c-1.756 0-2.156-1.149-3.051-1.149h-.52c-.446 0-.719.473-1.298.473h-.649c-.667 0-1.038-.79-1.038-1.555v-.135c0-1.378.755-1.69 2.077-1.69.1-.07.236-.203.39-.203.155 0 .19.11.324.202h.52l.259.136.015.204-.09.741zm13.315-1.486c.801 0 1.934.258 2.539.465.393.135.75.21 1.136.372.694.29.468.157 1.235.336.814.19 1.036.727 2.36.72 1.128-.005 1.757.27 2.791.27h1.168c1.287 0 1.76-2.598 2.136-2.704l.136 1.69c.02.214-.174.848-.195 1.15-.037.53.043.873-.065 1.352-.439 0-1.095-.238-1.305-.252l-4.341.725c-.6.103-2.528-.879-3.83-.879-.383-.267-1.255-1.144-1.706-1.536-.33-.288-1.605-1.197-2.059-1.236v-.473zm-14.604-.947c0-.836 1.366-4.08 1.817-4.395 1.852.45 1.134.938 1.817 2.367.207.433.539.935.86 1.268.272.282.936.794 1.088 1.03-1.59 0-2.716 1.353-3.05 1.353h-.26c0-.542-.31-.853-.657-1.007-.163-.072-1.096-.413-1.226-.413h-.39v-.203zm11.553-6.289c0-.155.046-.202.195-.202.501 0 .974.651.974 1.284l.02.544-.15 1.35.023.066.237 3.315v.473c0 .706-.153 2.46-.056 2.965.05.26 1.094 1.247 1.094 1.903 0 .156-.045.203-.195.203-.151 0-.192-.139-.454-.203.109.215.325 1.02.325 1.353v.203c0 .157-.174.338-.325.338h-.13c-.817 0-1.493-1.204-1.493-1.893v-.744c0-.156.045-.203.195-.203.358 0 .038 2.337 1.298 2.367 0-.784-.42-1.314-.26-2.03l.35-.02-.797-1.062-.072-.81c-.077-.712.13-1.743.13-2.57v-.338c0-.058-.168-.958-.19-1.154-.04-.351-.006-.97-.004-1.349.002-.462-.117-.775-.06-1.279.044-.403.124-.734.124-1.222 0-1.082-.779-1.029-.779-1.285zm-10.255-.27v-.068c0-.766.894-1.825 1.623-1.825h.065c.52 0 .901.252 1.185.523.54.518.892.215.892.897.124.087.454.349.454.54v.068c0 .484-1.363.662-1.363 1.014v.136c0 .155.045.203.195.203.392 0 .59-.194.908-.27.727 1.43 1.437.618 2.767 1.174.913.382 1.486 1.385 2.361 1.598.078.979.52 1.087.52 2.501-.435-.24-.598-.592-.962-.892-.338-.28-.806-.47-1.133-.78-.405-.384-1.42-1.776-2.06-1.776h-.454c-.217 0-.844.203-.844.473v.27c0 .192.224.339.39.339.107 0 .35-.203.713-.203.418 0 1.548 1.503 2.012 1.826.456.316.683.405 1.088.828.227.237.75.777 1.055.862-.042.517-.52.754-.52 1.555-.43-.3-.714-.715-1.086-1.1-.396-.41-.906-.52-1.423-.816-.738-.423-2.085-1.285-2.636-1.852-1.194-1.23-.627-1.957-1.37-3.103-.555-.855-2.377-.647-2.377-2.122zm8.633 1.082l-.026.07.155 1.553c-.243-.068-1.034-.885-1.59-1.117-.5-.21-1.574-.439-2.24-.439-.04-.18-.064-.127-.064-.27 0-.088.195-.144.195-.473v-.27c0-.537-.28-.682-.379-1.026-.2-.695-.435-.567-.53-.936.308-.075 1.726-.981 2.327-1.226.593-.242 2.048-.785 2.8-.802.104.46.455.733.455 1.284v.203c0 1.095-1.103 1.855-1.103 3.449zm4.348-4.936c2.946 0 6.257 2.463 7.753 4.095 1.635 1.786 3.477 5.183 3.477 8.617-.992 0-1.98-.34-2.79-.34-1.09 0-1.838-.168-2.619-.517-.623-.28-.71-.155-1.234-.337-.417-.145-.733-.318-1.146-.429-.834-.222-1.57-.54-2.662-.54h-.324v-1.894c0-.727-.258-2.554-.415-3.22-.17-.722-1.338-2.263-1.338-2.325v-.203c0-.295.13-.245.13-.54v-.339c-.226-.02-.909-.397-.909-.54 0-.157.046-.204.195-.204.194 0 .727.541 1.298.541h.13c.146 0 .143-.053.26-.135 0-.502.13-.445.13-.744v-.27h.194v-.27c0-.248-.081-.017-.13-.406zM27.903 12h-1.104c-.828.547-.938.168-1.233 1.488-.83 0-2.539.672-3.19.937-.999.405-1.832.992-2.652 1.564-.383-.267-.93-.608-1.558-.608-1.222 0-2.66 1.48-2.66 2.772 0 .837.413 1.157.713 1.623-.726 1.13-1.942 3.785-2.077 5.477-1.24.108-2.142 1.117-2.142 2.502v.541c0 1.044.688 1.684 1.448 2.008.996.425.613-.271.9.82.12.457.27.87.415 1.326.5 1.57 1.53 3.434 2.478 4.52 1.087 1.244 2.223 2.336 3.694 3.183 1.092.628 3.55 1.735 5.15 1.735v.27c0 .511-.195.823-.195 1.082v.338c0 .486.785.27 1.169.27l.068-.02 1.1.156.326.016 1.621-.084c.037-.054.13-.167.13-.203 0-.151-.051-.148-.13-.27-.754 0-2.283-.932-2.531-1.42 2.97 0 5.005-.824 6.945-1.894.06.752.297 1.691 1.039 1.691h.194c.32 0 .901-.43 1.175-.535.387-.147.95-.182 1.413-.353.652-.242 1.956-.681 1.956-1.546v-.136c0-.344-.29-.661-.572-.756-.357-.12-.761.013-1.18.013-.529 0-.999-.166-1.428-.27.023-.298 1.077-1.323 1.324-1.664.438-.605.877-1.167 1.208-1.852.855-1.77 1.066-2.406 1.557-4.6h.52c.37 0 .63.204 1.103.204 1.138 0 .973-1.317.973-2.3v-.202c0-.296.13-.246.13-.541v-1.15c0-.777-.166-1.96-.909-1.96h-.26c-.91 0-.7 1.656-1.427 2.163 0-3.33-2.208-7-3.846-8.706-1.038-1.081-2.125-2.002-3.488-2.722-.964-.51-3.288-1.487-4.675-1.487h-.194c-.292-1.306-.562-.887-1.298-1.42z" fill="#fff"/></svg>