<!-- by TradingView --><svg width="56" height="56" fill="none" xmlns="http://www.w3.org/2000/svg"><path fill="url(#paint0_linear)" d="M0 0h56v56H0z"/><circle cx="28" cy="28" r="28" fill="url(#paint1_linear)"/><path d="M13.55 25.131c0 2.829.42 5.477 1.866 7.647V30.91c0-2.346 1.868-4.033 3.795-5.058-1.927.603-4.035.182-5.661-.72z" fill="#C5B278"/><path d="M15.402 21.978c-.679.548-1.354 1.097-2.209.843.531.398 1.262.53 2.057.464.73.466 1.593-.796 2.523-.796 1.329-.198 3.054-.399 3.984.796l-.466-.928c-1.261-.066-2.323-.532-3.385-1.129a1.7 1.7 0 00-.697-.157c-.678 0-1.243.454-1.806.907z" fill="#BAA566"/><path d="M12.002 18.234c.645.163 1.295.313 1.968.393 1.327-.601 1.683-1.69 1.142-3.137-.753-1.158-1.903-1.819-3.11-2.13v4.874z" fill="#B09B58"/><path d="M18.533 29.528c-2.18 4.461.88 10.62-2.231 14.47h4.874c.218-.204.428-.429.625-.682 3.612-4.697-3.434-7.467-3.314-11.984.181-1.807 1.156-3.166 2.408-4.637l-.118-.12c-1.125 1.058-1.582 1.809-2.244 2.953z" fill="#CEBB83"/><path d="M27.997 12c4.795 3.69 7.89 9.478 7.903 16.002-.014 6.52-3.108 12.308-7.905 15.997H44V12H27.997z" fill="#A8914B"/><path d="M12.002 43.999h2.746l.674-.568c3.742-5.06-.723-8.608-3.42-12.597v13.165z" fill="#D3BF8A"/><path d="M12.002 12v.52a8.08 8.08 0 012.15.628c1.505.904 2.71 2.408 2.59 4.214l3.432-.3c.445-1.126.633-2.862.224-3.746-.263-.57-.5-.98-.808-1.316h-7.588z" fill="#AF9856"/><path d="M21.11 27.959c.03-.02.057-.04.09-.058a.188.188 0 00-.09.058z" fill="url(#paint2_radial)"/><path d="M21.104 12c.698.963.722 2.232.817 3.317 1.323-1.025 3.01-1.628 4.755-1.146-1.198-.908-1.984-1.626-3.415-2.17h-2.157z" fill="url(#paint3_radial)"/><path d="M24.09 28.864c-1.025.301-1.99-.36-3.012-.54 0-.14-.035-.283.032-.365-1.458.92-1.062 2.68-1.358 4.095.362 1.567 2.049 2.168 3.192 3.071 1.685.301 3.25-.481 4.758-1.022.239.242.601.482.421.842-1.144 1.626-2.89 2.348-4.88 2.167 1.193 2.276.385 4.894-.885 6.887h1.196c3.567-1.644 6.97-4.109 7.216-8.874.363-3.01.12-6.14-2.045-8.248a2.554 2.554 0 00-.446 0c-.368.02-.744.04-1-.301-.963.904-2.228 1.265-3.19 2.288zm.6 0c.624-.672 2.4-1.996 3-1.495.151.126.228.562.19.964l-.3.723-.338-.926c-.843.18-1.635.488-2.056 1.332-.06.241.046.737-.195.918-.542-.12-.24-1.035-.3-1.516zm2.89 3.374c.662 2.347-2.107 1.924-3.312 2.587-.482-.361-.24-.962-.301-1.443l.301-.302c.3.9.858.561 1.47.221.368-.205.757-.41 1.12-.342.421-.181.241-.844.723-.721z" fill="#C1AB6F"/><path d="M25.174 15.003c-1.577.089-3.088 1.244-3.675 2.18 1.083.602 2.288 1.506 3.312 2.467-.06.362.18.843-.302 1.026-.543-.422-1.021-1.507-1.687-1.146.544 1.146 1.989 1.266 3.132 1.567.421.422.3 1.143 1.205.842.421.12.6.602.722 1.024-.482.884-1.525.803-2.488.723-.482-.04-.944-.08-1.304 0 .902.361 1.927.481 2.77 1.023.843.541 1.082-.723 1.444-1.143 1.443.36.662 1.865 1.264 2.708 3.072 3.193 2.469 8.792.904 12.464 4.215-3.852 3.878-12.436 2.892-15.895-.967-3.376-3.91-7.85-7.887-7.85-.1 0-.2.004-.302.01z" fill="#AD9654"/><path d="M27.996 12a20.3 20.3 0 015.88 7.212c3.172 1.478 6.541 3.433 10.124 5.933V12H27.996z" fill="#AE9754"/><path d="M21.103 12c.699.963.722 2.232.816 3.316 1.323-1.024 3.01-1.627 4.757-1.145-1.2-.908-1.984-1.627-3.415-2.17h-2.158zM12 12v.52a7.988 7.988 0 012.152.628c1 .601 1.868 1.47 2.301 2.515a25.425 25.425 0 014.1-.094c.121-.847.096-1.712-.156-2.254-.262-.57-.5-.98-.808-1.315H12zm0 4.572c1.039-.32 2.11-.569 3.221-.745a4.228 4.228 0 00-.11-.337c-.754-1.16-1.904-1.82-3.111-2.132v3.214z" fill="#A38B41"/><path d="M25.173 15.003c-.808.043-1.597.37-2.253.802 2.455.346 5.059 1.021 7.824 2.078-1.382-1.658-3.183-2.89-5.268-2.89-.101 0-.2.004-.303.01z" fill="#A38B44"/><path d="M33.686 37.171A20.32 20.32 0 0127.996 44H44V21.79c-2.382 5.7-5.618 11.71-10.314 15.382z" fill="#C1AB71"/><path d="M12 43.999h2.747l.674-.567c1.075-1.454 1.47-2.782 1.427-4.031-1.537-.54-3.15-1.263-4.848-2.187V44z" fill="#AC9552"/><path d="M23.722 40.677c-.214 1.182-.73 2.33-1.365 3.322h1.197c2.19-1.01 4.32-2.33 5.695-4.304a15.507 15.507 0 01-5.527.982z" fill="#B6A160"/><path d="M16.3 43.999h4.876a6.08 6.08 0 00.625-.683c.736-.958 1.027-1.836 1.03-2.664-1.585-.086-3.272-.39-5.066-.948-.104 1.582-.464 3.06-1.464 4.295z" fill="#B59E5B"/><path d="M23.604 19.706c.224.241.438.539.663.74-.219-.237-.434-.534-.663-.74z" fill="url(#paint4_linear)"/><path d="M27.997 12c.7.539 1.361 1.123 1.986 1.747A20.653 20.653 0 0028.038 12h-.041z" fill="url(#paint5_linear)"/><defs><linearGradient id="paint0_linear" x1="10.418" y1="9.712" x2="68.147" y2="76.017" gradientUnits="userSpaceOnUse"><stop stop-color="#1A1E21"/><stop offset="1" stop-color="#06060A"/></linearGradient><linearGradient id="paint1_linear" x1="10.418" y1="9.712" x2="68.147" y2="76.017" gradientUnits="userSpaceOnUse"><stop stop-color="#1A1E21"/><stop offset="1" stop-color="#06060A"/></linearGradient><linearGradient id="paint4_linear" x1="23.604" y1="18.934" x2="24.267" y2="18.934" gradientUnits="userSpaceOnUse"><stop stop-color="#D1D3D4"/><stop offset="1" stop-color="#29292A"/></linearGradient><linearGradient id="paint5_linear" x1="27.997" y1="11.227" x2="29.982" y2="11.227" gradientUnits="userSpaceOnUse"><stop stop-color="#D1D3D4"/><stop offset="1" stop-color="#29292A"/></linearGradient><radialGradient id="paint2_radial" cx="0" cy="0" r="1" gradientUnits="userSpaceOnUse" gradientTransform="matrix(33.092 0 0 33.0968 13.271 41.74)"><stop stop-color="#B2B4B6"/><stop offset="1" stop-color="#29292A"/></radialGradient><radialGradient id="paint3_radial" cx="0" cy="0" r="1" gradientUnits="userSpaceOnUse" gradientTransform="translate(13.27 41.74) scale(33.0969)"><stop stop-color="#B2B4B6"/><stop offset="1" stop-color="#29292A"/></radialGradient></defs></svg>