<!-- by TradingView --><svg width="56" height="56" fill="none" xmlns="http://www.w3.org/2000/svg"><path fill="#E41D38" d="M0 0h56v56H0z"/><circle cx="28" cy="28" r="28" fill="#E41D38"/><path d="M48 25L37.07 36.028a3.05 3.05 0 01-2.164.972 2.893 2.893 0 01-2.067-.884A2.988 2.988 0 0132 34.01v-5.964a3.004 3.004 0 00.835 2.118 2.937 2.937 0 002.071.897 3.082 3.082 0 002.163-.972L48 19v6z" fill="#fff"/><path d="M38 27.871a2.986 2.986 0 00-.204-1.134c-.141-.361-.351-.69-.618-.967a2.88 2.88 0 00-.935-.65 2.837 2.837 0 00-1.108-.233c-.398.01-.79.1-1.155.265-.363.165-.692.4-.966.695L23.04 36.048a2.99 2.99 0 01-.98.7c-.37.164-.769.25-1.172.252a2.87 2.87 0 01-2.04-.864 2.98 2.98 0 01-.849-2.08V29c-.003.39.07-.055.213.306.143.36.355.689.624.966.268.277.587.498.94.649.352.151.73.23 1.112.232.398-.01.79-.099 1.155-.263.364-.165.692-.402.966-.697L33.03 19.96a2.998 2.998 0 012.105-.96c.379.004.753.085 1.102.236.348.152.664.373.928.65.265.276.474.603.614.962.14.358.21.742.205 1.128L38 27.87z" fill="#fff"/><path d="M24 28c.006-.779-.291-1.657-.827-2.215a2.891 2.891 0 00-2.036-.89c-.4.007-.796.095-1.162.26a2.983 2.983 0 00-.97.7L8 37v-6l10.998-11.04c.274-.298.605-.537.973-.702A2.946 2.946 0 0121.137 19c.768.013 1.5.333 2.036.89.536.557.833 1.307.827 2.086V28z" fill="#fff"/></svg>