<!-- by TradingView --><svg width="56" height="56" fill="none" xmlns="http://www.w3.org/2000/svg"><path fill="#636569" d="M0 0h56v56H0z"/><circle cx="28" cy="28" r="28" fill="#636569"/><path d="M30.947 17.169l-2.933 3.362-7.229-9.369a.412.412 0 00-.323-.162h-3.05a.417.417 0 00-.368.224.402.402 0 00.038.426L28.017 26l6.634-8.34a.402.402 0 00-.114-.589.424.424 0 00-.216-.067h-3.04a.426.426 0 00-.186.047.412.412 0 00-.148.118zM41.604 38.351L33.552 28l10.381-13.345a.398.398 0 00-.11-.586.426.426 0 00-.217-.069h-3.008a.426.426 0 00-.18.051.409.409 0 00-.142.116L29.458 28l8.433 10.839a.411.411 0 00.328.161h3.055a.418.418 0 00.372-.223.397.397 0 00-.042-.426zM15.087 18.654l6.92 9.352-10.408 13.377a.4.4 0 00.11.578c.063.04.136.037.211.039h3.008c.063 0 .125.01.182-.017a.414.414 0 00.145-.116L26.1 28.002 18.8 18.169a.413.413 0 00-.145-.119.43.43 0 00-.184-.05h-3.055a.425.425 0 00-.217.068.407.407 0 00-.194.38.399.399 0 00.08.206zM25.178 38.846l2.835-3.309 7.197 9.302a.409.409 0 00.33.16h3.034a.417.417 0 00.368-.222.398.398 0 00-.038-.422L28.005 30.108l-6.52 8.25a.4.4 0 00.114.585c.065.04.14.06.216.06h3.035a.415.415 0 00.328-.157z" fill="#fff"/></svg>