<!-- by TradingView --><svg width="56" height="56" fill="none" xmlns="http://www.w3.org/2000/svg"><path fill="url(#paint0_linear)" d="M0 0h56v56H0z"/><circle cx="28" cy="28" r="28" fill="url(#paint1_linear)"/><path fill-rule="evenodd" clip-rule="evenodd" d="M29.033 45.106c0 .225.087 1.279-.2 1.492-.074.526-.447.777-.634 1.253-.012.063-.025.113-.025.188-.024.013-.037.025-.062.038-.037-.013-.074-.025-.112-.025-.024-.113-.037-.226-.062-.339.025-.464.2-.852.261-1.303v-.377a.246.246 0 01.112-.025v-.012c0-.339.013-.665.025-.99v-.113a.359.359 0 00-.112-.025c-.087-.326-.199-.652-.199-.99-.037-.026-.062-.038-.1-.063-.024-.264-.223-.402-.397-.577-.063-.188-.112-.376-.175-.552.112-.175.25-.35.374-.526.087-.439-.15-1.003-.175-1.505-.037-.15-.074-.288-.111-.426.087-.2.211-.376.211-.602a.207.207 0 00-.062-.025c-.187-.476.273-1.128-.174-1.479a6.438 6.438 0 01-.075-1.893c0-.15 0-.15.05-.213.15-.69-.647-1.04-.61-1.755.15-.314.299-.627.46-.94.025-.44.038-.514.349-.79a9.43 9.43 0 01.112-.828v-.15h.087c.012-.288-.013-.664.112-.928.137-.288.56-1.078.249-1.391-.112-.464-.25-.84-.287-1.317-.385-.288-.286-.413-.223-.915-.088-.765.199-1.542.248-2.306-.137-.214-.423-.39-.51-.602 0-.188 0-.376.013-.564.062-.452.025-.89.1-1.317-.038-.15-.113-.426-.2-.564 0-.238 0-.464.013-.69.1-.463.336-.752.112-1.228-.548-.338-.61-.414-.66-1.053h.224c.15-.3.038-1.191.038-1.454-.112-.05-.187-.113-.2-.213.063-.025.137-.025.2-.038 0-.063.012-.113.024-.163-.423-.376-.671-1.066-1.306-1.066a.452.452 0 00-.025.138c-.087-.025-.174-.062-.261-.087-.062-.013-.112-.025-.174-.025-.286-.063-.547-.176-.834-.15-.037.037-.037.037-.112.037-.1.025-.199.037-.286.062-.149.05-.248.063-.336.201.025.226.025.226.063.338.087.214.087.214.124.427-.075.062-.15.113-.236.175-.087.351.05.64.087.965-.473.276-.784.276-1.083.778-.161.614-.1 1.253-.149 1.893.125 0 .261.012.398.025.112.113.112.188.125.35-.075.151-.075.151-.137.502-.112.163-.212.339-.324.514l-.112.15c-.199.252-.161.703-.211 1.016.025.038.037.075.062.126.522.238.05 1.09.187 1.504.199.288.199.288.273.464.063.539.287 1.028.51 1.542.15.225.51.576.448.877-.025.05-.05.1-.062.15-.062.088-.112.189-.174.29-.05.112-.05.112-.137.2-.124.238-.124.238-.236.601-.112.201-.25.39-.287.627.411.339.336.502.237.99-.05.465-.2.703.15 1.016.086.038.173.088.198.176h.038c.024.188-.013.677-.112.777-.025.063-.05.113-.063.175-.05.15-.087.289-.124.44-.112.463-.286.964-.373 1.403-.1.364-.1.364-.174.49-.063.55-.25 1.152.037 1.679.062.414.199.79.224 1.191-.062.188-.137.376-.2.564.013.25.026.514.026.777-.2.527-.237.514-.025 1.053 0 .577-.075 1.141-.15 1.718.063.702.063.702.175 1.542 0 .338.124.564.273.877-.024.251-.087.452-.199.677 0 .138.075.214.038.339-.423-.138-.174-.802-.2-1.09-.074-.164-.248-.364-.273-.44-.062-.075-.112-.15-.174-.238-.025-.062-.063-.113-.075-.15-.261-1.442-.473-2.909-.784-4.35-.41-.602-.435-.853-.112-1.392-.012-.075-.012-.15-.012-.213-.087 0-.386-.59-.386-.602.038-.338.212-.84.063-1.166-.336-.263-.51-.376-.647-.764.31-.427.56-1.04.845-1.53.025-.125.063-.25.1-.363-.037-.74-.1-1.492-.112-2.232-.162-.1-.299-.2-.448-.288.15-.752.174-1.454.2-2.232v-.037c-.25-.965-.573-1.943-.797-2.896-.174 0-.522-1.016-.684-1.191.112-.464.112-.464.224-.74.1-.865.336-1.63.584-2.432v-.175c-.223-.464.2-1.091-.149-1.455-.025-.163-.037-.338-.05-.488l-.199-.201c-.248-.138-.535-.263-.584-.564.087-.163.248-.339.248-.527-.124 0-.335-.489-.335-.652-.2-.113-.2-.113-.336-.225-.697-.276-1.555-.427-2.29-.564-.248 0-.895-.113-1.082.087-.174.05-.26.063-.348.088 0-.175.36-.338.485-.426l.261-.113c0-.025 0-.025.013-.038.423-.025.721-.062 1.082-.263l.436-.113c.199-.489 1.07-.263 1.492-.25.386-.025.66-.226 1.02-.377 0-.087.075-.087.15-.112.025-.025.037-.025.062-.038.124-.113.261-.138.423-.15.15-.213.2-.402.46-.452.187.339.25.464.548.69.261.088.261.088.298.125 1.195.075 1.195.075 1.344.113.199.238.336.451.61.238.024-.025.037-.025.062-.037a.27.27 0 01.1-.063c.074-.05.148-.1.236-.138.149-.038.286-.1.46-.113l.037-.15h.137v-.1a4.24 4.24 0 01.236-.113c.112-.289.685-.063.871-.063.1-.013.2-.025.311-.025a.364.364 0 01.125-.025c.112-.15.149-.276.336-.314.111-.225.97-.288 1.256-.326.062-.037.137-.062.212-.1.037-.037.037-.037.111-.037.025-.025.038-.025.063-.038a.247.247 0 01.112-.025c.112-.05.236-.088.348-.126.05-.213.2-.275.373-.338.062 0 .125.012.2.025.024.05.037.1.061.15.2.427.672.452 1.07.652.287.251.498.427.834.59.286.112.31.25.15.526v.2c.335.176.683.139.994.34 0 .05.013.112.025.162-.199.113-.336.163-.547.2-.311.126-.423.44-.722.565a8.256 8.256 0 00-.05.577c-.186.188-.373.376-.547.564-.025.313-.037.4-.298.602.012.225.025.388.1.576.086.414.111.514-.063.915 0 .339.249.602.46.865 0 .414-.224.79-.224 1.204.087.288.174.564.274.852.012.188.05.226.05.401.012.025.025.063.037.088v.113c.075.64.037.59-.41 1.04-.063.1-.112.201-.15.301a.53.53 0 01.112.364v.238c-.112.477-.112.477-.249.803-.024.062-.024.125-.037.2.05.301.05.301.162.577.062.965.709 1.767.547 2.77-.037.1-.062.2-.1.301a.258.258 0 01-.074.025c-.199.263-.199.263-.41.477-.1.188-.187.376-.274.564-.025.426-.062.464-.087.702-.299.439-.41.965-.684 1.429-.013.1-.025.2-.025.313-.038.251-.175.615.112.753a.238.238 0 01.024.1c.013.113.013.113-.062.338-.062.113-.062.113-.062.339 0 .175-.025.2.062.35.013.013.025.026.038.051v.326c-.162.451-.063 1.028 0 1.504 0 .314-.038.376-.287.602-.024.188-.024.188 0 .376.05.138.05.138.063.602-.025.175-.025.35-.038.526a5.1 5.1 0 01-.1.778c-.024.113-.061.225-.086.338 0 .126.074.15.174.213 0 .025 0 .063.012.088l.038.351c.423.677.808.915.298 1.605-.025.087-.025.087-.025.35 0 .34.013.565-.112.878-.112.113-.05.79-.05.966a.254.254 0 01-.074.025c-.025.012-.037.025-.062.025.012.125-.013.238-.025.35zm5.847-30.3c.012-.038.025-.076.025-.114.323-.075.323-.075.51-.087.187-.138.373-.264.56-.389.074-.075.074-.075.161-.088.087-.276.175.088.2.163.037.05.074.1.111.163.137.05.137.05 1.095.2.15.201.286.39.436.603.61.2.286.426.236.94.162.037.311.075.46.113.1.275.125.489.15.777-.212.338-.212.338-.224.426.373.288.547.376.248.827a2.989 2.989 0 00-.161.264c-.112.25-.112.25-.187.3v.264c-.012.113-.012.25-.012.376-.25.175-.46.3-.51.614v.213c-.038.026-.075.063-.112.1-.025.05-.038.101-.05.151-.025.063-.037.15-.062.226a.723.723 0 00-.137.338c.025.088.037.176.062.264-.137.363-.423.664-.585 1.015.025.389.063.426.125.915h-.087c.025.289.124.665-.025.915-.038.063-.062.138-.1.2v.114c.063.037.15.087.224.138.249.137.46.288.261.589-.099.602-.099.602-.174.827-.062.163-.112.314-.174.477-.025.175-.025.363-.037.551.037.138.075.176.075.251.174.464.497.827.733 1.266.112.289.162.439.175.74a3.32 3.32 0 00-.112.213c-.05.1-.05.138-.025.25.05.063.05.063.112.289-.349.903-.349.903-.734 1.742-.05.163-.224.464-.125.615.063.05.063.05.162.2-.174.176-.025.389.062.552.1.1.125.15.174.288.025.163.038.339.063.514-.1.289-.311.59-.386.878h-.062c-.05.113-.1.213-.137.338v.025c0 .15.075.402.037.514.324.326.261.778.261 1.229-.074.138-.149.276-.236.426v.013c.013.025.025.037.038.063-.025.05-.05.1-.063.15.063.063.063.063.063.138-.025.012-.038.025-.063.025a.811.811 0 01.087.35h-.062v.064l.038.777c.024.15.062.3.099.464.025.125-.012.238-.062.363-.112.163-.237.339-.349.514-.186.49-.422.94-.634 1.38-.075.15-.15.313-.236.476.025.438.025.438.112.902-.1.15-.187.289-.274.452a.362.362 0 00-.112.025c-.15-1.229-.15-1.229-.2-1.367v-.025c-.024-.012-.024-.025-.037-.025.025-.464.063-.94.088-1.404.137-.138.112-.552.112-.727a4.95 4.95 0 01-.46-1.53c.534-.2.51-.677.547-1.165.248-.514-.25-.853-.2-1.367.15-.25.3-.514.46-.752.013-.364.026-.727.026-1.09.075-.076.037-.377.037-.502.025-.025.038-.025.062-.038-.112-.59-.174-1.58.162-2.08 0-.139-.1-.227-.174-.34-.025-.325-.025-.639-.037-.952-.212-.426-.535-.94-.398-1.454-.05-.54.186-1.141.26-1.68-.273-.2-.372-.564-.51-.853-.273-.338-.273-.338-.285-.413-.013-.377-.25-.652-.162-1.003.025-.026.062-.063.112-.076 0-.238 0-.463.012-.69.1-.313.187-.463.038-.776-.063 0-.224-.264-.262-.314-.062-.05-.273-.313-.112-.35.112-.126 1.045-.979.722-1.192-.236-.175-.236-.338-.124-.602.111-.35.161-.539.05-.915 0-.15.124-.815.061-.915 0-.225-.025-.313.063-.514.087-.138.087-.138.1-.238-.026-.025-.063-.025-.075-.038-.137-.075-.2-.113-.224-.25-.025-.05-.025-.088-.038-.126-.05-.012-.087-.025-.124-.025a.63.63 0 01-.025-.15c-.373-.113-.684-.251-1.045-.376-.025.012-.062.025-.075.037-.348.239-.97.138-1.231-.2-.2-.238-.46-.138-.697-.138-.211 0-.435.025-.647-.038.025-.075.311-.313.759-.802.299-.1.523-.113.846-.113.249-.05.498-.288.721-.401.635 0 .884-.25 1.058-.903z" fill="#0F0"/><defs><linearGradient id="paint0_linear" x1="10.418" y1="9.712" x2="68.147" y2="76.017" gradientUnits="userSpaceOnUse"><stop stop-color="#1A1E21"/><stop offset="1" stop-color="#06060A"/></linearGradient><linearGradient id="paint1_linear" x1="10.418" y1="9.712" x2="68.147" y2="76.017" gradientUnits="userSpaceOnUse"><stop stop-color="#1A1E21"/><stop offset="1" stop-color="#06060A"/></linearGradient></defs></svg>