<!-- by TradingView --><svg width="56" height="56" fill="none" xmlns="http://www.w3.org/2000/svg"><path fill="url(#paint0_linear)" d="M0 0h56v56H0z"/><circle cx="28" cy="28" r="28" fill="url(#paint1_linear)"/><path d="M25.183 31.236c-.166-.024-3.14 1.677-3.14 1.677s4.779.999 11.733 3.093c0 0 1.386-1.97 2.35-3.054 0 0-4.021-.753-10.942-1.716z" fill="#B84B16"/><path d="M19.673 31.035c2.352-.407 4.794.066 4.794.066s-3.859 1.849-7.48 4.132c0 0-3.033-.914-5.255-1.14 0 0 5.641-2.658 7.94-3.058z" fill="#005953"/><path d="M27.986 35.026s2.25.608 5.36 1.66c0 0-1.973 2.929-2.678 4.314 0 0-1.973-1.146-5.699-2.791 0 0 .793-.847 3.017-3.183z" fill="#B2BB1E"/><path d="M17.843 35.523s1.492-1.061 3.572-2.23c0 0 2.395.482 5.897 1.526l-3.132 3.035s-1.837-.773-3.392-1.338c-1.554-.564-2.945-.993-2.945-.993z" fill="#C5A901"/><path d="M17.622 30.887l-.098.113h-2.363l-.062-.077.432-2.262.283-1.542.615-3.07-2.142 4.55-1.034 2.288-.099.113H11.21l-.084-.09-.075-1.668-.234-5.193-.333 1.353-.505 2.07-.8 3.415-.085.113H7.061L7 30.923l.75-2.781.85-3.222.714-2.805.073-.076c1.54 0 1.896 0 3.374-.039l.074.076.062 1.999.049.923.122 2.462 1.55-3.411c.198-.419.801-1.758.887-1.934l.086-.077c1.441 0 1.797 0 3.349-.038l.06.075-.467 2.833-.542 3.41-.369 2.569zM25.283 29.554a2.773 2.773 0 01-1.075 1.01l-.076.03-.088.011c-1.032-.154-1.494-.156-1.963-.165-.46-.01-1.183-.015-1.957.127l-.074-.007-.055-.027c-.65-.466-.995-1.175-.995-2.24 0-1.021.365-2.253 1.047-3.083.894-1.057 2.081-1.21 2.913-1.21.858 0 1.502.203 1.793.368C26 25.032 26 26.483 26 26.788c0 .46-.037.905-.138 1.337-.14.562-.365 1.096-.579 1.429zm-1.805-3.147c0-.498-.202-.815-.593-.815-.492 0-.744.533-.807.648-.317.612-.543 1.885-.543 2.408 0 .218 0 .88.594.88.655 0 1.007-.892 1.21-1.95a6.733 6.733 0 00.139-1.17zM25.671 30.248l.457-1.578.113-.038c.203.226.733.84 1.732.84.392 0 .885-.127.885-.515 0-.336-.303-.487-.783-.726l-.265-.137c-.582-.314-1.264-.69-1.264-1.728 0-.564.226-1.102.618-1.527.455-.488 1.24-.839 2.44-.839 1.025 0 1.569.224 2.252.512l.063.114c-.215.677-.266.877-.444 1.577l-.126.025a2.953 2.953 0 00-.33-.363c-.29-.238-.757-.4-1.16-.4-.62 0-.772.288-.772.45 0 .275.328.44.644.59l.252.124c.721.377 1.492.801 1.492 1.954 0 .739-.354 1.214-.568 1.453-.847.937-2.111.964-2.655.964-1.442 0-2.136-.389-2.554-.627l-.027-.125zM39.07 26.517a52.484 52.484 0 00-.585 2.694c-.1.512-.186 1.188-.26 1.713l-.077.076h-2.302l-.062-.078.1-.688a2.578 2.578 0 01-1.868.766 1.88 1.88 0 01-1.169-.383c-.821-.64-.847-1.737-.847-2.132 0-1.559.735-2.697 1.282-3.245 1.208-1.214 2.764-1.227 3.923-1.24h2.363l.076.102-.574 2.415zm-2.24-.844c-.386-.012-.897-.025-1.346.36-.347.305-.844 1.085-.844 2.22 0 .654.286 1.035.784 1.035.273 0 .46-.128.647-.268l.758-3.347zM42.21 28.502c-.267 1.237-.306 1.501-.444 2.385l-.075.063-2.694.05-.05-.089c.43-1.601.506-1.877.846-3.392l.127-.53c.266-1.21.303-1.45.43-2.458l.088-.102A34.27 34.27 0 0043.155 24l.078.09-.873 3.683-.15.73zM43.28 23.185l.1-.09.468-2.006-.077-.089-2.54.343-.1.088-.43 2.03.089.092 2.49-.368zM48.22 28.846c-.25.901-.275 1.064-.439 1.79l-.101.088c-.463.15-.903.276-1.543.276C44.03 31 43 29.747 43 27.918 43 26.052 44.305 24 46.98 24c1.166 0 1.679.326 1.993.512l.027.102-.49 1.689-.127.014c-.3-.375-.64-.59-1.116-.59-.853 0-1.657.789-1.657 2.117 0 .7.34 1.388 1.28 1.388.603 0 .954-.25 1.204-.436l.127.05z" fill="#fff"/><defs><linearGradient id="paint0_linear" x1="10.418" y1="9.712" x2="68.147" y2="76.017" gradientUnits="userSpaceOnUse"><stop stop-color="#1A1E21"/><stop offset="1" stop-color="#06060A"/></linearGradient><linearGradient id="paint1_linear" x1="10.418" y1="9.712" x2="68.147" y2="76.017" gradientUnits="userSpaceOnUse"><stop stop-color="#1A1E21"/><stop offset="1" stop-color="#06060A"/></linearGradient></defs></svg>