<!-- by TradingView --><svg width="56" height="56" fill="none" xmlns="http://www.w3.org/2000/svg"><circle cx="28" cy="28" r="28" fill="#1E59AE"/><path fill="#1E59AE" d="M0 0h56v56H0z"/><path d="M36.175 16.002c.88.068 1.74.804 1.993 1.644l5.142 11.442c.314.65.854 1.43.642 2.305l-.286 1.18-1.552 5.75c-.202.849-1.071 1.532-1.896 1.672L16.155 40c-.766-.014-1.454-.307-1.919-.962-.464-.766-2.22-7.611-2.22-7.611-.084-.669.183-1.254.436-1.812l4.342-9.943 1.066-2.42c.439-.79 1.27-1.202 2.11-1.252l16.205.002z" fill="#fff"/><path d="M28 26l3-8h5l4 14h-6l-1-8-3 8h-4l-3-8-1 8h-6.003L20 18h5l3 8z" fill="#ED114C"/><path d="M17 36.012l.45-2.013 1.16.001.394 4h-.9l-.202-2.564c-.148.843-.309 1.717-.437 2.564h-.885l-.397-2.55c-.112.84-.185 1.703-.28 2.55H15l.493-4.004 1.162.003.345 2.013zM31 35h-.785v2.999l-.886-.002L29.326 35h-.798l.004-.997H31V35zM32.242 35.598l.758.007v-1.597l1.007-.003v3.993L33 38.005v-1.555h-.757l-.006 1.547-.942.002.003-3.993.939-.002.005 1.595zM40 36.052V34h1.008v4.003h-1.3l-.69-2.288v2.288H38V34h1.464L40 36.052z" fill="#1E59AE"/><path fill-rule="evenodd" clip-rule="evenodd" d="M21.5 37.995l.992.005-.844-4.006h-1.455L19.387 38l.958-.005.18-.992h.811l.163.99zm-.86-1.74h.56l-.265-1.405-.295 1.406zM27.808 37.995l.987.005-.84-4.006H26.51L25.708 38l.953-.005.179-.992h.806l.162.99zm-.854-1.74h.558l-.265-1.405-.293 1.406zM25.59 35.655c.033-.534-.027-1.232-.563-1.519-.548-.244-2.02-.117-2.02-.117L23.004 38h.999v-1.432h.157L24.576 38h.985l-.488-1.476v-.105c.306-.103.46-.473.518-.764zm-1.007.136c.077-.225.066-.544-.09-.728-.134-.094-.49-.063-.49-.063v.996h.356c.114-.019.156-.097.198-.165l.026-.04zM37.236 34.306c.411.584.378 1.398.348 2.138l-.008.197c-.033.564-.234 1.206-.835 1.386-.627.162-1.278.178-1.806-.212-.479-.481-.463-1.209-.448-1.905.003-.178.007-.354.002-.523.04-.492.146-1.008.599-1.29.616-.336 1.59-.33 2.148.209zm-1.209.427c-.332 0-.602.254-.602.568v1.497c0 .314.27.568.602.568.333 0 .602-.254.602-.568v-1.497c0-.314-.27-.568-.602-.568z" fill="#1E59AE"/></svg>