<!-- by TradingView --><svg width="56" height="56" fill="none" xmlns="http://www.w3.org/2000/svg"><path fill="url(#paint0_linear)" d="M0 0h56v56H0z"/><circle cx="28" cy="28" r="28" fill="url(#paint1_linear)"/><path fill-rule="evenodd" clip-rule="evenodd" d="M38.755 22a32.847 32.847 0 01-2.12 7.98 20.127 20.127 0 001.8 2.987c2.727-3.44 3.747-9.135 4.025-10.967h-3.706zm-25.797-1.613a5.29 5.29 0 011.021.095h.007C9.438 23.59 7.991 31.926 7.711 34H4c.39-2.602 2.49-13.613 8.958-13.613zm9.373 2.662c.906 1.202 1.808 2.85 2.83 5.171v.014c1.657 3.759 3.145 6.023 4.797 7.265-.381.082-.769.123-1.158.122-2.908 0-4.92-2.12-7.436-7.829a39.539 39.539 0 00-.807-1.753 14.41 14.41 0 011.774-2.99z" fill="#72CDF4"/><path fill-rule="evenodd" clip-rule="evenodd" d="M43.502 22c-.24 1.76-1.282 8.049-4.372 11.794.453.502.984.924 1.57 1.249 4.599-2.28 6.136-10.664 6.484-13.043h-3.682zM19.26 20.174a6.865 6.865 0 00-3.214.035l-.003.003a9.778 9.778 0 011.515 1.346 10.158 10.158 0 011.702-1.384zm-3.956.781a6.184 6.184 0 011.573 1.245l.01.004C13.802 25.94 12.755 32.24 12.515 34H8.827c.334-2.242 1.896-10.786 6.477-13.045zm9.496 0c1.75.954 3.282 3.117 5.107 7.265l.006.004c1.05 2.419 2.043 4.224 3.065 5.521a6.705 6.705 0 01-1.767 1.298c-1.75-.954-3.279-3.117-5.107-7.265-1.052-2.422-2.06-4.232-3.065-5.525a6.79 6.79 0 011.76-1.298zm7.23 14.86l-.02.013-.002-.018.022.006zm0 0a10.295 10.295 0 001.683-1.39c.459.502.967.953 1.515 1.347a6.787 6.787 0 01-1.702.21 6.517 6.517 0 01-1.496-.166z" fill="#00A4E4"/><path fill-rule="evenodd" clip-rule="evenodd" d="M48.31 22c-.284 2.08-1.747 10.426-6.272 13.516.33.062.665.093 1 .091C49.526 35.607 51.61 24.611 52 22h-3.69zm-30.124.23l-.016.016.004-.032.012.016zm0 0a6.894 6.894 0 011.867-1.387c.63.345 1.2.798 1.682 1.34-.704.859-1.307 1.8-1.798 2.804a18.935 18.935 0 00-1.751-2.757zm5.82-2.056a6.864 6.864 0 00-3.21.035l-.007.003a9.903 9.903 0 011.515 1.346 10.241 10.241 0 011.702-1.384zm-6.415 2.885c.68.935 1.277 1.93 1.788 2.973l-.003-.003a33.096 33.096 0 00-2.116 7.97h-3.69c.285-1.855 1.313-7.524 4.021-10.94zm18.481 7.934a14.336 14.336 0 01-1.797 2.805 6.276 6.276 0 001.682 1.37 6.792 6.792 0 001.88-1.402 19.378 19.378 0 01-1.765-2.773zM38.27 36a6.802 6.802 0 001.702-.21l-.007-.015a9.675 9.675 0 01-1.515-1.35c-.516.53-1.087 1-1.702 1.403.499.116 1.01.174 1.522.172zM27.217 20.387c2.904 0 4.92 2.125 7.436 7.833v-.01c.262.61.534 1.195.807 1.752a14.383 14.383 0 01-1.774 2.991c-.91-1.21-1.808-2.858-2.83-5.175-1.658-3.762-3.146-6.023-4.797-7.268.38-.082.769-.123 1.158-.123z" fill="#0081C6"/><defs><linearGradient id="paint0_linear" x1="10.418" y1="9.712" x2="68.147" y2="76.017" gradientUnits="userSpaceOnUse"><stop stop-color="#1A1E21"/><stop offset="1" stop-color="#06060A"/></linearGradient><linearGradient id="paint1_linear" x1="10.418" y1="9.712" x2="68.147" y2="76.017" gradientUnits="userSpaceOnUse"><stop stop-color="#1A1E21"/><stop offset="1" stop-color="#06060A"/></linearGradient></defs></svg>