<!-- by TradingView --><svg width="56" height="56" fill="none" xmlns="http://www.w3.org/2000/svg"><path fill="#1A25AB" d="M0 0h56v56H0z"/><circle cx="28" cy="28" r="28" fill="#1A25AB"/><circle cx="28" cy="28" r="15.5" stroke="#fff"/><path stroke="#fff" d="M12.707 28L28 12.707 43.292 28 28 43.293zM17.082 17.112l21.93 21.93M27.946 12.581v30.556M27.946 12.581v30.556M12.668 27.859h30.556M39.012 17.112l-21.93 21.93M14.193 35.5h27.51M14.193 20.5h28"/><circle cx="28" cy="28" r="2" fill="#fff"/><circle cx="20.211" cy="35.524" r="1.625" fill="#fff"/><circle cx="14" cy="35.5" r="1.447" fill="#fff"/><circle cx="17" cy="17" r="1.303" fill="#fff"/><circle cx="27.946" cy="43.471" r="1.696" fill="#fff"/><circle cx="43.56" cy="27.859" r="1.207" fill="#fff"/><circle cx="41.624" cy="20.5" r="1" fill="#fff"/><circle cx="20.26" cy="20.5" r="1.555" fill="#fff"/><circle cx="27.946" cy="35.5" r="1.257" fill="#fff"/><circle cx="20.26" cy="14.5" r="1.211" fill="#fff"/><circle cx="14.25" cy="20.5" r="1.447" fill="#fff"/><circle cx="36" cy="41.471" r="1.471" fill="#fff"/><circle cx="36.028" cy="14.5" r="1.5" fill="#fff"/><circle cx="36" cy="27.859" r="1" fill="#fff"/></svg>