<!-- by TradingView --><svg width="56" height="56" fill="none" xmlns="http://www.w3.org/2000/svg"><path fill="#244BA6" d="M0 0h56v56H0z"/><circle cx="28" cy="28" r="28" fill="#244BA6"/><path fill-rule="evenodd" clip-rule="evenodd" d="M35.25 38.363c1.264 0 1.75-1.704 1.701-3.333.05-1.683-.437-3.231-1.7-3.34H35v6.673h.25zM35.057 40H33V30h2.056c2.818-.163 3.79 2.207 3.936 5.03 0 2.552-1.166 5.078-3.936 4.97zm-11.96-5.078c-.096-2.932-1.262-5.05-3.352-5.104-2.333.054-3.499 2.28-3.547 5.212.048 2.824 1.312 5.158 3.547 5.158 2.09 0 3.305-2.389 3.353-5.267zm-3.546-3.258c1.117.054 1.603 1.303 1.506 3.366.049 1.792-.34 3.258-1.506 3.312-.972-.054-1.361-1.52-1.264-3.312-.097-1.955.292-3.312 1.264-3.366zm27.007 3.362c-.097-2.932-1.263-5.05-3.353-5.104-2.332.054-3.499 2.28-3.547 5.212.048 2.824 1.312 5.158 3.547 5.158 2.09 0 3.304-2.388 3.353-5.266zm-3.547-3.258c1.118.055 1.604 1.303 1.506 3.366.049 1.792-.34 3.258-1.506 3.312-.972-.054-1.36-1.52-1.264-3.312-.097-1.954.292-3.311 1.264-3.366zM24 30h2v8h1.52v2H24V30zm-13.002 0H16v2h-1.585v8h-1.82v-8h-1.597v-2zM28 30h4v2h-2v2h2v2h-2v2h2v2h-4V30zM44 24.128V28h-2V18h3.023c1.464-.054 2.661 1.235 2.636 3.08-.021 1.521-.781 2.377-1.904 2.701L48 28h-2.05L44 24.128zm.632-4.471H44v2.674l.632-.008c.634 0 1.074-.679 1.123-1.38-.05-.703-.44-1.286-1.123-1.286z" fill="#fff"/><path d="M13 18l-.9 6.213L11 18H8v10h2v-7.352L11 28h2l1-7.352V28h2V18h-3zM16.982 18H21v2h-2v2h2v2h-2v2h2v2h-4.018V18zM26.185 18h-4.618v2h1.371v8H25v-8h1.185v-2zM34 18h-2v10h4v-2h-2v-8zM26.621 18h4.688v2H30v8h-2v-8h-1.379v-2zM41 18h-4v10h4v-2h-2v-2h2v-2h-2v-2h2v-2z" fill="#fff"/></svg>