<!-- by TradingView --><svg width="56" height="56" fill="none" xmlns="http://www.w3.org/2000/svg"><path fill="#0090BA" d="M0 0h56v56H0z"/><circle cx="28" cy="28" r="28" fill="#0090BA"/><path d="M36.82 13l-7.598 21.99c-.094.27-.259.507-.475.684a1.417 1.417 0 01-.747.316V36h8.032c.629 0 1.167-.421 1.367-1.01L45 13h-8.18zM27.489 35c.4 0 .75-.233.964-.587.022-.036.1-.165.156-.34L31 26.357l-1.399-4.506a1.379 1.379 0 00-.382-.575 1.089 1.089 0 00-.578-.268 1.027 1.027 0 00-.614.114 1.246 1.246 0 00-.48.462 1.665 1.665 0 00-.156.34L25 29.639l1.405 4.524c.091.249.243.46.435.61.193.148.418.228.649.228zM28 20h-7.603c-.589 0-1.093.42-1.283 1.01L12 43h7.66l7.114-21.988a1.53 1.53 0 01.476-.715c.219-.18.48-.282.75-.294V20z" fill="#fff"/></svg>