<!-- by TradingView --><svg width="56" height="56" fill="none" xmlns="http://www.w3.org/2000/svg"><path fill="#00639F" d="M0 0h56v56H0z"/><circle cx="28" cy="28" r="28" fill="#00639F"/><path d="M22.529 29.003c-.361 1.906.493 3.177 2.666 3.177 2.172 0 3.51-1.271 3.87-3.177.362-1.905-.493-3.176-2.665-3.176s-3.51 1.27-3.871 3.176zm2.66 0c.228-1.2.487-1.56.904-1.56.417 0 .54.36.313 1.56-.229 1.2-.489 1.56-.904 1.56-.417 0-.541-.36-.313-1.56z" fill="#fff"/><path d="M34.556 31.996h-2.508l.107-.902h-.021c-.6.86-1.28 1.086-1.886 1.086-1.074 0-1.736-.597-1.435-2.187L29.57 26h2.57l-.676 3.558c-.084.44 0 .687.307.687.287 0 .53-.183.638-.667L33.12 26h2.571l-1.136 5.996zM36.005 26.004h2.509l-.061.656c.474-.535.86-.726 1.191-.726.213 0 .432.024.649.167l-.445 2.274c-.325-.151-.576-.273-1.008-.276-.49-.003-.765.436-.917 1.253L37.442 32h-2.573l1.136-5.996z" fill="#fff"/><path d="M43.534 28.48c.122-.758.114-1.167-.333-1.167-.425 0-.686.252-.978 1.789-.265 1.398-.093 1.613.3 1.613.416 0 .6-.347.8-1.124h2.383c-.348 1.669-1.45 2.6-3.568 2.6-1.67 0-2.923-.788-2.464-3.21.394-2.073 1.84-3.145 3.732-3.145 2.076 0 2.745 1.012 2.51 2.644h-2.382z" fill="#fff"/><path d="M49.392 30c-.155.428-.467.715-.753.715-.51 0-.664-.298-.534-.989l.035-.178h3.675l.078-.405c.408-2.151-.341-3.306-2.36-3.306-1.913 0-3.362 1.071-3.757 3.15-.459 2.42.798 3.204 2.36 3.204 1.997 0 3.063-.834 3.512-2.191h-2.256zm-1.013-1.717l.016-.084c.11-.583.443-.886.857-.886.404 0 .611.303.5.886l-.015.084h-1.358zM22.99 26.002c.35-1.51-.951-2.002-2.85-2.002-.21 0-.414.007-.61.02l-2.989 1.32c-.143.196-.34.428-.415.66h2.794a.277.277 0 01.01-.113c.05-.202.307-.385.797-.385.381.001.61.117.541.5h2.723zM16.078 26.372c-.036.17-.058.332-.064.486 1.464.727 3.838 1.909 4.932 2.459.401.202.176.1.176.1l-.184-.078-4.924-2.304c.027.654.38 1.136 1.223 1.406l2.024.643c.27.085.462.235.401.524-.072.344-.421.633-.87.633-.288 0-.459-.096-.545-.247-.083-.16-.08-.374-.035-.588h-1.065a1267.643 1267.643 0 011.97 2.554c1.773-.183 3.107-.997 3.456-2.65.197-.933-.082-1.63-.963-2.037-.706-.334-1.735-.549-2.284-.72-.195-.063-.33-.136-.383-.256l-2.857.043-.008.032zM15.3 29.407c-.22 1.047.1 1.706.72 2.098l-.614-2.098H15.3zM17.018 29.406h-1.49l.573 2.148c.567.324 1.356.446 2.204.446.275 0 .543-.013.802-.039l-.125-.138-1.963-2.417zM16.624 25.24l2.732-1.201c-1.228.12-2.164.535-2.732 1.201zM14.757 25.868l.066-.104 1.268-1.759h-.96l-.34 1.737-.034.126zM14.934 25.996l1.108-.556.3-1.435h-.093l-1.315 1.991zM16.009 25.634l-.735.366h.657l.078-.366zM13.359 26h.546l-.494-.24-.052.24zM14.39 25.86l-.034-.105-.45-1.75h-.136l-.17.833.73.933.06.09zM14.162 25.94l.129.075h.007l-.105-.121-.635-.853-.112.548.716.35zM14.58 25.948l.034-.247.374-1.701h-.939l.48 1.7.05.248zM15.174 26.445l.606.31.064-.31h-.67zM14.421 26.64c-.015.022-.047.08-.067.106-.305.423-.92 1.269-1.592 2.191l-.625 3.059h1.212l1.041-5.233.031-.122zM14.84 26.74l-.061-.088c.005.02.027.075.034.098l.542 2.087.234-1.147-.749-.95zM14.597 26.582c-.007.032-.017.166-.028.215-.202.92-.754 3.391-1.16 5.199h1.301l.587-2.874-.658-2.32-.042-.22zM14.212 26.63l.105-.133c-.031.015-.103.056-.148.078l-1.026.497-.319 1.56 1.388-2.002zM15.012 26.574l-.146-.083c.019.024.087.094.112.128.155.203.381.506.652.866l.114-.557-.732-.354zM13.185 26.867l.824-.422h-.738l-.086.422zM12.728 27.272c-1.473.71-3.481 1.675-4.451 2.138-.395.188-.163.07-.163.07l.15-.09 4.503-2.308.152-.742-2.77-.047-.344 1.687-.262-1.895a434.11 434.11 0 01-1.978-.038l-.173-.01.18-.014 1.96-.016-.252-2.004H5.632L4 32h2.887l.751-3.691L8.116 32h2.38l1.797-2.601.435-2.127zM13.264 24.646l-.478-.643-2.169.002-.037.182 2.526 1.235.158-.776zM13.396 24.003h-.45l.357.455.093-.455zM11.557 31.996h.075v-.002h.132l.479-2.343c-.65.89-1.29 1.769-1.712 2.345h1.026z" fill="#fff"/><path d="M13.073 25.583l-2.51-1.308L10.168 26h2.783l.121-.417zM15.406 29.506l.614 2.164.08.051-.572-2.215h-.122zM19.355 24.04l-2.731 1.2c-.06.072-.118.146-.17.222l3.076-1.44c-.059.005-.117.01-.175.017zM16.085 26.34l2.858-.043a.286.286 0 01-.024-.091l-2.793-.03a2.75 2.75 0 00-.04.165zM20.946 29.413c-1.093-.567-3.468-1.787-4.932-2.538a2.06 2.06 0 000 .183l4.924 2.378.184.08s.225.106-.176-.103zM17.147 29.406h-.128l1.963 2.417.125.138.01-.001a1272.673 1272.673 0 00-1.97-2.554zM14.778 26.651l.062.089.75.95.04-.204c-.27-.36-.497-.664-.652-.867-.025-.034-.093-.104-.112-.128l.146.083.732.354.035-.172-.605-.31c-.026-.015-.053-.027-.077-.04-.034-.018-.154-.055-.176-.067l.188.017.753-.012.034-.17-.793-.008-.195.019.185-.074.18-.095.735-.383.042-.2-1.036.508-.13.075-.043.026.02-.026.109-.14 1.279-1.872h-.158l-1.268 1.76-.066.105.033-.127.341-1.738h-.143l-.374 1.697-.035.247-.05-.247-.48-1.697h-.144l.45 1.752.034.105-.059-.09-.73-.933-.042.203.635.854.105.12.01.011-.018-.01-.128-.076-.716-.35-.035.169.494.257.176.091.19.078-.202-.019-.744.006s-.034.171-.036.173l.786.01c.039.001.163-.017.19-.017l-.185.071-.071.037-.824.422-.042.203 1.026-.497c.045-.022.117-.062.148-.078l-.106.133-1.387 2.003-.062.305c.672-.922 1.286-1.768 1.592-2.19.02-.028.052-.085.067-.106l-.031.122-1.041 5.233h.06c.406-1.808.957-4.28 1.16-5.198.01-.05.02-.184.028-.216l.041.22.659 2.32.058-.285-.542-2.088c-.007-.023-.029-.078-.035-.098zM13.303 24.458l-.356-.455h-.16l.477.642.04-.187z" fill="#fff"/><path d="M13.106 25.422l-2.526-1.235-.018.088 2.511 1.307.033-.16zM10.53 31.996c.423-.577 1.064-1.456 1.712-2.346l.051-.251-1.797 2.597h.034zM8.263 29.39l-.149.09s-.233.118.162-.07c.97-.463 2.98-1.429 4.452-2.139l.04-.19-4.505 2.309zM12.952 26.175l-2.783.024-.019.094c.96.017 1.971.034 2.769.046l.033-.164z" fill="#fff"/><path d="M15.406 29.506l.614 2.164.08.051-.572-2.215h-.122zM19.355 24.04l-2.731 1.2c-.06.072-.118.146-.17.222l3.076-1.44c-.059.005-.117.01-.175.017zM16.085 26.34l2.858-.043a.286.286 0 01-.024-.091l-2.793-.03a2.75 2.75 0 00-.04.165zM20.946 29.413c-1.093-.567-3.468-1.787-4.932-2.538a2.06 2.06 0 000 .183l4.924 2.378.184.08s.225.106-.176-.103zM17.147 29.406h-.128l1.963 2.417.125.138.01-.001a1272.673 1272.673 0 00-1.97-2.554zM14.779 26.651l.061.089.75.95.04-.204c-.27-.36-.497-.664-.651-.867-.026-.034-.094-.104-.112-.128l.145.083.733.354.035-.172-.605-.31c-.027-.015-.054-.027-.078-.04-.033-.018-.153-.055-.176-.067l.189.017.777-.012.034-.17-.817-.008-.195.019.184-.074.181-.095.735-.383.041-.2-1.036.508-.129.075-.044.026.02-.026.11-.14 1.279-1.872h-.159l-1.267 1.76-.067.105.033-.127.342-1.738h-.143l-.375 1.697-.034.247-.05-.247-.48-1.697h-.144l.45 1.752.034.105-.06-.09-.73-.933-.042.203.635.854.106.12.009.011-.017-.01-.129-.076-.716-.35-.034.169.493.257.176.091.19.078-.202-.019-.743.006s-.034.171-.037.173l.787.01c.038.001.162-.017.189-.017l-.184.071-.072.037-.824.422-.041.203c.427-.206.786-.38 1.025-.497.045-.022.117-.062.149-.078l-.106.133-1.387 2.003-.063.305c.672-.922 1.287-1.768 1.592-2.19.02-.028.052-.085.068-.106l-.032.122-1.041 5.233h.06c.406-1.808.958-4.28 1.16-5.198.011-.05.021-.184.028-.216l.042.22.658 2.32.058-.285-.542-2.088-.034-.098zM13.303 24.458l-.356-.455h-.16l.477.642.04-.187zM13.106 25.422l-2.526-1.235-.018.088 2.511 1.308.033-.161zM10.531 31.996l1.712-2.346.05-.251-1.796 2.597h.034zM8.263 29.39l-.149.09s-.233.118.162-.07c.97-.463 2.98-1.429 4.452-2.139l.04-.19-4.505 2.309zM12.952 26.175l-2.783.024-.019.094c.96.017 1.971.034 2.769.046l.033-.164z" fill="#00639F"/></svg>