<!-- by TradingView --><svg width="56" height="56" fill="none" xmlns="http://www.w3.org/2000/svg"><path fill="url(#paint0_linear)" d="M0 0h56v56H0z"/><circle cx="28" cy="28" r="28" fill="url(#paint1_linear)"/><path d="M27 14c-8.286 0-15 6.714-15 15s6.714 15 15 15 15-6.714 15-15-6.714-15-15-15zm0 4.783c5.638 0 10.217 4.58 10.217 10.217 0 5.638-4.58 10.217-10.217 10.217-5.638 0-10.174-4.58-10.174-10.217 0-5.638 4.536-10.217 10.174-10.217z" fill="#FDB511"/><path d="M30.951 22c-2.4 3.048-3.073 4.527-4.107 7.137-1.238-2.49-2.715-4.21-5.272-5.349-.484-.123-.723-.194-1.049.261-.326.456-.128.866.262 1.349 1.024 1.266 2.175 2.436 2.973 3.87.935 1.683 2.099 4.455 2.491 5.177.312.574 1.066.826 1.355.826 1.547-.182 1.548-.965 1.843-2.322.452-2.103 1.03-4.273 3.553-6.838.147-.15.3-.3.46-.452V22h-2.509z" fill="#fff"/><path fill-rule="evenodd" clip-rule="evenodd" d="M45 10h-1v1h-1v1h-2v1h-1v2h-1v-1h-1v1h1v1h-3v1h-1v1h-1v2h-1v1h-1v1h-1v1h1v-1h1v4h1v-2h1v-1h1v-1h1v-1h1v-1h2v-1h1v-3h1v-1h1v-1h-1v-1h1v-1h1v1h1v-1h-1v-1h1v-1zm-4 4h1v1h-1v-1zm-1 2h-1v1h1v-1zm0 0v-1h1v1h-1zm-4 6h-1v-1h1v1zm-1-4h1v1h-1v-1z" fill="#fff"/><path d="M29 26v1h1v-1h-1zm0 2v1h1v-1h-1zm-3 1v1h1v-1h-1z" fill="#fff"/><defs><linearGradient id="paint0_linear" x1="10.418" y1="9.712" x2="68.147" y2="76.017" gradientUnits="userSpaceOnUse"><stop stop-color="#1A1E21"/><stop offset="1" stop-color="#06060A"/></linearGradient><linearGradient id="paint1_linear" x1="10.418" y1="9.712" x2="68.147" y2="76.017" gradientUnits="userSpaceOnUse"><stop stop-color="#1A1E21"/><stop offset="1" stop-color="#06060A"/></linearGradient></defs></svg>