<!-- by TradingView --><svg width="56" height="56" fill="none" xmlns="http://www.w3.org/2000/svg"><path fill="url(#paint0_linear)" d="M0 0h56v56H0z"/><circle cx="28" cy="28" r="28" fill="url(#paint1_linear)"/><path d="M29.8 26c-3.063 0-4.796 2.106-4.8 4.594 0 2.572 1.441 4.395 4.334 4.395 1.088 0 1.827-.234 2.434-.545v.268c0 1.735-1.369 2.314-2.79 2.314-1.062 0-1.894-.29-2.505-.532l-.634 1.892c.88.396 2.09.614 3.029.614 2.403 0 4.045-.93 4.732-2.544.264-.614.4-1.258.4-2.4v-6.871C32.91 26.507 31.544 26 29.8 26zm-15.847.013c-1.017 0-2.047.354-2.765 1.078L11.122 26H9v9h2.214v-5.71c.282-.793 1.264-1.415 2.232-1.415 1.017 0 1.554.55 1.554 1.787V35h2.351v-5.602c0-2.23-1.36-3.385-3.398-3.385zm9.916.038c-1.148 0-2.043.426-2.712 1.24L21.104 26H19v9h2.214v-5.602c.291-.763 1.114-1.348 2.039-1.348.356 0 .862.068 1.18.188l.704-1.948c-.388-.166-.88-.239-1.268-.239zm6.03 1.748c.681 0 1.443.204 1.87.532v4.275c-.427.346-1.162.585-2.092.585-1.708 0-2.544-1.12-2.544-2.597 0-1.534 1.008-2.795 2.765-2.795z" fill="#fff"/><path fill="#ED008C" d="M37 13h2v3h-2zM37 16v2h-3v-2zM42 16v2h-3v-2z"/><path fill="#00AEF0" d="M37 21v2h-3v-2z"/><path fill="#FFD300" d="M47 21v2h-3v-2z"/><path fill="#429639" d="M42 21v2h-3v-2z"/><path fill="#333092" d="M37 18h2v3h-2z"/><path fill="#00AEF0" d="M37 23h2v3h-2z"/><path fill="#FFD300" d="M42 23h2v3h-2zM42 18h2v3h-2z"/><defs><linearGradient id="paint0_linear" x1="10.418" y1="9.712" x2="68.147" y2="76.017" gradientUnits="userSpaceOnUse"><stop stop-color="#1A1E21"/><stop offset="1" stop-color="#06060A"/></linearGradient><linearGradient id="paint1_linear" x1="10.418" y1="9.712" x2="68.147" y2="76.017" gradientUnits="userSpaceOnUse"><stop stop-color="#1A1E21"/><stop offset="1" stop-color="#06060A"/></linearGradient></defs></svg>