<!-- by TradingView --><svg width="56" height="56" fill="none" xmlns="http://www.w3.org/2000/svg"><path fill="#115840" d="M0 0h56v56H0z"/><circle cx="28" cy="28" r="28" fill="#115840"/><path d="M24 25.14L32.068 35h2.403L23.828 22H21v2h1v9h-1v2h4v-2h-1v-7.86zM37 22h-6v2h2v5.275h2V24h2v-2z" fill="#fff"/><path d="M30.78 16.99l.052-.053c.31-.52.464-1.091.464-1.715 0-1.767-1.442-3.222-3.193-3.222-1.752 0-3.194 1.455-3.194 3.222 0 .624.155 1.195.464 1.715l.051.052H19V19h8v4l2 2.304V19h8v-2.01h-6.22zm-2.677 0c-.979 0-1.752-.78-1.752-1.768 0-.987.773-1.767 1.752-1.767.978 0 1.75.78 1.75 1.767-.05.988-.823 1.767-1.75 1.767zM38.205 30.716c-.56 4.978-4.132 8.6-9.205 8.994v-5.942l-2-2.147v8.09c-5.005-.389-8.673-4.411-9.21-9.294L16 28.993c0 4.546 2.346 8.898 6.438 11.018L28 45l5.562-4.99C37.642 37.845 40 33.5 40 28.943l-1.795 1.774zM28.103 43.025l-1.906-1.767c1.236.208 2.472.208 3.708 0l-1.802 1.767z" fill="#fff"/></svg>