<!-- by TradingView --><svg width="56" height="56" fill="none" xmlns="http://www.w3.org/2000/svg"><path fill="#860038" d="M0 0h56v56H0z"/><circle cx="28" cy="28" r="28" fill="#860038"/><path fill-rule="evenodd" clip-rule="evenodd" d="M10.161 20C8.415 20 7 21.393 7 23.111V33.89C7 35.607 8.415 37 10.161 37H45.84C47.585 37 49 35.607 49 33.889V23.11C49 21.393 47.585 20 45.839 20H10.16zM46 21H10v15h36V21z" fill="#fff"/><path d="M14.642 23h-2.976v.5L12 24v9l-.334.5v.5h3.697v-.5L15 33v-5.178c.835.97 2.446 3.254 3.636 4.633 1.19 1.38 2.772 1.598 3.364 1.535V24l.29-.5V23h-3.717v.5L19 24v4.738L14.642 23zM26.364 23H22.57v.5c.447.116.745.729.838.962.489 1.268 1.671 4.345 2.49 6.503.82 2.158 2.436 2.923 3.142 3.035l4.283-10.5V23H30v.69c.459 0 .234.527.116.803l-.005.012-1.862 4.895-2.123-5.4.238-.5V23z" fill="#fff"/><path fill-rule="evenodd" clip-rule="evenodd" d="M33.687 23h6.035c1.017 0 2.566.75 2.586 2.846.02 2.095-1.411 2.692-2.13 2.728.803 1.21 2.906 3.942 4.894 5.426h-3.22c-.321-.01-1.197-.274-2.13-1.497-.777-1.017-1.766-2.61-2.393-3.619-.126-.203-.237-.382-.33-.528V33l.445.5v.5h-3.778v-.5L34 33v-9.044l-.313-.456V23zM37 24.531s2.5-.18 2.5 1.273c0 1.562-1.666 1.66-2.5 1.696v-2.969z" fill="#fff"/></svg>