<!-- by TradingView --><svg width="56" height="56" fill="none" xmlns="http://www.w3.org/2000/svg"><path fill="#00AEEF" d="M0 0h56v56H0z"/><circle cx="28" cy="28" r="28" fill="#00AEEF"/><path fill-rule="evenodd" clip-rule="evenodd" d="M45.115 24.848l.902.943-12.012.329-3.853-1.272h14.963zm-1.927-2.014l.724.757-10.112.28-3.456-1.036h12.844zM40.7 20.236l.724.756-8.03.145-3.149-.9h10.455zm-2.33-2.434l.613.64-6.54.17-2.198-.81h8.125zm-2.89-3.02l.643.672-4.11.202-1.862-.874h5.33zm-1.927-2.013l.556.58h-2.95l-1.42-.58h3.814zm-2.89-3.02l.812.848h-1.55l-.716-.848h1.454zM28.56 7.547h-.001l.18.188H28V7l.559.547zm-5.574 5.222l1.738-1.751 1.201-.1 3.286 1.85h-6.225zm-1.998 2.013l1.162-1.17.003-.003h3.267l4 1.173h-8.433zm-2.999 3.02l1.463-1.473 4.868-.262 5.08 1.735H17.99zm-1.998 2.013l1.124-1.133 6.373-.14L29 19.816H15.99zm-2.999 3.02l1.426-1.436 8.34-.262 6.623 1.698H12.99zm-2.018 2.033l1.159-1.167 10.425-.232 6.56 1.4H10.973zm-2.802 2.823l1.037-1.045 13.18-.526 6.728 1.749H8l.17-.178zm1.839 2.19l-.879-.885 13.486-.448 6.458 1.333H10.01zm2.998 3.02l-1.282-1.291 11.288-.438 5.704 1.729h-15.71zm2.998 3.02l-1.309-1.319 8.486-.47 5.801 1.789H16.006zm1.999 2.013L16.7 36.62l6.955-.192 5.233 1.506H18.005zm2.998 3.02l-1.743-1.755 5.072-.114 4.29 1.869h-7.62zm1.986 2l-1.44-1.45h3.24l3.437 1.469-5.237-.018zM26 45.988l-1.7-1.712h1.468l1.953 1.712H26zm1.93 1.944l-1.53-1.542h1.6V48l-.07-.068zm20.056-20.047l-.006-.006-.6.605-13.095.41-4.038-1.024H48l-.015.015zM30 45.986l-.647.652-.732-.651h1.38zm2.992-3.013l-.75.755h-1.599l-1.717-.755h4.066zm2.005-2.02l-1 1.007h-2.41l-2.002-1.006h5.412zm2.998-3.02l-.656.66-5.545.094-1.925-.753h8.126zm1.998-2.013l-.572.577-6.888.27-2.646-.847h10.107zm2.998-3.02l-.6.605-9.011.376-3.51-.98h13.122zm2.999-3.02l-.82.827-11.79.465-3.135-1.291h15.745zM26 10h.922l-.44-.388L26 10z" fill="#fff"/></svg>