<!-- by TradingView --><svg width="56" height="56" fill="none" xmlns="http://www.w3.org/2000/svg"><path fill="#0084AA" d="M0 0h56v56H0z"/><path d="M8.003 29.94c.69 0 1.238-.222 1.642-.666.407-.444.611-1.076.611-1.895 0-.816-.204-1.445-.611-1.89-.404-.447-.951-.67-1.642-.67-.69 0-1.242.221-1.653.666-.412.444-.618 1.075-.618 1.894 0 .82.206 1.451.618 1.895.411.444.962.666 1.653.666zM12 27.38c0 1.305-.42 2.305-1.263 3-.63.565-1.541.848-2.734.848s-2.104-.283-2.735-.849C4.423 29.685 4 28.685 4 27.38c0-1.332.423-2.332 1.268-3 .63-.566 1.542-.849 2.735-.849 1.193 0 2.104.283 2.734.85.842.667 1.263 1.667 1.263 3zM19.256 25.867c.245 0 .487.043.726.129.239.086.455.236.65.451.157.175.262.39.317.645.034.169.051.416.051.74l-.01 3.164h-1.494v-3.195a.96.96 0 00-.102-.47c-.13-.233-.368-.35-.716-.35-.403 0-.68.15-.834.451-.078.16-.118.352-.118.576v2.988h-1.468v-2.988c0-.298-.034-.514-.102-.65-.123-.242-.363-.363-.721-.363-.416 0-.696.121-.84.364-.078.138-.117.343-.117.617v3.02H13v-5.01h1.417v.733c.18-.261.351-.447.511-.557.283-.197.65-.295 1.1-.295.426 0 .77.084 1.033.253.212.157.372.358.481.603.191-.294.428-.51.711-.649a2.37 2.37 0 011.003-.207zM25.057 25.867c.572 0 1.038.136 1.4.409.365.27.547.718.547 1.347v3.373h-1.48v-3.047c0-.264-.04-.466-.117-.607-.142-.257-.412-.386-.811-.386-.49 0-.827.189-1.01.566-.094.199-.141.453-.141.762v2.712h-1.44v-5h1.394v.73c.186-.257.362-.442.527-.556.298-.202.675-.303 1.131-.303zM30.005 25H28.5v-1h1.505v1zM28.5 26h1.505v5H28.5v-5zM35.052 27.797c-.028-.193-.1-.48-.214-.634-.166-.209-.425-.313-.776-.313-.5 0-.841.226-1.026.677-.097.24-.145.56-.145.958 0 .379.048.684.145.914.178.43.51.645 1 .645.347 0 .594-.086.74-.256.146-.17.234-.392.265-.664h1.516c-.035.411-.198.8-.49 1.166-.465.59-1.154.886-2.067.886-.913 0-1.585-.246-2.015-.74-.43-.492-.646-1.132-.646-1.918 0-.888.238-1.578.713-2.071.476-.493 1.132-.74 1.969-.74.711 0 1.293.146 1.744.437.455.29.724.917.807 1.653h-1.52zM40.145 30.044c.434 0 .767-.141 1-.422.232-.281.348-.681.348-1.2 0-.517-.116-.915-.349-1.193-.232-.281-.565-.422-1-.422-.433 0-.768.14-1.004.422-.233.278-.35.676-.35 1.194 0 .518.117.918.35 1.199.236.28.57.422 1.005.422zm2.905-1.621c0 .758-.24 1.407-.718 1.948-.48.537-1.207.805-2.182.805-.976 0-1.703-.268-2.182-.805-.48-.54-.719-1.19-.719-1.948 0-.746.24-1.392.719-1.938.479-.547 1.206-.82 2.182-.82.975 0 1.703.273 2.182.82.479.546.718 1.192.718 1.938zM50.256 25.88c.245 0 .487.043.726.129.239.085.455.235.65.45.157.174.262.389.317.643.034.168.051.415.051.74l-.01 3.154h-1.494v-3.187a.955.955 0 00-.102-.469c-.13-.232-.368-.349-.716-.349-.403 0-.68.15-.834.45-.078.16-.118.351-.118.575v2.98h-1.468v-2.98c0-.297-.034-.513-.102-.648-.123-.242-.363-.363-.721-.363-.416 0-.696.121-.84.363-.078.138-.14.343-.14.615v3.013H44V26h1.417v.73c.18-.26.351-.446.511-.556.283-.196.65-.294 1.1-.294.426 0 .77.084 1.033.253.212.156.372.356.481.601a1.77 1.77 0 01.711-.647c.3-.138.635-.207 1.003-.207z" fill="#fff"/></svg>