<!-- by TradingView --><svg width="56" height="56" fill="none" xmlns="http://www.w3.org/2000/svg"><path fill="#009D57" d="M0 0h56v56H0z"/><circle cx="28" cy="28" r="28" fill="#009D57"/><path d="M21 27.852h2.368c.707 0 1.085-.646 1.085-1.45 0-.79-.53-1.402-1.186-1.402H21v2.852zM19.052 23h4.594c1.59 0 3.155.843 3.155 2.988 0 1.146-.468 2.474-1.414 2.906v.03c.96.268 1.237 1.292 1.313 2.304.024.446-.213 2.385.102 2.772H24.48c-.202-.357.037-1.775.011-2.073-.063-1.07-.215-1.931-1.312-1.931H21V34h-1.948V23zM32.612 29c-.042-.883-.609-1.575-1.397-1.575-.83 0-1.382.616-1.52 1.575h2.917zm-2.917 1.484c.042 1.08.608 1.795 1.603 1.795.567 0 1.12-.289 1.341-.867h2.198c-.428 1.826-1.963 2.617-3.566 2.617-2.336 0-3.926-1.552-3.926-4.2 0-2.42 1.755-4.155 3.87-4.155 2.571 0 3.857 2.132 3.747 4.81h-5.267zM36 34h2v-7.995h-2V34zM39 34h2V23h-2v11zM42 34h2V23h-2v11zM49.413 34.31c-.517 1.698-1.287 1.907-2.738 1.907H46V34h.41c.492 0 .858-.166.858-.701 0-.418-.417-1.608-.543-2.026L45.035 26h2.27l1.237 4.93h.025L49.804 26H52l-2.587 8.31zM10.198 21.046c-2.184 0-3.356 1.855-3.356 5.355 0 2.556.763 6.11 3.658 6.11 2.327 0 3.232-2.128 3.232-5.524 0-3.582-1.331-5.941-3.534-5.941zm6.376 5.669c0 4.569-2.593 7.314-6.411 7.314C6.593 34.03 4 31.263 4 26.883c0-4.15 2.628-7.356 6.34-7.356 3.695 0 6.234 2.934 6.234 7.188z" fill="#fff"/><path d="M10.551 29.727c.047-.037.088-.078.128-.12-.03.049-.07.09-.128.12zm-.044-4.31a2.368 2.368 0 00-.027-.202l.037.023c-.002.06-.006.12-.01.179zm2.424.985a.82.82 0 00-.833-.805.848.848 0 00-.505.165.912.912 0 00.082-.288.78.78 0 00.099-.38.82.82 0 00-.833-.806.843.843 0 00-.578.227.845.845 0 00-.6-.247c-.46 0-.832.36-.832.805 0 .237.106.45.274.597l.048.091-.015.002a.843.843 0 00-.505-.166.82.82 0 00-.833.805c0 .233.103.443.267.59a.79.79 0 00-.225.55c0 .35.233.649.557.759.014.012.026.024.042.034a.552.552 0 00.569.047.415.415 0 00.274-.117l.005-.005a.598.598 0 00.202-.104l-.042.03a.628.628 0 00.182-.11c.112-.025.227-.04.333-.082l-.047.018c.063-.003.126-.002.19-.007.003.237.008.475-.009.714-.003.05-.024.1-.036.152l.005-.027c-.047.101-.088.204-.14.303a.293.293 0 01.047-.039c-.019.016-.036.033-.053.05l-.023.043a.092.092 0 01.016-.038.544.544 0 00-.144.24v-.025a.422.422 0 10.758.367l.02-.038c.208-.225.311-.534.37-.84.053-.277.035-.541.028-.809.322.223.698.266 1.071.244l.043-.001h.022a.418.418 0 00.358-.205.785.785 0 00.205-1.187.784.784 0 00.186-.506z" fill="#fff"/><path d="M9.992 28.979l-.016.022a.682.682 0 00.009-.009l.007-.013zM35.678 23.866c0-.732.592-1.326 1.322-1.326.73 0 1.322.594 1.322 1.326 0 .732-.592 1.326-1.322 1.326-.73 0-1.322-.594-1.322-1.326zM19.373 20.323c0-.73-.591-1.323-1.32-1.323a1.322 1.322 0 00-1.308 1.492.9.9 0 00.086.332c.012.03.027.059.041.088 0 .003.003.006.004.008l.035.066c.123.226.332.524.688.91l-.495.372.495.827s1.553-1.012 1.75-2.52c.015-.08.024-.165.024-.252z" fill="#fff"/></svg>