<!-- by TradingView --><svg width="56" height="56" fill="none" xmlns="http://www.w3.org/2000/svg"><path fill="url(#paint0_linear)" d="M0 0h56v56H0z"/><circle cx="28" cy="28" r="28" fill="url(#paint1_linear)"/><path d="M48 28h1v-2h-1.014c-.915-.026-1.574.01-2.258.436-.466.302-.728.58-.769 1.126L44.954 33H48v-5zM41 30h3v-1.597-.412c-.015-.471-.12-.92-.482-1.271l-.275-.22c-1.273-.78-2.449-.766-3.86-.328-.683.26-1.247.916-1.301 1.656-.15 1.109-.137 2.329-.014 3.451.207.932 1.166 1.582 2.054 1.72H44v-2.333h-3.454v-2.49H41V30z" fill="#fff"/><path d="M34 30.745L34.975 33h3.051l-1.75-3.63L38.01 26h-3.008L34 28.169v-5.17h-3.01v10H34v-2.254zM29 28h1V25.94s-1.74-.136-2.645.139c-.63.231-1.395.738-1.395 1.49-.03 1.754 0 5.43 0 5.43H29v-5zM20.444 33H25V28.04c-.014-.423-.034-.806-.227-1.15A1.746 1.746 0 0023.308 26H20v2h2.45v2.845H22v-1.927s-2.197-.204-2.95.74c-.426.657-.344 1.564-.071 2.259.275.577.879.96 1.465 1.083zM14.011 33v-2.026c1.563.027 3.413-.36 4.358-1.645.905-1.438.796-3.644.041-5.11-.683-1.176-1.93-1.656-3.246-1.629L10 22.625V25h4.984v4h-4.98v4h4.007z" fill="#fff"/><path d="M14 26H4v2h10v-2z" fill="#fff"/><defs><linearGradient id="paint0_linear" x1="10.418" y1="9.712" x2="68.147" y2="76.017" gradientUnits="userSpaceOnUse"><stop stop-color="#1A1E21"/><stop offset="1" stop-color="#06060A"/></linearGradient><linearGradient id="paint1_linear" x1="10.418" y1="9.712" x2="68.147" y2="76.017" gradientUnits="userSpaceOnUse"><stop stop-color="#1A1E21"/><stop offset="1" stop-color="#06060A"/></linearGradient></defs></svg>