<!-- by TradingView --><svg width="56" height="56" fill="none" xmlns="http://www.w3.org/2000/svg"><path fill="#002C72" d="M0 0h56v56H0z"/><circle cx="28" cy="28" r="28" fill="#002C72"/><path fill-rule="evenodd" clip-rule="evenodd" d="M9 20v16h5v-5h3.03c1.788 0 3.39-.253 4.46-1.518C22.2 33.145 25.489 36 29.37 36h8.366l2.148-3.19L42 31.213V36h4v-8.166l3-2.154v-.163l-12.997 8.776L49 24.679v-.17l-12.02 8.108L49 23.662v-.17l-11.037 7.456L49 22.639v-.163l-10.022 6.759L49 21.629v-.163l-3 2.026V20h-3.967l-6.858 12h-6.518c-1.992 0-3.609-2.06-3.609-4.015 0-1.987 1.617-3.985 3.609-3.985H37v-4h-7.629a8.057 8.057 0 00-6.858 3.841A5.84 5.84 0 0017.03 20H9zm5 7v-3h3c.773 0 1.428.732 1.428 1.5 0 .76-.655 1.5-1.428 1.5h-3z" fill="#fff"/></svg>