<!-- by TradingView --><svg width="56" height="56" fill="none" xmlns="http://www.w3.org/2000/svg"><path fill="#054D53" d="M0 0h56v56H0z"/><circle cx="28" cy="28" r="28" fill="#054D53"/><path d="M38.51 29.016c-2.154 1.83-1.25 4.515-.364 6.15 1.108 2.045-.307 5.056-2.244 6.761 4.705-2.675 7.922-7.665 8.098-13.423-.732-.48-1.711-.534-2.705-.504-.992.03-1.997.347-2.786 1.016z" fill="#00B2C3"/><path d="M27.258 33.475c-3.086-2.63-5.79-1.358-7.632.815-1.867 2.206.707 2.865 4.221 3.667 2.654.607 2.327 5.227 2.57 6.043 3.166-5.142 2.255-9.321.841-10.525z" fill="#38BE52"/><path d="M32.248 17.469c5.263 4.083.636 6.17.636 6.17 2.989 2.54 6.01-2.323 9.255.455.86.735 1.407 1.625 1.814 2.582-.546-6.641-5.145-12.131-11.32-13.995-2.422 1.064-3.39 2.456-.385 4.788z" fill="#00B5FE"/><path d="M19.536 31.557c-1.193-3.263.323-4.765 5.508-8.456 6.55-4.662-3.694-3.009.475-7.207 1.477-1.487 3.552-2.642 5.084-3.681A16.086 16.086 0 0028.006 12C19.167 12 12 19.166 12 28.005c0 .355.015.707.04 1.056 2.41 2.237 5.404 3.688 7.496 2.496z" fill="#fff"/></svg>