<!-- by TradingView --><svg width="56" height="56" fill="none" xmlns="http://www.w3.org/2000/svg"><path fill="#006F7A" d="M0 0h56v56H0z"/><circle cx="28" cy="28" r="28" fill="#006F7A"/><path fill-rule="evenodd" clip-rule="evenodd" d="M27.554 15l-5.698 5.65 5.698 5.652 5.698-5.651L27.554 15zm6.436 6.42l-5.698 5.65 5.698 5.651 5.698-5.65-5.698-5.652zm-19.292 6.278L9 33.35 14.698 39l5.698-5.65-5.698-5.652zm12.856 0l-5.698 5.651L27.554 39l5.698-5.65-5.698-5.652zm7.05 5.651l5.698-5.65L46 33.348 40.302 39l-5.698-5.65zM15.419 27.07l5.699-5.65 5.698 5.65-5.698 5.651-5.699-5.65z" fill="url(#paint0_linear)"/><defs><linearGradient id="paint0_linear" x1="27.5" y1="26.125" x2="27.642" y2="9.114" gradientUnits="userSpaceOnUse"><stop stop-color="#fff"/><stop offset="1" stop-color="#fff" stop-opacity="0"/></linearGradient></defs></svg>