<!-- by TradingView --><svg width="56" height="56" fill="none" xmlns="http://www.w3.org/2000/svg"><path fill="#0272A6" d="M0 0h56v56H0z"/><circle cx="28" cy="28" r="28" fill="#0272A6"/><path d="M28.013 30.728c-1.936 0-3.013-.907-3.013-.907V19.369c0-.872.86-1.47 1.741-1.58.944-.118 5.293-.775 5.293 6.076 0 6.174-2.931 6.863-4.02 6.863zm-14.23-.646c-1.283 0-1.783-.558-1.783-.558v-6.501c0-.537.356-.906.94-.973.625-.073 3.467-.328 3.467 3.892 0 3.95-1.735 4.14-2.625 4.14zm29.233-7.056c1.765-.522 3.56.019 4.984 1.202V20.43c-4.604-.73-7.016-.234-8.858.91-1.493.956-2.127 2.26-2.127 2.26s-.033.069-.088.193C36.685 14.18 30.68 15 23.799 15H20v8.303C18.835 19.874 15.088 20 11.237 20H8v19h5.303C12.418 38.692 12 36.933 12 35.817v-5.055l1.5 1.532c.674.165 1.264.147 1.264.147 1.464-.081 4.245-.65 5.236-3.62V43h6.16c-.882-.307-1.16-1.06-1.16-2.173v-9.52l2.222 2.385c.772.277 1.34.324 1.992.294 1.841-.115 4.992-.894 6.642-4.225.136 3.131 1.16 6.273 4.334 7.508 1.397.572 2.985.73 4.636.604A21.279 21.279 0 0048 37.555V29h-4.37c.885.308 1.37 1.008 1.37 2.124v3.91c-1.102.345-3.09.004-3.921-1.071-1.05-1.359-1.239-5.182-.794-7.79.254-1.303 1.368-2.744 2.73-3.146z" fill="#fff"/></svg>