<!-- by TradingView --><svg width="56" height="56" fill="none" xmlns="http://www.w3.org/2000/svg"><path fill="#2D4491" d="M0 0h56v56H0z"/><circle cx="28" cy="28" r="28" fill="#2D4491"/><path d="M23 26h-3v12h3v-3.759c.267.247.925.94 2.228.94 1.888 0 3.426-1.517 3.426-4.467 0-1.517-.418-3.097-.902-3.707a3.187 3.187 0 00-2.54-1.236c-1.354 0-1.944.709-2.212.956V26zm2.913 4.346c.017.429 0 1.686-.417 2.296-.117.149-.418.56-1.086.56-1.154 0-1.454-1.52-1.454-2.724 0-1.187.3-2.646 1.454-2.646 1.42 0 1.486 2.02 1.503 2.514zM13 26h-3v12H13v-3.759c.267.247.97.94 2.273.94 1.888 0 3.425-1.517 3.425-4.467 0-1.517-.418-3.097-.902-3.707a3.186 3.186 0 00-2.54-1.236c-1.353 0-1.987.709-2.255.956V26zm2.956 4.346c.017.429 0 1.686-.417 2.296-.117.149-.418.56-1.086.56-1.153 0-1.454-1.52-1.454-2.724 0-1.187.3-2.646 1.454-2.646 1.42 0 1.487 2.02 1.503 2.514zM30 23v12h3V21.42L30 23z" fill="#fff"/><path d="M40.064 37.717l-1.361-1.163c.341-.301.664-.623.967-.965l1.164 1.36a12.75 12.75 0 01-.77.768zm2.033 1.737l-1.418-1.21c.235-.22.462-.447.681-.681l1.213 1.416c-.155.162-.314.32-.476.475zm1.886 1.612l-1.068-.912c.121-.118.24-.237.358-.358l.914 1.067a20.48 20.48 0 01-.203.203zM39.998 34.1l-1.55-.74.869-1.501 1.417.97a10.26 10.26 0 01-.736 1.271zm2.214 1.057l-1.617-.772c.252-.378.48-.773.684-1.181l1.478 1.012c-.169.322-.35.636-.545.94zm2.415 1.152l-1.685-.803c.17-.271.331-.55.483-.833l1.539 1.054c-.109.197-.221.391-.337.582zm2.24 1.07l-1.269-.606c.087-.144.171-.29.253-.437l1.16.794-.144.248zm-5.656-5.698l-1.69-.315.45-1.675 1.62.572c-.094.485-.221.958-.38 1.418zm2.412.448l-1.761-.328c.144-.428.262-.868.353-1.319l1.69.596c-.08.357-.174.707-.282 1.05zm2.632.489l-1.836-.341c.094-.305.177-.615.25-.929l1.76.621c-.054.218-.112.434-.174.649zm2.44.454l-1.382-.257c.046-.162.09-.324.131-.488l1.325.468c-.024.093-.048.185-.074.277zm-6.943-4.042l-1.712.133v-1.735l1.712.133a10.548 10.548 0 010 1.469zm2.445-.19l-1.786.138a11.106 11.106 0 000-1.365l1.786.139a13.056 13.056 0 010 1.087zm2.668-.208l-1.86.144a13.971 13.971 0 000-.961l1.86.145a14.975 14.975 0 010 .672zm2.474-.193l-1.4.109a15.157 15.157 0 000-.505l1.4.109.001.143v.144zm-7.749-2.11l-1.62.57-.449-1.674 1.69-.314c.159.458.286.932.38 1.418zm2.314-.817l-1.689.596c-.09-.45-.21-.89-.353-1.318l1.761-.328c.108.344.203.694.281 1.05zm2.524-.89l-1.76.62a13.406 13.406 0 00-.249-.928l1.836-.341c.062.215.12.43.173.649zm2.341-.826l-1.325.468a17.345 17.345 0 00-.13-.488l1.381-.257c.026.092.05.184.074.277zm-8.035-.035l-1.417.971-.868-1.502 1.549-.739c.274.404.52.828.736 1.27zm2.023-1.386L41.28 23.39a10.963 10.963 0 00-.685-1.182l1.617-.772c.194.305.377.62.545.941zm2.207-1.512l-1.54 1.055a13.416 13.416 0 00-.482-.833l1.685-.804c.116.192.228.386.337.582zm2.047-1.402l-1.16.794a15.364 15.364 0 00-.253-.437l1.269-.606.144.248zm-7.772 2.044l-1.115 1.302-1.228-1.226 1.304-1.114c.37.32.718.668 1.04 1.038zm1.595-1.862l-1.164 1.36a11.198 11.198 0 00-.967-.966l1.361-1.163c.267.246.524.502.77.77zm1.74-2.03L41.36 19.03a13.279 13.279 0 00-.681-.68l1.418-1.212c.162.155.321.314.476.476zm1.613-1.884l-.914 1.067c-.117-.121-.237-.24-.358-.358l1.069-.912.203.203zm-6.974 3.98l-.74 1.548-1.505-.868.972-1.415c.443.216.868.462 1.273.735zm1.058-2.21l-.773 1.614c-.378-.252-.774-.48-1.183-.684l1.014-1.475c.322.169.636.35.942.544zm1.154-2.412l-.805 1.682c-.271-.17-.55-.33-.833-.482l1.056-1.537c.196.108.39.22.582.337zm1.07-2.237l-.606 1.266a16.37 16.37 0 00-.437-.252l.795-1.158.249.144zm-5.705 5.648l-.315 1.687-1.677-.448.572-1.618c.486.093.96.22 1.42.379zm.449-2.41l-.328 1.76c-.429-.144-.87-.262-1.32-.353l.597-1.687c.356.079.707.173 1.05.28zm.49-2.627l-.342 1.833a13.468 13.468 0 00-.93-.248l.622-1.758c.219.053.435.11.65.173zm.454-2.437l-.257 1.38c-.162-.046-.325-.09-.488-.13l.468-1.325c.093.024.185.05.277.075zM24.6 20.468l1.304 1.114-1.228 1.226-1.116-1.302c.322-.37.67-.717 1.04-1.038zm-1.864-1.593l1.36 1.163c-.34.302-.664.625-.966.966l-1.164-1.36c.245-.267.502-.523.77-.769zm-2.034-1.736l1.419 1.211c-.235.218-.462.445-.681.68l-1.214-1.416c.156-.162.314-.32.476-.476zm-1.886-1.612l1.068.912c-.12.117-.24.237-.358.358l-.913-1.067.203-.203zm8.043 3.448l.972 1.415-1.504.868-.74-1.548c.404-.273.83-.52 1.272-.735zm-1.388-2.02l1.014 1.475c-.41.204-.805.432-1.184.684l-.772-1.615c.305-.194.62-.376.942-.544zm-1.514-2.204l1.056 1.537c-.284.151-.562.312-.834.482l-.804-1.682c.191-.116.386-.229.582-.337zm-1.404-2.044l.795 1.158a16.37 16.37 0 00-.438.252l-.606-1.266c.082-.049.165-.096.248-.144zm6.877 5.413l.572 1.618-1.677.448-.315-1.687c.46-.159.934-.286 1.42-.379zm-.818-2.311l.597 1.687c-.45.091-.891.21-1.32.353l-.328-1.76c.345-.107.695-.201 1.051-.28zm-.891-2.52l.622 1.757c-.314.072-.625.155-.93.249l-.342-1.833c.215-.063.431-.12.65-.173zm-.827-2.338l.468 1.323c-.163.041-.326.085-.488.13l-.257-1.38c.092-.025.184-.05.277-.073zm5.24 7.008l.134 1.709h-1.737l.133-1.71a10.58 10.58 0 011.47 0zm-.19-2.442l.139 1.783a11.06 11.06 0 00-1.367 0l.14-1.784a13.085 13.085 0 011.088 0zm-.208-2.664l.145 1.858a14.003 14.003 0 00-.963 0l.145-1.858a15.097 15.097 0 01.673 0zm-.193-2.472l.11 1.4c-.085-.002-.169-.003-.254-.003l-.252.002.109-1.399h.287zM38.2 36.125l-1.304-1.114 1.228-1.227 1.115 1.303c-.322.37-.669.717-1.04 1.038z" fill="#31C9FF"/></svg>