<!-- by TradingView --><svg width="56" height="56" fill="none" xmlns="http://www.w3.org/2000/svg"><path fill="#1B5EA8" d="M0 0h56v56H0z"/><circle cx="28" cy="28" r="28" fill="#1B5EA8"/><path d="M33.084 22.373c0 .579-.523 1.084-1.083 1.084a1.112 1.112 0 01-1.084-1.084c0-.56.506-1.082 1.084-1.082.56 0 1.083.521 1.083 1.082zM33 24h-2v8h2v-8zM49.005 27.663c0 2.42-1.8 3.946-4.117 3.946-2.294 0-4.096-1.527-4.096-3.946 0-2.416 1.802-3.94 4.096-3.94 2.316 0 4.117 1.524 4.117 3.94zm-6.241 0c0 1.562.84 2.728 2.124 2.728 1.185 0 2.11-1.166 2.11-2.728 0-1.559-.925-2.725-2.11-2.725-1.387 0-2.124 1.149-2.124 2.725z" fill="#fff"/><path d="M40.147 34.445c.53-.472.901-1.071.984-1.76.188-1.663-1.01-2.685-2.657-2.685h-2.16c-.496 0-1.286-.007-1.286-.676 0-.615.84-.754 1.303-.754h.753c1.526 0 2.985-.822 2.985-2.433 0-.557-.274-.973-.45-1.18a8.12 8.12 0 001.381-.31v-1.189c-.987.31-1.808.434-2.778.424-.273-.069-.667-.162-1.462-.162-1.904 0-2.846 1.284-2.846 2.417 0 .96.532 1.456.925 1.696-.652.222-1.337.995-1.337 1.904 0 1.012.6 1.455.944 1.644-.48.24-1.373.876-1.373 2.025 0 .22.038.419.107.598-8.889-.993-17.575-3.143-26.18-.691v.54c13.753-3.92 28.247 5.123 42.005 1.073v-1.671c-2.89.824-5.9 1.186-8.858 1.19zm-3.181-9.63c.959 0 1.371.705 1.371 1.338 0 .72-.447 1.303-1.371 1.303-.876 0-1.372-.584-1.372-1.303 0-.633.496-1.337 1.372-1.337zm-1.184 6.792h2.452c.754 0 1.371.376 1.234 1.25-.101.789-1.25 1.51-2.436 1.51-1.062 0-2.383-.31-2.416-1.168-.019-.754.772-1.353 1.166-1.592z" fill="#fff"/><path d="M17.792 30.355c-1.512 0-2.26-.812-2.26-2.355h4.892c0-2.895-1.527-4.277-3.282-4.277-1.934 0-3.546 1.705-3.546 4.002 0 2.417 1.482 3.883 3.675 3.883.197 0 .379-.006.55-.015a5.574 5.574 0 002.045-.45c.041-.413.083-.827.123-1.242a6.083 6.083 0 01-1.15.366 5.678 5.678 0 01-1.047.088zm-.7-5.399c.863 0 1.48.53 1.48 2.044h-3.007c-.033-1.014.585-2.044 1.528-2.044zM7 32V20h3.326c2.676 0 3.76 1.858 3.76 3.45 0 1.853-1.412 3.562-3.83 3.562H9V32H7zm2.93-10.01H9v3.37c.132-.079.266-.338.486-.36.22-.022.445 0 .445 0 1.304 0 2.129-.298 2.129-1.55 0-1.148-.74-1.46-2.13-1.46zM25.546 23.937a2.01 2.01 0 00-.68-.117c-.995 0-1.586.606-1.866 1.103L22.74 24H21v8h2v-5.732c.36-.743.993-1.434 1.992-.919M30.547 23.927a2.004 2.004 0 00-.68-.116c-.994 0-1.587.615-1.867 1.112L27.742 24H26v8h2v-5.732c.36-.743.994-1.434 1.993-.919" fill="#fff"/></svg>