<!-- by TradingView --><svg width="56" height="56" fill="none" xmlns="http://www.w3.org/2000/svg"><path fill="#007AC3" d="M0 0h56v56H0z"/><circle cx="28" cy="28" r="28" fill="#007AC3"/><path d="M28.221 12C18.488 12 12 19.974 12 27.528c0 5.036 1.668 7.366 3.158 9.51 1.025-2.33 3-6.524 3-6.524l.827-.462 1.212-3.352.712-.328-2.752 8.438-1.98 2.19h.847l3.327-3.403 1.578-6.165.597.847c-.234 2.844-.141 2.152-.328 3.738L18.236 37h.924l3.885-2.382.231.096L21.816 37h4.29l6.58-3.827L34.605 26H39.5l-1.83-1.593-10.623-1.772c-2.328-2.471-2.424-2.601-2.424-2.601l2.81.23-2.021-1.868V16.49l2.617.462 7.12 4.142 8.255 2.235C42.566 19.458 37.581 12 28.22 12zm0 1c6.38 0 11.646 4.09 13.508 8.845l-7.235-2.004-6.427-3.583-3.155-.52-1.444 3.082-1.173.597-1.81 4.624c0-.093-1.25.559-1.25.559s-2.71 7.229-4.06 10.865c-1.07-1.912-2.04-3.928-2.04-7.937C13.135 20.535 19.093 13 28.221 13zm7.64 13.314l-.29 2.428.29.424-.29 2.138 1.078-.173 1.944-3.7-2.733-1.117zm3.251 1.31l-2 5.645-1.405 1.156L33.919 37h1.77l2.73-3.827 1.348-1.156 1.481-3.507-2.136-.886zm2.752 1.08l-1.02 3.486L37.421 37H41c1.91-2.658 2.814-4.86 3-7.565l-2.136-.732zm-6.985 3.679L30.705 37h2.252l2.346-3.827-.424-.79zM15.5 38c3.493 4.29 8.666 6 12.625 6 4.517 0 9.534-2.316 12.375-6h-25z" fill="#fff"/></svg>