<!-- by TradingView --><svg width="56" height="56" fill="none" xmlns="http://www.w3.org/2000/svg"><path fill="url(#paint0_linear)" d="M0 0h56v56H0z"/><circle cx="28" cy="28" r="28" fill="url(#paint1_linear)"/><path d="M28.271 47c1.823-2.422 4.353-2.919 7.492-3.217 3.713-.354 5.37-.733 7.493-3.1 1.332-1.483 2.26-3.894 2.26-6.078 0-1.525-.079-2.783-.833-4.968-1.614-4.68-2.12-6.437 1.588-10.73l-7.734-7.747c-1.663 1.39-5.27 3.815-10.265-.16-5.035 4.014-8.527 1.512-10.27.16l-7.731 7.747c3.688 4.293 3.345 6.06 1.587 10.73-.792 2.105-.833 3.498-.833 4.968 0 2.185.852 4.587 2.26 6.078 2.193 2.321 3.847 2.744 7.493 3.1 3.25.317 5.67.834 7.494 3.217z" fill="#fff"/><path d="M28.271 46c1.811-2.046 4.555-2.931 7.318-3.209 3.47-.348 4.825-.709 6.748-2.781 1.247-1.345 2.079-3.437 2.079-5.56 0-1.428-.227-3.163-.885-4.947-1.794-4.868-1.392-6.875 1.426-10.276l-6.783-6.8s-4.355 4.056-9.903-.23c-5.512 4.286-9.905.23-9.905.23l-6.783 6.8c2.886 3.4 3.298 5.445 1.428 10.276-.695 1.789-.888 3.52-.888 4.946 0 2.084.82 4.274 2.082 5.56 1.99 2.033 3.285 2.397 6.743 2.782 2.776.31 5.513 1.163 7.323 3.209z" fill="url(#paint2_linear)"/><path d="M28.27 44c2.814-1.816 4.24-1.866 7.129-2.29 2.507-.37 4.148-.568 5.973-2.394 2.583-2.59 2.333-6.267.773-10.43-1.814-4.83-.212-7.65 1.308-9.582l-5.395-5.409s-4.239 3.36-9.787-.27c-5.55 3.63-9.79.27-9.79.27l-5.399 5.409c1.508 1.931 3.166 4.713 1.316 9.582-1.589 4.177-1.773 7.84.77 10.43 1.81 1.84 3.436 2.03 5.972 2.395 2.969.423 4.316.473 7.13 2.289z" fill="#fff"/><path d="M28.267 41.996c2.91-1.695 4.682-1.522 7.947-2.047 5.58-.9 5.24-5.8 4.886-7.705-.087-.47-.249-1.206-.38-1.607-.452-1.376-1.599-4.01-1.43-6.641h-22c.21 2.749-1.082 5.551-1.518 6.857-.097.292-.222.82-.289 1.135-.349 1.667-.983 6.987 4.834 7.962 3.484.584 5.038.351 7.95 2.046z" fill="#E20010"/><path d="M20.27 18h.973v1.978h1.006V18h1.022v5h-1.022v-2.14h-1.006V23h-.972v-5z" fill="url(#paint3_linear)"/><path d="M24.267 18h1.005v5h-1.005v-5z" fill="url(#paint4_linear)"/><path d="M37.99 17.92c1.36 0 1.461.878 1.443 1.565h-.946c-.004-1.073-1.034-.91-1.025-.244.004.37.666.76 1.215 1.103.492.31.831.81.845 1.356.009.479-.203 1.378-1.532 1.378-1.354 0-1.465-1.03-1.468-1.613h.906c0 1.193 1.097 1.05 1.107.27 0 0 .066-.364-.538-.735-.68-.414-1.449-.726-1.429-1.74 0-.278.058-1.34 1.422-1.34z" fill="url(#paint5_linear)"/><path d="M26.27 17.999h1.003V22h.998V23h-2v-5z" fill="url(#paint6_linear)"/><path d="M28.74 17.999h1.003V22h.997V23h-2v-5z" fill="url(#paint7_linear)"/><path fill-rule="evenodd" clip-rule="evenodd" d="M16.76 18.005V23h1.017v-1.63c.282-.01 1.942.16 1.981-1.599.053-1.951-1.63-1.766-1.981-1.766h-1.018zm1.017.751v1.79c.15 0 1.048.2 1.046-.914-.004-.989-.84-.876-1.046-.876z" fill="url(#paint8_linear)"/><path fill-rule="evenodd" clip-rule="evenodd" d="M33.27 18.004v4.995h1v-1.991c.287-.01 2 .188 2-1.473-.042-1.713-1.643-1.531-2-1.531h-1zm1 .751v1.44c.153 0 1.031.17 1.003-.8-.022-.745-.793-.64-1.002-.64z" fill="url(#paint9_linear)"/><path d="M31.27 17.999h1v5h-1v-5z" fill="url(#paint10_linear)"/><path fill-rule="evenodd" clip-rule="evenodd" d="M35.816 31.028c2.1.736 1.583 3.338.527 5.014-1.314 2.093-4.19 2.346-5.888 1.713-2.705-1.009-1.886-3.925-.999-6.332 1.275-3.461 3.75-5.098 6.986-4.05 1.731.556 1.992 2.138 1.819 2.626h-2.685s.043-1.206-.763-1.206c-1.234 0-2.032 2.552-2.032 2.552s1.182-.967 3.035-.317zM31.91 33.91c.344-.755.875-1.565 1.57-1.425.94.19.617 1.4.287 2.261-.33.868-.994 1.811-1.81 1.597-.757-.194-.442-1.564-.047-2.433zm-6.44-2.883c2.099.736 1.582 3.338.53 5.014-1.316 2.093-4.192 2.346-5.89 1.713-2.707-1.009-1.892-3.928-1-6.332 1.257-3.385 3.65-5.117 6.987-4.05 1.734.55 1.868 2.139 1.694 2.627h-2.52s.003-1.207-.802-1.207c-1.236 0-2.034 2.552-2.034 2.552s1.181-.967 3.034-.317zm-3.884 2.883c.347-.755.85-1.565 1.548-1.425.942.19.615 1.4.288 2.261-.332.868-.994 1.811-1.81 1.597-.76-.194-.42-1.564-.026-2.433z" fill="#fff"/><defs><linearGradient id="paint5_linear" x1="37.08" y1="18.814" x2="42.04" y2="22.127" gradientUnits="userSpaceOnUse"><stop stop-color="#1A1E21"/><stop offset="1" stop-color="#06060A"/></linearGradient><linearGradient id="paint0_linear" x1="10.418" y1="9.712" x2="68.147" y2="76.017" gradientUnits="userSpaceOnUse"><stop stop-color="#1A1E21"/><stop offset="1" stop-color="#06060A"/></linearGradient><linearGradient id="paint2_linear" x1="17.792" y1="18.059" x2="52.696" y2="57.641" gradientUnits="userSpaceOnUse"><stop stop-color="#1A1E21"/><stop offset="1" stop-color="#06060A"/></linearGradient><linearGradient id="paint3_linear" x1="20.829" y1="18.867" x2="25.692" y2="22.218" gradientUnits="userSpaceOnUse"><stop stop-color="#1A1E21"/><stop offset="1" stop-color="#06060A"/></linearGradient><linearGradient id="paint4_linear" x1="24.454" y1="18.867" x2="26.735" y2="19.394" gradientUnits="userSpaceOnUse"><stop stop-color="#1A1E21"/><stop offset="1" stop-color="#06060A"/></linearGradient><linearGradient id="paint1_linear" x1="10.418" y1="9.712" x2="68.147" y2="76.017" gradientUnits="userSpaceOnUse"><stop stop-color="#1A1E21"/><stop offset="1" stop-color="#06060A"/></linearGradient><linearGradient id="paint6_linear" x1="26.643" y1="18.866" x2="30.591" y2="20.68" gradientUnits="userSpaceOnUse"><stop stop-color="#1A1E21"/><stop offset="1" stop-color="#06060A"/></linearGradient><linearGradient id="paint7_linear" x1="29.112" y1="18.866" x2="33.06" y2="20.68" gradientUnits="userSpaceOnUse"><stop stop-color="#1A1E21"/><stop offset="1" stop-color="#06060A"/></linearGradient><linearGradient id="paint8_linear" x1="17.318" y1="18.867" x2="22.18" y2="22.218" gradientUnits="userSpaceOnUse"><stop stop-color="#1A1E21"/><stop offset="1" stop-color="#06060A"/></linearGradient><linearGradient id="paint9_linear" x1="33.829" y1="18.865" x2="38.692" y2="22.216" gradientUnits="userSpaceOnUse"><stop stop-color="#1A1E21"/><stop offset="1" stop-color="#06060A"/></linearGradient><linearGradient id="paint10_linear" x1="31.457" y1="18.866" x2="33.728" y2="19.388" gradientUnits="userSpaceOnUse"><stop stop-color="#1A1E21"/><stop offset="1" stop-color="#06060A"/></linearGradient></defs></svg>