<!-- by TradingView --><svg width="56" height="56" fill="none" xmlns="http://www.w3.org/2000/svg"><path fill="#0078B9" d="M0 0h56v56H0z"/><circle cx="28" cy="28" r="28" fill="#0078B9"/><path d="M24.422 20.15c.05-.321.213-.614.462-.825a1.37 1.37 0 01.89-.325h8.583c1.016 0 1.87.186 2.737.325.586.092 1.168.494 1.733.675.426.14.628-.042.993.15.106-.672.18-1.303.18-1.903.003-1.831-.52-3.344-1.635-4.608C36.732 11.79 33.785 11 30.013 11h-10.95c-.77 0-1.427.557-1.546 1.314L13.012 40.92a.928.928 0 00.213.753.94.94 0 00.715.328h6.76l1.641-10.581 2.08-11.27z" fill="#fff"/><path d="M39.849 19.892c-.033.208-.07.42-.112.638-1.444 7.366-6.385 9.911-12.694 9.911h-3.212c-.772 0-1.422.557-1.542 1.313l-1.645 10.364-.466 2.938a.811.811 0 00.468.869c.107.05.225.075.343.075h5.698c.675 0 1.248-.487 1.354-1.148l.056-.288 1.005-7.042.069-.371c.105-.664.679-1.151 1.354-1.151h.852c5.52 0 10.158-1.926 11.42-8.37.528-2.692.007-4.962-1.389-6.543a5.444 5.444 0 00-1.56-1.195z" fill="#ADCFE5"/><path d="M38.33 19.5c-.461-.133-.93-.236-1.404-.31a17.956 17.956 0 00-2.832-.205h-8.582c-.327 0-.643.116-.891.327a1.357 1.357 0 00-.462.824L22.34 31.419l-.053.335c.057-.366.244-.7.527-.94.283-.24.643-.373 1.015-.373h3.213c6.31 0 11.25-2.546 12.693-9.91.044-.219.08-.431.112-.639-.38-.198-.786-.159-1.195-.291a10.422 10.422 0 00-.323-.101z" fill="#E6EFF6"/></svg>