<!-- by TradingView --><svg width="56" height="56" fill="none" xmlns="http://www.w3.org/2000/svg"><path fill="#08090D" d="M0 0h56v56H0z"/><circle cx="28" cy="28" r="28" fill="#08090D"/><path d="M39.202 30.098c-.503-.206-.726-.761-.5-1.239l2.038-4.289c.227-.477.818-.698 1.32-.491.502.207.726.761.5 1.239l-2.039 4.29c-.226.478-.817.696-1.32.49zM34.445 24.079c.502-.207 1.093.012 1.32.49l3.377 7.11a.914.914 0 01-.494 1.245c-.503.207-1.1-.018-1.326-.495l-3.377-7.111c-.226-.478-.003-1.032.5-1.24zM28.5 24c2.175 0 3.93 1.471 4.281 3.403a.854.854 0 01.018.177c0 .508-.442.92-.988.92-.491 0-.9-.334-.976-.772-.186-1.07-1.133-1.887-2.335-1.887-1.334 0-2.5 1.008-2.5 2.25v3.989c0 .508-.454.92-1 .92s-1-.412-1-.92V28.09C24 25.831 26.074 24 28.5 24zM18.5 32.99c2.485 0 4.5-1.917 4.5-4.283v-.42c0-.45-.085-.911-.22-1.317l-.006-.02a1.008 1.008 0 00-.962-.665c-.559 0-1.012.432-1.012.964 0 .099.044.284.044.284.078.228.156.5.156.753v.42c0 1.302-1.133 2.357-2.5 2.357-1.366 0-2.5-1.055-2.5-2.356v-.42c0-1.303 1.134-2.358 2.5-2.358.43 0 .835.105 1.187.289.147.08.318.125.5.125.559 0 1.011-.431 1.011-.964a.958.958 0 00-.527-.847 4.655 4.655 0 00-2.171-.531c-2.485 0-4.5 1.918-4.5 4.285v.42c0 2.367 2.015 4.285 4.5 4.285zM47.5 23.91c-2.485 0-4.5 1.919-4.5 4.284v.52c0 .45.085.911.22 1.317l.006.02c.131.386.512.665.962.665.559 0 1.012-.432 1.012-.964 0-.099-.044-.284-.044-.284-.078-.228-.156-.5-.156-.753v-.52c0-1.302 1.133-2.357 2.5-2.357 1.366 0 2.5 1.055 2.5 2.357v.52c0 1.302-1.134 2.357-2.5 2.357-.43 0-.835-.105-1.187-.289a1.044 1.044 0 00-.5-.125c-.559 0-1.011.431-1.012.964 0 .365.213.683.528.847A4.655 4.655 0 0047.5 33c2.485 0 4.5-1.919 4.5-4.285v-.52c0-2.366-2.015-4.284-4.5-4.284zM8.97 31.243c1.531-.011 2.998.732 3.834 2.004a.943.943 0 01.09.163c.213.491-.03 1.056-.546 1.26a1.035 1.035 0 01-1.247-.387c-.462-.71-1.28-1.124-2.131-1.112h-.517C5.991 33.154 4 31.243 4 28.887v-.6c0-2.366 2.022-4.285 4.5-4.285 2.477 0 4.5 1.919 4.5 4.285v2.264c0 .532-.442.965-1 .965s-1-.431-1-.964v-2.265c0-1.302-1.138-2.356-2.5-2.356S6 26.985 6 28.287v.6c0 1.291 1.107 2.34 2.455 2.356h.515z" fill="#fff"/></svg>