<!-- by TradingView --><svg width="56" height="56" fill="none" xmlns="http://www.w3.org/2000/svg"><path fill="#EE3524" d="M0 0h56v56H0z"/><circle cx="28" cy="28" r="28" fill="#EE3524"/><path d="M19.515 16s.465 25.327.485 26.145c.008.373-.258.836-1.005.854-.608.016-1.018-.351-.994-.854.039-.789.506-26.145.506-26.145h1.008zM27.27 15c-2.52 0-5.217 1.585-6.27 2.255l.646 12.159c.992-.861 2.817-2.894 5.94-2.894 2.66 0 3.766 1.937 6.7 1.937 3.113 0 4.45-3.208 8.239-3.208 2.218 0 3.85.58 4.342.734-1.395-1.609-3.763-2.643-5.818-2.846 1.565-1.158 3.444-1.486 5.187-1.296-1.09-.802-3.153-2.252-6.188-2.252-2.105 0-3.091.772-4.922.772C31.18 20.361 31.99 15 27.27 15z" fill="#fff"/></svg>