<!-- by TradingView --><svg width="56" height="56" fill="none" xmlns="http://www.w3.org/2000/svg"><path fill="url(#paint0_linear)" d="M0 0h56v56H0z"/><circle cx="28" cy="28" r="28" fill="url(#paint1_linear)"/><path fill-rule="evenodd" clip-rule="evenodd" d="M7 28l20.868-11L49 28 27.868 39 7 28z" fill="#C64A4C"/><path fill-rule="evenodd" clip-rule="evenodd" d="M24.39 31h3.077v-1.162h-1.9V25H24.39v6zm3.5 0H31v-1.162h-2V25h-1.11v6zm3.498 0h1.221v-6h-1.221v6zm2.096 0h1.191l-.105-4.08L36.575 31H38v-6h-1.32l.107 4.096L34.78 25h-1.297v6zm5.806-1.855l-.95.63c.452.774 1.252 1.209 2.337 1.209 1.463 0 2.323-.807 2.323-1.968 0-.726-.272-1.129-.89-1.42-.196-.096-.588-.16-1.207-.257-.693-.113-1.04-.21-1.04-.613 0-.355.301-.613.799-.613.513 0 .936.226 1.342.71l.92-.758c-.543-.71-1.312-1.065-2.292-1.065-1.252 0-2.066.774-2.066 1.904 0 .903.497 1.386 1.598 1.58.996.177 1.493.177 1.493.726 0 .37-.361.661-.95.661-.603 0-1.085-.242-1.417-.726zM14 28.742V31h1.252v-2.162h.83L17.091 31h1.402l-1.086-2.258-.09-.178c.693-.274 1.07-.822 1.07-1.645 0-1.21-.724-1.919-2.171-1.919H14v3.742zm6.063 0a3.66 3.66 0 01-.076-.726c0-1.145.498-1.807 1.267-1.807.784 0 1.267.662 1.267 1.807 0 .258-.03.516-.076.726-.166.677-.588 1.048-1.191 1.048-.588 0-1.01-.371-1.191-1.048zm3.68 0c.03-.226.06-.484.06-.726 0-1-.287-1.79-.845-2.339A2.386 2.386 0 0021.254 25a2.35 2.35 0 00-1.69.677c-.557.549-.843 1.339-.843 2.339 0 .242.015.5.045.726.24 1.403 1.176 2.258 2.488 2.258 1.327 0 2.247-.855 2.488-2.258zm-8.491-2.549h.89c.678 0 .98.161.98.806 0 .597-.317.79-.98.79h-.89v-1.596z" fill="#fff"/><defs><linearGradient id="paint0_linear" x1="10.418" y1="9.712" x2="68.147" y2="76.017" gradientUnits="userSpaceOnUse"><stop stop-color="#1A1E21"/><stop offset="1" stop-color="#06060A"/></linearGradient><linearGradient id="paint1_linear" x1="10.418" y1="9.712" x2="68.147" y2="76.017" gradientUnits="userSpaceOnUse"><stop stop-color="#1A1E21"/><stop offset="1" stop-color="#06060A"/></linearGradient></defs></svg>