<!-- by TradingView --><svg width="56" height="56" fill="none" xmlns="http://www.w3.org/2000/svg"><path fill="#0073B0" d="M0 0h56v56H0z"/><circle cx="28" cy="28" r="28" fill="#0073B0"/><path fill="#fff" d="M25 25h2v13h-2z"/><path fill-rule="evenodd" clip-rule="evenodd" d="M12 25v6.004h2v-3.996h2.293c.5 0 .549.46.307.632l-1.489 1.084 1.338 2.28h2.367l-1.417-2.28h-.02l.413-.354.006-.005c.502-.342.756-.69.756-1.256v-.1c0-.944-.869-2.002-1.943-2.009H12zM38 25v6.004h2v-3.996h2.293c.5 0 .549.46.307.632l-1.489 1.084 1.338 2.28h2.367l-1.417-2.28h-.02l.413-.354.006-.005c.502-.342.756-.69.756-1.256v-.1c0-.944-.869-2.002-1.943-2.009H38z" fill="#fff"/><circle cx="28.726" cy="28.258" r="2.507" stroke="#fff" stroke-width="1.7"/><circle cx="21.787" cy="28.143" r="2.507" stroke="#fff" stroke-width="1.7"/><path fill-rule="evenodd" clip-rule="evenodd" d="M35 29.915c.649 0 1.21-.372 1.483-.915h1.792a3.358 3.358 0 11-.16-2H36.08a1.657 1.657 0 00-2.548.488H36V29h-2.482c.272.543.834.915 1.482.915z" fill="#fff"/><rect x="7" y="19" width="42" height="18" rx="3" stroke="#fff" stroke-width="2"/></svg>