<!-- by TradingView --><svg width="56" height="56" fill="none" xmlns="http://www.w3.org/2000/svg"><path fill="#008996" d="M0 0h56v56H0z"/><path d="M12.153 28c0-.373.003-.902.265-1.197.315-.342.765-.381 1.2-.381.297 0 .74 0 1.076.264.086.07.374.32.374.787 0 .093 0 .527-.327.527h-2.588zm3.289 1c.25 0 .413-.055.546-.187.226-.218.241-.522.241-.786 0-.857-.273-1.722-.787-2.065-.499-.311-1.153-.342-1.777-.342-.498 0-1.426 0-2.01.498-.585.506-.632 1.222-.632 2.25 0 .709.032 1.449.382 1.962.429.616 1.06.67 1.629.67h2.159c.569 0 .752-.79.807-1h-2.603c-.452 0-1.06.063-1.169-.357a1.996 1.996 0 01-.075-.643h3.289zM8.597 27.314l-2.65-.841c-.63-.218-.716-.367-.716-.687 0-.1 0-.412.21-.607.18-.171.398-.179.616-.179h3.64c-.008-.132-.055-.502-.281-.735-.172-.172-.413-.265-.717-.265h-3.11c-.373 0-.794.047-1.145.39-.39.365-.444.864-.444 1.3 0 .389.039.798.358 1.164.257.335.725.499.826.514l2.86.903c.663.203.748.611.748.915 0 .56-.25.814-.748.814H4c-.008.125-.016.463.179.696.171.203.444.304.826.304H8.48c.452 0 .889-.039 1.247-.49.312-.398.351-.97.351-1.343 0-.273-.039-.67-.21-1.02-.172-.374-.522-.607-1.255-.841l-.016.008zM20.924 29.848c0 .21-.218.35-.413.35h-1.69a.648.648 0 01-.437-.187c-.164-.163-.254-.456-.254-.659 0-.444.176-.579.215-.625.101-.133.28-.21.49-.21h2.082l.007 1.33zM18.12 25.65c-.514 0-.623.607-.64.81h2.635c.203 0 .452.03.639.264a.862.862 0 01.171.553v.444h-2.447c-.296 0-.706.018-1.033.299-.413.358-.444 1.043-.444 1.48 0 .482.121.9.519 1.25.288.25.639.25.888.25h2.681c.265 0 .538-.024.71-.203.202-.203.202-.545.202-.662v-2.842c0-.553-.14-1.005-.39-1.246-.25-.257-.654-.405-1.099-.405l-2.392.008zM51.15 25.627c-.459 0-1.13.047-1.605.46-.483.42-.545 1.051-.545 1.55V31c.023 0 .047.008.078.008h.296c.35-.031.626-.203.626-.755v-2.297c0-.398.039-.81.296-1.114.304-.358.831-.405 1.174-.405H52v-.81h-.849zM25.963 28c0-.416-.03-.864.265-1.197.315-.342.765-.381 1.2-.381.297 0 .74 0 1.076.264.086.07.362.314.362.933 0 .093 0 .381-.335.381h-2.567zm3.25.664c.25 0 .413-.054.546-.187.226-.218.241-.521.241-.786 0-.857-.234-1.386-.748-1.729-.499-.311-1.153-.342-1.777-.342-.498 0-1.426 0-2.01.498-.585.506-.631 1.222-.631 2.25 0 .709.03 1.449.381 1.962.429.616 1.06.67 1.63.67h2.158c.569 0 .756-.79.802-1h-2.602c-.452 0-.99-.078-1.17-.7a1.998 1.998 0 01-.077-.644l3.257.008zM40.892 28.439l1.24-3.154c.062-.179.14-.343.264-.343.125 0 .203.164.265.343l1.005 2.57c-.748.404-1.987.552-2.782.584h.008zm2.642-3.863c-.25-.584-.53-.778-1.13-.778-.616 0-.88.179-1.13.779L38.578 31h1.301l.647-1.62.031-.077c.53-.008 2.268-.07 3.437-.646l.288.74.655 1.603h1.301l-2.696-6.424h-.008zM23.008 31H24v-7h-.306c-.523 0-.655.576-.694.825L23.008 31zM35 29.47c0 .156-.016.343-.117.429-.062.07-.278.101-.45.101h-.974c-.21 0-.865 0-1.16-.662-.102-.226-.149-.448-.149-1.055 0-.631.078-1.052.25-1.316.21-.35.56-.514 1.067-.514H35v3.018zm0-3.827h-1.782c-.538 0-1.31.086-1.793.786-.366.53-.497 1.503-.497 2.064 0 1.236.671 2.507 2.04 2.507h2.167c.265 0 .538-.031.71-.257.108-.14.155-.428.155-.646V24h-.397c-.523 0-.603.5-.603.825v.818zM47 26.5V31h1v-5.154a5.234 5.234 0 01-1 .654zM47 24.695v1.25l1-.682v-.56h-1v-.008z" fill="#fff"/></svg>