<!-- by TradingView --><svg width="56" height="56" fill="none" xmlns="http://www.w3.org/2000/svg"><path fill="#0067B1" d="M0 0h56v56H0z"/><circle cx="28" cy="28" r="28" fill="#0067B1"/><path d="M12.396 20c-1.346 0-2.918.555-2.918 2.12 0 1.02.778 1.412 1.53 1.79.616.31 1.197.603 1.197 1.223 0 .817-.796 1.182-1.585 1.182-.7 0-1.355-.241-1.921-.475l-.374 1.113c.785.252 1.527.384 2.203.384.97 0 3.227-.229 3.227-2.348 0-1.105-.855-1.559-1.61-1.96-.575-.305-1.117-.593-1.117-1.125 0-.61.704-.882 1.402-.882.53 0 1.114.133 1.62.355.033-.1.313-.98.343-1.075-.566-.198-1.235-.302-1.997-.302zM15.293 21.998h1.255L16.02 24h2.53l.528-2.002h1.256l-1.31 5.021h-1.255L18.342 25h-2.529l-.574 2.02h-1.256l1.31-5.022zM21.403 21.998h3.686L24.782 23h-2.331l-.323 1h2.189l-.288 1h-2.107l-.326 1h2.433l-.336 1.02h-3.61l1.319-5.022zM26.884 24h.458c.672 0 1.472.09 1.472-.572 0-.525-.549-.428-1.06-.428h-.52l-.35 1zm-.717-2.002h1.48c1.157 0 2.493-.014 2.493 1.187 0 .863-.808 1.323-1.83 1.338v.014c.341.014.556.187.638.46l.6 2.022h-1.319l-.304-1.18c-.144-.532-.108-.839-.79-.839h-.475l-.547 2.02h-1.255l1.31-5.022zM30.861 21.998h1.256l.188 3.848h.018l2.08-3.848h1.687l.026 3.848h.019l2.214-3.848h1.301l-2.987 5.021h-1.57l-.062-4.014h-.017l-2.207 4.014h-1.551l-.395-5.021zM40.34 21.998h1.31l-1.318 5.021h-1.31l1.319-5.021zM42.807 21.998h1.588l1.336 3.813h.018l1.023-3.813h1.184L46.6 27.019h-1.614l-1.31-3.848h-.018l-.995 3.848h-1.202l1.345-5.021zM14.267 34.326l-.116-.018L14.12 29h-1.924l-2.464 5.325-.116-.015L9.394 29H8l.464 7h1.767l2.612-5.785.116.017.074 5.768h1.786c.026-.052 3.448-6.876 3.509-7h-1.439l-2.622 5.326zM18.32 31h1.219l-1.228 5h-1.22l1.228-5zM20.622 31h1.17l-1.044 4h2.287l-.28 1h-3.369l1.236-5zM24.798 31h1.17l-1.044 4h2.288l-.252 1h-3.398l1.236-5zM28.915 31h1.219l-1.228 5h-1.218l1.227-5zM32.07 34.007h1.804l-.367-2.148h-.034l-1.403 2.148zM33.048 31h1.294l1.06 5h-1.168l-.201-1h-2.48l-.743 1h-1.295l3.533-5zM37.267 31h1.93l.392 3.537h.017L41.902 31h1.946l-1.244 5h-1.237l1.102-4.17h-.016L39.814 36h-1.119l-.467-4.17h-.017L37.143 36H36.03l1.236-5zM47.725 31.93a3.174 3.174 0 00-1.211-.255c-.417 0-.977.141-.977.565 0 .792 1.987.742 1.987 2.114 0 1.208-1.119 1.646-2.397 1.646a5.736 5.736 0 01-1.66-.275l.3-.842c.45.177.926.34 1.427.34.56 0 1.111-.24 1.111-.77 0-.891-1.987-.75-1.987-2.065 0-1.038 1.052-1.49 2.17-1.49.51 0 1.036.056 1.512.219l-.275.812z" fill="#fff"/></svg>