<!-- by TradingView --><svg width="56" height="56" fill="none" xmlns="http://www.w3.org/2000/svg"><path fill="url(#paint0_linear)" d="M0 0h56v56H0z"/><circle cx="28" cy="28" r="28" fill="url(#paint1_linear)"/><path d="M28 21.31c-7.633 0-15.027 1.507-23.227 5.972l.85 1.626a2.314 2.314 0 00-1.308 2.096c0 1.284 1.052 2.324 2.35 2.324.425 0 .823-.135 1.167-.33l.872 1.585c7.457-3.87 13.216-4.957 19.296-4.957s11.84 1.087 19.296 4.957l.873-1.584c.343.194.742.33 1.166.33 1.298 0 2.35-1.041 2.35-2.325 0-.92-.523-1.72-1.307-2.096l.85-1.626c-8.2-4.465-15.595-5.971-23.228-5.971z" fill="#fff"/><path fill-rule="evenodd" clip-rule="evenodd" d="M47.424 35l.875-1.588a2.58 2.58 0 001.035.227c1.472 0 2.666-1.18 2.666-2.635 0-.925-.47-1.747-1.204-2.219l.852-1.629-.269-.146C43.13 22.517 35.682 21 28 21c-7.681 0-15.128 1.517-23.379 6.01l-.268.146.852 1.63A2.627 2.627 0 004 31.003c0 1.455 1.193 2.635 2.665 2.635.374 0 .724-.09 1.036-.227L8.576 35l.274-.142c7.41-3.845 13.12-4.921 19.15-4.921 6.03 0 11.739 1.075 19.15 4.92l.274.143zm-38.592-.834l-.878-1.595-.28.158a2.063 2.063 0 01-1.009.288 2.025 2.025 0 01-2.036-2.013c0-.8.455-1.492 1.13-1.816l.29-.14-.857-1.639C13.235 23.084 20.5 21.622 28 21.622c7.5 0 14.764 1.462 22.807 5.787l-.857 1.64.29.139a2.003 2.003 0 011.131 1.816 2.025 2.025 0 01-2.037 2.013c-.356 0-.7-.114-1.01-.288l-.278-.158-.879 1.595c-7.37-3.778-13.112-4.85-19.167-4.85-6.055 0-11.797 1.072-19.168 4.85z" fill="#EF3E42"/><path d="M6.27 31.004c0-.216.177-.39.396-.39.218 0 .395.174.395.39 0 .216-.177.39-.395.39a.393.393 0 01-.396-.39zM48.94 31.004c0-.216.176-.39.395-.39.218 0 .395.174.395.39 0 .216-.177.39-.395.39a.393.393 0 01-.395-.39z" fill="#EF3E42"/><path d="M10.859 26.394l.681 1.52-.629.276c-.165-.347-.402-.55-.786-.604-.49-.07-1.416.518-1.293.898.125.388.314.45.646.45.71 0 1.137-.09 1.818-.122.75-.034 1.203.662 1.24 1.382.053 1.019-1.747 1.744-2.411 1.693-.707-.056-1.1-.415-1.433-1.106l.752-.363c.157.277.38.636.786.657.332.017 1.38-.276 1.258-.881-.054-.266-.088-.535-.507-.484-.662.082-1.015.092-1.712.139-1.031.069-1.433-.709-1.433-1.417 0-.863 1.258-1.571 2.15-1.554.108.002.17.005.279.017l.035-.259.559-.242zM12.172 25.882l1.937-.61 1.52 2.193.018-2.643 1.795-.485.231.727s-.524.035-.296.588l.96 2.037c.245.467.734.277.734.277l.192.777-1.957.518-.21-.725s.595-.208.385-.674l-.996-1.934.035 3.557-.611.156-1.905-2.936.14 2.124c.052.501.768.346.768.346l.21.725-1.8.64-.279-.726s.35-.138.332-.501l-.262-2.383c-.07-.64-.682-.398-.682-.398l-.259-.65zM18.53 24.08l1.834-.38.105.69s-.49-.034-.314.674l.49 2.194c.104.362.502.425.942.362.368-.052.682-.276.63-.587l-.35-2.504c-.052-.38-.489-.328-.489-.328l-.124-.666 1.791-.268.104.74s-.46-.048-.338.625l.28 2.004c.122.812-.105 1.52-1.276 1.744-1.225.235-1.888-.138-2.08-.915l-.541-2.332c-.105-.466-.542-.397-.542-.397l-.122-.656zM27.843 23.06l-.035 1.78-.786-.017c.016-.562-.297-1.055-1.013-1.037-.682.018-1.031.311-.996.881l.07 1.693c.035.621.493.83.995.811.41-.014.84-.086.857-.604l.052-.64h.926l-.035.847C27.808 27.793 26.9 28 26.044 28c-1.433 0-1.957-.708-1.992-2.245v-1.382c0-1.036.943-1.433 1.992-1.433.428 0 .691.093 1.048.328l.105-.224.646.017zM28.663 23.061l1.957.07-.034.725s-.455-.018-.49.38c0 0-.052.673.07.794.227.017 1.17-.691 1.17-.691.263-.19.263-.449-.034-.483l.017-.674 2.114.155-.07.76s-.261-.12-.838.26l-1.031.76.891 1.64c.35.552.717.57.717.57l-.07.708-1.433-.103c.052-.864-.192-1.14-.192-1.14l-.717-1.123c-.332.104-.646.449-.646.449-.105.345-.035.587-.035.587 0 .415.472.397.472.397l-.018.726-1.957-.052-.035-.69s.56.016.594-.519l.07-2.366c-.017-.345-.472-.363-.472-.363v-.777zM34.36 23.493l3.897.673-.367 1.59-.647-.122c.088-.414.053-.898-.803-1.036l-.594-.069s-.262.017-.315.293l-.07.432a.332.332 0 00.245.415l1.1.172-.157.795-1.048-.172s-.314-.053-.385.276l-.07.432s0 .448.333.5l.524.087c.384.069.786-.121.908-.691l.664.138-.349 1.606-3.652-.656.14-.777s.524.103.594-.346l.332-2.504c.035-.328-.402-.397-.402-.397l.122-.64zM44 24.914l1.082.453c-.192.76-.77 1.38-.937 1.483.02 0-.354-.186-.354-.186l.187-.412c.271-.658-.27-.638-.27-.638l.291-.7zM48.431 27.78l-.73 1.498-.62-.294c.16-.35.164-.659-.043-.983-.264-.413-1.316-.73-1.53-.391-.217.345-.142.527.073.777.46.535.788.813 1.27 1.29.492.483.27 1.333-.26 1.828-.75.7-2.475-.185-2.865-.718-.416-.567-.394-1.097-.077-1.794l.766.33c-.111.297-.243.698.004 1.017.202.26 1.107.86 1.494.376.17-.213.355-.413.044-.695-.493-.445-.729-.704-1.217-1.199-.72-.73-.383-1.537.163-1.995.665-.56 2.025-.072 2.59.61.069.083.108.13.167.221l.222-.141.55.264z" fill="#231F20"/><path fill-rule="evenodd" clip-rule="evenodd" d="M42.1 25.203l-2.813-.795-.174.726s.471.017.28.777l-.525 1.9c-.21.604-.647.397-.647.397l-.192.76 1.73.535.28-.742s-.49-.156-.35-.622l.07-.311c.053-.155.168-.292.315-.242 1.31.45 1.013 2.366 1.013 2.366l1.188.432.315-.691s-.35-.086-.49-.552l-.436-1.227c.83.03 1.345-.293 1.433-1.554.04-.591-.421-.99-.996-1.157zm-1.547.543c-.126.093-.361.746-.33 1.026.095.109.818.28.818.28l.094.022c.37.088.692.165.834-.333.141-.497-.08-.668-.472-.793 0 0-.802-.28-.944-.202z" fill="#231F20"/><defs><linearGradient id="paint0_linear" x1="10.418" y1="9.712" x2="68.147" y2="76.017" gradientUnits="userSpaceOnUse"><stop stop-color="#1A1E21"/><stop offset="1" stop-color="#06060A"/></linearGradient><linearGradient id="paint1_linear" x1="10.418" y1="9.712" x2="68.147" y2="76.017" gradientUnits="userSpaceOnUse"><stop stop-color="#1A1E21"/><stop offset="1" stop-color="#06060A"/></linearGradient></defs></svg>