<!-- by TradingView --><svg width="56" height="56" fill="none" xmlns="http://www.w3.org/2000/svg"><path fill="#593988" d="M0 0h56v56H0z"/><circle cx="28" cy="28" r="28" fill="#593988"/><path d="M7.417 24.1c0-.31-.094-.543-.834-.543s-.907.232-.907.542v.841c0 .255.092.51.355.72l2.512 1.993c.36.277.573.62.573.976v1.261c0 .753-.958 1.175-2.533 1.174C4.836 31.064 4 30.699 4 29.89V29h1.58v.846c0 .377.31.598 1.003.598.643 0 .957-.221.957-.598v-1.119c0-.276-.121-.486-.455-.763l-2.32-1.872c-.43-.343-.669-.61-.669-1.018v-.964c0-.787.887-1.174 2.487-1.174 1.768 0 2.414.387 2.414 1.12V25h-1.58v-.9zM23 24.288c0-.787.611-1.352 2.738-1.352 2.128 0 2.771.565 2.771 1.352v5.426c0 .786-.643 1.35-2.77 1.35-2.128 0-2.739-.564-2.739-1.35v-5.426zm1.543 5.404c0 .442.188.752 1.195.752 1.003 0 1.262-.31 1.262-.752V24.31c0-.443-.259-.753-1.262-.753-1.002 0-1.195.31-1.195.753v5.382zM29.385 23.003h2.507c2.036 0 2.634.31 2.634 1.219v1.96c0 .908-.598 1.218-2.634 1.218H31v3.598h-1.615v-7.995zm2.34 3.776c.72 0 1.275-.089 1.275-.498v-2.16c0-.41-.556-.497-1.275-.497H31v3.155h.725zM38.467 24.1c0-.31-.167-.543-.912-.543-.74 0-.907.232-.907.543v.841c0 .255.096.51.36.72l2.512 1.993c.355.277.48.62.48.974v1.262c0 .754-.865 1.175-2.445 1.175-1.742 0-2.555-.366-2.555-1.175V29h1.552v.847c0 .376.314.597 1.003.597.648 0 .957-.221.957-.597v-1.119c0-.276-.116-.487-.45-.763l-2.32-1.872c-.43-.343-.742-.61-.742-1.02v-.962c0-.787.954-1.175 2.555-1.175 1.773 0 2.445.389 2.445 1.12V25h-1.533v-.9zM50.374 24.1c0-.31-.167-.543-.907-.543-.744 0-.911.232-.911.543v.841c0 .255.096.51.36.72l2.512 1.993c.354.277.572.62.572.974v1.264c0 .752-.957 1.173-2.538 1.173-1.742 0-2.462-.366-2.462-1.175V29h1.46v.847c0 .376.314.597 1.002.597.649 0 .958-.221.958-.597v-1.119c0-.276-.117-.487-.451-.763l-2.32-1.872c-.43-.343-.649-.61-.649-1.018v-.964c0-.787.862-1.175 2.468-1.175 1.767.002 2.532.389 2.532 1.12V25h-1.626v-.9zM14.383 23.003h1.58l-3.459 10.038h-1.58l3.46-10.038zM11.506 29.22L9.37 23.003h1.58l1.347 3.92-.79 2.297zM45.218 23.003h1.58L43.34 33.041h-1.58l3.46-10.038zM42.473 29.22l-2.137-6.217h1.58l1.347 3.92-.79 2.298zM22 30.998v-6.775c0-.907-.597-1.223-2.633-1.223l-3.044.005V31H18v-7.375h1.2c.719 0 1.22.089 1.22.499v6.874H22z" fill="#fff"/></svg>