<!-- by TradingView --><svg width="56" height="56" fill="none" xmlns="http://www.w3.org/2000/svg"><path fill="#4D89C2" d="M0 0h56v56H0z"/><circle cx="28" cy="28" r="28" fill="#4D89C2"/><path fill-rule="evenodd" clip-rule="evenodd" d="M23.657 18.821c-.98.553-2.09 1.18-3.918 1.18H12v-2h7.74c1.29 0 1.993-.395 2.96-.936l.236-.132c1.161-.645 2.55-1.314 5.058-1.3 2.48.015 4.064.669 5.285 1.308.252.132.465.25.658.356.297.163.547.301.823.428.405.185.732.275 1.076.275H44v2h-8.164c-.73 0-1.352-.202-1.908-.457a17.104 17.104 0 01-1.055-.549c-.182-.099-.358-.196-.522-.281-1.026-.538-2.294-1.068-4.369-1.08-2.049-.011-3.095.504-4.074 1.048l-.25.14z" fill="#fff"/><path fill-rule="evenodd" clip-rule="evenodd" d="M22.002 22.937c-.985.511-2.048 1.063-3.738 1.063H12v-2h6.264c1.177 0 1.809-.324 2.765-.814.181-.093.374-.192.585-.296 1.357-.67 3.094-1.317 6.374-1.317 3.031 0 4.92.648 6.33 1.308.328.153.627.306.894.443l.035.017c.283.145.521.266.748.367.447.2.78.292 1.117.292H44v2h-6.888c-.736 0-1.364-.211-1.934-.466-.281-.126-.565-.27-.84-.411l-.027-.014a26.865 26.865 0 00-.841-.417c-1.182-.553-2.783-1.12-5.482-1.12-2.95 0-4.386.567-5.49 1.111-.165.082-.33.167-.496.254z" fill="#fff"/><path fill-rule="evenodd" clip-rule="evenodd" d="M19.914 27.558c-.713.275-1.533.442-2.68.442H12v-2h5.234c.934 0 1.506-.133 1.958-.308.336-.13.592-.27.916-.447.18-.099.381-.21.629-.336 1.345-.687 3.157-1.31 7.25-1.31 3.921 0 5.94.623 7.37 1.296.409.192.73.362 1.006.507.73.385 1.134.598 1.956.598H44v2h-5.681c-1.358 0-2.284-.494-3.135-.948-.229-.122-.453-.241-.678-.347-1.121-.528-2.84-1.106-6.518-1.106-3.853 0-5.337.578-6.341 1.091-.137.07-.285.151-.442.236-.39.213-.832.455-1.291.632z" fill="#fff"/><path fill-rule="evenodd" clip-rule="evenodd" d="M19.259 31.545c-.662.29-1.433.455-2.575.455H12v-2h4.684c.932 0 1.418-.131 1.772-.287.192-.084.37-.185.593-.32l.113-.07c.193-.116.422-.256.678-.393 1.322-.704 3.3-1.305 8.148-1.305 4.265 0 6.377.612 7.88 1.272.37.163.677.312.95.444.843.41 1.356.66 2.425.66H44v2h-4.757c-1.566 0-2.539-.479-3.469-.936-.236-.116-.47-.231-.71-.337-1.201-.527-3.029-1.103-7.076-1.103-4.701 0-6.3.587-7.207 1.07-.201.108-.373.212-.564.328l-.134.082a6.967 6.967 0 01-.824.44z" fill="#fff"/><path fill-rule="evenodd" clip-rule="evenodd" d="M18.348 35.594c-.894.257-2.075.406-3.927.406H12v-2h2.42c1.76 0 2.734-.144 3.377-.328.505-.145.819-.312 1.238-.535.116-.063.24-.129.38-.2 1.344-.692 3.114-1.285 8.573-1.285 4.99 0 6.92.6 8.39 1.262.193.087.364.168.523.243.442.208.795.374 1.279.517.627.186 1.483.326 2.915.326H44v2h-2.905c-1.564 0-2.621-.153-3.483-.408-.643-.19-1.178-.442-1.653-.667-.139-.066-.273-.129-.403-.187-1.136-.512-2.764-1.086-7.568-1.086-5.319 0-6.721.58-7.66 1.063l-.287.152c-.441.238-.966.52-1.693.727z" fill="#fff"/><path fill-rule="evenodd" clip-rule="evenodd" d="M17.581 39.575c-.833.274-1.972.425-3.857.425H12v-2h1.723c1.81 0 2.7-.15 3.232-.325.374-.123.565-.244.853-.427.139-.088.3-.19.515-.314 1.288-.743 3.243-1.334 9.665-1.334 6.16 0 8.238.6 9.649 1.306.249.125.441.23.61.324.33.182.572.315.97.443.559.18 1.41.327 3.04.327H44v2h-1.743c-1.733 0-2.817-.153-3.653-.423-.588-.19-1.074-.456-1.475-.676-.14-.076-.269-.147-.388-.207-.984-.493-2.679-1.094-8.753-1.094-6.39 0-7.872.609-8.666 1.066-.087.05-.182.11-.288.178-.355.226-.827.524-1.453.73z" fill="#fff"/></svg>