<!-- by TradingView --><svg width="56" height="56" fill="none" xmlns="http://www.w3.org/2000/svg"><path fill="#0C4585" d="M0 0h56v56H0z"/><circle cx="28" cy="28" r="28" fill="#0C4585"/><path d="M51.854 26.993c-.106-.476-.333-.691-1.095-.691h-.354v3.768c0 .601.165.784.72.784V31h-2.307v-.146c.54 0 .709-.183.709-.784v-3.768h-.355c-.758 0-.91.215-1.013.691h-.155V26H52v.993h-.146zM44 31v-.146c.54 0 .595-.183.595-.784v-3.148c0-.607-.055-.787-.595-.787V26h3.59v1h-.149c-.105-.476-.323-.698-1.083-.698h-.44c-.383 0-.467.2-.467.638v1.316h.8c.418 0 .551-.22.605-.532H47v1.478h-.145c-.054-.304-.188-.55-.605-.55h-.8v1.468c0 .524.06.566.467.566h.87c.615 0 1.011-.28 1.07-.686h.146v1H44zm-5.486 0l-1.577-2.566c.712-.034 1.358-.367 1.358-1.089 0-.76-.48-1.043-1.106-1.043-.44 0-.542.062-.542.517v3.234c0 .6.176.8.719.8V31H35.06v-.146c.542 0 .72-.201.72-.8V26.91c0-.408-.01-.776-.563-.776V26h1.971c1.013 0 1.992.23 1.992 1.263 0 .897-.77 1.238-1.232 1.328l1.033 1.544c.292.47.407.719.814.719.48 0 .596-.256.596-.794V26.92c0-.606-.18-.786-.723-.786V26h3.727v1h-.16c-.101-.476-.31-.698-1.08-.698h-.44c-.39 0-.47.2-.47.638v1.315h1c.419 0 .554-.219.618-.531h.135v1.478h-.135c-.051-.304-.2-.551-.619-.551h-.999v1.469c0 .524.064.566.47.566h.709c.613 0 .935-.28 1.012-.686h.146v1h-5.07zm-3.629-4c-.108-.476-.325-.698-1.086-.698h-.355v3.76c0 .601.168.784.708.784v.158H31.85v-.158c.55 0 .72-.183.72-.784v-3.76h-.357c-.76 0-.992.222-1.095.698H31v-1h4v1h-.115zm-6.247 4.315c-.754 0-1.302-.217-1.638-.34v-1.222h.168c.151.576.393 1.122 1.523 1.122.82 0 1.395-.443 1.375-1.122-.023-.72-.531-1.093-1.596-1.603-1.17-.562-1.544-1.116-1.535-1.8 0-1.106.887-1.665 2.189-1.665.638 0 1.2.13 1.503.226v1.069h-.147c-.083-.518-.521-.873-1.356-.863-.76.009-1.262.357-1.29.959-.034.557.333.864.99 1.177 1.522.718 2.074 1.181 2.139 2.115.072 1.169-.785 1.947-2.325 1.947zM21 31.002v-.158c.543 0 .648-.183.648-.784v-3.138c0-.607-.105-.787-.648-.787v-.155h3.64v1.013h-.155c-.098-.476-.315-.691-1.074-.691h-.45c-.373 0-.47.2-.47.638v1.316h.756c.417 0 .565-.22.62-.532H24v1.478h-.134c-.054-.304-.188-.55-.619-.55h-.756v1.458c0 .524.062.566.47.566h.905c.614 0 .939-.302 1.002-.709H25v1.035h-4zM20.572 27c-.092-.476-.321-.698-1.085-.698h-.351v3.758c0 .601.163.784.706.784v.158h-2.305v-.158c.553 0 .72-.183.72-.784v-3.758H17.9c-.76 0-.988.222-1.096.698h-.14v-1h4.065v1h-.158zm-5.392 4.002v-.158c.3 0 .531-.075.531-.31a.878.878 0 00-.074-.34l-.258-.768H13.43l-.264.676c-.04.114-.095.272-.095.394 0 .225.095.348.492.348v.158h-1.608v-.158c.409 0 .542-.284.76-.877L14.243 26h.718l1.556 4.09c.207.553.289.731.781.754v.158H15.18zM12.418 27c-.108-.476-.326-.698-1.087-.698H11v3.758c0 .601.143.784.688.784v.158H9.38v-.158c.541 0 .619-.183.619-.784v-3.758h-.254c-.774 0-.992.222-1.096.698h-.157v-1h4.078v1h-.153zm-6.252 4.315c-.75 0-1.387-.217-1.72-.34v-1.222h.16c.153.576.487 1.122 1.616 1.122.822 0 1.395-.443 1.375-1.122-.021-.72-.532-1.093-1.596-1.603-1.17-.562-1.543-1.116-1.535-1.8 0-1.106.889-1.665 2.193-1.665.638 0 1.038.13 1.342.226v1.069h-.148c-.082-.518-.36-.873-1.194-.863-.762.009-1.263.357-1.293.959-.036.557.33.864.991 1.177 1.523.718 2.076 1.181 2.136 2.115.075 1.169-.78 1.947-2.327 1.947zm8.244-4.479l-.822 2.161h1.637l-.816-2.161z" fill="#fff"/></svg>