<!-- by TradingView --><svg width="56" height="56" fill="none" xmlns="http://www.w3.org/2000/svg"><path fill="url(#paint0_linear)" d="M0 0h56v56H0z"/><circle cx="28" cy="28" r="28" fill="url(#paint1_linear)"/><path fill-rule="evenodd" clip-rule="evenodd" d="M33.996 24.004v11.992a6.009 6.009 0 006.008 6.008H46v-6.008h-5.995V24.004H46v-6.008h-5.995V14h-6.01v3.996H19.5a7.504 7.504 0 100 15.008h4a1.496 1.496 0 110 2.992H10v6.008h13.5a7.504 7.504 0 100-15.008h-4a1.496 1.496 0 110-2.992h14.496z" fill="#fff"/><defs><linearGradient id="paint0_linear" x1="10.418" y1="9.712" x2="68.147" y2="76.017" gradientUnits="userSpaceOnUse"><stop stop-color="#1A1E21"/><stop offset="1" stop-color="#06060A"/></linearGradient><linearGradient id="paint1_linear" x1="10.418" y1="9.712" x2="68.147" y2="76.017" gradientUnits="userSpaceOnUse"><stop stop-color="#1A1E21"/><stop offset="1" stop-color="#06060A"/></linearGradient></defs></svg>