<!-- by TradingView --><svg width="56" height="56" fill="none" xmlns="http://www.w3.org/2000/svg"><path fill="#264355" d="M0 0h56v56H0z"/><circle cx="28" cy="28" r="28" fill="#264355"/><path d="M4.215 25h4.988l-.216.999h-1.84L6.063 31H4.738l1.093-5.001H4L4.215 25zM9.58 31H8.256l1.309-6h2.617c1.054.008 2.063.338 1.801 1.562-.17.78-.8 1.3-1.593 1.457v.015c.993.105.862.713.785 1.547-.023.383-.123 1.089.046 1.419h-1.455c.008-.533.062-1.074.123-1.614.039-.33.054-.789-.377-.804h-1.4L9.58 31zm.747-3.41h1.108c.585-.007.986-.292 1.101-.825.116-.534-.177-.759-.754-.766h-1.109l-.346 1.592zM13.244 31l3.533-6h1.57l.832 6h-1.332l-.15-1h-2.563l-.635 1h-1.255zm4.323-2l-.29-2.828h-.015L15.676 29h1.891zM23.02 31l-1.34-5.01-.023.023L20.572 31H19.34l1.309-6h1.955l1.316 4.722.023-.015L24.967 25h1.24l-1.31 6H23.02zM29.809 26.693c.084-.612-.185-.914-.824-.914-.485 0-1.032.25-1.147.778-.139.65.439.725.94.854.884.234 2.208.49 1.947 1.707-.324 1.496-1.77 2.017-3.087 2.017-1.409 0-2.286-.617-1.917-2.135h1.347c-.2.672.1 1.198.785 1.198.532 0 1.263-.158 1.401-.8.154-.71-.716-.764-1.216-.892-.816-.211-1.909-.597-1.678-1.662.3-1.382 1.724-1.987 2.987-1.987 1.193 0 1.986.635 1.724 1.851h-1.262" fill="#fff"/><path d="M32.148 25h2.048c.57.015 1.162.06 1.593.367.778.555.978 1.493.732 2.633-.247 1.14-.863 2.078-1.879 2.633-.562.307-1.177.345-1.747.367h-2.047l1.3-6zm-.3 5.28h1.247c.862 0 1.394-.338 1.71-.683.476-.517.7-1.042.815-1.605.123-.555.139-1.087-.115-1.605-.162-.337-.555-.682-1.41-.682H32.85l-1 4.575zM36.482 31l1.309-6h.846l-1.3 6h-.855zM43.44 26.482c0-.718-.592-.915-1.254-.915-1.509 0-2.333 1.3-2.548 2.425-.27 1.549.03 2.395 1.786 2.425a4.66 4.66 0 001.27-.189l.31-1.51h-1.4l.153-.718h2.248l-.588 2.787c-.754.212-1.493.355-2.193.355-.87 0-1.555-.105-2.102-.694-.554-.59-.577-1.594-.392-2.448.138-.627.5-1.314.931-1.858.739-.922 1.717-1.285 2.771-1.285 1.04 0 2.094.469 1.886 1.632h-.878M51.015 25.6h-.016L47.851 31h-.8l-.793-5.4h-.016L45.066 31h-.855l1.309-6h1.524l.7 4.949h.016L50.576 25H52l-1.308 6h-.855l1.178-5.4z" fill="#BABABA"/></svg>