<!-- by TradingView --><svg width="56" height="56" fill="none" xmlns="http://www.w3.org/2000/svg"><path fill="#09287A" d="M0 0h56v56H0z"/><circle cx="28" cy="28" r="28" fill="#09287A"/><path fill-rule="evenodd" clip-rule="evenodd" d="M43.926 26h2.798l1.27 1.417 1.274-1.41H51l-2.147 2.39L52 31.98h-2.787l-1.755-1.997-1.77 1.997h-1.733L46.599 29l-2.453-2.79-.219-.21zM4 24.006h3.822c.342 0 .67.147.912.406.242.26.379.61.38.977V32H7.187v-6.708a.304.304 0 00-.08-.206.265.265 0 00-.192-.086H4.007v-.994H4zm10.81 0h-3.822c-.343 0-.67.147-.913.406-.242.26-.378.61-.379.977V32h1.932v-6.708c0-.078.03-.151.08-.206A.265.265 0 0111.9 25h2.908v-.994h.002zm-.63 1.984h3.19c.44.006.845.198 1.153.534.308.336.48.79.477 1.26v1.893h-4.584v.728c0 .158.06.309.164.42a.54.54 0 00.392.175H19v.079a.94.94 0 01-.242.64.819.819 0 01-.593.281H13.86c-.393 0-.769-.186-1.044-.487a1.654 1.654 0 01-.426-1.126v-2.446a2.005 2.005 0 01.517-1.369 1.748 1.748 0 011.269-.578l.003-.004zm.236 2.572h2.919v-.616a.64.64 0 00-.17-.435.559.559 0 00-.406-.181h-1.767a.559.559 0 00-.407.18.64.64 0 00-.169.436v.616zm5.384-4.549h1.932V32H19.8v-7.986zm4.475 1.985h3.08c.44.006.86.198 1.168.534.308.336.48.79.477 1.26v1.892h-4.488v.729c0 .157.059.308.163.42a.54.54 0 00.392.175H29v.078a.94.94 0 01-.242.64.822.822 0 01-.593.274h-4.203a1.444 1.444 0 01-1.044-.479 1.654 1.654 0 01-.427-1.126v-2.446a2.005 2.005 0 01.517-1.37 1.748 1.748 0 011.27-.577l-.003-.004zm.237 2.572h2.918v-.616a.64.64 0 00-.169-.436.559.559 0 00-.406-.18h-1.768a.559.559 0 00-.406.18.64.64 0 00-.17.436v.616zm9.56-4.57h-3.076a1.222 1.222 0 00-.882.396c-.234.25-.367.59-.37.944V32h2.073v-4.778h1.74v-1.2h-1.74v-.442c0-.117.044-.23.121-.312a.402.402 0 01.292-.13h1.841V24zm.562 0h1.973v8h-1.973v-8zm4.44 2h3.281c.44.006.86.198 1.168.534.308.336.48.79.477 1.26v1.892h-4.689v.729c0 .157.06.308.163.42a.54.54 0 00.393.175H44v.078a.941.941 0 01-.242.64.82.82 0 01-.593.272h-4.413a1.442 1.442 0 01-1.044-.477 1.654 1.654 0 01-.426-1.126V27.95a2.006 2.006 0 01.517-1.37 1.748 1.748 0 011.269-.577l.007-.004zm.237 2.572h2.918v-.616a.64.64 0 00-.169-.436.558.558 0 00-.406-.18h-1.77a.558.558 0 00-.406.18.64.64 0 00-.169.436v.616h.002z" fill="#fff"/></svg>