<!-- by TradingView --><svg width="56" height="56" fill="none" xmlns="http://www.w3.org/2000/svg"><path fill="#C31230" d="M0 0h56v56H0z"/><circle cx="28" cy="28" r="28" fill="#C31230"/><path d="M39.751 21.773L42.84 16H48l-4.943 9.885L48 35h-5.428l-2.841-5.384L34.281 40H28.5l7.81-14.093L30.837 16h5.846l3.067 5.773z" fill="#fff"/><path d="M25 16h5v14.84c0 6.788-3.109 9.16-8.11 9.16-1.182 0-1.876-.037-2.89-.392l.002-4.21c1.616.036 2.133-.026 2.428-.049 1.639-.128 3.57-.866 3.57-4.58V16z" fill="#fff"/><path d="M7 16v5h6v19h5V21h6v-5H7z" fill="#fff"/></svg>