<!-- by TradingView --><svg width="56" height="56" fill="none" xmlns="http://www.w3.org/2000/svg"><path fill="#005981" d="M0 0h56v56H0z"/><circle cx="28" cy="28" r="28" fill="#005981"/><path fill-rule="evenodd" clip-rule="evenodd" d="M19.642 42H43.92c.019-.673-.03-.797-.143-1.46-.648-2.72-3.149-4.487-5.39-5.508.378.387.72.807 1.021 1.256.602 1.02 1.23 2.904.572 4.251-.73-3.521-3.006-6.38-6.176-8.283.822 1.74 1.782 4.282.215 6.007-.04-.321-.077-.646-.115-.972-.3-2.605-.61-5.314-2.284-7.383.389 2.312.463 4.666.22 6.998a6.3 6.3 0 01-.955 2.893 1.53 1.53 0 00-.357-.949c-.259.224-.508.49-.758.754-.564.6-1.129 1.2-1.794 1.323 4.001-5.4 3.062-13.764.51-19.537l.465-.28c.163-.072.515-.118.597 0 .158 1.418.372 3.01 1.904 3.654a2.848 2.848 0 003.062-.735 2.812 2.812 0 00.566-2.113c-.107-.413-.275-.852-.872-.806-.286.178-.286.49-.286.806a.98.98 0 01-1.021.806.7.7 0 01-.587-.592c-.088-.777-.051-1.622-.014-2.476.083-1.921.169-3.888-1.16-5.23l-.148-.097a2.9 2.9 0 00-1.995-.388c.161.082.323.152.482.22.531.228 1.015.437 1.263 1.015-.023.018-.043.042-.062.066-.04.049-.08.097-.152.097a9.494 9.494 0 01-.828-.503c-.505-.33-1.008-.66-1.469-.732a1.9 1.9 0 00-.766.194s1.802 1 2.052 1.174c.25.173.414.367.306.684-.483-.193-1.55-.793-2.152-1.13-.192-.109-.337-.19-.4-.223a1.02 1.02 0 00-.346-.117 1.494 1.494 0 00-.674.424c.306.24.76.48 1.213.72.9.475 1.789.944 1.477 1.403a2.921 2.921 0 01-.419-.179 80.09 80.09 0 01-1.883-1.082 1.596 1.596 0 00-.817-.28c-.082.002-.153.061-.228.123-.084.07-.172.142-.282.142a.648.648 0 01-.397-.102c-.088-.046-.166-.088-.262-.072-.461.078-.884.407-1.304.734-.407.316-.811.63-1.247.716-.455-.455 1.224-1.531 2.097-2.042a2.929 2.929 0 00-.684-.434 7.69 7.69 0 00-1.674.945 7.896 7.896 0 01-.821.581c-.25.103-.307.006-.307-.27.035-.064.075-.125.118-.184.253-.369.633-.609 1.017-.852.312-.197.628-.397.881-.669a1.484 1.484 0 00-.668-.23 2.712 2.712 0 00-.766.378 66.01 66.01 0 01-1.587 1.052c-.153.097-.296.153-.444-.067.296-.493.803-.865 1.282-1.215.215-.158.425-.31.606-.469a2.604 2.604 0 00-.765-.102c-.58.163-1.318.737-1.86 1.16-.29.223-.522.405-.646.458-.353-.392.355-.935.933-1.379a7.11 7.11 0 00.455-.367 2.233 2.233 0 00-.714-.071c-.496.167-.97.55-1.44.93-.334.27-.666.538-1.005.729-.288-.359.139-.671.487-.927.103-.075.2-.146.268-.211a4.2 4.2 0 00-1.597.668c-2.583 1.643-3.573 4.675-3.063 7.686a4.14 4.14 0 002.761 3.369 2.894 2.894 0 003.063-.95 3.012 3.012 0 00.357-2.551 3.656 3.656 0 01-.104-.15c-.177-.262-.368-.545-.769-.442-.384.035-.37.43-.36.744a4.1 4.1 0 01.003.139c-.21.663-.5.755-.944.663-.74-.224-.745-1.036-.659-1.756a3.327 3.327 0 012.261-2.419c.5 1.256 1.567 1.766 2.9 2.276a2.292 2.292 0 010 1.756c-2.009 2.173-2.198 3.91-2.41 5.86-.056.518-.115 1.051-.209 1.612-.579 2.074.135 4.146.706 5.803.144.418.278.81.381 1.169a11.355 11.355 0 01-1.597-1.47 6.122 6.122 0 000 2.797c.097.683.514 1.158.944 1.65.267.305.54.617.745.988.206.346.331.183.367.583zm7.87-18.875c-.143-.03-.205.43-.047.756l.02-.02c.144.316.373.377.511.392.138.016.2.123.087.19-.254.119-.583.06-.949-.003-.12-.021-.242-.043-.368-.059a3.247 3.247 0 00-1.602.143c.092.582.806.95 1.316 1.092a1.588 1.588 0 01-1.46.51 2 2 0 01-1.31-1.255 2.255 2.255 0 01.066-1.899c.055-.07.117-.14.179-.21.327-.375.678-.776.408-1.32a3.21 3.21 0 00-.618-.96c-.852.189-1.858.23-2.144-.403a.597.597 0 01.424-.924c.314-.077.598-.02.857.031.5.1.904.18 1.24-.766.157-.24.426-.313.675-.38.408-.11.763-.206.484-.998-.04-.2.03-.414.21-.45.44.011.518.359.593.695.034.15.067.298.131.413.726-.021.952.488 1.171.983.244.549.48 1.08 1.381.85.327.127.25.52.163.734-.281.409-.606.364-1.053.303l-.06-.009-.06-.008c-.286-.05-.445-.45-.62-.893-.288-.728-.622-1.57-1.642-1.148-.455.27-.314.695-.178 1.107.04.118.078.235.102.347.036.167.098.302.16.436.124.267.245.53.146 1.03-.165.298-.388.533-.6.757-.35.37-.667.707-.645 1.238.049.554.439.588.796.618l.148.014c.093.027.497.014.742.005l.172-.005c.285-.01.53-.071.617-.321a.68.68 0 00-.352-.684c-.168-.058-.207-.038-.275-.003a.598.598 0 01-.138.054c-.2.051-.348.082-.485-.168a.512.512 0 01.449-.69c.198.015.417.007.635-.002.63-.025 1.259-.05 1.406.477 0 .352-.143.47-.683.403zm-7.64-3.593c-.14-.142-.297-.3-.49-.347v.006c-.307.265-.68-.174-.766-.643l-.01-.077c-.038-.28-.063-.47.153-.587a1.429 1.429 0 011.388 1.02c.117.276.28.766.117.873-.127.02-.25-.104-.391-.245z" fill="#fff"/></svg>