<!-- by TradingView --><svg width="56" height="56" fill="none" xmlns="http://www.w3.org/2000/svg"><path fill="#CB2D2F" d="M0 0h56v56H0z"/><circle cx="28" cy="28" r="28" fill="#CB2D2F"/><path d="M12.156 26.532h-.054a.1.1 0 01-.1-.1.1.1 0 010-.045c3.872-8.774 14.172-12.77 23.006-8.924a17.405 17.405 0 018.984 8.924.099.099 0 01-.092.137h-.046a9.854 9.854 0 00-4.885-1.173 9.293 9.293 0 00-5.423 1.523.1.1 0 01-.061 0h-.062a10.369 10.369 0 00-10.845 0 .1.1 0 01-.06 0h-.055a9.298 9.298 0 00-5.422-1.523 9.873 9.873 0 00-4.878 1.18h-.007zM29 27h-2v13.784c0 .808-.487 1.462-1.3 1.462-.623 0-1.18-.39-1.388-.975a.877.877 0 00-1.14-.475.867.867 0 00-.524.985c.542 1.679 2.35 2.604 4.041 2.066 1.339-.426 2.322-1.667 2.311-3.063V27z" fill="#fff"/></svg>