<!-- by TradingView --><svg width="56" height="56" fill="none" xmlns="http://www.w3.org/2000/svg"><path fill="#D02027" d="M0 0h56v56H0z"/><circle cx="28" cy="28" r="28" fill="#D02027"/><path fill-rule="evenodd" clip-rule="evenodd" d="M38.778 39.683l-18.505 6.235L11 16h34l-6.222 23.683zM21 20h-.587v10.529l.587.412V33h-4v-2.06l.565-.411V20H17v1h-2v-4h8v4h-2v-1zm3.413 16H23v-5h2v1.087c-.084 1.75 4.03 2.051.783-3.56l-.225-.387c-1.04-1.79-1.489-2.564-1.883-3.655-1.118-3.137 1.201-4.524 2.72-4.484 1 .017 1.496.455 1.616.56a.137.137 0 00.028.023l.422-.584H30v4.425h-2v-.663c0-1.77-2.133-1.73-1.9-.403.061.342.55 1.18 1.176 2.255.444.762.957 1.643 1.438 2.552 3.1 5.872-1.37 9.653-3.88 6.938l-.421.896zm11.676-12.423c-.12-.574-4.858-2.514-5.077 6.494-.18 7.78 1.732 8.929 3.822 8.929C36.228 39 38 37.634 38 34.941V33h-2.11v2.199s0 1.128-.857 1.128c-1.294 0-1.393-1.702-1.473-5.999-.1-5.682 2.17-5.721 2.33-3.662V27h2.03v-4h-1.433l-.398.577z" fill="#fff"/></svg>