<!-- by TradingView --><svg width="56" height="56" fill="none" xmlns="http://www.w3.org/2000/svg"><path fill="#0C3175" d="M0 0h56v56H0z"/><circle cx="28" cy="28" r="28" fill="#0C3175"/><path d="M25.997 29h-1.754c-.43 0-.784-.566-.784-1h-1.094c0 .364.104.903.285 1.191h-.18c-.545 0-.988-.646-.988-1.191h-1.094c0 .541.227 1.296.595 1.5-.368.342-.595.959-.595 1.5h1.094c0-.545.443-1.182.989-1.182h.179c-.181.283-.285.818-.285 1.182h1.094c0-.434.353-1 .784-1h1.754v-1zM32 36.902V35h-3V21.485h1.21c3.402 0 3.402 2.47 3.402 3.515H35v-4.98H21V25h1.389c0-.994-.12-3.515 3.402-3.515H27V35h-3v1.902h8zM34 28h-1v.98h-3v1.041h3V31h1c.21-.595.806-1.058 1.47-1.058v-.883c-.664 0-1.26-.464-1.47-1.059zm-6-14.273c-7.881 0-14.27 6.39-14.27 14.273 0 7.882 6.389 14.273 14.27 14.273 7.883 0 14.27-6.39 14.27-14.273 0-7.882-6.387-14.273-14.27-14.273zM44 28c0 8.836-7.165 15.999-16 15.999s-16-7.163-16-16c0-8.835 7.165-15.998 16-15.998S44 19.164 44 28z" fill="#fff"/></svg>