<!-- by TradingView --><svg width="56" height="56" fill="none" xmlns="http://www.w3.org/2000/svg"><path fill="url(#paint0_linear)" d="M0 0h56v56H0z"/><circle cx="28" cy="28" r="28" fill="url(#paint1_linear)"/><path fill-rule="evenodd" clip-rule="evenodd" d="M34 19c2.424 0 5.129.549 6 1v3.046C40 26.263 42 27 42 27v2.677c0 2.06-.5 3.323-.5 3.323-.899.226-3.04 1.023-5.464 2.857-1.77 1.383-3.323 3.443-3.323 5.503 0 1.354.324 2.737.787 3.64h-2.557c-1.96-.226-4.167-1.834-5.501-4.346-.607-1.093-1.087-2.337-1.534-3.499C23.049 34.928 22.306 33 21 33c-1.055 0-1.68.846-2.266 1.639C18.216 35.339 17.728 36 17 36c-1.602 0-2.425-2.73-2.89-4.273-.048-.162-.093-.31-.134-.441-.393-.726-1.002-1.286-1.627-1.86C11.2 28.372 10 27.269 10 25h8V13h7v5c.245.226 1.128.774 2 1l-.788 4.046H24L23 27h2.424l-.982 4.286C24 32.5 23.782 33.823 24 34.5c.436 1.834 2.975 2.5 4.5 2.5 2.206 0 4.5-1.5 4.5-1.5l1-2.5h-2c-.436 0-.812-.332-.594-1.488L32.5 27H35l1-4h-2.7l.7-4zm-5.5 2h3.078l-2.5 12H26l2.5-12zm4.04-3.166c0-1.157-.898-1.834-1.77-1.834-.898 0-1.77.677-1.77 1.834 0 .903.872 1.609 1.77 1.609.872 0 1.77-.706 1.77-1.609z" fill="#ED3939"/><defs><linearGradient id="paint0_linear" x1="10.418" y1="9.712" x2="68.147" y2="76.017" gradientUnits="userSpaceOnUse"><stop stop-color="#1A1E21"/><stop offset="1" stop-color="#06060A"/></linearGradient><linearGradient id="paint1_linear" x1="10.418" y1="9.712" x2="68.147" y2="76.017" gradientUnits="userSpaceOnUse"><stop stop-color="#1A1E21"/><stop offset="1" stop-color="#06060A"/></linearGradient></defs></svg>