<!-- by TradingView --><svg width="56" height="56" fill="none" xmlns="http://www.w3.org/2000/svg"><path fill="#F6F8FD" d="M0 0h56v56H0z"/><circle cx="28" cy="28" r="28" fill="#F6F8FD"/><circle cx="13.5" cy="22.5" r="2.5" fill="#4E69A2"/><circle cx="18.5" cy="27.5" r="2.5" fill="#4E69A2"/><circle cx="23.5" cy="32.5" r="2.5" fill="#4E69A2"/><circle cx="33.5" cy="32.5" r="2.5" fill="#4E69A2"/><circle cx="28.5" cy="36.5" r="2.5" fill="#4E69A2"/><circle cx="23.5" cy="41.5" r="2.5" fill="#4E69A2"/><circle cx="42.5" cy="33.5" r="2.5" transform="rotate(-180 42.5 33.5)" fill="#A1AA41"/><circle cx="37.5" cy="28.5" r="2.5" transform="rotate(-180 37.5 28.5)" fill="#A1AA41"/><circle cx="32.5" cy="23.5" r="2.5" transform="rotate(-180 32.5 23.5)" fill="#A1AA41"/><circle cx="22.5" cy="23.5" r="2.5" transform="rotate(-180 22.5 23.5)" fill="#A1AA41"/><circle cx="27.5" cy="19.5" r="2.5" transform="rotate(-180 27.5 19.5)" fill="#A1AA41"/><circle cx="32.5" cy="14.5" r="2.5" transform="rotate(-180 32.5 14.5)" fill="#A1AA41"/></svg>