<!-- by TradingView --><svg width="56" height="56" fill="none" xmlns="http://www.w3.org/2000/svg"><path fill="#08090D" d="M0 0h56v56H0z"/><circle cx="28" cy="28" r="28" fill="#08090D"/><path d="M40.597 28c4.381-1.964 7.242-4.912 7.398-8.183 0 0-1.156-.907-4.891-2.307C39.824 16.281 37 16 37 16v7.287c0 1.089-.095 2.2-.906 3.184-2.479-.61-5.218-.951-8.092-.952-2.875 0-5.62.344-8.101.955-.81-.985-.901-2.097-.901-3.187V16s-2.83.281-6.11 1.51C9.155 18.91 8 19.817 8 19.817c.155 3.272 3.017 6.221 7.403 8.184-4.382 1.964-7.243 4.912-7.398 8.181 0 0 1.156.909 4.89 2.308C16.175 39.719 19 40 19 40v-7.287c0-1.089.094-2.201.906-3.184 2.479.61 5.217.951 8.09.951 2.877 0 5.621-.342 8.102-.954.81.984.902 2.098.902 3.187V40s2.83-.281 6.11-1.51C46.844 37.09 48 36.182 48 36.182c-.156-3.271-3.018-6.22-7.403-8.183zm-12.683 1.637c-2.595 0-4.71-.647-6.26-1.636 1.893-1.21 4.13-1.612 6.346-1.64 2.214.026 4.451.43 6.346 1.637-1.551.99-3.667 1.64-6.266 1.64" fill="#fff"/></svg>