<!-- by TradingView --><svg width="56" height="56" fill="none" xmlns="http://www.w3.org/2000/svg"><path fill="#F47D38" d="M0 0h56v56H0z"/><circle cx="28" cy="28" r="28" fill="#F47D38"/><path d="M21.037 34.203c0-.487-.01-.822-.037-1.203.097.009.909 0 1.16 0 .532 0 .895.2.895.673 0 .475-.448.675-.721.718v.008c.27.015.796.206.796.731 0 .621-.505.87-1.032.87-.234 0-1.001-.009-1.098 0 .026-.383.037-.718.037-1.203v-.593zm.888-.956a1.14 1.14 0 00-.217.013c-.008.215-.017.456-.017.605 0 .157.005.295.005.444h.199c.252 0 .504-.183.504-.552 0-.28-.124-.51-.474-.51zm-.04 1.31c-.079 0-.137.003-.189.003 0 .122-.005.244-.005.422 0 .273.01.61.01.763.08.002.146.007.243.007.26 0 .486-.211.486-.59 0-.405-.19-.605-.545-.605M26.322 34.203c0-.487-.009-.822-.035-1.203.26.004 1.594.011 1.713 0-.01.05-.01.312 0 .378-.337-.022-.896-.021-1.027-.021-.022.317.004.6.004.916.385-.009.669-.016 1.005-.034-.017.1-.013.283 0 .374a12.975 12.975 0 00-1.005-.04c0 .184-.004.371-.004.557 0 .184.001.335.01.508.332 0 .676.019 1.017-.021-.01.061-.01.332 0 .383a80.75 80.75 0 00-1.713 0c.026-.383.035-.718.035-1.203v-.593zM34.364 36a11.252 11.252 0 00-.767 0 16.306 16.306 0 00-.305-.884c-.19-.005-.872-.005-1.028 0-.12.292-.218.586-.3.884a3.514 3.514 0 00-.43 0c.216-.479.88-2.016 1.262-3 .056.008.279.008.336 0 .376.984.896 2.297 1.232 3zm-1.174-1.14c-.129-.35-.253-.691-.394-1.027-.15.336-.288.677-.416 1.027h.81zM37.718 34.877c0-.461.01-.69.01-1 0-.45-.01-.736-.018-.877.12.011.243.021.362.021.12 0 .244-.01.362-.021-.055.554-.06.998-.06 1.494 0 1.04.309 1.211.885 1.211.709 0 .757-.738.757-1.531 0-.393-.013-.781-.035-1.174.075.011.15.021.226.021.075 0 .145-.01.221-.021-.026.252-.058.861-.058 1.6 0 .99-.448 1.4-1.305 1.4-.758 0-1.347-.321-1.347-1.123M44.599 33.709c0-.165.005-.305-.009-.364-.173 0-.55.007-.815.037a1.843 1.843 0 000-.382c.402.012 1.9.012 2.276 0a1.776 1.776 0 000 .382 7.818 7.818 0 00-.796-.032c-.007.062 0 .194 0 .358v1.089c0 .485.008.82.034 1.203a9.986 9.986 0 00-.726 0c.027-.383.035-.718.035-1.203v-1.088zM50.858 34.304c.24-.33.473-.88.668-1.304.067.009.34.009.416 0a45.263 45.263 0 00-.929 1.704c0 .14-.005.245-.005.387 0 .287.004.584.045.909-.124-.009-.63-.009-.753 0 .013-.278.053-.57.053-.84 0-.134-.005-.268-.009-.403-.305-.58-.81-1.51-.947-1.757.132.009.659.009.792 0 .203.429.536 1.105.66 1.304h.009zM13.457 25.852c0 2.788-.077 3.419.45 4.102.527.683 1.508 1.067 2.78 1.067 1.472 0 2.634-.734 3.034-1.803.146-.386.273-.93.273-2.366V20H21v7.728c-.036 2.067-.425 3.015-1.624 3.75-.854.527-2.072.754-3.052.754-2.18 0-4.926-.753-5.324-3.47V20h2.454s.003 3.9.003 5.852zM24 20h2.557L26.5 30.97 31 31v1h-7V20zM36 32h-2.5V21H30v-1h10v1h-4v11zM45.85 28h-4.257l-1.604 4h-1.674l5.38-12h1.174l5.128 12h-2.59l-1.558-4zm-2.171-5.014l-1.798 4.027h3.529l-1.731-4.027z" fill="#fff"/><path d="M8.467 20.623C5.653 22.53 4 24.93 4 27.863c0 6.656 8.037 11.575 19.496 11.575 5.136 0 9.426-1.328 12.605-2.966l-.198.003c-3.836 1.155-7.716 1.63-11.704 1.63-11.518 0-19.45-5.406-19.46-10.403-.006-2.771 1.284-5.163 3.73-6.912l-.002-.167z" fill="#fff"/></svg>