<!-- by TradingView --><svg width="56" height="56" fill="none" xmlns="http://www.w3.org/2000/svg"><path fill="#300" d="M0 0h56v56H0z"/><circle cx="28" cy="28" r="28" fill="#300"/><path fill-rule="evenodd" clip-rule="evenodd" d="M38.228 40.725C35.972 42.535 28.817 45.653 28 46c-.817-.347-7.972-3.466-10.228-5.275C15.283 38.722 14 35.835 14 32.407V15.75C17.889 13.71 22.594 13 28 13c5.406 0 10.111.71 14 2.75v16.657c0 3.427-1.283 6.315-3.772 8.318zM35.514 16C28.596 16 21.162 17.454 15 23.034v9.51c0 3.104 1.193 5.697 3.38 7.466C20.326 41.58 26.29 44.253 28 45l.215-.096c1.915-.855 7.496-3.346 9.406-4.895C39.847 38.203 41 35.688 41 32.544V16.275c-1.789-.157-3.618-.275-5.486-.275zm-15.51 20c-2.466 0-3.97-1.407-3.97-4L16 24h2l-.006 8.118C18 33 18.85 34 20.004 34c.516 0 1.718-.303 1.996-.5l-.034-9.532H24V35c-.954.629-2.486 1-3.997 1zm8.072.017c-.446.017-.915.036-1.076-.017v4h-2V25c.875-.55 2.046-1 3.398-1C31.379 24 33 26.24 33 29.816 33 33.392 31.453 36 28.67 36c-.168 0-.379.008-.594.017zm.014-2.003c-.423.018-.977.042-1.09-.014v-8h1.437c1.15 0 2.028 1.25 2.028 4 0 2.711-.534 4-1.965 4-.091 0-.24.006-.41.014zm7.861-3.75C34.5 29.444 34 28.44 34 27.144c0-1.965 1.275-3.183 2.905-3.144 1.392-.04 2.658.55 3.095.864v2.122c-.517-.55-1.703-.986-2.578-.986-.716 0-1.431.28-1.47 1.144-.037.782.579 1.146 1.374 1.617l.255.15c2.067 1.22 2.459 2.303 2.419 3.757C39.92 34.24 38.847 36 36.382 36c-.994 0-1.587-.346-2.382-.817v-2.28C34.5 33.5 35.205 34 36 34c.914 0 1.575-.585 1.535-1.45 0-.786-.47-1.657-1.584-2.286z" fill="#FFBE00"/></svg>