<!-- by TradingView --><svg width="56" height="56" fill="none" xmlns="http://www.w3.org/2000/svg"><path fill="#0050A9" d="M0 0h56v56H0z"/><circle cx="28" cy="28" r="28" fill="#0050A9"/><path d="M26.784 17.377a12.751 12.751 0 00-6.483-1.763C14.393 15.614 9 20.366 9 27.707S14.828 41 22.018 41h13.018c-7.19 0-13.018-5.952-13.018-13.293 0-4.913 2.592-8.615 4.772-10.304l-.006-.026z" fill="#fff"/><path d="M29.216 38.624a12.757 12.757 0 006.484 1.763c5.905 0 11.3-4.752 11.3-12.094C47 20.953 41.172 15 33.982 15H20.965c7.189 0 13.017 5.952 13.017 13.293 0 4.913-2.592 8.615-4.773 10.305l.007.026z" fill="#fff"/></svg>