<!-- by TradingView --><svg width="56" height="56" fill="none" xmlns="http://www.w3.org/2000/svg"><path fill="url(#paint0_linear)" d="M0 0h56v56H0z"/><circle cx="28" cy="28" r="28" fill="url(#paint1_linear)"/><path d="M40.269 25.254V24l1.731.003V32h-1.728v-1.25c-.07.06-.108.088-.14.12-1.621 1.611-4.428 1.477-5.934-.261a3.859 3.859 0 01-.966-2.61c0-1.07.367-2.017 1.157-2.812a3.91 3.91 0 011.251-.85 4.211 4.211 0 013.043-.1c.489.172.935.432 1.313.766.082.072.16.147.273.25zm-2.804.197c-.793.02-1.552.395-2.068 1.15-.219.312-.361.665-.416 1.034-.055.37-.021.745.099 1.1.567 1.806 2.773 2.328 4.166 1.305.916-.673 1.215-1.58.99-2.628-.25-1.149-1.344-1.96-2.771-1.96zM22 32h-1.665v-1.2l-.035-.02-.14.128c-.574.551-1.264.922-2.083 1.038-1.574.224-2.88-.244-3.866-1.4-.73-.855-.995-1.85-.897-2.93.067-.91.472-1.77 1.147-2.436a4.033 4.033 0 012.14-1.11 4.24 4.24 0 012.437.273 3.79 3.79 0 011.11.743c.045.043.091.085.138.126 0 0 .011 0 .037.007v-1.203L22.001 24 22 32zm-6.97-3.948c.001.249.043.496.125.732.576 1.72 2.648 2.243 4.058 1.333a2.52 2.52 0 001.074-2.767 2.372 2.372 0 00-.459-.913 2.605 2.605 0 00-.817-.666 2.874 2.874 0 00-2.123-.205 2.56 2.56 0 00-1.857 2.486zM45.408 32h-1.705v-.194c0-1.332-.009-2.663 0-3.998a3.638 3.638 0 01.976-2.481 4.095 4.095 0 012.472-1.269c1.373-.2 2.6.117 3.62 1.027.678.604 1.054 1.361 1.182 2.226.032.236.047.473.045.71.005 1.235 0 2.47 0 3.706L52 32h-1.713v-.273-3.78c.005-.39-.081-.777-.253-1.133-.201-.41-.528-.754-.94-.988a2.531 2.531 0 00-1.367-.325c-.48.022-.942.18-1.327.45a2.275 2.275 0 00-.83 1.071c-.117.33-.172.675-.162 1.022V32zM9.448 32H7.551L4 24h1.854l2.671 6.111L11.184 24H13l-3.552 8zM28.898 24.002v1.515c-.066 0-.123.01-.18.01-.343 0-.687 0-1.03.003a2.245 2.245 0 00-.794.152c-.626.249-.972.715-1.102 1.322-.054.25-.08.505-.081.76-.007 1.254 0 2.508 0 3.761V32h-1.698c-.004-.044-.013-.33-.013-.377 0-1.357 0-2.715.005-4.072 0-.45.073-.899.218-1.329.373-1.099 1.16-1.787 2.343-2.081A5.18 5.18 0 0127.782 24h.914l.202.002zM31.7 32h-1.663c-.043-.14-.052-7.789-.008-8H31.7v8z" fill="#fff"/><defs><linearGradient id="paint0_linear" x1="10.418" y1="9.712" x2="68.147" y2="76.017" gradientUnits="userSpaceOnUse"><stop stop-color="#1A1E21"/><stop offset="1" stop-color="#06060A"/></linearGradient><linearGradient id="paint1_linear" x1="10.418" y1="9.712" x2="68.147" y2="76.017" gradientUnits="userSpaceOnUse"><stop stop-color="#1A1E21"/><stop offset="1" stop-color="#06060A"/></linearGradient></defs></svg>