<!-- by TradingView --><svg width="56" height="56" fill="none" xmlns="http://www.w3.org/2000/svg"><circle cx="28" cy="28" r="28" fill="#005CAB"/><path fill="#005CAB" d="M0 0h56v56H0z"/><path fill-rule="evenodd" clip-rule="evenodd" d="M44 28c0 8.837-7.163 16-16 16-2.47 0-4.809-.56-6.897-1.559.16.073.367.163.563.25l.23.1 4.73-14.935c.575-1.898 1.402-2.862 3.136-2.862L32 25v13h-2.493s-.502-.045-.502.516c0 .52.502.486.502.486h7.98s.509.034.509-.493c0-.54-.51-.509-.51-.509H35V25h2.479s.51.029.51-.511c0-.555-.51-.489-.51-.489H35v-6.547c.053-1.221.958-1.68 1.697-1.68.684 0 1.628.182 1.71 1.72 0 0-.031-.194-.54-.194-.598 0-1.206.47-1.164 1.468.027.665.567 1.22 1.355 1.22.728 0 1.285-.72 1.34-1.214.16-1.484-.463-2.27-.75-2.63l-.06-.077a1.414 1.414 0 00-.198-.234A15.964 15.964 0 0144 28zm-6.084-12.557A15.931 15.931 0 0028 12c-7.517 0-13.823 5.183-15.539 12.17.02-.06.04-.118.06-.17h6.774s.513-.028.513.498c0 .555-.513.502-.513.502h-1.296l4.276 13.191 3.11-9.97c.924-2.79.62-3.227-1.524-3.239 0 0-.506.047-.506-.508 0-.526.506-.474.506-.474H32v-4.604c0-2.573 2.342-4.384 4.5-4.384.469 0 .812.098 1.117.246.088.045.192.11.299.185zM12.281 25A16.09 16.09 0 0012 28c0 6.284 3.623 11.722 8.894 14.34C20.808 41.983 15 25 15 25h-2.72z" fill="#fff"/></svg>