<!-- by TradingView --><svg width="56" height="56" fill="none" xmlns="http://www.w3.org/2000/svg"><path fill="#006EAB" d="M0 0h56v56H0z"/><circle cx="28" cy="28" r="28" fill="#006EAB"/><path d="M23.022 16.997H12.661l9.192 22.153A3 3 0 0024.624 41h8.45l10.044-24.003H32.591l-4.748 12.5-4.82-12.5z" fill="#fff"/><path d="M50.56 27.89c.149-.077.321-.116.502-.11.546.026.963.47.937 1a.965.965 0 01-.598.826c-2.71 1.172-23.019 8.466-25.403 3.93-.768-1.459.816-3.173 1.725-4.087 0 0 .896-.987 1.076-1.177.247-.262.767-.857.567-1.361-.173-.427-.894-.865-2.712-.905l-.118-.001c-.314-.822-.562-1.472-.68-1.787 2.294-.022 4.833.648 5.36 2.034.48 1.259-.094 2.41-1.248 3.482 0 0-2.44 2.174-2.152 2.986.597 1.686 13.618-1.032 22.744-4.83zM17.104 27.734l-.668-1.61c-2.991.902-6.782 2.192-9.5 3.42a.91.91 0 00-.549.813.926.926 0 00.93.931.938.938 0 00.479-.12c2.352-1.196 6.284-2.523 9.308-3.434z" fill="#006EAB"/><path d="M50.172 26.927c.15-.077.322-.117.502-.11.546.026.964.47.938 1a.965.965 0 01-.598.826c-2.711 1.172-23.02 8.466-25.404 3.93-.767-1.46.817-3.173 1.726-4.087 0 0 .896-.987 1.076-1.177.247-.262.767-.857.566-1.361-.172-.428-.893-.865-2.71-.905-.037 0-.081 0-.12-.002l-.68-1.786c2.295-.022 4.834.647 5.362 2.034.479 1.259-.095 2.41-1.25 3.482 0 0-2.44 2.174-2.152 2.985.598 1.687 13.619-1.031 22.744-4.829zM16.717 26.77l-.668-1.609c-2.992.902-6.783 2.192-9.5 3.42a.91.91 0 00-.549.812.926.926 0 00.93.932.938.938 0 00.479-.12c2.351-1.197 6.284-2.523 9.308-3.434z" fill="#FFCF00"/></svg>