<!-- by TradingView --><svg width="56" height="56" fill="none" xmlns="http://www.w3.org/2000/svg"><path fill="url(#paint0_linear)" d="M0 0h56v56H0z"/><circle cx="28" cy="28" r="28" fill="url(#paint1_linear)"/><path fill-rule="evenodd" clip-rule="evenodd" d="M25.504 12h.333c-.083.642-.13 1.288-.176 1.934-.03.417-.06.833-.1 1.249-.54.042-1.079.106-1.618.17l-.692.08c.123-1.027.299-2.046.498-3.06.581-.14 1.168-.261 1.755-.373zm-10.239 6.15c.134-.062.266-.125.399-.188.403-.191.806-.383 1.231-.52l-.148.445c-.183.55-.366 1.099-.522 1.657-.643.215-1.266.479-1.89.742-.233.1-.466.198-.7.294.329-.71.761-1.366 1.207-2.007l.047-.064c.103-.142.21-.29.376-.36zM37.666 22.9a142.292 142.292 0 00-3.98-.307c.04.43.05.861.058 1.292.01.462.02.923.068 1.382.683.009 1.365.035 2.048.06.682.026 1.364.052 2.046.06-.056-.83-.134-1.66-.24-2.487zm-15.21 2.65c.412-.02.826-.026 1.239-.033.493-.008.986-.016 1.478-.046.012 1.685.01 3.37-.001 5.056-.479-.027-.957-.035-1.436-.044a41.2 41.2 0 01-1.277-.035 250.716 250.716 0 01-.003-4.898zm-5.45 7.686c-.406-.05-.811-.098-1.217-.14.17 1.067.37 2.136.69 3.17.292.075.579.164.866.253.449.14.898.28 1.36.365-.282-1.162-.482-2.343-.654-3.526-.349-.038-.697-.08-1.045-.122zm22.745 3.22c.67-.224 1.318-.5 1.967-.776.21-.09.421-.18.633-.268-.34.736-.792 1.413-1.255 2.075l-.012.016c-.101.137-.208.281-.37.35-.534.254-1.074.5-1.628.706.076-.242.156-.481.236-.721.154-.458.307-.915.43-1.383zm-9.482 1.78c-1.52.05-3.041.064-4.561-.002.019.272.03.544.04.817.02.5.038 1.002.109 1.5 1.428.056 2.863.098 4.288-.024.049-.764.088-1.526.124-2.29z" fill="#A6BDD3"/><path fill-rule="evenodd" clip-rule="evenodd" d="M18.236 15.137c.703-.6 1.512-1.079 2.337-1.492l-.215.498c-.296.683-.592 1.366-.814 2.078-.697.19-1.379.426-2.06.661l-.043.015c.232-.6.49-1.194.795-1.76zm14.872.664c1.049.16 2.085.393 3.112.663l.063.2c.213.67.427 1.342.583 2.028-1.167-.254-2.338-.486-3.522-.64-.024-.352-.069-.702-.113-1.053-.051-.398-.102-.796-.123-1.198zm-7.72 2.297c-.83.032-1.657.117-2.481.226a123.161 123.161 0 00-.312 3.96c.15-.006.301-.012.452-.02h.002a50.514 50.514 0 012.18-.065c.034-.721.06-1.444.085-2.166.023-.645.046-1.29.074-1.935zm-8.093 1.405a34.82 34.82 0 011.395-.396 45.48 45.48 0 00-.647 3.529c-.75.078-1.498.171-2.246.266.171-1.066.37-2.133.695-3.164.268-.076.535-.155.803-.235zm25.979 4.19c-.9-.158-1.801-.316-2.708-.435.032.372.075.743.117 1.114.046.401.092.802.126 1.203 1.064.061 2.128.152 3.19.249-.093-.701-.226-1.399-.424-2.078l-.301-.053zm-11.02 1.83c.417.007.834.014 1.251.03.038 1.633.03 3.265.002 4.897-.42.016-.839.022-1.259.028-.48.007-.96.014-1.439.036v-1.811c.001-1.073.002-2.145-.004-3.218.483.023.966.03 1.45.039zm-18.658 4.79A38.512 38.512 0 0012 30.2v.241c.096.51.206 1.017.316 1.524l.057.26c1.008.228 2.033.372 3.056.512-.1-.77-.19-1.538-.256-2.31-.527-.024-1.052-.069-1.577-.113zm22.677.353c.538-.023 1.075-.046 1.613-.06-.034.83-.119 1.657-.227 2.482a119.72 119.72 0 01-3.959.308l.016-.383c.033-.758.065-1.514.083-2.272.825-.006 1.65-.041 2.474-.075zM25.244 33.81a91.792 91.792 0 01-2.649-.1c.086 1.323.18 2.647.312 3.967.823.1 1.649.197 2.478.222-.016-.528-.037-1.055-.059-1.582-.033-.836-.067-1.671-.082-2.507zm-6.113 3.494c1.155.267 2.32.487 3.495.644.05.447.101.893.153 1.34l.105.902a20.603 20.603 0 01-3.15-.684c-.073-.292-.163-.58-.254-.867-.138-.44-.277-.879-.349-1.335zm18.816 2c-.499.168-.998.335-1.507.47-.294.888-.663 1.749-1.052 2.598a15.3 15.3 0 002.137-1.312c.124-.09.246-.19.304-.338.255-.53.493-1.066.708-1.613-.197.064-.394.13-.59.196z" fill="#93C944"/><path fill-rule="evenodd" clip-rule="evenodd" d="M30.46 12h-.294l.006.067c.095 1.034.19 2.068.242 3.105.772.065 1.541.156 2.31.253a60.385 60.385 0 00-.49-3.027c-.406-.114-.819-.199-1.232-.284-.18-.037-.361-.074-.541-.114zm6.949 2.854a15.558 15.558 0 00-2.01-1.222c.38.849.748 1.704 1.047 2.587.644.18 1.277.395 1.91.61l.178.06c-.16-.446-.361-.875-.562-1.304v-.001l-.145-.31c-.075-.171-.228-.282-.374-.388l-.044-.032zm-11.572.622a29.78 29.78 0 014.309 0c.013.444.04.888.067 1.333.02.319.039.637.053.955a40.005 40.005 0 00-4.552.005c.015-.317.034-.634.053-.95v-.001c.027-.447.054-.894.07-1.342zm11.64 3.682l-.183-.05c.252 1.167.482 2.342.64 3.527.418.044.835.094 1.252.143.33.04.659.078.988.115-.147-1.054-.392-2.09-.656-3.12-.672-.233-1.357-.424-2.041-.615zm-19.155 3.754c1.316-.125 2.634-.222 3.952-.306-.022.44-.038.882-.053 1.324-.016.44-.032.882-.054 1.323a162.59 162.59 0 00-3.62.125l-.452.02c.03-.833.117-1.663.227-2.486zm-5.213.711l-.275.046c-.044.011-.089.019-.134.027a.7.7 0 00-.306.101c-.118.36-.19.73-.263 1.101-.04.21-.082.42-.131.628v.294a137.42 137.42 0 013.174-.254c.068-.77.146-1.54.255-2.305-.776.102-1.548.232-2.32.362zm30.409 6.6L44 30.18c-.1.7-.22 1.4-.427 2.077-.267.044-.535.09-.803.136-.739.125-1.477.251-2.22.348.11-.769.19-1.543.262-2.317.904-.044 1.805-.123 2.706-.202zm-24.016.438c-.468-.019-.938-.037-1.407-.053.034.83.12 1.656.226 2.48 1.317.126 2.636.224 3.955.304l-.032-.8c-.026-.614-.053-1.23-.067-1.844-.892-.017-1.783-.052-2.675-.087zm18.434 2.704c.395-.04.79-.087 1.185-.135.353-.042.706-.085 1.06-.122-.153 1.052-.395 2.089-.66 3.118-.733.254-1.479.468-2.23.658.27-1.161.48-2.337.645-3.519zm-5.508.392c-.565.023-1.13.046-1.693.063-.016.971-.057 1.941-.097 2.911-.017.389-.033.777-.047 1.166.83-.024 1.657-.12 2.48-.221.13-1.318.227-2.637.304-3.958l-.947.038zm-14.984 5.351l.097.034c.662.225 1.324.451 1.997.641.284.867.651 1.703 1.019 2.537l.018.042c-.7-.342-1.354-.767-1.994-1.209l-.05-.036c-.147-.106-.302-.218-.375-.392a21.225 21.225 0 01-.712-1.617zm8.108 1.716a39.585 39.585 0 01-2.3-.255c.108.841.252 1.678.396 2.514l.088.509c.387.123.785.203 1.183.282.201.04.402.08.602.126h.29c-.068-.697-.121-1.395-.174-2.092-.028-.362-.055-.723-.085-1.084z" fill="#58AEE2"/><path fill-rule="evenodd" clip-rule="evenodd" d="M22.887 15.806c-1.054.149-2.092.392-3.12.661-.247.699-.44 1.413-.635 2.127l-.023.085c1.167-.239 2.334-.478 3.515-.632.078-.75.17-1.495.264-2.241zm17.492 2.202c-.423-.197-.847-.395-1.287-.557l.006.015c.237.687.473 1.373.667 2.073.88.294 1.731.666 2.579 1.042a15.783 15.783 0 00-1.352-2.181.661.661 0 00-.287-.24l-.325-.151zm-9.785.092c.83.035 1.656.12 2.48.225.124 1.316.224 2.635.302 3.955-.312-.011-.624-.024-.937-.038a75.074 75.074 0 00-1.704-.06c-.014-1.01-.056-2.02-.099-3.03-.014-.35-.029-.701-.042-1.052zm-.16 4.38c-1.631-.031-3.264-.035-4.895.003-.013.392-.018.785-.023 1.177a45.208 45.208 0 01-.036 1.51c1.075.003 2.15.003 3.226.002h1.792c-.025-.47-.03-.94-.035-1.41a37.79 37.79 0 00-.03-1.282zm-14.948 3.36c.428-.006.855-.034 1.282-.06.331-.022.663-.043.995-.054a38.823 38.823 0 00-.005 4.552c-.285-.015-.57-.032-.855-.05a65.77 65.77 0 00-1.434-.077c-.084-1.434-.122-2.88.017-4.311zm23.87-.054c-.38-.024-.76-.048-1.14-.059.096 1.513.09 3.035 0 4.549.305-.016.61-.034.914-.053.458-.027.916-.055 1.374-.072a27.908 27.908 0 00-.006-4.305c-.38-.012-.76-.036-1.141-.06zm-13.876 5.04c.837.002 1.673.001 2.51.001h2.512c-.032.494-.037.988-.042 1.482-.004.404-.009.808-.027 1.21-1.631.03-3.262.038-4.894-.005a54.78 54.78 0 01-.027-1.281c-.006-.469-.013-.938-.032-1.406zm-11.855 4.58a16.398 16.398 0 001.23 2.01c.114.167.23.336.418.422.529.254 1.063.5 1.611.712a42.1 42.1 0 01-.67-2.09c-.884-.296-1.741-.666-2.589-1.053zm19.727 2.549c1.18-.17 2.355-.373 3.515-.65a37.828 37.828 0 01-.646 2.224c-1.03.275-2.074.508-3.129.668l.06-.498c.07-.581.141-1.161.2-1.744zm-.63 2.62c-.766.099-1.532.19-2.301.247-.027.474-.066.947-.105 1.42-.048.586-.096 1.171-.122 1.758h.158c.634-.113 1.268-.227 1.887-.407l.122-.71c.132-.768.264-1.536.36-2.308z" fill="#51ADA7"/><defs><linearGradient id="paint0_linear" x1="10.418" y1="9.712" x2="68.147" y2="76.017" gradientUnits="userSpaceOnUse"><stop stop-color="#1A1E21"/><stop offset="1" stop-color="#06060A"/></linearGradient><linearGradient id="paint1_linear" x1="10.418" y1="9.712" x2="68.147" y2="76.017" gradientUnits="userSpaceOnUse"><stop stop-color="#1A1E21"/><stop offset="1" stop-color="#06060A"/></linearGradient></defs></svg>