<!-- by TradingView --><svg width="56" height="56" fill="none" xmlns="http://www.w3.org/2000/svg"><path fill="#2D4691" d="M0 0h56v56H0z"/><circle cx="28" cy="28" r="28" fill="#2D4691"/><path opacity=".98" d="M9.999 39.94c-1.247-.06-1.988-1.15-1.988-3.016-.004-6.439-.023-11.877 0-18.316C8.011 17.778 9.2 17 9.847 17H46.03c.984 0 1.709 1.034 1.865 1.795L48 36.92c0 1.644-.786 3.021-2.132 3.021 0 0-25.833.135-35.869 0zm11.736-12.301s.53 5.729.779 7.361h4.314s.647-2.018 1.438-4.364c.79-2.346 1.366-4.386 1.366-4.386l-3.426-.128-.636 2.057c-.755 2.703-.576 2.555-.911-.27-.108-.884-.234-1.857-.234-1.857l-5.003-.182-2.038 3.93.369-3.994-3.329-.12L13.43 35h4.73l3.576-7.361zm14.309 7.173c1.234-.27 2.195-.506 3.333-1.292 3.895-2.666 5.267-8.006 2.75-10.328-.52-.486-1.597-1.1-2.48-1.192h-7.786l-.827 3h6.711c1.572 0 1.742 2.48 1.115 3.806-.855 1.78-3.133 2.977-5.105 2.653-.072-.012.251-1.191.695-2.53.431-1.34.743-2.47.743-2.47l-4.602-.174-1.366 4.18C28.47 32.784 27.799 35 27.799 35s7.178.046 8.245-.188zM18.464 22h-3.692l-.3 3h3.548l.443-3zm5.546 0h-2.767l-1.39 3h4.482l-.325-3zm7.024 0h-3.679l-.865 3h3.614l.93-3z" fill="#fff"/></svg>