<!-- by TradingView --><svg width="56" height="56" viewBox="0 0 56 56" fill="none" xmlns="http://www.w3.org/2000/svg"><path fill="#007DC3" d="M0 0h56v56H0z"/><path fill-rule="evenodd" clip-rule="evenodd" d="M28 22.77c.78 0 1.44-.38 1.54-.9l.77-8.37c0-.83-1-1.5-2.3-1.5-1.27 0-2.3.67-2.3 1.5l.77 8.38c.1.51.73.9 1.53.9zM23.23 25.39c.4-.65.35-1.39-.05-1.7l-7.24-4.83c-.75-.4-1.88.09-2.52 1.14-.63 1.05-.54 2.23.21 2.64l8.03 3.55c.51.18 1.2-.16 1.57-.8zM32.76 25.39c.4.64 1.08.98 1.58.8l8.02-3.55c.75-.43.87-1.59.2-2.64-.63-1.05-1.76-1.56-2.5-1.14l-7.25 4.83c-.4.31-.43 1.05-.05 1.7zM28 33.23c.78 0 1.44.38 1.54.9l.77 8.37c0 .83-1 1.5-2.3 1.5-1.27 0-2.3-.67-2.3-1.5l.77-8.38c.1-.51.73-.9 1.53-.9zM32.76 30.61c.4-.64 1.08-.98 1.58-.8l8.02 3.55c.75.43.87 1.59.2 2.64-.63 1.05-1.76 1.56-2.5 1.14l-7.25-4.83c-.4-.33-.43-1.05-.05-1.7zM23.23 30.61c.4.65.35 1.39-.05 1.7l-7.24 4.83c-.75.4-1.88-.09-2.52-1.14-.63-1.05-.54-2.23.21-2.66l8.03-3.55c.51-.16 1.2.18 1.57.82z" fill="#FDBB30"/></svg>