<!-- by TradingView --><svg width="56" height="56" fill="none" xmlns="http://www.w3.org/2000/svg"><path fill="#0E5640" d="M0 0h56v56H0z"/><circle cx="28" cy="28" r="28" fill="#0E5640"/><path d="M18.896 9.015V20.93s.153-.214.255-.287c3.413-2.707 7.296-3.742 11.594-2.934 5.755 1.081 10.081 5.324 11.132 10.974 1.46 7.805-4.31 15.552-12.248 16.26-8.012.727-15.78-5.578-15.733-13.853.038-7.691 0-22.074 0-22.074h5zm9.192 12.963c-5.137 0-9.39 4.151-9.39 9.166 0 5.187 4.188 9.366 9.39 9.366 5.166 0 9.408-4.143 9.454-9.12.065-5.333-4.574-9.521-9.454-9.412z" fill="#fff"/><path d="M21.517 26.51c1.39 0 2.432.658 3.442 1.413.912.69 1.824 1.369 2.715 2.08.282.23.466.209.738-.01a70.082 70.082 0 013.377-2.552c.727-.514 1.53-.799 2.41-.92.25-.032.402-.032.271.285-1.1 2.747.642 6.22-1.465 8.64-.938 1.086-2.289 1.044-3.605 1.018-.467 0-.912.022-1.227.427-.12.153-.228.131-.337-.01-.293-.395-.716-.428-1.172-.417-2.006.033-3.713-.308-4.42-2.486-.617-1.921-.194-4.102-.336-6.088-.044-.449-.304-.865-.39-1.38zm2.085 7.293c.586 1.369 2.139 1.84 3.257.986 1.108-.843 1.477-3.066.695-4.238-.337-.504-.923-.733-1.455-.58-.543.153-.88.646-.89 1.292 0 .23 0 .383.282.208.185-.12.402-.164.608-.022.544.381.522 1.521-.087 1.829-.619.295-1.194-.022-1.227-.723-.032-.964 0-1.927-.01-2.89-.011-.8-.587-1.5-1.282-1.61-.184-.022-.325-.066-.25.23.508 1.767-.385 3.8.359 5.518zm7.22-2.2c.13-.198.022-.33.011-.472-.098-.711-.412-1.095-.988-1.193-.597-.099-1.118.164-1.4.777-.511 1.073-.468 2.19.086 3.209.912 1.664 2.834 1.719 3.8.164 1.035-1.676.128-4.027.51-5.87.055-.251-.14-.185-.282-.174-.64.098-1.226.744-1.248 1.456-.033.985 0 1.97-.022 2.956-.01.592-.304.931-.782.91-.942-.028-1.247-1.25-.619-1.884.304-.296.63-.055.934.12zm-2.812 4.675c.619-.679.684-1.27.239-1.763-.185-.208-.304-.186-.467.01-.402.494-.337 1.063.228 1.753zm2.682-3.876c.022-.176-.054-.285-.228-.296-.163-.011-.271.077-.282.252-.011.164.043.285.228.296.184 0 .282-.077.282-.252zm-5.038-.307c-.174 0-.271.099-.293.263-.022.164.076.285.25.296.173.01.27-.077.293-.252.01-.187-.087-.274-.25-.307z" fill="#fff"/><path d="M24 26h8c0 .15-.197.283-.301.364-1.08.832-2.21 1.623-3.29 2.455-.29.22-.487.254-.789.023-1.125-.866-2.274-1.71-3.411-2.553-.081-.081-.197-.116-.209-.289z" fill="#fff"/></svg>