<!-- by TradingView --><svg width="56" height="56" fill="none" xmlns="http://www.w3.org/2000/svg"><path fill="#005596" d="M0 0h56v56H0z"/><circle cx="28" cy="28" r="28" fill="#005596"/><path fill-rule="evenodd" clip-rule="evenodd" d="M33.86 25H33l-.43 2h.83l-.888 4.4c-.364 1.709.397 1.765 1.956 1.765.407 0 1.135-.056 1.366-.084l.385-1.807a1.704 1.704 0 01-.444.042c-.45 0-.475-.21-.37-.7L36.124 27h.875l.54-2h-.955l.391-2H34.25l-.39 2z" fill="#fff"/><path d="M40.69 34.888l1.204.058.963-.046-1.404 1.477-.762-1.489zM44.92 21.861l-1.379.066 1.417-1.518.758 1.49-.796-.038zM45.034 23.08l-2.71.13 1.11-1.17.76.037 1.575-.075.602 1.182-1.296-.062-.04-.042zM45.931 24.267l-4.832.231 1.113-1.172 3.175.152a7.268 7.268 0 00-.11-.13l1.15-.055.598 1.178-1.006-.048a7.147 7.147 0 00-.088-.156zM46.466 25.465l-6.586.315 1.116-1.174 5.237.25a7.284 7.284 0 00-.108-.229l.956-.046.6 1.18-1.143-.055a6.3 6.3 0 00-.072-.24zM46.725 26.68l-8.066.387 1.115-1.175 6.884.33c-.02-.101-.04-.2-.064-.3l1.142-.054.6 1.177-1.586-.075a6.252 6.252 0 00-.025-.29zM46.738 27.913l-9.307.445 1.125-1.184 8.203.393.003-.21v-.12l1.631-.078.607 1.193-2.3-.11c.015-.109.028-.219.038-.33zM46.47 29.24l-8.446.405-.605-1.19 9.151.438c.029-.11.053-.22.076-.332l2.341-.112-1.128 1.188-1.503-.072c.041-.107.079-.215.114-.325zM45.847 30.589l-7.17.343-.597-1.174 8.019.383c.053-.106.104-.214.152-.324l1.504-.073-1.12 1.179-.977-.047c.066-.094.13-.19.189-.287zM44.7 31.957l-5.37.257-.598-1.176 6.56.314a5.77 5.77 0 00.216-.269l1.022-.048-1.12 1.178-.957-.046c.084-.068.166-.138.247-.21zM42.117 33.397l-2.133.102-.597-1.175 4.547.218a6.05 6.05 0 00.245-.168l1.129-.053-1.117 1.175-2.074-.1zM41.806 34.73l-1.167.057-.6-1.179 2.084.1 1.956-.094-1.114 1.172-1.16-.055z" fill="#fff"/><path fill-rule="evenodd" clip-rule="evenodd" d="M25.453 30.5c-.377 1.92.563 2.749 2.543 2.749 1.685 0 3.258-.685 3.658-2.638.344-1.675-.506-2.054-1.208-2.331-1.52-.598-1.856-.743-1.778-1.122.09-.437.405-.54.686-.54.295 0 .434.073.503.22.058.13.038.458-.004.662h2.304c.149-.728.501-2.542-2.533-2.542-2.107 0-3.195 1.063-3.521 2.651-.296 1.443.404 1.866 2.029 2.507.909.364.97.48.891.86-.03.145-.21.611-.687.611-.309 0-.454-.116-.513-.305-.06-.19-.023-.447.018-.782h-2.388zM15.757 30.087h-.029l.512-7.085h-2.465l-2.39 7.085h-.028l.848-7.085H9.487L9 33h3.054l2.229-6.721h.027L13.722 33h2.998l3.78-9.998h-2.634l-2.11 7.085zM21.44 30.004h3.736c.47-2.312.809-5.117-2.136-5.117-3.006 0-3.723 1.94-4.177 4.173-.456 2.249-.528 4.189 2.478 4.189 1.855 0 3.215-.575 3.657-2.749h-2.472c-.164.809-.325 1.073-.858 1.073-.562 0-.474-.573-.387-.999l.159-.57zm1.438-1.574h-1.18l.195-.869c.158-.778.385-.999.779-.999.435 0 .559.22.4 1l-.194.868z" fill="#fff"/></svg>