<!-- by TradingView --><svg width="56" height="56" fill="none" xmlns="http://www.w3.org/2000/svg"><path fill="#08090D" d="M0 0h56v56H0z"/><circle cx="28" cy="28" r="28" fill="#08090D"/><path d="M35.608 21l-4.316 16h-3.133l-3.27-10.744L21.617 37h-3.112l-4.358-16h3.394l2.668 9.868L23.329 21h3.14l3.173 9.942L32.252 21h3.356zM46 21v9.628c0 1.958-1.617 3.362-3.5 3.362S39 32.586 39 30.628V21h-1.5L36 28.262v2.258c0 3.87 2.697 6.48 6.5 6.48 3.804 0 6.5-2.61 6.5-6.48V21h-3z" fill="#FD0"/><path d="M12.5 37L8 21h1l4.5 16h-1zm4 0L12 21h-1l4.5 16h1z" fill="#fff"/></svg>