<!-- by TradingView --><svg width="56" height="56" fill="none" xmlns="http://www.w3.org/2000/svg"><path fill="url(#paint0_linear)" d="M0 0h56v56H0z"/><circle cx="28" cy="28" r="28" fill="url(#paint1_linear)"/><path d="M10.462 27.463c-.07.005 0 .16-.02.244-.02.084-.07.45-.077.53-.08.802.55.68 1.063.842.304.04 1.613-.162 3.23-1.704.664-.633 1.296-1.169 2.223-2.368 1.092-1.415.718-1.27 1.72-2.674.245-.384.488-.768.732-1.153.35-.508.828-1.072.988-1.66.146-.537-.22-1.473-.781-1.511-.012-.043-.39.078-.363.29.075.38.11.958-.027 1.283-.32.748-.848 1.403-1.239 2.143-1.692 3.203-3.703 5.068-5.638 6.325-.145.095-.876.356-1.008.086-.404-.824 1.428-2.677 1.69-3.42l.024-.323c-.036-.077-.073-.155-.109-.235-.103-.09-.258-.1-.403-.087l-.072.01a3.066 3.066 0 01-.078.025c-.523.208-.8.798-1.218 1.17-.534.473-1.125.915-1.71 1.294-.335.216-.84.598-1.016.734-.176.136-.768.562-1.17.44-.199-.059-.22-.318-.176-.495.155-.643.843-1.222 1.304-1.669.484-.474.94-1.122 1.277-1.697.143-.251.35-.517.344-.822-.026-1.23-1.555.356-1.732.749l.04-.002c-.123.133-.243.265-.366.396-.714 1.186-3.02 3.524-1.225 4.696.268.164.659.227 1.307-.16.487-.292 2.022-1.385 2.486-1.277z" fill="#fff"/><path d="M18.83 30.873c-.419 2.81-1.339 4.622-4.087 5.626-.184.07-.828.252-.921.255-1.417.112-2.462.143-3.514-.581-.222-.153-.448-.661-.4-.98.14-.961.91-1.59 1.581-2.264a29.72 29.72 0 012.94-2.614l1.868-1.409c.212-.017.424.063.667.028.486-.072 1.468-.484 1.847-.777.018-.05.289-.143.324-.024.029.144.055.286.083.43-.005.815-.275 1.546-.389 2.31zm17.269-1.839c.216-.037 3.283-.886 4.695-.736.643 0 2.54.594 3.147.63.504.06 2.33.099 2.37.099.602.001 1.24.042 1.633-.516.084-.122-.015-.22-.125-.256-.513-.17-1.506-.114-1.768-.07-2.453.193-3.114-.407-5.425-.573-.62-.045-4.468.705-4.587.726 0 0-.49.1-1.002.238-.511.139-.55-.357-.57-.517-.02-.16.197-1.157.256-1.392.118-.476-.118-.815-.334-.835-.236-.022-.688.279-.865.438-.177.159-1.474 1.054-1.847 1.372-.373.319-.49-.099-.393-.258.098-.16.315-.736.432-1.075.12-.338-.117-.557-.313-.655-.196-.1-.61.159-.727.278-.119.12-.746.557-1.16.855-.412.298-1.513.914-2.004 1.153-.492.238-.492-.358-.452-.636.04-.279.155-.725.217-1.214.078-.636-.531-.496-.766-.377-.237.12-2.143 1.471-2.398 1.67-.255.2-.255-.14-.235-.259.02-.119.059-.357.275-.834.215-.477.04-.617 0-.836-.04-.218-.511-.12-.885.04-.206.088-2.478.919-2.562.939l-.216.017c0-.011-.04-.023-.04-.07-.008-.253-.114-.442-.395-.4-.59.08-.91.624-1.34.973-.605.49-1.226 1.022-1.92 1.362-.212.115-.172-.383-.02-.565.95-1.148.588-.756 1.04-1.246.341-.447.8-.935.973-1.46.157-.48-.077-1.263-.584-1.325-.188-.01-.325.151-.325.288.026.339-.024.738-.158 1.036-.303.674-.735 1.307-1.222 1.887-.703.84-.741 1.546-.741 1.546s-1.086.726-1.51 1.101c-.684.573-1.37 1.145-2.057 1.718-1.184 1.081-4.099 3.077-3.13 5.019.204.412.544.78.959 1.005.636.344 1.478.717 2.265.654a.731.731 0 00.181.026c.62.01 1.302-.07 1.867-.253 3.747-1.215 6.105-5.353 5.795-9.399-.018-.227.109-.497.278-.65.384-.348 1.88-1.305 2.351-1.388.57-.1.314.776.236 1.054-.079.279-.315.677-.354 1.015-.039.337.303.488.55.576.334.12.826-.318.983-.457.157-.139 1.59-1.392 1.846-1.571.255-.178.295.22.255.398-.038.179-.156.656-.176.954-.02.298.039.617.294.775.256.16.511.04.806-.138.295-.18 2.142-1.412 2.3-1.492.157-.08.608-.437.903-.517.295-.08.275.259.137.557-.05.11-.176.677-.235.954-.06.278-.079.577.255.855.259.216.865-.377 1.022-.517.156-.139 1.512-1.371 1.768-1.53.256-.16.373.23.275.596-.118.438-.144.846-.066.995.178.338.523.517 1.343.436.139-.013 1.2-.218 1.2-.218zM48.802 28.668c.087.252.233.446.64.524.187.035.423-.079.456-.203.044-.163.13-.248.092-.454-.047-.259-.232-.446-.64-.523-.185-.035-.423.078-.454.202-.045.163-.161.254-.094.454z" fill="#fff"/><defs><linearGradient id="paint0_linear" x1="10.418" y1="9.712" x2="68.147" y2="76.017" gradientUnits="userSpaceOnUse"><stop stop-color="#1A1E21"/><stop offset="1" stop-color="#06060A"/></linearGradient><linearGradient id="paint1_linear" x1="10.418" y1="9.712" x2="68.147" y2="76.017" gradientUnits="userSpaceOnUse"><stop stop-color="#1A1E21"/><stop offset="1" stop-color="#06060A"/></linearGradient></defs></svg>