<!-- by TradingView --><svg width="56" height="56" fill="none" xmlns="http://www.w3.org/2000/svg"><path fill="#5D5D5F" d="M0 0h56v56H0z"/><circle cx="28" cy="28" r="28" fill="#5D5D5F"/><path d="M18 12.005c2.448-.005 4.896 0 7.345-.004 3.535-.037 7.125.745 10.2 2.521 2.84 1.622 5.15 4.179 6.36 7.219 1.322 3.33 1.437 7.109.397 10.532a8.29 8.29 0 00-2.825-3.734c-1.826-1.366-4.015-2.128-6.19-2.746-1.982-.567-4.025-.883-6.007-1.45-2.134-.596-4.294-1.274-6.145-2.521-.924-.625-1.73-1.446-2.239-2.444-.655-1.251-.818-2.682-.896-4.072v-3.3zM18 26.899c1.6.953 3.284 1.781 5.047 2.392 3.367 1.204 6.954 1.612 10.334 2.771 1.424.498 2.915 1.06 3.953 2.2.964 1.054 1.1 2.595.912 3.948-.313 1.91-1.785 3.427-3.465 4.285-2.552 1.313-5.503 1.615-8.336 1.473-1.962-.192-3.876-.741-5.71-1.445-.94-.385-1.887-.78-2.735-1.345v-14.28z" fill="#fff"/></svg>