<!-- by TradingView --><svg width="56" height="56" fill="none" xmlns="http://www.w3.org/2000/svg"><path fill="#D92231" d="M0 0h56v56H0z"/><path d="M42.013 27.994c0 2.87-2.136 4.996-5.152 4.996-3.075 0-5.163-2.034-5.163-4.993 0-2.799 2.06-4.997 5.163-4.997 3.016 0 5.152 2.125 5.152 4.994zm-2.663.001c0-1.678-.681-3.166-2.488-3.166s-2.503 1.489-2.503 3.166c0 1.678.696 3.167 2.503 3.167 1.807 0 2.487-1.489 2.487-3.167zm-15.52-.689c-.125-1.298-.575-2.54-1.411-3.248-.806-.683-1.887-1.05-3.225-1.05-.986 0-2.233.322-3.15 1.041-1.096.858-1.943 2.2-1.943 4.005 0 1.557.53 2.811 1.485 3.66.935.832 2.258 1.286 3.899 1.286 1.32 0 2.915-.475 3.599-.877.24-.141.314-.202.252-.432l-.427-1.152c-.05-.19-.27-.238-.448-.153-.3.14-.525.251-.83.358-.59.208-1.202.35-1.785.35-1.226 0-1.923-.318-2.457-.904-.34-.372-.542-.645-.604-1.19h6.72c.245 0 .355-.162.355-.436v-.465c0-.227-.01-.58-.03-.793zm-2.374-.296h-4.67c.05-.323.146-.57.298-.862.417-.8 1.21-1.31 2.195-1.31 1.351 0 2.177.874 2.177 2.172zm5.24-2.626c.765-.94 1.577-1.368 3.53-1.368.46 0 1.024.05 1.378.13.233.052.268.225.225.447l-.232 1.086c-.054.203-.112.261-.28.261-.026 0-.075-.004-.136-.011a10.59 10.59 0 00-.815-.067c-.971 0-1.597.23-1.943.584-.401.41-.415 1.017-.415 2.103v4.95c0 .318-.146.496-.504.496h-1c-.331 0-.474-.157-.5-.495v-4.862c-.001-1.726.105-2.533.691-3.254zM9.003 26.5c.347-.342 1.44-1.548 2.336-3.157.15-.276.284-.343.486-.343h1.937c.149 0 .328.069.23.343-.659 1.867-2.656 3.81-3.489 4.657.91.82 2.707 2.73 3.465 4.633.068.17.035.367-.345.367h-1.986c-.207 0-.366-.02-.505-.343-.493-1.17-1.25-2.35-2.129-3.157-.959.97-1.99 2.121-2.482 3.157-.12.254-.24.343-.502.343H4.198c-.121 0-.245-.136-.165-.344.54-1.416 1.633-3.33 3.177-4.656-1.212-1.397-2.73-3.223-3.19-4.657-.07-.215.051-.343.22-.343h1.994c.232 0 .35.091.467.343.303.657 1.756 2.539 2.303 3.157z" fill="#fff"/><path d="M47.01 26.5c.348-.341 1.44-1.547 2.336-3.156.15-.276.285-.343.486-.343h1.937c.149 0 .328.068.231.343-.66 1.867-2.657 3.81-3.49 4.657.91.82 2.707 2.73 3.465 4.632.069.171.035.368-.345.368h-1.986c-.206 0-.366-.02-.505-.343-.492-1.17-1.25-2.351-2.129-3.157-.958.97-1.99 2.12-2.482 3.157-.12.254-.24.343-.502.343h-1.822c-.121 0-.245-.136-.165-.345.54-1.415 1.633-3.33 3.177-4.655-1.212-1.397-2.73-3.223-3.19-4.657-.07-.216.052-.343.22-.343h1.994c.232 0 .35.09.467.343.303.657 1.756 2.538 2.303 3.157z" fill="#fff"/></svg>