<!-- by TradingView --><svg width="56" height="56" fill="none" xmlns="http://www.w3.org/2000/svg"><path fill="#ED1C24" d="M0 0h56v56H0z"/><circle cx="28" cy="28" r="28" fill="#ED1C24"/><path fill-rule="evenodd" clip-rule="evenodd" d="M12.947 45l12.94-5.766c.87.084 1.708.135 2.58.135C38.688 39.37 47 34.104 47 27.66 47 21.214 38.688 16 28.467 16 18.26 16 10 21.213 10 27.66c0 4.386 3.804 8.216 9.434 10.19L12.947 45z" fill="#fff"/><path fill-rule="evenodd" clip-rule="evenodd" d="M18.413 22l.133 1c.668 0 1.408-.135.889.852-.44.835-.993 1.632-1.526 2.414-.354-.68-1.103-2.127-1.351-2.821-.219-.613.634-.445 1.017-.445l-.152-1h-4.44l.184 1h.939c.1.113 2.143 4.637 2.245 4.835-.05.203-.385 3.33-.385 3.33-.05.337-.151.59-.302.64-.232.235-.848.149-1.173.187l.15 1.008h5.23l-.202-1.008s-.927.067-1.256-.135c-.272 0-.128-.941-.101-1.047 0 0 .234-2.485.285-2.924.1-.152 2.597-4.134 2.597-4.134.235-.388.385-.54.436-.59.185-.19.637-.13.887-.162l-.2-1h-3.904z" fill="#ED1C24"/><path fill-rule="evenodd" clip-rule="evenodd" d="M23.238 25.864l-2.53.496.134.807c.218 0 .838 0 .888.046.075.07.05.191.05.28-.116 1.471-.302 2.947-.302 4.423 0 .62.758 1.085 1.375 1.085.787 0 1.457-.45 2.045-1.303.1-.14.25-.372.4-.59-.176.5-.004 1.323.437 1.63 1.428 1.056 2.566-.95 3.083-1.909l-.838-.496c-.252.365-.508.727-.77 1.086 0-1.815.319-3.619.536-5.42h-1.86c-.203.656-.285 1.324-.435 1.99-.23.825-.989 3.523-2.062 3.523l.436-5.105c0-.356-.192-.543-.587-.543zM28.617 26.216l.15.902c.245 0 .807-.113.973.05.084 0 .05.178.05.23L29.204 33h1.91c.264-1.8.58-3.68 1.659-5.21.436-.574.637-.622.737-.622 0 .623-.317 3.901-.486 5.832h1.894c.124-.86.175-1.724.301-2.586.146-.94.873-2.985 1.961-3.246v.23l-.351 4.115c0 .57.1 1.23.535 1.492 1.467.715 2.52-.966 3.084-2.066l-.872-.573c-.165.243-.664 1.196-.788 1.196.165-1.546.336-3.087.336-4.64 0-.771-.702-1.28-1.508-1.28-.687 0-1.324.427-2.011 1.329-.05.098-.1.147-.184.245v-.294c-.15-.701-.71-1.28-1.475-1.28-1.05 0-1.676.915-2.195 1.673.05-.574.15-1.443.15-1.443l-.401-.279c-.949.254-1.93.38-2.883.623zM41.771 22.418c-.15.305-.2.844-.2 1.536v1.367c0 .1 0 .54-.05 2.024l-.05 2.616.937.185.537-2.463c.184-1.029.285-1.417.334-1.569.352-1.333.537-2.109.588-2.362a2.92 2.92 0 000-.928 1.672 1.672 0 00-.386-.743 1.098 1.098 0 00-.788-.304c-.385 0-.737.203-.922.641z" fill="#ED1C24"/><circle cx="41.806" cy="31.624" r="1.021" fill="#ED1C24"/></svg>